%TF.GenerationSoftware,KiCad,Pcbnew,7.0.10*%
%TF.CreationDate,2025-03-12T17:19:52-05:00*%
%TF.ProjectId,Reflow Project Kicad,5265666c-6f77-4205-9072-6f6a65637420,rev?*%
%TF.SameCoordinates,Original*%
%TF.FileFunction,Legend,Top*%
%TF.FilePolarity,Positive*%
%FSLAX46Y46*%
G04 Gerber Fmt 4.6, Leading zero omitted, Abs format (unit mm)*
G04 Created by KiCad (PCBNEW 7.0.10) date 2025-03-12 17:19:52*
%MOMM*%
%LPD*%
G01*
G04 APERTURE LIST*
%ADD10C,0.150000*%
%ADD11C,0.250000*%
%ADD12C,0.200000*%
%ADD13C,0.120000*%
%ADD14C,0.152400*%
%ADD15C,0.508000*%
%ADD16C,0.127000*%
G04 APERTURE END LIST*
D10*
X169400000Y-115500000D02*
X169600000Y-115500000D01*
X169500000Y-114400000D02*
X169500000Y-114900000D01*
X168050000Y-76050000D02*
X168125400Y-76050000D01*
X168125400Y-77550000D01*
X168050000Y-77550000D01*
X168050000Y-76050000D01*
X169200000Y-115200000D02*
X169800000Y-115200000D01*
X154120711Y-90150000D02*
G75*
G03*
X153979289Y-90150000I-70711J0D01*
G01*
X153979289Y-90150000D02*
G75*
G03*
X154120711Y-90150000I70711J0D01*
G01*
D11*
X158271699Y-76700000D02*
G75*
G03*
X157128301Y-76700000I-571699J0D01*
G01*
X157128301Y-76700000D02*
G75*
G03*
X158271699Y-76700000I571699J0D01*
G01*
D10*
X169100000Y-114900000D02*
X170100000Y-114900000D01*
X169500000Y-114900000D02*
X168900000Y-114900000D01*
D12*
X152322054Y-68219600D02*
X152464911Y-68267219D01*
X152464911Y-68267219D02*
X152703006Y-68267219D01*
X152703006Y-68267219D02*
X152798244Y-68219600D01*
X152798244Y-68219600D02*
X152845863Y-68171980D01*
X152845863Y-68171980D02*
X152893482Y-68076742D01*
X152893482Y-68076742D02*
X152893482Y-67981504D01*
X152893482Y-67981504D02*
X152845863Y-67886266D01*
X152845863Y-67886266D02*
X152798244Y-67838647D01*
X152798244Y-67838647D02*
X152703006Y-67791028D01*
X152703006Y-67791028D02*
X152512530Y-67743409D01*
X152512530Y-67743409D02*
X152417292Y-67695790D01*
X152417292Y-67695790D02*
X152369673Y-67648171D01*
X152369673Y-67648171D02*
X152322054Y-67552933D01*
X152322054Y-67552933D02*
X152322054Y-67457695D01*
X152322054Y-67457695D02*
X152369673Y-67362457D01*
X152369673Y-67362457D02*
X152417292Y-67314838D01*
X152417292Y-67314838D02*
X152512530Y-67267219D01*
X152512530Y-67267219D02*
X152750625Y-67267219D01*
X152750625Y-67267219D02*
X152893482Y-67314838D01*
X153226816Y-67267219D02*
X153464911Y-68267219D01*
X153464911Y-68267219D02*
X153655387Y-67552933D01*
X153655387Y-67552933D02*
X153845863Y-68267219D01*
X153845863Y-68267219D02*
X154083959Y-67267219D01*
X154464911Y-68267219D02*
X154464911Y-67267219D01*
X154464911Y-67267219D02*
X154703006Y-67267219D01*
X154703006Y-67267219D02*
X154845863Y-67314838D01*
X154845863Y-67314838D02*
X154941101Y-67410076D01*
X154941101Y-67410076D02*
X154988720Y-67505314D01*
X154988720Y-67505314D02*
X155036339Y-67695790D01*
X155036339Y-67695790D02*
X155036339Y-67838647D01*
X155036339Y-67838647D02*
X154988720Y-68029123D01*
X154988720Y-68029123D02*
X154941101Y-68124361D01*
X154941101Y-68124361D02*
X154845863Y-68219600D01*
X154845863Y-68219600D02*
X154703006Y-68267219D01*
X154703006Y-68267219D02*
X154464911Y-68267219D01*
D10*
X156384398Y-114988200D02*
X157298684Y-114988200D01*
X156841541Y-115445342D02*
X156841541Y-114531057D01*
D12*
X165445863Y-68067219D02*
X164969673Y-68067219D01*
X164969673Y-68067219D02*
X164969673Y-67067219D01*
X166350625Y-67971980D02*
X166303006Y-68019600D01*
X166303006Y-68019600D02*
X166160149Y-68067219D01*
X166160149Y-68067219D02*
X166064911Y-68067219D01*
X166064911Y-68067219D02*
X165922054Y-68019600D01*
X165922054Y-68019600D02*
X165826816Y-67924361D01*
X165826816Y-67924361D02*
X165779197Y-67829123D01*
X165779197Y-67829123D02*
X165731578Y-67638647D01*
X165731578Y-67638647D02*
X165731578Y-67495790D01*
X165731578Y-67495790D02*
X165779197Y-67305314D01*
X165779197Y-67305314D02*
X165826816Y-67210076D01*
X165826816Y-67210076D02*
X165922054Y-67114838D01*
X165922054Y-67114838D02*
X166064911Y-67067219D01*
X166064911Y-67067219D02*
X166160149Y-67067219D01*
X166160149Y-67067219D02*
X166303006Y-67114838D01*
X166303006Y-67114838D02*
X166350625Y-67162457D01*
X166779197Y-68067219D02*
X166779197Y-67067219D01*
X166779197Y-67067219D02*
X167017292Y-67067219D01*
X167017292Y-67067219D02*
X167160149Y-67114838D01*
X167160149Y-67114838D02*
X167255387Y-67210076D01*
X167255387Y-67210076D02*
X167303006Y-67305314D01*
X167303006Y-67305314D02*
X167350625Y-67495790D01*
X167350625Y-67495790D02*
X167350625Y-67638647D01*
X167350625Y-67638647D02*
X167303006Y-67829123D01*
X167303006Y-67829123D02*
X167255387Y-67924361D01*
X167255387Y-67924361D02*
X167160149Y-68019600D01*
X167160149Y-68019600D02*
X167017292Y-68067219D01*
X167017292Y-68067219D02*
X166779197Y-68067219D01*
D10*
X148393922Y-114469819D02*
X148965350Y-114469819D01*
X148679636Y-115469819D02*
X148679636Y-114469819D01*
X149298684Y-115469819D02*
X149298684Y-114469819D01*
X149727255Y-115469819D02*
X149727255Y-114946009D01*
X149727255Y-114946009D02*
X149679636Y-114850771D01*
X149679636Y-114850771D02*
X149584398Y-114803152D01*
X149584398Y-114803152D02*
X149441541Y-114803152D01*
X149441541Y-114803152D02*
X149346303Y-114850771D01*
X149346303Y-114850771D02*
X149298684Y-114898390D01*
X150584398Y-115422200D02*
X150489160Y-115469819D01*
X150489160Y-115469819D02*
X150298684Y-115469819D01*
X150298684Y-115469819D02*
X150203446Y-115422200D01*
X150203446Y-115422200D02*
X150155827Y-115326961D01*
X150155827Y-115326961D02*
X150155827Y-114946009D01*
X150155827Y-114946009D02*
X150203446Y-114850771D01*
X150203446Y-114850771D02*
X150298684Y-114803152D01*
X150298684Y-114803152D02*
X150489160Y-114803152D01*
X150489160Y-114803152D02*
X150584398Y-114850771D01*
X150584398Y-114850771D02*
X150632017Y-114946009D01*
X150632017Y-114946009D02*
X150632017Y-115041247D01*
X150632017Y-115041247D02*
X150155827Y-115136485D01*
X151060589Y-115469819D02*
X151060589Y-114803152D01*
X151060589Y-114993628D02*
X151108208Y-114898390D01*
X151108208Y-114898390D02*
X151155827Y-114850771D01*
X151155827Y-114850771D02*
X151251065Y-114803152D01*
X151251065Y-114803152D02*
X151346303Y-114803152D01*
X151679637Y-115469819D02*
X151679637Y-114803152D01*
X151679637Y-114898390D02*
X151727256Y-114850771D01*
X151727256Y-114850771D02*
X151822494Y-114803152D01*
X151822494Y-114803152D02*
X151965351Y-114803152D01*
X151965351Y-114803152D02*
X152060589Y-114850771D01*
X152060589Y-114850771D02*
X152108208Y-114946009D01*
X152108208Y-114946009D02*
X152108208Y-115469819D01*
X152108208Y-114946009D02*
X152155827Y-114850771D01*
X152155827Y-114850771D02*
X152251065Y-114803152D01*
X152251065Y-114803152D02*
X152393922Y-114803152D01*
X152393922Y-114803152D02*
X152489161Y-114850771D01*
X152489161Y-114850771D02*
X152536780Y-114946009D01*
X152536780Y-114946009D02*
X152536780Y-115469819D01*
X153155827Y-115469819D02*
X153060589Y-115422200D01*
X153060589Y-115422200D02*
X153012970Y-115374580D01*
X153012970Y-115374580D02*
X152965351Y-115279342D01*
X152965351Y-115279342D02*
X152965351Y-114993628D01*
X152965351Y-114993628D02*
X153012970Y-114898390D01*
X153012970Y-114898390D02*
X153060589Y-114850771D01*
X153060589Y-114850771D02*
X153155827Y-114803152D01*
X153155827Y-114803152D02*
X153298684Y-114803152D01*
X153298684Y-114803152D02*
X153393922Y-114850771D01*
X153393922Y-114850771D02*
X153441541Y-114898390D01*
X153441541Y-114898390D02*
X153489160Y-114993628D01*
X153489160Y-114993628D02*
X153489160Y-115279342D01*
X153489160Y-115279342D02*
X153441541Y-115374580D01*
X153441541Y-115374580D02*
X153393922Y-115422200D01*
X153393922Y-115422200D02*
X153298684Y-115469819D01*
X153298684Y-115469819D02*
X153155827Y-115469819D01*
X162108207Y-115369819D02*
X161774874Y-114893628D01*
X161536779Y-115369819D02*
X161536779Y-114369819D01*
X161536779Y-114369819D02*
X161917731Y-114369819D01*
X161917731Y-114369819D02*
X162012969Y-114417438D01*
X162012969Y-114417438D02*
X162060588Y-114465057D01*
X162060588Y-114465057D02*
X162108207Y-114560295D01*
X162108207Y-114560295D02*
X162108207Y-114703152D01*
X162108207Y-114703152D02*
X162060588Y-114798390D01*
X162060588Y-114798390D02*
X162012969Y-114846009D01*
X162012969Y-114846009D02*
X161917731Y-114893628D01*
X161917731Y-114893628D02*
X161536779Y-114893628D01*
X162917731Y-115322200D02*
X162822493Y-115369819D01*
X162822493Y-115369819D02*
X162632017Y-115369819D01*
X162632017Y-115369819D02*
X162536779Y-115322200D01*
X162536779Y-115322200D02*
X162489160Y-115226961D01*
X162489160Y-115226961D02*
X162489160Y-114846009D01*
X162489160Y-114846009D02*
X162536779Y-114750771D01*
X162536779Y-114750771D02*
X162632017Y-114703152D01*
X162632017Y-114703152D02*
X162822493Y-114703152D01*
X162822493Y-114703152D02*
X162917731Y-114750771D01*
X162917731Y-114750771D02*
X162965350Y-114846009D01*
X162965350Y-114846009D02*
X162965350Y-114941247D01*
X162965350Y-114941247D02*
X162489160Y-115036485D01*
X163536779Y-115369819D02*
X163441541Y-115322200D01*
X163441541Y-115322200D02*
X163393922Y-115226961D01*
X163393922Y-115226961D02*
X163393922Y-114369819D01*
X164346303Y-115369819D02*
X164346303Y-114846009D01*
X164346303Y-114846009D02*
X164298684Y-114750771D01*
X164298684Y-114750771D02*
X164203446Y-114703152D01*
X164203446Y-114703152D02*
X164012970Y-114703152D01*
X164012970Y-114703152D02*
X163917732Y-114750771D01*
X164346303Y-115322200D02*
X164251065Y-115369819D01*
X164251065Y-115369819D02*
X164012970Y-115369819D01*
X164012970Y-115369819D02*
X163917732Y-115322200D01*
X163917732Y-115322200D02*
X163870113Y-115226961D01*
X163870113Y-115226961D02*
X163870113Y-115131723D01*
X163870113Y-115131723D02*
X163917732Y-115036485D01*
X163917732Y-115036485D02*
X164012970Y-114988866D01*
X164012970Y-114988866D02*
X164251065Y-114988866D01*
X164251065Y-114988866D02*
X164346303Y-114941247D01*
X164727256Y-114703152D02*
X164965351Y-115369819D01*
X165203446Y-114703152D02*
X164965351Y-115369819D01*
X164965351Y-115369819D02*
X164870113Y-115607914D01*
X164870113Y-115607914D02*
X164822494Y-115655533D01*
X164822494Y-115655533D02*
X164727256Y-115703152D01*
X168104761Y-82850057D02*
X168009523Y-82802438D01*
X168009523Y-82802438D02*
X167914285Y-82707200D01*
X167914285Y-82707200D02*
X167771428Y-82564342D01*
X167771428Y-82564342D02*
X167676190Y-82516723D01*
X167676190Y-82516723D02*
X167580952Y-82516723D01*
X167628571Y-82754819D02*
X167533333Y-82707200D01*
X167533333Y-82707200D02*
X167438095Y-82611961D01*
X167438095Y-82611961D02*
X167390476Y-82421485D01*
X167390476Y-82421485D02*
X167390476Y-82088152D01*
X167390476Y-82088152D02*
X167438095Y-81897676D01*
X167438095Y-81897676D02*
X167533333Y-81802438D01*
X167533333Y-81802438D02*
X167628571Y-81754819D01*
X167628571Y-81754819D02*
X167819047Y-81754819D01*
X167819047Y-81754819D02*
X167914285Y-81802438D01*
X167914285Y-81802438D02*
X168009523Y-81897676D01*
X168009523Y-81897676D02*
X168057142Y-82088152D01*
X168057142Y-82088152D02*
X168057142Y-82421485D01*
X168057142Y-82421485D02*
X168009523Y-82611961D01*
X168009523Y-82611961D02*
X167914285Y-82707200D01*
X167914285Y-82707200D02*
X167819047Y-82754819D01*
X167819047Y-82754819D02*
X167628571Y-82754819D01*
X168438095Y-81850057D02*
X168485714Y-81802438D01*
X168485714Y-81802438D02*
X168580952Y-81754819D01*
X168580952Y-81754819D02*
X168819047Y-81754819D01*
X168819047Y-81754819D02*
X168914285Y-81802438D01*
X168914285Y-81802438D02*
X168961904Y-81850057D01*
X168961904Y-81850057D02*
X169009523Y-81945295D01*
X169009523Y-81945295D02*
X169009523Y-82040533D01*
X169009523Y-82040533D02*
X168961904Y-82183390D01*
X168961904Y-82183390D02*
X168390476Y-82754819D01*
X168390476Y-82754819D02*
X169009523Y-82754819D01*
X143454819Y-108166666D02*
X142978628Y-108499999D01*
X143454819Y-108738094D02*
X142454819Y-108738094D01*
X142454819Y-108738094D02*
X142454819Y-108357142D01*
X142454819Y-108357142D02*
X142502438Y-108261904D01*
X142502438Y-108261904D02*
X142550057Y-108214285D01*
X142550057Y-108214285D02*
X142645295Y-108166666D01*
X142645295Y-108166666D02*
X142788152Y-108166666D01*
X142788152Y-108166666D02*
X142883390Y-108214285D01*
X142883390Y-108214285D02*
X142931009Y-108261904D01*
X142931009Y-108261904D02*
X142978628Y-108357142D01*
X142978628Y-108357142D02*
X142978628Y-108738094D01*
X142454819Y-107261904D02*
X142454819Y-107738094D01*
X142454819Y-107738094D02*
X142931009Y-107785713D01*
X142931009Y-107785713D02*
X142883390Y-107738094D01*
X142883390Y-107738094D02*
X142835771Y-107642856D01*
X142835771Y-107642856D02*
X142835771Y-107404761D01*
X142835771Y-107404761D02*
X142883390Y-107309523D01*
X142883390Y-107309523D02*
X142931009Y-107261904D01*
X142931009Y-107261904D02*
X143026247Y-107214285D01*
X143026247Y-107214285D02*
X143264342Y-107214285D01*
X143264342Y-107214285D02*
X143359580Y-107261904D01*
X143359580Y-107261904D02*
X143407200Y-107309523D01*
X143407200Y-107309523D02*
X143454819Y-107404761D01*
X143454819Y-107404761D02*
X143454819Y-107642856D01*
X143454819Y-107642856D02*
X143407200Y-107738094D01*
X143407200Y-107738094D02*
X143359580Y-107785713D01*
X178061905Y-100904819D02*
X178061905Y-99904819D01*
X178061905Y-99904819D02*
X178300000Y-99904819D01*
X178300000Y-99904819D02*
X178442857Y-99952438D01*
X178442857Y-99952438D02*
X178538095Y-100047676D01*
X178538095Y-100047676D02*
X178585714Y-100142914D01*
X178585714Y-100142914D02*
X178633333Y-100333390D01*
X178633333Y-100333390D02*
X178633333Y-100476247D01*
X178633333Y-100476247D02*
X178585714Y-100666723D01*
X178585714Y-100666723D02*
X178538095Y-100761961D01*
X178538095Y-100761961D02*
X178442857Y-100857200D01*
X178442857Y-100857200D02*
X178300000Y-100904819D01*
X178300000Y-100904819D02*
X178061905Y-100904819D01*
X179014286Y-100000057D02*
X179061905Y-99952438D01*
X179061905Y-99952438D02*
X179157143Y-99904819D01*
X179157143Y-99904819D02*
X179395238Y-99904819D01*
X179395238Y-99904819D02*
X179490476Y-99952438D01*
X179490476Y-99952438D02*
X179538095Y-100000057D01*
X179538095Y-100000057D02*
X179585714Y-100095295D01*
X179585714Y-100095295D02*
X179585714Y-100190533D01*
X179585714Y-100190533D02*
X179538095Y-100333390D01*
X179538095Y-100333390D02*
X178966667Y-100904819D01*
X178966667Y-100904819D02*
X179585714Y-100904819D01*
X169033333Y-89654819D02*
X168700000Y-89178628D01*
X168461905Y-89654819D02*
X168461905Y-88654819D01*
X168461905Y-88654819D02*
X168842857Y-88654819D01*
X168842857Y-88654819D02*
X168938095Y-88702438D01*
X168938095Y-88702438D02*
X168985714Y-88750057D01*
X168985714Y-88750057D02*
X169033333Y-88845295D01*
X169033333Y-88845295D02*
X169033333Y-88988152D01*
X169033333Y-88988152D02*
X168985714Y-89083390D01*
X168985714Y-89083390D02*
X168938095Y-89131009D01*
X168938095Y-89131009D02*
X168842857Y-89178628D01*
X168842857Y-89178628D02*
X168461905Y-89178628D01*
X169890476Y-88654819D02*
X169700000Y-88654819D01*
X169700000Y-88654819D02*
X169604762Y-88702438D01*
X169604762Y-88702438D02*
X169557143Y-88750057D01*
X169557143Y-88750057D02*
X169461905Y-88892914D01*
X169461905Y-88892914D02*
X169414286Y-89083390D01*
X169414286Y-89083390D02*
X169414286Y-89464342D01*
X169414286Y-89464342D02*
X169461905Y-89559580D01*
X169461905Y-89559580D02*
X169509524Y-89607200D01*
X169509524Y-89607200D02*
X169604762Y-89654819D01*
X169604762Y-89654819D02*
X169795238Y-89654819D01*
X169795238Y-89654819D02*
X169890476Y-89607200D01*
X169890476Y-89607200D02*
X169938095Y-89559580D01*
X169938095Y-89559580D02*
X169985714Y-89464342D01*
X169985714Y-89464342D02*
X169985714Y-89226247D01*
X169985714Y-89226247D02*
X169938095Y-89131009D01*
X169938095Y-89131009D02*
X169890476Y-89083390D01*
X169890476Y-89083390D02*
X169795238Y-89035771D01*
X169795238Y-89035771D02*
X169604762Y-89035771D01*
X169604762Y-89035771D02*
X169509524Y-89083390D01*
X169509524Y-89083390D02*
X169461905Y-89131009D01*
X169461905Y-89131009D02*
X169414286Y-89226247D01*
X172833333Y-104159580D02*
X172785714Y-104207200D01*
X172785714Y-104207200D02*
X172642857Y-104254819D01*
X172642857Y-104254819D02*
X172547619Y-104254819D01*
X172547619Y-104254819D02*
X172404762Y-104207200D01*
X172404762Y-104207200D02*
X172309524Y-104111961D01*
X172309524Y-104111961D02*
X172261905Y-104016723D01*
X172261905Y-104016723D02*
X172214286Y-103826247D01*
X172214286Y-103826247D02*
X172214286Y-103683390D01*
X172214286Y-103683390D02*
X172261905Y-103492914D01*
X172261905Y-103492914D02*
X172309524Y-103397676D01*
X172309524Y-103397676D02*
X172404762Y-103302438D01*
X172404762Y-103302438D02*
X172547619Y-103254819D01*
X172547619Y-103254819D02*
X172642857Y-103254819D01*
X172642857Y-103254819D02*
X172785714Y-103302438D01*
X172785714Y-103302438D02*
X172833333Y-103350057D01*
X173690476Y-103254819D02*
X173500000Y-103254819D01*
X173500000Y-103254819D02*
X173404762Y-103302438D01*
X173404762Y-103302438D02*
X173357143Y-103350057D01*
X173357143Y-103350057D02*
X173261905Y-103492914D01*
X173261905Y-103492914D02*
X173214286Y-103683390D01*
X173214286Y-103683390D02*
X173214286Y-104064342D01*
X173214286Y-104064342D02*
X173261905Y-104159580D01*
X173261905Y-104159580D02*
X173309524Y-104207200D01*
X173309524Y-104207200D02*
X173404762Y-104254819D01*
X173404762Y-104254819D02*
X173595238Y-104254819D01*
X173595238Y-104254819D02*
X173690476Y-104207200D01*
X173690476Y-104207200D02*
X173738095Y-104159580D01*
X173738095Y-104159580D02*
X173785714Y-104064342D01*
X173785714Y-104064342D02*
X173785714Y-103826247D01*
X173785714Y-103826247D02*
X173738095Y-103731009D01*
X173738095Y-103731009D02*
X173690476Y-103683390D01*
X173690476Y-103683390D02*
X173595238Y-103635771D01*
X173595238Y-103635771D02*
X173404762Y-103635771D01*
X173404762Y-103635771D02*
X173309524Y-103683390D01*
X173309524Y-103683390D02*
X173261905Y-103731009D01*
X173261905Y-103731009D02*
X173214286Y-103826247D01*
X174033333Y-80454819D02*
X173700000Y-79978628D01*
X173461905Y-80454819D02*
X173461905Y-79454819D01*
X173461905Y-79454819D02*
X173842857Y-79454819D01*
X173842857Y-79454819D02*
X173938095Y-79502438D01*
X173938095Y-79502438D02*
X173985714Y-79550057D01*
X173985714Y-79550057D02*
X174033333Y-79645295D01*
X174033333Y-79645295D02*
X174033333Y-79788152D01*
X174033333Y-79788152D02*
X173985714Y-79883390D01*
X173985714Y-79883390D02*
X173938095Y-79931009D01*
X173938095Y-79931009D02*
X173842857Y-79978628D01*
X173842857Y-79978628D02*
X173461905Y-79978628D01*
X174604762Y-79883390D02*
X174509524Y-79835771D01*
X174509524Y-79835771D02*
X174461905Y-79788152D01*
X174461905Y-79788152D02*
X174414286Y-79692914D01*
X174414286Y-79692914D02*
X174414286Y-79645295D01*
X174414286Y-79645295D02*
X174461905Y-79550057D01*
X174461905Y-79550057D02*
X174509524Y-79502438D01*
X174509524Y-79502438D02*
X174604762Y-79454819D01*
X174604762Y-79454819D02*
X174795238Y-79454819D01*
X174795238Y-79454819D02*
X174890476Y-79502438D01*
X174890476Y-79502438D02*
X174938095Y-79550057D01*
X174938095Y-79550057D02*
X174985714Y-79645295D01*
X174985714Y-79645295D02*
X174985714Y-79692914D01*
X174985714Y-79692914D02*
X174938095Y-79788152D01*
X174938095Y-79788152D02*
X174890476Y-79835771D01*
X174890476Y-79835771D02*
X174795238Y-79883390D01*
X174795238Y-79883390D02*
X174604762Y-79883390D01*
X174604762Y-79883390D02*
X174509524Y-79931009D01*
X174509524Y-79931009D02*
X174461905Y-79978628D01*
X174461905Y-79978628D02*
X174414286Y-80073866D01*
X174414286Y-80073866D02*
X174414286Y-80264342D01*
X174414286Y-80264342D02*
X174461905Y-80359580D01*
X174461905Y-80359580D02*
X174509524Y-80407200D01*
X174509524Y-80407200D02*
X174604762Y-80454819D01*
X174604762Y-80454819D02*
X174795238Y-80454819D01*
X174795238Y-80454819D02*
X174890476Y-80407200D01*
X174890476Y-80407200D02*
X174938095Y-80359580D01*
X174938095Y-80359580D02*
X174985714Y-80264342D01*
X174985714Y-80264342D02*
X174985714Y-80073866D01*
X174985714Y-80073866D02*
X174938095Y-79978628D01*
X174938095Y-79978628D02*
X174890476Y-79931009D01*
X174890476Y-79931009D02*
X174795238Y-79883390D01*
X144933333Y-89859580D02*
X144885714Y-89907200D01*
X144885714Y-89907200D02*
X144742857Y-89954819D01*
X144742857Y-89954819D02*
X144647619Y-89954819D01*
X144647619Y-89954819D02*
X144504762Y-89907200D01*
X144504762Y-89907200D02*
X144409524Y-89811961D01*
X144409524Y-89811961D02*
X144361905Y-89716723D01*
X144361905Y-89716723D02*
X144314286Y-89526247D01*
X144314286Y-89526247D02*
X144314286Y-89383390D01*
X144314286Y-89383390D02*
X144361905Y-89192914D01*
X144361905Y-89192914D02*
X144409524Y-89097676D01*
X144409524Y-89097676D02*
X144504762Y-89002438D01*
X144504762Y-89002438D02*
X144647619Y-88954819D01*
X144647619Y-88954819D02*
X144742857Y-88954819D01*
X144742857Y-88954819D02*
X144885714Y-89002438D01*
X144885714Y-89002438D02*
X144933333Y-89050057D01*
X145504762Y-89383390D02*
X145409524Y-89335771D01*
X145409524Y-89335771D02*
X145361905Y-89288152D01*
X145361905Y-89288152D02*
X145314286Y-89192914D01*
X145314286Y-89192914D02*
X145314286Y-89145295D01*
X145314286Y-89145295D02*
X145361905Y-89050057D01*
X145361905Y-89050057D02*
X145409524Y-89002438D01*
X145409524Y-89002438D02*
X145504762Y-88954819D01*
X145504762Y-88954819D02*
X145695238Y-88954819D01*
X145695238Y-88954819D02*
X145790476Y-89002438D01*
X145790476Y-89002438D02*
X145838095Y-89050057D01*
X145838095Y-89050057D02*
X145885714Y-89145295D01*
X145885714Y-89145295D02*
X145885714Y-89192914D01*
X145885714Y-89192914D02*
X145838095Y-89288152D01*
X145838095Y-89288152D02*
X145790476Y-89335771D01*
X145790476Y-89335771D02*
X145695238Y-89383390D01*
X145695238Y-89383390D02*
X145504762Y-89383390D01*
X145504762Y-89383390D02*
X145409524Y-89431009D01*
X145409524Y-89431009D02*
X145361905Y-89478628D01*
X145361905Y-89478628D02*
X145314286Y-89573866D01*
X145314286Y-89573866D02*
X145314286Y-89764342D01*
X145314286Y-89764342D02*
X145361905Y-89859580D01*
X145361905Y-89859580D02*
X145409524Y-89907200D01*
X145409524Y-89907200D02*
X145504762Y-89954819D01*
X145504762Y-89954819D02*
X145695238Y-89954819D01*
X145695238Y-89954819D02*
X145790476Y-89907200D01*
X145790476Y-89907200D02*
X145838095Y-89859580D01*
X145838095Y-89859580D02*
X145885714Y-89764342D01*
X145885714Y-89764342D02*
X145885714Y-89573866D01*
X145885714Y-89573866D02*
X145838095Y-89478628D01*
X145838095Y-89478628D02*
X145790476Y-89431009D01*
X145790476Y-89431009D02*
X145695238Y-89383390D01*
X164159580Y-90666666D02*
X164207200Y-90714285D01*
X164207200Y-90714285D02*
X164254819Y-90857142D01*
X164254819Y-90857142D02*
X164254819Y-90952380D01*
X164254819Y-90952380D02*
X164207200Y-91095237D01*
X164207200Y-91095237D02*
X164111961Y-91190475D01*
X164111961Y-91190475D02*
X164016723Y-91238094D01*
X164016723Y-91238094D02*
X163826247Y-91285713D01*
X163826247Y-91285713D02*
X163683390Y-91285713D01*
X163683390Y-91285713D02*
X163492914Y-91238094D01*
X163492914Y-91238094D02*
X163397676Y-91190475D01*
X163397676Y-91190475D02*
X163302438Y-91095237D01*
X163302438Y-91095237D02*
X163254819Y-90952380D01*
X163254819Y-90952380D02*
X163254819Y-90857142D01*
X163254819Y-90857142D02*
X163302438Y-90714285D01*
X163302438Y-90714285D02*
X163350057Y-90666666D01*
X163254819Y-90333332D02*
X163254819Y-89714285D01*
X163254819Y-89714285D02*
X163635771Y-90047618D01*
X163635771Y-90047618D02*
X163635771Y-89904761D01*
X163635771Y-89904761D02*
X163683390Y-89809523D01*
X163683390Y-89809523D02*
X163731009Y-89761904D01*
X163731009Y-89761904D02*
X163826247Y-89714285D01*
X163826247Y-89714285D02*
X164064342Y-89714285D01*
X164064342Y-89714285D02*
X164159580Y-89761904D01*
X164159580Y-89761904D02*
X164207200Y-89809523D01*
X164207200Y-89809523D02*
X164254819Y-89904761D01*
X164254819Y-89904761D02*
X164254819Y-90190475D01*
X164254819Y-90190475D02*
X164207200Y-90285713D01*
X164207200Y-90285713D02*
X164159580Y-90333332D01*
X154493333Y-110545180D02*
X154493333Y-109830895D01*
X154493333Y-109830895D02*
X154540952Y-109688038D01*
X154540952Y-109688038D02*
X154636190Y-109592800D01*
X154636190Y-109592800D02*
X154779047Y-109545180D01*
X154779047Y-109545180D02*
X154874285Y-109545180D01*
X153540952Y-110545180D02*
X154017142Y-110545180D01*
X154017142Y-110545180D02*
X154064761Y-110068990D01*
X154064761Y-110068990D02*
X154017142Y-110116609D01*
X154017142Y-110116609D02*
X153921904Y-110164228D01*
X153921904Y-110164228D02*
X153683809Y-110164228D01*
X153683809Y-110164228D02*
X153588571Y-110116609D01*
X153588571Y-110116609D02*
X153540952Y-110068990D01*
X153540952Y-110068990D02*
X153493333Y-109973752D01*
X153493333Y-109973752D02*
X153493333Y-109735657D01*
X153493333Y-109735657D02*
X153540952Y-109640419D01*
X153540952Y-109640419D02*
X153588571Y-109592800D01*
X153588571Y-109592800D02*
X153683809Y-109545180D01*
X153683809Y-109545180D02*
X153921904Y-109545180D01*
X153921904Y-109545180D02*
X154017142Y-109592800D01*
X154017142Y-109592800D02*
X154064761Y-109640419D01*
X175059580Y-98142857D02*
X175107200Y-98190476D01*
X175107200Y-98190476D02*
X175154819Y-98333333D01*
X175154819Y-98333333D02*
X175154819Y-98428571D01*
X175154819Y-98428571D02*
X175107200Y-98571428D01*
X175107200Y-98571428D02*
X175011961Y-98666666D01*
X175011961Y-98666666D02*
X174916723Y-98714285D01*
X174916723Y-98714285D02*
X174726247Y-98761904D01*
X174726247Y-98761904D02*
X174583390Y-98761904D01*
X174583390Y-98761904D02*
X174392914Y-98714285D01*
X174392914Y-98714285D02*
X174297676Y-98666666D01*
X174297676Y-98666666D02*
X174202438Y-98571428D01*
X174202438Y-98571428D02*
X174154819Y-98428571D01*
X174154819Y-98428571D02*
X174154819Y-98333333D01*
X174154819Y-98333333D02*
X174202438Y-98190476D01*
X174202438Y-98190476D02*
X174250057Y-98142857D01*
X175154819Y-97190476D02*
X175154819Y-97761904D01*
X175154819Y-97476190D02*
X174154819Y-97476190D01*
X174154819Y-97476190D02*
X174297676Y-97571428D01*
X174297676Y-97571428D02*
X174392914Y-97666666D01*
X174392914Y-97666666D02*
X174440533Y-97761904D01*
X174154819Y-96333333D02*
X174154819Y-96523809D01*
X174154819Y-96523809D02*
X174202438Y-96619047D01*
X174202438Y-96619047D02*
X174250057Y-96666666D01*
X174250057Y-96666666D02*
X174392914Y-96761904D01*
X174392914Y-96761904D02*
X174583390Y-96809523D01*
X174583390Y-96809523D02*
X174964342Y-96809523D01*
X174964342Y-96809523D02*
X175059580Y-96761904D01*
X175059580Y-96761904D02*
X175107200Y-96714285D01*
X175107200Y-96714285D02*
X175154819Y-96619047D01*
X175154819Y-96619047D02*
X175154819Y-96428571D01*
X175154819Y-96428571D02*
X175107200Y-96333333D01*
X175107200Y-96333333D02*
X175059580Y-96285714D01*
X175059580Y-96285714D02*
X174964342Y-96238095D01*
X174964342Y-96238095D02*
X174726247Y-96238095D01*
X174726247Y-96238095D02*
X174631009Y-96285714D01*
X174631009Y-96285714D02*
X174583390Y-96333333D01*
X174583390Y-96333333D02*
X174535771Y-96428571D01*
X174535771Y-96428571D02*
X174535771Y-96619047D01*
X174535771Y-96619047D02*
X174583390Y-96714285D01*
X174583390Y-96714285D02*
X174631009Y-96761904D01*
X174631009Y-96761904D02*
X174726247Y-96809523D01*
X153833333Y-86559580D02*
X153785714Y-86607200D01*
X153785714Y-86607200D02*
X153642857Y-86654819D01*
X153642857Y-86654819D02*
X153547619Y-86654819D01*
X153547619Y-86654819D02*
X153404762Y-86607200D01*
X153404762Y-86607200D02*
X153309524Y-86511961D01*
X153309524Y-86511961D02*
X153261905Y-86416723D01*
X153261905Y-86416723D02*
X153214286Y-86226247D01*
X153214286Y-86226247D02*
X153214286Y-86083390D01*
X153214286Y-86083390D02*
X153261905Y-85892914D01*
X153261905Y-85892914D02*
X153309524Y-85797676D01*
X153309524Y-85797676D02*
X153404762Y-85702438D01*
X153404762Y-85702438D02*
X153547619Y-85654819D01*
X153547619Y-85654819D02*
X153642857Y-85654819D01*
X153642857Y-85654819D02*
X153785714Y-85702438D01*
X153785714Y-85702438D02*
X153833333Y-85750057D01*
X154690476Y-85988152D02*
X154690476Y-86654819D01*
X154452381Y-85607200D02*
X154214286Y-86321485D01*
X154214286Y-86321485D02*
X154833333Y-86321485D01*
X151609580Y-96016666D02*
X151657200Y-96064285D01*
X151657200Y-96064285D02*
X151704819Y-96207142D01*
X151704819Y-96207142D02*
X151704819Y-96302380D01*
X151704819Y-96302380D02*
X151657200Y-96445237D01*
X151657200Y-96445237D02*
X151561961Y-96540475D01*
X151561961Y-96540475D02*
X151466723Y-96588094D01*
X151466723Y-96588094D02*
X151276247Y-96635713D01*
X151276247Y-96635713D02*
X151133390Y-96635713D01*
X151133390Y-96635713D02*
X150942914Y-96588094D01*
X150942914Y-96588094D02*
X150847676Y-96540475D01*
X150847676Y-96540475D02*
X150752438Y-96445237D01*
X150752438Y-96445237D02*
X150704819Y-96302380D01*
X150704819Y-96302380D02*
X150704819Y-96207142D01*
X150704819Y-96207142D02*
X150752438Y-96064285D01*
X150752438Y-96064285D02*
X150800057Y-96016666D01*
X151704819Y-95064285D02*
X151704819Y-95635713D01*
X151704819Y-95349999D02*
X150704819Y-95349999D01*
X150704819Y-95349999D02*
X150847676Y-95445237D01*
X150847676Y-95445237D02*
X150942914Y-95540475D01*
X150942914Y-95540475D02*
X150990533Y-95635713D01*
X148133333Y-89759580D02*
X148085714Y-89807200D01*
X148085714Y-89807200D02*
X147942857Y-89854819D01*
X147942857Y-89854819D02*
X147847619Y-89854819D01*
X147847619Y-89854819D02*
X147704762Y-89807200D01*
X147704762Y-89807200D02*
X147609524Y-89711961D01*
X147609524Y-89711961D02*
X147561905Y-89616723D01*
X147561905Y-89616723D02*
X147514286Y-89426247D01*
X147514286Y-89426247D02*
X147514286Y-89283390D01*
X147514286Y-89283390D02*
X147561905Y-89092914D01*
X147561905Y-89092914D02*
X147609524Y-88997676D01*
X147609524Y-88997676D02*
X147704762Y-88902438D01*
X147704762Y-88902438D02*
X147847619Y-88854819D01*
X147847619Y-88854819D02*
X147942857Y-88854819D01*
X147942857Y-88854819D02*
X148085714Y-88902438D01*
X148085714Y-88902438D02*
X148133333Y-88950057D01*
X148466667Y-88854819D02*
X149133333Y-88854819D01*
X149133333Y-88854819D02*
X148704762Y-89854819D01*
X167038095Y-99754819D02*
X167038095Y-100564342D01*
X167038095Y-100564342D02*
X167085714Y-100659580D01*
X167085714Y-100659580D02*
X167133333Y-100707200D01*
X167133333Y-100707200D02*
X167228571Y-100754819D01*
X167228571Y-100754819D02*
X167419047Y-100754819D01*
X167419047Y-100754819D02*
X167514285Y-100707200D01*
X167514285Y-100707200D02*
X167561904Y-100659580D01*
X167561904Y-100659580D02*
X167609523Y-100564342D01*
X167609523Y-100564342D02*
X167609523Y-99754819D01*
X167990476Y-99754819D02*
X168609523Y-99754819D01*
X168609523Y-99754819D02*
X168276190Y-100135771D01*
X168276190Y-100135771D02*
X168419047Y-100135771D01*
X168419047Y-100135771D02*
X168514285Y-100183390D01*
X168514285Y-100183390D02*
X168561904Y-100231009D01*
X168561904Y-100231009D02*
X168609523Y-100326247D01*
X168609523Y-100326247D02*
X168609523Y-100564342D01*
X168609523Y-100564342D02*
X168561904Y-100659580D01*
X168561904Y-100659580D02*
X168514285Y-100707200D01*
X168514285Y-100707200D02*
X168419047Y-100754819D01*
X168419047Y-100754819D02*
X168133333Y-100754819D01*
X168133333Y-100754819D02*
X168038095Y-100707200D01*
X168038095Y-100707200D02*
X167990476Y-100659580D01*
X157133333Y-80954819D02*
X156800000Y-80478628D01*
X156561905Y-80954819D02*
X156561905Y-79954819D01*
X156561905Y-79954819D02*
X156942857Y-79954819D01*
X156942857Y-79954819D02*
X157038095Y-80002438D01*
X157038095Y-80002438D02*
X157085714Y-80050057D01*
X157085714Y-80050057D02*
X157133333Y-80145295D01*
X157133333Y-80145295D02*
X157133333Y-80288152D01*
X157133333Y-80288152D02*
X157085714Y-80383390D01*
X157085714Y-80383390D02*
X157038095Y-80431009D01*
X157038095Y-80431009D02*
X156942857Y-80478628D01*
X156942857Y-80478628D02*
X156561905Y-80478628D01*
X158085714Y-80954819D02*
X157514286Y-80954819D01*
X157800000Y-80954819D02*
X157800000Y-79954819D01*
X157800000Y-79954819D02*
X157704762Y-80097676D01*
X157704762Y-80097676D02*
X157609524Y-80192914D01*
X157609524Y-80192914D02*
X157514286Y-80240533D01*
X174033333Y-78854819D02*
X173700000Y-78378628D01*
X173461905Y-78854819D02*
X173461905Y-77854819D01*
X173461905Y-77854819D02*
X173842857Y-77854819D01*
X173842857Y-77854819D02*
X173938095Y-77902438D01*
X173938095Y-77902438D02*
X173985714Y-77950057D01*
X173985714Y-77950057D02*
X174033333Y-78045295D01*
X174033333Y-78045295D02*
X174033333Y-78188152D01*
X174033333Y-78188152D02*
X173985714Y-78283390D01*
X173985714Y-78283390D02*
X173938095Y-78331009D01*
X173938095Y-78331009D02*
X173842857Y-78378628D01*
X173842857Y-78378628D02*
X173461905Y-78378628D01*
X174366667Y-77854819D02*
X175033333Y-77854819D01*
X175033333Y-77854819D02*
X174604762Y-78854819D01*
X167293333Y-110545180D02*
X167293333Y-109830895D01*
X167293333Y-109830895D02*
X167340952Y-109688038D01*
X167340952Y-109688038D02*
X167436190Y-109592800D01*
X167436190Y-109592800D02*
X167579047Y-109545180D01*
X167579047Y-109545180D02*
X167674285Y-109545180D01*
X166388571Y-110545180D02*
X166579047Y-110545180D01*
X166579047Y-110545180D02*
X166674285Y-110497561D01*
X166674285Y-110497561D02*
X166721904Y-110449942D01*
X166721904Y-110449942D02*
X166817142Y-110307085D01*
X166817142Y-110307085D02*
X166864761Y-110116609D01*
X166864761Y-110116609D02*
X166864761Y-109735657D01*
X166864761Y-109735657D02*
X166817142Y-109640419D01*
X166817142Y-109640419D02*
X166769523Y-109592800D01*
X166769523Y-109592800D02*
X166674285Y-109545180D01*
X166674285Y-109545180D02*
X166483809Y-109545180D01*
X166483809Y-109545180D02*
X166388571Y-109592800D01*
X166388571Y-109592800D02*
X166340952Y-109640419D01*
X166340952Y-109640419D02*
X166293333Y-109735657D01*
X166293333Y-109735657D02*
X166293333Y-109973752D01*
X166293333Y-109973752D02*
X166340952Y-110068990D01*
X166340952Y-110068990D02*
X166388571Y-110116609D01*
X166388571Y-110116609D02*
X166483809Y-110164228D01*
X166483809Y-110164228D02*
X166674285Y-110164228D01*
X166674285Y-110164228D02*
X166769523Y-110116609D01*
X166769523Y-110116609D02*
X166817142Y-110068990D01*
X166817142Y-110068990D02*
X166864761Y-109973752D01*
X147838095Y-97454819D02*
X147838095Y-98264342D01*
X147838095Y-98264342D02*
X147885714Y-98359580D01*
X147885714Y-98359580D02*
X147933333Y-98407200D01*
X147933333Y-98407200D02*
X148028571Y-98454819D01*
X148028571Y-98454819D02*
X148219047Y-98454819D01*
X148219047Y-98454819D02*
X148314285Y-98407200D01*
X148314285Y-98407200D02*
X148361904Y-98359580D01*
X148361904Y-98359580D02*
X148409523Y-98264342D01*
X148409523Y-98264342D02*
X148409523Y-97454819D01*
X149314285Y-97788152D02*
X149314285Y-98454819D01*
X149076190Y-97407200D02*
X148838095Y-98121485D01*
X148838095Y-98121485D02*
X149457142Y-98121485D01*
X147266667Y-78207200D02*
X147409524Y-78254819D01*
X147409524Y-78254819D02*
X147647619Y-78254819D01*
X147647619Y-78254819D02*
X147742857Y-78207200D01*
X147742857Y-78207200D02*
X147790476Y-78159580D01*
X147790476Y-78159580D02*
X147838095Y-78064342D01*
X147838095Y-78064342D02*
X147838095Y-77969104D01*
X147838095Y-77969104D02*
X147790476Y-77873866D01*
X147790476Y-77873866D02*
X147742857Y-77826247D01*
X147742857Y-77826247D02*
X147647619Y-77778628D01*
X147647619Y-77778628D02*
X147457143Y-77731009D01*
X147457143Y-77731009D02*
X147361905Y-77683390D01*
X147361905Y-77683390D02*
X147314286Y-77635771D01*
X147314286Y-77635771D02*
X147266667Y-77540533D01*
X147266667Y-77540533D02*
X147266667Y-77445295D01*
X147266667Y-77445295D02*
X147314286Y-77350057D01*
X147314286Y-77350057D02*
X147361905Y-77302438D01*
X147361905Y-77302438D02*
X147457143Y-77254819D01*
X147457143Y-77254819D02*
X147695238Y-77254819D01*
X147695238Y-77254819D02*
X147838095Y-77302438D01*
X148171429Y-77254819D02*
X148409524Y-78254819D01*
X148409524Y-78254819D02*
X148600000Y-77540533D01*
X148600000Y-77540533D02*
X148790476Y-78254819D01*
X148790476Y-78254819D02*
X149028572Y-77254819D01*
X149361905Y-77350057D02*
X149409524Y-77302438D01*
X149409524Y-77302438D02*
X149504762Y-77254819D01*
X149504762Y-77254819D02*
X149742857Y-77254819D01*
X149742857Y-77254819D02*
X149838095Y-77302438D01*
X149838095Y-77302438D02*
X149885714Y-77350057D01*
X149885714Y-77350057D02*
X149933333Y-77445295D01*
X149933333Y-77445295D02*
X149933333Y-77540533D01*
X149933333Y-77540533D02*
X149885714Y-77683390D01*
X149885714Y-77683390D02*
X149314286Y-78254819D01*
X149314286Y-78254819D02*
X149933333Y-78254819D01*
X178633333Y-102754819D02*
X178300000Y-102278628D01*
X178061905Y-102754819D02*
X178061905Y-101754819D01*
X178061905Y-101754819D02*
X178442857Y-101754819D01*
X178442857Y-101754819D02*
X178538095Y-101802438D01*
X178538095Y-101802438D02*
X178585714Y-101850057D01*
X178585714Y-101850057D02*
X178633333Y-101945295D01*
X178633333Y-101945295D02*
X178633333Y-102088152D01*
X178633333Y-102088152D02*
X178585714Y-102183390D01*
X178585714Y-102183390D02*
X178538095Y-102231009D01*
X178538095Y-102231009D02*
X178442857Y-102278628D01*
X178442857Y-102278628D02*
X178061905Y-102278628D01*
X179490476Y-102088152D02*
X179490476Y-102754819D01*
X179252381Y-101707200D02*
X179014286Y-102421485D01*
X179014286Y-102421485D02*
X179633333Y-102421485D01*
X145963809Y-84778628D02*
X145963809Y-85254819D01*
X145630476Y-84254819D02*
X145963809Y-84778628D01*
X145963809Y-84778628D02*
X146297142Y-84254819D01*
X147154285Y-85254819D02*
X146582857Y-85254819D01*
X146868571Y-85254819D02*
X146868571Y-84254819D01*
X146868571Y-84254819D02*
X146773333Y-84397676D01*
X146773333Y-84397676D02*
X146678095Y-84492914D01*
X146678095Y-84492914D02*
X146582857Y-84540533D01*
X174254819Y-107738094D02*
X173254819Y-107738094D01*
X173254819Y-107738094D02*
X173254819Y-107499999D01*
X173254819Y-107499999D02*
X173302438Y-107357142D01*
X173302438Y-107357142D02*
X173397676Y-107261904D01*
X173397676Y-107261904D02*
X173492914Y-107214285D01*
X173492914Y-107214285D02*
X173683390Y-107166666D01*
X173683390Y-107166666D02*
X173826247Y-107166666D01*
X173826247Y-107166666D02*
X174016723Y-107214285D01*
X174016723Y-107214285D02*
X174111961Y-107261904D01*
X174111961Y-107261904D02*
X174207200Y-107357142D01*
X174207200Y-107357142D02*
X174254819Y-107499999D01*
X174254819Y-107499999D02*
X174254819Y-107738094D01*
X173254819Y-106833332D02*
X173254819Y-106214285D01*
X173254819Y-106214285D02*
X173635771Y-106547618D01*
X173635771Y-106547618D02*
X173635771Y-106404761D01*
X173635771Y-106404761D02*
X173683390Y-106309523D01*
X173683390Y-106309523D02*
X173731009Y-106261904D01*
X173731009Y-106261904D02*
X173826247Y-106214285D01*
X173826247Y-106214285D02*
X174064342Y-106214285D01*
X174064342Y-106214285D02*
X174159580Y-106261904D01*
X174159580Y-106261904D02*
X174207200Y-106309523D01*
X174207200Y-106309523D02*
X174254819Y-106404761D01*
X174254819Y-106404761D02*
X174254819Y-106690475D01*
X174254819Y-106690475D02*
X174207200Y-106785713D01*
X174207200Y-106785713D02*
X174159580Y-106833332D01*
X173461905Y-75554819D02*
X173461905Y-74554819D01*
X173461905Y-74554819D02*
X173700000Y-74554819D01*
X173700000Y-74554819D02*
X173842857Y-74602438D01*
X173842857Y-74602438D02*
X173938095Y-74697676D01*
X173938095Y-74697676D02*
X173985714Y-74792914D01*
X173985714Y-74792914D02*
X174033333Y-74983390D01*
X174033333Y-74983390D02*
X174033333Y-75126247D01*
X174033333Y-75126247D02*
X173985714Y-75316723D01*
X173985714Y-75316723D02*
X173938095Y-75411961D01*
X173938095Y-75411961D02*
X173842857Y-75507200D01*
X173842857Y-75507200D02*
X173700000Y-75554819D01*
X173700000Y-75554819D02*
X173461905Y-75554819D01*
X174985714Y-75554819D02*
X174414286Y-75554819D01*
X174700000Y-75554819D02*
X174700000Y-74554819D01*
X174700000Y-74554819D02*
X174604762Y-74697676D01*
X174604762Y-74697676D02*
X174509524Y-74792914D01*
X174509524Y-74792914D02*
X174414286Y-74840533D01*
X155988095Y-92154819D02*
X155988095Y-92964342D01*
X155988095Y-92964342D02*
X156035714Y-93059580D01*
X156035714Y-93059580D02*
X156083333Y-93107200D01*
X156083333Y-93107200D02*
X156178571Y-93154819D01*
X156178571Y-93154819D02*
X156369047Y-93154819D01*
X156369047Y-93154819D02*
X156464285Y-93107200D01*
X156464285Y-93107200D02*
X156511904Y-93059580D01*
X156511904Y-93059580D02*
X156559523Y-92964342D01*
X156559523Y-92964342D02*
X156559523Y-92154819D01*
X157559523Y-93154819D02*
X156988095Y-93154819D01*
X157273809Y-93154819D02*
X157273809Y-92154819D01*
X157273809Y-92154819D02*
X157178571Y-92297676D01*
X157178571Y-92297676D02*
X157083333Y-92392914D01*
X157083333Y-92392914D02*
X156988095Y-92440533D01*
X161183333Y-99009580D02*
X161135714Y-99057200D01*
X161135714Y-99057200D02*
X160992857Y-99104819D01*
X160992857Y-99104819D02*
X160897619Y-99104819D01*
X160897619Y-99104819D02*
X160754762Y-99057200D01*
X160754762Y-99057200D02*
X160659524Y-98961961D01*
X160659524Y-98961961D02*
X160611905Y-98866723D01*
X160611905Y-98866723D02*
X160564286Y-98676247D01*
X160564286Y-98676247D02*
X160564286Y-98533390D01*
X160564286Y-98533390D02*
X160611905Y-98342914D01*
X160611905Y-98342914D02*
X160659524Y-98247676D01*
X160659524Y-98247676D02*
X160754762Y-98152438D01*
X160754762Y-98152438D02*
X160897619Y-98104819D01*
X160897619Y-98104819D02*
X160992857Y-98104819D01*
X160992857Y-98104819D02*
X161135714Y-98152438D01*
X161135714Y-98152438D02*
X161183333Y-98200057D01*
X161564286Y-98200057D02*
X161611905Y-98152438D01*
X161611905Y-98152438D02*
X161707143Y-98104819D01*
X161707143Y-98104819D02*
X161945238Y-98104819D01*
X161945238Y-98104819D02*
X162040476Y-98152438D01*
X162040476Y-98152438D02*
X162088095Y-98200057D01*
X162088095Y-98200057D02*
X162135714Y-98295295D01*
X162135714Y-98295295D02*
X162135714Y-98390533D01*
X162135714Y-98390533D02*
X162088095Y-98533390D01*
X162088095Y-98533390D02*
X161516667Y-99104819D01*
X161516667Y-99104819D02*
X162135714Y-99104819D01*
X151883333Y-88459580D02*
X151835714Y-88507200D01*
X151835714Y-88507200D02*
X151692857Y-88554819D01*
X151692857Y-88554819D02*
X151597619Y-88554819D01*
X151597619Y-88554819D02*
X151454762Y-88507200D01*
X151454762Y-88507200D02*
X151359524Y-88411961D01*
X151359524Y-88411961D02*
X151311905Y-88316723D01*
X151311905Y-88316723D02*
X151264286Y-88126247D01*
X151264286Y-88126247D02*
X151264286Y-87983390D01*
X151264286Y-87983390D02*
X151311905Y-87792914D01*
X151311905Y-87792914D02*
X151359524Y-87697676D01*
X151359524Y-87697676D02*
X151454762Y-87602438D01*
X151454762Y-87602438D02*
X151597619Y-87554819D01*
X151597619Y-87554819D02*
X151692857Y-87554819D01*
X151692857Y-87554819D02*
X151835714Y-87602438D01*
X151835714Y-87602438D02*
X151883333Y-87650057D01*
X152788095Y-87554819D02*
X152311905Y-87554819D01*
X152311905Y-87554819D02*
X152264286Y-88031009D01*
X152264286Y-88031009D02*
X152311905Y-87983390D01*
X152311905Y-87983390D02*
X152407143Y-87935771D01*
X152407143Y-87935771D02*
X152645238Y-87935771D01*
X152645238Y-87935771D02*
X152740476Y-87983390D01*
X152740476Y-87983390D02*
X152788095Y-88031009D01*
X152788095Y-88031009D02*
X152835714Y-88126247D01*
X152835714Y-88126247D02*
X152835714Y-88364342D01*
X152835714Y-88364342D02*
X152788095Y-88459580D01*
X152788095Y-88459580D02*
X152740476Y-88507200D01*
X152740476Y-88507200D02*
X152645238Y-88554819D01*
X152645238Y-88554819D02*
X152407143Y-88554819D01*
X152407143Y-88554819D02*
X152311905Y-88507200D01*
X152311905Y-88507200D02*
X152264286Y-88459580D01*
X172842261Y-82850057D02*
X172747023Y-82802438D01*
X172747023Y-82802438D02*
X172651785Y-82707200D01*
X172651785Y-82707200D02*
X172508928Y-82564342D01*
X172508928Y-82564342D02*
X172413690Y-82516723D01*
X172413690Y-82516723D02*
X172318452Y-82516723D01*
X172366071Y-82754819D02*
X172270833Y-82707200D01*
X172270833Y-82707200D02*
X172175595Y-82611961D01*
X172175595Y-82611961D02*
X172127976Y-82421485D01*
X172127976Y-82421485D02*
X172127976Y-82088152D01*
X172127976Y-82088152D02*
X172175595Y-81897676D01*
X172175595Y-81897676D02*
X172270833Y-81802438D01*
X172270833Y-81802438D02*
X172366071Y-81754819D01*
X172366071Y-81754819D02*
X172556547Y-81754819D01*
X172556547Y-81754819D02*
X172651785Y-81802438D01*
X172651785Y-81802438D02*
X172747023Y-81897676D01*
X172747023Y-81897676D02*
X172794642Y-82088152D01*
X172794642Y-82088152D02*
X172794642Y-82421485D01*
X172794642Y-82421485D02*
X172747023Y-82611961D01*
X172747023Y-82611961D02*
X172651785Y-82707200D01*
X172651785Y-82707200D02*
X172556547Y-82754819D01*
X172556547Y-82754819D02*
X172366071Y-82754819D01*
X173747023Y-82754819D02*
X173175595Y-82754819D01*
X173461309Y-82754819D02*
X173461309Y-81754819D01*
X173461309Y-81754819D02*
X173366071Y-81897676D01*
X173366071Y-81897676D02*
X173270833Y-81992914D01*
X173270833Y-81992914D02*
X173175595Y-82040533D01*
X169033333Y-91254819D02*
X168700000Y-90778628D01*
X168461905Y-91254819D02*
X168461905Y-90254819D01*
X168461905Y-90254819D02*
X168842857Y-90254819D01*
X168842857Y-90254819D02*
X168938095Y-90302438D01*
X168938095Y-90302438D02*
X168985714Y-90350057D01*
X168985714Y-90350057D02*
X169033333Y-90445295D01*
X169033333Y-90445295D02*
X169033333Y-90588152D01*
X169033333Y-90588152D02*
X168985714Y-90683390D01*
X168985714Y-90683390D02*
X168938095Y-90731009D01*
X168938095Y-90731009D02*
X168842857Y-90778628D01*
X168842857Y-90778628D02*
X168461905Y-90778628D01*
X169414286Y-90350057D02*
X169461905Y-90302438D01*
X169461905Y-90302438D02*
X169557143Y-90254819D01*
X169557143Y-90254819D02*
X169795238Y-90254819D01*
X169795238Y-90254819D02*
X169890476Y-90302438D01*
X169890476Y-90302438D02*
X169938095Y-90350057D01*
X169938095Y-90350057D02*
X169985714Y-90445295D01*
X169985714Y-90445295D02*
X169985714Y-90540533D01*
X169985714Y-90540533D02*
X169938095Y-90683390D01*
X169938095Y-90683390D02*
X169366667Y-91254819D01*
X169366667Y-91254819D02*
X169985714Y-91254819D01*
X148154819Y-108638094D02*
X147154819Y-108638094D01*
X147154819Y-108638094D02*
X147154819Y-108399999D01*
X147154819Y-108399999D02*
X147202438Y-108257142D01*
X147202438Y-108257142D02*
X147297676Y-108161904D01*
X147297676Y-108161904D02*
X147392914Y-108114285D01*
X147392914Y-108114285D02*
X147583390Y-108066666D01*
X147583390Y-108066666D02*
X147726247Y-108066666D01*
X147726247Y-108066666D02*
X147916723Y-108114285D01*
X147916723Y-108114285D02*
X148011961Y-108161904D01*
X148011961Y-108161904D02*
X148107200Y-108257142D01*
X148107200Y-108257142D02*
X148154819Y-108399999D01*
X148154819Y-108399999D02*
X148154819Y-108638094D01*
X147488152Y-107209523D02*
X148154819Y-107209523D01*
X147107200Y-107447618D02*
X147821485Y-107685713D01*
X147821485Y-107685713D02*
X147821485Y-107066666D01*
X141657142Y-105059580D02*
X141609523Y-105107200D01*
X141609523Y-105107200D02*
X141466666Y-105154819D01*
X141466666Y-105154819D02*
X141371428Y-105154819D01*
X141371428Y-105154819D02*
X141228571Y-105107200D01*
X141228571Y-105107200D02*
X141133333Y-105011961D01*
X141133333Y-105011961D02*
X141085714Y-104916723D01*
X141085714Y-104916723D02*
X141038095Y-104726247D01*
X141038095Y-104726247D02*
X141038095Y-104583390D01*
X141038095Y-104583390D02*
X141085714Y-104392914D01*
X141085714Y-104392914D02*
X141133333Y-104297676D01*
X141133333Y-104297676D02*
X141228571Y-104202438D01*
X141228571Y-104202438D02*
X141371428Y-104154819D01*
X141371428Y-104154819D02*
X141466666Y-104154819D01*
X141466666Y-104154819D02*
X141609523Y-104202438D01*
X141609523Y-104202438D02*
X141657142Y-104250057D01*
X142609523Y-105154819D02*
X142038095Y-105154819D01*
X142323809Y-105154819D02*
X142323809Y-104154819D01*
X142323809Y-104154819D02*
X142228571Y-104297676D01*
X142228571Y-104297676D02*
X142133333Y-104392914D01*
X142133333Y-104392914D02*
X142038095Y-104440533D01*
X143180952Y-104583390D02*
X143085714Y-104535771D01*
X143085714Y-104535771D02*
X143038095Y-104488152D01*
X143038095Y-104488152D02*
X142990476Y-104392914D01*
X142990476Y-104392914D02*
X142990476Y-104345295D01*
X142990476Y-104345295D02*
X143038095Y-104250057D01*
X143038095Y-104250057D02*
X143085714Y-104202438D01*
X143085714Y-104202438D02*
X143180952Y-104154819D01*
X143180952Y-104154819D02*
X143371428Y-104154819D01*
X143371428Y-104154819D02*
X143466666Y-104202438D01*
X143466666Y-104202438D02*
X143514285Y-104250057D01*
X143514285Y-104250057D02*
X143561904Y-104345295D01*
X143561904Y-104345295D02*
X143561904Y-104392914D01*
X143561904Y-104392914D02*
X143514285Y-104488152D01*
X143514285Y-104488152D02*
X143466666Y-104535771D01*
X143466666Y-104535771D02*
X143371428Y-104583390D01*
X143371428Y-104583390D02*
X143180952Y-104583390D01*
X143180952Y-104583390D02*
X143085714Y-104631009D01*
X143085714Y-104631009D02*
X143038095Y-104678628D01*
X143038095Y-104678628D02*
X142990476Y-104773866D01*
X142990476Y-104773866D02*
X142990476Y-104964342D01*
X142990476Y-104964342D02*
X143038095Y-105059580D01*
X143038095Y-105059580D02*
X143085714Y-105107200D01*
X143085714Y-105107200D02*
X143180952Y-105154819D01*
X143180952Y-105154819D02*
X143371428Y-105154819D01*
X143371428Y-105154819D02*
X143466666Y-105107200D01*
X143466666Y-105107200D02*
X143514285Y-105059580D01*
X143514285Y-105059580D02*
X143561904Y-104964342D01*
X143561904Y-104964342D02*
X143561904Y-104773866D01*
X143561904Y-104773866D02*
X143514285Y-104678628D01*
X143514285Y-104678628D02*
X143466666Y-104631009D01*
X143466666Y-104631009D02*
X143371428Y-104583390D01*
X174033333Y-77154819D02*
X173700000Y-76678628D01*
X173461905Y-77154819D02*
X173461905Y-76154819D01*
X173461905Y-76154819D02*
X173842857Y-76154819D01*
X173842857Y-76154819D02*
X173938095Y-76202438D01*
X173938095Y-76202438D02*
X173985714Y-76250057D01*
X173985714Y-76250057D02*
X174033333Y-76345295D01*
X174033333Y-76345295D02*
X174033333Y-76488152D01*
X174033333Y-76488152D02*
X173985714Y-76583390D01*
X173985714Y-76583390D02*
X173938095Y-76631009D01*
X173938095Y-76631009D02*
X173842857Y-76678628D01*
X173842857Y-76678628D02*
X173461905Y-76678628D01*
X174366667Y-76154819D02*
X174985714Y-76154819D01*
X174985714Y-76154819D02*
X174652381Y-76535771D01*
X174652381Y-76535771D02*
X174795238Y-76535771D01*
X174795238Y-76535771D02*
X174890476Y-76583390D01*
X174890476Y-76583390D02*
X174938095Y-76631009D01*
X174938095Y-76631009D02*
X174985714Y-76726247D01*
X174985714Y-76726247D02*
X174985714Y-76964342D01*
X174985714Y-76964342D02*
X174938095Y-77059580D01*
X174938095Y-77059580D02*
X174890476Y-77107200D01*
X174890476Y-77107200D02*
X174795238Y-77154819D01*
X174795238Y-77154819D02*
X174509524Y-77154819D01*
X174509524Y-77154819D02*
X174414286Y-77107200D01*
X174414286Y-77107200D02*
X174366667Y-77059580D01*
X163233332Y-77124200D02*
X163347618Y-77162295D01*
X163347618Y-77162295D02*
X163538094Y-77162295D01*
X163538094Y-77162295D02*
X163614285Y-77124200D01*
X163614285Y-77124200D02*
X163652380Y-77086104D01*
X163652380Y-77086104D02*
X163690475Y-77009914D01*
X163690475Y-77009914D02*
X163690475Y-76933723D01*
X163690475Y-76933723D02*
X163652380Y-76857533D01*
X163652380Y-76857533D02*
X163614285Y-76819438D01*
X163614285Y-76819438D02*
X163538094Y-76781342D01*
X163538094Y-76781342D02*
X163385713Y-76743247D01*
X163385713Y-76743247D02*
X163309523Y-76705152D01*
X163309523Y-76705152D02*
X163271428Y-76667057D01*
X163271428Y-76667057D02*
X163233332Y-76590866D01*
X163233332Y-76590866D02*
X163233332Y-76514676D01*
X163233332Y-76514676D02*
X163271428Y-76438485D01*
X163271428Y-76438485D02*
X163309523Y-76400390D01*
X163309523Y-76400390D02*
X163385713Y-76362295D01*
X163385713Y-76362295D02*
X163576190Y-76362295D01*
X163576190Y-76362295D02*
X163690475Y-76400390D01*
X163957142Y-76362295D02*
X164147618Y-77162295D01*
X164147618Y-77162295D02*
X164299999Y-76590866D01*
X164299999Y-76590866D02*
X164452380Y-77162295D01*
X164452380Y-77162295D02*
X164642857Y-76362295D01*
X165366666Y-77162295D02*
X164909523Y-77162295D01*
X165138095Y-77162295D02*
X165138095Y-76362295D01*
X165138095Y-76362295D02*
X165061904Y-76476580D01*
X165061904Y-76476580D02*
X164985714Y-76552771D01*
X164985714Y-76552771D02*
X164909523Y-76590866D01*
X169033333Y-88054819D02*
X168700000Y-87578628D01*
X168461905Y-88054819D02*
X168461905Y-87054819D01*
X168461905Y-87054819D02*
X168842857Y-87054819D01*
X168842857Y-87054819D02*
X168938095Y-87102438D01*
X168938095Y-87102438D02*
X168985714Y-87150057D01*
X168985714Y-87150057D02*
X169033333Y-87245295D01*
X169033333Y-87245295D02*
X169033333Y-87388152D01*
X169033333Y-87388152D02*
X168985714Y-87483390D01*
X168985714Y-87483390D02*
X168938095Y-87531009D01*
X168938095Y-87531009D02*
X168842857Y-87578628D01*
X168842857Y-87578628D02*
X168461905Y-87578628D01*
X169509524Y-88054819D02*
X169700000Y-88054819D01*
X169700000Y-88054819D02*
X169795238Y-88007200D01*
X169795238Y-88007200D02*
X169842857Y-87959580D01*
X169842857Y-87959580D02*
X169938095Y-87816723D01*
X169938095Y-87816723D02*
X169985714Y-87626247D01*
X169985714Y-87626247D02*
X169985714Y-87245295D01*
X169985714Y-87245295D02*
X169938095Y-87150057D01*
X169938095Y-87150057D02*
X169890476Y-87102438D01*
X169890476Y-87102438D02*
X169795238Y-87054819D01*
X169795238Y-87054819D02*
X169604762Y-87054819D01*
X169604762Y-87054819D02*
X169509524Y-87102438D01*
X169509524Y-87102438D02*
X169461905Y-87150057D01*
X169461905Y-87150057D02*
X169414286Y-87245295D01*
X169414286Y-87245295D02*
X169414286Y-87483390D01*
X169414286Y-87483390D02*
X169461905Y-87578628D01*
X169461905Y-87578628D02*
X169509524Y-87626247D01*
X169509524Y-87626247D02*
X169604762Y-87673866D01*
X169604762Y-87673866D02*
X169795238Y-87673866D01*
X169795238Y-87673866D02*
X169890476Y-87626247D01*
X169890476Y-87626247D02*
X169938095Y-87578628D01*
X169938095Y-87578628D02*
X169985714Y-87483390D01*
X179254819Y-107667857D02*
X178778628Y-108001190D01*
X179254819Y-108239285D02*
X178254819Y-108239285D01*
X178254819Y-108239285D02*
X178254819Y-107858333D01*
X178254819Y-107858333D02*
X178302438Y-107763095D01*
X178302438Y-107763095D02*
X178350057Y-107715476D01*
X178350057Y-107715476D02*
X178445295Y-107667857D01*
X178445295Y-107667857D02*
X178588152Y-107667857D01*
X178588152Y-107667857D02*
X178683390Y-107715476D01*
X178683390Y-107715476D02*
X178731009Y-107763095D01*
X178731009Y-107763095D02*
X178778628Y-107858333D01*
X178778628Y-107858333D02*
X178778628Y-108239285D01*
X179254819Y-106715476D02*
X179254819Y-107286904D01*
X179254819Y-107001190D02*
X178254819Y-107001190D01*
X178254819Y-107001190D02*
X178397676Y-107096428D01*
X178397676Y-107096428D02*
X178492914Y-107191666D01*
X178492914Y-107191666D02*
X178540533Y-107286904D01*
X178254819Y-106096428D02*
X178254819Y-106001190D01*
X178254819Y-106001190D02*
X178302438Y-105905952D01*
X178302438Y-105905952D02*
X178350057Y-105858333D01*
X178350057Y-105858333D02*
X178445295Y-105810714D01*
X178445295Y-105810714D02*
X178635771Y-105763095D01*
X178635771Y-105763095D02*
X178873866Y-105763095D01*
X178873866Y-105763095D02*
X179064342Y-105810714D01*
X179064342Y-105810714D02*
X179159580Y-105858333D01*
X179159580Y-105858333D02*
X179207200Y-105905952D01*
X179207200Y-105905952D02*
X179254819Y-106001190D01*
X179254819Y-106001190D02*
X179254819Y-106096428D01*
X179254819Y-106096428D02*
X179207200Y-106191666D01*
X179207200Y-106191666D02*
X179159580Y-106239285D01*
X179159580Y-106239285D02*
X179064342Y-106286904D01*
X179064342Y-106286904D02*
X178873866Y-106334523D01*
X178873866Y-106334523D02*
X178635771Y-106334523D01*
X178635771Y-106334523D02*
X178445295Y-106286904D01*
X178445295Y-106286904D02*
X178350057Y-106239285D01*
X178350057Y-106239285D02*
X178302438Y-106191666D01*
X178302438Y-106191666D02*
X178254819Y-106096428D01*
X158907142Y-102659580D02*
X158859523Y-102707200D01*
X158859523Y-102707200D02*
X158716666Y-102754819D01*
X158716666Y-102754819D02*
X158621428Y-102754819D01*
X158621428Y-102754819D02*
X158478571Y-102707200D01*
X158478571Y-102707200D02*
X158383333Y-102611961D01*
X158383333Y-102611961D02*
X158335714Y-102516723D01*
X158335714Y-102516723D02*
X158288095Y-102326247D01*
X158288095Y-102326247D02*
X158288095Y-102183390D01*
X158288095Y-102183390D02*
X158335714Y-101992914D01*
X158335714Y-101992914D02*
X158383333Y-101897676D01*
X158383333Y-101897676D02*
X158478571Y-101802438D01*
X158478571Y-101802438D02*
X158621428Y-101754819D01*
X158621428Y-101754819D02*
X158716666Y-101754819D01*
X158716666Y-101754819D02*
X158859523Y-101802438D01*
X158859523Y-101802438D02*
X158907142Y-101850057D01*
X159859523Y-102754819D02*
X159288095Y-102754819D01*
X159573809Y-102754819D02*
X159573809Y-101754819D01*
X159573809Y-101754819D02*
X159478571Y-101897676D01*
X159478571Y-101897676D02*
X159383333Y-101992914D01*
X159383333Y-101992914D02*
X159288095Y-102040533D01*
X160192857Y-101754819D02*
X160859523Y-101754819D01*
X160859523Y-101754819D02*
X160430952Y-102754819D01*
D13*
%TO.C,Q2*%
X168337500Y-86360000D02*
X170012500Y-86360000D01*
X168337500Y-86360000D02*
X167687500Y-86360000D01*
X168337500Y-83240000D02*
X168987500Y-83240000D01*
X168337500Y-83240000D02*
X167687500Y-83240000D01*
%TO.C,J4*%
X171230000Y-69020000D02*
X171230000Y-70350000D01*
X169900000Y-69020000D02*
X171230000Y-69020000D01*
X168630000Y-69020000D02*
X160950000Y-69020000D01*
X168630000Y-69020000D02*
X168630000Y-71680000D01*
X160950000Y-69020000D02*
X160950000Y-71680000D01*
X168630000Y-71680000D02*
X160950000Y-71680000D01*
%TO.C,TP5*%
X164750000Y-92950000D02*
X166150000Y-92950000D01*
X164750000Y-94350000D02*
X164750000Y-92950000D01*
X166150000Y-92950000D02*
X166150000Y-94350000D01*
X166150000Y-94350000D02*
X164750000Y-94350000D01*
%TO.C,R5*%
X143977500Y-108237258D02*
X143977500Y-107762742D01*
X145022500Y-108237258D02*
X145022500Y-107762742D01*
%TO.C,D2*%
X177672500Y-101135000D02*
X177672500Y-99665000D01*
X177672500Y-99665000D02*
X175387500Y-99665000D01*
X175387500Y-101135000D02*
X177672500Y-101135000D01*
%TO.C,TP13*%
X158700000Y-85300000D02*
X160100000Y-85300000D01*
X158700000Y-86700000D02*
X158700000Y-85300000D01*
X160100000Y-85300000D02*
X160100000Y-86700000D01*
X160100000Y-86700000D02*
X158700000Y-86700000D01*
%TO.C,R6*%
X166937258Y-89722500D02*
X166462742Y-89722500D01*
X166937258Y-88677500D02*
X166462742Y-88677500D01*
%TO.C,TP3*%
X153350000Y-104550000D02*
X151950000Y-104550000D01*
X153350000Y-103150000D02*
X153350000Y-104550000D01*
X151950000Y-104550000D02*
X151950000Y-103150000D01*
X151950000Y-103150000D02*
X153350000Y-103150000D01*
%TO.C,TP14*%
X160100000Y-83200000D02*
X160100000Y-84600000D01*
X158700000Y-83200000D02*
X160100000Y-83200000D01*
X160100000Y-84600000D02*
X158700000Y-84600000D01*
X158700000Y-84600000D02*
X158700000Y-83200000D01*
%TO.C,C6*%
X173685000Y-101038748D02*
X173685000Y-101561252D01*
X172215000Y-101038748D02*
X172215000Y-101561252D01*
%TO.C,R8*%
X171737258Y-80522500D02*
X171262742Y-80522500D01*
X171737258Y-79477500D02*
X171262742Y-79477500D01*
%TO.C,C8*%
X145207836Y-88460000D02*
X144992164Y-88460000D01*
X145207836Y-87740000D02*
X144992164Y-87740000D01*
%TO.C,TP6*%
X162700000Y-92950000D02*
X164100000Y-92950000D01*
X162700000Y-94350000D02*
X162700000Y-92950000D01*
X164100000Y-92950000D02*
X164100000Y-94350000D01*
X164100000Y-94350000D02*
X162700000Y-94350000D01*
%TO.C,C3*%
X162910000Y-90442164D02*
X162910000Y-90657836D01*
X162190000Y-90442164D02*
X162190000Y-90657836D01*
D14*
%TO.C,J5*%
X159862300Y-113927000D02*
X159862300Y-105672000D01*
X159862300Y-105672000D02*
X148457700Y-105672000D01*
X148457700Y-113927000D02*
X159862300Y-113927000D01*
X148457700Y-105672000D02*
X148457700Y-113927000D01*
D15*
X157081000Y-112540000D02*
G75*
G03*
X156319000Y-112540000I-381000J0D01*
G01*
X156319000Y-112540000D02*
G75*
G03*
X157081000Y-112540000I381000J0D01*
G01*
D13*
%TO.C,C16*%
X172215000Y-97711252D02*
X172215000Y-97188748D01*
X173685000Y-97711252D02*
X173685000Y-97188748D01*
%TO.C,C4*%
X153992164Y-86940000D02*
X154207836Y-86940000D01*
X153992164Y-87660000D02*
X154207836Y-87660000D01*
%TO.C,C1*%
X150790000Y-94207836D02*
X150790000Y-93992164D01*
X151510000Y-94207836D02*
X151510000Y-93992164D01*
%TO.C,C7*%
X148407836Y-88460000D02*
X148192164Y-88460000D01*
X148407836Y-87740000D02*
X148192164Y-87740000D01*
%TO.C,U3*%
X171400000Y-103760000D02*
X165390000Y-103760000D01*
X169150000Y-96940000D02*
X165390000Y-96940000D01*
X165390000Y-103760000D02*
X165390000Y-102500000D01*
X165390000Y-96940000D02*
X165390000Y-98200000D01*
%TO.C,R1*%
X159472500Y-81062742D02*
X159472500Y-81537258D01*
X158427500Y-81062742D02*
X158427500Y-81537258D01*
%TO.C,R7*%
X171737258Y-78922500D02*
X171262742Y-78922500D01*
X171737258Y-77877500D02*
X171262742Y-77877500D01*
%TO.C,TP4*%
X153350000Y-100550000D02*
X151950000Y-100550000D01*
X153350000Y-99150000D02*
X153350000Y-100550000D01*
X151950000Y-100550000D02*
X151950000Y-99150000D01*
X151950000Y-99150000D02*
X153350000Y-99150000D01*
%TO.C,J1*%
X175937500Y-95600000D02*
X175937500Y-95150000D01*
X177787500Y-95600000D02*
X175937500Y-95600000D01*
X180337500Y-95600000D02*
X180087500Y-95600000D01*
X175387500Y-93400000D02*
X175837500Y-93400000D01*
X175387500Y-93400000D02*
X175387500Y-92950000D01*
X175937500Y-87800000D02*
X175937500Y-88250000D01*
X177787500Y-87800000D02*
X175937500Y-87800000D01*
X180337500Y-87800000D02*
X180087500Y-87800000D01*
D14*
%TO.C,J6*%
X172662300Y-113927000D02*
X172662300Y-105672000D01*
X172662300Y-105672000D02*
X161257700Y-105672000D01*
X161257700Y-113927000D02*
X172662300Y-113927000D01*
X161257700Y-105672000D02*
X161257700Y-113927000D01*
D15*
X169881000Y-112540000D02*
G75*
G03*
X169119000Y-112540000I-381000J0D01*
G01*
X169119000Y-112540000D02*
G75*
G03*
X169881000Y-112540000I381000J0D01*
G01*
D16*
%TO.C,U4*%
X145400000Y-98780000D02*
X149400000Y-98780000D01*
X145400000Y-103820000D02*
X149400000Y-103820000D01*
D12*
X143055000Y-98805000D02*
G75*
G03*
X142855000Y-98805000I-100000J0D01*
G01*
X142855000Y-98805000D02*
G75*
G03*
X143055000Y-98805000I100000J0D01*
G01*
D13*
%TO.C,J2*%
X158880000Y-69070000D02*
X158880000Y-70400000D01*
X157550000Y-69070000D02*
X158880000Y-69070000D01*
X156280000Y-69070000D02*
X148600000Y-69070000D01*
X156280000Y-69070000D02*
X156280000Y-71730000D01*
X148600000Y-69070000D02*
X148600000Y-71730000D01*
X156280000Y-71730000D02*
X148600000Y-71730000D01*
%TO.C,SW2*%
X152050000Y-78500000D02*
X152050000Y-77000000D01*
X150800000Y-74500000D02*
X146300000Y-74500000D01*
X146300000Y-81000000D02*
X150800000Y-81000000D01*
X145050000Y-77000000D02*
X145050000Y-78500000D01*
%TO.C,R4*%
X176437258Y-102722500D02*
X175962742Y-102722500D01*
X176437258Y-101677500D02*
X175962742Y-101677500D01*
%TO.C,TP2*%
X153350000Y-102550000D02*
X151950000Y-102550000D01*
X153350000Y-101150000D02*
X153350000Y-102550000D01*
X151950000Y-102550000D02*
X151950000Y-101150000D01*
X151950000Y-101150000D02*
X153350000Y-101150000D01*
D16*
%TO.C,Y1*%
X149475000Y-86950000D02*
X143125000Y-86950000D01*
X143125000Y-82450000D02*
X149475000Y-82450000D01*
X149475000Y-86950000D02*
G75*
G03*
X151725000Y-84700000I-1J2250001D01*
G01*
X151725000Y-84700000D02*
G75*
G03*
X149475000Y-82450000I-2250001J-1D01*
G01*
X140875000Y-84700000D02*
G75*
G03*
X143125000Y-86950000I2250000J0D01*
G01*
X143125000Y-82450000D02*
G75*
G03*
X140875000Y-84700000I0J-2250000D01*
G01*
D13*
%TO.C,D3*%
X174665000Y-108485000D02*
X176135000Y-108485000D01*
X176135000Y-108485000D02*
X176135000Y-106200000D01*
X174665000Y-106200000D02*
X174665000Y-108485000D01*
%TO.C,D1*%
X172985000Y-75835000D02*
X172985000Y-74365000D01*
X172985000Y-74365000D02*
X170700000Y-74365000D01*
X170700000Y-75835000D02*
X172985000Y-75835000D01*
%TO.C,U1*%
X153227500Y-89390000D02*
X153227500Y-89840000D01*
X153227500Y-89840000D02*
X151937500Y-89840000D01*
X153227500Y-96610000D02*
X153227500Y-96160000D01*
X153677500Y-89390000D02*
X153227500Y-89390000D01*
X153677500Y-96610000D02*
X153227500Y-96610000D01*
X159997500Y-89390000D02*
X160447500Y-89390000D01*
X159997500Y-96610000D02*
X160447500Y-96610000D01*
X160447500Y-89390000D02*
X160447500Y-89840000D01*
X160447500Y-96610000D02*
X160447500Y-96160000D01*
%TO.C,C2*%
X159487836Y-99010000D02*
X159272164Y-99010000D01*
X159487836Y-98290000D02*
X159272164Y-98290000D01*
%TO.C,C5*%
X152157836Y-89560000D02*
X151942164Y-89560000D01*
X152157836Y-88840000D02*
X151942164Y-88840000D01*
%TO.C,Q1*%
X172937500Y-86360000D02*
X174612500Y-86360000D01*
X172937500Y-86360000D02*
X172287500Y-86360000D01*
X172937500Y-83240000D02*
X173587500Y-83240000D01*
X172937500Y-83240000D02*
X172287500Y-83240000D01*
%TO.C,R2*%
X166462742Y-90277500D02*
X166937258Y-90277500D01*
X166462742Y-91322500D02*
X166937258Y-91322500D01*
%TO.C,D4*%
X145465000Y-109485000D02*
X146935000Y-109485000D01*
X146935000Y-109485000D02*
X146935000Y-107200000D01*
X145465000Y-107200000D02*
X145465000Y-109485000D01*
%TO.C,C18*%
X142607836Y-103760000D02*
X142392164Y-103760000D01*
X142607836Y-103040000D02*
X142392164Y-103040000D01*
%TO.C,R3*%
X171262742Y-76277500D02*
X171737258Y-76277500D01*
X171262742Y-77322500D02*
X171737258Y-77322500D01*
D16*
%TO.C,SW1*%
X167300000Y-78500000D02*
X167300000Y-75000000D01*
X167300000Y-75000000D02*
X166800000Y-75000000D01*
X166800000Y-78500000D02*
X167300000Y-78500000D01*
X159300000Y-75000000D02*
X158800000Y-75000000D01*
X158800000Y-78500000D02*
X159300000Y-78500000D01*
X158800000Y-75000000D02*
X158800000Y-78500000D01*
D12*
X165750000Y-79550000D02*
G75*
G03*
X165550000Y-79550000I-100000J0D01*
G01*
X165550000Y-79550000D02*
G75*
G03*
X165750000Y-79550000I100000J0D01*
G01*
D13*
%TO.C,R9*%
X166937258Y-88122500D02*
X166462742Y-88122500D01*
X166937258Y-87077500D02*
X166462742Y-87077500D01*
%TO.C,R10*%
X176677500Y-107262258D02*
X176677500Y-106787742D01*
X177722500Y-107262258D02*
X177722500Y-106787742D01*
%TO.C,C17*%
X159811252Y-101085000D02*
X159288748Y-101085000D01*
X159811252Y-99615000D02*
X159288748Y-99615000D01*
%TD*%
M02*
