%TF.GenerationSoftware,KiCad,Pcbnew,7.0.10*%
%TF.CreationDate,2025-03-12T17:19:52-05:00*%
%TF.ProjectId,Reflow Project Kicad,5265666c-6f77-4205-9072-6f6a65637420,rev?*%
%TF.SameCoordinates,Original*%
%TF.FileFunction,Copper,L2,Bot*%
%TF.FilePolarity,Positive*%
%FSLAX46Y46*%
G04 Gerber Fmt 4.6, Leading zero omitted, Abs format (unit mm)*
G04 Created by KiCad (PCBNEW 7.0.10) date 2025-03-12 17:19:52*
%MOMM*%
%LPD*%
G01*
G04 APERTURE LIST*
%TA.AperFunction,ComponentPad*%
%ADD10R,1.700000X1.700000*%
%TD*%
%TA.AperFunction,ComponentPad*%
%ADD11O,1.700000X1.700000*%
%TD*%
%TA.AperFunction,ComponentPad*%
%ADD12R,1.000000X1.000000*%
%TD*%
%TA.AperFunction,ComponentPad*%
%ADD13C,1.905000*%
%TD*%
%TA.AperFunction,ComponentPad*%
%ADD14C,5.600000*%
%TD*%
%TA.AperFunction,ComponentPad*%
%ADD15O,1.900000X1.200000*%
%TD*%
%TA.AperFunction,ComponentPad*%
%ADD16C,1.450000*%
%TD*%
%TA.AperFunction,ComponentPad*%
%ADD17C,2.000000*%
%TD*%
%TA.AperFunction,ComponentPad*%
%ADD18C,1.080000*%
%TD*%
%TA.AperFunction,ComponentPad*%
%ADD19R,1.308000X1.308000*%
%TD*%
%TA.AperFunction,ComponentPad*%
%ADD20C,1.308000*%
%TD*%
%TA.AperFunction,ViaPad*%
%ADD21C,0.800000*%
%TD*%
%TA.AperFunction,Conductor*%
%ADD22C,0.500000*%
%TD*%
%TA.AperFunction,Conductor*%
%ADD23C,0.250000*%
%TD*%
%TA.AperFunction,Conductor*%
%ADD24C,0.300000*%
%TD*%
G04 APERTURE END LIST*
D10*
%TO.P,J4,1,Pin_1*%
%TO.N,/USART1_RX_5V*%
X169900000Y-70350000D03*
D11*
%TO.P,J4,2,Pin_2*%
%TO.N,/USART1_TX_5V*%
X167360000Y-70350000D03*
%TO.P,J4,3,Pin_3*%
%TO.N,VBUS*%
X164820000Y-70350000D03*
%TO.P,J4,4,Pin_4*%
%TO.N,GND*%
X162280000Y-70350000D03*
%TD*%
D12*
%TO.P,TP5,1,1*%
%TO.N,3.3_USART1_RX_v1*%
X165450000Y-93650000D03*
%TD*%
%TO.P,TP13,1,1*%
%TO.N,Net-(U1-PB6)*%
X159400000Y-86000000D03*
%TD*%
%TO.P,TP3,1,1*%
%TO.N,Thermo_SCK*%
X152650000Y-103850000D03*
%TD*%
%TO.P,TP14,1,1*%
%TO.N,Net-(U1-PB7)*%
X159400000Y-83900000D03*
%TD*%
%TO.P,TP6,1,1*%
%TO.N,3.3_USART1_TX_v1*%
X163400000Y-93650000D03*
%TD*%
D13*
%TO.P,J5,1,1*%
%TO.N,Net-(U4-T+)*%
X156700000Y-110000000D03*
%TO.P,J5,2,2*%
%TO.N,GND*%
X151620000Y-110000000D03*
%TD*%
D14*
%TO.P,H1,1*%
%TO.N,GND*%
X143200000Y-69700000D03*
%TD*%
%TO.P,H5,1*%
%TO.N,GND*%
X143300000Y-93600000D03*
%TD*%
%TO.P,H2,1*%
%TO.N,GND*%
X177150000Y-69700000D03*
%TD*%
D12*
%TO.P,TP4,1,1*%
%TO.N,Thermo_SO*%
X152650000Y-99850000D03*
%TD*%
D15*
%TO.P,J1,6,Shield*%
%TO.N,unconnected-(J1-Shield-Pad6)*%
X178937500Y-95200000D03*
D16*
X176237500Y-94200000D03*
X176237500Y-89200000D03*
D15*
X178937500Y-88200000D03*
%TD*%
D13*
%TO.P,J6,1,1*%
%TO.N,GND*%
X169500000Y-110000000D03*
%TO.P,J6,2,2*%
%TO.N,Relay*%
X164420000Y-110000000D03*
%TD*%
D10*
%TO.P,J2,1,Pin_1*%
%TO.N,+3.3V*%
X157550000Y-70400000D03*
D11*
%TO.P,J2,2,Pin_2*%
%TO.N,/SYS_JTMS-SWDIO*%
X155010000Y-70400000D03*
%TO.P,J2,3,Pin_3*%
%TO.N,/SYS_JTCK-SWCLK*%
X152470000Y-70400000D03*
%TO.P,J2,4,Pin_4*%
%TO.N,GND*%
X149930000Y-70400000D03*
%TD*%
D17*
%TO.P,SW2,1,1*%
%TO.N,GND*%
X151800000Y-80000000D03*
X145300000Y-80000000D03*
%TO.P,SW2,2,2*%
%TO.N,/NRST*%
X151800000Y-75500000D03*
X145300000Y-75500000D03*
%TD*%
D12*
%TO.P,TP2,1,1*%
%TO.N,Thermo_CS*%
X152650000Y-101850000D03*
%TD*%
D18*
%TO.P,Y1,1*%
%TO.N,/RCC_OSC_IN*%
X148740000Y-84700000D03*
%TO.P,Y1,2*%
%TO.N,/RCC_OSC_OUT*%
X143860000Y-84700000D03*
%TD*%
D14*
%TO.P,H3,1*%
%TO.N,GND*%
X177150000Y-112700000D03*
%TD*%
D19*
%TO.P,SW1,1,C*%
%TO.N,+3.3V*%
X165550000Y-78350000D03*
D20*
%TO.P,SW1,2,B*%
%TO.N,Net-(SW1-B)*%
X163050000Y-78350000D03*
%TO.P,SW1,3,A*%
%TO.N,GND*%
X160550000Y-78350000D03*
%TO.P,SW1,4*%
%TO.N,N/C*%
X165550000Y-75150000D03*
%TO.P,SW1,5*%
X163050000Y-75150000D03*
%TO.P,SW1,6*%
X160550000Y-75150000D03*
%TD*%
D14*
%TO.P,H4,1*%
%TO.N,GND*%
X143250000Y-112900000D03*
%TD*%
D21*
%TO.N,VBUS*%
X169400000Y-78300000D03*
X170450000Y-98050000D03*
%TO.N,GND*%
X174400000Y-103500000D03*
X168800000Y-102100000D03*
X175400000Y-103500000D03*
X168800000Y-103200000D03*
X170712500Y-76762500D03*
X173500000Y-95100000D03*
X174700000Y-90400000D03*
X172400000Y-95100000D03*
X147200000Y-100100000D03*
%TO.N,+3.3V*%
X170450000Y-100350000D03*
X162700000Y-99349957D03*
X163500000Y-90070000D03*
%TO.N,Thermo_CS*%
X146200000Y-107212500D03*
%TO.N,/NRST*%
X154200000Y-92200000D03*
%TO.N,/SYS_JTMS-SWDIO*%
X159466768Y-91188761D03*
%TO.N,/SYS_JTCK-SWCLK*%
X160578038Y-88447056D03*
%TO.N,3.3_USART1_TX_v1*%
X168399996Y-87600000D03*
%TO.N,3.3_USART1_RX_v1*%
X168400007Y-89199999D03*
%TO.N,Net-(D1-A)*%
X169400000Y-75100006D03*
X156600000Y-95050000D03*
%TD*%
D22*
%TO.N,VBUS*%
X169400000Y-76460295D02*
X164820000Y-71880295D01*
X170450000Y-98050000D02*
X169400000Y-97000000D01*
X169400000Y-97000000D02*
X169400000Y-78300000D01*
X169400000Y-78300000D02*
X169400000Y-76460295D01*
X164820000Y-71880295D02*
X164820000Y-70350000D01*
%TO.N,+3.3V*%
X162450000Y-99099957D02*
X162700000Y-99349957D01*
X163700043Y-100350000D02*
X162700000Y-99349957D01*
X162450000Y-91120000D02*
X162450000Y-99099957D01*
X163500000Y-90070000D02*
X162450000Y-91120000D01*
X170450000Y-100350000D02*
X163700043Y-100350000D01*
D23*
%TO.N,Thermo_CS*%
X147287500Y-107212500D02*
X152650000Y-101850000D01*
X146200000Y-107212500D02*
X147287500Y-107212500D01*
%TO.N,/NRST*%
X145300000Y-75500000D02*
X151800000Y-75500000D01*
X154200000Y-77900000D02*
X154200000Y-92200000D01*
X151800000Y-75500000D02*
X154200000Y-77900000D01*
%TO.N,/SYS_JTMS-SWDIO*%
X157050000Y-77571903D02*
X157050000Y-87650000D01*
X155010000Y-70400000D02*
X155010000Y-75531903D01*
X157050000Y-87650000D02*
X159466768Y-90066768D01*
X159466768Y-90066768D02*
X159466768Y-91188761D01*
X155010000Y-75531903D02*
X157050000Y-77571903D01*
%TO.N,/SYS_JTCK-SWCLK*%
X158647056Y-88447056D02*
X160578038Y-88447056D01*
X153645000Y-69225000D02*
X155496701Y-69225000D01*
X156300000Y-70028299D02*
X156300000Y-76185507D01*
X157500000Y-77385507D02*
X157500000Y-87300000D01*
X155496701Y-69225000D02*
X156300000Y-70028299D01*
X157500000Y-87300000D02*
X158647056Y-88447056D01*
X152470000Y-70400000D02*
X153645000Y-69225000D01*
X156300000Y-76185507D02*
X157500000Y-77385507D01*
D24*
%TO.N,3.3_USART1_TX_v1*%
X163400000Y-92200000D02*
X168000000Y-87600000D01*
X168000000Y-87600000D02*
X168399996Y-87600000D01*
X163400000Y-93650000D02*
X163400000Y-92200000D01*
%TO.N,3.3_USART1_RX_v1*%
X165450000Y-93650000D02*
X165450000Y-92150006D01*
X165450000Y-92150006D02*
X168400007Y-89199999D01*
D23*
%TO.N,unconnected-(J1-Shield-Pad6)*%
X176237500Y-94200000D02*
X177937500Y-94200000D01*
X177937500Y-94200000D02*
X178937500Y-95200000D01*
%TO.N,Net-(D1-A)*%
X168600000Y-74300006D02*
X168600000Y-69875000D01*
X169400000Y-75100006D02*
X168600000Y-74300006D01*
X167500000Y-68775000D02*
X152225000Y-68775000D01*
X151200000Y-72358299D02*
X156600000Y-77758299D01*
X151200000Y-69800000D02*
X151200000Y-72358299D01*
X156600000Y-77758299D02*
X156600000Y-95050000D01*
X168600000Y-69875000D02*
X167500000Y-68775000D01*
X152225000Y-68775000D02*
X151200000Y-69800000D01*
%TD*%
%TA.AperFunction,Conductor*%
%TO.N,GND*%
G36*
X175983120Y-66356046D02*
G01*
X176050153Y-66375754D01*
X176095889Y-66428575D01*
X176105808Y-66497737D01*
X176076760Y-66561282D01*
X176022670Y-66597555D01*
X175926739Y-66629878D01*
X175601990Y-66780123D01*
X175295370Y-66964609D01*
X175295367Y-66964611D01*
X175010486Y-67181170D01*
X175010485Y-67181171D01*
X174997257Y-67193702D01*
X174997256Y-67193703D01*
X176205819Y-68402266D01*
X176015130Y-68565130D01*
X175852266Y-68755819D01*
X174646442Y-67549995D01*
X174646441Y-67549996D01*
X174519033Y-67699992D01*
X174318218Y-67996172D01*
X174150606Y-68312322D01*
X174150597Y-68312340D01*
X174018149Y-68644760D01*
X174018147Y-68644767D01*
X173922421Y-68989542D01*
X173922415Y-68989568D01*
X173864527Y-69342668D01*
X173864526Y-69342685D01*
X173845153Y-69699997D01*
X173845153Y-69700002D01*
X173864526Y-70057314D01*
X173864527Y-70057331D01*
X173922415Y-70410431D01*
X173922421Y-70410457D01*
X174018147Y-70755232D01*
X174018149Y-70755239D01*
X174150597Y-71087659D01*
X174150606Y-71087677D01*
X174318218Y-71403827D01*
X174519024Y-71699994D01*
X174519035Y-71700008D01*
X174646441Y-71850002D01*
X174646442Y-71850002D01*
X175852265Y-70644179D01*
X176015130Y-70834870D01*
X176205819Y-70997733D01*
X174997257Y-72206294D01*
X175010495Y-72218836D01*
X175295367Y-72435388D01*
X175295370Y-72435390D01*
X175601990Y-72619876D01*
X175926739Y-72770122D01*
X175926744Y-72770123D01*
X176265855Y-72884383D01*
X176615339Y-72961311D01*
X176971075Y-72999999D01*
X176971085Y-73000000D01*
X177328915Y-73000000D01*
X177328924Y-72999999D01*
X177684660Y-72961311D01*
X178034144Y-72884383D01*
X178373255Y-72770123D01*
X178373260Y-72770122D01*
X178698009Y-72619876D01*
X179004629Y-72435390D01*
X179004632Y-72435388D01*
X179289509Y-72218831D01*
X179302742Y-72206295D01*
X179302742Y-72206294D01*
X178094181Y-70997733D01*
X178284870Y-70834870D01*
X178447733Y-70644180D01*
X179653556Y-71850002D01*
X179780972Y-71699998D01*
X179780975Y-71699994D01*
X179981781Y-71403827D01*
X180149393Y-71087677D01*
X180149402Y-71087659D01*
X180211497Y-70931812D01*
X180254597Y-70876820D01*
X180320586Y-70853859D01*
X180388513Y-70870220D01*
X180436812Y-70920708D01*
X180450690Y-70977601D01*
X180465097Y-87568463D01*
X180445471Y-87635520D01*
X180392706Y-87681321D01*
X180323557Y-87691324D01*
X180259976Y-87662354D01*
X180240093Y-87640503D01*
X180122986Y-87476048D01*
X180122984Y-87476046D01*
X180122979Y-87476040D01*
X179970879Y-87331014D01*
X179794074Y-87217388D01*
X179598955Y-87139274D01*
X179392586Y-87099500D01*
X179392585Y-87099500D01*
X178535075Y-87099500D01*
X178378282Y-87114472D01*
X178378278Y-87114473D01*
X178176627Y-87173683D01*
X177989813Y-87269991D01*
X177824616Y-87399905D01*
X177824612Y-87399909D01*
X177686978Y-87558746D01*
X177581898Y-87740750D01*
X177513156Y-87939365D01*
X177513156Y-87939367D01*
X177485082Y-88134632D01*
X177483246Y-88147401D01*
X177493245Y-88357327D01*
X177523666Y-88482722D01*
X177520341Y-88552513D01*
X177479813Y-88609427D01*
X177414948Y-88635395D01*
X177346341Y-88622171D01*
X177301586Y-88583079D01*
X177179876Y-88409259D01*
X177179871Y-88409253D01*
X177028245Y-88257627D01*
X176852590Y-88134631D01*
X176755419Y-88089320D01*
X176658247Y-88044008D01*
X176658243Y-88044007D01*
X176658239Y-88044005D01*
X176451124Y-87988509D01*
X176451120Y-87988508D01*
X176451119Y-87988508D01*
X176451118Y-87988507D01*
X176451113Y-87988507D01*
X176237502Y-87969819D01*
X176237498Y-87969819D01*
X176023886Y-87988507D01*
X176023875Y-87988509D01*
X175816760Y-88044005D01*
X175816751Y-88044009D01*
X175622410Y-88134631D01*
X175622408Y-88134632D01*
X175446759Y-88257623D01*
X175446753Y-88257628D01*
X175295128Y-88409253D01*
X175295123Y-88409259D01*
X175172132Y-88584908D01*
X175172131Y-88584910D01*
X175081509Y-88779251D01*
X175081505Y-88779260D01*
X175026009Y-88986375D01*
X175026007Y-88986386D01*
X175007319Y-89199998D01*
X175007319Y-89200001D01*
X175026007Y-89413613D01*
X175026009Y-89413624D01*
X175081505Y-89620739D01*
X175081507Y-89620743D01*
X175081508Y-89620747D01*
X175119266Y-89701719D01*
X175172131Y-89815090D01*
X175252489Y-89929852D01*
X175295127Y-89990745D01*
X175446755Y-90142373D01*
X175622409Y-90265368D01*
X175816753Y-90355992D01*
X176023881Y-90411492D01*
X176176466Y-90424841D01*
X176237498Y-90430181D01*
X176237500Y-90430181D01*
X176237502Y-90430181D01*
X176290904Y-90425508D01*
X176451119Y-90411492D01*
X176658247Y-90355992D01*
X176852591Y-90265368D01*
X177028245Y-90142373D01*
X177179873Y-89990745D01*
X177302868Y-89815091D01*
X177393492Y-89620747D01*
X177448992Y-89413619D01*
X177467681Y-89200000D01*
X177448992Y-88986381D01*
X177417245Y-88867900D01*
X177418908Y-88798051D01*
X177458070Y-88740188D01*
X177522299Y-88712684D01*
X177591201Y-88724270D01*
X177638026Y-88763878D01*
X177725497Y-88886714D01*
X177752015Y-88923953D01*
X177752020Y-88923959D01*
X177904120Y-89068985D01*
X177999078Y-89130011D01*
X178080928Y-89182613D01*
X178276043Y-89260725D01*
X178379229Y-89280612D01*
X178482414Y-89300500D01*
X178482415Y-89300500D01*
X179339919Y-89300500D01*
X179339925Y-89300500D01*
X179496718Y-89285528D01*
X179698375Y-89226316D01*
X179885182Y-89130011D01*
X180050386Y-89000092D01*
X180188019Y-88841256D01*
X180199066Y-88822123D01*
X180234799Y-88760231D01*
X180285365Y-88712016D01*
X180353972Y-88698792D01*
X180418837Y-88724760D01*
X180459366Y-88781674D01*
X180466186Y-88822123D01*
X180471184Y-94577010D01*
X180451558Y-94644067D01*
X180398793Y-94689868D01*
X180329644Y-94699871D01*
X180266063Y-94670901D01*
X180246177Y-94649045D01*
X180122990Y-94476052D01*
X180122979Y-94476040D01*
X179970879Y-94331014D01*
X179794074Y-94217388D01*
X179750643Y-94200001D01*
X179598957Y-94139275D01*
X179598955Y-94139274D01*
X179392586Y-94099500D01*
X179392585Y-94099500D01*
X178772953Y-94099500D01*
X178705914Y-94079815D01*
X178685272Y-94063181D01*
X178438303Y-93816212D01*
X178428480Y-93803950D01*
X178428259Y-93804134D01*
X178423286Y-93798122D01*
X178374276Y-93752099D01*
X178371477Y-93749386D01*
X178351977Y-93729885D01*
X178351971Y-93729880D01*
X178348786Y-93727409D01*
X178339934Y-93719848D01*
X178308082Y-93689938D01*
X178308080Y-93689936D01*
X178308077Y-93689935D01*
X178290529Y-93680288D01*
X178274263Y-93669604D01*
X178258432Y-93657324D01*
X178218349Y-93639978D01*
X178207863Y-93634841D01*
X178169594Y-93613803D01*
X178169592Y-93613802D01*
X178150193Y-93608822D01*
X178131781Y-93602518D01*
X178113398Y-93594562D01*
X178113392Y-93594560D01*
X178070260Y-93587729D01*
X178058822Y-93585361D01*
X178016520Y-93574500D01*
X178016519Y-93574500D01*
X177996484Y-93574500D01*
X177977086Y-93572973D01*
X177969662Y-93571797D01*
X177957305Y-93569840D01*
X177957304Y-93569840D01*
X177913825Y-93573950D01*
X177902156Y-93574500D01*
X177360129Y-93574500D01*
X177293090Y-93554815D01*
X177258556Y-93521626D01*
X177179873Y-93409255D01*
X177028245Y-93257627D01*
X177006906Y-93242685D01*
X176852590Y-93134631D01*
X176694995Y-93061144D01*
X176658247Y-93044008D01*
X176658243Y-93044007D01*
X176658239Y-93044005D01*
X176451124Y-92988509D01*
X176451120Y-92988508D01*
X176451119Y-92988508D01*
X176451118Y-92988507D01*
X176451113Y-92988507D01*
X176237502Y-92969819D01*
X176237498Y-92969819D01*
X176023886Y-92988507D01*
X176023875Y-92988509D01*
X175816760Y-93044005D01*
X175816751Y-93044009D01*
X175622410Y-93134631D01*
X175622408Y-93134632D01*
X175446759Y-93257623D01*
X175446753Y-93257628D01*
X175295128Y-93409253D01*
X175295123Y-93409259D01*
X175172132Y-93584908D01*
X175172131Y-93584910D01*
X175081509Y-93779251D01*
X175081505Y-93779260D01*
X175026009Y-93986375D01*
X175026007Y-93986386D01*
X175007319Y-94199998D01*
X175007319Y-94200001D01*
X175026007Y-94413613D01*
X175026009Y-94413624D01*
X175081505Y-94620739D01*
X175081507Y-94620743D01*
X175081508Y-94620747D01*
X175094704Y-94649045D01*
X175172131Y-94815090D01*
X175278603Y-94967146D01*
X175295127Y-94990745D01*
X175446755Y-95142373D01*
X175622409Y-95265368D01*
X175816753Y-95355992D01*
X176023881Y-95411492D01*
X176176466Y-95424841D01*
X176237498Y-95430181D01*
X176237500Y-95430181D01*
X176237502Y-95430181D01*
X176290904Y-95425508D01*
X176451119Y-95411492D01*
X176658247Y-95355992D01*
X176852591Y-95265368D01*
X177028245Y-95142373D01*
X177179873Y-94990745D01*
X177258555Y-94878374D01*
X177313131Y-94834751D01*
X177360129Y-94825500D01*
X177386424Y-94825500D01*
X177453463Y-94845185D01*
X177499218Y-94897989D01*
X177509162Y-94967146D01*
X177483969Y-95142373D01*
X177483246Y-95147400D01*
X177493245Y-95357327D01*
X177542796Y-95561578D01*
X177542798Y-95561582D01*
X177630098Y-95752743D01*
X177630101Y-95752748D01*
X177630102Y-95752750D01*
X177630104Y-95752753D01*
X177752014Y-95923952D01*
X177752015Y-95923953D01*
X177752020Y-95923959D01*
X177904120Y-96068985D01*
X177999078Y-96130011D01*
X178080928Y-96182613D01*
X178276043Y-96260725D01*
X178379229Y-96280612D01*
X178482414Y-96300500D01*
X178482415Y-96300500D01*
X179339919Y-96300500D01*
X179339925Y-96300500D01*
X179496718Y-96285528D01*
X179698375Y-96226316D01*
X179885182Y-96130011D01*
X179899399Y-96118831D01*
X180050383Y-96000094D01*
X180050386Y-96000092D01*
X180188019Y-95841256D01*
X180205135Y-95811610D01*
X180240869Y-95749718D01*
X180291436Y-95701502D01*
X180360043Y-95688279D01*
X180424908Y-95714247D01*
X180465436Y-95771161D01*
X180472256Y-95811610D01*
X180485889Y-111510525D01*
X180466263Y-111577582D01*
X180413498Y-111623383D01*
X180344349Y-111633386D01*
X180280768Y-111604416D01*
X180246696Y-111556530D01*
X180149402Y-111312340D01*
X180149393Y-111312322D01*
X179981781Y-110996172D01*
X179780975Y-110700005D01*
X179780964Y-110699991D01*
X179653556Y-110549996D01*
X178447733Y-111755819D01*
X178284870Y-111565130D01*
X178094180Y-111402266D01*
X179302742Y-110193704D01*
X179289504Y-110181163D01*
X179004632Y-109964611D01*
X179004629Y-109964609D01*
X178698009Y-109780123D01*
X178373260Y-109629877D01*
X178373255Y-109629876D01*
X178034144Y-109515616D01*
X177684660Y-109438688D01*
X177328924Y-109400000D01*
X176971075Y-109400000D01*
X176615339Y-109438688D01*
X176265855Y-109515616D01*
X175926744Y-109629876D01*
X175926739Y-109629877D01*
X175601990Y-109780123D01*
X175295370Y-109964609D01*
X175295367Y-109964611D01*
X175010486Y-110181170D01*
X175010485Y-110181171D01*
X174997257Y-110193702D01*
X174997256Y-110193703D01*
X176205819Y-111402266D01*
X176015130Y-111565130D01*
X175852266Y-111755819D01*
X174646442Y-110549995D01*
X174646441Y-110549996D01*
X174519033Y-110699992D01*
X174318218Y-110996172D01*
X174150606Y-111312322D01*
X174150597Y-111312340D01*
X174018149Y-111644760D01*
X174018147Y-111644767D01*
X173922421Y-111989542D01*
X173922415Y-111989568D01*
X173864527Y-112342668D01*
X173864526Y-112342685D01*
X173845153Y-112699997D01*
X173845153Y-112700002D01*
X173864526Y-113057314D01*
X173864527Y-113057331D01*
X173922415Y-113410431D01*
X173922421Y-113410457D01*
X174018147Y-113755232D01*
X174018149Y-113755239D01*
X174150597Y-114087659D01*
X174150606Y-114087677D01*
X174318218Y-114403827D01*
X174519024Y-114699994D01*
X174519035Y-114700008D01*
X174646441Y-114850002D01*
X174646442Y-114850002D01*
X175852265Y-113644179D01*
X176015130Y-113834870D01*
X176205819Y-113997733D01*
X174997257Y-115206294D01*
X175010495Y-115218836D01*
X175295367Y-115435388D01*
X175295370Y-115435390D01*
X175601990Y-115619876D01*
X175926739Y-115770122D01*
X175926744Y-115770123D01*
X176265857Y-115884384D01*
X176417133Y-115917683D01*
X176478374Y-115951319D01*
X176511708Y-116012724D01*
X176506552Y-116082404D01*
X176464543Y-116138234D01*
X176399018Y-116162489D01*
X176390509Y-116162784D01*
X144602713Y-116170872D01*
X144535668Y-116151204D01*
X144489900Y-116098412D01*
X144479939Y-116029256D01*
X144508947Y-115965693D01*
X144550615Y-115934333D01*
X144798009Y-115819876D01*
X145104629Y-115635390D01*
X145104632Y-115635388D01*
X145389509Y-115418831D01*
X145402742Y-115406295D01*
X144194180Y-114197733D01*
X144384870Y-114034870D01*
X144547733Y-113844180D01*
X145753556Y-115050002D01*
X145880972Y-114899998D01*
X145880975Y-114899994D01*
X146081781Y-114603827D01*
X146249393Y-114287677D01*
X146249402Y-114287659D01*
X146381850Y-113955239D01*
X146381852Y-113955232D01*
X146477578Y-113610457D01*
X146477584Y-113610431D01*
X146535472Y-113257331D01*
X146535473Y-113257314D01*
X146554847Y-112900002D01*
X146554847Y-112899997D01*
X146535473Y-112542685D01*
X146535472Y-112542668D01*
X146477584Y-112189568D01*
X146477578Y-112189542D01*
X146381852Y-111844767D01*
X146381850Y-111844760D01*
X146249402Y-111512340D01*
X146249393Y-111512322D01*
X146081781Y-111196172D01*
X145880975Y-110900005D01*
X145880964Y-110899991D01*
X145753556Y-110749996D01*
X144547733Y-111955819D01*
X144384870Y-111765130D01*
X144194180Y-111602266D01*
X145402742Y-110393704D01*
X145389504Y-110381163D01*
X145104632Y-110164611D01*
X145104629Y-110164609D01*
X144831053Y-110000005D01*
X150162522Y-110000005D01*
X150182399Y-110239889D01*
X150241491Y-110473240D01*
X150338185Y-110693682D01*
X150430880Y-110835563D01*
X150980970Y-110285474D01*
X151040924Y-110399707D01*
X151153407Y-110526675D01*
X151293007Y-110623033D01*
X151334705Y-110638847D01*
X150783790Y-111189761D01*
X150783791Y-111189762D01*
X150822832Y-111220149D01*
X150822838Y-111220153D01*
X151034531Y-111334715D01*
X151034545Y-111334721D01*
X151262207Y-111412879D01*
X151499642Y-111452500D01*
X151740358Y-111452500D01*
X151977792Y-111412879D01*
X152205454Y-111334721D01*
X152205468Y-111334715D01*
X152417160Y-111220154D01*
X152417168Y-111220149D01*
X152456207Y-111189762D01*
X152456208Y-111189760D01*
X151905295Y-110638847D01*
X151946993Y-110623033D01*
X152086593Y-110526675D01*
X152199076Y-110399707D01*
X152259029Y-110285476D01*
X152809117Y-110835564D01*
X152901815Y-110693679D01*
X152998508Y-110473240D01*
X153057600Y-110239889D01*
X153077478Y-110000005D01*
X155242020Y-110000005D01*
X155261904Y-110239972D01*
X155321017Y-110473405D01*
X155417639Y-110693682D01*
X155417745Y-110693922D01*
X155549449Y-110895510D01*
X155712537Y-111072671D01*
X155862974Y-111189760D01*
X155902022Y-111220153D01*
X155902561Y-111220572D01*
X155993861Y-111269981D01*
X156113478Y-111334715D01*
X156114336Y-111335179D01*
X156226264Y-111373604D01*
X156342083Y-111413365D01*
X156342085Y-111413365D01*
X156342087Y-111413366D01*
X156579601Y-111453000D01*
X156579602Y-111453000D01*
X156820398Y-111453000D01*
X156820399Y-111453000D01*
X157057913Y-111413366D01*
X157285664Y-111335179D01*
X157497439Y-111220572D01*
X157687463Y-111072671D01*
X157850551Y-110895510D01*
X157982255Y-110693922D01*
X158078983Y-110473405D01*
X158138095Y-110239976D01*
X158157980Y-110000005D01*
X162962020Y-110000005D01*
X162981904Y-110239972D01*
X163041017Y-110473405D01*
X163137639Y-110693682D01*
X163137745Y-110693922D01*
X163269449Y-110895510D01*
X163432537Y-111072671D01*
X163582974Y-111189760D01*
X163622022Y-111220153D01*
X163622561Y-111220572D01*
X163713861Y-111269981D01*
X163833478Y-111334715D01*
X163834336Y-111335179D01*
X163946264Y-111373604D01*
X164062083Y-111413365D01*
X164062085Y-111413365D01*
X164062087Y-111413366D01*
X164299601Y-111453000D01*
X164299602Y-111453000D01*
X164540398Y-111453000D01*
X164540399Y-111453000D01*
X164777913Y-111413366D01*
X165005664Y-111335179D01*
X165217439Y-111220572D01*
X165407463Y-111072671D01*
X165570551Y-110895510D01*
X165702255Y-110693922D01*
X165798983Y-110473405D01*
X165858095Y-110239976D01*
X165877980Y-110000005D01*
X168042522Y-110000005D01*
X168062399Y-110239889D01*
X168121491Y-110473240D01*
X168218185Y-110693682D01*
X168310880Y-110835563D01*
X168860970Y-110285474D01*
X168920924Y-110399707D01*
X169033407Y-110526675D01*
X169173007Y-110623033D01*
X169214705Y-110638847D01*
X168663790Y-111189761D01*
X168663791Y-111189762D01*
X168702832Y-111220149D01*
X168702838Y-111220153D01*
X168914531Y-111334715D01*
X168914545Y-111334721D01*
X169142207Y-111412879D01*
X169379642Y-111452500D01*
X169620358Y-111452500D01*
X169857792Y-111412879D01*
X170085454Y-111334721D01*
X170085468Y-111334715D01*
X170297160Y-111220154D01*
X170297168Y-111220149D01*
X170336207Y-111189762D01*
X170336208Y-111189760D01*
X169785295Y-110638847D01*
X169826993Y-110623033D01*
X169966593Y-110526675D01*
X170079076Y-110399707D01*
X170139029Y-110285476D01*
X170689117Y-110835564D01*
X170781815Y-110693679D01*
X170878508Y-110473240D01*
X170937600Y-110239889D01*
X170957478Y-110000005D01*
X170957478Y-109999994D01*
X170937600Y-109760110D01*
X170878508Y-109526759D01*
X170781815Y-109306320D01*
X170689117Y-109164434D01*
X170139028Y-109714523D01*
X170079076Y-109600293D01*
X169966593Y-109473325D01*
X169826993Y-109376967D01*
X169785293Y-109361152D01*
X170336208Y-108810237D01*
X170336208Y-108810236D01*
X170297166Y-108779849D01*
X170297161Y-108779846D01*
X170085468Y-108665284D01*
X170085454Y-108665278D01*
X169857792Y-108587120D01*
X169620358Y-108547500D01*
X169379642Y-108547500D01*
X169142207Y-108587120D01*
X168914545Y-108665278D01*
X168914531Y-108665284D01*
X168702837Y-108779846D01*
X168702826Y-108779853D01*
X168663791Y-108810235D01*
X168663791Y-108810237D01*
X169214706Y-109361152D01*
X169173007Y-109376967D01*
X169033407Y-109473325D01*
X168920924Y-109600293D01*
X168860970Y-109714524D01*
X168310880Y-109164434D01*
X168218185Y-109306317D01*
X168121491Y-109526759D01*
X168062399Y-109760110D01*
X168042522Y-109999994D01*
X168042522Y-110000005D01*
X165877980Y-110000005D01*
X165877980Y-110000000D01*
X165875047Y-109964609D01*
X165858095Y-109760027D01*
X165858095Y-109760024D01*
X165798983Y-109526595D01*
X165702255Y-109306078D01*
X165570551Y-109104490D01*
X165407463Y-108927329D01*
X165257020Y-108810235D01*
X165217441Y-108779429D01*
X165005665Y-108664821D01*
X165005656Y-108664818D01*
X164777916Y-108586634D01*
X164599777Y-108556908D01*
X164540399Y-108547000D01*
X164299601Y-108547000D01*
X164252098Y-108554926D01*
X164062083Y-108586634D01*
X163834343Y-108664818D01*
X163834334Y-108664821D01*
X163622558Y-108779429D01*
X163488456Y-108883805D01*
X163432537Y-108927329D01*
X163432534Y-108927331D01*
X163432534Y-108927332D01*
X163269449Y-109104490D01*
X163137743Y-109306081D01*
X163041017Y-109526594D01*
X162981904Y-109760027D01*
X162962020Y-109999994D01*
X162962020Y-110000005D01*
X158157980Y-110000005D01*
X158157980Y-110000000D01*
X158155047Y-109964609D01*
X158138095Y-109760027D01*
X158138095Y-109760024D01*
X158078983Y-109526595D01*
X157982255Y-109306078D01*
X157850551Y-109104490D01*
X157687463Y-108927329D01*
X157537020Y-108810235D01*
X157497441Y-108779429D01*
X157285665Y-108664821D01*
X157285656Y-108664818D01*
X157057916Y-108586634D01*
X156879777Y-108556908D01*
X156820399Y-108547000D01*
X156579601Y-108547000D01*
X156532098Y-108554926D01*
X156342083Y-108586634D01*
X156114343Y-108664818D01*
X156114334Y-108664821D01*
X155902558Y-108779429D01*
X155768456Y-108883805D01*
X155712537Y-108927329D01*
X155712534Y-108927331D01*
X155712534Y-108927332D01*
X155549449Y-109104490D01*
X155417743Y-109306081D01*
X155321017Y-109526594D01*
X155261904Y-109760027D01*
X155242020Y-109999994D01*
X155242020Y-110000005D01*
X153077478Y-110000005D01*
X153077478Y-109999994D01*
X153057600Y-109760110D01*
X152998508Y-109526759D01*
X152901815Y-109306320D01*
X152809117Y-109164434D01*
X152259028Y-109714523D01*
X152199076Y-109600293D01*
X152086593Y-109473325D01*
X151946993Y-109376967D01*
X151905293Y-109361152D01*
X152456208Y-108810237D01*
X152456208Y-108810236D01*
X152417166Y-108779849D01*
X152417161Y-108779846D01*
X152205468Y-108665284D01*
X152205454Y-108665278D01*
X151977792Y-108587120D01*
X151740358Y-108547500D01*
X151499642Y-108547500D01*
X151262207Y-108587120D01*
X151034545Y-108665278D01*
X151034531Y-108665284D01*
X150822837Y-108779846D01*
X150822826Y-108779853D01*
X150783791Y-108810235D01*
X150783791Y-108810237D01*
X151334706Y-109361152D01*
X151293007Y-109376967D01*
X151153407Y-109473325D01*
X151040924Y-109600293D01*
X150980970Y-109714524D01*
X150430881Y-109164435D01*
X150338185Y-109306317D01*
X150241491Y-109526759D01*
X150182399Y-109760110D01*
X150162522Y-109999994D01*
X150162522Y-110000005D01*
X144831053Y-110000005D01*
X144798009Y-109980123D01*
X144473260Y-109829877D01*
X144473255Y-109829876D01*
X144134144Y-109715616D01*
X143784660Y-109638688D01*
X143428924Y-109600000D01*
X143071075Y-109600000D01*
X142715339Y-109638688D01*
X142365855Y-109715616D01*
X142026744Y-109829876D01*
X142026739Y-109829877D01*
X141701990Y-109980123D01*
X141395370Y-110164609D01*
X141395367Y-110164611D01*
X141110486Y-110381170D01*
X141110485Y-110381171D01*
X141097257Y-110393702D01*
X141097256Y-110393703D01*
X142305819Y-111602266D01*
X142115130Y-111765130D01*
X141952266Y-111955819D01*
X140746442Y-110749995D01*
X140746441Y-110749996D01*
X140619033Y-110899992D01*
X140418218Y-111196172D01*
X140250606Y-111512322D01*
X140250597Y-111512340D01*
X140118149Y-111844759D01*
X140093719Y-111932749D01*
X140056816Y-111992078D01*
X139993696Y-112022038D01*
X139924398Y-112013116D01*
X139870925Y-111968146D01*
X139850253Y-111901405D01*
X139850239Y-111899723D01*
X139849010Y-107212500D01*
X145294540Y-107212500D01*
X145314326Y-107400756D01*
X145314327Y-107400759D01*
X145372818Y-107580777D01*
X145372821Y-107580784D01*
X145467467Y-107744716D01*
X145588401Y-107879026D01*
X145594129Y-107885388D01*
X145747265Y-107996648D01*
X145747270Y-107996651D01*
X145920192Y-108073642D01*
X145920197Y-108073644D01*
X146105354Y-108113000D01*
X146105355Y-108113000D01*
X146294644Y-108113000D01*
X146294646Y-108113000D01*
X146479803Y-108073644D01*
X146652730Y-107996651D01*
X146805871Y-107885388D01*
X146808788Y-107882147D01*
X146811600Y-107879026D01*
X146871087Y-107842379D01*
X146903748Y-107838000D01*
X147204757Y-107838000D01*
X147220377Y-107839724D01*
X147220404Y-107839439D01*
X147228160Y-107840171D01*
X147228167Y-107840173D01*
X147295373Y-107838061D01*
X147299268Y-107838000D01*
X147326846Y-107838000D01*
X147326850Y-107838000D01*
X147330824Y-107837497D01*
X147342463Y-107836580D01*
X147386127Y-107835209D01*
X147405369Y-107829617D01*
X147424412Y-107825674D01*
X147444292Y-107823164D01*
X147484901Y-107807085D01*
X147495944Y-107803303D01*
X147537890Y-107791118D01*
X147555129Y-107780922D01*
X147572603Y-107772362D01*
X147591227Y-107764988D01*
X147591227Y-107764987D01*
X147591232Y-107764986D01*
X147626583Y-107739300D01*
X147636314Y-107732908D01*
X147673920Y-107710670D01*
X147688089Y-107696499D01*
X147702879Y-107683868D01*
X147719087Y-107672094D01*
X147746938Y-107638426D01*
X147754779Y-107629809D01*
X151437821Y-103946768D01*
X151499142Y-103913285D01*
X151568834Y-103918269D01*
X151624767Y-103960141D01*
X151649184Y-104025605D01*
X151649500Y-104034451D01*
X151649500Y-104397869D01*
X151649501Y-104397876D01*
X151655908Y-104457483D01*
X151706202Y-104592328D01*
X151706206Y-104592335D01*
X151792452Y-104707544D01*
X151792455Y-104707547D01*
X151907664Y-104793793D01*
X151907671Y-104793797D01*
X152042517Y-104844091D01*
X152042516Y-104844091D01*
X152049444Y-104844835D01*
X152102127Y-104850500D01*
X153197872Y-104850499D01*
X153257483Y-104844091D01*
X153392331Y-104793796D01*
X153507546Y-104707546D01*
X153593796Y-104592331D01*
X153644091Y-104457483D01*
X153650500Y-104397873D01*
X153650499Y-103302128D01*
X153644091Y-103242517D01*
X153593796Y-103107669D01*
X153593795Y-103107668D01*
X153593793Y-103107664D01*
X153507547Y-102992456D01*
X153507548Y-102992456D01*
X153507546Y-102992454D01*
X153449854Y-102949265D01*
X153407984Y-102893333D01*
X153403000Y-102823641D01*
X153436485Y-102762318D01*
X153449850Y-102750736D01*
X153507546Y-102707546D01*
X153593796Y-102592331D01*
X153644091Y-102457483D01*
X153650500Y-102397873D01*
X153650499Y-101302128D01*
X153644091Y-101242517D01*
X153593796Y-101107669D01*
X153593795Y-101107668D01*
X153593793Y-101107664D01*
X153542123Y-101038643D01*
X153507546Y-100992454D01*
X153449854Y-100949265D01*
X153407984Y-100893333D01*
X153403000Y-100823641D01*
X153436485Y-100762318D01*
X153449854Y-100750734D01*
X153507546Y-100707546D01*
X153593796Y-100592331D01*
X153644091Y-100457483D01*
X153650500Y-100397873D01*
X153650499Y-99302128D01*
X153644091Y-99242517D01*
X153619368Y-99176232D01*
X153593797Y-99107671D01*
X153593793Y-99107664D01*
X153507547Y-98992455D01*
X153507544Y-98992452D01*
X153392335Y-98906206D01*
X153392328Y-98906202D01*
X153257482Y-98855908D01*
X153257483Y-98855908D01*
X153197883Y-98849501D01*
X153197881Y-98849500D01*
X153197873Y-98849500D01*
X153197864Y-98849500D01*
X152102129Y-98849500D01*
X152102123Y-98849501D01*
X152042516Y-98855908D01*
X151907671Y-98906202D01*
X151907664Y-98906206D01*
X151792455Y-98992452D01*
X151792452Y-98992455D01*
X151706206Y-99107664D01*
X151706202Y-99107671D01*
X151655908Y-99242517D01*
X151652501Y-99274212D01*
X151649501Y-99302123D01*
X151649500Y-99302135D01*
X151649500Y-100397870D01*
X151649501Y-100397876D01*
X151655908Y-100457483D01*
X151706202Y-100592328D01*
X151706206Y-100592335D01*
X151792452Y-100707544D01*
X151792453Y-100707544D01*
X151792454Y-100707546D01*
X151806789Y-100718277D01*
X151850145Y-100750734D01*
X151892015Y-100806668D01*
X151896999Y-100876360D01*
X151863513Y-100937683D01*
X151850145Y-100949266D01*
X151792452Y-100992455D01*
X151706206Y-101107664D01*
X151706202Y-101107671D01*
X151655908Y-101242517D01*
X151649501Y-101302116D01*
X151649501Y-101302123D01*
X151649500Y-101302135D01*
X151649500Y-101914546D01*
X151629815Y-101981585D01*
X151613181Y-102002227D01*
X147064728Y-106550681D01*
X147003405Y-106584166D01*
X146977047Y-106587000D01*
X146903748Y-106587000D01*
X146836709Y-106567315D01*
X146811600Y-106545974D01*
X146805873Y-106539614D01*
X146805869Y-106539610D01*
X146652734Y-106428351D01*
X146652729Y-106428348D01*
X146479807Y-106351357D01*
X146479802Y-106351355D01*
X146334001Y-106320365D01*
X146294646Y-106312000D01*
X146105354Y-106312000D01*
X146072897Y-106318898D01*
X145920197Y-106351355D01*
X145920192Y-106351357D01*
X145747270Y-106428348D01*
X145747265Y-106428351D01*
X145594129Y-106539611D01*
X145467466Y-106680285D01*
X145372821Y-106844215D01*
X145372818Y-106844222D01*
X145314327Y-107024240D01*
X145314326Y-107024244D01*
X145294540Y-107212500D01*
X139849010Y-107212500D01*
X139845652Y-94403849D01*
X139865319Y-94336806D01*
X139918111Y-94291037D01*
X139987267Y-94281076D01*
X140050830Y-94310084D01*
X140088620Y-94368852D01*
X140089132Y-94370644D01*
X140168148Y-94655237D01*
X140168149Y-94655239D01*
X140300597Y-94987659D01*
X140300606Y-94987677D01*
X140468218Y-95303827D01*
X140669024Y-95599994D01*
X140669035Y-95600008D01*
X140796441Y-95750002D01*
X140796442Y-95750002D01*
X142002265Y-94544179D01*
X142165130Y-94734870D01*
X142355819Y-94897733D01*
X141147257Y-96106294D01*
X141160495Y-96118836D01*
X141445367Y-96335388D01*
X141445370Y-96335390D01*
X141751990Y-96519876D01*
X142076739Y-96670122D01*
X142076744Y-96670123D01*
X142415855Y-96784383D01*
X142765339Y-96861311D01*
X143121075Y-96899999D01*
X143121085Y-96900000D01*
X143478915Y-96900000D01*
X143478924Y-96899999D01*
X143834660Y-96861311D01*
X144184144Y-96784383D01*
X144523255Y-96670123D01*
X144523260Y-96670122D01*
X144848009Y-96519876D01*
X145154629Y-96335390D01*
X145154632Y-96335388D01*
X145439509Y-96118831D01*
X145452742Y-96106295D01*
X145452742Y-96106294D01*
X144244181Y-94897733D01*
X144434870Y-94734870D01*
X144597733Y-94544180D01*
X145803556Y-95750002D01*
X145930972Y-95599998D01*
X145930975Y-95599994D01*
X146131781Y-95303827D01*
X146299393Y-94987677D01*
X146299402Y-94987659D01*
X146431850Y-94655239D01*
X146431852Y-94655232D01*
X146527578Y-94310457D01*
X146527584Y-94310431D01*
X146585472Y-93957331D01*
X146585473Y-93957314D01*
X146604847Y-93600002D01*
X146604847Y-93599997D01*
X146585473Y-93242685D01*
X146585472Y-93242668D01*
X146527584Y-92889568D01*
X146527578Y-92889542D01*
X146431852Y-92544767D01*
X146431850Y-92544760D01*
X146299402Y-92212340D01*
X146299393Y-92212322D01*
X146131781Y-91896172D01*
X145930975Y-91600005D01*
X145930964Y-91599991D01*
X145803556Y-91449996D01*
X144597733Y-92655819D01*
X144434870Y-92465130D01*
X144244180Y-92302266D01*
X145452742Y-91093704D01*
X145439504Y-91081163D01*
X145154632Y-90864611D01*
X145154629Y-90864609D01*
X144848009Y-90680123D01*
X144523260Y-90529877D01*
X144523255Y-90529876D01*
X144184144Y-90415616D01*
X143834660Y-90338688D01*
X143478924Y-90300000D01*
X143121075Y-90300000D01*
X142765339Y-90338688D01*
X142415855Y-90415616D01*
X142076744Y-90529876D01*
X142076739Y-90529877D01*
X141751990Y-90680123D01*
X141445370Y-90864609D01*
X141445367Y-90864611D01*
X141160486Y-91081170D01*
X141160485Y-91081171D01*
X141147257Y-91093702D01*
X141147256Y-91093703D01*
X142355819Y-92302266D01*
X142165130Y-92465130D01*
X142002266Y-92655819D01*
X140796442Y-91449995D01*
X140796441Y-91449996D01*
X140669033Y-91599992D01*
X140468218Y-91896172D01*
X140300606Y-92212322D01*
X140300597Y-92212340D01*
X140168149Y-92544760D01*
X140168148Y-92544762D01*
X140088711Y-92830871D01*
X140051809Y-92890200D01*
X139988689Y-92920161D01*
X139919391Y-92911240D01*
X139865917Y-92866270D01*
X139845245Y-92799529D01*
X139845231Y-92797730D01*
X139845178Y-92594701D01*
X139843108Y-84700000D01*
X142814465Y-84700000D01*
X142834554Y-84903972D01*
X142894053Y-85100113D01*
X142990667Y-85280866D01*
X142990669Y-85280869D01*
X143120694Y-85439305D01*
X143279130Y-85569330D01*
X143279133Y-85569332D01*
X143459886Y-85665946D01*
X143459888Y-85665946D01*
X143459891Y-85665948D01*
X143656026Y-85725445D01*
X143860000Y-85745535D01*
X144063974Y-85725445D01*
X144260109Y-85665948D01*
X144440868Y-85569331D01*
X144599305Y-85439305D01*
X144729331Y-85280868D01*
X144825948Y-85100109D01*
X144885445Y-84903974D01*
X144905535Y-84700000D01*
X147694465Y-84700000D01*
X147714554Y-84903972D01*
X147774053Y-85100113D01*
X147870667Y-85280866D01*
X147870669Y-85280869D01*
X148000694Y-85439305D01*
X148159130Y-85569330D01*
X148159133Y-85569332D01*
X148339886Y-85665946D01*
X148339888Y-85665946D01*
X148339891Y-85665948D01*
X148536026Y-85725445D01*
X148740000Y-85745535D01*
X148943974Y-85725445D01*
X149140109Y-85665948D01*
X149320868Y-85569331D01*
X149479305Y-85439305D01*
X149609331Y-85280868D01*
X149705948Y-85100109D01*
X149765445Y-84903974D01*
X149785535Y-84700000D01*
X149765445Y-84496026D01*
X149705948Y-84299891D01*
X149705946Y-84299888D01*
X149705946Y-84299886D01*
X149609332Y-84119133D01*
X149609330Y-84119130D01*
X149479305Y-83960694D01*
X149320869Y-83830669D01*
X149320866Y-83830667D01*
X149140113Y-83734053D01*
X148943972Y-83674554D01*
X148740000Y-83654465D01*
X148536027Y-83674554D01*
X148339886Y-83734053D01*
X148159133Y-83830667D01*
X148159130Y-83830669D01*
X148000694Y-83960694D01*
X147870669Y-84119130D01*
X147870667Y-84119133D01*
X147774053Y-84299886D01*
X147714554Y-84496027D01*
X147694465Y-84700000D01*
X144905535Y-84700000D01*
X144885445Y-84496026D01*
X144825948Y-84299891D01*
X144825946Y-84299888D01*
X144825946Y-84299886D01*
X144729332Y-84119133D01*
X144729330Y-84119130D01*
X144599305Y-83960694D01*
X144440869Y-83830669D01*
X144440866Y-83830667D01*
X144260113Y-83734053D01*
X144063972Y-83674554D01*
X143860000Y-83654465D01*
X143656027Y-83674554D01*
X143459886Y-83734053D01*
X143279133Y-83830667D01*
X143279130Y-83830669D01*
X143120694Y-83960694D01*
X142990669Y-84119130D01*
X142990667Y-84119133D01*
X142894053Y-84299886D01*
X142834554Y-84496027D01*
X142814465Y-84700000D01*
X139843108Y-84700000D01*
X139841875Y-80000005D01*
X143794859Y-80000005D01*
X143815385Y-80247729D01*
X143815387Y-80247738D01*
X143876412Y-80488717D01*
X143976266Y-80716364D01*
X144076564Y-80869882D01*
X144774070Y-80172376D01*
X144776884Y-80185915D01*
X144846442Y-80320156D01*
X144949638Y-80430652D01*
X145078819Y-80509209D01*
X145130002Y-80523549D01*
X144429942Y-81223609D01*
X144476768Y-81260055D01*
X144476770Y-81260056D01*
X144695385Y-81378364D01*
X144695396Y-81378369D01*
X144930506Y-81459083D01*
X145175707Y-81500000D01*
X145424293Y-81500000D01*
X145669493Y-81459083D01*
X145904603Y-81378369D01*
X145904614Y-81378364D01*
X146123228Y-81260057D01*
X146123231Y-81260055D01*
X146170056Y-81223609D01*
X145471568Y-80525121D01*
X145588458Y-80474349D01*
X145705739Y-80378934D01*
X145792928Y-80255415D01*
X145823354Y-80169802D01*
X146523434Y-80869882D01*
X146623731Y-80716369D01*
X146723587Y-80488717D01*
X146784612Y-80247738D01*
X146784614Y-80247729D01*
X146805141Y-80000005D01*
X150294859Y-80000005D01*
X150315385Y-80247729D01*
X150315387Y-80247738D01*
X150376412Y-80488717D01*
X150476266Y-80716364D01*
X150576564Y-80869882D01*
X151274070Y-80172376D01*
X151276884Y-80185915D01*
X151346442Y-80320156D01*
X151449638Y-80430652D01*
X151578819Y-80509209D01*
X151630002Y-80523549D01*
X150929942Y-81223609D01*
X150976768Y-81260055D01*
X150976770Y-81260056D01*
X151195385Y-81378364D01*
X151195396Y-81378369D01*
X151430506Y-81459083D01*
X151675707Y-81500000D01*
X151924293Y-81500000D01*
X152169493Y-81459083D01*
X152404603Y-81378369D01*
X152404614Y-81378364D01*
X152623228Y-81260057D01*
X152623231Y-81260055D01*
X152670056Y-81223609D01*
X151971568Y-80525121D01*
X152088458Y-80474349D01*
X152205739Y-80378934D01*
X152292928Y-80255415D01*
X152323354Y-80169802D01*
X153023434Y-80869882D01*
X153123731Y-80716369D01*
X153223587Y-80488717D01*
X153284612Y-80247738D01*
X153284614Y-80247729D01*
X153305141Y-80000005D01*
X153305141Y-79999994D01*
X153284614Y-79752270D01*
X153284612Y-79752261D01*
X153223587Y-79511282D01*
X153123731Y-79283630D01*
X153023434Y-79130116D01*
X152325929Y-79827622D01*
X152323116Y-79814085D01*
X152253558Y-79679844D01*
X152150362Y-79569348D01*
X152021181Y-79490791D01*
X151969997Y-79476450D01*
X152670057Y-78776390D01*
X152670056Y-78776389D01*
X152623229Y-78739943D01*
X152404614Y-78621635D01*
X152404603Y-78621630D01*
X152169493Y-78540916D01*
X151924293Y-78500000D01*
X151675707Y-78500000D01*
X151430506Y-78540916D01*
X151195396Y-78621630D01*
X151195390Y-78621632D01*
X150976761Y-78739949D01*
X150929942Y-78776388D01*
X150929942Y-78776390D01*
X151628431Y-79474878D01*
X151511542Y-79525651D01*
X151394261Y-79621066D01*
X151307072Y-79744585D01*
X151276645Y-79830197D01*
X150576564Y-79130116D01*
X150476267Y-79283632D01*
X150376412Y-79511282D01*
X150315387Y-79752261D01*
X150315385Y-79752270D01*
X150294859Y-79999994D01*
X150294859Y-80000005D01*
X146805141Y-80000005D01*
X146805141Y-79999994D01*
X146784614Y-79752270D01*
X146784612Y-79752261D01*
X146723587Y-79511282D01*
X146623731Y-79283630D01*
X146523434Y-79130116D01*
X145825929Y-79827622D01*
X145823116Y-79814085D01*
X145753558Y-79679844D01*
X145650362Y-79569348D01*
X145521181Y-79490791D01*
X145469997Y-79476450D01*
X146170057Y-78776390D01*
X146170056Y-78776389D01*
X146123229Y-78739943D01*
X145904614Y-78621635D01*
X145904603Y-78621630D01*
X145669493Y-78540916D01*
X145424293Y-78500000D01*
X145175707Y-78500000D01*
X144930506Y-78540916D01*
X144695396Y-78621630D01*
X144695390Y-78621632D01*
X144476761Y-78739949D01*
X144429942Y-78776388D01*
X144429942Y-78776390D01*
X145128431Y-79474878D01*
X145011542Y-79525651D01*
X144894261Y-79621066D01*
X144807072Y-79744585D01*
X144776645Y-79830197D01*
X144076564Y-79130116D01*
X143976267Y-79283632D01*
X143876412Y-79511282D01*
X143815387Y-79752261D01*
X143815385Y-79752270D01*
X143794859Y-79999994D01*
X143794859Y-80000005D01*
X139841875Y-80000005D01*
X139840695Y-75500005D01*
X143794357Y-75500005D01*
X143814890Y-75747812D01*
X143814892Y-75747824D01*
X143875936Y-75988881D01*
X143975826Y-76216606D01*
X144111833Y-76424782D01*
X144119334Y-76432930D01*
X144280256Y-76607738D01*
X144476491Y-76760474D01*
X144695190Y-76878828D01*
X144930386Y-76959571D01*
X145175665Y-77000500D01*
X145424335Y-77000500D01*
X145669614Y-76959571D01*
X145904810Y-76878828D01*
X146123509Y-76760474D01*
X146319744Y-76607738D01*
X146488164Y-76424785D01*
X146489905Y-76422121D01*
X146574215Y-76293073D01*
X146624173Y-76216607D01*
X146625379Y-76213858D01*
X146631595Y-76199689D01*
X146676551Y-76146203D01*
X146743287Y-76125514D01*
X146745150Y-76125500D01*
X150354850Y-76125500D01*
X150421889Y-76145185D01*
X150467644Y-76197989D01*
X150468405Y-76199689D01*
X150475824Y-76216603D01*
X150611833Y-76424782D01*
X150619334Y-76432930D01*
X150780256Y-76607738D01*
X150976491Y-76760474D01*
X151195190Y-76878828D01*
X151430386Y-76959571D01*
X151675665Y-77000500D01*
X151924335Y-77000500D01*
X152169614Y-76959571D01*
X152249287Y-76932218D01*
X152319082Y-76929068D01*
X152377229Y-76961819D01*
X153538181Y-78122771D01*
X153571666Y-78184094D01*
X153574500Y-78210452D01*
X153574500Y-91501312D01*
X153554815Y-91568351D01*
X153542650Y-91584284D01*
X153467466Y-91667784D01*
X153372821Y-91831715D01*
X153372818Y-91831722D01*
X153338075Y-91938652D01*
X153314326Y-92011744D01*
X153294540Y-92200000D01*
X153314326Y-92388256D01*
X153314327Y-92388259D01*
X153372818Y-92568277D01*
X153372821Y-92568284D01*
X153467467Y-92732216D01*
X153528076Y-92799529D01*
X153594129Y-92872888D01*
X153747265Y-92984148D01*
X153747270Y-92984151D01*
X153920192Y-93061142D01*
X153920197Y-93061144D01*
X154105354Y-93100500D01*
X154105355Y-93100500D01*
X154294644Y-93100500D01*
X154294646Y-93100500D01*
X154479803Y-93061144D01*
X154652730Y-92984151D01*
X154805871Y-92872888D01*
X154932533Y-92732216D01*
X155027179Y-92568284D01*
X155085674Y-92388256D01*
X155105460Y-92200000D01*
X155085674Y-92011744D01*
X155027179Y-91831716D01*
X154932533Y-91667784D01*
X154906843Y-91639252D01*
X154857350Y-91584284D01*
X154827120Y-91521292D01*
X154825500Y-91501312D01*
X154825500Y-77982742D01*
X154827224Y-77967122D01*
X154826939Y-77967095D01*
X154827673Y-77959333D01*
X154825561Y-77892112D01*
X154825500Y-77888218D01*
X154825500Y-77860656D01*
X154825500Y-77860650D01*
X154824996Y-77856668D01*
X154824081Y-77845029D01*
X154823536Y-77827677D01*
X154822710Y-77801373D01*
X154817119Y-77782130D01*
X154813173Y-77763078D01*
X154810664Y-77743208D01*
X154794579Y-77702583D01*
X154790806Y-77691562D01*
X154778618Y-77649610D01*
X154778617Y-77649609D01*
X154778617Y-77649607D01*
X154778616Y-77649606D01*
X154768423Y-77632371D01*
X154759861Y-77614894D01*
X154752487Y-77596269D01*
X154732592Y-77568887D01*
X154726811Y-77560930D01*
X154720405Y-77551177D01*
X154698170Y-77513580D01*
X154698168Y-77513578D01*
X154698165Y-77513574D01*
X154684006Y-77499415D01*
X154671368Y-77484619D01*
X154659594Y-77468413D01*
X154642842Y-77454555D01*
X154625940Y-77440572D01*
X154617299Y-77432709D01*
X153263660Y-76079070D01*
X153230175Y-76017747D01*
X153231135Y-75960950D01*
X153285108Y-75747821D01*
X153295142Y-75626727D01*
X153320295Y-75561545D01*
X153376697Y-75520306D01*
X153446440Y-75516108D01*
X153506399Y-75549288D01*
X155938181Y-77981070D01*
X155971666Y-78042393D01*
X155974500Y-78068751D01*
X155974500Y-94351312D01*
X155954815Y-94418351D01*
X155942650Y-94434284D01*
X155867466Y-94517784D01*
X155772821Y-94681715D01*
X155772818Y-94681722D01*
X155721903Y-94838424D01*
X155714326Y-94861744D01*
X155694540Y-95050000D01*
X155714326Y-95238256D01*
X155714327Y-95238259D01*
X155772818Y-95418277D01*
X155772821Y-95418284D01*
X155867467Y-95582216D01*
X155936824Y-95659244D01*
X155994129Y-95722888D01*
X156147265Y-95834148D01*
X156147270Y-95834151D01*
X156320192Y-95911142D01*
X156320197Y-95911144D01*
X156505354Y-95950500D01*
X156505355Y-95950500D01*
X156694644Y-95950500D01*
X156694646Y-95950500D01*
X156879803Y-95911144D01*
X157052730Y-95834151D01*
X157205871Y-95722888D01*
X157332533Y-95582216D01*
X157427179Y-95418284D01*
X157485674Y-95238256D01*
X157505460Y-95050000D01*
X157485674Y-94861744D01*
X157427179Y-94681716D01*
X157332533Y-94517784D01*
X157323313Y-94507544D01*
X157257350Y-94434284D01*
X157227120Y-94371292D01*
X157225500Y-94351312D01*
X157225500Y-89009452D01*
X157245185Y-88942413D01*
X157297989Y-88896658D01*
X157367147Y-88886714D01*
X157430703Y-88915739D01*
X157437181Y-88921771D01*
X158804949Y-90289539D01*
X158838434Y-90350862D01*
X158841268Y-90377220D01*
X158841268Y-90490073D01*
X158821583Y-90557112D01*
X158809418Y-90573045D01*
X158734234Y-90656545D01*
X158639589Y-90820476D01*
X158639586Y-90820483D01*
X158595046Y-90957565D01*
X158581094Y-91000505D01*
X158561308Y-91188761D01*
X158581094Y-91377017D01*
X158581095Y-91377020D01*
X158639586Y-91557038D01*
X158639589Y-91557045D01*
X158734235Y-91720977D01*
X158820012Y-91816242D01*
X158860897Y-91861649D01*
X159014033Y-91972909D01*
X159014038Y-91972912D01*
X159186960Y-92049903D01*
X159186965Y-92049905D01*
X159372122Y-92089261D01*
X159372123Y-92089261D01*
X159561412Y-92089261D01*
X159561414Y-92089261D01*
X159746571Y-92049905D01*
X159919498Y-91972912D01*
X160072639Y-91861649D01*
X160199301Y-91720977D01*
X160293947Y-91557045D01*
X160352442Y-91377017D01*
X160372228Y-91188761D01*
X160352442Y-91000505D01*
X160293947Y-90820477D01*
X160199301Y-90656545D01*
X160188496Y-90644545D01*
X160124118Y-90573045D01*
X160093888Y-90510053D01*
X160092268Y-90490073D01*
X160092268Y-90149506D01*
X160093992Y-90133892D01*
X160093706Y-90133865D01*
X160094440Y-90126102D01*
X160092329Y-90058912D01*
X160092268Y-90055018D01*
X160092268Y-90027419D01*
X160092268Y-90027418D01*
X160091765Y-90023438D01*
X160090848Y-90011789D01*
X160089477Y-89968141D01*
X160083890Y-89948912D01*
X160079942Y-89929852D01*
X160077431Y-89909972D01*
X160061356Y-89869372D01*
X160057572Y-89858320D01*
X160045386Y-89816377D01*
X160045384Y-89816374D01*
X160035191Y-89799139D01*
X160026629Y-89781662D01*
X160019255Y-89763037D01*
X159993584Y-89727705D01*
X159987173Y-89717945D01*
X159964938Y-89680348D01*
X159964936Y-89680346D01*
X159964933Y-89680342D01*
X159950774Y-89666183D01*
X159938136Y-89651387D01*
X159926362Y-89635181D01*
X159908915Y-89620748D01*
X159892708Y-89607340D01*
X159884067Y-89599477D01*
X159568827Y-89284237D01*
X159535342Y-89222914D01*
X159540326Y-89153222D01*
X159582198Y-89097289D01*
X159647662Y-89072872D01*
X159656508Y-89072556D01*
X159874290Y-89072556D01*
X159941329Y-89092241D01*
X159966438Y-89113582D01*
X159972164Y-89119941D01*
X159972168Y-89119945D01*
X160125303Y-89231204D01*
X160125308Y-89231207D01*
X160298230Y-89308198D01*
X160298235Y-89308200D01*
X160483392Y-89347556D01*
X160483393Y-89347556D01*
X160672682Y-89347556D01*
X160672684Y-89347556D01*
X160857841Y-89308200D01*
X161030768Y-89231207D01*
X161183909Y-89119944D01*
X161310571Y-88979272D01*
X161405217Y-88815340D01*
X161463712Y-88635312D01*
X161483498Y-88447056D01*
X161463712Y-88258800D01*
X161405217Y-88078772D01*
X161310571Y-87914840D01*
X161183909Y-87774168D01*
X161183908Y-87774167D01*
X161030772Y-87662907D01*
X161030767Y-87662904D01*
X160857845Y-87585913D01*
X160857840Y-87585911D01*
X160712039Y-87554921D01*
X160672684Y-87546556D01*
X160483392Y-87546556D01*
X160450935Y-87553454D01*
X160298235Y-87585911D01*
X160298230Y-87585913D01*
X160125308Y-87662904D01*
X160125303Y-87662907D01*
X159972168Y-87774166D01*
X159972164Y-87774170D01*
X159966438Y-87780530D01*
X159906951Y-87817177D01*
X159874290Y-87821556D01*
X158957509Y-87821556D01*
X158890470Y-87801871D01*
X158869828Y-87785237D01*
X158161819Y-87077228D01*
X158128334Y-87015905D01*
X158125500Y-86989547D01*
X158125500Y-86547870D01*
X158399500Y-86547870D01*
X158399501Y-86547876D01*
X158405908Y-86607483D01*
X158456202Y-86742328D01*
X158456206Y-86742335D01*
X158542452Y-86857544D01*
X158542455Y-86857547D01*
X158657664Y-86943793D01*
X158657671Y-86943797D01*
X158792517Y-86994091D01*
X158792516Y-86994091D01*
X158799444Y-86994835D01*
X158852127Y-87000500D01*
X159947872Y-87000499D01*
X160007483Y-86994091D01*
X160142331Y-86943796D01*
X160257546Y-86857546D01*
X160343796Y-86742331D01*
X160394091Y-86607483D01*
X160400500Y-86547873D01*
X160400499Y-85452128D01*
X160394091Y-85392517D01*
X160343796Y-85257669D01*
X160343795Y-85257668D01*
X160343793Y-85257664D01*
X160257547Y-85142455D01*
X160257544Y-85142452D01*
X160135231Y-85050888D01*
X160136930Y-85048617D01*
X160097743Y-85009435D01*
X160082886Y-84941163D01*
X160107298Y-84875697D01*
X160136311Y-84850556D01*
X160135231Y-84849112D01*
X160215136Y-84789293D01*
X160257546Y-84757546D01*
X160343796Y-84642331D01*
X160394091Y-84507483D01*
X160400500Y-84447873D01*
X160400499Y-83352128D01*
X160394091Y-83292517D01*
X160343796Y-83157669D01*
X160343795Y-83157668D01*
X160343793Y-83157664D01*
X160257547Y-83042455D01*
X160257544Y-83042452D01*
X160142335Y-82956206D01*
X160142328Y-82956202D01*
X160007482Y-82905908D01*
X160007483Y-82905908D01*
X159947883Y-82899501D01*
X159947881Y-82899500D01*
X159947873Y-82899500D01*
X159947864Y-82899500D01*
X158852129Y-82899500D01*
X158852123Y-82899501D01*
X158792516Y-82905908D01*
X158657671Y-82956202D01*
X158657664Y-82956206D01*
X158542455Y-83042452D01*
X158542452Y-83042455D01*
X158456206Y-83157664D01*
X158456202Y-83157671D01*
X158405908Y-83292517D01*
X158399501Y-83352116D01*
X158399501Y-83352123D01*
X158399500Y-83352135D01*
X158399500Y-84447870D01*
X158399501Y-84447876D01*
X158405908Y-84507483D01*
X158456202Y-84642328D01*
X158456206Y-84642335D01*
X158542452Y-84757544D01*
X158542455Y-84757547D01*
X158664769Y-84849112D01*
X158663070Y-84851381D01*
X158702264Y-84890580D01*
X158717111Y-84958854D01*
X158692690Y-85024317D01*
X158663689Y-85049445D01*
X158664769Y-85050888D01*
X158542455Y-85142452D01*
X158542452Y-85142455D01*
X158456206Y-85257664D01*
X158456202Y-85257671D01*
X158405908Y-85392517D01*
X158399501Y-85452116D01*
X158399501Y-85452123D01*
X158399500Y-85452135D01*
X158399500Y-86547870D01*
X158125500Y-86547870D01*
X158125500Y-78350000D01*
X159391056Y-78350000D01*
X159410788Y-78562954D01*
X159410789Y-78562956D01*
X159469315Y-78768654D01*
X159469321Y-78768669D01*
X159564642Y-78960099D01*
X159564647Y-78960107D01*
X159573980Y-78972465D01*
X160152046Y-78394399D01*
X160164835Y-78475148D01*
X160222359Y-78588045D01*
X160311955Y-78677641D01*
X160424852Y-78735165D01*
X160505599Y-78747953D01*
X159930086Y-79323465D01*
X160033413Y-79387443D01*
X160033414Y-79387444D01*
X160232837Y-79464700D01*
X160443068Y-79504000D01*
X160656932Y-79504000D01*
X160867162Y-79464700D01*
X161066585Y-79387444D01*
X161066589Y-79387442D01*
X161169911Y-79323466D01*
X161169911Y-79323465D01*
X160594401Y-78747953D01*
X160675148Y-78735165D01*
X160788045Y-78677641D01*
X160877641Y-78588045D01*
X160935165Y-78475148D01*
X160947953Y-78394400D01*
X161526018Y-78972464D01*
X161526019Y-78972464D01*
X161535352Y-78960107D01*
X161535355Y-78960102D01*
X161630678Y-78768669D01*
X161630684Y-78768654D01*
X161680474Y-78593661D01*
X161717753Y-78534567D01*
X161781063Y-78505010D01*
X161850302Y-78514372D01*
X161903489Y-78559682D01*
X161919006Y-78593661D01*
X161968846Y-78768835D01*
X161968849Y-78768841D01*
X161972608Y-78776390D01*
X162064219Y-78960370D01*
X162193159Y-79131114D01*
X162351278Y-79275258D01*
X162351283Y-79275261D01*
X162351286Y-79275263D01*
X162533186Y-79387891D01*
X162533187Y-79387891D01*
X162533190Y-79387893D01*
X162732703Y-79465185D01*
X162943020Y-79504500D01*
X162943022Y-79504500D01*
X163156978Y-79504500D01*
X163156980Y-79504500D01*
X163367297Y-79465185D01*
X163566810Y-79387893D01*
X163748722Y-79275258D01*
X163906841Y-79131114D01*
X164035781Y-78960370D01*
X164131151Y-78768840D01*
X164152234Y-78694738D01*
X164189512Y-78635648D01*
X164252821Y-78606089D01*
X164322061Y-78615450D01*
X164375248Y-78660759D01*
X164395496Y-78727631D01*
X164395500Y-78728674D01*
X164395500Y-79051869D01*
X164395501Y-79051876D01*
X164401908Y-79111483D01*
X164452202Y-79246328D01*
X164452206Y-79246335D01*
X164538452Y-79361544D01*
X164538455Y-79361547D01*
X164653664Y-79447793D01*
X164653671Y-79447797D01*
X164788517Y-79498091D01*
X164788516Y-79498091D01*
X164795444Y-79498835D01*
X164848127Y-79504500D01*
X166251872Y-79504499D01*
X166311483Y-79498091D01*
X166446331Y-79447796D01*
X166561546Y-79361546D01*
X166647796Y-79246331D01*
X166698091Y-79111483D01*
X166704500Y-79051873D01*
X166704499Y-77648128D01*
X166698091Y-77588517D01*
X166690769Y-77568887D01*
X166647797Y-77453671D01*
X166647793Y-77453664D01*
X166561547Y-77338455D01*
X166561544Y-77338452D01*
X166446335Y-77252206D01*
X166446328Y-77252202D01*
X166311482Y-77201908D01*
X166311483Y-77201908D01*
X166251883Y-77195501D01*
X166251881Y-77195500D01*
X166251873Y-77195500D01*
X166251864Y-77195500D01*
X164848129Y-77195500D01*
X164848123Y-77195501D01*
X164788516Y-77201908D01*
X164653671Y-77252202D01*
X164653664Y-77252206D01*
X164538455Y-77338452D01*
X164538452Y-77338455D01*
X164452206Y-77453664D01*
X164452202Y-77453671D01*
X164401908Y-77588517D01*
X164397194Y-77632371D01*
X164395501Y-77648123D01*
X164395500Y-77648135D01*
X164395500Y-77971323D01*
X164375815Y-78038362D01*
X164323011Y-78084117D01*
X164253853Y-78094061D01*
X164190297Y-78065036D01*
X164152523Y-78006258D01*
X164152234Y-78005257D01*
X164131153Y-77931164D01*
X164131150Y-77931158D01*
X164035781Y-77739630D01*
X163906841Y-77568886D01*
X163748722Y-77424742D01*
X163748716Y-77424738D01*
X163748713Y-77424736D01*
X163566813Y-77312108D01*
X163566807Y-77312106D01*
X163367297Y-77234815D01*
X163156980Y-77195500D01*
X162943020Y-77195500D01*
X162732703Y-77234815D01*
X162647944Y-77267651D01*
X162533192Y-77312106D01*
X162533186Y-77312108D01*
X162351286Y-77424736D01*
X162351283Y-77424738D01*
X162351279Y-77424740D01*
X162351278Y-77424742D01*
X162253834Y-77513574D01*
X162193158Y-77568887D01*
X162064219Y-77739629D01*
X161968849Y-77931158D01*
X161968846Y-77931164D01*
X161919006Y-78106338D01*
X161881727Y-78165431D01*
X161818418Y-78194989D01*
X161749178Y-78185627D01*
X161695991Y-78140317D01*
X161680474Y-78106338D01*
X161630684Y-77931345D01*
X161630678Y-77931330D01*
X161535357Y-77739901D01*
X161535355Y-77739898D01*
X161526018Y-77727534D01*
X160947953Y-78305599D01*
X160935165Y-78224852D01*
X160877641Y-78111955D01*
X160788045Y-78022359D01*
X160675148Y-77964835D01*
X160594400Y-77952046D01*
X161169912Y-77376533D01*
X161066586Y-77312556D01*
X161066585Y-77312555D01*
X160867162Y-77235299D01*
X160656932Y-77196000D01*
X160443068Y-77196000D01*
X160232837Y-77235299D01*
X160033416Y-77312554D01*
X160033410Y-77312557D01*
X159930087Y-77376532D01*
X159930086Y-77376533D01*
X160505600Y-77952046D01*
X160424852Y-77964835D01*
X160311955Y-78022359D01*
X160222359Y-78111955D01*
X160164835Y-78224852D01*
X160152046Y-78305599D01*
X159573980Y-77727533D01*
X159564646Y-77739893D01*
X159469321Y-77931330D01*
X159469315Y-77931345D01*
X159410789Y-78137043D01*
X159410788Y-78137045D01*
X159391056Y-78349999D01*
X159391056Y-78350000D01*
X158125500Y-78350000D01*
X158125500Y-77468244D01*
X158127224Y-77452630D01*
X158126938Y-77452603D01*
X158127672Y-77444840D01*
X158125561Y-77377651D01*
X158125500Y-77373757D01*
X158125500Y-77346158D01*
X158125500Y-77346157D01*
X158124997Y-77342177D01*
X158124080Y-77330528D01*
X158122709Y-77286880D01*
X158117122Y-77267651D01*
X158113174Y-77248591D01*
X158110664Y-77228715D01*
X158094585Y-77188104D01*
X158090804Y-77177059D01*
X158078619Y-77135119D01*
X158068418Y-77117870D01*
X158059860Y-77100401D01*
X158052486Y-77081775D01*
X158052483Y-77081771D01*
X158052483Y-77081770D01*
X158026816Y-77046442D01*
X158020403Y-77036679D01*
X157998172Y-76999090D01*
X157998170Y-76999086D01*
X157998166Y-76999082D01*
X157998163Y-76999078D01*
X157984005Y-76984920D01*
X157971370Y-76970127D01*
X157959593Y-76953919D01*
X157925945Y-76926083D01*
X157917304Y-76918220D01*
X156961819Y-75962735D01*
X156928334Y-75901412D01*
X156925500Y-75875054D01*
X156925500Y-71874499D01*
X156945185Y-71807460D01*
X156997989Y-71761705D01*
X157049500Y-71750499D01*
X158447871Y-71750499D01*
X158447872Y-71750499D01*
X158507483Y-71744091D01*
X158642331Y-71693796D01*
X158757546Y-71607546D01*
X158843796Y-71492331D01*
X158894091Y-71357483D01*
X158900500Y-71297873D01*
X158900499Y-69524499D01*
X158920184Y-69457461D01*
X158972987Y-69411706D01*
X159024499Y-69400500D01*
X161058600Y-69400500D01*
X161125639Y-69420185D01*
X161171394Y-69472989D01*
X161181338Y-69542147D01*
X161160175Y-69595624D01*
X161106398Y-69672424D01*
X161006570Y-69886507D01*
X161006567Y-69886513D01*
X160949364Y-70099999D01*
X160949364Y-70100000D01*
X161846314Y-70100000D01*
X161820507Y-70140156D01*
X161780000Y-70278111D01*
X161780000Y-70421889D01*
X161820507Y-70559844D01*
X161846314Y-70600000D01*
X160949364Y-70600000D01*
X161006567Y-70813486D01*
X161006570Y-70813492D01*
X161106399Y-71027578D01*
X161241894Y-71221082D01*
X161408917Y-71388105D01*
X161602421Y-71523600D01*
X161816507Y-71623429D01*
X161816516Y-71623433D01*
X162030000Y-71680634D01*
X162030000Y-70785501D01*
X162137685Y-70834680D01*
X162244237Y-70850000D01*
X162315763Y-70850000D01*
X162422315Y-70834680D01*
X162530000Y-70785501D01*
X162530000Y-71680633D01*
X162743483Y-71623433D01*
X162743492Y-71623429D01*
X162957578Y-71523600D01*
X163151082Y-71388105D01*
X163318105Y-71221082D01*
X163448119Y-71035405D01*
X163502696Y-70991781D01*
X163572195Y-70984588D01*
X163634549Y-71016110D01*
X163651269Y-71035405D01*
X163781505Y-71221401D01*
X163781506Y-71221402D01*
X163948595Y-71388492D01*
X163948598Y-71388494D01*
X163948599Y-71388495D01*
X164016623Y-71436125D01*
X164060248Y-71490701D01*
X164069500Y-71537700D01*
X164069500Y-71816589D01*
X164068191Y-71834558D01*
X164064710Y-71858320D01*
X164069028Y-71907663D01*
X164069500Y-71918471D01*
X164069500Y-71924006D01*
X164073098Y-71954790D01*
X164073464Y-71958378D01*
X164080000Y-72033086D01*
X164081461Y-72040162D01*
X164081403Y-72040173D01*
X164083034Y-72047532D01*
X164083092Y-72047519D01*
X164084757Y-72054544D01*
X164110400Y-72125000D01*
X164111582Y-72128402D01*
X164135182Y-72199621D01*
X164138236Y-72206169D01*
X164138182Y-72206193D01*
X164141470Y-72212983D01*
X164141521Y-72212958D01*
X164144761Y-72219409D01*
X164185979Y-72282079D01*
X164187889Y-72285077D01*
X164196457Y-72298966D01*
X164227289Y-72348953D01*
X164231766Y-72354614D01*
X164231719Y-72354651D01*
X164236482Y-72360497D01*
X164236528Y-72360459D01*
X164241168Y-72365988D01*
X164241170Y-72365991D01*
X164291278Y-72413266D01*
X164295708Y-72417445D01*
X164298296Y-72419959D01*
X165662157Y-73783819D01*
X165695642Y-73845142D01*
X165690658Y-73914834D01*
X165648786Y-73970767D01*
X165583322Y-73995184D01*
X165574476Y-73995500D01*
X165443020Y-73995500D01*
X165232703Y-74034815D01*
X165157851Y-74063813D01*
X165033192Y-74112106D01*
X165033186Y-74112108D01*
X164851286Y-74224736D01*
X164851283Y-74224738D01*
X164851279Y-74224740D01*
X164851278Y-74224742D01*
X164693159Y-74368886D01*
X164693158Y-74368887D01*
X164564219Y-74539629D01*
X164468849Y-74731158D01*
X164468846Y-74731164D01*
X164419266Y-74905424D01*
X164381987Y-74964517D01*
X164318678Y-74994075D01*
X164249438Y-74984713D01*
X164196251Y-74939403D01*
X164180734Y-74905424D01*
X164131153Y-74731164D01*
X164131150Y-74731158D01*
X164049803Y-74567791D01*
X164035781Y-74539630D01*
X163906841Y-74368886D01*
X163748722Y-74224742D01*
X163748716Y-74224738D01*
X163748713Y-74224736D01*
X163566813Y-74112108D01*
X163566807Y-74112106D01*
X163367297Y-74034815D01*
X163156980Y-73995500D01*
X162943020Y-73995500D01*
X162732703Y-74034815D01*
X162657851Y-74063813D01*
X162533192Y-74112106D01*
X162533186Y-74112108D01*
X162351286Y-74224736D01*
X162351283Y-74224738D01*
X162351279Y-74224740D01*
X162351278Y-74224742D01*
X162193159Y-74368886D01*
X162193158Y-74368887D01*
X162064219Y-74539629D01*
X161968849Y-74731158D01*
X161968846Y-74731164D01*
X161919266Y-74905424D01*
X161881987Y-74964517D01*
X161818678Y-74994075D01*
X161749438Y-74984713D01*
X161696251Y-74939403D01*
X161680734Y-74905424D01*
X161631153Y-74731164D01*
X161631150Y-74731158D01*
X161549803Y-74567791D01*
X161535781Y-74539630D01*
X161406841Y-74368886D01*
X161248722Y-74224742D01*
X161248716Y-74224738D01*
X161248713Y-74224736D01*
X161066813Y-74112108D01*
X161066807Y-74112106D01*
X160867297Y-74034815D01*
X160656980Y-73995500D01*
X160443020Y-73995500D01*
X160232703Y-74034815D01*
X160157851Y-74063813D01*
X160033192Y-74112106D01*
X160033186Y-74112108D01*
X159851286Y-74224736D01*
X159851283Y-74224738D01*
X159851279Y-74224740D01*
X159851278Y-74224742D01*
X159693159Y-74368886D01*
X159693158Y-74368887D01*
X159564219Y-74539629D01*
X159468849Y-74731158D01*
X159468846Y-74731164D01*
X159410296Y-74936949D01*
X159410295Y-74936952D01*
X159390554Y-75149999D01*
X159390554Y-75150000D01*
X159410295Y-75363047D01*
X159410296Y-75363050D01*
X159468846Y-75568835D01*
X159468849Y-75568841D01*
X159500408Y-75632220D01*
X159564219Y-75760370D01*
X159693159Y-75931114D01*
X159851278Y-76075258D01*
X159851283Y-76075261D01*
X159851286Y-76075263D01*
X160033186Y-76187891D01*
X160033187Y-76187891D01*
X160033190Y-76187893D01*
X160232703Y-76265185D01*
X160443020Y-76304500D01*
X160443022Y-76304500D01*
X160656978Y-76304500D01*
X160656980Y-76304500D01*
X160867297Y-76265185D01*
X161066810Y-76187893D01*
X161248722Y-76075258D01*
X161406841Y-75931114D01*
X161535781Y-75760370D01*
X161631151Y-75568840D01*
X161631151Y-75568837D01*
X161631153Y-75568835D01*
X161680734Y-75394575D01*
X161718013Y-75335482D01*
X161781322Y-75305924D01*
X161850562Y-75315286D01*
X161903748Y-75360595D01*
X161919266Y-75394575D01*
X161968846Y-75568835D01*
X161968849Y-75568841D01*
X162000408Y-75632220D01*
X162064219Y-75760370D01*
X162193159Y-75931114D01*
X162351278Y-76075258D01*
X162351283Y-76075261D01*
X162351286Y-76075263D01*
X162533186Y-76187891D01*
X162533187Y-76187891D01*
X162533190Y-76187893D01*
X162732703Y-76265185D01*
X162943020Y-76304500D01*
X162943022Y-76304500D01*
X163156978Y-76304500D01*
X163156980Y-76304500D01*
X163367297Y-76265185D01*
X163566810Y-76187893D01*
X163748722Y-76075258D01*
X163906841Y-75931114D01*
X164035781Y-75760370D01*
X164131151Y-75568840D01*
X164131151Y-75568837D01*
X164131153Y-75568835D01*
X164180734Y-75394575D01*
X164218013Y-75335482D01*
X164281322Y-75305924D01*
X164350562Y-75315286D01*
X164403748Y-75360595D01*
X164419266Y-75394575D01*
X164468846Y-75568835D01*
X164468849Y-75568841D01*
X164500408Y-75632220D01*
X164564219Y-75760370D01*
X164693159Y-75931114D01*
X164851278Y-76075258D01*
X164851283Y-76075261D01*
X164851286Y-76075263D01*
X165033186Y-76187891D01*
X165033187Y-76187891D01*
X165033190Y-76187893D01*
X165232703Y-76265185D01*
X165443020Y-76304500D01*
X165443022Y-76304500D01*
X165656978Y-76304500D01*
X165656980Y-76304500D01*
X165867297Y-76265185D01*
X166066810Y-76187893D01*
X166248722Y-76075258D01*
X166406841Y-75931114D01*
X166535781Y-75760370D01*
X166631151Y-75568840D01*
X166631151Y-75568837D01*
X166631153Y-75568835D01*
X166664679Y-75451000D01*
X166689704Y-75363048D01*
X166709446Y-75150000D01*
X166708566Y-75140506D01*
X166721977Y-75071938D01*
X166770331Y-75021503D01*
X166838276Y-75005217D01*
X166904240Y-75028250D01*
X166919717Y-75041379D01*
X168613181Y-76734843D01*
X168646666Y-76796166D01*
X168649500Y-76822524D01*
X168649500Y-77765677D01*
X168632887Y-77827677D01*
X168572821Y-77931714D01*
X168514327Y-78111740D01*
X168514326Y-78111744D01*
X168494540Y-78300000D01*
X168514326Y-78488256D01*
X168514327Y-78488259D01*
X168572818Y-78668277D01*
X168572821Y-78668284D01*
X168630778Y-78768669D01*
X168632887Y-78772321D01*
X168649500Y-78834321D01*
X168649500Y-86579288D01*
X168629815Y-86646327D01*
X168577011Y-86692082D01*
X168507853Y-86702026D01*
X168499723Y-86700579D01*
X168494646Y-86699500D01*
X168494642Y-86699500D01*
X168305350Y-86699500D01*
X168272893Y-86706398D01*
X168120193Y-86738855D01*
X168120188Y-86738857D01*
X167947266Y-86815848D01*
X167947261Y-86815851D01*
X167794131Y-86927106D01*
X167794124Y-86927112D01*
X167736950Y-86990610D01*
X167690453Y-87022927D01*
X167684133Y-87025429D01*
X167684126Y-87025433D01*
X167647201Y-87052260D01*
X167637442Y-87058671D01*
X167598132Y-87081920D01*
X167583126Y-87096926D01*
X167568336Y-87109558D01*
X167551167Y-87122032D01*
X167551165Y-87122034D01*
X167522056Y-87157219D01*
X167514196Y-87165856D01*
X164608745Y-90071307D01*
X164547422Y-90104792D01*
X164477730Y-90099808D01*
X164421797Y-90057936D01*
X164397744Y-89996591D01*
X164385674Y-89881744D01*
X164327179Y-89701716D01*
X164232533Y-89537784D01*
X164105871Y-89397112D01*
X164105870Y-89397111D01*
X163952734Y-89285851D01*
X163952729Y-89285848D01*
X163779807Y-89208857D01*
X163779802Y-89208855D01*
X163634001Y-89177865D01*
X163594646Y-89169500D01*
X163405354Y-89169500D01*
X163372897Y-89176398D01*
X163220197Y-89208855D01*
X163220192Y-89208857D01*
X163047270Y-89285848D01*
X163047265Y-89285851D01*
X162894129Y-89397111D01*
X162767466Y-89537785D01*
X162672821Y-89701715D01*
X162672819Y-89701719D01*
X162617479Y-89872039D01*
X162587229Y-89921401D01*
X161964358Y-90544272D01*
X161950729Y-90556051D01*
X161931469Y-90570390D01*
X161899632Y-90608331D01*
X161892346Y-90616284D01*
X161888407Y-90620224D01*
X161869176Y-90644545D01*
X161866902Y-90647337D01*
X161818694Y-90704790D01*
X161814729Y-90710819D01*
X161814682Y-90710788D01*
X161810630Y-90717147D01*
X161810679Y-90717177D01*
X161806889Y-90723321D01*
X161775192Y-90791294D01*
X161773623Y-90794536D01*
X161739957Y-90861572D01*
X161737488Y-90868357D01*
X161737432Y-90868336D01*
X161734960Y-90875450D01*
X161735015Y-90875469D01*
X161732743Y-90882325D01*
X161717573Y-90955788D01*
X161716793Y-90959304D01*
X161699499Y-91032279D01*
X161698661Y-91039454D01*
X161698601Y-91039447D01*
X161697835Y-91046945D01*
X161697895Y-91046951D01*
X161697265Y-91054140D01*
X161699448Y-91129128D01*
X161699500Y-91132735D01*
X161699500Y-99036251D01*
X161698191Y-99054220D01*
X161694710Y-99077982D01*
X161699028Y-99127325D01*
X161699500Y-99138133D01*
X161699500Y-99143668D01*
X161703098Y-99174452D01*
X161703464Y-99178040D01*
X161710000Y-99252748D01*
X161711461Y-99259824D01*
X161711403Y-99259835D01*
X161713034Y-99267194D01*
X161713092Y-99267181D01*
X161714757Y-99274206D01*
X161714758Y-99274211D01*
X161714759Y-99274212D01*
X161724917Y-99302123D01*
X161740400Y-99344662D01*
X161741582Y-99348064D01*
X161765182Y-99419283D01*
X161768236Y-99425831D01*
X161768182Y-99425856D01*
X161771469Y-99432646D01*
X161771521Y-99432621D01*
X161774759Y-99439068D01*
X161792880Y-99466619D01*
X161812600Y-99521795D01*
X161814325Y-99538210D01*
X161814326Y-99538214D01*
X161872818Y-99718234D01*
X161872821Y-99718241D01*
X161967467Y-99882173D01*
X162057096Y-99981716D01*
X162094129Y-100022845D01*
X162247265Y-100134105D01*
X162247270Y-100134108D01*
X162420191Y-100211099D01*
X162420194Y-100211099D01*
X162420197Y-100211101D01*
X162454221Y-100218332D01*
X162485329Y-100224945D01*
X162546811Y-100258137D01*
X162547221Y-100258545D01*
X162881003Y-100592328D01*
X163124312Y-100835637D01*
X163136092Y-100849268D01*
X163150432Y-100868530D01*
X163150435Y-100868532D01*
X163188379Y-100900371D01*
X163196355Y-100907680D01*
X163200261Y-100911586D01*
X163224587Y-100930821D01*
X163227383Y-100933099D01*
X163255105Y-100956360D01*
X163284829Y-100981302D01*
X163284837Y-100981306D01*
X163290867Y-100985273D01*
X163290833Y-100985323D01*
X163297180Y-100989366D01*
X163297212Y-100989316D01*
X163303364Y-100993110D01*
X163371337Y-101024806D01*
X163374553Y-101026362D01*
X163441610Y-101060040D01*
X163441619Y-101060042D01*
X163448398Y-101062510D01*
X163448377Y-101062567D01*
X163455494Y-101065040D01*
X163455513Y-101064984D01*
X163462367Y-101067255D01*
X163462368Y-101067255D01*
X163462370Y-101067256D01*
X163535891Y-101082436D01*
X163539252Y-101083181D01*
X163612322Y-101100500D01*
X163612328Y-101100500D01*
X163619495Y-101101338D01*
X163619488Y-101101397D01*
X163626989Y-101102163D01*
X163626995Y-101102104D01*
X163634184Y-101102733D01*
X163634186Y-101102732D01*
X163634187Y-101102733D01*
X163709154Y-101100552D01*
X163712760Y-101100500D01*
X169910663Y-101100500D01*
X169977702Y-101120185D01*
X169983548Y-101124182D01*
X169997265Y-101134148D01*
X169997270Y-101134151D01*
X170170192Y-101211142D01*
X170170197Y-101211144D01*
X170355354Y-101250500D01*
X170355355Y-101250500D01*
X170544644Y-101250500D01*
X170544646Y-101250500D01*
X170729803Y-101211144D01*
X170902730Y-101134151D01*
X171055871Y-101022888D01*
X171182533Y-100882216D01*
X171277179Y-100718284D01*
X171335674Y-100538256D01*
X171355460Y-100350000D01*
X171335674Y-100161744D01*
X171277179Y-99981716D01*
X171182533Y-99817784D01*
X171055871Y-99677112D01*
X171055870Y-99677111D01*
X170902734Y-99565851D01*
X170902729Y-99565848D01*
X170729807Y-99488857D01*
X170729802Y-99488855D01*
X170584001Y-99457865D01*
X170544646Y-99449500D01*
X170355354Y-99449500D01*
X170322897Y-99456398D01*
X170170197Y-99488855D01*
X170170192Y-99488857D01*
X169997270Y-99565848D01*
X169997265Y-99565851D01*
X169983548Y-99575818D01*
X169917742Y-99599298D01*
X169910663Y-99599500D01*
X164062272Y-99599500D01*
X163995233Y-99579815D01*
X163974591Y-99563181D01*
X163612770Y-99201359D01*
X163582521Y-99151998D01*
X163544913Y-99036251D01*
X163527181Y-98981678D01*
X163527178Y-98981672D01*
X163486459Y-98911144D01*
X163432533Y-98817741D01*
X163347127Y-98722888D01*
X163305876Y-98677073D01*
X163305871Y-98677069D01*
X163251613Y-98637647D01*
X163208948Y-98582316D01*
X163200500Y-98537330D01*
X163200500Y-94774499D01*
X163220185Y-94707460D01*
X163272989Y-94661705D01*
X163324500Y-94650499D01*
X163947871Y-94650499D01*
X163947872Y-94650499D01*
X164007483Y-94644091D01*
X164142331Y-94593796D01*
X164257546Y-94507546D01*
X164325734Y-94416457D01*
X164381667Y-94374588D01*
X164451359Y-94369604D01*
X164512682Y-94403089D01*
X164524261Y-94416452D01*
X164592454Y-94507546D01*
X164638643Y-94542123D01*
X164707664Y-94593793D01*
X164707671Y-94593797D01*
X164842517Y-94644091D01*
X164842516Y-94644091D01*
X164849444Y-94644835D01*
X164902127Y-94650500D01*
X165997872Y-94650499D01*
X166057483Y-94644091D01*
X166192331Y-94593796D01*
X166307546Y-94507546D01*
X166393796Y-94392331D01*
X166444091Y-94257483D01*
X166450500Y-94197873D01*
X166450499Y-93102128D01*
X166444091Y-93042517D01*
X166423947Y-92988509D01*
X166393797Y-92907671D01*
X166393793Y-92907664D01*
X166307547Y-92792455D01*
X166307544Y-92792452D01*
X166192335Y-92706206D01*
X166192332Y-92706205D01*
X166192331Y-92706204D01*
X166181161Y-92702038D01*
X166125231Y-92660166D01*
X166100816Y-92594701D01*
X166100500Y-92585858D01*
X166100500Y-92470814D01*
X166120185Y-92403775D01*
X166136819Y-92383133D01*
X168383134Y-90136818D01*
X168444457Y-90103333D01*
X168470815Y-90100499D01*
X168494650Y-90100499D01*
X168494653Y-90100499D01*
X168499719Y-90099422D01*
X168569384Y-90104737D01*
X168625119Y-90146873D01*
X168649225Y-90212453D01*
X168649500Y-90220712D01*
X168649500Y-96936294D01*
X168648191Y-96954263D01*
X168644710Y-96978025D01*
X168649028Y-97027368D01*
X168649500Y-97038176D01*
X168649500Y-97043711D01*
X168653098Y-97074495D01*
X168653464Y-97078083D01*
X168660000Y-97152791D01*
X168661461Y-97159867D01*
X168661403Y-97159878D01*
X168663034Y-97167237D01*
X168663092Y-97167224D01*
X168664757Y-97174249D01*
X168664758Y-97174254D01*
X168664759Y-97174255D01*
X168670073Y-97188857D01*
X168690400Y-97244705D01*
X168691582Y-97248107D01*
X168715182Y-97319326D01*
X168718236Y-97325874D01*
X168718182Y-97325898D01*
X168721470Y-97332688D01*
X168721521Y-97332663D01*
X168724761Y-97339114D01*
X168765979Y-97401784D01*
X168767889Y-97404782D01*
X168798972Y-97455174D01*
X168807289Y-97468658D01*
X168811766Y-97474319D01*
X168811719Y-97474355D01*
X168816483Y-97480202D01*
X168816529Y-97480164D01*
X168821164Y-97485687D01*
X168821170Y-97485696D01*
X168855182Y-97517784D01*
X168875710Y-97537151D01*
X168878298Y-97539665D01*
X169537228Y-98198595D01*
X169567478Y-98247958D01*
X169622818Y-98418277D01*
X169622821Y-98418284D01*
X169717467Y-98582216D01*
X169802877Y-98677073D01*
X169844129Y-98722888D01*
X169997265Y-98834148D01*
X169997270Y-98834151D01*
X170170192Y-98911142D01*
X170170197Y-98911144D01*
X170355354Y-98950500D01*
X170355355Y-98950500D01*
X170544644Y-98950500D01*
X170544646Y-98950500D01*
X170729803Y-98911144D01*
X170902730Y-98834151D01*
X171055871Y-98722888D01*
X171182533Y-98582216D01*
X171277179Y-98418284D01*
X171335674Y-98238256D01*
X171355460Y-98050000D01*
X171335674Y-97861744D01*
X171277179Y-97681716D01*
X171182533Y-97517784D01*
X171055871Y-97377112D01*
X171055870Y-97377111D01*
X170902734Y-97265851D01*
X170902729Y-97265848D01*
X170729807Y-97188857D01*
X170729803Y-97188856D01*
X170664669Y-97175011D01*
X170603188Y-97141818D01*
X170602770Y-97141402D01*
X170186819Y-96725451D01*
X170153334Y-96664128D01*
X170150500Y-96637770D01*
X170150500Y-78834321D01*
X170167113Y-78772321D01*
X170169126Y-78768835D01*
X170227179Y-78668284D01*
X170285674Y-78488256D01*
X170305460Y-78300000D01*
X170285674Y-78111744D01*
X170227179Y-77931716D01*
X170186151Y-77860653D01*
X170167113Y-77827677D01*
X170150500Y-77765677D01*
X170150500Y-76524000D01*
X170151809Y-76506030D01*
X170155289Y-76482269D01*
X170150972Y-76432930D01*
X170150500Y-76422121D01*
X170150500Y-76416591D01*
X170150500Y-76416586D01*
X170146894Y-76385738D01*
X170146534Y-76382211D01*
X170139999Y-76307504D01*
X170138538Y-76300430D01*
X170138598Y-76300417D01*
X170136966Y-76293059D01*
X170136908Y-76293073D01*
X170135242Y-76286045D01*
X170135241Y-76286043D01*
X170135241Y-76286040D01*
X170109567Y-76215501D01*
X170108420Y-76212203D01*
X170084814Y-76140961D01*
X170084811Y-76140957D01*
X170081762Y-76134416D01*
X170081815Y-76134390D01*
X170078531Y-76127606D01*
X170078479Y-76127633D01*
X170075236Y-76121177D01*
X170034025Y-76058517D01*
X170032088Y-76055476D01*
X169992714Y-75991642D01*
X169988234Y-75985976D01*
X169988280Y-75985938D01*
X169983519Y-75980094D01*
X169983474Y-75980133D01*
X169978834Y-75974603D01*
X169978830Y-75974599D01*
X169978577Y-75974360D01*
X169978455Y-75974152D01*
X169974189Y-75969068D01*
X169975058Y-75968338D01*
X169943325Y-75914038D01*
X169946282Y-75844231D01*
X169986510Y-75787104D01*
X169990752Y-75783878D01*
X170005871Y-75772894D01*
X170132533Y-75632222D01*
X170227179Y-75468290D01*
X170285674Y-75288262D01*
X170305460Y-75100006D01*
X170285674Y-74911750D01*
X170227179Y-74731722D01*
X170132533Y-74567790D01*
X170005871Y-74427118D01*
X169957896Y-74392262D01*
X169852734Y-74315857D01*
X169852729Y-74315854D01*
X169679807Y-74238863D01*
X169679802Y-74238861D01*
X169534001Y-74207871D01*
X169494646Y-74199506D01*
X169494645Y-74199506D01*
X169435453Y-74199506D01*
X169368414Y-74179821D01*
X169347772Y-74163187D01*
X169261819Y-74077234D01*
X169228334Y-74015911D01*
X169225500Y-73989553D01*
X169225500Y-71824499D01*
X169245185Y-71757460D01*
X169297989Y-71711705D01*
X169349500Y-71700499D01*
X170797871Y-71700499D01*
X170797872Y-71700499D01*
X170857483Y-71694091D01*
X170992331Y-71643796D01*
X171107546Y-71557546D01*
X171193796Y-71442331D01*
X171244091Y-71307483D01*
X171250500Y-71247873D01*
X171250499Y-69452128D01*
X171244091Y-69392517D01*
X171232668Y-69361891D01*
X171193797Y-69257671D01*
X171193793Y-69257664D01*
X171107547Y-69142455D01*
X171107544Y-69142452D01*
X170992335Y-69056206D01*
X170992328Y-69056202D01*
X170857482Y-69005908D01*
X170857483Y-69005908D01*
X170797883Y-68999501D01*
X170797881Y-68999500D01*
X170797873Y-68999500D01*
X170797864Y-68999500D01*
X169002129Y-68999500D01*
X169002123Y-68999501D01*
X168942516Y-69005908D01*
X168807671Y-69056202D01*
X168799890Y-69060452D01*
X168798448Y-69057812D01*
X168747070Y-69076970D01*
X168678799Y-69062111D01*
X168650556Y-69040966D01*
X168000803Y-68391212D01*
X167990980Y-68378950D01*
X167990759Y-68379134D01*
X167985786Y-68373122D01*
X167936776Y-68327099D01*
X167933977Y-68324386D01*
X167914477Y-68304885D01*
X167914471Y-68304880D01*
X167911286Y-68302409D01*
X167902434Y-68294848D01*
X167870582Y-68264938D01*
X167870580Y-68264936D01*
X167870577Y-68264935D01*
X167853029Y-68255288D01*
X167836763Y-68244604D01*
X167820932Y-68232324D01*
X167780849Y-68214978D01*
X167770363Y-68209841D01*
X167732094Y-68188803D01*
X167732092Y-68188802D01*
X167712693Y-68183822D01*
X167694281Y-68177518D01*
X167675898Y-68169562D01*
X167675892Y-68169560D01*
X167632760Y-68162729D01*
X167621322Y-68160361D01*
X167579020Y-68149500D01*
X167579019Y-68149500D01*
X167558984Y-68149500D01*
X167539586Y-68147973D01*
X167532162Y-68146797D01*
X167519805Y-68144840D01*
X167519804Y-68144840D01*
X167476325Y-68148950D01*
X167464656Y-68149500D01*
X152307743Y-68149500D01*
X152292122Y-68147775D01*
X152292096Y-68148061D01*
X152284334Y-68147327D01*
X152284333Y-68147327D01*
X152232688Y-68148950D01*
X152217127Y-68149439D01*
X152213232Y-68149500D01*
X152185647Y-68149500D01*
X152181661Y-68150003D01*
X152170033Y-68150918D01*
X152126373Y-68152290D01*
X152107129Y-68157881D01*
X152088079Y-68161825D01*
X152068211Y-68164334D01*
X152068210Y-68164334D01*
X152027599Y-68180413D01*
X152016554Y-68184194D01*
X151974614Y-68196379D01*
X151974610Y-68196381D01*
X151957366Y-68206579D01*
X151939905Y-68215133D01*
X151921274Y-68222510D01*
X151921262Y-68222517D01*
X151885933Y-68248185D01*
X151876173Y-68254596D01*
X151838580Y-68276829D01*
X151824414Y-68290995D01*
X151809624Y-68303627D01*
X151793414Y-68315404D01*
X151793411Y-68315407D01*
X151765573Y-68349058D01*
X151757711Y-68357697D01*
X150846678Y-69268729D01*
X150785355Y-69302214D01*
X150715663Y-69297230D01*
X150687873Y-69282623D01*
X150607578Y-69226400D01*
X150393492Y-69126570D01*
X150393486Y-69126567D01*
X150180000Y-69069364D01*
X150180000Y-69964498D01*
X150072315Y-69915320D01*
X149965763Y-69900000D01*
X149894237Y-69900000D01*
X149787685Y-69915320D01*
X149680000Y-69964498D01*
X149680000Y-69069364D01*
X149679999Y-69069364D01*
X149466513Y-69126567D01*
X149466507Y-69126570D01*
X149252422Y-69226399D01*
X149252420Y-69226400D01*
X149058926Y-69361886D01*
X149058920Y-69361891D01*
X148891891Y-69528920D01*
X148891886Y-69528926D01*
X148756400Y-69722420D01*
X148756399Y-69722422D01*
X148656570Y-69936507D01*
X148656567Y-69936513D01*
X148599364Y-70149999D01*
X148599364Y-70150000D01*
X149496314Y-70150000D01*
X149470507Y-70190156D01*
X149430000Y-70328111D01*
X149430000Y-70471889D01*
X149470507Y-70609844D01*
X149496314Y-70650000D01*
X148599364Y-70650000D01*
X148656567Y-70863486D01*
X148656570Y-70863492D01*
X148756399Y-71077578D01*
X148891894Y-71271082D01*
X149058917Y-71438105D01*
X149252421Y-71573600D01*
X149466507Y-71673429D01*
X149466516Y-71673433D01*
X149680000Y-71730634D01*
X149680000Y-70835501D01*
X149787685Y-70884680D01*
X149894237Y-70900000D01*
X149965763Y-70900000D01*
X150072315Y-70884680D01*
X150180000Y-70835501D01*
X150180000Y-71730633D01*
X150393483Y-71673433D01*
X150393486Y-71673432D01*
X150398086Y-71671287D01*
X150467163Y-71660790D01*
X150530949Y-71689304D01*
X150569193Y-71747778D01*
X150574500Y-71783665D01*
X150574500Y-72275554D01*
X150572775Y-72291171D01*
X150573061Y-72291198D01*
X150572326Y-72298964D01*
X150574439Y-72366171D01*
X150574500Y-72370066D01*
X150574500Y-72397656D01*
X150575003Y-72401634D01*
X150575918Y-72413266D01*
X150577290Y-72456923D01*
X150577291Y-72456926D01*
X150582880Y-72476166D01*
X150586824Y-72495210D01*
X150589336Y-72515091D01*
X150605414Y-72555702D01*
X150609197Y-72566751D01*
X150621381Y-72608687D01*
X150631580Y-72625933D01*
X150640138Y-72643402D01*
X150647514Y-72662031D01*
X150673181Y-72697359D01*
X150679593Y-72707120D01*
X150701828Y-72744716D01*
X150701833Y-72744723D01*
X150715990Y-72758879D01*
X150728628Y-72773675D01*
X150740405Y-72789885D01*
X150740406Y-72789886D01*
X150774057Y-72817724D01*
X150782698Y-72825587D01*
X151746094Y-73788983D01*
X151779579Y-73850306D01*
X151774595Y-73919998D01*
X151732723Y-73975931D01*
X151678822Y-73998973D01*
X151430383Y-74040429D01*
X151195197Y-74121169D01*
X151195188Y-74121172D01*
X150976493Y-74239524D01*
X150780257Y-74392261D01*
X150611833Y-74575217D01*
X150475824Y-74783396D01*
X150468405Y-74800311D01*
X150423449Y-74853797D01*
X150356713Y-74874486D01*
X150354850Y-74874500D01*
X146745150Y-74874500D01*
X146678111Y-74854815D01*
X146632356Y-74802011D01*
X146631595Y-74800311D01*
X146624175Y-74783396D01*
X146488166Y-74575217D01*
X146455405Y-74539629D01*
X146319744Y-74392262D01*
X146123509Y-74239526D01*
X146123507Y-74239525D01*
X146123506Y-74239524D01*
X145904811Y-74121172D01*
X145904802Y-74121169D01*
X145669616Y-74040429D01*
X145424335Y-73999500D01*
X145175665Y-73999500D01*
X144930383Y-74040429D01*
X144695197Y-74121169D01*
X144695188Y-74121172D01*
X144476493Y-74239524D01*
X144280257Y-74392261D01*
X144111833Y-74575217D01*
X143975826Y-74783393D01*
X143875936Y-75011118D01*
X143814892Y-75252175D01*
X143814890Y-75252187D01*
X143794357Y-75499994D01*
X143794357Y-75500005D01*
X139840695Y-75500005D01*
X139839470Y-70827554D01*
X139859137Y-70760512D01*
X139911929Y-70714743D01*
X139981085Y-70704782D01*
X140044648Y-70733790D01*
X140078663Y-70781627D01*
X140200597Y-71087659D01*
X140200606Y-71087677D01*
X140368218Y-71403827D01*
X140569024Y-71699994D01*
X140569035Y-71700008D01*
X140696441Y-71850002D01*
X140696442Y-71850002D01*
X141902265Y-70644179D01*
X142065130Y-70834870D01*
X142255819Y-70997733D01*
X141047257Y-72206294D01*
X141060495Y-72218836D01*
X141345367Y-72435388D01*
X141345370Y-72435390D01*
X141651990Y-72619876D01*
X141976739Y-72770122D01*
X141976744Y-72770123D01*
X142315855Y-72884383D01*
X142665339Y-72961311D01*
X143021075Y-72999999D01*
X143021085Y-73000000D01*
X143378915Y-73000000D01*
X143378924Y-72999999D01*
X143734660Y-72961311D01*
X144084144Y-72884383D01*
X144423255Y-72770123D01*
X144423260Y-72770122D01*
X144748009Y-72619876D01*
X145054629Y-72435390D01*
X145054632Y-72435388D01*
X145339509Y-72218831D01*
X145352742Y-72206295D01*
X145352742Y-72206294D01*
X144144181Y-70997733D01*
X144334870Y-70834870D01*
X144497733Y-70644180D01*
X145703556Y-71850002D01*
X145830972Y-71699998D01*
X145830975Y-71699994D01*
X146031781Y-71403827D01*
X146199393Y-71087677D01*
X146199402Y-71087659D01*
X146331850Y-70755239D01*
X146331852Y-70755232D01*
X146427578Y-70410457D01*
X146427584Y-70410431D01*
X146485472Y-70057331D01*
X146485473Y-70057314D01*
X146504847Y-69700002D01*
X146504847Y-69699997D01*
X146485473Y-69342685D01*
X146485472Y-69342668D01*
X146427584Y-68989568D01*
X146427578Y-68989542D01*
X146331852Y-68644767D01*
X146331850Y-68644760D01*
X146199402Y-68312340D01*
X146199393Y-68312322D01*
X146031781Y-67996172D01*
X145830975Y-67700005D01*
X145830964Y-67699991D01*
X145703556Y-67549996D01*
X144497733Y-68755819D01*
X144334870Y-68565130D01*
X144144180Y-68402266D01*
X145352742Y-67193704D01*
X145339504Y-67181163D01*
X145054632Y-66964611D01*
X145054629Y-66964609D01*
X144748009Y-66780123D01*
X144423260Y-66629878D01*
X144293886Y-66586286D01*
X144236641Y-66546226D01*
X144210142Y-66481576D01*
X144222802Y-66412863D01*
X144270601Y-66361902D01*
X144333520Y-66344777D01*
X175983120Y-66356046D01*
G37*
%TD.AperFunction*%
%TD*%
M02*
