%TF.GenerationSoftware,KiCad,Pcbnew,7.0.10*%
%TF.CreationDate,2025-03-12T17:19:52-05:00*%
%TF.ProjectId,Reflow Project Kicad,5265666c-6f77-4205-9072-6f6a65637420,rev?*%
%TF.SameCoordinates,Original*%
%TF.FileFunction,Copper,L1,Top*%
%TF.FilePolarity,Positive*%
%FSLAX46Y46*%
G04 Gerber Fmt 4.6, Leading zero omitted, Abs format (unit mm)*
G04 Created by KiCad (PCBNEW 7.0.10) date 2025-03-12 17:19:52*
%MOMM*%
%LPD*%
G01*
G04 APERTURE LIST*
G04 Aperture macros list*
%AMRoundRect*
0 Rectangle with rounded corners*
0 $1 Rounding radius*
0 $2 $3 $4 $5 $6 $7 $8 $9 X,Y pos of 4 corners*
0 Add a 4 corners polygon primitive as box body*
4,1,4,$2,$3,$4,$5,$6,$7,$8,$9,$2,$3,0*
0 Add four circle primitives for the rounded corners*
1,1,$1+$1,$2,$3*
1,1,$1+$1,$4,$5*
1,1,$1+$1,$6,$7*
1,1,$1+$1,$8,$9*
0 Add four rect primitives between the rounded corners*
20,1,$1+$1,$2,$3,$4,$5,0*
20,1,$1+$1,$4,$5,$6,$7,0*
20,1,$1+$1,$6,$7,$8,$9,0*
20,1,$1+$1,$8,$9,$2,$3,0*%
G04 Aperture macros list end*
%TA.AperFunction,SMDPad,CuDef*%
%ADD10RoundRect,0.150000X0.587500X0.150000X-0.587500X0.150000X-0.587500X-0.150000X0.587500X-0.150000X0*%
%TD*%
%TA.AperFunction,ComponentPad*%
%ADD11R,1.700000X1.700000*%
%TD*%
%TA.AperFunction,ComponentPad*%
%ADD12O,1.700000X1.700000*%
%TD*%
%TA.AperFunction,ComponentPad*%
%ADD13R,1.000000X1.000000*%
%TD*%
%TA.AperFunction,SMDPad,CuDef*%
%ADD14RoundRect,0.200000X0.275000X-0.200000X0.275000X0.200000X-0.275000X0.200000X-0.275000X-0.200000X0*%
%TD*%
%TA.AperFunction,SMDPad,CuDef*%
%ADD15RoundRect,0.218750X0.218750X0.256250X-0.218750X0.256250X-0.218750X-0.256250X0.218750X-0.256250X0*%
%TD*%
%TA.AperFunction,SMDPad,CuDef*%
%ADD16RoundRect,0.200000X0.200000X0.275000X-0.200000X0.275000X-0.200000X-0.275000X0.200000X-0.275000X0*%
%TD*%
%TA.AperFunction,SMDPad,CuDef*%
%ADD17RoundRect,0.250000X-0.475000X0.250000X-0.475000X-0.250000X0.475000X-0.250000X0.475000X0.250000X0*%
%TD*%
%TA.AperFunction,SMDPad,CuDef*%
%ADD18RoundRect,0.140000X0.140000X0.170000X-0.140000X0.170000X-0.140000X-0.170000X0.140000X-0.170000X0*%
%TD*%
%TA.AperFunction,SMDPad,CuDef*%
%ADD19RoundRect,0.140000X-0.170000X0.140000X-0.170000X-0.140000X0.170000X-0.140000X0.170000X0.140000X0*%
%TD*%
%TA.AperFunction,ComponentPad*%
%ADD20C,1.905000*%
%TD*%
%TA.AperFunction,SMDPad,CuDef*%
%ADD21RoundRect,0.250000X0.475000X-0.337500X0.475000X0.337500X-0.475000X0.337500X-0.475000X-0.337500X0*%
%TD*%
%TA.AperFunction,ComponentPad*%
%ADD22C,5.600000*%
%TD*%
%TA.AperFunction,SMDPad,CuDef*%
%ADD23RoundRect,0.140000X-0.140000X-0.170000X0.140000X-0.170000X0.140000X0.170000X-0.140000X0.170000X0*%
%TD*%
%TA.AperFunction,SMDPad,CuDef*%
%ADD24RoundRect,0.140000X0.170000X-0.140000X0.170000X0.140000X-0.170000X0.140000X-0.170000X-0.140000X0*%
%TD*%
%TA.AperFunction,SMDPad,CuDef*%
%ADD25R,2.000000X1.500000*%
%TD*%
%TA.AperFunction,SMDPad,CuDef*%
%ADD26R,2.000000X3.800000*%
%TD*%
%TA.AperFunction,SMDPad,CuDef*%
%ADD27RoundRect,0.200000X-0.275000X0.200000X-0.275000X-0.200000X0.275000X-0.200000X0.275000X0.200000X0*%
%TD*%
%TA.AperFunction,SMDPad,CuDef*%
%ADD28R,1.350000X0.400000*%
%TD*%
%TA.AperFunction,ComponentPad*%
%ADD29O,1.900000X1.200000*%
%TD*%
%TA.AperFunction,SMDPad,CuDef*%
%ADD30R,1.900000X1.200000*%
%TD*%
%TA.AperFunction,ComponentPad*%
%ADD31C,1.450000*%
%TD*%
%TA.AperFunction,SMDPad,CuDef*%
%ADD32R,1.900000X1.500000*%
%TD*%
%TA.AperFunction,SMDPad,CuDef*%
%ADD33RoundRect,0.073750X-0.911250X-0.221250X0.911250X-0.221250X0.911250X0.221250X-0.911250X0.221250X0*%
%TD*%
%TA.AperFunction,ComponentPad*%
%ADD34C,2.000000*%
%TD*%
%TA.AperFunction,ComponentPad*%
%ADD35C,1.080000*%
%TD*%
%TA.AperFunction,SMDPad,CuDef*%
%ADD36RoundRect,0.218750X0.256250X-0.218750X0.256250X0.218750X-0.256250X0.218750X-0.256250X-0.218750X0*%
%TD*%
%TA.AperFunction,SMDPad,CuDef*%
%ADD37RoundRect,0.075000X-0.662500X-0.075000X0.662500X-0.075000X0.662500X0.075000X-0.662500X0.075000X0*%
%TD*%
%TA.AperFunction,SMDPad,CuDef*%
%ADD38RoundRect,0.075000X-0.075000X-0.662500X0.075000X-0.662500X0.075000X0.662500X-0.075000X0.662500X0*%
%TD*%
%TA.AperFunction,SMDPad,CuDef*%
%ADD39RoundRect,0.200000X-0.200000X-0.275000X0.200000X-0.275000X0.200000X0.275000X-0.200000X0.275000X0*%
%TD*%
%TA.AperFunction,ComponentPad*%
%ADD40R,1.308000X1.308000*%
%TD*%
%TA.AperFunction,ComponentPad*%
%ADD41C,1.308000*%
%TD*%
%TA.AperFunction,SMDPad,CuDef*%
%ADD42RoundRect,0.250000X0.337500X0.475000X-0.337500X0.475000X-0.337500X-0.475000X0.337500X-0.475000X0*%
%TD*%
%TA.AperFunction,ViaPad*%
%ADD43C,0.800000*%
%TD*%
%TA.AperFunction,Conductor*%
%ADD44C,0.500000*%
%TD*%
%TA.AperFunction,Conductor*%
%ADD45C,0.300000*%
%TD*%
%TA.AperFunction,Conductor*%
%ADD46C,0.250000*%
%TD*%
G04 APERTURE END LIST*
D10*
%TO.P,Q2,1,G*%
%TO.N,3.3_USART1_TX_v1*%
X169275000Y-85750000D03*
%TO.P,Q2,2,S*%
%TO.N,/USART1_TX_5V*%
X169275000Y-83850000D03*
%TO.P,Q2,3,D*%
%TO.N,Net-(Q2-D)*%
X167400000Y-84800000D03*
%TD*%
D11*
%TO.P,J4,1,Pin_1*%
%TO.N,/USART1_RX_5V*%
X169900000Y-70350000D03*
D12*
%TO.P,J4,2,Pin_2*%
%TO.N,/USART1_TX_5V*%
X167360000Y-70350000D03*
%TO.P,J4,3,Pin_3*%
%TO.N,VBUS*%
X164820000Y-70350000D03*
%TO.P,J4,4,Pin_4*%
%TO.N,GND*%
X162280000Y-70350000D03*
%TD*%
D13*
%TO.P,TP5,1,1*%
%TO.N,3.3_USART1_RX_v1*%
X165450000Y-93650000D03*
%TD*%
D14*
%TO.P,R5,1*%
%TO.N,Net-(D4-K)*%
X144500000Y-108825000D03*
%TO.P,R5,2*%
%TO.N,GND*%
X144500000Y-107175000D03*
%TD*%
D15*
%TO.P,D2,1,K*%
%TO.N,/PWR_LED_Cathode*%
X176975000Y-100400000D03*
%TO.P,D2,2,A*%
%TO.N,+3.3V*%
X175400000Y-100400000D03*
%TD*%
D13*
%TO.P,TP13,1,1*%
%TO.N,Net-(U1-PB6)*%
X159400000Y-86000000D03*
%TD*%
D16*
%TO.P,R6,1*%
%TO.N,3.3_USART1_RX_v1*%
X167525000Y-89200000D03*
%TO.P,R6,2*%
%TO.N,+3.3V*%
X165875000Y-89200000D03*
%TD*%
D13*
%TO.P,TP3,1,1*%
%TO.N,Thermo_SCK*%
X152650000Y-103850000D03*
%TD*%
%TO.P,TP14,1,1*%
%TO.N,Net-(U1-PB7)*%
X159400000Y-83900000D03*
%TD*%
D17*
%TO.P,C6,1*%
%TO.N,+3.3V*%
X172950000Y-100350000D03*
%TO.P,C6,2*%
%TO.N,GND*%
X172950000Y-102250000D03*
%TD*%
D16*
%TO.P,R8,1*%
%TO.N,Net-(Q2-D)*%
X172325000Y-80000000D03*
%TO.P,R8,2*%
%TO.N,VBUS*%
X170675000Y-80000000D03*
%TD*%
D18*
%TO.P,C8,1*%
%TO.N,/RCC_OSC_OUT*%
X145580000Y-88100000D03*
%TO.P,C8,2*%
%TO.N,GND*%
X144620000Y-88100000D03*
%TD*%
D13*
%TO.P,TP6,1,1*%
%TO.N,3.3_USART1_TX_v1*%
X163400000Y-93650000D03*
%TD*%
D19*
%TO.P,C3,1*%
%TO.N,+3.3V*%
X162550000Y-90070000D03*
%TO.P,C3,2*%
%TO.N,GND*%
X162550000Y-91030000D03*
%TD*%
D20*
%TO.P,J5,1,1*%
%TO.N,Net-(U4-T+)*%
X156700000Y-110000000D03*
%TO.P,J5,2,2*%
%TO.N,GND*%
X151620000Y-110000000D03*
%TD*%
D21*
%TO.P,C16,1*%
%TO.N,VBUS*%
X172950000Y-98487500D03*
%TO.P,C16,2*%
%TO.N,GND*%
X172950000Y-96412500D03*
%TD*%
D22*
%TO.P,H1,1*%
%TO.N,GND*%
X143200000Y-69700000D03*
%TD*%
D23*
%TO.P,C4,1*%
%TO.N,+3.3V*%
X153620000Y-87300000D03*
%TO.P,C4,2*%
%TO.N,GND*%
X154580000Y-87300000D03*
%TD*%
D24*
%TO.P,C1,1*%
%TO.N,+3.3V*%
X151150000Y-94580000D03*
%TO.P,C1,2*%
%TO.N,GND*%
X151150000Y-93620000D03*
%TD*%
D18*
%TO.P,C7,1*%
%TO.N,/RCC_OSC_IN*%
X148780000Y-88100000D03*
%TO.P,C7,2*%
%TO.N,GND*%
X147820000Y-88100000D03*
%TD*%
D25*
%TO.P,U3,1,GND*%
%TO.N,GND*%
X170450000Y-102650000D03*
%TO.P,U3,2,VO*%
%TO.N,+3.3V*%
X170450000Y-100350000D03*
D26*
X164150000Y-100350000D03*
D25*
%TO.P,U3,3,VI*%
%TO.N,VBUS*%
X170450000Y-98050000D03*
%TD*%
D22*
%TO.P,H5,1*%
%TO.N,GND*%
X143300000Y-93600000D03*
%TD*%
D27*
%TO.P,R1,1*%
%TO.N,Net-(SW1-B)*%
X158950000Y-80475000D03*
%TO.P,R1,2*%
%TO.N,/BOOT*%
X158950000Y-82125000D03*
%TD*%
D16*
%TO.P,R7,1*%
%TO.N,Net-(Q1-D)*%
X172325000Y-78400000D03*
%TO.P,R7,2*%
%TO.N,VBUS*%
X170675000Y-78400000D03*
%TD*%
D22*
%TO.P,H2,1*%
%TO.N,GND*%
X177150000Y-69700000D03*
%TD*%
D13*
%TO.P,TP4,1,1*%
%TO.N,Thermo_SO*%
X152650000Y-99850000D03*
%TD*%
D28*
%TO.P,J1,1,VBUS*%
%TO.N,VBUS*%
X176237500Y-93000000D03*
%TO.P,J1,2,D-*%
%TO.N,/USB_DM*%
X176237500Y-92350000D03*
%TO.P,J1,3,D+*%
%TO.N,/USB_DP*%
X176237500Y-91700000D03*
%TO.P,J1,4,ID*%
%TO.N,unconnected-(J1-ID-Pad4)*%
X176237500Y-91050000D03*
%TO.P,J1,5,GND*%
%TO.N,GND*%
X176237500Y-90400000D03*
D29*
%TO.P,J1,6,Shield*%
%TO.N,unconnected-(J1-Shield-Pad6)*%
X178937500Y-95200000D03*
D30*
X178937500Y-94600000D03*
D31*
X176237500Y-94200000D03*
D32*
X178937500Y-92700000D03*
X178937500Y-90700000D03*
D31*
X176237500Y-89200000D03*
D30*
X178937500Y-88800000D03*
D29*
X178937500Y-88200000D03*
%TD*%
D20*
%TO.P,J6,1,1*%
%TO.N,GND*%
X169500000Y-110000000D03*
%TO.P,J6,2,2*%
%TO.N,Relay*%
X164420000Y-110000000D03*
%TD*%
D33*
%TO.P,U4,1,GND*%
%TO.N,GND*%
X144925000Y-99395000D03*
%TO.P,U4,2,T-*%
X144925000Y-100665000D03*
%TO.P,U4,3,T+*%
%TO.N,Net-(U4-T+)*%
X144925000Y-101935000D03*
%TO.P,U4,4,VCC*%
%TO.N,+3.3V*%
X144925000Y-103205000D03*
%TO.P,U4,5,SCK*%
%TO.N,Thermo_SCK*%
X149875000Y-103205000D03*
%TO.P,U4,6,~{CS}*%
%TO.N,Thermo_CS*%
X149875000Y-101935000D03*
%TO.P,U4,7,SO*%
%TO.N,Thermo_SO*%
X149875000Y-100665000D03*
%TO.P,U4,8,N.C.*%
%TO.N,unconnected-(U4-N.C.-Pad8)*%
X149875000Y-99395000D03*
%TD*%
D11*
%TO.P,J2,1,Pin_1*%
%TO.N,+3.3V*%
X157550000Y-70400000D03*
D12*
%TO.P,J2,2,Pin_2*%
%TO.N,/SYS_JTMS-SWDIO*%
X155010000Y-70400000D03*
%TO.P,J2,3,Pin_3*%
%TO.N,/SYS_JTCK-SWCLK*%
X152470000Y-70400000D03*
%TO.P,J2,4,Pin_4*%
%TO.N,GND*%
X149930000Y-70400000D03*
%TD*%
D34*
%TO.P,SW2,1,1*%
%TO.N,GND*%
X151800000Y-80000000D03*
X145300000Y-80000000D03*
%TO.P,SW2,2,2*%
%TO.N,/NRST*%
X151800000Y-75500000D03*
X145300000Y-75500000D03*
%TD*%
D16*
%TO.P,R4,1*%
%TO.N,/PWR_LED_Cathode*%
X177025000Y-102200000D03*
%TO.P,R4,2*%
%TO.N,GND*%
X175375000Y-102200000D03*
%TD*%
D13*
%TO.P,TP2,1,1*%
%TO.N,Thermo_CS*%
X152650000Y-101850000D03*
%TD*%
D35*
%TO.P,Y1,1*%
%TO.N,/RCC_OSC_IN*%
X148740000Y-84700000D03*
%TO.P,Y1,2*%
%TO.N,/RCC_OSC_OUT*%
X143860000Y-84700000D03*
%TD*%
D36*
%TO.P,D3,1,K*%
%TO.N,Net-(D3-K)*%
X175400000Y-107787500D03*
%TO.P,D3,2,A*%
%TO.N,Relay*%
X175400000Y-106212500D03*
%TD*%
D15*
%TO.P,D1,1,K*%
%TO.N,Net-(D1-K)*%
X172287500Y-75100000D03*
%TO.P,D1,2,A*%
%TO.N,Net-(D1-A)*%
X170712500Y-75100000D03*
%TD*%
D37*
%TO.P,U1,1,VBAT*%
%TO.N,+3.3V*%
X152675000Y-90250000D03*
%TO.P,U1,2,PC13*%
%TO.N,unconnected-(U1-PC13-Pad2)*%
X152675000Y-90750000D03*
%TO.P,U1,3,PC14*%
%TO.N,unconnected-(U1-PC14-Pad3)*%
X152675000Y-91250000D03*
%TO.P,U1,4,PC15*%
%TO.N,unconnected-(U1-PC15-Pad4)*%
X152675000Y-91750000D03*
%TO.P,U1,5,PD0*%
%TO.N,/RCC_OSC_IN*%
X152675000Y-92250000D03*
%TO.P,U1,6,PD1*%
%TO.N,/RCC_OSC_OUT*%
X152675000Y-92750000D03*
%TO.P,U1,7,NRST*%
%TO.N,/NRST*%
X152675000Y-93250000D03*
%TO.P,U1,8,VSSA*%
%TO.N,GND*%
X152675000Y-93750000D03*
%TO.P,U1,9,VDDA*%
%TO.N,+3.3V*%
X152675000Y-94250000D03*
%TO.P,U1,10,PA0*%
%TO.N,/SYS_WKUP*%
X152675000Y-94750000D03*
%TO.P,U1,11,PA1*%
%TO.N,unconnected-(U1-PA1-Pad11)*%
X152675000Y-95250000D03*
%TO.P,U1,12,PA2*%
%TO.N,unconnected-(U1-PA2-Pad12)*%
X152675000Y-95750000D03*
D38*
%TO.P,U1,13,PA3*%
%TO.N,unconnected-(U1-PA3-Pad13)*%
X154087500Y-97162500D03*
%TO.P,U1,14,PA4*%
%TO.N,Thermo_CS*%
X154587500Y-97162500D03*
%TO.P,U1,15,PA5*%
%TO.N,Thermo_SCK*%
X155087500Y-97162500D03*
%TO.P,U1,16,PA6*%
%TO.N,Thermo_SO*%
X155587500Y-97162500D03*
%TO.P,U1,17,PA7*%
%TO.N,unconnected-(U1-PA7-Pad17)*%
X156087500Y-97162500D03*
%TO.P,U1,18,PB0*%
%TO.N,Net-(D1-A)*%
X156587500Y-97162500D03*
%TO.P,U1,19,PB1*%
%TO.N,unconnected-(U1-PB1-Pad19)*%
X157087500Y-97162500D03*
%TO.P,U1,20,PB2*%
%TO.N,unconnected-(U1-PB2-Pad20)*%
X157587500Y-97162500D03*
%TO.P,U1,21,PB10*%
%TO.N,unconnected-(U1-PB10-Pad21)*%
X158087500Y-97162500D03*
%TO.P,U1,22,PB11*%
%TO.N,unconnected-(U1-PB11-Pad22)*%
X158587500Y-97162500D03*
%TO.P,U1,23,VSS*%
%TO.N,GND*%
X159087500Y-97162500D03*
%TO.P,U1,24,VDD*%
%TO.N,+3.3V*%
X159587500Y-97162500D03*
D37*
%TO.P,U1,25,PB12*%
%TO.N,unconnected-(U1-PB12-Pad25)*%
X161000000Y-95750000D03*
%TO.P,U1,26,PB13*%
%TO.N,unconnected-(U1-PB13-Pad26)*%
X161000000Y-95250000D03*
%TO.P,U1,27,PB14*%
%TO.N,unconnected-(U1-PB14-Pad27)*%
X161000000Y-94750000D03*
%TO.P,U1,28,PB15*%
%TO.N,unconnected-(U1-PB15-Pad28)*%
X161000000Y-94250000D03*
%TO.P,U1,29,PA8*%
%TO.N,Relay*%
X161000000Y-93750000D03*
%TO.P,U1,30,PA9*%
%TO.N,3.3_USART1_TX_v1*%
X161000000Y-93250000D03*
%TO.P,U1,31,PA10*%
%TO.N,3.3_USART1_RX_v1*%
X161000000Y-92750000D03*
%TO.P,U1,32,PA11*%
%TO.N,/USB_DM*%
X161000000Y-92250000D03*
%TO.P,U1,33,PA12*%
%TO.N,/USB_DP*%
X161000000Y-91750000D03*
%TO.P,U1,34,PA13*%
%TO.N,/SYS_JTMS-SWDIO*%
X161000000Y-91250000D03*
%TO.P,U1,35,VSS*%
%TO.N,GND*%
X161000000Y-90750000D03*
%TO.P,U1,36,VDD*%
%TO.N,+3.3V*%
X161000000Y-90250000D03*
D38*
%TO.P,U1,37,PA14*%
%TO.N,/SYS_JTCK-SWCLK*%
X159587500Y-88837500D03*
%TO.P,U1,38,PA15*%
%TO.N,unconnected-(U1-PA15-Pad38)*%
X159087500Y-88837500D03*
%TO.P,U1,39,PB3*%
%TO.N,unconnected-(U1-PB3-Pad39)*%
X158587500Y-88837500D03*
%TO.P,U1,40,PB4*%
%TO.N,unconnected-(U1-PB4-Pad40)*%
X158087500Y-88837500D03*
%TO.P,U1,41,PB5*%
%TO.N,unconnected-(U1-PB5-Pad41)*%
X157587500Y-88837500D03*
%TO.P,U1,42,PB6*%
%TO.N,Net-(U1-PB6)*%
X157087500Y-88837500D03*
%TO.P,U1,43,PB7*%
%TO.N,Net-(U1-PB7)*%
X156587500Y-88837500D03*
%TO.P,U1,44,BOOT0*%
%TO.N,/BOOT*%
X156087500Y-88837500D03*
%TO.P,U1,45,PB8*%
%TO.N,unconnected-(U1-PB8-Pad45)*%
X155587500Y-88837500D03*
%TO.P,U1,46,PB9*%
%TO.N,unconnected-(U1-PB9-Pad46)*%
X155087500Y-88837500D03*
%TO.P,U1,47,VSS*%
%TO.N,GND*%
X154587500Y-88837500D03*
%TO.P,U1,48,VDD*%
%TO.N,+3.3V*%
X154087500Y-88837500D03*
%TD*%
D18*
%TO.P,C2,1*%
%TO.N,+3.3V*%
X159860000Y-98650000D03*
%TO.P,C2,2*%
%TO.N,GND*%
X158900000Y-98650000D03*
%TD*%
%TO.P,C5,1*%
%TO.N,+3.3V*%
X152530000Y-89200000D03*
%TO.P,C5,2*%
%TO.N,GND*%
X151570000Y-89200000D03*
%TD*%
D22*
%TO.P,H3,1*%
%TO.N,GND*%
X177150000Y-112700000D03*
%TD*%
D10*
%TO.P,Q1,1,G*%
%TO.N,3.3_USART1_RX_v1*%
X173875000Y-85750000D03*
%TO.P,Q1,2,S*%
%TO.N,/USART1_RX_5V*%
X173875000Y-83850000D03*
%TO.P,Q1,3,D*%
%TO.N,Net-(Q1-D)*%
X172000000Y-84800000D03*
%TD*%
D39*
%TO.P,R2,1*%
%TO.N,+3.3V*%
X165875000Y-90800000D03*
%TO.P,R2,2*%
%TO.N,/USB_DP*%
X167525000Y-90800000D03*
%TD*%
D36*
%TO.P,D4,1,K*%
%TO.N,Net-(D4-K)*%
X146200000Y-108787500D03*
%TO.P,D4,2,A*%
%TO.N,Thermo_CS*%
X146200000Y-107212500D03*
%TD*%
D18*
%TO.P,C18,1*%
%TO.N,+3.3V*%
X142980000Y-103400000D03*
%TO.P,C18,2*%
%TO.N,GND*%
X142020000Y-103400000D03*
%TD*%
D39*
%TO.P,R3,1*%
%TO.N,GND*%
X170675000Y-76800000D03*
%TO.P,R3,2*%
%TO.N,Net-(D1-K)*%
X172325000Y-76800000D03*
%TD*%
D40*
%TO.P,SW1,1,C*%
%TO.N,+3.3V*%
X165550000Y-78350000D03*
D41*
%TO.P,SW1,2,B*%
%TO.N,Net-(SW1-B)*%
X163050000Y-78350000D03*
%TO.P,SW1,3,A*%
%TO.N,GND*%
X160550000Y-78350000D03*
%TO.P,SW1,4*%
%TO.N,N/C*%
X165550000Y-75150000D03*
%TO.P,SW1,5*%
X163050000Y-75150000D03*
%TO.P,SW1,6*%
X160550000Y-75150000D03*
%TD*%
D16*
%TO.P,R9,1*%
%TO.N,3.3_USART1_TX_v1*%
X167525000Y-87600000D03*
%TO.P,R9,2*%
%TO.N,+3.3V*%
X165875000Y-87600000D03*
%TD*%
D22*
%TO.P,H4,1*%
%TO.N,GND*%
X143250000Y-112900000D03*
%TD*%
D14*
%TO.P,R10,1*%
%TO.N,Net-(D3-K)*%
X177200000Y-107850000D03*
%TO.P,R10,2*%
%TO.N,GND*%
X177200000Y-106200000D03*
%TD*%
D42*
%TO.P,C17,1*%
%TO.N,+3.3V*%
X160587500Y-100350000D03*
%TO.P,C17,2*%
%TO.N,GND*%
X158512500Y-100350000D03*
%TD*%
D43*
%TO.N,VBUS*%
X169400000Y-78300000D03*
X170450000Y-98050000D03*
%TO.N,GND*%
X174400000Y-103500000D03*
X168800000Y-102100000D03*
X175400000Y-103500000D03*
X168800000Y-103200000D03*
X170712500Y-76762500D03*
X173500000Y-95100000D03*
X174700000Y-90400000D03*
X172400000Y-95100000D03*
X147200000Y-100100000D03*
%TO.N,+3.3V*%
X170450000Y-100350000D03*
X162700000Y-99349957D03*
X163500000Y-90070000D03*
%TO.N,Thermo_CS*%
X146200000Y-107212500D03*
%TO.N,/NRST*%
X154200000Y-92200000D03*
%TO.N,/SYS_JTMS-SWDIO*%
X159466768Y-91188761D03*
%TO.N,/SYS_JTCK-SWCLK*%
X160578038Y-88447056D03*
%TO.N,3.3_USART1_TX_v1*%
X168399996Y-87600000D03*
%TO.N,3.3_USART1_RX_v1*%
X168400007Y-89199999D03*
%TO.N,Net-(D1-A)*%
X169400000Y-75100006D03*
X156600000Y-95050000D03*
%TD*%
D44*
%TO.N,VBUS*%
X174900000Y-96900000D02*
X174900000Y-93862500D01*
X175762500Y-93000000D02*
X176237500Y-93000000D01*
X170887500Y-98487500D02*
X170450000Y-98050000D01*
X170675000Y-78400000D02*
X170675000Y-80000000D01*
X174900000Y-93862500D02*
X175762500Y-93000000D01*
X173312500Y-98487500D02*
X174900000Y-96900000D01*
X172950000Y-98487500D02*
X173312500Y-98487500D01*
X169400000Y-78300000D02*
X170575000Y-78300000D01*
X172950000Y-98487500D02*
X170887500Y-98487500D01*
X170575000Y-78300000D02*
X170675000Y-78400000D01*
D45*
%TO.N,GND*%
X159087500Y-97162500D02*
X159087500Y-98462500D01*
X158900000Y-99962500D02*
X158512500Y-100350000D01*
X161000000Y-90750000D02*
X160159380Y-90750000D01*
X154587500Y-87307500D02*
X154587500Y-88837500D01*
D46*
X144925000Y-99395000D02*
X146495000Y-99395000D01*
X176237500Y-90400000D02*
X174700000Y-90400000D01*
D45*
X159334380Y-89925000D02*
X154834380Y-89925000D01*
X151280000Y-93750000D02*
X151150000Y-93620000D01*
X162550000Y-91030000D02*
X162240001Y-91030000D01*
D46*
X175375000Y-102200000D02*
X175325000Y-102250000D01*
X170712500Y-76762500D02*
X170675000Y-76800000D01*
D45*
X161960001Y-90750000D02*
X161000000Y-90750000D01*
X173050000Y-102350000D02*
X172950000Y-102250000D01*
D46*
X146495000Y-99395000D02*
X147200000Y-100100000D01*
D45*
X158900000Y-98650000D02*
X158900000Y-99962500D01*
X159087500Y-98462500D02*
X158900000Y-98650000D01*
X154834380Y-89925000D02*
X154587500Y-89678120D01*
X162240001Y-91030000D02*
X161960001Y-90750000D01*
X154587500Y-89678120D02*
X154587500Y-88837500D01*
X151040000Y-93730000D02*
X151150000Y-93620000D01*
X160159380Y-90750000D02*
X159334380Y-89925000D01*
X154580000Y-87300000D02*
X154587500Y-87307500D01*
X144510000Y-92800000D02*
X144450000Y-92740000D01*
X152675000Y-93750000D02*
X151280000Y-93750000D01*
D46*
%TO.N,+3.3V*%
X165875000Y-89200000D02*
X165875000Y-90800000D01*
D45*
X152675000Y-90250000D02*
X153515620Y-90250000D01*
D44*
X175350000Y-100350000D02*
X175400000Y-100400000D01*
D45*
X153620000Y-87300000D02*
X153620000Y-87620000D01*
D46*
X143000000Y-99500000D02*
X143000000Y-103420000D01*
D45*
X161900000Y-75419871D02*
X164830129Y-78350000D01*
D46*
X143000000Y-103420000D02*
X144710000Y-103420000D01*
D45*
X159587500Y-95356129D02*
X158481371Y-94250000D01*
X152530000Y-89200000D02*
X153725000Y-89200000D01*
X159587500Y-98377500D02*
X159860000Y-98650000D01*
D46*
X144710000Y-103420000D02*
X144925000Y-103205000D01*
D45*
X153620000Y-87620000D02*
X154087500Y-88087500D01*
D46*
X162370000Y-90250000D02*
X162550000Y-90070000D01*
D44*
X160587500Y-100350000D02*
X164150000Y-100350000D01*
D45*
X158481371Y-94250000D02*
X152675000Y-94250000D01*
D46*
X165875000Y-87600000D02*
X165875000Y-89200000D01*
D44*
X170450000Y-100350000D02*
X172950000Y-100350000D01*
D45*
X155000000Y-91734380D02*
X155000000Y-94250000D01*
X159587500Y-97162500D02*
X159587500Y-95356129D01*
X159860000Y-98650000D02*
X159860000Y-99622500D01*
D44*
X164150000Y-100350000D02*
X163149957Y-99349957D01*
D46*
X151150000Y-94580000D02*
X147920000Y-94580000D01*
X164370000Y-89200000D02*
X163500000Y-90070000D01*
D45*
X153725000Y-89200000D02*
X154087500Y-88837500D01*
X152700000Y-90225000D02*
X152700000Y-89370000D01*
X152700000Y-89370000D02*
X152530000Y-89200000D01*
D46*
X163500000Y-90070000D02*
X162550000Y-90070000D01*
X165875000Y-89200000D02*
X164370000Y-89200000D01*
X161000000Y-90250000D02*
X162370000Y-90250000D01*
D45*
X157550000Y-70400000D02*
X161900000Y-74750000D01*
X159587500Y-97162500D02*
X159587500Y-98377500D01*
D46*
X165875000Y-78675000D02*
X165550000Y-78350000D01*
D45*
X161900000Y-74750000D02*
X161900000Y-75419871D01*
X151480000Y-94250000D02*
X152675000Y-94250000D01*
D44*
X172950000Y-100350000D02*
X175350000Y-100350000D01*
D45*
X155000000Y-94250000D02*
X152675000Y-94250000D01*
D44*
X163149957Y-99349957D02*
X162700000Y-99349957D01*
D45*
X159860000Y-99622500D02*
X160587500Y-100350000D01*
X164830129Y-78350000D02*
X165550000Y-78350000D01*
X152675000Y-90250000D02*
X152700000Y-90225000D01*
X154087500Y-88087500D02*
X154087500Y-88837500D01*
X151150000Y-94580000D02*
X151480000Y-94250000D01*
D46*
X147920000Y-94580000D02*
X143000000Y-99500000D01*
X165875000Y-87600000D02*
X165875000Y-78675000D01*
D45*
X153515620Y-90250000D02*
X155000000Y-91734380D01*
D46*
%TO.N,/PWR_LED_Cathode*%
X176975000Y-100400000D02*
X176975000Y-102150000D01*
X176975000Y-102150000D02*
X177025000Y-102200000D01*
D45*
%TO.N,Thermo_CS*%
X152650000Y-101850000D02*
X154587500Y-99912500D01*
D46*
X149875000Y-101935000D02*
X152565000Y-101935000D01*
D45*
X154587500Y-99912500D02*
X154587500Y-97162500D01*
D46*
X152565000Y-101935000D02*
X152650000Y-101850000D01*
X146200000Y-107200000D02*
X146200000Y-107212500D01*
%TO.N,Thermo_SCK*%
X155087500Y-97162500D02*
X155087500Y-101062500D01*
X155087500Y-101062500D02*
X152650000Y-103500000D01*
X152005000Y-103205000D02*
X152650000Y-103850000D01*
X152650000Y-103500000D02*
X152650000Y-103850000D01*
X149875000Y-103205000D02*
X152005000Y-103205000D01*
D45*
%TO.N,Thermo_SO*%
X152650000Y-99850000D02*
X152650000Y-97259380D01*
D46*
X151835000Y-100665000D02*
X152650000Y-99850000D01*
D45*
X155587500Y-96321880D02*
X155587500Y-97162500D01*
X152650000Y-97259380D02*
X153834380Y-96075000D01*
D46*
X149875000Y-100665000D02*
X151835000Y-100665000D01*
D45*
X153834380Y-96075000D02*
X155340620Y-96075000D01*
X155340620Y-96075000D02*
X155587500Y-96321880D01*
D46*
%TO.N,Net-(U1-PB6)*%
X159400000Y-86000000D02*
X158650000Y-86000000D01*
X157087500Y-87562500D02*
X157087500Y-88837500D01*
X158650000Y-86000000D02*
X157087500Y-87562500D01*
%TO.N,Net-(U1-PB7)*%
X159400000Y-83900000D02*
X158700000Y-83900000D01*
X156587500Y-86012500D02*
X156587500Y-88837500D01*
X158700000Y-83900000D02*
X156587500Y-86012500D01*
%TO.N,Net-(Q1-D)*%
X172325000Y-78400000D02*
X173050000Y-79125000D01*
X173050000Y-79125000D02*
X173050000Y-83250000D01*
X172000000Y-84300000D02*
X172000000Y-84800000D01*
X173050000Y-83250000D02*
X172000000Y-84300000D01*
%TO.N,Net-(Q2-D)*%
X172325000Y-82213408D02*
X172325000Y-80000000D01*
X167400000Y-84800000D02*
X169738408Y-84800000D01*
X169738408Y-84800000D02*
X172325000Y-82213408D01*
%TO.N,/RCC_OSC_IN*%
X148740000Y-84700000D02*
X148700000Y-84740000D01*
X148780000Y-88100000D02*
X148780000Y-89280000D01*
X148780000Y-89280000D02*
X151750000Y-92250000D01*
X148700000Y-88020000D02*
X148780000Y-88100000D01*
X151750000Y-92250000D02*
X152675000Y-92250000D01*
X148700000Y-84740000D02*
X148700000Y-88020000D01*
%TO.N,/RCC_OSC_OUT*%
X146780000Y-89300000D02*
X148163604Y-89300000D01*
X143860000Y-84700000D02*
X145580000Y-86420000D01*
X151613604Y-92750000D02*
X152675000Y-92750000D01*
X145580000Y-88100000D02*
X146780000Y-89300000D01*
X145580000Y-86420000D02*
X145580000Y-88100000D01*
X148163604Y-89300000D02*
X151613604Y-92750000D01*
%TO.N,/NRST*%
X154200000Y-92200000D02*
X154200000Y-92530264D01*
X153480264Y-93250000D02*
X152675000Y-93250000D01*
X154200000Y-92530264D02*
X153480264Y-93250000D01*
%TO.N,Net-(D1-K)*%
X172287500Y-76762500D02*
X172325000Y-76800000D01*
X172287500Y-75012500D02*
X172300000Y-75000000D01*
X172287500Y-75100000D02*
X172287500Y-75012500D01*
X172287500Y-75100000D02*
X172287500Y-76762500D01*
D45*
%TO.N,/USB_DM*%
X176137500Y-92250000D02*
X176237500Y-92350000D01*
X161000000Y-92250000D02*
X176137500Y-92250000D01*
D46*
%TO.N,/USB_DP*%
X176187500Y-91750000D02*
X176237500Y-91700000D01*
X167400000Y-91750000D02*
X176187500Y-91750000D01*
X161000000Y-91750000D02*
X167400000Y-91750000D01*
X167525000Y-91625000D02*
X167400000Y-91750000D01*
X167525000Y-90800000D02*
X167525000Y-91625000D01*
%TO.N,/SYS_JTMS-SWDIO*%
X159528007Y-91250000D02*
X159466768Y-91188761D01*
X161000000Y-91250000D02*
X159528007Y-91250000D01*
%TO.N,/SYS_JTCK-SWCLK*%
X159977944Y-88447056D02*
X160578038Y-88447056D01*
X159587500Y-88837500D02*
X159977944Y-88447056D01*
%TO.N,3.3_USART1_TX_v1*%
X168399996Y-87600000D02*
X167525000Y-87600000D01*
X168399996Y-86625004D02*
X168399996Y-87600000D01*
D45*
X162600000Y-93650000D02*
X162200000Y-93250000D01*
X162200000Y-93250000D02*
X161000000Y-93250000D01*
X163400000Y-93650000D02*
X162600000Y-93650000D01*
D46*
X169275000Y-85750000D02*
X168399996Y-86625004D01*
D45*
%TO.N,3.3_USART1_RX_v1*%
X164171142Y-92750000D02*
X161000000Y-92750000D01*
X165071142Y-93650000D02*
X164171142Y-92750000D01*
D46*
X168400006Y-89200000D02*
X168400007Y-89199999D01*
X171850006Y-85750000D02*
X168400007Y-89199999D01*
D45*
X165450000Y-93650000D02*
X165071142Y-93650000D01*
D46*
X167525000Y-89200000D02*
X168400006Y-89200000D01*
X173875000Y-85750000D02*
X171850006Y-85750000D01*
D45*
%TO.N,/BOOT*%
X158950000Y-81810000D02*
X158950000Y-81850000D01*
X156087500Y-84712500D02*
X156087500Y-88837500D01*
X158950000Y-81850000D02*
X156087500Y-84712500D01*
D46*
%TO.N,/USART1_RX_5V*%
X173875000Y-74325000D02*
X169900000Y-70350000D01*
X173875000Y-83850000D02*
X173875000Y-74325000D01*
%TO.N,/USART1_TX_5V*%
X167360000Y-81935000D02*
X167360000Y-70350000D01*
X169275000Y-83850000D02*
X167360000Y-81935000D01*
%TO.N,unconnected-(J1-Shield-Pad6)*%
X178937500Y-88800000D02*
X178937500Y-90700000D01*
X178937500Y-92700000D02*
X178937500Y-94600000D01*
X178937500Y-92700000D02*
X178937500Y-90700000D01*
%TO.N,Relay*%
X168207500Y-106212500D02*
X164420000Y-110000000D01*
D45*
X165825000Y-97734380D02*
X165825000Y-108595000D01*
X165825000Y-108595000D02*
X164420000Y-110000000D01*
D46*
X175400000Y-106212500D02*
X168207500Y-106212500D01*
D45*
X161840620Y-93750000D02*
X165825000Y-97734380D01*
X161000000Y-93750000D02*
X161840620Y-93750000D01*
%TO.N,Net-(SW1-B)*%
X158950000Y-80790000D02*
X160610000Y-80790000D01*
X160610000Y-80790000D02*
X163050000Y-78350000D01*
D46*
%TO.N,Net-(U4-T+)*%
X144925000Y-101935000D02*
X146135000Y-101935000D01*
X155800000Y-110350000D02*
X156100000Y-110350000D01*
X146135000Y-101935000D02*
X154200000Y-110000000D01*
X154200000Y-110000000D02*
X156700000Y-110000000D01*
%TO.N,Net-(D1-A)*%
X156587500Y-97162500D02*
X156587500Y-95062500D01*
X170712494Y-75100006D02*
X170712500Y-75100000D01*
X156587500Y-95062500D02*
X156600000Y-95050000D01*
X169400000Y-75100006D02*
X170712494Y-75100006D01*
%TO.N,Net-(D3-K)*%
X175462500Y-107850000D02*
X175400000Y-107787500D01*
X177200000Y-107850000D02*
X175462500Y-107850000D01*
%TO.N,Net-(D4-K)*%
X144500000Y-108825000D02*
X146162500Y-108825000D01*
X146162500Y-108825000D02*
X146200000Y-108787500D01*
%TD*%
%TA.AperFunction,Conductor*%
%TO.N,GND*%
G36*
X146200000Y-99100000D02*
G01*
X146200000Y-101000000D01*
X146000000Y-101200000D01*
X143900000Y-101200000D01*
X143700000Y-101100000D01*
X143700000Y-99401748D01*
X144301748Y-98800000D01*
X146000000Y-98800000D01*
X146200000Y-99100000D01*
G37*
%TD.AperFunction*%
%TD*%
%TA.AperFunction,Conductor*%
%TO.N,+3.3V*%
G36*
X171425706Y-99419685D02*
G01*
X171433062Y-99424796D01*
X171800000Y-99700000D01*
X172290422Y-99700000D01*
X172308069Y-99701262D01*
X172310988Y-99701681D01*
X172337544Y-99705500D01*
X172337545Y-99705500D01*
X175075990Y-99705500D01*
X175076000Y-99705500D01*
X175116762Y-99701117D01*
X175120554Y-99700710D01*
X175133807Y-99700000D01*
X175648638Y-99700000D01*
X175715677Y-99719685D01*
X175736319Y-99736319D01*
X175963681Y-99963681D01*
X175997166Y-100025004D01*
X176000000Y-100051362D01*
X176000000Y-100662456D01*
X175980315Y-100729495D01*
X175979174Y-100731239D01*
X175836811Y-100944783D01*
X175783246Y-100989644D01*
X175733637Y-101000000D01*
X171900000Y-101000000D01*
X171326181Y-101286909D01*
X171270728Y-101300000D01*
X169451362Y-101300000D01*
X169384323Y-101280315D01*
X169363681Y-101263681D01*
X169236319Y-101136319D01*
X169202834Y-101074996D01*
X169200000Y-101048638D01*
X169200000Y-99666362D01*
X169219685Y-99599323D01*
X169255215Y-99563189D01*
X169468761Y-99420826D01*
X169535461Y-99400018D01*
X169537544Y-99400000D01*
X171358667Y-99400000D01*
X171425706Y-99419685D01*
G37*
%TD.AperFunction*%
%TD*%
%TA.AperFunction,Conductor*%
%TO.N,GND*%
G36*
X176100000Y-101700000D02*
G01*
X176100000Y-103700000D01*
X175700000Y-104100000D01*
X174200000Y-104100000D01*
X173700000Y-103700000D01*
X168600000Y-103700000D01*
X168300000Y-103400000D01*
X168300000Y-101800000D01*
X168700000Y-101500000D01*
X169170257Y-101500000D01*
X169171993Y-101501559D01*
X169192674Y-101518224D01*
X169198172Y-101522551D01*
X169198175Y-101522553D01*
X169298251Y-101573439D01*
X169365290Y-101593124D01*
X169451362Y-101605500D01*
X169451365Y-101605500D01*
X171270729Y-101605500D01*
X171279979Y-101604422D01*
X171340919Y-101597327D01*
X171396372Y-101584236D01*
X171462805Y-101560157D01*
X171583119Y-101500000D01*
X171700000Y-101500000D01*
X172000000Y-101400000D01*
X175800000Y-101400000D01*
X176100000Y-101700000D01*
G37*
%TD.AperFunction*%
%TD*%
%TA.AperFunction,Conductor*%
%TO.N,+3.3V*%
G36*
X165243039Y-98219685D02*
G01*
X165288794Y-98272489D01*
X165300000Y-98324000D01*
X165300000Y-102276000D01*
X165280315Y-102343039D01*
X165227511Y-102388794D01*
X165176000Y-102400000D01*
X161542887Y-102400000D01*
X161475848Y-102380315D01*
X161466277Y-102373503D01*
X160100462Y-101300363D01*
X160099610Y-101299688D01*
X159646538Y-100937230D01*
X159606486Y-100879979D01*
X159600000Y-100840402D01*
X159600000Y-98701655D01*
X159619685Y-98634616D01*
X159672489Y-98588861D01*
X159699677Y-98580064D01*
X159951684Y-98529663D01*
X160021280Y-98535818D01*
X160076502Y-98578623D01*
X160099815Y-98644488D01*
X160100000Y-98651255D01*
X160100000Y-99300000D01*
X162600000Y-99300000D01*
X162786168Y-98555326D01*
X162821524Y-98495065D01*
X162851008Y-98474495D01*
X163373818Y-98213091D01*
X163429272Y-98200000D01*
X165176000Y-98200000D01*
X165243039Y-98219685D01*
G37*
%TD.AperFunction*%
%TD*%
%TA.AperFunction,Conductor*%
%TO.N,VBUS*%
G36*
X175121279Y-93935818D02*
G01*
X175176502Y-93978623D01*
X175199815Y-94044488D01*
X175200000Y-94051255D01*
X175200000Y-99276000D01*
X175180315Y-99343039D01*
X175127511Y-99388794D01*
X175076000Y-99400000D01*
X172337544Y-99400000D01*
X172270505Y-99380315D01*
X172268761Y-99379174D01*
X171700000Y-99000000D01*
X169541333Y-99000000D01*
X169474294Y-98980315D01*
X169466933Y-98975200D01*
X169149600Y-98737200D01*
X169107779Y-98681229D01*
X169100000Y-98638000D01*
X169100000Y-97270207D01*
X169119685Y-97203168D01*
X169160203Y-97163878D01*
X169567192Y-96919685D01*
X169570548Y-96917670D01*
X169634345Y-96900000D01*
X171448638Y-96900000D01*
X171515677Y-96919685D01*
X171536319Y-96936319D01*
X172200000Y-97600000D01*
X173600000Y-97600000D01*
X174600000Y-96800000D01*
X174696502Y-94097941D01*
X174718566Y-94031651D01*
X174772969Y-93987810D01*
X174796099Y-93980780D01*
X175051683Y-93929663D01*
X175121279Y-93935818D01*
G37*
%TD.AperFunction*%
%TD*%
%TA.AperFunction,Conductor*%
%TO.N,GND*%
G36*
X177624152Y-66356630D02*
G01*
X177643772Y-66358200D01*
X177755498Y-66376156D01*
X177969416Y-66411426D01*
X177981888Y-66414150D01*
X178133105Y-66455455D01*
X178134381Y-66455812D01*
X178307943Y-66505538D01*
X178319058Y-66509302D01*
X178365234Y-66527422D01*
X178470736Y-66568823D01*
X178473107Y-66569782D01*
X178633850Y-66636719D01*
X178643579Y-66641274D01*
X178651086Y-66645194D01*
X178790239Y-66717859D01*
X178793327Y-66719528D01*
X178939541Y-66801341D01*
X178943146Y-66803358D01*
X178951433Y-66808431D01*
X179090125Y-66901002D01*
X179093836Y-66903580D01*
X179154914Y-66947711D01*
X179231971Y-67003388D01*
X179238837Y-67008725D01*
X179296968Y-67057277D01*
X179367298Y-67116018D01*
X179371516Y-67119706D01*
X179496771Y-67234362D01*
X179502246Y-67239694D01*
X179571698Y-67311657D01*
X179618689Y-67360347D01*
X179623161Y-67365237D01*
X179702241Y-67456500D01*
X179734226Y-67493413D01*
X179738445Y-67498555D01*
X179841282Y-67630965D01*
X179845800Y-67637169D01*
X179941449Y-67777447D01*
X179944512Y-67782167D01*
X179956974Y-67802355D01*
X180032425Y-67924582D01*
X180036731Y-67932139D01*
X180115842Y-68083034D01*
X180117904Y-68087151D01*
X180189772Y-68237559D01*
X180193616Y-68246488D01*
X180255255Y-68406675D01*
X180256493Y-68410036D01*
X180311415Y-68566072D01*
X180314539Y-68576351D01*
X180357929Y-68745030D01*
X180358541Y-68747514D01*
X180395854Y-68906061D01*
X180398003Y-68917629D01*
X180422510Y-69096422D01*
X180422709Y-69097944D01*
X180442053Y-69253347D01*
X180442977Y-69266102D01*
X180447374Y-69478862D01*
X180447383Y-69479373D01*
X180449429Y-69603068D01*
X180449366Y-69609581D01*
X180448673Y-69628828D01*
X180426589Y-69695116D01*
X180425934Y-69695643D01*
X180446382Y-69731765D01*
X180449633Y-69759866D01*
X180465098Y-87568463D01*
X180445472Y-87635520D01*
X180392707Y-87681321D01*
X180323558Y-87691324D01*
X180259977Y-87662354D01*
X180240091Y-87640498D01*
X180122990Y-87476052D01*
X180122979Y-87476040D01*
X179970879Y-87331014D01*
X179794074Y-87217388D01*
X179598955Y-87139274D01*
X179392586Y-87099500D01*
X179392585Y-87099500D01*
X178535075Y-87099500D01*
X178378282Y-87114472D01*
X178378278Y-87114473D01*
X178176627Y-87173683D01*
X177989813Y-87269991D01*
X177824616Y-87399905D01*
X177824612Y-87399909D01*
X177686978Y-87558746D01*
X177581898Y-87740750D01*
X177513156Y-87939365D01*
X177513156Y-87939367D01*
X177485043Y-88134904D01*
X177483246Y-88147401D01*
X177486860Y-88223267D01*
X177487000Y-88229167D01*
X177487000Y-88454600D01*
X177467315Y-88521639D01*
X177414511Y-88567394D01*
X177345353Y-88577338D01*
X177281797Y-88548313D01*
X177261425Y-88525723D01*
X177179876Y-88409259D01*
X177179871Y-88409253D01*
X177028245Y-88257627D01*
X176852590Y-88134631D01*
X176755419Y-88089320D01*
X176658247Y-88044008D01*
X176658243Y-88044007D01*
X176658239Y-88044005D01*
X176451124Y-87988509D01*
X176451120Y-87988508D01*
X176451119Y-87988508D01*
X176451118Y-87988507D01*
X176451113Y-87988507D01*
X176237502Y-87969819D01*
X176237498Y-87969819D01*
X176023886Y-87988507D01*
X176023875Y-87988509D01*
X175816760Y-88044005D01*
X175816751Y-88044009D01*
X175622410Y-88134631D01*
X175622408Y-88134632D01*
X175446759Y-88257623D01*
X175446753Y-88257628D01*
X175295128Y-88409253D01*
X175295123Y-88409259D01*
X175172132Y-88584908D01*
X175172131Y-88584910D01*
X175105115Y-88728627D01*
X175083931Y-88774058D01*
X175081509Y-88779251D01*
X175081505Y-88779260D01*
X175026009Y-88986375D01*
X175026007Y-88986386D01*
X175007319Y-89199998D01*
X175007319Y-89200001D01*
X175026007Y-89413613D01*
X175026009Y-89413624D01*
X175081505Y-89620739D01*
X175081507Y-89620743D01*
X175081508Y-89620747D01*
X175113542Y-89689444D01*
X175172131Y-89815090D01*
X175295127Y-89990745D01*
X175298605Y-89994889D01*
X175297228Y-89996043D01*
X175326868Y-90050324D01*
X175327319Y-90100873D01*
X175312500Y-90175371D01*
X175312500Y-90294014D01*
X175323113Y-90313451D01*
X175318129Y-90383143D01*
X175276258Y-90439075D01*
X175204955Y-90492452D01*
X175204952Y-90492455D01*
X175118706Y-90607664D01*
X175118702Y-90607671D01*
X175078068Y-90716619D01*
X175068409Y-90742517D01*
X175062000Y-90802127D01*
X175062000Y-90931144D01*
X175062001Y-91000499D01*
X175042317Y-91067539D01*
X174989513Y-91113294D01*
X174938001Y-91124500D01*
X168549500Y-91124500D01*
X168482461Y-91104815D01*
X168436706Y-91052011D01*
X168425500Y-91000500D01*
X168425500Y-90468386D01*
X168425500Y-90468384D01*
X168419086Y-90397804D01*
X168376578Y-90261388D01*
X168375428Y-90191528D01*
X168412229Y-90132136D01*
X168475298Y-90102068D01*
X168493671Y-90100602D01*
X168494651Y-90100499D01*
X168494653Y-90100499D01*
X168679810Y-90061143D01*
X168852737Y-89984150D01*
X169005878Y-89872887D01*
X169132540Y-89732215D01*
X169227186Y-89568283D01*
X169285681Y-89388255D01*
X169303328Y-89220344D01*
X169329912Y-89155731D01*
X169338959Y-89145635D01*
X172072778Y-86411819D01*
X172134101Y-86378334D01*
X172160459Y-86375500D01*
X172791691Y-86375500D01*
X172858730Y-86395185D01*
X172879372Y-86411819D01*
X172885629Y-86418076D01*
X172885633Y-86418079D01*
X172885635Y-86418081D01*
X173027102Y-86501744D01*
X173030520Y-86502737D01*
X173184926Y-86547597D01*
X173184929Y-86547597D01*
X173184931Y-86547598D01*
X173221806Y-86550500D01*
X173221814Y-86550500D01*
X174528186Y-86550500D01*
X174528194Y-86550500D01*
X174565069Y-86547598D01*
X174565071Y-86547597D01*
X174565073Y-86547597D01*
X174621060Y-86531331D01*
X174722898Y-86501744D01*
X174864365Y-86418081D01*
X174980581Y-86301865D01*
X175064244Y-86160398D01*
X175110098Y-86002569D01*
X175113000Y-85965694D01*
X175113000Y-85534306D01*
X175110098Y-85497431D01*
X175104052Y-85476622D01*
X175064245Y-85339606D01*
X175064244Y-85339603D01*
X175064244Y-85339602D01*
X174980581Y-85198135D01*
X174980579Y-85198133D01*
X174980576Y-85198129D01*
X174864370Y-85081923D01*
X174864362Y-85081917D01*
X174741801Y-85009435D01*
X174722898Y-84998256D01*
X174722897Y-84998255D01*
X174722896Y-84998255D01*
X174722893Y-84998254D01*
X174565073Y-84952402D01*
X174565067Y-84952401D01*
X174528201Y-84949500D01*
X174528194Y-84949500D01*
X173362000Y-84949500D01*
X173294961Y-84929815D01*
X173249206Y-84877011D01*
X173238000Y-84825500D01*
X173238000Y-84774500D01*
X173257685Y-84707461D01*
X173310489Y-84661706D01*
X173362000Y-84650500D01*
X174528186Y-84650500D01*
X174528194Y-84650500D01*
X174565069Y-84647598D01*
X174565071Y-84647597D01*
X174565073Y-84647597D01*
X174624550Y-84630317D01*
X174722898Y-84601744D01*
X174864365Y-84518081D01*
X174980581Y-84401865D01*
X175064244Y-84260398D01*
X175110098Y-84102569D01*
X175113000Y-84065694D01*
X175113000Y-83634306D01*
X175110098Y-83597431D01*
X175088049Y-83521540D01*
X175064245Y-83439606D01*
X175064244Y-83439603D01*
X175064244Y-83439602D01*
X174980581Y-83298135D01*
X174980579Y-83298133D01*
X174980576Y-83298129D01*
X174864370Y-83181923D01*
X174864362Y-83181917D01*
X174722896Y-83098255D01*
X174722893Y-83098254D01*
X174589905Y-83059617D01*
X174531019Y-83022011D01*
X174501813Y-82958538D01*
X174500500Y-82940541D01*
X174500500Y-74407742D01*
X174502224Y-74392122D01*
X174501939Y-74392096D01*
X174502671Y-74384340D01*
X174502673Y-74384333D01*
X174500561Y-74317126D01*
X174500500Y-74313231D01*
X174500500Y-74285654D01*
X174500500Y-74285650D01*
X174499996Y-74281665D01*
X174499080Y-74270021D01*
X174497709Y-74226373D01*
X174492122Y-74207144D01*
X174488174Y-74188084D01*
X174488094Y-74187450D01*
X174485664Y-74168208D01*
X174485663Y-74168206D01*
X174485663Y-74168204D01*
X174469588Y-74127604D01*
X174465804Y-74116552D01*
X174453618Y-74074609D01*
X174453616Y-74074606D01*
X174443423Y-74057371D01*
X174434861Y-74039894D01*
X174427487Y-74021269D01*
X174417929Y-74008114D01*
X174401811Y-73985930D01*
X174395405Y-73976177D01*
X174373170Y-73938580D01*
X174373168Y-73938578D01*
X174373165Y-73938574D01*
X174359006Y-73924415D01*
X174346368Y-73909619D01*
X174334594Y-73893413D01*
X174300940Y-73865572D01*
X174292299Y-73857709D01*
X171286818Y-70852227D01*
X171253333Y-70790904D01*
X171250499Y-70764546D01*
X171250499Y-69700000D01*
X174095194Y-69700000D01*
X174114401Y-70042025D01*
X174114403Y-70042037D01*
X174171783Y-70379754D01*
X174171785Y-70379762D01*
X174266619Y-70708935D01*
X174397711Y-71025424D01*
X174397713Y-71025428D01*
X174563422Y-71325255D01*
X174761660Y-71604646D01*
X174906500Y-71766720D01*
X174906501Y-71766721D01*
X175933697Y-70739524D01*
X176015130Y-70834870D01*
X176110474Y-70916301D01*
X175083278Y-71943498D01*
X175245353Y-72088339D01*
X175524744Y-72286577D01*
X175824571Y-72452286D01*
X175824575Y-72452288D01*
X176141064Y-72583380D01*
X176470237Y-72678214D01*
X176470245Y-72678216D01*
X176807962Y-72735596D01*
X176807974Y-72735598D01*
X177150000Y-72754805D01*
X177492025Y-72735598D01*
X177492037Y-72735596D01*
X177829754Y-72678216D01*
X177829762Y-72678214D01*
X178158935Y-72583380D01*
X178475424Y-72452288D01*
X178475428Y-72452286D01*
X178775255Y-72286577D01*
X179054641Y-72088342D01*
X179216720Y-71943497D01*
X178189524Y-70916301D01*
X178284870Y-70834870D01*
X178366301Y-70739524D01*
X179393497Y-71766720D01*
X179538342Y-71604641D01*
X179736577Y-71325255D01*
X179902286Y-71025428D01*
X179902288Y-71025424D01*
X180033380Y-70708935D01*
X180128214Y-70379762D01*
X180128216Y-70379754D01*
X180185596Y-70042037D01*
X180185598Y-70042025D01*
X180201828Y-69753021D01*
X180224657Y-69688830D01*
X180204596Y-69654997D01*
X180200948Y-69631318D01*
X180185598Y-69357975D01*
X180185596Y-69357962D01*
X180128216Y-69020245D01*
X180128214Y-69020237D01*
X180033380Y-68691064D01*
X179902288Y-68374575D01*
X179902286Y-68374571D01*
X179736577Y-68074744D01*
X179538339Y-67795353D01*
X179393498Y-67633278D01*
X178366301Y-68660474D01*
X178284870Y-68565130D01*
X178189524Y-68483698D01*
X179216721Y-67456501D01*
X179216720Y-67456500D01*
X179054646Y-67311660D01*
X178775255Y-67113422D01*
X178475428Y-66947713D01*
X178475424Y-66947711D01*
X178158935Y-66816619D01*
X177829762Y-66721785D01*
X177829754Y-66721783D01*
X177492037Y-66664403D01*
X177492025Y-66664401D01*
X177150000Y-66645194D01*
X176807974Y-66664401D01*
X176807962Y-66664403D01*
X176470245Y-66721783D01*
X176470237Y-66721785D01*
X176141064Y-66816619D01*
X175824575Y-66947711D01*
X175824571Y-66947713D01*
X175524744Y-67113422D01*
X175245358Y-67311657D01*
X175083278Y-67456501D01*
X176110475Y-68483698D01*
X176015130Y-68565130D01*
X175933698Y-68660475D01*
X174906501Y-67633278D01*
X174761657Y-67795358D01*
X174563422Y-68074744D01*
X174397713Y-68374571D01*
X174397711Y-68374575D01*
X174266619Y-68691064D01*
X174171785Y-69020237D01*
X174171783Y-69020245D01*
X174114403Y-69357962D01*
X174114401Y-69357974D01*
X174095194Y-69700000D01*
X171250499Y-69700000D01*
X171250499Y-69452129D01*
X171250498Y-69452123D01*
X171249465Y-69442517D01*
X171244091Y-69392517D01*
X171242810Y-69389083D01*
X171193797Y-69257671D01*
X171193793Y-69257664D01*
X171107547Y-69142455D01*
X171107544Y-69142452D01*
X170992335Y-69056206D01*
X170992328Y-69056202D01*
X170857482Y-69005908D01*
X170857483Y-69005908D01*
X170797883Y-68999501D01*
X170797881Y-68999500D01*
X170797873Y-68999500D01*
X170797864Y-68999500D01*
X169002129Y-68999500D01*
X169002123Y-68999501D01*
X168942516Y-69005908D01*
X168807671Y-69056202D01*
X168807664Y-69056206D01*
X168692455Y-69142452D01*
X168692452Y-69142455D01*
X168606206Y-69257664D01*
X168606203Y-69257669D01*
X168557189Y-69389083D01*
X168515317Y-69445016D01*
X168449853Y-69469433D01*
X168381580Y-69454581D01*
X168353326Y-69433430D01*
X168231402Y-69311506D01*
X168231395Y-69311501D01*
X168225922Y-69307669D01*
X168154518Y-69257671D01*
X168037834Y-69175967D01*
X168037830Y-69175965D01*
X168022722Y-69168920D01*
X167823663Y-69076097D01*
X167823659Y-69076096D01*
X167823655Y-69076094D01*
X167595413Y-69014938D01*
X167595403Y-69014936D01*
X167360001Y-68994341D01*
X167359999Y-68994341D01*
X167124596Y-69014936D01*
X167124586Y-69014938D01*
X166896344Y-69076094D01*
X166896335Y-69076098D01*
X166682171Y-69175964D01*
X166682169Y-69175965D01*
X166488597Y-69311505D01*
X166321505Y-69478597D01*
X166191575Y-69664158D01*
X166136998Y-69707783D01*
X166067500Y-69714977D01*
X166005145Y-69683454D01*
X165988425Y-69664158D01*
X165858494Y-69478597D01*
X165691402Y-69311506D01*
X165691395Y-69311501D01*
X165685922Y-69307669D01*
X165614518Y-69257671D01*
X165497834Y-69175967D01*
X165497830Y-69175965D01*
X165482722Y-69168920D01*
X165283663Y-69076097D01*
X165283659Y-69076096D01*
X165283655Y-69076094D01*
X165055413Y-69014938D01*
X165055403Y-69014936D01*
X164820001Y-68994341D01*
X164819999Y-68994341D01*
X164584596Y-69014936D01*
X164584586Y-69014938D01*
X164356344Y-69076094D01*
X164356335Y-69076098D01*
X164142171Y-69175964D01*
X164142169Y-69175965D01*
X163948597Y-69311505D01*
X163781505Y-69478597D01*
X163645965Y-69672169D01*
X163645964Y-69672171D01*
X163546098Y-69886335D01*
X163546095Y-69886341D01*
X163537060Y-69920063D01*
X163500695Y-69979723D01*
X163437848Y-70010252D01*
X163368472Y-70001957D01*
X163314594Y-69957472D01*
X163306285Y-69943241D01*
X163219245Y-69768443D01*
X163096391Y-69605757D01*
X162945739Y-69468421D01*
X162772415Y-69361102D01*
X162582321Y-69287460D01*
X162405000Y-69254312D01*
X162405000Y-69862830D01*
X162315763Y-69850000D01*
X162244237Y-69850000D01*
X162155000Y-69862830D01*
X162155000Y-69254312D01*
X161977678Y-69287460D01*
X161787584Y-69361102D01*
X161614260Y-69468421D01*
X161463608Y-69605757D01*
X161340754Y-69768443D01*
X161249886Y-69950930D01*
X161249883Y-69950936D01*
X161194097Y-70147007D01*
X161194097Y-70147010D01*
X161186869Y-70224999D01*
X161186870Y-70225000D01*
X161795595Y-70225000D01*
X161780000Y-70278111D01*
X161780000Y-70421889D01*
X161795595Y-70475000D01*
X161186870Y-70475000D01*
X161194097Y-70552989D01*
X161194097Y-70552992D01*
X161249883Y-70749063D01*
X161249886Y-70749069D01*
X161340754Y-70931556D01*
X161463608Y-71094242D01*
X161614260Y-71231578D01*
X161787584Y-71338897D01*
X161977678Y-71412539D01*
X162155000Y-71445686D01*
X162155000Y-70837169D01*
X162244237Y-70850000D01*
X162315763Y-70850000D01*
X162405000Y-70837169D01*
X162405000Y-71445686D01*
X162582321Y-71412539D01*
X162772415Y-71338897D01*
X162945739Y-71231578D01*
X163096391Y-71094242D01*
X163219245Y-70931556D01*
X163306285Y-70756758D01*
X163353788Y-70705521D01*
X163421451Y-70688100D01*
X163487791Y-70710026D01*
X163531746Y-70764337D01*
X163537060Y-70779937D01*
X163546094Y-70813655D01*
X163546096Y-70813659D01*
X163546097Y-70813663D01*
X163569413Y-70863664D01*
X163645965Y-71027830D01*
X163645967Y-71027834D01*
X163754281Y-71182521D01*
X163781505Y-71221401D01*
X163948599Y-71388495D01*
X164030276Y-71445686D01*
X164142165Y-71524032D01*
X164142167Y-71524033D01*
X164142170Y-71524035D01*
X164356337Y-71623903D01*
X164356343Y-71623904D01*
X164356344Y-71623905D01*
X164411285Y-71638626D01*
X164584592Y-71685063D01*
X164761034Y-71700500D01*
X164819999Y-71705659D01*
X164820000Y-71705659D01*
X164820001Y-71705659D01*
X164878966Y-71700500D01*
X165055408Y-71685063D01*
X165283663Y-71623903D01*
X165497830Y-71524035D01*
X165691401Y-71388495D01*
X165858495Y-71221401D01*
X165988425Y-71035842D01*
X166043002Y-70992217D01*
X166112500Y-70985023D01*
X166174855Y-71016546D01*
X166191575Y-71035842D01*
X166321500Y-71221395D01*
X166321505Y-71221401D01*
X166488599Y-71388495D01*
X166681624Y-71523653D01*
X166725248Y-71578228D01*
X166734500Y-71625226D01*
X166734500Y-74432810D01*
X166714815Y-74499849D01*
X166662011Y-74545604D01*
X166592853Y-74555548D01*
X166529297Y-74526523D01*
X166511546Y-74507537D01*
X166450815Y-74427117D01*
X166406841Y-74368886D01*
X166248722Y-74224742D01*
X166248716Y-74224738D01*
X166248713Y-74224736D01*
X166066813Y-74112108D01*
X166066807Y-74112106D01*
X165867297Y-74034815D01*
X165656980Y-73995500D01*
X165443020Y-73995500D01*
X165232703Y-74034815D01*
X165129991Y-74074606D01*
X165033192Y-74112106D01*
X165033186Y-74112108D01*
X164851286Y-74224736D01*
X164851283Y-74224738D01*
X164851279Y-74224740D01*
X164851278Y-74224742D01*
X164749937Y-74317126D01*
X164693158Y-74368887D01*
X164564219Y-74539629D01*
X164468849Y-74731158D01*
X164468846Y-74731164D01*
X164419266Y-74905424D01*
X164381987Y-74964517D01*
X164318678Y-74994075D01*
X164249438Y-74984713D01*
X164196251Y-74939403D01*
X164180734Y-74905424D01*
X164131153Y-74731164D01*
X164131150Y-74731158D01*
X164049803Y-74567791D01*
X164035781Y-74539630D01*
X163906841Y-74368886D01*
X163748722Y-74224742D01*
X163748716Y-74224738D01*
X163748713Y-74224736D01*
X163566813Y-74112108D01*
X163566807Y-74112106D01*
X163367297Y-74034815D01*
X163156980Y-73995500D01*
X162943020Y-73995500D01*
X162732703Y-74034815D01*
X162629991Y-74074606D01*
X162533192Y-74112106D01*
X162533186Y-74112109D01*
X162399834Y-74194676D01*
X162332473Y-74213231D01*
X162265774Y-74192423D01*
X162246876Y-74176930D01*
X158936818Y-70866872D01*
X158903333Y-70805549D01*
X158900499Y-70779191D01*
X158900499Y-69502129D01*
X158900498Y-69502123D01*
X158897969Y-69478599D01*
X158895124Y-69452123D01*
X158894091Y-69442516D01*
X158843797Y-69307671D01*
X158843793Y-69307664D01*
X158757547Y-69192455D01*
X158757544Y-69192452D01*
X158642335Y-69106206D01*
X158642328Y-69106202D01*
X158507482Y-69055908D01*
X158507483Y-69055908D01*
X158447883Y-69049501D01*
X158447881Y-69049500D01*
X158447873Y-69049500D01*
X158447864Y-69049500D01*
X156652129Y-69049500D01*
X156652123Y-69049501D01*
X156592516Y-69055908D01*
X156457671Y-69106202D01*
X156457664Y-69106206D01*
X156342455Y-69192452D01*
X156342452Y-69192455D01*
X156256206Y-69307664D01*
X156256203Y-69307669D01*
X156207189Y-69439083D01*
X156165317Y-69495016D01*
X156099853Y-69519433D01*
X156031580Y-69504581D01*
X156003326Y-69483430D01*
X155881402Y-69361506D01*
X155881395Y-69361501D01*
X155876359Y-69357975D01*
X155804518Y-69307671D01*
X155687834Y-69225967D01*
X155687830Y-69225965D01*
X155640820Y-69204044D01*
X155473663Y-69126097D01*
X155473659Y-69126096D01*
X155473655Y-69126094D01*
X155245413Y-69064938D01*
X155245403Y-69064936D01*
X155010001Y-69044341D01*
X155009999Y-69044341D01*
X154774596Y-69064936D01*
X154774586Y-69064938D01*
X154546344Y-69126094D01*
X154546335Y-69126098D01*
X154332171Y-69225964D01*
X154332169Y-69225965D01*
X154138597Y-69361505D01*
X153971505Y-69528597D01*
X153841575Y-69714158D01*
X153786998Y-69757783D01*
X153717500Y-69764977D01*
X153655145Y-69733454D01*
X153638425Y-69714158D01*
X153508494Y-69528597D01*
X153341402Y-69361506D01*
X153341395Y-69361501D01*
X153336359Y-69357975D01*
X153264518Y-69307671D01*
X153147834Y-69225967D01*
X153147830Y-69225965D01*
X153100820Y-69204044D01*
X152933663Y-69126097D01*
X152933659Y-69126096D01*
X152933655Y-69126094D01*
X152705413Y-69064938D01*
X152705403Y-69064936D01*
X152470001Y-69044341D01*
X152469999Y-69044341D01*
X152234596Y-69064936D01*
X152234586Y-69064938D01*
X152006344Y-69126094D01*
X152006335Y-69126098D01*
X151792171Y-69225964D01*
X151792169Y-69225965D01*
X151598597Y-69361505D01*
X151431505Y-69528597D01*
X151295965Y-69722169D01*
X151295964Y-69722171D01*
X151196098Y-69936335D01*
X151196095Y-69936341D01*
X151187060Y-69970063D01*
X151150695Y-70029723D01*
X151087848Y-70060252D01*
X151018472Y-70051957D01*
X150964594Y-70007472D01*
X150956285Y-69993241D01*
X150869245Y-69818443D01*
X150746391Y-69655757D01*
X150595739Y-69518421D01*
X150422415Y-69411102D01*
X150232321Y-69337460D01*
X150055000Y-69304312D01*
X150055000Y-69912830D01*
X149965763Y-69900000D01*
X149894237Y-69900000D01*
X149805000Y-69912830D01*
X149805000Y-69304312D01*
X149627678Y-69337460D01*
X149437584Y-69411102D01*
X149264260Y-69518421D01*
X149113608Y-69655757D01*
X148990754Y-69818443D01*
X148899886Y-70000930D01*
X148899883Y-70000936D01*
X148844097Y-70197007D01*
X148844097Y-70197010D01*
X148836869Y-70274999D01*
X148836870Y-70275000D01*
X149445595Y-70275000D01*
X149430000Y-70328111D01*
X149430000Y-70471889D01*
X149445595Y-70525000D01*
X148836870Y-70525000D01*
X148844097Y-70602989D01*
X148844097Y-70602992D01*
X148899883Y-70799063D01*
X148899886Y-70799069D01*
X148990754Y-70981556D01*
X149113608Y-71144242D01*
X149264260Y-71281578D01*
X149437584Y-71388897D01*
X149627678Y-71462539D01*
X149805000Y-71495686D01*
X149805000Y-70887169D01*
X149894237Y-70900000D01*
X149965763Y-70900000D01*
X150055000Y-70887169D01*
X150055000Y-71495686D01*
X150232321Y-71462539D01*
X150422415Y-71388897D01*
X150595739Y-71281578D01*
X150746391Y-71144242D01*
X150869245Y-70981556D01*
X150956285Y-70806758D01*
X151003788Y-70755521D01*
X151071451Y-70738100D01*
X151137791Y-70760026D01*
X151181746Y-70814337D01*
X151187060Y-70829937D01*
X151196094Y-70863655D01*
X151196096Y-70863659D01*
X151196097Y-70863663D01*
X151276004Y-71035023D01*
X151295965Y-71077830D01*
X151295967Y-71077834D01*
X151332508Y-71130019D01*
X151431505Y-71271401D01*
X151598599Y-71438495D01*
X151680276Y-71495686D01*
X151792165Y-71574032D01*
X151792167Y-71574033D01*
X151792170Y-71574035D01*
X152006337Y-71673903D01*
X152234592Y-71735063D01*
X152411034Y-71750500D01*
X152469999Y-71755659D01*
X152470000Y-71755659D01*
X152470001Y-71755659D01*
X152528966Y-71750500D01*
X152705408Y-71735063D01*
X152933663Y-71673903D01*
X153147830Y-71574035D01*
X153341401Y-71438495D01*
X153508495Y-71271401D01*
X153638425Y-71085842D01*
X153693002Y-71042217D01*
X153762500Y-71035023D01*
X153824855Y-71066546D01*
X153841575Y-71085842D01*
X153971500Y-71271395D01*
X153971505Y-71271401D01*
X154138599Y-71438495D01*
X154220276Y-71495686D01*
X154332165Y-71574032D01*
X154332167Y-71574033D01*
X154332170Y-71574035D01*
X154546337Y-71673903D01*
X154774592Y-71735063D01*
X154951034Y-71750500D01*
X155009999Y-71755659D01*
X155010000Y-71755659D01*
X155010001Y-71755659D01*
X155068966Y-71750500D01*
X155245408Y-71735063D01*
X155473663Y-71673903D01*
X155687830Y-71574035D01*
X155881401Y-71438495D01*
X156003329Y-71316566D01*
X156064648Y-71283084D01*
X156134340Y-71288068D01*
X156190274Y-71329939D01*
X156207189Y-71360917D01*
X156256202Y-71492328D01*
X156256206Y-71492335D01*
X156342452Y-71607544D01*
X156342455Y-71607547D01*
X156457664Y-71693793D01*
X156457671Y-71693797D01*
X156592517Y-71744091D01*
X156592516Y-71744091D01*
X156599444Y-71744835D01*
X156652127Y-71750500D01*
X157929191Y-71750499D01*
X157996230Y-71770184D01*
X158016872Y-71786818D01*
X160121324Y-73891270D01*
X160154809Y-73952593D01*
X160149825Y-74022285D01*
X160107953Y-74078218D01*
X160078437Y-74094577D01*
X160033201Y-74112101D01*
X160033186Y-74112108D01*
X159851286Y-74224736D01*
X159851283Y-74224738D01*
X159851279Y-74224740D01*
X159851278Y-74224742D01*
X159749937Y-74317126D01*
X159693158Y-74368887D01*
X159564219Y-74539629D01*
X159468849Y-74731158D01*
X159468846Y-74731164D01*
X159410296Y-74936949D01*
X159410295Y-74936952D01*
X159390554Y-75149999D01*
X159390554Y-75150000D01*
X159410295Y-75363047D01*
X159410296Y-75363050D01*
X159468846Y-75568835D01*
X159468849Y-75568840D01*
X159564219Y-75760370D01*
X159693159Y-75931114D01*
X159851278Y-76075258D01*
X159851283Y-76075261D01*
X159851286Y-76075263D01*
X160033186Y-76187891D01*
X160033187Y-76187891D01*
X160033190Y-76187893D01*
X160232703Y-76265185D01*
X160443020Y-76304500D01*
X160443022Y-76304500D01*
X160656978Y-76304500D01*
X160656980Y-76304500D01*
X160867297Y-76265185D01*
X161066810Y-76187893D01*
X161248722Y-76075258D01*
X161363524Y-75970602D01*
X161426327Y-75939986D01*
X161495714Y-75948184D01*
X161534742Y-75974559D01*
X162643040Y-77082857D01*
X162676525Y-77144180D01*
X162671541Y-77213872D01*
X162629669Y-77269805D01*
X162600153Y-77286164D01*
X162533201Y-77312101D01*
X162533186Y-77312108D01*
X162351286Y-77424736D01*
X162351283Y-77424738D01*
X162351279Y-77424740D01*
X162351278Y-77424742D01*
X162284620Y-77485509D01*
X162193158Y-77568887D01*
X162064219Y-77739629D01*
X161968849Y-77931158D01*
X161968846Y-77931164D01*
X161910296Y-78136949D01*
X161910295Y-78136952D01*
X161890554Y-78349999D01*
X161890554Y-78350000D01*
X161905494Y-78511226D01*
X161892079Y-78579795D01*
X161869704Y-78610348D01*
X161527383Y-78952670D01*
X161466060Y-78986155D01*
X161396369Y-78981171D01*
X161340435Y-78939300D01*
X161316018Y-78873835D01*
X161330870Y-78805562D01*
X161332315Y-78802989D01*
X161380393Y-78719715D01*
X161380396Y-78719709D01*
X161439114Y-78538990D01*
X161458978Y-78350000D01*
X161439114Y-78161009D01*
X161380396Y-77980290D01*
X161380393Y-77980284D01*
X161285379Y-77815716D01*
X161285375Y-77815711D01*
X161273857Y-77802919D01*
X161273855Y-77802919D01*
X160907067Y-78169706D01*
X160877641Y-78111955D01*
X160788045Y-78022359D01*
X160730291Y-77992932D01*
X161094804Y-77628419D01*
X161094804Y-77628418D01*
X161004485Y-77562798D01*
X160830887Y-77485509D01*
X160645014Y-77446000D01*
X160454986Y-77446000D01*
X160269110Y-77485509D01*
X160095510Y-77562800D01*
X160095509Y-77562801D01*
X160005195Y-77628418D01*
X160005194Y-77628419D01*
X160369708Y-77992932D01*
X160311955Y-78022359D01*
X160222359Y-78111955D01*
X160192932Y-78169707D01*
X159826143Y-77802918D01*
X159814618Y-77815719D01*
X159719606Y-77980284D01*
X159719603Y-77980290D01*
X159660885Y-78161009D01*
X159641021Y-78350000D01*
X159660885Y-78538990D01*
X159719603Y-78719709D01*
X159719606Y-78719715D01*
X159814620Y-78884283D01*
X159826142Y-78897079D01*
X159826144Y-78897079D01*
X160192932Y-78530291D01*
X160222359Y-78588045D01*
X160311955Y-78677641D01*
X160369707Y-78707067D01*
X160005193Y-79071580D01*
X160005194Y-79071581D01*
X160095508Y-79137198D01*
X160095509Y-79137199D01*
X160269112Y-79214490D01*
X160454986Y-79254000D01*
X160645014Y-79254000D01*
X160830887Y-79214490D01*
X161003205Y-79137771D01*
X161072455Y-79128487D01*
X161135732Y-79158116D01*
X161172944Y-79217251D01*
X161172279Y-79287117D01*
X161141321Y-79338732D01*
X160376873Y-80103181D01*
X160315550Y-80136666D01*
X160289192Y-80139500D01*
X160007740Y-80139500D01*
X159940701Y-80119815D01*
X159894946Y-80067011D01*
X159889354Y-80052390D01*
X159868478Y-79985394D01*
X159780472Y-79839815D01*
X159780470Y-79839813D01*
X159780469Y-79839811D01*
X159660188Y-79719530D01*
X159514606Y-79631522D01*
X159481051Y-79621066D01*
X159352196Y-79580914D01*
X159352194Y-79580913D01*
X159352192Y-79580913D01*
X159302778Y-79576423D01*
X159281616Y-79574500D01*
X158618384Y-79574500D01*
X158599145Y-79576248D01*
X158547807Y-79580913D01*
X158385393Y-79631522D01*
X158239811Y-79719530D01*
X158119530Y-79839811D01*
X158031522Y-79985393D01*
X157980913Y-80147807D01*
X157975782Y-80204275D01*
X157974546Y-80217884D01*
X157974500Y-80218386D01*
X157974500Y-80731613D01*
X157980913Y-80802192D01*
X157980913Y-80802194D01*
X157980914Y-80802196D01*
X158031522Y-80964606D01*
X158085384Y-81053705D01*
X158119530Y-81110188D01*
X158221661Y-81212319D01*
X158255146Y-81273642D01*
X158250162Y-81343334D01*
X158221661Y-81387681D01*
X158119531Y-81489810D01*
X158119530Y-81489811D01*
X158031522Y-81635393D01*
X157980913Y-81797807D01*
X157974848Y-81864556D01*
X157949177Y-81929539D01*
X157939038Y-81941015D01*
X155687984Y-84192068D01*
X155675410Y-84202143D01*
X155675565Y-84202330D01*
X155669558Y-84207299D01*
X155621633Y-84258333D01*
X155618927Y-84261125D01*
X155598590Y-84281463D01*
X155598577Y-84281478D01*
X155595873Y-84284963D01*
X155588306Y-84293822D01*
X155557052Y-84327107D01*
X155546822Y-84345713D01*
X155536146Y-84361964D01*
X155523140Y-84378732D01*
X155523136Y-84378738D01*
X155505008Y-84420630D01*
X155499869Y-84431119D01*
X155477872Y-84471130D01*
X155477872Y-84471131D01*
X155472591Y-84491699D01*
X155466291Y-84510101D01*
X155457864Y-84529573D01*
X155450723Y-84574662D01*
X155448354Y-84586100D01*
X155437000Y-84630317D01*
X155437000Y-84651544D01*
X155435473Y-84670944D01*
X155432153Y-84691903D01*
X155436450Y-84737358D01*
X155437000Y-84749028D01*
X155437000Y-87489278D01*
X155417315Y-87556317D01*
X155364511Y-87602072D01*
X155296814Y-87612216D01*
X155267825Y-87608400D01*
X155217814Y-87601816D01*
X155153918Y-87573549D01*
X155115447Y-87515224D01*
X155110000Y-87478877D01*
X155110000Y-87425000D01*
X154705000Y-87425000D01*
X154705000Y-87485692D01*
X154685315Y-87552731D01*
X154632511Y-87598486D01*
X154563353Y-87608430D01*
X154499797Y-87579405D01*
X154493319Y-87573373D01*
X154491319Y-87571373D01*
X154457834Y-87510050D01*
X154455000Y-87483692D01*
X154455000Y-86740000D01*
X154705000Y-86740000D01*
X154705000Y-87175000D01*
X155109999Y-87175000D01*
X155109999Y-87099310D01*
X155095534Y-87007982D01*
X155039447Y-86897906D01*
X155039444Y-86897901D01*
X154952098Y-86810555D01*
X154952093Y-86810551D01*
X154842015Y-86754463D01*
X154750691Y-86740000D01*
X154705000Y-86740000D01*
X154455000Y-86740000D01*
X154409311Y-86740000D01*
X154356461Y-86748371D01*
X154287167Y-86739415D01*
X154249383Y-86713578D01*
X154155692Y-86619887D01*
X154155684Y-86619881D01*
X154043159Y-86553334D01*
X154016395Y-86537506D01*
X154016394Y-86537505D01*
X154016393Y-86537505D01*
X154016390Y-86537504D01*
X153860997Y-86492357D01*
X153860991Y-86492356D01*
X153824697Y-86489500D01*
X153824690Y-86489500D01*
X153415310Y-86489500D01*
X153415302Y-86489500D01*
X153379008Y-86492356D01*
X153379002Y-86492357D01*
X153223609Y-86537504D01*
X153223606Y-86537505D01*
X153084315Y-86619881D01*
X153084307Y-86619887D01*
X152969887Y-86734307D01*
X152969881Y-86734315D01*
X152887505Y-86873606D01*
X152887504Y-86873609D01*
X152842357Y-87029002D01*
X152842356Y-87029008D01*
X152839500Y-87065302D01*
X152839500Y-87534697D01*
X152842356Y-87570991D01*
X152842357Y-87570997D01*
X152887504Y-87726390D01*
X152887505Y-87726393D01*
X152948190Y-87829007D01*
X152969883Y-87865687D01*
X153052790Y-87948594D01*
X153065417Y-87963379D01*
X153072272Y-87972814D01*
X153078675Y-87982563D01*
X153082190Y-87988507D01*
X153101919Y-88021865D01*
X153101923Y-88021869D01*
X153116925Y-88036871D01*
X153129563Y-88051669D01*
X153142033Y-88068833D01*
X153142036Y-88068837D01*
X153177213Y-88097937D01*
X153185854Y-88105800D01*
X153400681Y-88320627D01*
X153434166Y-88381950D01*
X153437000Y-88408308D01*
X153437000Y-88425500D01*
X153417315Y-88492539D01*
X153364511Y-88538294D01*
X153313000Y-88549500D01*
X153146324Y-88549500D01*
X153079285Y-88529815D01*
X153070324Y-88523480D01*
X153065684Y-88519881D01*
X152942543Y-88447056D01*
X152926395Y-88437506D01*
X152926394Y-88437505D01*
X152926393Y-88437505D01*
X152926390Y-88437504D01*
X152770997Y-88392357D01*
X152770991Y-88392356D01*
X152734697Y-88389500D01*
X152734690Y-88389500D01*
X152325310Y-88389500D01*
X152325302Y-88389500D01*
X152289008Y-88392356D01*
X152289002Y-88392357D01*
X152133609Y-88437504D01*
X152133606Y-88437505D01*
X151994315Y-88519881D01*
X151994307Y-88519887D01*
X151900617Y-88613578D01*
X151839294Y-88647063D01*
X151793539Y-88648370D01*
X151740691Y-88640000D01*
X151695000Y-88640000D01*
X151695000Y-89201000D01*
X151675315Y-89268039D01*
X151622511Y-89313794D01*
X151571000Y-89325000D01*
X151040001Y-89325000D01*
X151040001Y-89400689D01*
X151054465Y-89492017D01*
X151110552Y-89602093D01*
X151110555Y-89602098D01*
X151197901Y-89689444D01*
X151197906Y-89689448D01*
X151307984Y-89745536D01*
X151396140Y-89759499D01*
X151459275Y-89789428D01*
X151496206Y-89848740D01*
X151495208Y-89918603D01*
X151491303Y-89929424D01*
X151451814Y-90024760D01*
X151451813Y-90024764D01*
X151437000Y-90137272D01*
X151437000Y-90362727D01*
X151452874Y-90483292D01*
X151449899Y-90483683D01*
X151449899Y-90516316D01*
X151452874Y-90516708D01*
X151437000Y-90637272D01*
X151437000Y-90753047D01*
X151417315Y-90820086D01*
X151364511Y-90865841D01*
X151295353Y-90875785D01*
X151231797Y-90846760D01*
X151225319Y-90840728D01*
X149459591Y-89075000D01*
X151040000Y-89075000D01*
X151445000Y-89075000D01*
X151445000Y-88640000D01*
X151399311Y-88640000D01*
X151307982Y-88654465D01*
X151197906Y-88710552D01*
X151197901Y-88710555D01*
X151110555Y-88797901D01*
X151110551Y-88797906D01*
X151054463Y-88907984D01*
X151040000Y-88999308D01*
X151040000Y-89075000D01*
X149459591Y-89075000D01*
X149441819Y-89057228D01*
X149408334Y-88995905D01*
X149405500Y-88969547D01*
X149405500Y-88739878D01*
X149425185Y-88672839D01*
X149429480Y-88666763D01*
X149430115Y-88665688D01*
X149430117Y-88665687D01*
X149512494Y-88526395D01*
X149554460Y-88381950D01*
X149557642Y-88370997D01*
X149557643Y-88370991D01*
X149560499Y-88334697D01*
X149560500Y-88334690D01*
X149560500Y-87865310D01*
X149557643Y-87829007D01*
X149551535Y-87807984D01*
X149512495Y-87673609D01*
X149512494Y-87673606D01*
X149512494Y-87673605D01*
X149430117Y-87534313D01*
X149430115Y-87534311D01*
X149430112Y-87534307D01*
X149361819Y-87466014D01*
X149328334Y-87404691D01*
X149325500Y-87378333D01*
X149325500Y-85624176D01*
X149345185Y-85557137D01*
X149370833Y-85528325D01*
X149479305Y-85439305D01*
X149609331Y-85280868D01*
X149705948Y-85100109D01*
X149765445Y-84903974D01*
X149785535Y-84700000D01*
X149765445Y-84496026D01*
X149705948Y-84299891D01*
X149705946Y-84299888D01*
X149705946Y-84299886D01*
X149609332Y-84119133D01*
X149609330Y-84119130D01*
X149479305Y-83960694D01*
X149320869Y-83830669D01*
X149320866Y-83830667D01*
X149140113Y-83734053D01*
X148943972Y-83674554D01*
X148740000Y-83654465D01*
X148536027Y-83674554D01*
X148339886Y-83734053D01*
X148159133Y-83830667D01*
X148159130Y-83830669D01*
X148000694Y-83960694D01*
X147870669Y-84119130D01*
X147870667Y-84119133D01*
X147774053Y-84299886D01*
X147714554Y-84496027D01*
X147694465Y-84700000D01*
X147714554Y-84903972D01*
X147774053Y-85100113D01*
X147870667Y-85280866D01*
X147870669Y-85280869D01*
X148000693Y-85439303D01*
X148000695Y-85439305D01*
X148029164Y-85462669D01*
X148068498Y-85520412D01*
X148074500Y-85558522D01*
X148074500Y-87416000D01*
X148054815Y-87483039D01*
X148002011Y-87528794D01*
X147950500Y-87540000D01*
X147945000Y-87540000D01*
X147945000Y-88101000D01*
X147925315Y-88168039D01*
X147872511Y-88213794D01*
X147821000Y-88225000D01*
X147290001Y-88225000D01*
X147290001Y-88300689D01*
X147304465Y-88392017D01*
X147356532Y-88494205D01*
X147369428Y-88562875D01*
X147343152Y-88627615D01*
X147286045Y-88667872D01*
X147246047Y-88674500D01*
X147090453Y-88674500D01*
X147023414Y-88654815D01*
X147002772Y-88638181D01*
X146396819Y-88032228D01*
X146365570Y-87975000D01*
X147290000Y-87975000D01*
X147695000Y-87975000D01*
X147695000Y-87540000D01*
X147649311Y-87540000D01*
X147557982Y-87554465D01*
X147447906Y-87610552D01*
X147447901Y-87610555D01*
X147360555Y-87697901D01*
X147360551Y-87697906D01*
X147304463Y-87807984D01*
X147290000Y-87899308D01*
X147290000Y-87975000D01*
X146365570Y-87975000D01*
X146363334Y-87970905D01*
X146360500Y-87944547D01*
X146360500Y-87865317D01*
X146360499Y-87865302D01*
X146357643Y-87829008D01*
X146357642Y-87829002D01*
X146312495Y-87673609D01*
X146312494Y-87673606D01*
X146312494Y-87673605D01*
X146244567Y-87558746D01*
X146226146Y-87527598D01*
X146227789Y-87526626D01*
X146205984Y-87471070D01*
X146205500Y-87460121D01*
X146205500Y-86502737D01*
X146207224Y-86487123D01*
X146206938Y-86487096D01*
X146207672Y-86479333D01*
X146205561Y-86412144D01*
X146205500Y-86408250D01*
X146205500Y-86380651D01*
X146205500Y-86380650D01*
X146204997Y-86376670D01*
X146204080Y-86365021D01*
X146203593Y-86349518D01*
X146202709Y-86321373D01*
X146198368Y-86306434D01*
X146197121Y-86302139D01*
X146193174Y-86283081D01*
X146192852Y-86280529D01*
X146190664Y-86263208D01*
X146187186Y-86254424D01*
X146174583Y-86222592D01*
X146170799Y-86211539D01*
X146158618Y-86169615D01*
X146158617Y-86169610D01*
X146148420Y-86152368D01*
X146139863Y-86134902D01*
X146132486Y-86116268D01*
X146106809Y-86080926D01*
X146100412Y-86071190D01*
X146078170Y-86033579D01*
X146078167Y-86033576D01*
X146078165Y-86033573D01*
X146064005Y-86019413D01*
X146051370Y-86004620D01*
X146041982Y-85991700D01*
X146039594Y-85988413D01*
X146012140Y-85965701D01*
X146005945Y-85960576D01*
X145997304Y-85952713D01*
X144932574Y-84887983D01*
X144899089Y-84826660D01*
X144896852Y-84788151D01*
X144905535Y-84700000D01*
X144885445Y-84496026D01*
X144825948Y-84299891D01*
X144825946Y-84299888D01*
X144825946Y-84299886D01*
X144729332Y-84119133D01*
X144729330Y-84119130D01*
X144599305Y-83960694D01*
X144440869Y-83830669D01*
X144440866Y-83830667D01*
X144260113Y-83734053D01*
X144063972Y-83674554D01*
X143860000Y-83654465D01*
X143656027Y-83674554D01*
X143459886Y-83734053D01*
X143279133Y-83830667D01*
X143279130Y-83830669D01*
X143120694Y-83960694D01*
X142990669Y-84119130D01*
X142990667Y-84119133D01*
X142894053Y-84299886D01*
X142834554Y-84496027D01*
X142814465Y-84700000D01*
X142834554Y-84903972D01*
X142894053Y-85100113D01*
X142990667Y-85280866D01*
X142990669Y-85280869D01*
X143120694Y-85439305D01*
X143279130Y-85569330D01*
X143279133Y-85569332D01*
X143459886Y-85665946D01*
X143459888Y-85665946D01*
X143459891Y-85665948D01*
X143656026Y-85725445D01*
X143860000Y-85745535D01*
X143948150Y-85736852D01*
X144016794Y-85749870D01*
X144047984Y-85772574D01*
X144918181Y-86642771D01*
X144951666Y-86704094D01*
X144954500Y-86730452D01*
X144954500Y-87420759D01*
X144934815Y-87487798D01*
X144882011Y-87533553D01*
X144812853Y-87543497D01*
X144811107Y-87543233D01*
X144790690Y-87540000D01*
X144745000Y-87540000D01*
X144745000Y-88659999D01*
X144790693Y-88659999D01*
X144843536Y-88651629D01*
X144912830Y-88660583D01*
X144950616Y-88686421D01*
X145044307Y-88780112D01*
X145044311Y-88780115D01*
X145044313Y-88780117D01*
X145183605Y-88862494D01*
X145224587Y-88874400D01*
X145339002Y-88907642D01*
X145339005Y-88907642D01*
X145339007Y-88907643D01*
X145375310Y-88910500D01*
X145454548Y-88910500D01*
X145521587Y-88930185D01*
X145542228Y-88946818D01*
X145915919Y-89320510D01*
X146279197Y-89683788D01*
X146289022Y-89696051D01*
X146289243Y-89695869D01*
X146294211Y-89701874D01*
X146343222Y-89747899D01*
X146346021Y-89750612D01*
X146365522Y-89770114D01*
X146365526Y-89770117D01*
X146365529Y-89770120D01*
X146368702Y-89772581D01*
X146377574Y-89780159D01*
X146409418Y-89810062D01*
X146426976Y-89819714D01*
X146443235Y-89830395D01*
X146459064Y-89842673D01*
X146499155Y-89860021D01*
X146509626Y-89865151D01*
X146523698Y-89872887D01*
X146547902Y-89886194D01*
X146547904Y-89886195D01*
X146547908Y-89886197D01*
X146567316Y-89891180D01*
X146585719Y-89897481D01*
X146604101Y-89905436D01*
X146604102Y-89905436D01*
X146604104Y-89905437D01*
X146647250Y-89912270D01*
X146658672Y-89914636D01*
X146700981Y-89925500D01*
X146721016Y-89925500D01*
X146740414Y-89927026D01*
X146760194Y-89930159D01*
X146760195Y-89930160D01*
X146760195Y-89930159D01*
X146760196Y-89930160D01*
X146803675Y-89926050D01*
X146815344Y-89925500D01*
X147853152Y-89925500D01*
X147920191Y-89945185D01*
X147940833Y-89961819D01*
X150886681Y-92907667D01*
X150920166Y-92968990D01*
X150915182Y-93038682D01*
X150873310Y-93094615D01*
X150855296Y-93105832D01*
X150747908Y-93160550D01*
X150747901Y-93160555D01*
X150660555Y-93247901D01*
X150660551Y-93247906D01*
X150604463Y-93357984D01*
X150590000Y-93449308D01*
X150590000Y-93495000D01*
X151025475Y-93495000D01*
X151092514Y-93514685D01*
X151138269Y-93567489D01*
X151148213Y-93636647D01*
X151119188Y-93700203D01*
X151088596Y-93725731D01*
X151085210Y-93727734D01*
X151022093Y-93745000D01*
X150590001Y-93745000D01*
X150590001Y-93790689D01*
X150593234Y-93811103D01*
X150584278Y-93880397D01*
X150539281Y-93933848D01*
X150472529Y-93954487D01*
X150470760Y-93954500D01*
X148002743Y-93954500D01*
X147987122Y-93952775D01*
X147987095Y-93953061D01*
X147979333Y-93952326D01*
X147912113Y-93954439D01*
X147908219Y-93954500D01*
X147880650Y-93954500D01*
X147876673Y-93955002D01*
X147865042Y-93955917D01*
X147821374Y-93957289D01*
X147821368Y-93957290D01*
X147802126Y-93962880D01*
X147783087Y-93966823D01*
X147763217Y-93969334D01*
X147763203Y-93969337D01*
X147722598Y-93985413D01*
X147711554Y-93989194D01*
X147669614Y-94001379D01*
X147669610Y-94001381D01*
X147652366Y-94011579D01*
X147634905Y-94020133D01*
X147616274Y-94027510D01*
X147616262Y-94027517D01*
X147580933Y-94053185D01*
X147571173Y-94059596D01*
X147533580Y-94081829D01*
X147519414Y-94095995D01*
X147504624Y-94108627D01*
X147488414Y-94120404D01*
X147488411Y-94120407D01*
X147460573Y-94154058D01*
X147452711Y-94162697D01*
X142616208Y-98999199D01*
X142603951Y-99009020D01*
X142604134Y-99009241D01*
X142598122Y-99014214D01*
X142552098Y-99063223D01*
X142549391Y-99066016D01*
X142529889Y-99085517D01*
X142529875Y-99085534D01*
X142527407Y-99088715D01*
X142519843Y-99097570D01*
X142489937Y-99129418D01*
X142489936Y-99129420D01*
X142480284Y-99146976D01*
X142469610Y-99163226D01*
X142457329Y-99179061D01*
X142457324Y-99179068D01*
X142439975Y-99219158D01*
X142434838Y-99229644D01*
X142413803Y-99267906D01*
X142408822Y-99287307D01*
X142402521Y-99305710D01*
X142394562Y-99324102D01*
X142394561Y-99324105D01*
X142387728Y-99367243D01*
X142385360Y-99378674D01*
X142374501Y-99420971D01*
X142374500Y-99420982D01*
X142374500Y-99441016D01*
X142372973Y-99460415D01*
X142369840Y-99480194D01*
X142369840Y-99480195D01*
X142373950Y-99523674D01*
X142374500Y-99535343D01*
X142374500Y-102723927D01*
X142354815Y-102790966D01*
X142302011Y-102836721D01*
X142232853Y-102846665D01*
X142231104Y-102846401D01*
X142190686Y-102840000D01*
X142145000Y-102840000D01*
X142145000Y-103959999D01*
X142190693Y-103959999D01*
X142243536Y-103951629D01*
X142312830Y-103960583D01*
X142350616Y-103986421D01*
X142444307Y-104080112D01*
X142444311Y-104080115D01*
X142444313Y-104080117D01*
X142583605Y-104162494D01*
X142624587Y-104174400D01*
X142739002Y-104207642D01*
X142739005Y-104207642D01*
X142739007Y-104207643D01*
X142775310Y-104210500D01*
X142775318Y-104210500D01*
X143184682Y-104210500D01*
X143184690Y-104210500D01*
X143220993Y-104207643D01*
X143220995Y-104207642D01*
X143220997Y-104207642D01*
X143261975Y-104195736D01*
X143376395Y-104162494D01*
X143515687Y-104080117D01*
X143515692Y-104080111D01*
X143521853Y-104075334D01*
X143523045Y-104076871D01*
X143575309Y-104048334D01*
X143601667Y-104045500D01*
X144627257Y-104045500D01*
X144642877Y-104047224D01*
X144642904Y-104046939D01*
X144650660Y-104047671D01*
X144650667Y-104047673D01*
X144717873Y-104045561D01*
X144721768Y-104045500D01*
X144749346Y-104045500D01*
X144749350Y-104045500D01*
X144753324Y-104044997D01*
X144764963Y-104044080D01*
X144808627Y-104042709D01*
X144827869Y-104037117D01*
X144846912Y-104033174D01*
X144866792Y-104030664D01*
X144907419Y-104014578D01*
X144918434Y-104010806D01*
X144936973Y-104005420D01*
X144971561Y-104000499D01*
X145873888Y-104000499D01*
X145986151Y-103985720D01*
X145986150Y-103985720D01*
X145986159Y-103985719D01*
X146125853Y-103927856D01*
X146245810Y-103835810D01*
X146337856Y-103715853D01*
X146395719Y-103576159D01*
X146410500Y-103463887D01*
X146410499Y-103394450D01*
X146430183Y-103327413D01*
X146482986Y-103281657D01*
X146552144Y-103271713D01*
X146615700Y-103300737D01*
X146622180Y-103306770D01*
X151917465Y-108602057D01*
X151950950Y-108663380D01*
X151945966Y-108733072D01*
X151904094Y-108789005D01*
X151838630Y-108813422D01*
X151806999Y-108811627D01*
X151731425Y-108797500D01*
X151508575Y-108797500D01*
X151289507Y-108838450D01*
X151081703Y-108918953D01*
X151081702Y-108918954D01*
X150892226Y-109036274D01*
X150892225Y-109036274D01*
X150861270Y-109064493D01*
X151222447Y-109425670D01*
X151153407Y-109473325D01*
X151042141Y-109598918D01*
X150685410Y-109242187D01*
X150593235Y-109364249D01*
X150493899Y-109563742D01*
X150432910Y-109778099D01*
X150412348Y-110000000D01*
X150432910Y-110221900D01*
X150493899Y-110436257D01*
X150593230Y-110635740D01*
X150593235Y-110635747D01*
X150685411Y-110757811D01*
X151042141Y-110401081D01*
X151153407Y-110526675D01*
X151222446Y-110574329D01*
X150861270Y-110935505D01*
X150892228Y-110963727D01*
X151081701Y-111081045D01*
X151081703Y-111081046D01*
X151289507Y-111161549D01*
X151508575Y-111202500D01*
X151731425Y-111202500D01*
X151950492Y-111161549D01*
X152158296Y-111081046D01*
X152158298Y-111081045D01*
X152347771Y-110963728D01*
X152347771Y-110963727D01*
X152378729Y-110935505D01*
X152017552Y-110574329D01*
X152086593Y-110526675D01*
X152197858Y-110401081D01*
X152554587Y-110757811D01*
X152554588Y-110757811D01*
X152646764Y-110635750D01*
X152746100Y-110436257D01*
X152807089Y-110221900D01*
X152827651Y-110000000D01*
X152809525Y-109804391D01*
X152822940Y-109735821D01*
X152871296Y-109685389D01*
X152939242Y-109669106D01*
X153005205Y-109692143D01*
X153020677Y-109705268D01*
X153699197Y-110383788D01*
X153709022Y-110396051D01*
X153709243Y-110395869D01*
X153714211Y-110401874D01*
X153763222Y-110447899D01*
X153766021Y-110450612D01*
X153785522Y-110470114D01*
X153785526Y-110470117D01*
X153785529Y-110470120D01*
X153788702Y-110472581D01*
X153797574Y-110480159D01*
X153829418Y-110510062D01*
X153846976Y-110519714D01*
X153863235Y-110530395D01*
X153879064Y-110542673D01*
X153919155Y-110560021D01*
X153929626Y-110565151D01*
X153952180Y-110577550D01*
X153967902Y-110586194D01*
X153967904Y-110586195D01*
X153967908Y-110586197D01*
X153987316Y-110591180D01*
X154005719Y-110597481D01*
X154024101Y-110605436D01*
X154024102Y-110605436D01*
X154024104Y-110605437D01*
X154067250Y-110612270D01*
X154078672Y-110614636D01*
X154120981Y-110625500D01*
X154141016Y-110625500D01*
X154160414Y-110627026D01*
X154180194Y-110630159D01*
X154180195Y-110630160D01*
X154180195Y-110630159D01*
X154180196Y-110630160D01*
X154223675Y-110626050D01*
X154235344Y-110625500D01*
X155165843Y-110625500D01*
X155232882Y-110645185D01*
X155270540Y-110683058D01*
X155277434Y-110693922D01*
X155314214Y-110751877D01*
X155429418Y-110860062D01*
X155429420Y-110860063D01*
X155429422Y-110860065D01*
X155493896Y-110895509D01*
X155567908Y-110936197D01*
X155567918Y-110936199D01*
X155571423Y-110937588D01*
X155617006Y-110968898D01*
X155712527Y-111072661D01*
X155712530Y-111072663D01*
X155712537Y-111072671D01*
X155902561Y-111220572D01*
X156114336Y-111335179D01*
X156226264Y-111373604D01*
X156342083Y-111413365D01*
X156342085Y-111413365D01*
X156342087Y-111413366D01*
X156579601Y-111453000D01*
X156579602Y-111453000D01*
X156820398Y-111453000D01*
X156820399Y-111453000D01*
X157057913Y-111413366D01*
X157285664Y-111335179D01*
X157497439Y-111220572D01*
X157687463Y-111072671D01*
X157850551Y-110895510D01*
X157982255Y-110693922D01*
X158078983Y-110473405D01*
X158138095Y-110239976D01*
X158157980Y-110000000D01*
X158153647Y-109947713D01*
X158138095Y-109760027D01*
X158138095Y-109760024D01*
X158078983Y-109526595D01*
X157982255Y-109306078D01*
X157850551Y-109104490D01*
X157687463Y-108927329D01*
X157541115Y-108813422D01*
X157497441Y-108779429D01*
X157285665Y-108664821D01*
X157285656Y-108664818D01*
X157057916Y-108586634D01*
X156879777Y-108556908D01*
X156820399Y-108547000D01*
X156579601Y-108547000D01*
X156532098Y-108554926D01*
X156342083Y-108586634D01*
X156114343Y-108664818D01*
X156114334Y-108664821D01*
X155902558Y-108779429D01*
X155768456Y-108883805D01*
X155712537Y-108927329D01*
X155712534Y-108927331D01*
X155712534Y-108927332D01*
X155549449Y-109104490D01*
X155417744Y-109306078D01*
X155415886Y-109309514D01*
X155366668Y-109359106D01*
X155306829Y-109374500D01*
X154510453Y-109374500D01*
X154443414Y-109354815D01*
X154422772Y-109338181D01*
X149296771Y-104212180D01*
X149263286Y-104150857D01*
X149268270Y-104081165D01*
X149310142Y-104025232D01*
X149375606Y-104000815D01*
X149384452Y-104000499D01*
X150823888Y-104000499D01*
X150936151Y-103985720D01*
X150936150Y-103985720D01*
X150936159Y-103985719D01*
X151075853Y-103927856D01*
X151128070Y-103887788D01*
X151169337Y-103856124D01*
X151234506Y-103830930D01*
X151244823Y-103830500D01*
X151525500Y-103830500D01*
X151592539Y-103850185D01*
X151638294Y-103902989D01*
X151649500Y-103954500D01*
X151649500Y-104397870D01*
X151649501Y-104397876D01*
X151655908Y-104457483D01*
X151706202Y-104592328D01*
X151706206Y-104592335D01*
X151792452Y-104707544D01*
X151792455Y-104707547D01*
X151907664Y-104793793D01*
X151907671Y-104793797D01*
X152042517Y-104844091D01*
X152042516Y-104844091D01*
X152049444Y-104844835D01*
X152102127Y-104850500D01*
X153197872Y-104850499D01*
X153257483Y-104844091D01*
X153392331Y-104793796D01*
X153507546Y-104707546D01*
X153593796Y-104592331D01*
X153644091Y-104457483D01*
X153650500Y-104397873D01*
X153650499Y-103435450D01*
X153670183Y-103368412D01*
X153686813Y-103347775D01*
X155471286Y-101563302D01*
X155483548Y-101553480D01*
X155483365Y-101553259D01*
X155489368Y-101548291D01*
X155489377Y-101548286D01*
X155535434Y-101499239D01*
X155538082Y-101496506D01*
X155557620Y-101476970D01*
X155560070Y-101473810D01*
X155567654Y-101464929D01*
X155597562Y-101433082D01*
X155607214Y-101415523D01*
X155617889Y-101399272D01*
X155630174Y-101383436D01*
X155647530Y-101343325D01*
X155652661Y-101332854D01*
X155652954Y-101332322D01*
X155668525Y-101303999D01*
X155673694Y-101294598D01*
X155673694Y-101294597D01*
X155673697Y-101294592D01*
X155678680Y-101275180D01*
X155684977Y-101256791D01*
X155692938Y-101238395D01*
X155699770Y-101195248D01*
X155702139Y-101183816D01*
X155712999Y-101141522D01*
X155713000Y-101141517D01*
X155713000Y-101121483D01*
X155714527Y-101102082D01*
X155717660Y-101082304D01*
X155713550Y-101038824D01*
X155713000Y-101027155D01*
X155713000Y-100475000D01*
X157675000Y-100475000D01*
X157675000Y-100872844D01*
X157681401Y-100932372D01*
X157681403Y-100932379D01*
X157731645Y-101067086D01*
X157731649Y-101067093D01*
X157817809Y-101182187D01*
X157817812Y-101182190D01*
X157932906Y-101268350D01*
X157932913Y-101268354D01*
X158067620Y-101318596D01*
X158067627Y-101318598D01*
X158127155Y-101324999D01*
X158127172Y-101325000D01*
X158387500Y-101325000D01*
X158387500Y-100475000D01*
X157675000Y-100475000D01*
X155713000Y-100475000D01*
X155713000Y-100225000D01*
X157675000Y-100225000D01*
X158387500Y-100225000D01*
X158387500Y-99375000D01*
X158127155Y-99375000D01*
X158067627Y-99381401D01*
X158067620Y-99381403D01*
X157932913Y-99431645D01*
X157932906Y-99431649D01*
X157817812Y-99517809D01*
X157817809Y-99517812D01*
X157731649Y-99632906D01*
X157731645Y-99632913D01*
X157681403Y-99767620D01*
X157681401Y-99767627D01*
X157675000Y-99827155D01*
X157675000Y-100225000D01*
X155713000Y-100225000D01*
X155713000Y-98507559D01*
X155732685Y-98440520D01*
X155785489Y-98394765D01*
X155804841Y-98387802D01*
X155805340Y-98387668D01*
X155853804Y-98387671D01*
X155854205Y-98384626D01*
X155862263Y-98385686D01*
X155862264Y-98385687D01*
X155974780Y-98400500D01*
X155974787Y-98400500D01*
X156200213Y-98400500D01*
X156200220Y-98400500D01*
X156312736Y-98385687D01*
X156312736Y-98385686D01*
X156320795Y-98384626D01*
X156321198Y-98387689D01*
X156353802Y-98387689D01*
X156354205Y-98384626D01*
X156362263Y-98385686D01*
X156362264Y-98385687D01*
X156474780Y-98400500D01*
X156474787Y-98400500D01*
X156700213Y-98400500D01*
X156700220Y-98400500D01*
X156812736Y-98385687D01*
X156812736Y-98385686D01*
X156820795Y-98384626D01*
X156821198Y-98387689D01*
X156853802Y-98387689D01*
X156854205Y-98384626D01*
X156862263Y-98385686D01*
X156862264Y-98385687D01*
X156974780Y-98400500D01*
X156974787Y-98400500D01*
X157200213Y-98400500D01*
X157200220Y-98400500D01*
X157312736Y-98385687D01*
X157312736Y-98385686D01*
X157320795Y-98384626D01*
X157321198Y-98387689D01*
X157353802Y-98387689D01*
X157354205Y-98384626D01*
X157362263Y-98385686D01*
X157362264Y-98385687D01*
X157474780Y-98400500D01*
X157474787Y-98400500D01*
X157700213Y-98400500D01*
X157700220Y-98400500D01*
X157812736Y-98385687D01*
X157812736Y-98385686D01*
X157820795Y-98384626D01*
X157821198Y-98387689D01*
X157853802Y-98387689D01*
X157854205Y-98384626D01*
X157862263Y-98385686D01*
X157862264Y-98385687D01*
X157974780Y-98400500D01*
X157974787Y-98400500D01*
X158200213Y-98400500D01*
X158200220Y-98400500D01*
X158229815Y-98396603D01*
X158298847Y-98407367D01*
X158351104Y-98453746D01*
X158370000Y-98519542D01*
X158370000Y-98525000D01*
X158859854Y-98525000D01*
X158926893Y-98544685D01*
X158972648Y-98597489D01*
X158978931Y-98614408D01*
X158979512Y-98616408D01*
X158979311Y-98686277D01*
X158941367Y-98744946D01*
X158877728Y-98773788D01*
X158860435Y-98775000D01*
X158370001Y-98775000D01*
X158370001Y-98850689D01*
X158384465Y-98942017D01*
X158440552Y-99052093D01*
X158440555Y-99052098D01*
X158527901Y-99139444D01*
X158527905Y-99139447D01*
X158604482Y-99178465D01*
X158655278Y-99226439D01*
X158672073Y-99294260D01*
X158649536Y-99360395D01*
X158637500Y-99374693D01*
X158637500Y-101325000D01*
X158897828Y-101325000D01*
X158897844Y-101324999D01*
X158957372Y-101318598D01*
X158957376Y-101318597D01*
X159092087Y-101268352D01*
X159108423Y-101256123D01*
X159173887Y-101231704D01*
X159242160Y-101246554D01*
X159273191Y-101270571D01*
X159330747Y-101331953D01*
X159330752Y-101331957D01*
X159330754Y-101331959D01*
X159783826Y-101694417D01*
X159785702Y-101695910D01*
X159786554Y-101696585D01*
X159786640Y-101696653D01*
X159788047Y-101697764D01*
X161153955Y-102770977D01*
X161153968Y-102770987D01*
X161173158Y-102785342D01*
X161182729Y-102792154D01*
X161189583Y-102796792D01*
X161202551Y-102805567D01*
X161315586Y-102857190D01*
X161333428Y-102865338D01*
X161400467Y-102885023D01*
X161400471Y-102885024D01*
X161542887Y-102905500D01*
X165050500Y-102905500D01*
X165117539Y-102925185D01*
X165163294Y-102977989D01*
X165174500Y-103029500D01*
X165174500Y-108274191D01*
X165154815Y-108341230D01*
X165138181Y-108361872D01*
X164933522Y-108566530D01*
X164872199Y-108600015D01*
X164805582Y-108596132D01*
X164777911Y-108586633D01*
X164587970Y-108554938D01*
X164540399Y-108547000D01*
X164299601Y-108547000D01*
X164252098Y-108554926D01*
X164062083Y-108586634D01*
X163834343Y-108664818D01*
X163834334Y-108664821D01*
X163622558Y-108779429D01*
X163488456Y-108883805D01*
X163432537Y-108927329D01*
X163432534Y-108927331D01*
X163432534Y-108927332D01*
X163269449Y-109104490D01*
X163137743Y-109306081D01*
X163041017Y-109526594D01*
X162981904Y-109760027D01*
X162962020Y-109999994D01*
X162962020Y-110000005D01*
X162981904Y-110239972D01*
X163041017Y-110473405D01*
X163132979Y-110683058D01*
X163137745Y-110693922D01*
X163269449Y-110895510D01*
X163432537Y-111072671D01*
X163622561Y-111220572D01*
X163834336Y-111335179D01*
X163946264Y-111373604D01*
X164062083Y-111413365D01*
X164062085Y-111413365D01*
X164062087Y-111413366D01*
X164299601Y-111453000D01*
X164299602Y-111453000D01*
X164540398Y-111453000D01*
X164540399Y-111453000D01*
X164777913Y-111413366D01*
X165005664Y-111335179D01*
X165217439Y-111220572D01*
X165407463Y-111072671D01*
X165570551Y-110895510D01*
X165702255Y-110693922D01*
X165798983Y-110473405D01*
X165858095Y-110239976D01*
X165877980Y-110000000D01*
X168292348Y-110000000D01*
X168312910Y-110221900D01*
X168373899Y-110436257D01*
X168473230Y-110635740D01*
X168473235Y-110635747D01*
X168565411Y-110757811D01*
X168922141Y-110401081D01*
X169033407Y-110526675D01*
X169102446Y-110574329D01*
X168741270Y-110935505D01*
X168772228Y-110963727D01*
X168961701Y-111081045D01*
X168961703Y-111081046D01*
X169169507Y-111161549D01*
X169388575Y-111202500D01*
X169611425Y-111202500D01*
X169830492Y-111161549D01*
X170038296Y-111081046D01*
X170038298Y-111081045D01*
X170227771Y-110963728D01*
X170227771Y-110963727D01*
X170258729Y-110935505D01*
X169897552Y-110574329D01*
X169966593Y-110526675D01*
X170077857Y-110401081D01*
X170434587Y-110757811D01*
X170434588Y-110757811D01*
X170526764Y-110635750D01*
X170626100Y-110436257D01*
X170687089Y-110221900D01*
X170707651Y-110000000D01*
X170687089Y-109778099D01*
X170626100Y-109563742D01*
X170526769Y-109364259D01*
X170526764Y-109364252D01*
X170434587Y-109242187D01*
X170077857Y-109598917D01*
X169966593Y-109473325D01*
X169897552Y-109425670D01*
X170258729Y-109064493D01*
X170227771Y-109036272D01*
X170038298Y-108918954D01*
X170038296Y-108918953D01*
X169830492Y-108838450D01*
X169611425Y-108797500D01*
X169388575Y-108797500D01*
X169169507Y-108838450D01*
X168961703Y-108918953D01*
X168961702Y-108918954D01*
X168772226Y-109036274D01*
X168772225Y-109036274D01*
X168741270Y-109064493D01*
X169102447Y-109425670D01*
X169033407Y-109473325D01*
X168922141Y-109598918D01*
X168565410Y-109242187D01*
X168473235Y-109364249D01*
X168373899Y-109563742D01*
X168312910Y-109778099D01*
X168292348Y-110000000D01*
X165877980Y-110000000D01*
X165873647Y-109947713D01*
X165863332Y-109823223D01*
X165858095Y-109760024D01*
X165819181Y-109606356D01*
X165821806Y-109536539D01*
X165851704Y-109488240D01*
X166224513Y-109115431D01*
X166237079Y-109105365D01*
X166236925Y-109105178D01*
X166242933Y-109100205D01*
X166242940Y-109100202D01*
X166266227Y-109075402D01*
X166290865Y-109049167D01*
X166293578Y-109046367D01*
X166313911Y-109026035D01*
X166316606Y-109022560D01*
X166324199Y-109013669D01*
X166355448Y-108980393D01*
X166365674Y-108961790D01*
X166376353Y-108945533D01*
X166389362Y-108928764D01*
X166390290Y-108926617D01*
X166392914Y-108922755D01*
X166393331Y-108922052D01*
X166393375Y-108922078D01*
X166416411Y-108888177D01*
X168430272Y-106874319D01*
X168491595Y-106840834D01*
X168517953Y-106838000D01*
X174482168Y-106838000D01*
X174549207Y-106857685D01*
X174569664Y-106876231D01*
X174570612Y-106875284D01*
X174607647Y-106912319D01*
X174641132Y-106973642D01*
X174636148Y-107043334D01*
X174607647Y-107087681D01*
X174575719Y-107119608D01*
X174575716Y-107119612D01*
X174487455Y-107262704D01*
X174487450Y-107262715D01*
X174475095Y-107300000D01*
X174434564Y-107422315D01*
X174434564Y-107422316D01*
X174434563Y-107422316D01*
X174424500Y-107520818D01*
X174424500Y-108054181D01*
X174434563Y-108152683D01*
X174487450Y-108312284D01*
X174487455Y-108312295D01*
X174575716Y-108455387D01*
X174575719Y-108455391D01*
X174694608Y-108574280D01*
X174694612Y-108574283D01*
X174837704Y-108662544D01*
X174837707Y-108662545D01*
X174837713Y-108662549D01*
X174997315Y-108715436D01*
X175095826Y-108725500D01*
X175095831Y-108725500D01*
X175704169Y-108725500D01*
X175704174Y-108725500D01*
X175802685Y-108715436D01*
X175962287Y-108662549D01*
X176105391Y-108574281D01*
X176167853Y-108511819D01*
X176229176Y-108478334D01*
X176255534Y-108475500D01*
X176308480Y-108475500D01*
X176375519Y-108495185D01*
X176396161Y-108511819D01*
X176489811Y-108605469D01*
X176489813Y-108605470D01*
X176489815Y-108605472D01*
X176635394Y-108693478D01*
X176797804Y-108744086D01*
X176868384Y-108750500D01*
X176868387Y-108750500D01*
X177531613Y-108750500D01*
X177531616Y-108750500D01*
X177602196Y-108744086D01*
X177764606Y-108693478D01*
X177910185Y-108605472D01*
X178030472Y-108485185D01*
X178118478Y-108339606D01*
X178169086Y-108177196D01*
X178175500Y-108106616D01*
X178175500Y-107593384D01*
X178169086Y-107522804D01*
X178118478Y-107360394D01*
X178030472Y-107214815D01*
X178030470Y-107214813D01*
X178030469Y-107214811D01*
X177910188Y-107094530D01*
X177910185Y-107094528D01*
X177764606Y-107006522D01*
X177749646Y-107001860D01*
X177691498Y-106963123D01*
X177663524Y-106899098D01*
X177674605Y-106830113D01*
X177712903Y-106783704D01*
X177796792Y-106721791D01*
X177877346Y-106612645D01*
X177922149Y-106484604D01*
X177922149Y-106484600D01*
X177925000Y-106454206D01*
X177925000Y-106325000D01*
X177199000Y-106325000D01*
X177131961Y-106305315D01*
X177086206Y-106252511D01*
X177075000Y-106201000D01*
X177075000Y-105550000D01*
X177325000Y-105550000D01*
X177325000Y-106075000D01*
X177924999Y-106075000D01*
X177924999Y-105945803D01*
X177922148Y-105915393D01*
X177877346Y-105787354D01*
X177796792Y-105678207D01*
X177687645Y-105597653D01*
X177559602Y-105552850D01*
X177529207Y-105550000D01*
X177325000Y-105550000D01*
X177075000Y-105550000D01*
X176870804Y-105550000D01*
X176840393Y-105552851D01*
X176712354Y-105597653D01*
X176603207Y-105678207D01*
X176542608Y-105760317D01*
X176486960Y-105802568D01*
X176417304Y-105808026D01*
X176355755Y-105774958D01*
X176325132Y-105725687D01*
X176321369Y-105714330D01*
X176312549Y-105687713D01*
X176312545Y-105687707D01*
X176312544Y-105687704D01*
X176224283Y-105544612D01*
X176224280Y-105544608D01*
X176105391Y-105425719D01*
X176105387Y-105425716D01*
X175962295Y-105337455D01*
X175962289Y-105337452D01*
X175962287Y-105337451D01*
X175802685Y-105284564D01*
X175802683Y-105284563D01*
X175704181Y-105274500D01*
X175704174Y-105274500D01*
X175095826Y-105274500D01*
X175095818Y-105274500D01*
X174997316Y-105284563D01*
X174997315Y-105284564D01*
X174918219Y-105310773D01*
X174837715Y-105337450D01*
X174837704Y-105337455D01*
X174694612Y-105425716D01*
X174694608Y-105425719D01*
X174570612Y-105549716D01*
X174568528Y-105547632D01*
X174522416Y-105580286D01*
X174482168Y-105587000D01*
X168290243Y-105587000D01*
X168274622Y-105585275D01*
X168274596Y-105585561D01*
X168266834Y-105584827D01*
X168266833Y-105584827D01*
X168204609Y-105586782D01*
X168199627Y-105586939D01*
X168195732Y-105587000D01*
X168168147Y-105587000D01*
X168164161Y-105587503D01*
X168152533Y-105588418D01*
X168108873Y-105589790D01*
X168089629Y-105595381D01*
X168070579Y-105599325D01*
X168050711Y-105601834D01*
X168050710Y-105601834D01*
X168010099Y-105617913D01*
X167999054Y-105621694D01*
X167957114Y-105633879D01*
X167957110Y-105633881D01*
X167939866Y-105644079D01*
X167922405Y-105652633D01*
X167903774Y-105660010D01*
X167903762Y-105660017D01*
X167868433Y-105685685D01*
X167858673Y-105692096D01*
X167821080Y-105714329D01*
X167806914Y-105728495D01*
X167792124Y-105741127D01*
X167775914Y-105752904D01*
X167775911Y-105752907D01*
X167748073Y-105786558D01*
X167740211Y-105795197D01*
X166687181Y-106848228D01*
X166625858Y-106881713D01*
X166556166Y-106876729D01*
X166500233Y-106834857D01*
X166475816Y-106769393D01*
X166475500Y-106760547D01*
X166475500Y-97819881D01*
X166477268Y-97803868D01*
X166477026Y-97803846D01*
X166477758Y-97796090D01*
X166477760Y-97796083D01*
X166475561Y-97726115D01*
X166475500Y-97722220D01*
X166475500Y-97693457D01*
X166475499Y-97693450D01*
X166474949Y-97689096D01*
X166474030Y-97677434D01*
X166473789Y-97669767D01*
X166472597Y-97631810D01*
X166466676Y-97611432D01*
X166462731Y-97592383D01*
X166460071Y-97571322D01*
X166443261Y-97528867D01*
X166439481Y-97517825D01*
X166426744Y-97473981D01*
X166415939Y-97455712D01*
X166407379Y-97438238D01*
X166406351Y-97435642D01*
X166399568Y-97418509D01*
X166372737Y-97381579D01*
X166366323Y-97371815D01*
X166343082Y-97332517D01*
X166343081Y-97332515D01*
X166328075Y-97317509D01*
X166315435Y-97302710D01*
X166302961Y-97285540D01*
X166267780Y-97256436D01*
X166259140Y-97248574D01*
X165298066Y-96287500D01*
X171975000Y-96287500D01*
X172825000Y-96287500D01*
X172825000Y-95575000D01*
X172427155Y-95575000D01*
X172367627Y-95581401D01*
X172367620Y-95581403D01*
X172232913Y-95631645D01*
X172232906Y-95631649D01*
X172117812Y-95717809D01*
X172117809Y-95717812D01*
X172031649Y-95832906D01*
X172031645Y-95832913D01*
X171981403Y-95967620D01*
X171981401Y-95967627D01*
X171975000Y-96027155D01*
X171975000Y-96287500D01*
X165298066Y-96287500D01*
X163872172Y-94861606D01*
X163838687Y-94800283D01*
X163843671Y-94730591D01*
X163885543Y-94674658D01*
X163946601Y-94650635D01*
X163947866Y-94650499D01*
X163947872Y-94650499D01*
X164007483Y-94644091D01*
X164142331Y-94593796D01*
X164257546Y-94507546D01*
X164325734Y-94416457D01*
X164381667Y-94374588D01*
X164451359Y-94369604D01*
X164512682Y-94403089D01*
X164524261Y-94416452D01*
X164592454Y-94507546D01*
X164638643Y-94542123D01*
X164707664Y-94593793D01*
X164707671Y-94593797D01*
X164842517Y-94644091D01*
X164842516Y-94644091D01*
X164849444Y-94644835D01*
X164902127Y-94650500D01*
X165997872Y-94650499D01*
X166057483Y-94644091D01*
X166192331Y-94593796D01*
X166307546Y-94507546D01*
X166393796Y-94392331D01*
X166444091Y-94257483D01*
X166450500Y-94197873D01*
X166450499Y-93102128D01*
X166444091Y-93042517D01*
X166443579Y-93037753D01*
X166455986Y-92968994D01*
X166503597Y-92917857D01*
X166566869Y-92900500D01*
X174501269Y-92900500D01*
X174568308Y-92920185D01*
X174614063Y-92972989D01*
X174624007Y-93042147D01*
X174594982Y-93105703D01*
X174588950Y-93112181D01*
X174414358Y-93286772D01*
X174400729Y-93298551D01*
X174381469Y-93312890D01*
X174349632Y-93350831D01*
X174342346Y-93358784D01*
X174338407Y-93362724D01*
X174319176Y-93387045D01*
X174316902Y-93389837D01*
X174268694Y-93447290D01*
X174264729Y-93453319D01*
X174264682Y-93453288D01*
X174260630Y-93459647D01*
X174260679Y-93459677D01*
X174256889Y-93465821D01*
X174225192Y-93533794D01*
X174223623Y-93537036D01*
X174189957Y-93604072D01*
X174187488Y-93610857D01*
X174187432Y-93610836D01*
X174184960Y-93617950D01*
X174185015Y-93617969D01*
X174182743Y-93624825D01*
X174167573Y-93698288D01*
X174166793Y-93701804D01*
X174149499Y-93774779D01*
X174148661Y-93781954D01*
X174148601Y-93781947D01*
X174147835Y-93789445D01*
X174147895Y-93789451D01*
X174147265Y-93796640D01*
X174149448Y-93871628D01*
X174149500Y-93875235D01*
X174149500Y-95248752D01*
X174149421Y-95253178D01*
X174128213Y-95846976D01*
X174106148Y-95913270D01*
X174051745Y-95957111D01*
X173982275Y-95964580D01*
X173919796Y-95933305D01*
X173888110Y-95885882D01*
X173868355Y-95832915D01*
X173868350Y-95832906D01*
X173782190Y-95717812D01*
X173782187Y-95717809D01*
X173667093Y-95631649D01*
X173667086Y-95631645D01*
X173532379Y-95581403D01*
X173532372Y-95581401D01*
X173472844Y-95575000D01*
X173075000Y-95575000D01*
X173075000Y-96413500D01*
X173055315Y-96480539D01*
X173002511Y-96526294D01*
X172951000Y-96537500D01*
X171957003Y-96537500D01*
X171935318Y-96549340D01*
X171865626Y-96544353D01*
X171834221Y-96527026D01*
X171834205Y-96527049D01*
X171834019Y-96526915D01*
X171833796Y-96526792D01*
X171832873Y-96526088D01*
X171788974Y-96494433D01*
X171658100Y-96434663D01*
X171591055Y-96414976D01*
X171543582Y-96408150D01*
X171448638Y-96394500D01*
X169634345Y-96394500D01*
X169634342Y-96394500D01*
X169499419Y-96412840D01*
X169499413Y-96412841D01*
X169435629Y-96430506D01*
X169435611Y-96430513D01*
X169310468Y-96484208D01*
X168900123Y-96730416D01*
X168808306Y-96800975D01*
X168767785Y-96840267D01*
X168767781Y-96840272D01*
X168694434Y-96929868D01*
X168694433Y-96929869D01*
X168634663Y-97060744D01*
X168614976Y-97127789D01*
X168594500Y-97270208D01*
X168594500Y-98638002D01*
X168602490Y-98727519D01*
X168610271Y-98770763D01*
X168628090Y-98835886D01*
X168631951Y-98850000D01*
X168633993Y-98857461D01*
X168660553Y-98906204D01*
X168702834Y-98983800D01*
X168709301Y-98992455D01*
X168744656Y-99039773D01*
X168821046Y-99116300D01*
X168854476Y-99177653D01*
X168849429Y-99247340D01*
X168830165Y-99281301D01*
X168794434Y-99326024D01*
X168794432Y-99326026D01*
X168734663Y-99456899D01*
X168714976Y-99523944D01*
X168714027Y-99530544D01*
X168696294Y-99653888D01*
X168694500Y-99666363D01*
X168694500Y-101048640D01*
X168697397Y-101102688D01*
X168697397Y-101102689D01*
X168700229Y-101129022D01*
X168700232Y-101129049D01*
X168708885Y-101182445D01*
X168708885Y-101182447D01*
X168759166Y-101317252D01*
X168759168Y-101317257D01*
X168781485Y-101358128D01*
X168790963Y-101375486D01*
X168792653Y-101378580D01*
X168878877Y-101493761D01*
X168885116Y-101500000D01*
X168700000Y-101500000D01*
X168300000Y-101800000D01*
X168300000Y-103400000D01*
X168600000Y-103700000D01*
X173700000Y-103700000D01*
X174200000Y-104100000D01*
X175700000Y-104100000D01*
X176100000Y-103700000D01*
X176100000Y-102673784D01*
X176145557Y-102698260D01*
X176176860Y-102749645D01*
X176181522Y-102764606D01*
X176242415Y-102865335D01*
X176269530Y-102910188D01*
X176389811Y-103030469D01*
X176389813Y-103030470D01*
X176389815Y-103030472D01*
X176535394Y-103118478D01*
X176697804Y-103169086D01*
X176768384Y-103175500D01*
X176768387Y-103175500D01*
X177281613Y-103175500D01*
X177281616Y-103175500D01*
X177352196Y-103169086D01*
X177514606Y-103118478D01*
X177660185Y-103030472D01*
X177780472Y-102910185D01*
X177868478Y-102764606D01*
X177919086Y-102602196D01*
X177925500Y-102531616D01*
X177925500Y-101868384D01*
X177919086Y-101797804D01*
X177868478Y-101635394D01*
X177780472Y-101489815D01*
X177780470Y-101489813D01*
X177780469Y-101489811D01*
X177666596Y-101375938D01*
X177633111Y-101314615D01*
X177638095Y-101244923D01*
X177666596Y-101200576D01*
X177712891Y-101154281D01*
X177761781Y-101105391D01*
X177850049Y-100962287D01*
X177902936Y-100802685D01*
X177913000Y-100704174D01*
X177913000Y-100095826D01*
X177902936Y-99997315D01*
X177850049Y-99837713D01*
X177850045Y-99837707D01*
X177850044Y-99837704D01*
X177761783Y-99694612D01*
X177761780Y-99694608D01*
X177642891Y-99575719D01*
X177642887Y-99575716D01*
X177499795Y-99487455D01*
X177499789Y-99487452D01*
X177499787Y-99487451D01*
X177340185Y-99434564D01*
X177340183Y-99434563D01*
X177241681Y-99424500D01*
X177241674Y-99424500D01*
X176708326Y-99424500D01*
X176708318Y-99424500D01*
X176609816Y-99434563D01*
X176609815Y-99434564D01*
X176570744Y-99447511D01*
X176450215Y-99487450D01*
X176450206Y-99487454D01*
X176380347Y-99530544D01*
X176312955Y-99548984D01*
X176246291Y-99528061D01*
X176227570Y-99512686D01*
X176093776Y-99378892D01*
X176093761Y-99378877D01*
X176093737Y-99378855D01*
X176053519Y-99342728D01*
X176053507Y-99342718D01*
X176032856Y-99326076D01*
X175988974Y-99294433D01*
X175858094Y-99234660D01*
X175794563Y-99216005D01*
X175735785Y-99178230D01*
X175706762Y-99114674D01*
X175705500Y-99097029D01*
X175705500Y-95487781D01*
X175725185Y-95420742D01*
X175777989Y-95374987D01*
X175847147Y-95365043D01*
X175861575Y-95368002D01*
X176023881Y-95411492D01*
X176169262Y-95424211D01*
X176237498Y-95430181D01*
X176237500Y-95430181D01*
X176237502Y-95430181D01*
X176305738Y-95424211D01*
X176451119Y-95411492D01*
X176658247Y-95355992D01*
X176852591Y-95265368D01*
X177028245Y-95142373D01*
X177179873Y-94990745D01*
X177261427Y-94874274D01*
X177316002Y-94830652D01*
X177385501Y-94823459D01*
X177447855Y-94854981D01*
X177483269Y-94915211D01*
X177487000Y-94945400D01*
X177487000Y-95112412D01*
X177485739Y-95130053D01*
X177483246Y-95147396D01*
X177483246Y-95147398D01*
X177486860Y-95223288D01*
X177487000Y-95229181D01*
X177487000Y-95247872D01*
X177488457Y-95261419D01*
X177489026Y-95268769D01*
X177493245Y-95357326D01*
X177542796Y-95561578D01*
X177542798Y-95561582D01*
X177630098Y-95752743D01*
X177630101Y-95752748D01*
X177630102Y-95752750D01*
X177630104Y-95752753D01*
X177752014Y-95923952D01*
X177752015Y-95923953D01*
X177752020Y-95923959D01*
X177904120Y-96068985D01*
X177999078Y-96130011D01*
X178080928Y-96182613D01*
X178276043Y-96260725D01*
X178379229Y-96280612D01*
X178482414Y-96300500D01*
X178482415Y-96300500D01*
X179339919Y-96300500D01*
X179339925Y-96300500D01*
X179496718Y-96285528D01*
X179698375Y-96226316D01*
X179885182Y-96130011D01*
X180050386Y-96000092D01*
X180188019Y-95841256D01*
X180240869Y-95749716D01*
X180291435Y-95701502D01*
X180360042Y-95688278D01*
X180424907Y-95714246D01*
X180465436Y-95771160D01*
X180472256Y-95811609D01*
X180487456Y-113314997D01*
X180485470Y-113337209D01*
X180463079Y-113460810D01*
X180462998Y-113461255D01*
X180427334Y-113654108D01*
X180424537Y-113665947D01*
X180380672Y-113817918D01*
X180380290Y-113819215D01*
X180330528Y-113984817D01*
X180326800Y-113995446D01*
X180266015Y-114146413D01*
X180265154Y-114148496D01*
X180199457Y-114303470D01*
X180195017Y-114312835D01*
X180118344Y-114458484D01*
X180116838Y-114461258D01*
X180035573Y-114606535D01*
X180030642Y-114614610D01*
X179939037Y-114752513D01*
X179936738Y-114755855D01*
X179840700Y-114890647D01*
X179835493Y-114897446D01*
X179730024Y-115025723D01*
X179726800Y-115029487D01*
X179617004Y-115152645D01*
X179611730Y-115158205D01*
X179493560Y-115275312D01*
X179489303Y-115279337D01*
X179366928Y-115389656D01*
X179361785Y-115394044D01*
X179232261Y-115498593D01*
X179226887Y-115502694D01*
X179093252Y-115599024D01*
X179088420Y-115602337D01*
X178948991Y-115693155D01*
X178942444Y-115697136D01*
X178798922Y-115778461D01*
X178794560Y-115780819D01*
X178646883Y-115856866D01*
X178639140Y-115860520D01*
X178487147Y-115925945D01*
X178483396Y-115927488D01*
X178329272Y-115987935D01*
X178320337Y-115991052D01*
X178161141Y-116039849D01*
X178158112Y-116040735D01*
X177999604Y-116084941D01*
X177989513Y-116087306D01*
X177824097Y-116118839D01*
X177821880Y-116119240D01*
X177661552Y-116146794D01*
X177650375Y-116148196D01*
X177477983Y-116161900D01*
X177476633Y-116162000D01*
X177318842Y-116172811D01*
X177306681Y-116173046D01*
X177110413Y-116167210D01*
X177109961Y-116167196D01*
X176983271Y-116162967D01*
X176980318Y-116162636D01*
X176978640Y-116162636D01*
X176968212Y-116162197D01*
X176946354Y-116160352D01*
X176943182Y-116161723D01*
X176928105Y-116162647D01*
X143676023Y-116171109D01*
X143608978Y-116151441D01*
X143563210Y-116098649D01*
X143553249Y-116029493D01*
X143582257Y-115965930D01*
X143641026Y-115928141D01*
X143655221Y-115924861D01*
X143929752Y-115878216D01*
X143929762Y-115878214D01*
X144258935Y-115783380D01*
X144575424Y-115652288D01*
X144575428Y-115652286D01*
X144875255Y-115486577D01*
X145154641Y-115288342D01*
X145316720Y-115143497D01*
X144289524Y-114116301D01*
X144384870Y-114034870D01*
X144466301Y-113939524D01*
X145493497Y-114966720D01*
X145638342Y-114804641D01*
X145836577Y-114525255D01*
X146002286Y-114225428D01*
X146002288Y-114225424D01*
X146133380Y-113908935D01*
X146228214Y-113579762D01*
X146228216Y-113579754D01*
X146285596Y-113242037D01*
X146285598Y-113242025D01*
X146304805Y-112900000D01*
X146293574Y-112700000D01*
X174095194Y-112700000D01*
X174114401Y-113042025D01*
X174114403Y-113042037D01*
X174171783Y-113379754D01*
X174171785Y-113379762D01*
X174266619Y-113708935D01*
X174397711Y-114025424D01*
X174397713Y-114025428D01*
X174563422Y-114325255D01*
X174761660Y-114604646D01*
X174906500Y-114766720D01*
X174906501Y-114766721D01*
X175933697Y-113739524D01*
X176015130Y-113834870D01*
X176110474Y-113916301D01*
X175083278Y-114943498D01*
X175245353Y-115088339D01*
X175524744Y-115286577D01*
X175824571Y-115452286D01*
X175824575Y-115452288D01*
X176141064Y-115583380D01*
X176470237Y-115678214D01*
X176470245Y-115678216D01*
X176807962Y-115735596D01*
X176807974Y-115735598D01*
X177150000Y-115754805D01*
X177492025Y-115735598D01*
X177492037Y-115735596D01*
X177829754Y-115678216D01*
X177829762Y-115678214D01*
X178158935Y-115583380D01*
X178475424Y-115452288D01*
X178475428Y-115452286D01*
X178775255Y-115286577D01*
X179054641Y-115088342D01*
X179216720Y-114943497D01*
X178189524Y-113916301D01*
X178284870Y-113834870D01*
X178366301Y-113739524D01*
X179393497Y-114766720D01*
X179538342Y-114604641D01*
X179736577Y-114325255D01*
X179902286Y-114025428D01*
X179902288Y-114025424D01*
X180033380Y-113708935D01*
X180128214Y-113379762D01*
X180128216Y-113379754D01*
X180185596Y-113042037D01*
X180185598Y-113042025D01*
X180204805Y-112700000D01*
X180185598Y-112357974D01*
X180185596Y-112357962D01*
X180128216Y-112020245D01*
X180128214Y-112020237D01*
X180033380Y-111691064D01*
X179902288Y-111374575D01*
X179902286Y-111374571D01*
X179736577Y-111074744D01*
X179538339Y-110795353D01*
X179393498Y-110633278D01*
X178366301Y-111660474D01*
X178284870Y-111565130D01*
X178189524Y-111483698D01*
X179216721Y-110456501D01*
X179216720Y-110456500D01*
X179054646Y-110311660D01*
X178775255Y-110113422D01*
X178475428Y-109947713D01*
X178475424Y-109947711D01*
X178158935Y-109816619D01*
X177829762Y-109721785D01*
X177829754Y-109721783D01*
X177492037Y-109664403D01*
X177492025Y-109664401D01*
X177150000Y-109645194D01*
X176807974Y-109664401D01*
X176807962Y-109664403D01*
X176470245Y-109721783D01*
X176470237Y-109721785D01*
X176141064Y-109816619D01*
X175824575Y-109947711D01*
X175824571Y-109947713D01*
X175524744Y-110113422D01*
X175245358Y-110311657D01*
X175083278Y-110456501D01*
X176110475Y-111483698D01*
X176015130Y-111565130D01*
X175933698Y-111660475D01*
X174906501Y-110633278D01*
X174761657Y-110795358D01*
X174563422Y-111074744D01*
X174397713Y-111374571D01*
X174397711Y-111374575D01*
X174266619Y-111691064D01*
X174171785Y-112020237D01*
X174171783Y-112020245D01*
X174114403Y-112357962D01*
X174114401Y-112357974D01*
X174095194Y-112700000D01*
X146293574Y-112700000D01*
X146285598Y-112557974D01*
X146285596Y-112557962D01*
X146228216Y-112220245D01*
X146228214Y-112220237D01*
X146133380Y-111891064D01*
X146002288Y-111574575D01*
X146002286Y-111574571D01*
X145836577Y-111274744D01*
X145638339Y-110995353D01*
X145493498Y-110833278D01*
X145493497Y-110833278D01*
X144466301Y-111860474D01*
X144384870Y-111765130D01*
X144289524Y-111683698D01*
X145316721Y-110656501D01*
X145316720Y-110656500D01*
X145154646Y-110511660D01*
X144875255Y-110313422D01*
X144575428Y-110147713D01*
X144575424Y-110147711D01*
X144258935Y-110016619D01*
X144075861Y-109963876D01*
X144016891Y-109926401D01*
X144000182Y-109890301D01*
X143990870Y-109900698D01*
X143923516Y-109919276D01*
X143904786Y-109917541D01*
X143592037Y-109864403D01*
X143592025Y-109864401D01*
X143250000Y-109845194D01*
X142907974Y-109864401D01*
X142907962Y-109864403D01*
X142570245Y-109921783D01*
X142570237Y-109921785D01*
X142241064Y-110016619D01*
X141924575Y-110147711D01*
X141924571Y-110147713D01*
X141624744Y-110313422D01*
X141345358Y-110511657D01*
X141183278Y-110656501D01*
X142210475Y-111683698D01*
X142115130Y-111765130D01*
X142033698Y-111860474D01*
X141006501Y-110833278D01*
X140861657Y-110995358D01*
X140663422Y-111274744D01*
X140497713Y-111574571D01*
X140497711Y-111574575D01*
X140366619Y-111891064D01*
X140271785Y-112220237D01*
X140271783Y-112220245D01*
X140214403Y-112557962D01*
X140214401Y-112557974D01*
X140195194Y-112900000D01*
X140214401Y-113242025D01*
X140214403Y-113242037D01*
X140271783Y-113579754D01*
X140271785Y-113579762D01*
X140366619Y-113908935D01*
X140497711Y-114225424D01*
X140497713Y-114225428D01*
X140663422Y-114525255D01*
X140861660Y-114804646D01*
X141006500Y-114966720D01*
X141006501Y-114966721D01*
X142033697Y-113939524D01*
X142115130Y-114034870D01*
X142210474Y-114116301D01*
X141183278Y-115143498D01*
X141345353Y-115288339D01*
X141624744Y-115486577D01*
X141924571Y-115652286D01*
X141924575Y-115652288D01*
X142241064Y-115783380D01*
X142570237Y-115878214D01*
X142570245Y-115878216D01*
X142846053Y-115925078D01*
X142908848Y-115955714D01*
X142945111Y-116015436D01*
X142943330Y-116085283D01*
X142904069Y-116143079D01*
X142839794Y-116170474D01*
X142825313Y-116171326D01*
X142295686Y-116171460D01*
X142256731Y-116165192D01*
X142167652Y-116135741D01*
X142167135Y-116135569D01*
X141951114Y-116063095D01*
X141939784Y-116058664D01*
X141802637Y-115997114D01*
X141801245Y-115996479D01*
X141629677Y-115916824D01*
X141619835Y-115911706D01*
X141481993Y-115831977D01*
X141479716Y-115830626D01*
X141325723Y-115737110D01*
X141317340Y-115731542D01*
X141185526Y-115636053D01*
X141182556Y-115633833D01*
X141042638Y-115525949D01*
X141035711Y-115520195D01*
X140913061Y-115410549D01*
X140909568Y-115407304D01*
X140783690Y-115285750D01*
X140778154Y-115280050D01*
X140773838Y-115275312D01*
X140666773Y-115157768D01*
X140662952Y-115153369D01*
X140560335Y-115029487D01*
X140551789Y-115019169D01*
X140547570Y-115013779D01*
X140449105Y-114880488D01*
X140445185Y-114874860D01*
X140349571Y-114729143D01*
X140346491Y-114724199D01*
X140262355Y-114581812D01*
X140258538Y-114574852D01*
X140179350Y-114418809D01*
X140177293Y-114414557D01*
X140108505Y-114265025D01*
X140105061Y-114256760D01*
X140043029Y-114091218D01*
X140041834Y-114087876D01*
X139989270Y-113933718D01*
X139986425Y-113924115D01*
X139942288Y-113749391D01*
X139941680Y-113746873D01*
X139932954Y-113708935D01*
X139905978Y-113591652D01*
X139903980Y-113580746D01*
X139878252Y-113393228D01*
X139878105Y-113392102D01*
X139859546Y-113242631D01*
X139858646Y-113230545D01*
X139852705Y-112995450D01*
X139850541Y-112892343D01*
X139850570Y-112886022D01*
X139851570Y-112852672D01*
X139850486Y-112839822D01*
X139849501Y-109081613D01*
X143524500Y-109081613D01*
X143530913Y-109152192D01*
X143530913Y-109152194D01*
X143530914Y-109152196D01*
X143581522Y-109314606D01*
X143666627Y-109455387D01*
X143669530Y-109460188D01*
X143789811Y-109580469D01*
X143789813Y-109580470D01*
X143789815Y-109580472D01*
X143935394Y-109668478D01*
X143962447Y-109676908D01*
X144020594Y-109715644D01*
X144035295Y-109749289D01*
X144042619Y-109740750D01*
X144109557Y-109720724D01*
X144121404Y-109721230D01*
X144168384Y-109725500D01*
X144168387Y-109725500D01*
X144831613Y-109725500D01*
X144831616Y-109725500D01*
X144902196Y-109719086D01*
X145064606Y-109668478D01*
X145210185Y-109580472D01*
X145226915Y-109563742D01*
X145267812Y-109522846D01*
X145329135Y-109489361D01*
X145398827Y-109494345D01*
X145443174Y-109522846D01*
X145494608Y-109574280D01*
X145494612Y-109574283D01*
X145637704Y-109662544D01*
X145637707Y-109662545D01*
X145637713Y-109662549D01*
X145797315Y-109715436D01*
X145895826Y-109725500D01*
X145895831Y-109725500D01*
X146504169Y-109725500D01*
X146504174Y-109725500D01*
X146602685Y-109715436D01*
X146762287Y-109662549D01*
X146905391Y-109574281D01*
X147024281Y-109455391D01*
X147112549Y-109312287D01*
X147165436Y-109152685D01*
X147175500Y-109054174D01*
X147175500Y-108520826D01*
X147165436Y-108422315D01*
X147112549Y-108262713D01*
X147112545Y-108262707D01*
X147112544Y-108262704D01*
X147024283Y-108119612D01*
X147024280Y-108119608D01*
X146992353Y-108087681D01*
X146958868Y-108026358D01*
X146963852Y-107956666D01*
X146992353Y-107912319D01*
X146992354Y-107912318D01*
X147024281Y-107880391D01*
X147112549Y-107737287D01*
X147165436Y-107577685D01*
X147175500Y-107479174D01*
X147175500Y-106945826D01*
X147165436Y-106847315D01*
X147112549Y-106687713D01*
X147112545Y-106687707D01*
X147112544Y-106687704D01*
X147024283Y-106544612D01*
X147024280Y-106544608D01*
X146905391Y-106425719D01*
X146905387Y-106425716D01*
X146762295Y-106337455D01*
X146762289Y-106337452D01*
X146762287Y-106337451D01*
X146602685Y-106284564D01*
X146602683Y-106284563D01*
X146504181Y-106274500D01*
X146504174Y-106274500D01*
X145895826Y-106274500D01*
X145895818Y-106274500D01*
X145797316Y-106284563D01*
X145797315Y-106284564D01*
X145734693Y-106305315D01*
X145637715Y-106337450D01*
X145637704Y-106337455D01*
X145494612Y-106425716D01*
X145494608Y-106425719D01*
X145375719Y-106544608D01*
X145375716Y-106544612D01*
X145308582Y-106653453D01*
X145256634Y-106700178D01*
X145187671Y-106711399D01*
X145123590Y-106683556D01*
X145103275Y-106661991D01*
X145096793Y-106653208D01*
X144987645Y-106572653D01*
X144859602Y-106527850D01*
X144829207Y-106525000D01*
X144625000Y-106525000D01*
X144625000Y-107176000D01*
X144605315Y-107243039D01*
X144552511Y-107288794D01*
X144501000Y-107300000D01*
X143775001Y-107300000D01*
X143775001Y-107429196D01*
X143777851Y-107459606D01*
X143822653Y-107587645D01*
X143903207Y-107696792D01*
X143987097Y-107758705D01*
X144029347Y-107814352D01*
X144034806Y-107884008D01*
X144001739Y-107945558D01*
X143950354Y-107976860D01*
X143935396Y-107981521D01*
X143935394Y-107981521D01*
X143935394Y-107981522D01*
X143886867Y-108010857D01*
X143789811Y-108069530D01*
X143669530Y-108189811D01*
X143581522Y-108335393D01*
X143530913Y-108497807D01*
X143528821Y-108520831D01*
X143524669Y-108566530D01*
X143524500Y-108568386D01*
X143524500Y-109081613D01*
X139849501Y-109081613D01*
X139848968Y-107050000D01*
X143775000Y-107050000D01*
X144375000Y-107050000D01*
X144375000Y-106525000D01*
X144170804Y-106525000D01*
X144140393Y-106527851D01*
X144012354Y-106572653D01*
X143903207Y-106653207D01*
X143822653Y-106762354D01*
X143777850Y-106890395D01*
X143777850Y-106890399D01*
X143775000Y-106920793D01*
X143775000Y-107050000D01*
X139848968Y-107050000D01*
X139848044Y-103525000D01*
X141490001Y-103525000D01*
X141490001Y-103600689D01*
X141504465Y-103692017D01*
X141560552Y-103802093D01*
X141560555Y-103802098D01*
X141647901Y-103889444D01*
X141647906Y-103889448D01*
X141757984Y-103945536D01*
X141757983Y-103945536D01*
X141849304Y-103959999D01*
X141894999Y-103959999D01*
X141895000Y-103959998D01*
X141895000Y-103525000D01*
X141490001Y-103525000D01*
X139848044Y-103525000D01*
X139847978Y-103275000D01*
X141490000Y-103275000D01*
X141895000Y-103275000D01*
X141895000Y-102840000D01*
X141849311Y-102840000D01*
X141757982Y-102854465D01*
X141647906Y-102910552D01*
X141647901Y-102910555D01*
X141560555Y-102997901D01*
X141560551Y-102997906D01*
X141504463Y-103107984D01*
X141490000Y-103199308D01*
X141490000Y-103275000D01*
X139847978Y-103275000D01*
X139845441Y-93600000D01*
X140245194Y-93600000D01*
X140264401Y-93942025D01*
X140264403Y-93942037D01*
X140321783Y-94279754D01*
X140321785Y-94279762D01*
X140416619Y-94608935D01*
X140547711Y-94925424D01*
X140547713Y-94925428D01*
X140713422Y-95225255D01*
X140911660Y-95504646D01*
X141056500Y-95666720D01*
X141056501Y-95666721D01*
X142083697Y-94639524D01*
X142165130Y-94734870D01*
X142260474Y-94816301D01*
X141233278Y-95843498D01*
X141395353Y-95988339D01*
X141674744Y-96186577D01*
X141974571Y-96352286D01*
X141974575Y-96352288D01*
X142291064Y-96483380D01*
X142620237Y-96578214D01*
X142620245Y-96578216D01*
X142957962Y-96635596D01*
X142957974Y-96635598D01*
X143300000Y-96654805D01*
X143642025Y-96635598D01*
X143642037Y-96635596D01*
X143979754Y-96578216D01*
X143979762Y-96578214D01*
X144308935Y-96483380D01*
X144625424Y-96352288D01*
X144625428Y-96352286D01*
X144925255Y-96186577D01*
X145204641Y-95988342D01*
X145366720Y-95843497D01*
X144339524Y-94816301D01*
X144434870Y-94734870D01*
X144516301Y-94639524D01*
X145543497Y-95666720D01*
X145688342Y-95504641D01*
X145886577Y-95225255D01*
X146052286Y-94925428D01*
X146052288Y-94925424D01*
X146183380Y-94608935D01*
X146278214Y-94279762D01*
X146278216Y-94279754D01*
X146335596Y-93942037D01*
X146335598Y-93942025D01*
X146354805Y-93600000D01*
X146335598Y-93257974D01*
X146335596Y-93257962D01*
X146278216Y-92920245D01*
X146278214Y-92920237D01*
X146183380Y-92591064D01*
X146052288Y-92274575D01*
X146052286Y-92274571D01*
X145886577Y-91974744D01*
X145688339Y-91695353D01*
X145543498Y-91533278D01*
X144516301Y-92560474D01*
X144434870Y-92465130D01*
X144339524Y-92383698D01*
X145366721Y-91356501D01*
X145366720Y-91356500D01*
X145204646Y-91211660D01*
X144925255Y-91013422D01*
X144625428Y-90847713D01*
X144625424Y-90847711D01*
X144308935Y-90716619D01*
X143979762Y-90621785D01*
X143979754Y-90621783D01*
X143642037Y-90564403D01*
X143642025Y-90564401D01*
X143300000Y-90545194D01*
X142957974Y-90564401D01*
X142957962Y-90564403D01*
X142620245Y-90621783D01*
X142620237Y-90621785D01*
X142291064Y-90716619D01*
X141974575Y-90847711D01*
X141974571Y-90847713D01*
X141674744Y-91013422D01*
X141395358Y-91211657D01*
X141233278Y-91356501D01*
X142260475Y-92383698D01*
X142165130Y-92465130D01*
X142083698Y-92560475D01*
X141056501Y-91533278D01*
X140911657Y-91695358D01*
X140713422Y-91974744D01*
X140547713Y-92274571D01*
X140547711Y-92274575D01*
X140416619Y-92591064D01*
X140321785Y-92920237D01*
X140321783Y-92920245D01*
X140264403Y-93257962D01*
X140264401Y-93257974D01*
X140245194Y-93600000D01*
X139845441Y-93600000D01*
X139844032Y-88225000D01*
X144090001Y-88225000D01*
X144090001Y-88300689D01*
X144104465Y-88392017D01*
X144160552Y-88502093D01*
X144160555Y-88502098D01*
X144247901Y-88589444D01*
X144247906Y-88589448D01*
X144357984Y-88645536D01*
X144357983Y-88645536D01*
X144449304Y-88659999D01*
X144494999Y-88659999D01*
X144495000Y-88659998D01*
X144495000Y-88225000D01*
X144090001Y-88225000D01*
X139844032Y-88225000D01*
X139843966Y-87975000D01*
X144090000Y-87975000D01*
X144495000Y-87975000D01*
X144495000Y-87540000D01*
X144449311Y-87540000D01*
X144357982Y-87554465D01*
X144247906Y-87610552D01*
X144247901Y-87610555D01*
X144160555Y-87697901D01*
X144160551Y-87697906D01*
X144104463Y-87807984D01*
X144090000Y-87899308D01*
X144090000Y-87975000D01*
X139843966Y-87975000D01*
X139841875Y-80000000D01*
X144045225Y-80000000D01*
X144064287Y-80217884D01*
X144064289Y-80217894D01*
X144120894Y-80429150D01*
X144120898Y-80429159D01*
X144213333Y-80627387D01*
X144329678Y-80793545D01*
X144831638Y-80291585D01*
X144846442Y-80320156D01*
X144949638Y-80430652D01*
X145009636Y-80467138D01*
X144506453Y-80970320D01*
X144672612Y-81086667D01*
X144870840Y-81179101D01*
X144870849Y-81179105D01*
X145082105Y-81235710D01*
X145082115Y-81235712D01*
X145299999Y-81254775D01*
X145300001Y-81254775D01*
X145517884Y-81235712D01*
X145517894Y-81235710D01*
X145729150Y-81179105D01*
X145729164Y-81179100D01*
X145927383Y-81086669D01*
X145927391Y-81086665D01*
X146093545Y-80970321D01*
X146093545Y-80970320D01*
X145593484Y-80470259D01*
X145705739Y-80378934D01*
X145767795Y-80291019D01*
X146270320Y-80793545D01*
X146270321Y-80793545D01*
X146386665Y-80627391D01*
X146386669Y-80627383D01*
X146479100Y-80429164D01*
X146479105Y-80429150D01*
X146535710Y-80217894D01*
X146535712Y-80217884D01*
X146554775Y-80000000D01*
X150545225Y-80000000D01*
X150564287Y-80217884D01*
X150564289Y-80217894D01*
X150620894Y-80429150D01*
X150620898Y-80429159D01*
X150713333Y-80627387D01*
X150829678Y-80793545D01*
X151331638Y-80291585D01*
X151346442Y-80320156D01*
X151449638Y-80430652D01*
X151509636Y-80467138D01*
X151006453Y-80970320D01*
X151172612Y-81086667D01*
X151370840Y-81179101D01*
X151370849Y-81179105D01*
X151582105Y-81235710D01*
X151582115Y-81235712D01*
X151799999Y-81254775D01*
X151800001Y-81254775D01*
X152017884Y-81235712D01*
X152017894Y-81235710D01*
X152229150Y-81179105D01*
X152229164Y-81179100D01*
X152427383Y-81086669D01*
X152427391Y-81086665D01*
X152593545Y-80970321D01*
X152593545Y-80970320D01*
X152093484Y-80470259D01*
X152205739Y-80378934D01*
X152267795Y-80291019D01*
X152770320Y-80793545D01*
X152770321Y-80793545D01*
X152886665Y-80627391D01*
X152886669Y-80627383D01*
X152979100Y-80429164D01*
X152979105Y-80429150D01*
X153035710Y-80217894D01*
X153035712Y-80217884D01*
X153054775Y-80000000D01*
X153054775Y-79999999D01*
X153035712Y-79782115D01*
X153035710Y-79782105D01*
X152979105Y-79570849D01*
X152979101Y-79570840D01*
X152886668Y-79372615D01*
X152770320Y-79206453D01*
X152268361Y-79708413D01*
X152253558Y-79679844D01*
X152150362Y-79569348D01*
X152090361Y-79532860D01*
X152593545Y-79029678D01*
X152427387Y-78913333D01*
X152229159Y-78820898D01*
X152229150Y-78820894D01*
X152017894Y-78764289D01*
X152017884Y-78764287D01*
X151800001Y-78745225D01*
X151799999Y-78745225D01*
X151582115Y-78764287D01*
X151582105Y-78764289D01*
X151370849Y-78820894D01*
X151370840Y-78820898D01*
X151172614Y-78913332D01*
X151172612Y-78913333D01*
X151006453Y-79029677D01*
X151006453Y-79029678D01*
X151506515Y-79529740D01*
X151394261Y-79621066D01*
X151332204Y-79708980D01*
X150829678Y-79206453D01*
X150829677Y-79206453D01*
X150713333Y-79372612D01*
X150713332Y-79372614D01*
X150620898Y-79570840D01*
X150620894Y-79570849D01*
X150564289Y-79782105D01*
X150564287Y-79782115D01*
X150545225Y-79999999D01*
X150545225Y-80000000D01*
X146554775Y-80000000D01*
X146554775Y-79999999D01*
X146535712Y-79782115D01*
X146535710Y-79782105D01*
X146479105Y-79570849D01*
X146479101Y-79570840D01*
X146386668Y-79372615D01*
X146270320Y-79206453D01*
X145768361Y-79708413D01*
X145753558Y-79679844D01*
X145650362Y-79569348D01*
X145590361Y-79532860D01*
X146093545Y-79029678D01*
X145927387Y-78913333D01*
X145729159Y-78820898D01*
X145729150Y-78820894D01*
X145517894Y-78764289D01*
X145517884Y-78764287D01*
X145300001Y-78745225D01*
X145299999Y-78745225D01*
X145082115Y-78764287D01*
X145082105Y-78764289D01*
X144870849Y-78820894D01*
X144870840Y-78820898D01*
X144672614Y-78913332D01*
X144672612Y-78913333D01*
X144506453Y-79029677D01*
X144506453Y-79029678D01*
X145006515Y-79529740D01*
X144894261Y-79621066D01*
X144832204Y-79708980D01*
X144329678Y-79206453D01*
X144329677Y-79206453D01*
X144213333Y-79372612D01*
X144213332Y-79372614D01*
X144120898Y-79570840D01*
X144120894Y-79570849D01*
X144064289Y-79782105D01*
X144064287Y-79782115D01*
X144045225Y-79999999D01*
X144045225Y-80000000D01*
X139841875Y-80000000D01*
X139840695Y-75500005D01*
X143794357Y-75500005D01*
X143814890Y-75747812D01*
X143814892Y-75747824D01*
X143875936Y-75988881D01*
X143975826Y-76216606D01*
X144111833Y-76424782D01*
X144111836Y-76424785D01*
X144280256Y-76607738D01*
X144476491Y-76760474D01*
X144695190Y-76878828D01*
X144930386Y-76959571D01*
X145175665Y-77000500D01*
X145424335Y-77000500D01*
X145669614Y-76959571D01*
X145904810Y-76878828D01*
X146123509Y-76760474D01*
X146319744Y-76607738D01*
X146488164Y-76424785D01*
X146624173Y-76216607D01*
X146724063Y-75988881D01*
X146785108Y-75747821D01*
X146799939Y-75568840D01*
X146805643Y-75500005D01*
X150294357Y-75500005D01*
X150314890Y-75747812D01*
X150314892Y-75747824D01*
X150375936Y-75988881D01*
X150475826Y-76216606D01*
X150611833Y-76424782D01*
X150611836Y-76424785D01*
X150780256Y-76607738D01*
X150976491Y-76760474D01*
X151195190Y-76878828D01*
X151430386Y-76959571D01*
X151675665Y-77000500D01*
X151924335Y-77000500D01*
X152169614Y-76959571D01*
X152404810Y-76878828D01*
X152623509Y-76760474D01*
X152819744Y-76607738D01*
X152988164Y-76424785D01*
X153124173Y-76216607D01*
X153224063Y-75988881D01*
X153285108Y-75747821D01*
X153299939Y-75568840D01*
X153305643Y-75500005D01*
X153305643Y-75499994D01*
X153285109Y-75252187D01*
X153285107Y-75252175D01*
X153224063Y-75011118D01*
X153124173Y-74783393D01*
X152988166Y-74575217D01*
X152925862Y-74507537D01*
X152819744Y-74392262D01*
X152623509Y-74239526D01*
X152623507Y-74239525D01*
X152623506Y-74239524D01*
X152404811Y-74121172D01*
X152404802Y-74121169D01*
X152169616Y-74040429D01*
X151924335Y-73999500D01*
X151675665Y-73999500D01*
X151430383Y-74040429D01*
X151195197Y-74121169D01*
X151195188Y-74121172D01*
X150976493Y-74239524D01*
X150780257Y-74392261D01*
X150611833Y-74575217D01*
X150475826Y-74783393D01*
X150375936Y-75011118D01*
X150314892Y-75252175D01*
X150314890Y-75252187D01*
X150294357Y-75499994D01*
X150294357Y-75500005D01*
X146805643Y-75500005D01*
X146805643Y-75499994D01*
X146785109Y-75252187D01*
X146785107Y-75252175D01*
X146724063Y-75011118D01*
X146624173Y-74783393D01*
X146488166Y-74575217D01*
X146425862Y-74507537D01*
X146319744Y-74392262D01*
X146123509Y-74239526D01*
X146123507Y-74239525D01*
X146123506Y-74239524D01*
X145904811Y-74121172D01*
X145904802Y-74121169D01*
X145669616Y-74040429D01*
X145424335Y-73999500D01*
X145175665Y-73999500D01*
X144930383Y-74040429D01*
X144695197Y-74121169D01*
X144695188Y-74121172D01*
X144476493Y-74239524D01*
X144280257Y-74392261D01*
X144111833Y-74575217D01*
X143975826Y-74783393D01*
X143875936Y-75011118D01*
X143814892Y-75252175D01*
X143814890Y-75252187D01*
X143794357Y-75499994D01*
X143794357Y-75500005D01*
X139840695Y-75500005D01*
X139839174Y-69700000D01*
X140145194Y-69700000D01*
X140164401Y-70042025D01*
X140164403Y-70042037D01*
X140221783Y-70379754D01*
X140221785Y-70379762D01*
X140316619Y-70708935D01*
X140447711Y-71025424D01*
X140447713Y-71025428D01*
X140613422Y-71325255D01*
X140811660Y-71604646D01*
X140956500Y-71766720D01*
X140956501Y-71766721D01*
X141983697Y-70739524D01*
X142065130Y-70834870D01*
X142160474Y-70916301D01*
X141133278Y-71943498D01*
X141295353Y-72088339D01*
X141574744Y-72286577D01*
X141874571Y-72452286D01*
X141874575Y-72452288D01*
X142191064Y-72583380D01*
X142520237Y-72678214D01*
X142520245Y-72678216D01*
X142857962Y-72735596D01*
X142857974Y-72735598D01*
X143200000Y-72754805D01*
X143542025Y-72735598D01*
X143542037Y-72735596D01*
X143879754Y-72678216D01*
X143879762Y-72678214D01*
X144208935Y-72583380D01*
X144525424Y-72452288D01*
X144525428Y-72452286D01*
X144825255Y-72286577D01*
X145104641Y-72088342D01*
X145266720Y-71943497D01*
X144239524Y-70916301D01*
X144334870Y-70834870D01*
X144416301Y-70739524D01*
X145443497Y-71766720D01*
X145588342Y-71604641D01*
X145786577Y-71325255D01*
X145952286Y-71025428D01*
X145952288Y-71025424D01*
X146083380Y-70708935D01*
X146178214Y-70379762D01*
X146178216Y-70379754D01*
X146235596Y-70042037D01*
X146235598Y-70042025D01*
X146254805Y-69700000D01*
X146235598Y-69357974D01*
X146235596Y-69357962D01*
X146178216Y-69020245D01*
X146178214Y-69020237D01*
X146083380Y-68691064D01*
X145952288Y-68374575D01*
X145952286Y-68374571D01*
X145786577Y-68074744D01*
X145588339Y-67795353D01*
X145443498Y-67633278D01*
X144416301Y-68660474D01*
X144334870Y-68565130D01*
X144239524Y-68483698D01*
X145266721Y-67456501D01*
X145266720Y-67456500D01*
X145104646Y-67311660D01*
X144825255Y-67113422D01*
X144525428Y-66947713D01*
X144525424Y-66947711D01*
X144208935Y-66816619D01*
X143879762Y-66721785D01*
X143879754Y-66721783D01*
X143542037Y-66664403D01*
X143542025Y-66664401D01*
X143200000Y-66645194D01*
X142857974Y-66664401D01*
X142857962Y-66664403D01*
X142520245Y-66721783D01*
X142520237Y-66721785D01*
X142191064Y-66816619D01*
X141874575Y-66947711D01*
X141874571Y-66947713D01*
X141574744Y-67113422D01*
X141295358Y-67311657D01*
X141133278Y-67456501D01*
X142160475Y-68483698D01*
X142065130Y-68565130D01*
X141983698Y-68660475D01*
X140956501Y-67633278D01*
X140811657Y-67795358D01*
X140613422Y-68074744D01*
X140447713Y-68374571D01*
X140447711Y-68374575D01*
X140316619Y-68691064D01*
X140221785Y-69020237D01*
X140221783Y-69020245D01*
X140164403Y-69357962D01*
X140164401Y-69357974D01*
X140145194Y-69700000D01*
X139839174Y-69700000D01*
X139839071Y-69305619D01*
X139840627Y-69286015D01*
X139859351Y-69168920D01*
X139895316Y-68949482D01*
X139897982Y-68937181D01*
X139941119Y-68777781D01*
X139941423Y-68776683D01*
X139991609Y-68599824D01*
X139995270Y-68588896D01*
X140056930Y-68429936D01*
X140057809Y-68427738D01*
X140125645Y-68262877D01*
X140130063Y-68253322D01*
X140209172Y-68099780D01*
X140210764Y-68096796D01*
X140295808Y-67942676D01*
X140300730Y-67934518D01*
X140396195Y-67789281D01*
X140398697Y-67785622D01*
X140500087Y-67643027D01*
X140505210Y-67636324D01*
X140615878Y-67501476D01*
X140619418Y-67497356D01*
X140735958Y-67367643D01*
X140741142Y-67362215D01*
X140865563Y-67239662D01*
X140870264Y-67235269D01*
X141000738Y-67119683D01*
X141005669Y-67115543D01*
X141142310Y-67006819D01*
X141148301Y-67002344D01*
X141291157Y-66902264D01*
X141295691Y-66899236D01*
X141442831Y-66805676D01*
X141450182Y-66801351D01*
X141603915Y-66717917D01*
X141607872Y-66715862D01*
X141763524Y-66638622D01*
X141772233Y-66634710D01*
X141935482Y-66568867D01*
X141938633Y-66567649D01*
X142100600Y-66507624D01*
X142110612Y-66504393D01*
X142282484Y-66456917D01*
X142284701Y-66456329D01*
X142449971Y-66414275D01*
X142461263Y-66411957D01*
X142642930Y-66383452D01*
X142643912Y-66383303D01*
X142807489Y-66359678D01*
X142819994Y-66358516D01*
X143031337Y-66349681D01*
X143168621Y-66344502D01*
X143175007Y-66344427D01*
X143215966Y-66345000D01*
X143221909Y-66344382D01*
X177624152Y-66356630D01*
G37*
%TD.AperFunction*%
%TA.AperFunction,Conductor*%
G36*
X150577161Y-95225185D02*
G01*
X150583236Y-95229480D01*
X150584312Y-95230116D01*
X150584313Y-95230117D01*
X150723605Y-95312494D01*
X150764587Y-95324400D01*
X150879002Y-95357642D01*
X150879005Y-95357642D01*
X150879007Y-95357643D01*
X150915310Y-95360500D01*
X150915318Y-95360500D01*
X151327963Y-95360500D01*
X151395002Y-95380185D01*
X151440757Y-95432989D01*
X151450901Y-95468312D01*
X151451005Y-95469102D01*
X151452874Y-95483292D01*
X151449899Y-95483683D01*
X151449899Y-95516316D01*
X151452874Y-95516708D01*
X151437000Y-95637272D01*
X151437000Y-95862727D01*
X151447223Y-95940374D01*
X151451813Y-95975236D01*
X151509802Y-96115233D01*
X151602049Y-96235451D01*
X151722267Y-96327698D01*
X151862264Y-96385687D01*
X151974780Y-96400500D01*
X152289571Y-96400500D01*
X152356610Y-96420185D01*
X152402365Y-96472989D01*
X152412309Y-96542147D01*
X152383284Y-96605703D01*
X152377260Y-96612173D01*
X152259017Y-96730416D01*
X152250484Y-96738949D01*
X152237911Y-96749024D01*
X152238065Y-96749210D01*
X152232058Y-96754179D01*
X152184133Y-96805213D01*
X152181427Y-96808005D01*
X152161090Y-96828343D01*
X152161077Y-96828358D01*
X152158373Y-96831843D01*
X152150806Y-96840702D01*
X152119552Y-96873987D01*
X152109322Y-96892593D01*
X152098646Y-96908844D01*
X152085640Y-96925612D01*
X152085636Y-96925618D01*
X152067508Y-96967510D01*
X152062369Y-96977999D01*
X152040372Y-97018010D01*
X152040372Y-97018011D01*
X152035091Y-97038579D01*
X152028791Y-97056981D01*
X152020364Y-97076453D01*
X152013223Y-97121542D01*
X152010854Y-97132980D01*
X151999500Y-97177197D01*
X151999500Y-97198424D01*
X151997973Y-97217823D01*
X151994653Y-97238785D01*
X151997624Y-97270208D01*
X151998950Y-97284238D01*
X151999500Y-97295908D01*
X151999500Y-98785858D01*
X151979815Y-98852897D01*
X151927011Y-98898652D01*
X151918847Y-98902034D01*
X151907669Y-98906204D01*
X151907664Y-98906206D01*
X151792455Y-98992452D01*
X151792452Y-98992455D01*
X151706206Y-99107664D01*
X151706202Y-99107671D01*
X151655908Y-99242517D01*
X151652954Y-99270000D01*
X151649501Y-99302123D01*
X151649500Y-99302135D01*
X151649500Y-99914545D01*
X151629815Y-99981584D01*
X151613227Y-100002180D01*
X151612273Y-100003135D01*
X151550968Y-100036652D01*
X151524546Y-100039500D01*
X151418077Y-100039500D01*
X151351038Y-100019815D01*
X151305283Y-99967011D01*
X151295339Y-99897853D01*
X151303516Y-99868048D01*
X151323736Y-99819230D01*
X151345719Y-99766159D01*
X151360500Y-99653887D01*
X151360499Y-99136114D01*
X151356754Y-99107669D01*
X151345720Y-99023848D01*
X151345719Y-99023847D01*
X151345719Y-99023841D01*
X151287856Y-98884147D01*
X151195810Y-98764190D01*
X151075853Y-98672144D01*
X151075852Y-98672143D01*
X151075850Y-98672142D01*
X150936162Y-98614282D01*
X150936160Y-98614281D01*
X150936159Y-98614281D01*
X150823887Y-98599500D01*
X148926111Y-98599500D01*
X148813848Y-98614279D01*
X148813837Y-98614282D01*
X148674149Y-98672142D01*
X148554190Y-98764190D01*
X148462142Y-98884149D01*
X148404282Y-99023837D01*
X148404281Y-99023841D01*
X148389500Y-99136105D01*
X148389500Y-99653888D01*
X148404279Y-99766151D01*
X148404282Y-99766162D01*
X148462143Y-99905853D01*
X148499482Y-99954514D01*
X148524676Y-100019684D01*
X148510637Y-100088128D01*
X148499482Y-100105486D01*
X148462143Y-100154146D01*
X148404282Y-100293837D01*
X148404281Y-100293841D01*
X148389500Y-100406105D01*
X148389500Y-100923888D01*
X148404279Y-101036151D01*
X148404282Y-101036162D01*
X148462143Y-101175853D01*
X148499482Y-101224514D01*
X148524676Y-101289684D01*
X148510637Y-101358128D01*
X148499482Y-101375486D01*
X148462143Y-101424146D01*
X148404282Y-101563837D01*
X148404281Y-101563841D01*
X148389500Y-101676105D01*
X148389500Y-102193888D01*
X148404279Y-102306151D01*
X148404282Y-102306162D01*
X148462143Y-102445853D01*
X148499482Y-102494514D01*
X148524676Y-102559684D01*
X148510637Y-102628128D01*
X148499482Y-102645486D01*
X148462143Y-102694146D01*
X148404282Y-102833837D01*
X148404281Y-102833841D01*
X148389500Y-102946105D01*
X148389500Y-103005547D01*
X148369815Y-103072586D01*
X148317011Y-103118341D01*
X148247853Y-103128285D01*
X148184297Y-103099260D01*
X148177819Y-103093228D01*
X146635803Y-101551212D01*
X146625980Y-101538950D01*
X146625759Y-101539134D01*
X146620786Y-101533122D01*
X146571776Y-101487099D01*
X146568977Y-101484386D01*
X146549477Y-101464885D01*
X146549471Y-101464880D01*
X146546286Y-101462409D01*
X146537434Y-101454848D01*
X146505582Y-101424938D01*
X146505580Y-101424936D01*
X146505577Y-101424935D01*
X146488029Y-101415288D01*
X146471763Y-101404604D01*
X146455932Y-101392324D01*
X146415849Y-101374978D01*
X146405363Y-101369841D01*
X146367094Y-101348803D01*
X146367092Y-101348802D01*
X146347693Y-101343822D01*
X146329281Y-101337518D01*
X146310898Y-101329562D01*
X146310895Y-101329561D01*
X146301644Y-101328096D01*
X146245561Y-101303999D01*
X146226905Y-101289684D01*
X146142683Y-101225058D01*
X146101481Y-101168631D01*
X146097539Y-101102460D01*
X146200000Y-101000000D01*
X146200000Y-99100000D01*
X146000000Y-98800000D01*
X144740645Y-98800000D01*
X144721158Y-98777511D01*
X144711214Y-98708353D01*
X144740239Y-98644797D01*
X144746271Y-98638319D01*
X148142771Y-95241819D01*
X148204094Y-95208334D01*
X148230452Y-95205500D01*
X150510122Y-95205500D01*
X150577161Y-95225185D01*
G37*
%TD.AperFunction*%
%TA.AperFunction,Conductor*%
G36*
X154645627Y-89946054D02*
G01*
X154662982Y-89957206D01*
X154722267Y-90002698D01*
X154862264Y-90060687D01*
X154969086Y-90074750D01*
X154974764Y-90075498D01*
X154974780Y-90075500D01*
X154974787Y-90075500D01*
X155200213Y-90075500D01*
X155200220Y-90075500D01*
X155312736Y-90060687D01*
X155312736Y-90060686D01*
X155320795Y-90059626D01*
X155321198Y-90062689D01*
X155353802Y-90062689D01*
X155354205Y-90059626D01*
X155362263Y-90060686D01*
X155362264Y-90060687D01*
X155474780Y-90075500D01*
X155474787Y-90075500D01*
X155700213Y-90075500D01*
X155700220Y-90075500D01*
X155812736Y-90060687D01*
X155812736Y-90060686D01*
X155820795Y-90059626D01*
X155821198Y-90062689D01*
X155853802Y-90062689D01*
X155854205Y-90059626D01*
X155862263Y-90060686D01*
X155862264Y-90060687D01*
X155974780Y-90075500D01*
X155974787Y-90075500D01*
X156200213Y-90075500D01*
X156200220Y-90075500D01*
X156312736Y-90060687D01*
X156312736Y-90060686D01*
X156320795Y-90059626D01*
X156321198Y-90062689D01*
X156353802Y-90062689D01*
X156354205Y-90059626D01*
X156362263Y-90060686D01*
X156362264Y-90060687D01*
X156474780Y-90075500D01*
X156474787Y-90075500D01*
X156700213Y-90075500D01*
X156700220Y-90075500D01*
X156812736Y-90060687D01*
X156812736Y-90060686D01*
X156820795Y-90059626D01*
X156821198Y-90062689D01*
X156853802Y-90062689D01*
X156854205Y-90059626D01*
X156862263Y-90060686D01*
X156862264Y-90060687D01*
X156974780Y-90075500D01*
X156974787Y-90075500D01*
X157200213Y-90075500D01*
X157200220Y-90075500D01*
X157312736Y-90060687D01*
X157312736Y-90060686D01*
X157320795Y-90059626D01*
X157321198Y-90062689D01*
X157353802Y-90062689D01*
X157354205Y-90059626D01*
X157362263Y-90060686D01*
X157362264Y-90060687D01*
X157474780Y-90075500D01*
X157474787Y-90075500D01*
X157700213Y-90075500D01*
X157700220Y-90075500D01*
X157812736Y-90060687D01*
X157812736Y-90060686D01*
X157820795Y-90059626D01*
X157821198Y-90062689D01*
X157853802Y-90062689D01*
X157854205Y-90059626D01*
X157862263Y-90060686D01*
X157862264Y-90060687D01*
X157974780Y-90075500D01*
X157974787Y-90075500D01*
X158200213Y-90075500D01*
X158200220Y-90075500D01*
X158312736Y-90060687D01*
X158312736Y-90060686D01*
X158320795Y-90059626D01*
X158321198Y-90062689D01*
X158353802Y-90062689D01*
X158354205Y-90059626D01*
X158362263Y-90060686D01*
X158362264Y-90060687D01*
X158474780Y-90075500D01*
X158474787Y-90075500D01*
X158700213Y-90075500D01*
X158700220Y-90075500D01*
X158812736Y-90060687D01*
X158812736Y-90060686D01*
X158820795Y-90059626D01*
X158821198Y-90062689D01*
X158853802Y-90062689D01*
X158854205Y-90059626D01*
X158862263Y-90060686D01*
X158862264Y-90060687D01*
X158974780Y-90075500D01*
X158974787Y-90075500D01*
X159193302Y-90075500D01*
X159260341Y-90095185D01*
X159306096Y-90147989D01*
X159316040Y-90217147D01*
X159287015Y-90280703D01*
X159228237Y-90318477D01*
X159219083Y-90320790D01*
X159186965Y-90327616D01*
X159186960Y-90327618D01*
X159014038Y-90404609D01*
X159014033Y-90404612D01*
X158860897Y-90515872D01*
X158734234Y-90656546D01*
X158639589Y-90820476D01*
X158639586Y-90820483D01*
X158581095Y-91000501D01*
X158581094Y-91000505D01*
X158561308Y-91188761D01*
X158581094Y-91377017D01*
X158581095Y-91377020D01*
X158639586Y-91557038D01*
X158639589Y-91557045D01*
X158734235Y-91720977D01*
X158860897Y-91861649D01*
X159014033Y-91972909D01*
X159014038Y-91972912D01*
X159186960Y-92049903D01*
X159186965Y-92049905D01*
X159372122Y-92089261D01*
X159372123Y-92089261D01*
X159561412Y-92089261D01*
X159561414Y-92089261D01*
X159612219Y-92078462D01*
X159681886Y-92083778D01*
X159737620Y-92125915D01*
X159761725Y-92191495D01*
X159762000Y-92199752D01*
X159762000Y-92362727D01*
X159777874Y-92483292D01*
X159774899Y-92483683D01*
X159774899Y-92516316D01*
X159777874Y-92516708D01*
X159762000Y-92637272D01*
X159762000Y-92862727D01*
X159777874Y-92983292D01*
X159774899Y-92983683D01*
X159774899Y-93016316D01*
X159777874Y-93016708D01*
X159776813Y-93024762D01*
X159776813Y-93024764D01*
X159774476Y-93042517D01*
X159762000Y-93137272D01*
X159762000Y-93362727D01*
X159769965Y-93423223D01*
X159775573Y-93465821D01*
X159777874Y-93483292D01*
X159774899Y-93483683D01*
X159774899Y-93516316D01*
X159777874Y-93516708D01*
X159776813Y-93524762D01*
X159776813Y-93524764D01*
X159773739Y-93548116D01*
X159762000Y-93637272D01*
X159762000Y-93862727D01*
X159766816Y-93899303D01*
X159776036Y-93969337D01*
X159777874Y-93983292D01*
X159774899Y-93983683D01*
X159774899Y-94016316D01*
X159777874Y-94016708D01*
X159776813Y-94024762D01*
X159776813Y-94024764D01*
X159776451Y-94027514D01*
X159762000Y-94137272D01*
X159762000Y-94311321D01*
X159742315Y-94378360D01*
X159689511Y-94424115D01*
X159620353Y-94434059D01*
X159556797Y-94405034D01*
X159550319Y-94399002D01*
X159001805Y-93850488D01*
X158991732Y-93837914D01*
X158991545Y-93838070D01*
X158986569Y-93832054D01*
X158935538Y-93784134D01*
X158932740Y-93781423D01*
X158912406Y-93761089D01*
X158908919Y-93758384D01*
X158900040Y-93750800D01*
X158866767Y-93719554D01*
X158866759Y-93719548D01*
X158848163Y-93709325D01*
X158831902Y-93698644D01*
X158815134Y-93685637D01*
X158798780Y-93678560D01*
X158773224Y-93667501D01*
X158762765Y-93662377D01*
X158722739Y-93640373D01*
X158722736Y-93640372D01*
X158702172Y-93635092D01*
X158683767Y-93628790D01*
X158664298Y-93620365D01*
X158664292Y-93620363D01*
X158619208Y-93613223D01*
X158607769Y-93610854D01*
X158563551Y-93599500D01*
X158563548Y-93599500D01*
X158542326Y-93599500D01*
X158522926Y-93597973D01*
X158501967Y-93594653D01*
X158501966Y-93594653D01*
X158466846Y-93597973D01*
X158456511Y-93598950D01*
X158444841Y-93599500D01*
X155774500Y-93599500D01*
X155707461Y-93579815D01*
X155661706Y-93527011D01*
X155650500Y-93475500D01*
X155650500Y-91819881D01*
X155652268Y-91803868D01*
X155652026Y-91803846D01*
X155652758Y-91796090D01*
X155652760Y-91796083D01*
X155650561Y-91726115D01*
X155650500Y-91722220D01*
X155650500Y-91693457D01*
X155650499Y-91693450D01*
X155649949Y-91689096D01*
X155649030Y-91677434D01*
X155647597Y-91631810D01*
X155641676Y-91611432D01*
X155637731Y-91592383D01*
X155635071Y-91571322D01*
X155618261Y-91528867D01*
X155614481Y-91517825D01*
X155608685Y-91497873D01*
X155601744Y-91473981D01*
X155590939Y-91455712D01*
X155582379Y-91438238D01*
X155581351Y-91435642D01*
X155574568Y-91418509D01*
X155547737Y-91381579D01*
X155541323Y-91371815D01*
X155518082Y-91332517D01*
X155518081Y-91332515D01*
X155503075Y-91317509D01*
X155490435Y-91302710D01*
X155477961Y-91285540D01*
X155442780Y-91256436D01*
X155434140Y-91248574D01*
X154396949Y-90211383D01*
X154363464Y-90150060D01*
X154368448Y-90080368D01*
X154410320Y-90024435D01*
X154437175Y-90009142D01*
X154452733Y-90002698D01*
X154512014Y-89957209D01*
X154577183Y-89932016D01*
X154645627Y-89946054D01*
G37*
%TD.AperFunction*%
%TA.AperFunction,Conductor*%
G36*
X168484340Y-71238068D02*
G01*
X168540274Y-71279939D01*
X168557189Y-71310917D01*
X168606202Y-71442328D01*
X168606206Y-71442335D01*
X168692452Y-71557544D01*
X168692455Y-71557547D01*
X168807664Y-71643793D01*
X168807671Y-71643797D01*
X168942517Y-71694091D01*
X168942516Y-71694091D01*
X168949444Y-71694835D01*
X169002127Y-71700500D01*
X170314547Y-71700499D01*
X170381586Y-71720184D01*
X170402228Y-71736818D01*
X172578228Y-73912819D01*
X172611713Y-73974142D01*
X172606729Y-74043834D01*
X172564857Y-74099767D01*
X172499393Y-74124184D01*
X172490547Y-74124500D01*
X172020818Y-74124500D01*
X171922316Y-74134563D01*
X171922315Y-74134564D01*
X171843219Y-74160773D01*
X171762715Y-74187450D01*
X171762704Y-74187455D01*
X171619612Y-74275716D01*
X171619608Y-74275719D01*
X171587681Y-74307647D01*
X171526358Y-74341132D01*
X171456666Y-74336148D01*
X171412319Y-74307647D01*
X171380391Y-74275719D01*
X171380387Y-74275716D01*
X171237295Y-74187455D01*
X171237289Y-74187452D01*
X171237287Y-74187451D01*
X171077685Y-74134564D01*
X171077683Y-74134563D01*
X170979181Y-74124500D01*
X170979174Y-74124500D01*
X170445826Y-74124500D01*
X170445818Y-74124500D01*
X170347316Y-74134563D01*
X170347315Y-74134564D01*
X170268219Y-74160773D01*
X170187715Y-74187450D01*
X170187704Y-74187455D01*
X170044612Y-74275716D01*
X170044611Y-74275716D01*
X170015502Y-74304825D01*
X169954178Y-74338308D01*
X169884486Y-74333321D01*
X169854937Y-74317459D01*
X169852730Y-74315855D01*
X169851225Y-74315185D01*
X169679807Y-74238863D01*
X169679802Y-74238861D01*
X169530580Y-74207144D01*
X169494646Y-74199506D01*
X169305354Y-74199506D01*
X169272897Y-74206404D01*
X169120197Y-74238861D01*
X169120192Y-74238863D01*
X168947270Y-74315854D01*
X168947265Y-74315857D01*
X168794129Y-74427117D01*
X168667466Y-74567791D01*
X168572821Y-74731721D01*
X168572818Y-74731728D01*
X168516381Y-74905424D01*
X168514326Y-74911750D01*
X168494540Y-75100006D01*
X168514326Y-75288262D01*
X168514327Y-75288265D01*
X168572818Y-75468283D01*
X168572821Y-75468290D01*
X168667467Y-75632222D01*
X168694538Y-75662287D01*
X168794129Y-75772894D01*
X168947265Y-75884154D01*
X168947270Y-75884157D01*
X169120192Y-75961148D01*
X169120197Y-75961150D01*
X169305354Y-76000506D01*
X169305355Y-76000506D01*
X169494644Y-76000506D01*
X169494646Y-76000506D01*
X169679803Y-75961150D01*
X169852730Y-75884157D01*
X169854942Y-75882549D01*
X169856443Y-75882013D01*
X169858359Y-75880908D01*
X169858561Y-75881258D01*
X169920746Y-75859068D01*
X169988801Y-75874890D01*
X170015512Y-75895184D01*
X170044609Y-75924281D01*
X170153455Y-75991418D01*
X170200177Y-76043364D01*
X170211400Y-76112327D01*
X170183556Y-76176409D01*
X170161995Y-76196721D01*
X170153209Y-76203205D01*
X170072653Y-76312354D01*
X170027850Y-76440395D01*
X170027850Y-76440399D01*
X170025000Y-76470793D01*
X170025000Y-76675000D01*
X170676000Y-76675000D01*
X170743039Y-76694685D01*
X170788794Y-76747489D01*
X170800000Y-76799000D01*
X170800000Y-76801000D01*
X170780315Y-76868039D01*
X170727511Y-76913794D01*
X170676000Y-76925000D01*
X170025001Y-76925000D01*
X170025001Y-77070500D01*
X170005316Y-77137539D01*
X169952512Y-77183294D01*
X169901001Y-77194500D01*
X169341333Y-77194500D01*
X169338582Y-77194549D01*
X169323078Y-77194829D01*
X169314099Y-77195154D01*
X169295860Y-77196144D01*
X169155290Y-77226855D01*
X169089861Y-77251325D01*
X169089852Y-77251329D01*
X168963635Y-77320397D01*
X168646298Y-77558400D01*
X168646293Y-77558405D01*
X168579472Y-77618510D01*
X168551923Y-77648128D01*
X168549552Y-77650677D01*
X168519163Y-77689815D01*
X168494432Y-77721665D01*
X168434663Y-77852537D01*
X168414976Y-77919582D01*
X168394500Y-78062001D01*
X168394500Y-78538002D01*
X168402490Y-78627519D01*
X168410271Y-78670763D01*
X168429630Y-78741514D01*
X168431951Y-78750000D01*
X168433993Y-78757461D01*
X168476416Y-78835317D01*
X168502834Y-78883800D01*
X168505876Y-78887871D01*
X168544656Y-78939773D01*
X168646299Y-79041599D01*
X168646300Y-79041600D01*
X168963633Y-79279600D01*
X168978476Y-79290318D01*
X168985837Y-79295433D01*
X169000997Y-79305567D01*
X169131874Y-79365338D01*
X169198913Y-79385023D01*
X169198917Y-79385024D01*
X169341333Y-79405500D01*
X169470500Y-79405500D01*
X169537539Y-79425185D01*
X169583294Y-79477989D01*
X169594500Y-79529500D01*
X169594500Y-80358658D01*
X169594829Y-80376921D01*
X169595154Y-80385891D01*
X169596145Y-80404144D01*
X169596145Y-80404146D01*
X169626854Y-80544697D01*
X169626860Y-80544719D01*
X169651329Y-80610142D01*
X169651330Y-80610144D01*
X169651331Y-80610146D01*
X169651332Y-80610148D01*
X169660768Y-80627391D01*
X169720396Y-80736359D01*
X169720399Y-80736365D01*
X169763284Y-80793545D01*
X169867199Y-80932099D01*
X169958404Y-81053705D01*
X169958408Y-81053710D01*
X170018510Y-81120527D01*
X170018513Y-81120530D01*
X170018516Y-81120533D01*
X170050677Y-81150448D01*
X170121664Y-81205567D01*
X170252541Y-81265338D01*
X170319580Y-81285023D01*
X170319584Y-81285024D01*
X170462000Y-81305500D01*
X170462003Y-81305500D01*
X170923363Y-81305500D01*
X170923364Y-81305500D01*
X171057211Y-81287458D01*
X171120533Y-81270071D01*
X171244827Y-81217232D01*
X171356816Y-81126900D01*
X171404403Y-81075741D01*
X171424590Y-81046638D01*
X171473612Y-80975965D01*
X171527995Y-80932099D01*
X171597461Y-80924598D01*
X171659954Y-80955844D01*
X171695634Y-81015917D01*
X171699500Y-81046638D01*
X171699500Y-81902954D01*
X171679815Y-81969993D01*
X171663181Y-81990635D01*
X170455812Y-83198003D01*
X170394489Y-83231488D01*
X170324797Y-83226504D01*
X170280450Y-83198003D01*
X170264370Y-83181923D01*
X170264362Y-83181917D01*
X170122896Y-83098255D01*
X170122893Y-83098254D01*
X169965073Y-83052402D01*
X169965067Y-83052401D01*
X169928201Y-83049500D01*
X169928194Y-83049500D01*
X169410452Y-83049500D01*
X169343413Y-83029815D01*
X169322771Y-83013181D01*
X168021819Y-81712228D01*
X167988334Y-81650905D01*
X167985500Y-81624547D01*
X167985500Y-71625226D01*
X168005185Y-71558187D01*
X168038374Y-71523654D01*
X168231401Y-71388495D01*
X168353329Y-71266566D01*
X168414648Y-71233084D01*
X168484340Y-71238068D01*
G37*
%TD.AperFunction*%
%TD*%
%TA.AperFunction,Conductor*%
%TO.N,VBUS*%
G36*
X171143039Y-77719685D02*
G01*
X171188794Y-77772489D01*
X171200000Y-77824000D01*
X171200000Y-80370728D01*
X171186909Y-80426182D01*
X171034273Y-80731454D01*
X170986686Y-80782613D01*
X170923364Y-80800000D01*
X170462000Y-80800000D01*
X170394961Y-80780315D01*
X170362800Y-80750400D01*
X170124800Y-80433066D01*
X170100324Y-80367624D01*
X170100000Y-80358666D01*
X170100000Y-78900000D01*
X169341333Y-78900000D01*
X169274294Y-78880315D01*
X169266933Y-78875200D01*
X168949600Y-78637200D01*
X168907779Y-78581229D01*
X168900000Y-78538000D01*
X168900000Y-78062000D01*
X168919685Y-77994961D01*
X168949600Y-77962800D01*
X169266933Y-77724799D01*
X169332375Y-77700324D01*
X169341333Y-77700000D01*
X171076000Y-77700000D01*
X171143039Y-77719685D01*
G37*
%TD.AperFunction*%
%TD*%
M02*
