M48
; DRILL file {KiCad 7.0.10} date Wed Mar 12 17:19:49 2025
; FORMAT={-:-/ absolute / metric / decimal}
; #@! TF.CreationDate,2025-03-12T17:19:49-05:00
; #@! TF.GenerationSoftware,Kicad,Pcbnew,7.0.10
; #@! TF.FileFunction,MixedPlating,1,2
FMAT,2
METRIC
; #@! TA.AperFunction,Plated,PTH,ViaDrill
T1C0.300
; #@! TA.AperFunction,Plated,PTH,ViaDrill
T2C0.400
; #@! TA.AperFunction,Plated,PTH,ComponentDrill
T3C0.500
; #@! TA.AperFunction,Plated,PTH,ComponentDrill
T4C0.600
; #@! TA.AperFunction,Plated,PTH,ComponentDrill
T5C0.680
; #@! TA.AperFunction,Plated,PTH,ComponentDrill
T6C0.800
; #@! TA.AperFunction,Plated,PTH,ComponentDrill
T7C0.850
; #@! TA.AperFunction,Plated,PTH,ComponentDrill
T8C1.000
; #@! TA.AperFunction,Plated,PTH,ComponentDrill
T9C1.100
; #@! TA.AperFunction,Plated,PTH,ComponentDrill
T10C1.397
; #@! TA.AperFunction,Plated,PTH,ComponentDrill
T11C3.200
%
G90
G05
T1
X147.2Y-100.1
X159.467Y-91.189
X160.578Y-88.447
X170.45Y-98.05
T2
X146.2Y-107.212
X154.2Y-92.2
X156.6Y-95.05
X162.7Y-99.35
X163.5Y-90.07
X168.4Y-87.6
X168.4Y-89.2
X168.8Y-102.1
X168.8Y-103.2
X169.4Y-75.1
X169.4Y-78.3
X170.45Y-100.35
X170.713Y-76.763
X172.4Y-95.1
X173.5Y-95.1
X174.4Y-103.5
X174.7Y-90.4
X175.4Y-103.5
T3
X152.65Y-99.85
X152.65Y-101.85
X152.65Y-103.85
X159.4Y-83.9
X159.4Y-86.0
X163.4Y-93.65
X165.45Y-93.65
T5
X143.86Y-84.7
X148.74Y-84.7
T6
X160.55Y-75.15
X160.55Y-78.35
X163.05Y-75.15
X163.05Y-78.35
X165.55Y-75.15
X165.55Y-78.35
T7
X176.237Y-89.2
X176.237Y-94.2
T8
X149.93Y-70.4
X152.47Y-70.4
X155.01Y-70.4
X157.55Y-70.4
X162.28Y-70.35
X164.82Y-70.35
X167.36Y-70.35
X169.9Y-70.35
T9
X145.3Y-75.5
X145.3Y-80.0
X151.8Y-75.5
X151.8Y-80.0
T10
X151.62Y-110.0
X156.7Y-110.0
X164.42Y-110.0
X169.5Y-110.0
T11
X143.2Y-69.7
X143.25Y-112.9
X143.3Y-93.6
X177.15Y-69.7
X177.15Y-112.7
T4
G00X178.588Y-88.2
M15
G01X179.287Y-88.2
M16
G05
G00X179.287Y-95.2
M15
G01X178.588Y-95.2
M16
G05
M30
