%TF.GenerationSoftware,KiCad,Pcbnew,7.0.10*%
%TF.CreationDate,2025-03-12T17:19:52-05:00*%
%TF.ProjectId,Reflow Project Kicad,5265666c-6f77-4205-9072-6f6a65637420,rev?*%
%TF.SameCoordinates,Original*%
%TF.FileFunction,Soldermask,Bot*%
%TF.FilePolarity,Negative*%
%FSLAX46Y46*%
G04 Gerber Fmt 4.6, Leading zero omitted, Abs format (unit mm)*
G04 Created by KiCad (PCBNEW 7.0.10) date 2025-03-12 17:19:52*
%MOMM*%
%LPD*%
G01*
G04 APERTURE LIST*
G04 Aperture macros list*
%AMRoundRect*
0 Rectangle with rounded corners*
0 $1 Rounding radius*
0 $2 $3 $4 $5 $6 $7 $8 $9 X,Y pos of 4 corners*
0 Add a 4 corners polygon primitive as box body*
4,1,4,$2,$3,$4,$5,$6,$7,$8,$9,$2,$3,0*
0 Add four circle primitives for the rounded corners*
1,1,$1+$1,$2,$3*
1,1,$1+$1,$4,$5*
1,1,$1+$1,$6,$7*
1,1,$1+$1,$8,$9*
0 Add four rect primitives between the rounded corners*
20,1,$1+$1,$2,$3,$4,$5,0*
20,1,$1+$1,$4,$5,$6,$7,0*
20,1,$1+$1,$6,$7,$8,$9,0*
20,1,$1+$1,$8,$9,$2,$3,0*%
G04 Aperture macros list end*
%ADD10R,1.700000X1.700000*%
%ADD11O,1.700000X1.700000*%
%ADD12R,1.000000X1.000000*%
%ADD13C,1.905000*%
%ADD14C,5.600000*%
%ADD15O,1.900000X1.200000*%
%ADD16C,1.450000*%
%ADD17C,2.000000*%
%ADD18C,1.284000*%
%ADD19RoundRect,0.102000X0.654000X0.654000X-0.654000X0.654000X-0.654000X-0.654000X0.654000X-0.654000X0*%
%ADD20C,1.512000*%
G04 APERTURE END LIST*
D10*
%TO.C,J4*%
X169900000Y-70350000D03*
D11*
X167360000Y-70350000D03*
X164820000Y-70350000D03*
X162280000Y-70350000D03*
%TD*%
D12*
%TO.C,TP5*%
X165450000Y-93650000D03*
%TD*%
%TO.C,TP13*%
X159400000Y-86000000D03*
%TD*%
%TO.C,TP3*%
X152650000Y-103850000D03*
%TD*%
%TO.C,TP14*%
X159400000Y-83900000D03*
%TD*%
%TO.C,TP6*%
X163400000Y-93650000D03*
%TD*%
D13*
%TO.C,J5*%
X156700000Y-110000000D03*
X151620000Y-110000000D03*
%TD*%
D14*
%TO.C,H1*%
X143200000Y-69700000D03*
%TD*%
%TO.C,H5*%
X143300000Y-93600000D03*
%TD*%
%TO.C,H2*%
X177150000Y-69700000D03*
%TD*%
D12*
%TO.C,TP4*%
X152650000Y-99850000D03*
%TD*%
D15*
%TO.C,J1*%
X178937500Y-95200000D03*
D16*
X176237500Y-94200000D03*
X176237500Y-89200000D03*
D15*
X178937500Y-88200000D03*
%TD*%
D13*
%TO.C,J6*%
X169500000Y-110000000D03*
X164420000Y-110000000D03*
%TD*%
D10*
%TO.C,J2*%
X157550000Y-70400000D03*
D11*
X155010000Y-70400000D03*
X152470000Y-70400000D03*
X149930000Y-70400000D03*
%TD*%
D17*
%TO.C,SW2*%
X151800000Y-80000000D03*
X145300000Y-80000000D03*
X151800000Y-75500000D03*
X145300000Y-75500000D03*
%TD*%
D12*
%TO.C,TP2*%
X152650000Y-101850000D03*
%TD*%
D18*
%TO.C,Y1*%
X148740000Y-84700000D03*
X143860000Y-84700000D03*
%TD*%
D14*
%TO.C,H3*%
X177150000Y-112700000D03*
%TD*%
D19*
%TO.C,SW1*%
X165550000Y-78350000D03*
D20*
X163050000Y-78350000D03*
X160550000Y-78350000D03*
X165550000Y-75150000D03*
X163050000Y-75150000D03*
X160550000Y-75150000D03*
%TD*%
D14*
%TO.C,H4*%
X143250000Y-112900000D03*
%TD*%
M02*
