%TF.GenerationSoftware,KiCad,Pcbnew,7.0.10*%
%TF.CreationDate,2025-02-06T08:34:55-03:00*%
%TF.ProjectId,Reflow Project Kicad,5265666c-6f77-4205-9072-6f6a65637420,rev?*%
%TF.SameCoordinates,Original*%
%TF.FileFunction,Legend,Top*%
%TF.FilePolarity,Positive*%
%FSLAX46Y46*%
G04 Gerber Fmt 4.6, Leading zero omitted, Abs format (unit mm)*
G04 Created by KiCad (PCBNEW 7.0.10) date 2025-02-06 08:34:55*
%MOMM*%
%LPD*%
G01*
G04 APERTURE LIST*
%ADD10C,0.150000*%
%ADD11C,0.250000*%
%ADD12C,0.120000*%
%ADD13C,0.152400*%
%ADD14C,0.508000*%
%ADD15C,0.127000*%
%ADD16C,0.200000*%
G04 APERTURE END LIST*
D10*
X168050000Y-76050000D02*
X168125400Y-76050000D01*
X168125400Y-77550000D01*
X168050000Y-77550000D01*
X168050000Y-76050000D01*
X154120711Y-90150000D02*
G75*
G03*
X153979289Y-90150000I-70711J0D01*
G01*
X153979289Y-90150000D02*
G75*
G03*
X154120711Y-90150000I70711J0D01*
G01*
D11*
X158271699Y-76700000D02*
G75*
G03*
X157128301Y-76700000I-571699J0D01*
G01*
X157128301Y-76700000D02*
G75*
G03*
X158271699Y-76700000I571699J0D01*
G01*
D10*
X156841541Y-72469819D02*
X157460588Y-72469819D01*
X157460588Y-72469819D02*
X157127255Y-72850771D01*
X157127255Y-72850771D02*
X157270112Y-72850771D01*
X157270112Y-72850771D02*
X157365350Y-72898390D01*
X157365350Y-72898390D02*
X157412969Y-72946009D01*
X157412969Y-72946009D02*
X157460588Y-73041247D01*
X157460588Y-73041247D02*
X157460588Y-73279342D01*
X157460588Y-73279342D02*
X157412969Y-73374580D01*
X157412969Y-73374580D02*
X157365350Y-73422200D01*
X157365350Y-73422200D02*
X157270112Y-73469819D01*
X157270112Y-73469819D02*
X156984398Y-73469819D01*
X156984398Y-73469819D02*
X156889160Y-73422200D01*
X156889160Y-73422200D02*
X156841541Y-73374580D01*
X157889160Y-73374580D02*
X157936779Y-73422200D01*
X157936779Y-73422200D02*
X157889160Y-73469819D01*
X157889160Y-73469819D02*
X157841541Y-73422200D01*
X157841541Y-73422200D02*
X157889160Y-73374580D01*
X157889160Y-73374580D02*
X157889160Y-73469819D01*
X158270112Y-72469819D02*
X158889159Y-72469819D01*
X158889159Y-72469819D02*
X158555826Y-72850771D01*
X158555826Y-72850771D02*
X158698683Y-72850771D01*
X158698683Y-72850771D02*
X158793921Y-72898390D01*
X158793921Y-72898390D02*
X158841540Y-72946009D01*
X158841540Y-72946009D02*
X158889159Y-73041247D01*
X158889159Y-73041247D02*
X158889159Y-73279342D01*
X158889159Y-73279342D02*
X158841540Y-73374580D01*
X158841540Y-73374580D02*
X158793921Y-73422200D01*
X158793921Y-73422200D02*
X158698683Y-73469819D01*
X158698683Y-73469819D02*
X158412969Y-73469819D01*
X158412969Y-73469819D02*
X158317731Y-73422200D01*
X158317731Y-73422200D02*
X158270112Y-73374580D01*
X165512969Y-68019819D02*
X165036779Y-68019819D01*
X165036779Y-68019819D02*
X165036779Y-67019819D01*
X166417731Y-67924580D02*
X166370112Y-67972200D01*
X166370112Y-67972200D02*
X166227255Y-68019819D01*
X166227255Y-68019819D02*
X166132017Y-68019819D01*
X166132017Y-68019819D02*
X165989160Y-67972200D01*
X165989160Y-67972200D02*
X165893922Y-67876961D01*
X165893922Y-67876961D02*
X165846303Y-67781723D01*
X165846303Y-67781723D02*
X165798684Y-67591247D01*
X165798684Y-67591247D02*
X165798684Y-67448390D01*
X165798684Y-67448390D02*
X165846303Y-67257914D01*
X165846303Y-67257914D02*
X165893922Y-67162676D01*
X165893922Y-67162676D02*
X165989160Y-67067438D01*
X165989160Y-67067438D02*
X166132017Y-67019819D01*
X166132017Y-67019819D02*
X166227255Y-67019819D01*
X166227255Y-67019819D02*
X166370112Y-67067438D01*
X166370112Y-67067438D02*
X166417731Y-67115057D01*
X166846303Y-68019819D02*
X166846303Y-67019819D01*
X166846303Y-67019819D02*
X167084398Y-67019819D01*
X167084398Y-67019819D02*
X167227255Y-67067438D01*
X167227255Y-67067438D02*
X167322493Y-67162676D01*
X167322493Y-67162676D02*
X167370112Y-67257914D01*
X167370112Y-67257914D02*
X167417731Y-67448390D01*
X167417731Y-67448390D02*
X167417731Y-67591247D01*
X167417731Y-67591247D02*
X167370112Y-67781723D01*
X167370112Y-67781723D02*
X167322493Y-67876961D01*
X167322493Y-67876961D02*
X167227255Y-67972200D01*
X167227255Y-67972200D02*
X167084398Y-68019819D01*
X167084398Y-68019819D02*
X166846303Y-68019819D01*
X151508207Y-73474580D02*
X151460588Y-73522200D01*
X151460588Y-73522200D02*
X151317731Y-73569819D01*
X151317731Y-73569819D02*
X151222493Y-73569819D01*
X151222493Y-73569819D02*
X151079636Y-73522200D01*
X151079636Y-73522200D02*
X150984398Y-73426961D01*
X150984398Y-73426961D02*
X150936779Y-73331723D01*
X150936779Y-73331723D02*
X150889160Y-73141247D01*
X150889160Y-73141247D02*
X150889160Y-72998390D01*
X150889160Y-72998390D02*
X150936779Y-72807914D01*
X150936779Y-72807914D02*
X150984398Y-72712676D01*
X150984398Y-72712676D02*
X151079636Y-72617438D01*
X151079636Y-72617438D02*
X151222493Y-72569819D01*
X151222493Y-72569819D02*
X151317731Y-72569819D01*
X151317731Y-72569819D02*
X151460588Y-72617438D01*
X151460588Y-72617438D02*
X151508207Y-72665057D01*
X152412969Y-73569819D02*
X151936779Y-73569819D01*
X151936779Y-73569819D02*
X151936779Y-72569819D01*
X152746303Y-73569819D02*
X152746303Y-72569819D01*
X153317731Y-73569819D02*
X152889160Y-72998390D01*
X153317731Y-72569819D02*
X152746303Y-73141247D01*
X170108207Y-73419819D02*
X169774874Y-72943628D01*
X169536779Y-73419819D02*
X169536779Y-72419819D01*
X169536779Y-72419819D02*
X169917731Y-72419819D01*
X169917731Y-72419819D02*
X170012969Y-72467438D01*
X170012969Y-72467438D02*
X170060588Y-72515057D01*
X170060588Y-72515057D02*
X170108207Y-72610295D01*
X170108207Y-72610295D02*
X170108207Y-72753152D01*
X170108207Y-72753152D02*
X170060588Y-72848390D01*
X170060588Y-72848390D02*
X170012969Y-72896009D01*
X170012969Y-72896009D02*
X169917731Y-72943628D01*
X169917731Y-72943628D02*
X169536779Y-72943628D01*
X170441541Y-73419819D02*
X170965350Y-72753152D01*
X170441541Y-72753152D02*
X170965350Y-73419819D01*
X148643922Y-104769819D02*
X149215350Y-104769819D01*
X148929636Y-105769819D02*
X148929636Y-104769819D01*
X149548684Y-105769819D02*
X149548684Y-104769819D01*
X149977255Y-105769819D02*
X149977255Y-105246009D01*
X149977255Y-105246009D02*
X149929636Y-105150771D01*
X149929636Y-105150771D02*
X149834398Y-105103152D01*
X149834398Y-105103152D02*
X149691541Y-105103152D01*
X149691541Y-105103152D02*
X149596303Y-105150771D01*
X149596303Y-105150771D02*
X149548684Y-105198390D01*
X150834398Y-105722200D02*
X150739160Y-105769819D01*
X150739160Y-105769819D02*
X150548684Y-105769819D01*
X150548684Y-105769819D02*
X150453446Y-105722200D01*
X150453446Y-105722200D02*
X150405827Y-105626961D01*
X150405827Y-105626961D02*
X150405827Y-105246009D01*
X150405827Y-105246009D02*
X150453446Y-105150771D01*
X150453446Y-105150771D02*
X150548684Y-105103152D01*
X150548684Y-105103152D02*
X150739160Y-105103152D01*
X150739160Y-105103152D02*
X150834398Y-105150771D01*
X150834398Y-105150771D02*
X150882017Y-105246009D01*
X150882017Y-105246009D02*
X150882017Y-105341247D01*
X150882017Y-105341247D02*
X150405827Y-105436485D01*
X151310589Y-105769819D02*
X151310589Y-105103152D01*
X151310589Y-105293628D02*
X151358208Y-105198390D01*
X151358208Y-105198390D02*
X151405827Y-105150771D01*
X151405827Y-105150771D02*
X151501065Y-105103152D01*
X151501065Y-105103152D02*
X151596303Y-105103152D01*
X151929637Y-105769819D02*
X151929637Y-105103152D01*
X151929637Y-105198390D02*
X151977256Y-105150771D01*
X151977256Y-105150771D02*
X152072494Y-105103152D01*
X152072494Y-105103152D02*
X152215351Y-105103152D01*
X152215351Y-105103152D02*
X152310589Y-105150771D01*
X152310589Y-105150771D02*
X152358208Y-105246009D01*
X152358208Y-105246009D02*
X152358208Y-105769819D01*
X152358208Y-105246009D02*
X152405827Y-105150771D01*
X152405827Y-105150771D02*
X152501065Y-105103152D01*
X152501065Y-105103152D02*
X152643922Y-105103152D01*
X152643922Y-105103152D02*
X152739161Y-105150771D01*
X152739161Y-105150771D02*
X152786780Y-105246009D01*
X152786780Y-105246009D02*
X152786780Y-105769819D01*
X153405827Y-105769819D02*
X153310589Y-105722200D01*
X153310589Y-105722200D02*
X153262970Y-105674580D01*
X153262970Y-105674580D02*
X153215351Y-105579342D01*
X153215351Y-105579342D02*
X153215351Y-105293628D01*
X153215351Y-105293628D02*
X153262970Y-105198390D01*
X153262970Y-105198390D02*
X153310589Y-105150771D01*
X153310589Y-105150771D02*
X153405827Y-105103152D01*
X153405827Y-105103152D02*
X153548684Y-105103152D01*
X153548684Y-105103152D02*
X153643922Y-105150771D01*
X153643922Y-105150771D02*
X153691541Y-105198390D01*
X153691541Y-105198390D02*
X153739160Y-105293628D01*
X153739160Y-105293628D02*
X153739160Y-105579342D01*
X153739160Y-105579342D02*
X153691541Y-105674580D01*
X153691541Y-105674580D02*
X153643922Y-105722200D01*
X153643922Y-105722200D02*
X153548684Y-105769819D01*
X153548684Y-105769819D02*
X153405827Y-105769819D01*
X163208207Y-105619819D02*
X162874874Y-105143628D01*
X162636779Y-105619819D02*
X162636779Y-104619819D01*
X162636779Y-104619819D02*
X163017731Y-104619819D01*
X163017731Y-104619819D02*
X163112969Y-104667438D01*
X163112969Y-104667438D02*
X163160588Y-104715057D01*
X163160588Y-104715057D02*
X163208207Y-104810295D01*
X163208207Y-104810295D02*
X163208207Y-104953152D01*
X163208207Y-104953152D02*
X163160588Y-105048390D01*
X163160588Y-105048390D02*
X163112969Y-105096009D01*
X163112969Y-105096009D02*
X163017731Y-105143628D01*
X163017731Y-105143628D02*
X162636779Y-105143628D01*
X164017731Y-105572200D02*
X163922493Y-105619819D01*
X163922493Y-105619819D02*
X163732017Y-105619819D01*
X163732017Y-105619819D02*
X163636779Y-105572200D01*
X163636779Y-105572200D02*
X163589160Y-105476961D01*
X163589160Y-105476961D02*
X163589160Y-105096009D01*
X163589160Y-105096009D02*
X163636779Y-105000771D01*
X163636779Y-105000771D02*
X163732017Y-104953152D01*
X163732017Y-104953152D02*
X163922493Y-104953152D01*
X163922493Y-104953152D02*
X164017731Y-105000771D01*
X164017731Y-105000771D02*
X164065350Y-105096009D01*
X164065350Y-105096009D02*
X164065350Y-105191247D01*
X164065350Y-105191247D02*
X163589160Y-105286485D01*
X164636779Y-105619819D02*
X164541541Y-105572200D01*
X164541541Y-105572200D02*
X164493922Y-105476961D01*
X164493922Y-105476961D02*
X164493922Y-104619819D01*
X165446303Y-105619819D02*
X165446303Y-105096009D01*
X165446303Y-105096009D02*
X165398684Y-105000771D01*
X165398684Y-105000771D02*
X165303446Y-104953152D01*
X165303446Y-104953152D02*
X165112970Y-104953152D01*
X165112970Y-104953152D02*
X165017732Y-105000771D01*
X165446303Y-105572200D02*
X165351065Y-105619819D01*
X165351065Y-105619819D02*
X165112970Y-105619819D01*
X165112970Y-105619819D02*
X165017732Y-105572200D01*
X165017732Y-105572200D02*
X164970113Y-105476961D01*
X164970113Y-105476961D02*
X164970113Y-105381723D01*
X164970113Y-105381723D02*
X165017732Y-105286485D01*
X165017732Y-105286485D02*
X165112970Y-105238866D01*
X165112970Y-105238866D02*
X165351065Y-105238866D01*
X165351065Y-105238866D02*
X165446303Y-105191247D01*
X165827256Y-104953152D02*
X166065351Y-105619819D01*
X166303446Y-104953152D02*
X166065351Y-105619819D01*
X166065351Y-105619819D02*
X165970113Y-105857914D01*
X165970113Y-105857914D02*
X165922494Y-105905533D01*
X165922494Y-105905533D02*
X165827256Y-105953152D01*
X152120112Y-67646009D02*
X151786779Y-67646009D01*
X151786779Y-68169819D02*
X151786779Y-67169819D01*
X151786779Y-67169819D02*
X152262969Y-67169819D01*
X152786779Y-68169819D02*
X152691541Y-68122200D01*
X152691541Y-68122200D02*
X152643922Y-68026961D01*
X152643922Y-68026961D02*
X152643922Y-67169819D01*
X153596303Y-68169819D02*
X153596303Y-67646009D01*
X153596303Y-67646009D02*
X153548684Y-67550771D01*
X153548684Y-67550771D02*
X153453446Y-67503152D01*
X153453446Y-67503152D02*
X153262970Y-67503152D01*
X153262970Y-67503152D02*
X153167732Y-67550771D01*
X153596303Y-68122200D02*
X153501065Y-68169819D01*
X153501065Y-68169819D02*
X153262970Y-68169819D01*
X153262970Y-68169819D02*
X153167732Y-68122200D01*
X153167732Y-68122200D02*
X153120113Y-68026961D01*
X153120113Y-68026961D02*
X153120113Y-67931723D01*
X153120113Y-67931723D02*
X153167732Y-67836485D01*
X153167732Y-67836485D02*
X153262970Y-67788866D01*
X153262970Y-67788866D02*
X153501065Y-67788866D01*
X153501065Y-67788866D02*
X153596303Y-67741247D01*
X154024875Y-68122200D02*
X154120113Y-68169819D01*
X154120113Y-68169819D02*
X154310589Y-68169819D01*
X154310589Y-68169819D02*
X154405827Y-68122200D01*
X154405827Y-68122200D02*
X154453446Y-68026961D01*
X154453446Y-68026961D02*
X154453446Y-67979342D01*
X154453446Y-67979342D02*
X154405827Y-67884104D01*
X154405827Y-67884104D02*
X154310589Y-67836485D01*
X154310589Y-67836485D02*
X154167732Y-67836485D01*
X154167732Y-67836485D02*
X154072494Y-67788866D01*
X154072494Y-67788866D02*
X154024875Y-67693628D01*
X154024875Y-67693628D02*
X154024875Y-67646009D01*
X154024875Y-67646009D02*
X154072494Y-67550771D01*
X154072494Y-67550771D02*
X154167732Y-67503152D01*
X154167732Y-67503152D02*
X154310589Y-67503152D01*
X154310589Y-67503152D02*
X154405827Y-67550771D01*
X154882018Y-68169819D02*
X154882018Y-67169819D01*
X155310589Y-68169819D02*
X155310589Y-67646009D01*
X155310589Y-67646009D02*
X155262970Y-67550771D01*
X155262970Y-67550771D02*
X155167732Y-67503152D01*
X155167732Y-67503152D02*
X155024875Y-67503152D01*
X155024875Y-67503152D02*
X154929637Y-67550771D01*
X154929637Y-67550771D02*
X154882018Y-67598390D01*
X166643922Y-72419819D02*
X167215350Y-72419819D01*
X166929636Y-73419819D02*
X166929636Y-72419819D01*
X167453446Y-73419819D02*
X167977255Y-72753152D01*
X167453446Y-72753152D02*
X167977255Y-73419819D01*
X154336779Y-73569819D02*
X154336779Y-72569819D01*
X155003445Y-72569819D02*
X155193921Y-72569819D01*
X155193921Y-72569819D02*
X155289159Y-72617438D01*
X155289159Y-72617438D02*
X155384397Y-72712676D01*
X155384397Y-72712676D02*
X155432016Y-72903152D01*
X155432016Y-72903152D02*
X155432016Y-73236485D01*
X155432016Y-73236485D02*
X155384397Y-73426961D01*
X155384397Y-73426961D02*
X155289159Y-73522200D01*
X155289159Y-73522200D02*
X155193921Y-73569819D01*
X155193921Y-73569819D02*
X155003445Y-73569819D01*
X155003445Y-73569819D02*
X154908207Y-73522200D01*
X154908207Y-73522200D02*
X154812969Y-73426961D01*
X154812969Y-73426961D02*
X154765350Y-73236485D01*
X154765350Y-73236485D02*
X154765350Y-72903152D01*
X154765350Y-72903152D02*
X154812969Y-72712676D01*
X154812969Y-72712676D02*
X154908207Y-72617438D01*
X154908207Y-72617438D02*
X155003445Y-72569819D01*
X165212969Y-72419819D02*
X164736779Y-72419819D01*
X164736779Y-72419819D02*
X164689160Y-72896009D01*
X164689160Y-72896009D02*
X164736779Y-72848390D01*
X164736779Y-72848390D02*
X164832017Y-72800771D01*
X164832017Y-72800771D02*
X165070112Y-72800771D01*
X165070112Y-72800771D02*
X165165350Y-72848390D01*
X165165350Y-72848390D02*
X165212969Y-72896009D01*
X165212969Y-72896009D02*
X165260588Y-72991247D01*
X165260588Y-72991247D02*
X165260588Y-73229342D01*
X165260588Y-73229342D02*
X165212969Y-73324580D01*
X165212969Y-73324580D02*
X165165350Y-73372200D01*
X165165350Y-73372200D02*
X165070112Y-73419819D01*
X165070112Y-73419819D02*
X164832017Y-73419819D01*
X164832017Y-73419819D02*
X164736779Y-73372200D01*
X164736779Y-73372200D02*
X164689160Y-73324580D01*
X172366666Y-69804819D02*
X172366666Y-70519104D01*
X172366666Y-70519104D02*
X172319047Y-70661961D01*
X172319047Y-70661961D02*
X172223809Y-70757200D01*
X172223809Y-70757200D02*
X172080952Y-70804819D01*
X172080952Y-70804819D02*
X171985714Y-70804819D01*
X173271428Y-70138152D02*
X173271428Y-70804819D01*
X173033333Y-69757200D02*
X172795238Y-70471485D01*
X172795238Y-70471485D02*
X173414285Y-70471485D01*
X167788095Y-84854819D02*
X167788095Y-85664342D01*
X167788095Y-85664342D02*
X167835714Y-85759580D01*
X167835714Y-85759580D02*
X167883333Y-85807200D01*
X167883333Y-85807200D02*
X167978571Y-85854819D01*
X167978571Y-85854819D02*
X168169047Y-85854819D01*
X168169047Y-85854819D02*
X168264285Y-85807200D01*
X168264285Y-85807200D02*
X168311904Y-85759580D01*
X168311904Y-85759580D02*
X168359523Y-85664342D01*
X168359523Y-85664342D02*
X168359523Y-84854819D01*
X168788095Y-84950057D02*
X168835714Y-84902438D01*
X168835714Y-84902438D02*
X168930952Y-84854819D01*
X168930952Y-84854819D02*
X169169047Y-84854819D01*
X169169047Y-84854819D02*
X169264285Y-84902438D01*
X169264285Y-84902438D02*
X169311904Y-84950057D01*
X169311904Y-84950057D02*
X169359523Y-85045295D01*
X169359523Y-85045295D02*
X169359523Y-85140533D01*
X169359523Y-85140533D02*
X169311904Y-85283390D01*
X169311904Y-85283390D02*
X168740476Y-85854819D01*
X168740476Y-85854819D02*
X169359523Y-85854819D01*
X174033333Y-78854819D02*
X173700000Y-78378628D01*
X173461905Y-78854819D02*
X173461905Y-77854819D01*
X173461905Y-77854819D02*
X173842857Y-77854819D01*
X173842857Y-77854819D02*
X173938095Y-77902438D01*
X173938095Y-77902438D02*
X173985714Y-77950057D01*
X173985714Y-77950057D02*
X174033333Y-78045295D01*
X174033333Y-78045295D02*
X174033333Y-78188152D01*
X174033333Y-78188152D02*
X173985714Y-78283390D01*
X173985714Y-78283390D02*
X173938095Y-78331009D01*
X173938095Y-78331009D02*
X173842857Y-78378628D01*
X173842857Y-78378628D02*
X173461905Y-78378628D01*
X174938095Y-77854819D02*
X174461905Y-77854819D01*
X174461905Y-77854819D02*
X174414286Y-78331009D01*
X174414286Y-78331009D02*
X174461905Y-78283390D01*
X174461905Y-78283390D02*
X174557143Y-78235771D01*
X174557143Y-78235771D02*
X174795238Y-78235771D01*
X174795238Y-78235771D02*
X174890476Y-78283390D01*
X174890476Y-78283390D02*
X174938095Y-78331009D01*
X174938095Y-78331009D02*
X174985714Y-78426247D01*
X174985714Y-78426247D02*
X174985714Y-78664342D01*
X174985714Y-78664342D02*
X174938095Y-78759580D01*
X174938095Y-78759580D02*
X174890476Y-78807200D01*
X174890476Y-78807200D02*
X174795238Y-78854819D01*
X174795238Y-78854819D02*
X174557143Y-78854819D01*
X174557143Y-78854819D02*
X174461905Y-78807200D01*
X174461905Y-78807200D02*
X174414286Y-78759580D01*
X178061905Y-100904819D02*
X178061905Y-99904819D01*
X178061905Y-99904819D02*
X178300000Y-99904819D01*
X178300000Y-99904819D02*
X178442857Y-99952438D01*
X178442857Y-99952438D02*
X178538095Y-100047676D01*
X178538095Y-100047676D02*
X178585714Y-100142914D01*
X178585714Y-100142914D02*
X178633333Y-100333390D01*
X178633333Y-100333390D02*
X178633333Y-100476247D01*
X178633333Y-100476247D02*
X178585714Y-100666723D01*
X178585714Y-100666723D02*
X178538095Y-100761961D01*
X178538095Y-100761961D02*
X178442857Y-100857200D01*
X178442857Y-100857200D02*
X178300000Y-100904819D01*
X178300000Y-100904819D02*
X178061905Y-100904819D01*
X179014286Y-100000057D02*
X179061905Y-99952438D01*
X179061905Y-99952438D02*
X179157143Y-99904819D01*
X179157143Y-99904819D02*
X179395238Y-99904819D01*
X179395238Y-99904819D02*
X179490476Y-99952438D01*
X179490476Y-99952438D02*
X179538095Y-100000057D01*
X179538095Y-100000057D02*
X179585714Y-100095295D01*
X179585714Y-100095295D02*
X179585714Y-100190533D01*
X179585714Y-100190533D02*
X179538095Y-100333390D01*
X179538095Y-100333390D02*
X178966667Y-100904819D01*
X178966667Y-100904819D02*
X179585714Y-100904819D01*
X172833333Y-104159580D02*
X172785714Y-104207200D01*
X172785714Y-104207200D02*
X172642857Y-104254819D01*
X172642857Y-104254819D02*
X172547619Y-104254819D01*
X172547619Y-104254819D02*
X172404762Y-104207200D01*
X172404762Y-104207200D02*
X172309524Y-104111961D01*
X172309524Y-104111961D02*
X172261905Y-104016723D01*
X172261905Y-104016723D02*
X172214286Y-103826247D01*
X172214286Y-103826247D02*
X172214286Y-103683390D01*
X172214286Y-103683390D02*
X172261905Y-103492914D01*
X172261905Y-103492914D02*
X172309524Y-103397676D01*
X172309524Y-103397676D02*
X172404762Y-103302438D01*
X172404762Y-103302438D02*
X172547619Y-103254819D01*
X172547619Y-103254819D02*
X172642857Y-103254819D01*
X172642857Y-103254819D02*
X172785714Y-103302438D01*
X172785714Y-103302438D02*
X172833333Y-103350057D01*
X173690476Y-103254819D02*
X173500000Y-103254819D01*
X173500000Y-103254819D02*
X173404762Y-103302438D01*
X173404762Y-103302438D02*
X173357143Y-103350057D01*
X173357143Y-103350057D02*
X173261905Y-103492914D01*
X173261905Y-103492914D02*
X173214286Y-103683390D01*
X173214286Y-103683390D02*
X173214286Y-104064342D01*
X173214286Y-104064342D02*
X173261905Y-104159580D01*
X173261905Y-104159580D02*
X173309524Y-104207200D01*
X173309524Y-104207200D02*
X173404762Y-104254819D01*
X173404762Y-104254819D02*
X173595238Y-104254819D01*
X173595238Y-104254819D02*
X173690476Y-104207200D01*
X173690476Y-104207200D02*
X173738095Y-104159580D01*
X173738095Y-104159580D02*
X173785714Y-104064342D01*
X173785714Y-104064342D02*
X173785714Y-103826247D01*
X173785714Y-103826247D02*
X173738095Y-103731009D01*
X173738095Y-103731009D02*
X173690476Y-103683390D01*
X173690476Y-103683390D02*
X173595238Y-103635771D01*
X173595238Y-103635771D02*
X173404762Y-103635771D01*
X173404762Y-103635771D02*
X173309524Y-103683390D01*
X173309524Y-103683390D02*
X173261905Y-103731009D01*
X173261905Y-103731009D02*
X173214286Y-103826247D01*
X148709580Y-95416666D02*
X148757200Y-95464285D01*
X148757200Y-95464285D02*
X148804819Y-95607142D01*
X148804819Y-95607142D02*
X148804819Y-95702380D01*
X148804819Y-95702380D02*
X148757200Y-95845237D01*
X148757200Y-95845237D02*
X148661961Y-95940475D01*
X148661961Y-95940475D02*
X148566723Y-95988094D01*
X148566723Y-95988094D02*
X148376247Y-96035713D01*
X148376247Y-96035713D02*
X148233390Y-96035713D01*
X148233390Y-96035713D02*
X148042914Y-95988094D01*
X148042914Y-95988094D02*
X147947676Y-95940475D01*
X147947676Y-95940475D02*
X147852438Y-95845237D01*
X147852438Y-95845237D02*
X147804819Y-95702380D01*
X147804819Y-95702380D02*
X147804819Y-95607142D01*
X147804819Y-95607142D02*
X147852438Y-95464285D01*
X147852438Y-95464285D02*
X147900057Y-95416666D01*
X148233390Y-94845237D02*
X148185771Y-94940475D01*
X148185771Y-94940475D02*
X148138152Y-94988094D01*
X148138152Y-94988094D02*
X148042914Y-95035713D01*
X148042914Y-95035713D02*
X147995295Y-95035713D01*
X147995295Y-95035713D02*
X147900057Y-94988094D01*
X147900057Y-94988094D02*
X147852438Y-94940475D01*
X147852438Y-94940475D02*
X147804819Y-94845237D01*
X147804819Y-94845237D02*
X147804819Y-94654761D01*
X147804819Y-94654761D02*
X147852438Y-94559523D01*
X147852438Y-94559523D02*
X147900057Y-94511904D01*
X147900057Y-94511904D02*
X147995295Y-94464285D01*
X147995295Y-94464285D02*
X148042914Y-94464285D01*
X148042914Y-94464285D02*
X148138152Y-94511904D01*
X148138152Y-94511904D02*
X148185771Y-94559523D01*
X148185771Y-94559523D02*
X148233390Y-94654761D01*
X148233390Y-94654761D02*
X148233390Y-94845237D01*
X148233390Y-94845237D02*
X148281009Y-94940475D01*
X148281009Y-94940475D02*
X148328628Y-94988094D01*
X148328628Y-94988094D02*
X148423866Y-95035713D01*
X148423866Y-95035713D02*
X148614342Y-95035713D01*
X148614342Y-95035713D02*
X148709580Y-94988094D01*
X148709580Y-94988094D02*
X148757200Y-94940475D01*
X148757200Y-94940475D02*
X148804819Y-94845237D01*
X148804819Y-94845237D02*
X148804819Y-94654761D01*
X148804819Y-94654761D02*
X148757200Y-94559523D01*
X148757200Y-94559523D02*
X148709580Y-94511904D01*
X148709580Y-94511904D02*
X148614342Y-94464285D01*
X148614342Y-94464285D02*
X148423866Y-94464285D01*
X148423866Y-94464285D02*
X148328628Y-94511904D01*
X148328628Y-94511904D02*
X148281009Y-94559523D01*
X148281009Y-94559523D02*
X148233390Y-94654761D01*
X164159580Y-90666666D02*
X164207200Y-90714285D01*
X164207200Y-90714285D02*
X164254819Y-90857142D01*
X164254819Y-90857142D02*
X164254819Y-90952380D01*
X164254819Y-90952380D02*
X164207200Y-91095237D01*
X164207200Y-91095237D02*
X164111961Y-91190475D01*
X164111961Y-91190475D02*
X164016723Y-91238094D01*
X164016723Y-91238094D02*
X163826247Y-91285713D01*
X163826247Y-91285713D02*
X163683390Y-91285713D01*
X163683390Y-91285713D02*
X163492914Y-91238094D01*
X163492914Y-91238094D02*
X163397676Y-91190475D01*
X163397676Y-91190475D02*
X163302438Y-91095237D01*
X163302438Y-91095237D02*
X163254819Y-90952380D01*
X163254819Y-90952380D02*
X163254819Y-90857142D01*
X163254819Y-90857142D02*
X163302438Y-90714285D01*
X163302438Y-90714285D02*
X163350057Y-90666666D01*
X163254819Y-90333332D02*
X163254819Y-89714285D01*
X163254819Y-89714285D02*
X163635771Y-90047618D01*
X163635771Y-90047618D02*
X163635771Y-89904761D01*
X163635771Y-89904761D02*
X163683390Y-89809523D01*
X163683390Y-89809523D02*
X163731009Y-89761904D01*
X163731009Y-89761904D02*
X163826247Y-89714285D01*
X163826247Y-89714285D02*
X164064342Y-89714285D01*
X164064342Y-89714285D02*
X164159580Y-89761904D01*
X164159580Y-89761904D02*
X164207200Y-89809523D01*
X164207200Y-89809523D02*
X164254819Y-89904761D01*
X164254819Y-89904761D02*
X164254819Y-90190475D01*
X164254819Y-90190475D02*
X164207200Y-90285713D01*
X164207200Y-90285713D02*
X164159580Y-90333332D01*
X154228433Y-111395180D02*
X154228433Y-110680895D01*
X154228433Y-110680895D02*
X154276052Y-110538038D01*
X154276052Y-110538038D02*
X154371290Y-110442800D01*
X154371290Y-110442800D02*
X154514147Y-110395180D01*
X154514147Y-110395180D02*
X154609385Y-110395180D01*
X153276052Y-111395180D02*
X153752242Y-111395180D01*
X153752242Y-111395180D02*
X153799861Y-110918990D01*
X153799861Y-110918990D02*
X153752242Y-110966609D01*
X153752242Y-110966609D02*
X153657004Y-111014228D01*
X153657004Y-111014228D02*
X153418909Y-111014228D01*
X153418909Y-111014228D02*
X153323671Y-110966609D01*
X153323671Y-110966609D02*
X153276052Y-110918990D01*
X153276052Y-110918990D02*
X153228433Y-110823752D01*
X153228433Y-110823752D02*
X153228433Y-110585657D01*
X153228433Y-110585657D02*
X153276052Y-110490419D01*
X153276052Y-110490419D02*
X153323671Y-110442800D01*
X153323671Y-110442800D02*
X153418909Y-110395180D01*
X153418909Y-110395180D02*
X153657004Y-110395180D01*
X153657004Y-110395180D02*
X153752242Y-110442800D01*
X153752242Y-110442800D02*
X153799861Y-110490419D01*
X175059580Y-98142857D02*
X175107200Y-98190476D01*
X175107200Y-98190476D02*
X175154819Y-98333333D01*
X175154819Y-98333333D02*
X175154819Y-98428571D01*
X175154819Y-98428571D02*
X175107200Y-98571428D01*
X175107200Y-98571428D02*
X175011961Y-98666666D01*
X175011961Y-98666666D02*
X174916723Y-98714285D01*
X174916723Y-98714285D02*
X174726247Y-98761904D01*
X174726247Y-98761904D02*
X174583390Y-98761904D01*
X174583390Y-98761904D02*
X174392914Y-98714285D01*
X174392914Y-98714285D02*
X174297676Y-98666666D01*
X174297676Y-98666666D02*
X174202438Y-98571428D01*
X174202438Y-98571428D02*
X174154819Y-98428571D01*
X174154819Y-98428571D02*
X174154819Y-98333333D01*
X174154819Y-98333333D02*
X174202438Y-98190476D01*
X174202438Y-98190476D02*
X174250057Y-98142857D01*
X175154819Y-97190476D02*
X175154819Y-97761904D01*
X175154819Y-97476190D02*
X174154819Y-97476190D01*
X174154819Y-97476190D02*
X174297676Y-97571428D01*
X174297676Y-97571428D02*
X174392914Y-97666666D01*
X174392914Y-97666666D02*
X174440533Y-97761904D01*
X174154819Y-96333333D02*
X174154819Y-96523809D01*
X174154819Y-96523809D02*
X174202438Y-96619047D01*
X174202438Y-96619047D02*
X174250057Y-96666666D01*
X174250057Y-96666666D02*
X174392914Y-96761904D01*
X174392914Y-96761904D02*
X174583390Y-96809523D01*
X174583390Y-96809523D02*
X174964342Y-96809523D01*
X174964342Y-96809523D02*
X175059580Y-96761904D01*
X175059580Y-96761904D02*
X175107200Y-96714285D01*
X175107200Y-96714285D02*
X175154819Y-96619047D01*
X175154819Y-96619047D02*
X175154819Y-96428571D01*
X175154819Y-96428571D02*
X175107200Y-96333333D01*
X175107200Y-96333333D02*
X175059580Y-96285714D01*
X175059580Y-96285714D02*
X174964342Y-96238095D01*
X174964342Y-96238095D02*
X174726247Y-96238095D01*
X174726247Y-96238095D02*
X174631009Y-96285714D01*
X174631009Y-96285714D02*
X174583390Y-96333333D01*
X174583390Y-96333333D02*
X174535771Y-96428571D01*
X174535771Y-96428571D02*
X174535771Y-96619047D01*
X174535771Y-96619047D02*
X174583390Y-96714285D01*
X174583390Y-96714285D02*
X174631009Y-96761904D01*
X174631009Y-96761904D02*
X174726247Y-96809523D01*
X153863333Y-86499580D02*
X153815714Y-86547200D01*
X153815714Y-86547200D02*
X153672857Y-86594819D01*
X153672857Y-86594819D02*
X153577619Y-86594819D01*
X153577619Y-86594819D02*
X153434762Y-86547200D01*
X153434762Y-86547200D02*
X153339524Y-86451961D01*
X153339524Y-86451961D02*
X153291905Y-86356723D01*
X153291905Y-86356723D02*
X153244286Y-86166247D01*
X153244286Y-86166247D02*
X153244286Y-86023390D01*
X153244286Y-86023390D02*
X153291905Y-85832914D01*
X153291905Y-85832914D02*
X153339524Y-85737676D01*
X153339524Y-85737676D02*
X153434762Y-85642438D01*
X153434762Y-85642438D02*
X153577619Y-85594819D01*
X153577619Y-85594819D02*
X153672857Y-85594819D01*
X153672857Y-85594819D02*
X153815714Y-85642438D01*
X153815714Y-85642438D02*
X153863333Y-85690057D01*
X154720476Y-85928152D02*
X154720476Y-86594819D01*
X154482381Y-85547200D02*
X154244286Y-86261485D01*
X154244286Y-86261485D02*
X154863333Y-86261485D01*
X151609580Y-96016666D02*
X151657200Y-96064285D01*
X151657200Y-96064285D02*
X151704819Y-96207142D01*
X151704819Y-96207142D02*
X151704819Y-96302380D01*
X151704819Y-96302380D02*
X151657200Y-96445237D01*
X151657200Y-96445237D02*
X151561961Y-96540475D01*
X151561961Y-96540475D02*
X151466723Y-96588094D01*
X151466723Y-96588094D02*
X151276247Y-96635713D01*
X151276247Y-96635713D02*
X151133390Y-96635713D01*
X151133390Y-96635713D02*
X150942914Y-96588094D01*
X150942914Y-96588094D02*
X150847676Y-96540475D01*
X150847676Y-96540475D02*
X150752438Y-96445237D01*
X150752438Y-96445237D02*
X150704819Y-96302380D01*
X150704819Y-96302380D02*
X150704819Y-96207142D01*
X150704819Y-96207142D02*
X150752438Y-96064285D01*
X150752438Y-96064285D02*
X150800057Y-96016666D01*
X151704819Y-95064285D02*
X151704819Y-95635713D01*
X151704819Y-95349999D02*
X150704819Y-95349999D01*
X150704819Y-95349999D02*
X150847676Y-95445237D01*
X150847676Y-95445237D02*
X150942914Y-95540475D01*
X150942914Y-95540475D02*
X150990533Y-95635713D01*
X148759580Y-87966666D02*
X148807200Y-88014285D01*
X148807200Y-88014285D02*
X148854819Y-88157142D01*
X148854819Y-88157142D02*
X148854819Y-88252380D01*
X148854819Y-88252380D02*
X148807200Y-88395237D01*
X148807200Y-88395237D02*
X148711961Y-88490475D01*
X148711961Y-88490475D02*
X148616723Y-88538094D01*
X148616723Y-88538094D02*
X148426247Y-88585713D01*
X148426247Y-88585713D02*
X148283390Y-88585713D01*
X148283390Y-88585713D02*
X148092914Y-88538094D01*
X148092914Y-88538094D02*
X147997676Y-88490475D01*
X147997676Y-88490475D02*
X147902438Y-88395237D01*
X147902438Y-88395237D02*
X147854819Y-88252380D01*
X147854819Y-88252380D02*
X147854819Y-88157142D01*
X147854819Y-88157142D02*
X147902438Y-88014285D01*
X147902438Y-88014285D02*
X147950057Y-87966666D01*
X147854819Y-87633332D02*
X147854819Y-86966666D01*
X147854819Y-86966666D02*
X148854819Y-87395237D01*
X166688095Y-98054819D02*
X166688095Y-98864342D01*
X166688095Y-98864342D02*
X166735714Y-98959580D01*
X166735714Y-98959580D02*
X166783333Y-99007200D01*
X166783333Y-99007200D02*
X166878571Y-99054819D01*
X166878571Y-99054819D02*
X167069047Y-99054819D01*
X167069047Y-99054819D02*
X167164285Y-99007200D01*
X167164285Y-99007200D02*
X167211904Y-98959580D01*
X167211904Y-98959580D02*
X167259523Y-98864342D01*
X167259523Y-98864342D02*
X167259523Y-98054819D01*
X167640476Y-98054819D02*
X168259523Y-98054819D01*
X168259523Y-98054819D02*
X167926190Y-98435771D01*
X167926190Y-98435771D02*
X168069047Y-98435771D01*
X168069047Y-98435771D02*
X168164285Y-98483390D01*
X168164285Y-98483390D02*
X168211904Y-98531009D01*
X168211904Y-98531009D02*
X168259523Y-98626247D01*
X168259523Y-98626247D02*
X168259523Y-98864342D01*
X168259523Y-98864342D02*
X168211904Y-98959580D01*
X168211904Y-98959580D02*
X168164285Y-99007200D01*
X168164285Y-99007200D02*
X168069047Y-99054819D01*
X168069047Y-99054819D02*
X167783333Y-99054819D01*
X167783333Y-99054819D02*
X167688095Y-99007200D01*
X167688095Y-99007200D02*
X167640476Y-98959580D01*
X157133333Y-80954819D02*
X156800000Y-80478628D01*
X156561905Y-80954819D02*
X156561905Y-79954819D01*
X156561905Y-79954819D02*
X156942857Y-79954819D01*
X156942857Y-79954819D02*
X157038095Y-80002438D01*
X157038095Y-80002438D02*
X157085714Y-80050057D01*
X157085714Y-80050057D02*
X157133333Y-80145295D01*
X157133333Y-80145295D02*
X157133333Y-80288152D01*
X157133333Y-80288152D02*
X157085714Y-80383390D01*
X157085714Y-80383390D02*
X157038095Y-80431009D01*
X157038095Y-80431009D02*
X156942857Y-80478628D01*
X156942857Y-80478628D02*
X156561905Y-80478628D01*
X158085714Y-80954819D02*
X157514286Y-80954819D01*
X157800000Y-80954819D02*
X157800000Y-79954819D01*
X157800000Y-79954819D02*
X157704762Y-80097676D01*
X157704762Y-80097676D02*
X157609524Y-80192914D01*
X157609524Y-80192914D02*
X157514286Y-80240533D01*
X173854819Y-89733333D02*
X174569104Y-89733333D01*
X174569104Y-89733333D02*
X174711961Y-89780952D01*
X174711961Y-89780952D02*
X174807200Y-89876190D01*
X174807200Y-89876190D02*
X174854819Y-90019047D01*
X174854819Y-90019047D02*
X174854819Y-90114285D01*
X174854819Y-88733333D02*
X174854819Y-89304761D01*
X174854819Y-89019047D02*
X173854819Y-89019047D01*
X173854819Y-89019047D02*
X173997676Y-89114285D01*
X173997676Y-89114285D02*
X174092914Y-89209523D01*
X174092914Y-89209523D02*
X174140533Y-89304761D01*
X167573333Y-111295180D02*
X167573333Y-110580895D01*
X167573333Y-110580895D02*
X167620952Y-110438038D01*
X167620952Y-110438038D02*
X167716190Y-110342800D01*
X167716190Y-110342800D02*
X167859047Y-110295180D01*
X167859047Y-110295180D02*
X167954285Y-110295180D01*
X166668571Y-111295180D02*
X166859047Y-111295180D01*
X166859047Y-111295180D02*
X166954285Y-111247561D01*
X166954285Y-111247561D02*
X167001904Y-111199942D01*
X167001904Y-111199942D02*
X167097142Y-111057085D01*
X167097142Y-111057085D02*
X167144761Y-110866609D01*
X167144761Y-110866609D02*
X167144761Y-110485657D01*
X167144761Y-110485657D02*
X167097142Y-110390419D01*
X167097142Y-110390419D02*
X167049523Y-110342800D01*
X167049523Y-110342800D02*
X166954285Y-110295180D01*
X166954285Y-110295180D02*
X166763809Y-110295180D01*
X166763809Y-110295180D02*
X166668571Y-110342800D01*
X166668571Y-110342800D02*
X166620952Y-110390419D01*
X166620952Y-110390419D02*
X166573333Y-110485657D01*
X166573333Y-110485657D02*
X166573333Y-110723752D01*
X166573333Y-110723752D02*
X166620952Y-110818990D01*
X166620952Y-110818990D02*
X166668571Y-110866609D01*
X166668571Y-110866609D02*
X166763809Y-110914228D01*
X166763809Y-110914228D02*
X166954285Y-110914228D01*
X166954285Y-110914228D02*
X167049523Y-110866609D01*
X167049523Y-110866609D02*
X167097142Y-110818990D01*
X167097142Y-110818990D02*
X167144761Y-110723752D01*
X143988095Y-104304819D02*
X143988095Y-105114342D01*
X143988095Y-105114342D02*
X144035714Y-105209580D01*
X144035714Y-105209580D02*
X144083333Y-105257200D01*
X144083333Y-105257200D02*
X144178571Y-105304819D01*
X144178571Y-105304819D02*
X144369047Y-105304819D01*
X144369047Y-105304819D02*
X144464285Y-105257200D01*
X144464285Y-105257200D02*
X144511904Y-105209580D01*
X144511904Y-105209580D02*
X144559523Y-105114342D01*
X144559523Y-105114342D02*
X144559523Y-104304819D01*
X145464285Y-104638152D02*
X145464285Y-105304819D01*
X145226190Y-104257200D02*
X144988095Y-104971485D01*
X144988095Y-104971485D02*
X145607142Y-104971485D01*
X146866666Y-69804819D02*
X146866666Y-70519104D01*
X146866666Y-70519104D02*
X146819047Y-70661961D01*
X146819047Y-70661961D02*
X146723809Y-70757200D01*
X146723809Y-70757200D02*
X146580952Y-70804819D01*
X146580952Y-70804819D02*
X146485714Y-70804819D01*
X147295238Y-69900057D02*
X147342857Y-69852438D01*
X147342857Y-69852438D02*
X147438095Y-69804819D01*
X147438095Y-69804819D02*
X147676190Y-69804819D01*
X147676190Y-69804819D02*
X147771428Y-69852438D01*
X147771428Y-69852438D02*
X147819047Y-69900057D01*
X147819047Y-69900057D02*
X147866666Y-69995295D01*
X147866666Y-69995295D02*
X147866666Y-70090533D01*
X147866666Y-70090533D02*
X147819047Y-70233390D01*
X147819047Y-70233390D02*
X147247619Y-70804819D01*
X147247619Y-70804819D02*
X147866666Y-70804819D01*
X147916667Y-79557200D02*
X148059524Y-79604819D01*
X148059524Y-79604819D02*
X148297619Y-79604819D01*
X148297619Y-79604819D02*
X148392857Y-79557200D01*
X148392857Y-79557200D02*
X148440476Y-79509580D01*
X148440476Y-79509580D02*
X148488095Y-79414342D01*
X148488095Y-79414342D02*
X148488095Y-79319104D01*
X148488095Y-79319104D02*
X148440476Y-79223866D01*
X148440476Y-79223866D02*
X148392857Y-79176247D01*
X148392857Y-79176247D02*
X148297619Y-79128628D01*
X148297619Y-79128628D02*
X148107143Y-79081009D01*
X148107143Y-79081009D02*
X148011905Y-79033390D01*
X148011905Y-79033390D02*
X147964286Y-78985771D01*
X147964286Y-78985771D02*
X147916667Y-78890533D01*
X147916667Y-78890533D02*
X147916667Y-78795295D01*
X147916667Y-78795295D02*
X147964286Y-78700057D01*
X147964286Y-78700057D02*
X148011905Y-78652438D01*
X148011905Y-78652438D02*
X148107143Y-78604819D01*
X148107143Y-78604819D02*
X148345238Y-78604819D01*
X148345238Y-78604819D02*
X148488095Y-78652438D01*
X148821429Y-78604819D02*
X149059524Y-79604819D01*
X149059524Y-79604819D02*
X149250000Y-78890533D01*
X149250000Y-78890533D02*
X149440476Y-79604819D01*
X149440476Y-79604819D02*
X149678572Y-78604819D01*
X150011905Y-78700057D02*
X150059524Y-78652438D01*
X150059524Y-78652438D02*
X150154762Y-78604819D01*
X150154762Y-78604819D02*
X150392857Y-78604819D01*
X150392857Y-78604819D02*
X150488095Y-78652438D01*
X150488095Y-78652438D02*
X150535714Y-78700057D01*
X150535714Y-78700057D02*
X150583333Y-78795295D01*
X150583333Y-78795295D02*
X150583333Y-78890533D01*
X150583333Y-78890533D02*
X150535714Y-79033390D01*
X150535714Y-79033390D02*
X149964286Y-79604819D01*
X149964286Y-79604819D02*
X150583333Y-79604819D01*
X178633333Y-102754819D02*
X178300000Y-102278628D01*
X178061905Y-102754819D02*
X178061905Y-101754819D01*
X178061905Y-101754819D02*
X178442857Y-101754819D01*
X178442857Y-101754819D02*
X178538095Y-101802438D01*
X178538095Y-101802438D02*
X178585714Y-101850057D01*
X178585714Y-101850057D02*
X178633333Y-101945295D01*
X178633333Y-101945295D02*
X178633333Y-102088152D01*
X178633333Y-102088152D02*
X178585714Y-102183390D01*
X178585714Y-102183390D02*
X178538095Y-102231009D01*
X178538095Y-102231009D02*
X178442857Y-102278628D01*
X178442857Y-102278628D02*
X178061905Y-102278628D01*
X179490476Y-102088152D02*
X179490476Y-102754819D01*
X179252381Y-101707200D02*
X179014286Y-102421485D01*
X179014286Y-102421485D02*
X179633333Y-102421485D01*
X144528628Y-90636190D02*
X145004819Y-90636190D01*
X144004819Y-90969523D02*
X144528628Y-90636190D01*
X144528628Y-90636190D02*
X144004819Y-90302857D01*
X145004819Y-89445714D02*
X145004819Y-90017142D01*
X145004819Y-89731428D02*
X144004819Y-89731428D01*
X144004819Y-89731428D02*
X144147676Y-89826666D01*
X144147676Y-89826666D02*
X144242914Y-89921904D01*
X144242914Y-89921904D02*
X144290533Y-90017142D01*
X173461905Y-76954819D02*
X173461905Y-75954819D01*
X173461905Y-75954819D02*
X173700000Y-75954819D01*
X173700000Y-75954819D02*
X173842857Y-76002438D01*
X173842857Y-76002438D02*
X173938095Y-76097676D01*
X173938095Y-76097676D02*
X173985714Y-76192914D01*
X173985714Y-76192914D02*
X174033333Y-76383390D01*
X174033333Y-76383390D02*
X174033333Y-76526247D01*
X174033333Y-76526247D02*
X173985714Y-76716723D01*
X173985714Y-76716723D02*
X173938095Y-76811961D01*
X173938095Y-76811961D02*
X173842857Y-76907200D01*
X173842857Y-76907200D02*
X173700000Y-76954819D01*
X173700000Y-76954819D02*
X173461905Y-76954819D01*
X174985714Y-76954819D02*
X174414286Y-76954819D01*
X174700000Y-76954819D02*
X174700000Y-75954819D01*
X174700000Y-75954819D02*
X174604762Y-76097676D01*
X174604762Y-76097676D02*
X174509524Y-76192914D01*
X174509524Y-76192914D02*
X174414286Y-76240533D01*
X155988095Y-92154819D02*
X155988095Y-92964342D01*
X155988095Y-92964342D02*
X156035714Y-93059580D01*
X156035714Y-93059580D02*
X156083333Y-93107200D01*
X156083333Y-93107200D02*
X156178571Y-93154819D01*
X156178571Y-93154819D02*
X156369047Y-93154819D01*
X156369047Y-93154819D02*
X156464285Y-93107200D01*
X156464285Y-93107200D02*
X156511904Y-93059580D01*
X156511904Y-93059580D02*
X156559523Y-92964342D01*
X156559523Y-92964342D02*
X156559523Y-92154819D01*
X157559523Y-93154819D02*
X156988095Y-93154819D01*
X157273809Y-93154819D02*
X157273809Y-92154819D01*
X157273809Y-92154819D02*
X157178571Y-92297676D01*
X157178571Y-92297676D02*
X157083333Y-92392914D01*
X157083333Y-92392914D02*
X156988095Y-92440533D01*
X174607142Y-81359580D02*
X174559523Y-81407200D01*
X174559523Y-81407200D02*
X174416666Y-81454819D01*
X174416666Y-81454819D02*
X174321428Y-81454819D01*
X174321428Y-81454819D02*
X174178571Y-81407200D01*
X174178571Y-81407200D02*
X174083333Y-81311961D01*
X174083333Y-81311961D02*
X174035714Y-81216723D01*
X174035714Y-81216723D02*
X173988095Y-81026247D01*
X173988095Y-81026247D02*
X173988095Y-80883390D01*
X173988095Y-80883390D02*
X174035714Y-80692914D01*
X174035714Y-80692914D02*
X174083333Y-80597676D01*
X174083333Y-80597676D02*
X174178571Y-80502438D01*
X174178571Y-80502438D02*
X174321428Y-80454819D01*
X174321428Y-80454819D02*
X174416666Y-80454819D01*
X174416666Y-80454819D02*
X174559523Y-80502438D01*
X174559523Y-80502438D02*
X174607142Y-80550057D01*
X175559523Y-81454819D02*
X174988095Y-81454819D01*
X175273809Y-81454819D02*
X175273809Y-80454819D01*
X175273809Y-80454819D02*
X175178571Y-80597676D01*
X175178571Y-80597676D02*
X175083333Y-80692914D01*
X175083333Y-80692914D02*
X174988095Y-80740533D01*
X176178571Y-80454819D02*
X176273809Y-80454819D01*
X176273809Y-80454819D02*
X176369047Y-80502438D01*
X176369047Y-80502438D02*
X176416666Y-80550057D01*
X176416666Y-80550057D02*
X176464285Y-80645295D01*
X176464285Y-80645295D02*
X176511904Y-80835771D01*
X176511904Y-80835771D02*
X176511904Y-81073866D01*
X176511904Y-81073866D02*
X176464285Y-81264342D01*
X176464285Y-81264342D02*
X176416666Y-81359580D01*
X176416666Y-81359580D02*
X176369047Y-81407200D01*
X176369047Y-81407200D02*
X176273809Y-81454819D01*
X176273809Y-81454819D02*
X176178571Y-81454819D01*
X176178571Y-81454819D02*
X176083333Y-81407200D01*
X176083333Y-81407200D02*
X176035714Y-81359580D01*
X176035714Y-81359580D02*
X175988095Y-81264342D01*
X175988095Y-81264342D02*
X175940476Y-81073866D01*
X175940476Y-81073866D02*
X175940476Y-80835771D01*
X175940476Y-80835771D02*
X175988095Y-80645295D01*
X175988095Y-80645295D02*
X176035714Y-80550057D01*
X176035714Y-80550057D02*
X176083333Y-80502438D01*
X176083333Y-80502438D02*
X176178571Y-80454819D01*
X161183333Y-99009580D02*
X161135714Y-99057200D01*
X161135714Y-99057200D02*
X160992857Y-99104819D01*
X160992857Y-99104819D02*
X160897619Y-99104819D01*
X160897619Y-99104819D02*
X160754762Y-99057200D01*
X160754762Y-99057200D02*
X160659524Y-98961961D01*
X160659524Y-98961961D02*
X160611905Y-98866723D01*
X160611905Y-98866723D02*
X160564286Y-98676247D01*
X160564286Y-98676247D02*
X160564286Y-98533390D01*
X160564286Y-98533390D02*
X160611905Y-98342914D01*
X160611905Y-98342914D02*
X160659524Y-98247676D01*
X160659524Y-98247676D02*
X160754762Y-98152438D01*
X160754762Y-98152438D02*
X160897619Y-98104819D01*
X160897619Y-98104819D02*
X160992857Y-98104819D01*
X160992857Y-98104819D02*
X161135714Y-98152438D01*
X161135714Y-98152438D02*
X161183333Y-98200057D01*
X161564286Y-98200057D02*
X161611905Y-98152438D01*
X161611905Y-98152438D02*
X161707143Y-98104819D01*
X161707143Y-98104819D02*
X161945238Y-98104819D01*
X161945238Y-98104819D02*
X162040476Y-98152438D01*
X162040476Y-98152438D02*
X162088095Y-98200057D01*
X162088095Y-98200057D02*
X162135714Y-98295295D01*
X162135714Y-98295295D02*
X162135714Y-98390533D01*
X162135714Y-98390533D02*
X162088095Y-98533390D01*
X162088095Y-98533390D02*
X161516667Y-99104819D01*
X161516667Y-99104819D02*
X162135714Y-99104819D01*
X163533333Y-81259580D02*
X163485714Y-81307200D01*
X163485714Y-81307200D02*
X163342857Y-81354819D01*
X163342857Y-81354819D02*
X163247619Y-81354819D01*
X163247619Y-81354819D02*
X163104762Y-81307200D01*
X163104762Y-81307200D02*
X163009524Y-81211961D01*
X163009524Y-81211961D02*
X162961905Y-81116723D01*
X162961905Y-81116723D02*
X162914286Y-80926247D01*
X162914286Y-80926247D02*
X162914286Y-80783390D01*
X162914286Y-80783390D02*
X162961905Y-80592914D01*
X162961905Y-80592914D02*
X163009524Y-80497676D01*
X163009524Y-80497676D02*
X163104762Y-80402438D01*
X163104762Y-80402438D02*
X163247619Y-80354819D01*
X163247619Y-80354819D02*
X163342857Y-80354819D01*
X163342857Y-80354819D02*
X163485714Y-80402438D01*
X163485714Y-80402438D02*
X163533333Y-80450057D01*
X164009524Y-81354819D02*
X164200000Y-81354819D01*
X164200000Y-81354819D02*
X164295238Y-81307200D01*
X164295238Y-81307200D02*
X164342857Y-81259580D01*
X164342857Y-81259580D02*
X164438095Y-81116723D01*
X164438095Y-81116723D02*
X164485714Y-80926247D01*
X164485714Y-80926247D02*
X164485714Y-80545295D01*
X164485714Y-80545295D02*
X164438095Y-80450057D01*
X164438095Y-80450057D02*
X164390476Y-80402438D01*
X164390476Y-80402438D02*
X164295238Y-80354819D01*
X164295238Y-80354819D02*
X164104762Y-80354819D01*
X164104762Y-80354819D02*
X164009524Y-80402438D01*
X164009524Y-80402438D02*
X163961905Y-80450057D01*
X163961905Y-80450057D02*
X163914286Y-80545295D01*
X163914286Y-80545295D02*
X163914286Y-80783390D01*
X163914286Y-80783390D02*
X163961905Y-80878628D01*
X163961905Y-80878628D02*
X164009524Y-80926247D01*
X164009524Y-80926247D02*
X164104762Y-80973866D01*
X164104762Y-80973866D02*
X164295238Y-80973866D01*
X164295238Y-80973866D02*
X164390476Y-80926247D01*
X164390476Y-80926247D02*
X164438095Y-80878628D01*
X164438095Y-80878628D02*
X164485714Y-80783390D01*
X151883333Y-88459580D02*
X151835714Y-88507200D01*
X151835714Y-88507200D02*
X151692857Y-88554819D01*
X151692857Y-88554819D02*
X151597619Y-88554819D01*
X151597619Y-88554819D02*
X151454762Y-88507200D01*
X151454762Y-88507200D02*
X151359524Y-88411961D01*
X151359524Y-88411961D02*
X151311905Y-88316723D01*
X151311905Y-88316723D02*
X151264286Y-88126247D01*
X151264286Y-88126247D02*
X151264286Y-87983390D01*
X151264286Y-87983390D02*
X151311905Y-87792914D01*
X151311905Y-87792914D02*
X151359524Y-87697676D01*
X151359524Y-87697676D02*
X151454762Y-87602438D01*
X151454762Y-87602438D02*
X151597619Y-87554819D01*
X151597619Y-87554819D02*
X151692857Y-87554819D01*
X151692857Y-87554819D02*
X151835714Y-87602438D01*
X151835714Y-87602438D02*
X151883333Y-87650057D01*
X152788095Y-87554819D02*
X152311905Y-87554819D01*
X152311905Y-87554819D02*
X152264286Y-88031009D01*
X152264286Y-88031009D02*
X152311905Y-87983390D01*
X152311905Y-87983390D02*
X152407143Y-87935771D01*
X152407143Y-87935771D02*
X152645238Y-87935771D01*
X152645238Y-87935771D02*
X152740476Y-87983390D01*
X152740476Y-87983390D02*
X152788095Y-88031009D01*
X152788095Y-88031009D02*
X152835714Y-88126247D01*
X152835714Y-88126247D02*
X152835714Y-88364342D01*
X152835714Y-88364342D02*
X152788095Y-88459580D01*
X152788095Y-88459580D02*
X152740476Y-88507200D01*
X152740476Y-88507200D02*
X152645238Y-88554819D01*
X152645238Y-88554819D02*
X152407143Y-88554819D01*
X152407143Y-88554819D02*
X152311905Y-88507200D01*
X152311905Y-88507200D02*
X152264286Y-88459580D01*
X169933333Y-91954819D02*
X169600000Y-91478628D01*
X169361905Y-91954819D02*
X169361905Y-90954819D01*
X169361905Y-90954819D02*
X169742857Y-90954819D01*
X169742857Y-90954819D02*
X169838095Y-91002438D01*
X169838095Y-91002438D02*
X169885714Y-91050057D01*
X169885714Y-91050057D02*
X169933333Y-91145295D01*
X169933333Y-91145295D02*
X169933333Y-91288152D01*
X169933333Y-91288152D02*
X169885714Y-91383390D01*
X169885714Y-91383390D02*
X169838095Y-91431009D01*
X169838095Y-91431009D02*
X169742857Y-91478628D01*
X169742857Y-91478628D02*
X169361905Y-91478628D01*
X170314286Y-91050057D02*
X170361905Y-91002438D01*
X170361905Y-91002438D02*
X170457143Y-90954819D01*
X170457143Y-90954819D02*
X170695238Y-90954819D01*
X170695238Y-90954819D02*
X170790476Y-91002438D01*
X170790476Y-91002438D02*
X170838095Y-91050057D01*
X170838095Y-91050057D02*
X170885714Y-91145295D01*
X170885714Y-91145295D02*
X170885714Y-91240533D01*
X170885714Y-91240533D02*
X170838095Y-91383390D01*
X170838095Y-91383390D02*
X170266667Y-91954819D01*
X170266667Y-91954819D02*
X170885714Y-91954819D01*
X142159580Y-104542857D02*
X142207200Y-104590476D01*
X142207200Y-104590476D02*
X142254819Y-104733333D01*
X142254819Y-104733333D02*
X142254819Y-104828571D01*
X142254819Y-104828571D02*
X142207200Y-104971428D01*
X142207200Y-104971428D02*
X142111961Y-105066666D01*
X142111961Y-105066666D02*
X142016723Y-105114285D01*
X142016723Y-105114285D02*
X141826247Y-105161904D01*
X141826247Y-105161904D02*
X141683390Y-105161904D01*
X141683390Y-105161904D02*
X141492914Y-105114285D01*
X141492914Y-105114285D02*
X141397676Y-105066666D01*
X141397676Y-105066666D02*
X141302438Y-104971428D01*
X141302438Y-104971428D02*
X141254819Y-104828571D01*
X141254819Y-104828571D02*
X141254819Y-104733333D01*
X141254819Y-104733333D02*
X141302438Y-104590476D01*
X141302438Y-104590476D02*
X141350057Y-104542857D01*
X142254819Y-103590476D02*
X142254819Y-104161904D01*
X142254819Y-103876190D02*
X141254819Y-103876190D01*
X141254819Y-103876190D02*
X141397676Y-103971428D01*
X141397676Y-103971428D02*
X141492914Y-104066666D01*
X141492914Y-104066666D02*
X141540533Y-104161904D01*
X141683390Y-103019047D02*
X141635771Y-103114285D01*
X141635771Y-103114285D02*
X141588152Y-103161904D01*
X141588152Y-103161904D02*
X141492914Y-103209523D01*
X141492914Y-103209523D02*
X141445295Y-103209523D01*
X141445295Y-103209523D02*
X141350057Y-103161904D01*
X141350057Y-103161904D02*
X141302438Y-103114285D01*
X141302438Y-103114285D02*
X141254819Y-103019047D01*
X141254819Y-103019047D02*
X141254819Y-102828571D01*
X141254819Y-102828571D02*
X141302438Y-102733333D01*
X141302438Y-102733333D02*
X141350057Y-102685714D01*
X141350057Y-102685714D02*
X141445295Y-102638095D01*
X141445295Y-102638095D02*
X141492914Y-102638095D01*
X141492914Y-102638095D02*
X141588152Y-102685714D01*
X141588152Y-102685714D02*
X141635771Y-102733333D01*
X141635771Y-102733333D02*
X141683390Y-102828571D01*
X141683390Y-102828571D02*
X141683390Y-103019047D01*
X141683390Y-103019047D02*
X141731009Y-103114285D01*
X141731009Y-103114285D02*
X141778628Y-103161904D01*
X141778628Y-103161904D02*
X141873866Y-103209523D01*
X141873866Y-103209523D02*
X142064342Y-103209523D01*
X142064342Y-103209523D02*
X142159580Y-103161904D01*
X142159580Y-103161904D02*
X142207200Y-103114285D01*
X142207200Y-103114285D02*
X142254819Y-103019047D01*
X142254819Y-103019047D02*
X142254819Y-102828571D01*
X142254819Y-102828571D02*
X142207200Y-102733333D01*
X142207200Y-102733333D02*
X142159580Y-102685714D01*
X142159580Y-102685714D02*
X142064342Y-102638095D01*
X142064342Y-102638095D02*
X141873866Y-102638095D01*
X141873866Y-102638095D02*
X141778628Y-102685714D01*
X141778628Y-102685714D02*
X141731009Y-102733333D01*
X141731009Y-102733333D02*
X141683390Y-102828571D01*
X161458333Y-87804819D02*
X161125000Y-87328628D01*
X160886905Y-87804819D02*
X160886905Y-86804819D01*
X160886905Y-86804819D02*
X161267857Y-86804819D01*
X161267857Y-86804819D02*
X161363095Y-86852438D01*
X161363095Y-86852438D02*
X161410714Y-86900057D01*
X161410714Y-86900057D02*
X161458333Y-86995295D01*
X161458333Y-86995295D02*
X161458333Y-87138152D01*
X161458333Y-87138152D02*
X161410714Y-87233390D01*
X161410714Y-87233390D02*
X161363095Y-87281009D01*
X161363095Y-87281009D02*
X161267857Y-87328628D01*
X161267857Y-87328628D02*
X160886905Y-87328628D01*
X161791667Y-86804819D02*
X162410714Y-86804819D01*
X162410714Y-86804819D02*
X162077381Y-87185771D01*
X162077381Y-87185771D02*
X162220238Y-87185771D01*
X162220238Y-87185771D02*
X162315476Y-87233390D01*
X162315476Y-87233390D02*
X162363095Y-87281009D01*
X162363095Y-87281009D02*
X162410714Y-87376247D01*
X162410714Y-87376247D02*
X162410714Y-87614342D01*
X162410714Y-87614342D02*
X162363095Y-87709580D01*
X162363095Y-87709580D02*
X162315476Y-87757200D01*
X162315476Y-87757200D02*
X162220238Y-87804819D01*
X162220238Y-87804819D02*
X161934524Y-87804819D01*
X161934524Y-87804819D02*
X161839286Y-87757200D01*
X161839286Y-87757200D02*
X161791667Y-87709580D01*
X163233332Y-77124200D02*
X163347618Y-77162295D01*
X163347618Y-77162295D02*
X163538094Y-77162295D01*
X163538094Y-77162295D02*
X163614285Y-77124200D01*
X163614285Y-77124200D02*
X163652380Y-77086104D01*
X163652380Y-77086104D02*
X163690475Y-77009914D01*
X163690475Y-77009914D02*
X163690475Y-76933723D01*
X163690475Y-76933723D02*
X163652380Y-76857533D01*
X163652380Y-76857533D02*
X163614285Y-76819438D01*
X163614285Y-76819438D02*
X163538094Y-76781342D01*
X163538094Y-76781342D02*
X163385713Y-76743247D01*
X163385713Y-76743247D02*
X163309523Y-76705152D01*
X163309523Y-76705152D02*
X163271428Y-76667057D01*
X163271428Y-76667057D02*
X163233332Y-76590866D01*
X163233332Y-76590866D02*
X163233332Y-76514676D01*
X163233332Y-76514676D02*
X163271428Y-76438485D01*
X163271428Y-76438485D02*
X163309523Y-76400390D01*
X163309523Y-76400390D02*
X163385713Y-76362295D01*
X163385713Y-76362295D02*
X163576190Y-76362295D01*
X163576190Y-76362295D02*
X163690475Y-76400390D01*
X163957142Y-76362295D02*
X164147618Y-77162295D01*
X164147618Y-77162295D02*
X164299999Y-76590866D01*
X164299999Y-76590866D02*
X164452380Y-77162295D01*
X164452380Y-77162295D02*
X164642857Y-76362295D01*
X165366666Y-77162295D02*
X164909523Y-77162295D01*
X165138095Y-77162295D02*
X165138095Y-76362295D01*
X165138095Y-76362295D02*
X165061904Y-76476580D01*
X165061904Y-76476580D02*
X164985714Y-76552771D01*
X164985714Y-76552771D02*
X164909523Y-76590866D01*
X158907142Y-102659580D02*
X158859523Y-102707200D01*
X158859523Y-102707200D02*
X158716666Y-102754819D01*
X158716666Y-102754819D02*
X158621428Y-102754819D01*
X158621428Y-102754819D02*
X158478571Y-102707200D01*
X158478571Y-102707200D02*
X158383333Y-102611961D01*
X158383333Y-102611961D02*
X158335714Y-102516723D01*
X158335714Y-102516723D02*
X158288095Y-102326247D01*
X158288095Y-102326247D02*
X158288095Y-102183390D01*
X158288095Y-102183390D02*
X158335714Y-101992914D01*
X158335714Y-101992914D02*
X158383333Y-101897676D01*
X158383333Y-101897676D02*
X158478571Y-101802438D01*
X158478571Y-101802438D02*
X158621428Y-101754819D01*
X158621428Y-101754819D02*
X158716666Y-101754819D01*
X158716666Y-101754819D02*
X158859523Y-101802438D01*
X158859523Y-101802438D02*
X158907142Y-101850057D01*
X159859523Y-102754819D02*
X159288095Y-102754819D01*
X159573809Y-102754819D02*
X159573809Y-101754819D01*
X159573809Y-101754819D02*
X159478571Y-101897676D01*
X159478571Y-101897676D02*
X159383333Y-101992914D01*
X159383333Y-101992914D02*
X159288095Y-102040533D01*
X160192857Y-101754819D02*
X160859523Y-101754819D01*
X160859523Y-101754819D02*
X160430952Y-102754819D01*
D12*
%TO.C,J4*%
X171230000Y-69020000D02*
X171230000Y-70350000D01*
X169900000Y-69020000D02*
X171230000Y-69020000D01*
X168630000Y-69020000D02*
X160950000Y-69020000D01*
X168630000Y-69020000D02*
X168630000Y-71680000D01*
X160950000Y-69020000D02*
X160950000Y-71680000D01*
X168630000Y-71680000D02*
X160950000Y-71680000D01*
%TO.C,U2*%
X168600000Y-82115000D02*
X165000000Y-82115000D01*
X168600000Y-82115000D02*
X170800000Y-82115000D01*
X168600000Y-88885000D02*
X166400000Y-88885000D01*
X168600000Y-88885000D02*
X170800000Y-88885000D01*
%TO.C,TP5*%
X164750000Y-92950000D02*
X166150000Y-92950000D01*
X164750000Y-94350000D02*
X164750000Y-92950000D01*
X166150000Y-92950000D02*
X166150000Y-94350000D01*
X166150000Y-94350000D02*
X164750000Y-94350000D01*
%TO.C,R5*%
X171262742Y-77777500D02*
X171737258Y-77777500D01*
X171262742Y-78822500D02*
X171737258Y-78822500D01*
%TO.C,D2*%
X177672500Y-101135000D02*
X177672500Y-99665000D01*
X177672500Y-99665000D02*
X175387500Y-99665000D01*
X175387500Y-101135000D02*
X177672500Y-101135000D01*
%TO.C,TP13*%
X165100000Y-89400000D02*
X166500000Y-89400000D01*
X165100000Y-90800000D02*
X165100000Y-89400000D01*
X166500000Y-89400000D02*
X166500000Y-90800000D01*
X166500000Y-90800000D02*
X165100000Y-90800000D01*
%TO.C,TP3*%
X153350000Y-104550000D02*
X151950000Y-104550000D01*
X153350000Y-103150000D02*
X153350000Y-104550000D01*
X151950000Y-104550000D02*
X151950000Y-103150000D01*
X151950000Y-103150000D02*
X153350000Y-103150000D01*
%TO.C,TP10*%
X172950000Y-84450000D02*
X174350000Y-84450000D01*
X172950000Y-85850000D02*
X172950000Y-84450000D01*
X174350000Y-84450000D02*
X174350000Y-85850000D01*
X174350000Y-85850000D02*
X172950000Y-85850000D01*
%TO.C,TP14*%
X160500000Y-85200000D02*
X160500000Y-86600000D01*
X159100000Y-85200000D02*
X160500000Y-85200000D01*
X160500000Y-86600000D02*
X159100000Y-86600000D01*
X159100000Y-86600000D02*
X159100000Y-85200000D01*
%TO.C,C6*%
X173685000Y-101038748D02*
X173685000Y-101561252D01*
X172215000Y-101038748D02*
X172215000Y-101561252D01*
%TO.C,C8*%
X148610000Y-93142164D02*
X148610000Y-93357836D01*
X147890000Y-93142164D02*
X147890000Y-93357836D01*
%TO.C,TP6*%
X162700000Y-92950000D02*
X164100000Y-92950000D01*
X162700000Y-94350000D02*
X162700000Y-92950000D01*
X164100000Y-92950000D02*
X164100000Y-94350000D01*
X164100000Y-94350000D02*
X162700000Y-94350000D01*
%TO.C,TP11*%
X175050000Y-84450000D02*
X176450000Y-84450000D01*
X175050000Y-85850000D02*
X175050000Y-84450000D01*
X176450000Y-84450000D02*
X176450000Y-85850000D01*
X176450000Y-85850000D02*
X175050000Y-85850000D01*
%TO.C,C3*%
X162910000Y-90442164D02*
X162910000Y-90657836D01*
X162190000Y-90442164D02*
X162190000Y-90657836D01*
D13*
%TO.C,J5*%
X159597400Y-114777000D02*
X159597400Y-106522000D01*
X159597400Y-106522000D02*
X148192800Y-106522000D01*
X148192800Y-114777000D02*
X159597400Y-114777000D01*
X148192800Y-106522000D02*
X148192800Y-114777000D01*
D14*
X158086100Y-108310000D02*
G75*
G03*
X157324100Y-108310000I-381000J0D01*
G01*
X157324100Y-108310000D02*
G75*
G03*
X158086100Y-108310000I381000J0D01*
G01*
D12*
%TO.C,C16*%
X172215000Y-97711252D02*
X172215000Y-97188748D01*
X173685000Y-97711252D02*
X173685000Y-97188748D01*
%TO.C,C4*%
X154092164Y-86940000D02*
X154307836Y-86940000D01*
X154092164Y-87660000D02*
X154307836Y-87660000D01*
%TO.C,C1*%
X150790000Y-94207836D02*
X150790000Y-93992164D01*
X151510000Y-94207836D02*
X151510000Y-93992164D01*
%TO.C,C7*%
X148610000Y-89692164D02*
X148610000Y-89907836D01*
X147890000Y-89692164D02*
X147890000Y-89907836D01*
%TO.C,TP9*%
X162950000Y-85350000D02*
X164350000Y-85350000D01*
X162950000Y-86750000D02*
X162950000Y-85350000D01*
X164350000Y-85350000D02*
X164350000Y-86750000D01*
X164350000Y-86750000D02*
X162950000Y-86750000D01*
%TO.C,U3*%
X171400000Y-103760000D02*
X165390000Y-103760000D01*
X169150000Y-96940000D02*
X165390000Y-96940000D01*
X165390000Y-103760000D02*
X165390000Y-102500000D01*
X165390000Y-96940000D02*
X165390000Y-98200000D01*
%TO.C,TP12*%
X172950000Y-86500000D02*
X174350000Y-86500000D01*
X172950000Y-87900000D02*
X172950000Y-86500000D01*
X174350000Y-86500000D02*
X174350000Y-87900000D01*
X174350000Y-87900000D02*
X172950000Y-87900000D01*
%TO.C,R1*%
X159472500Y-81062742D02*
X159472500Y-81537258D01*
X158427500Y-81062742D02*
X158427500Y-81537258D01*
%TO.C,TP4*%
X153350000Y-100550000D02*
X151950000Y-100550000D01*
X153350000Y-99150000D02*
X153350000Y-100550000D01*
X151950000Y-100550000D02*
X151950000Y-99150000D01*
X151950000Y-99150000D02*
X153350000Y-99150000D01*
%TO.C,J1*%
X175937500Y-95600000D02*
X175937500Y-95150000D01*
X177787500Y-95600000D02*
X175937500Y-95600000D01*
X180337500Y-95600000D02*
X180087500Y-95600000D01*
X175387500Y-93400000D02*
X175837500Y-93400000D01*
X175387500Y-93400000D02*
X175387500Y-92950000D01*
X175937500Y-87800000D02*
X175937500Y-88250000D01*
X177787500Y-87800000D02*
X175937500Y-87800000D01*
X180337500Y-87800000D02*
X180087500Y-87800000D01*
D13*
%TO.C,J6*%
X172942300Y-114677000D02*
X172942300Y-106422000D01*
X172942300Y-106422000D02*
X161537700Y-106422000D01*
X161537700Y-114677000D02*
X172942300Y-114677000D01*
X161537700Y-106422000D02*
X161537700Y-114677000D01*
D14*
X170161000Y-108210000D02*
G75*
G03*
X169399000Y-108210000I-381000J0D01*
G01*
X169399000Y-108210000D02*
G75*
G03*
X170161000Y-108210000I381000J0D01*
G01*
D15*
%TO.C,U4*%
X145400000Y-98780000D02*
X149400000Y-98780000D01*
X145400000Y-103820000D02*
X149400000Y-103820000D01*
D16*
X143055000Y-98805000D02*
G75*
G03*
X142855000Y-98805000I-100000J0D01*
G01*
X142855000Y-98805000D02*
G75*
G03*
X143055000Y-98805000I100000J0D01*
G01*
D12*
%TO.C,J2*%
X158880000Y-69070000D02*
X158880000Y-70400000D01*
X157550000Y-69070000D02*
X158880000Y-69070000D01*
X156280000Y-69070000D02*
X148600000Y-69070000D01*
X156280000Y-69070000D02*
X156280000Y-71730000D01*
X148600000Y-69070000D02*
X148600000Y-71730000D01*
X156280000Y-71730000D02*
X148600000Y-71730000D01*
%TO.C,SW2*%
X152700000Y-79850000D02*
X152700000Y-78350000D01*
X151450000Y-75850000D02*
X146950000Y-75850000D01*
X146950000Y-82350000D02*
X151450000Y-82350000D01*
X145700000Y-78350000D02*
X145700000Y-79850000D01*
%TO.C,R4*%
X176437258Y-102722500D02*
X175962742Y-102722500D01*
X176437258Y-101677500D02*
X175962742Y-101677500D01*
%TO.C,TP2*%
X153350000Y-102550000D02*
X151950000Y-102550000D01*
X153350000Y-101150000D02*
X153350000Y-102550000D01*
X151950000Y-102550000D02*
X151950000Y-101150000D01*
X151950000Y-101150000D02*
X153350000Y-101150000D01*
%TO.C,TP1*%
X172950000Y-82250000D02*
X174350000Y-82250000D01*
X172950000Y-83650000D02*
X172950000Y-82250000D01*
X174350000Y-82250000D02*
X174350000Y-83650000D01*
X174350000Y-83650000D02*
X172950000Y-83650000D01*
D15*
%TO.C,Y1*%
X146700000Y-87125000D02*
X146700000Y-93475000D01*
X142200000Y-93475000D02*
X142200000Y-87125000D01*
X146700000Y-87125000D02*
G75*
G03*
X144450000Y-84875000I-2250001J-1D01*
G01*
X144450000Y-84875000D02*
G75*
G03*
X142200000Y-87125000I1J-2250001D01*
G01*
X144450000Y-95725000D02*
G75*
G03*
X146700000Y-93475000I0J2250000D01*
G01*
X142200000Y-93475000D02*
G75*
G03*
X144450000Y-95725000I2250000J0D01*
G01*
D12*
%TO.C,D1*%
X172985000Y-77235000D02*
X172985000Y-75765000D01*
X172985000Y-75765000D02*
X170700000Y-75765000D01*
X170700000Y-77235000D02*
X172985000Y-77235000D01*
%TO.C,U1*%
X153227500Y-89390000D02*
X153227500Y-89840000D01*
X153227500Y-89840000D02*
X151937500Y-89840000D01*
X153227500Y-96610000D02*
X153227500Y-96160000D01*
X153677500Y-89390000D02*
X153227500Y-89390000D01*
X153677500Y-96610000D02*
X153227500Y-96610000D01*
X159997500Y-89390000D02*
X160447500Y-89390000D01*
X159997500Y-96610000D02*
X160447500Y-96610000D01*
X160447500Y-89390000D02*
X160447500Y-89840000D01*
X160447500Y-96610000D02*
X160447500Y-96160000D01*
%TO.C,C10*%
X175960000Y-82892164D02*
X175960000Y-83107836D01*
X175240000Y-82892164D02*
X175240000Y-83107836D01*
%TO.C,C2*%
X159487836Y-99010000D02*
X159272164Y-99010000D01*
X159487836Y-98290000D02*
X159272164Y-98290000D01*
%TO.C,C9*%
X163777836Y-82460000D02*
X163562164Y-82460000D01*
X163777836Y-81740000D02*
X163562164Y-81740000D01*
%TO.C,C5*%
X152157836Y-89560000D02*
X151942164Y-89560000D01*
X152157836Y-88840000D02*
X151942164Y-88840000D01*
%TO.C,R2*%
X168822500Y-90362742D02*
X168822500Y-90837258D01*
X167777500Y-90362742D02*
X167777500Y-90837258D01*
%TO.C,C18*%
X143360000Y-103792164D02*
X143360000Y-104007836D01*
X142640000Y-103792164D02*
X142640000Y-104007836D01*
%TO.C,R3*%
X162762742Y-88177500D02*
X163237258Y-88177500D01*
X162762742Y-89222500D02*
X163237258Y-89222500D01*
D15*
%TO.C,SW1*%
X167300000Y-78500000D02*
X167300000Y-75000000D01*
X167300000Y-75000000D02*
X166800000Y-75000000D01*
X166800000Y-78500000D02*
X167300000Y-78500000D01*
X159300000Y-75000000D02*
X158800000Y-75000000D01*
X158800000Y-78500000D02*
X159300000Y-78500000D01*
X158800000Y-75000000D02*
X158800000Y-78500000D01*
D16*
X165750000Y-79550000D02*
G75*
G03*
X165550000Y-79550000I-100000J0D01*
G01*
X165550000Y-79550000D02*
G75*
G03*
X165750000Y-79550000I100000J0D01*
G01*
D12*
%TO.C,TP8*%
X160850000Y-83150000D02*
X162250000Y-83150000D01*
X160850000Y-84550000D02*
X160850000Y-83150000D01*
X162250000Y-83150000D02*
X162250000Y-84550000D01*
X162250000Y-84550000D02*
X160850000Y-84550000D01*
%TO.C,TP7*%
X162950000Y-83150000D02*
X164350000Y-83150000D01*
X162950000Y-84550000D02*
X162950000Y-83150000D01*
X164350000Y-83150000D02*
X164350000Y-84550000D01*
X164350000Y-84550000D02*
X162950000Y-84550000D01*
%TO.C,C17*%
X159811252Y-101085000D02*
X159288748Y-101085000D01*
X159811252Y-99615000D02*
X159288748Y-99615000D01*
%TD*%
M02*
