%TF.GenerationSoftware,KiCad,Pcbnew,7.0.10*%
%TF.CreationDate,2025-03-06T06:53:05-06:00*%
%TF.ProjectId,Reflow Project Kicad,5265666c-6f77-4205-9072-6f6a65637420,rev?*%
%TF.SameCoordinates,Original*%
%TF.FileFunction,Soldermask,Top*%
%TF.FilePolarity,Negative*%
%FSLAX46Y46*%
G04 Gerber Fmt 4.6, Leading zero omitted, Abs format (unit mm)*
G04 Created by KiCad (PCBNEW 7.0.10) date 2025-03-06 06:53:05*
%MOMM*%
%LPD*%
G01*
G04 APERTURE LIST*
G04 Aperture macros list*
%AMRoundRect*
0 Rectangle with rounded corners*
0 $1 Rounding radius*
0 $2 $3 $4 $5 $6 $7 $8 $9 X,Y pos of 4 corners*
0 Add a 4 corners polygon primitive as box body*
4,1,4,$2,$3,$4,$5,$6,$7,$8,$9,$2,$3,0*
0 Add four circle primitives for the rounded corners*
1,1,$1+$1,$2,$3*
1,1,$1+$1,$4,$5*
1,1,$1+$1,$6,$7*
1,1,$1+$1,$8,$9*
0 Add four rect primitives between the rounded corners*
20,1,$1+$1,$2,$3,$4,$5,0*
20,1,$1+$1,$4,$5,$6,$7,0*
20,1,$1+$1,$6,$7,$8,$9,0*
20,1,$1+$1,$8,$9,$2,$3,0*%
G04 Aperture macros list end*
%ADD10C,1.905000*%
%ADD11R,1.000000X1.000000*%
%ADD12R,1.700000X1.700000*%
%ADD13O,1.700000X1.700000*%
%ADD14RoundRect,0.100000X-0.637500X-0.100000X0.637500X-0.100000X0.637500X0.100000X-0.637500X0.100000X0*%
%ADD15RoundRect,0.200000X-0.200000X-0.275000X0.200000X-0.275000X0.200000X0.275000X-0.200000X0.275000X0*%
%ADD16RoundRect,0.218750X0.218750X0.256250X-0.218750X0.256250X-0.218750X-0.256250X0.218750X-0.256250X0*%
%ADD17RoundRect,0.200000X0.275000X-0.200000X0.275000X0.200000X-0.275000X0.200000X-0.275000X-0.200000X0*%
%ADD18RoundRect,0.250000X-0.475000X0.250000X-0.475000X-0.250000X0.475000X-0.250000X0.475000X0.250000X0*%
%ADD19RoundRect,0.140000X0.140000X0.170000X-0.140000X0.170000X-0.140000X-0.170000X0.140000X-0.170000X0*%
%ADD20RoundRect,0.140000X-0.170000X0.140000X-0.170000X-0.140000X0.170000X-0.140000X0.170000X0.140000X0*%
%ADD21RoundRect,0.250000X0.475000X-0.337500X0.475000X0.337500X-0.475000X0.337500X-0.475000X-0.337500X0*%
%ADD22C,5.600000*%
%ADD23RoundRect,0.140000X-0.140000X-0.170000X0.140000X-0.170000X0.140000X0.170000X-0.140000X0.170000X0*%
%ADD24RoundRect,0.140000X0.170000X-0.140000X0.170000X0.140000X-0.170000X0.140000X-0.170000X-0.140000X0*%
%ADD25R,2.000000X1.500000*%
%ADD26R,2.000000X3.800000*%
%ADD27RoundRect,0.200000X-0.275000X0.200000X-0.275000X-0.200000X0.275000X-0.200000X0.275000X0.200000X0*%
%ADD28R,1.350000X0.400000*%
%ADD29O,1.900000X1.200000*%
%ADD30R,1.900000X1.200000*%
%ADD31C,1.450000*%
%ADD32R,1.900000X1.500000*%
%ADD33RoundRect,0.099250X-0.987750X-0.297750X0.987750X-0.297750X0.987750X0.297750X-0.987750X0.297750X0*%
%ADD34C,2.000000*%
%ADD35RoundRect,0.200000X0.200000X0.275000X-0.200000X0.275000X-0.200000X-0.275000X0.200000X-0.275000X0*%
%ADD36C,1.284000*%
%ADD37RoundRect,0.218750X0.256250X-0.218750X0.256250X0.218750X-0.256250X0.218750X-0.256250X-0.218750X0*%
%ADD38RoundRect,0.075000X-0.662500X-0.075000X0.662500X-0.075000X0.662500X0.075000X-0.662500X0.075000X0*%
%ADD39RoundRect,0.075000X-0.075000X-0.662500X0.075000X-0.662500X0.075000X0.662500X-0.075000X0.662500X0*%
%ADD40RoundRect,0.102000X0.654000X0.654000X-0.654000X0.654000X-0.654000X-0.654000X0.654000X-0.654000X0*%
%ADD41C,1.512000*%
%ADD42RoundRect,0.250000X0.337500X0.475000X-0.337500X0.475000X-0.337500X-0.475000X0.337500X-0.475000X0*%
G04 APERTURE END LIST*
D10*
%TO.C,J6*%
X169500000Y-110000000D03*
X164420000Y-110000000D03*
%TD*%
%TO.C,J5*%
X156700000Y-110000000D03*
X151620000Y-110000000D03*
%TD*%
D11*
%TO.C,TP7*%
X163650000Y-83850000D03*
%TD*%
%TO.C,TP9*%
X163650000Y-86050000D03*
%TD*%
%TO.C,TP10*%
X173650000Y-85150000D03*
%TD*%
%TO.C,TP12*%
X173650000Y-87200000D03*
%TD*%
%TO.C,TP5*%
X165450000Y-93650000D03*
%TD*%
%TO.C,TP6*%
X163400000Y-93650000D03*
%TD*%
D12*
%TO.C,J4*%
X169900000Y-70350000D03*
D13*
X167360000Y-70350000D03*
X164820000Y-70350000D03*
X162280000Y-70350000D03*
%TD*%
D14*
%TO.C,U2*%
X165737500Y-82575000D03*
X165737500Y-83225000D03*
X165737500Y-83875000D03*
X165737500Y-84525000D03*
X165737500Y-85175000D03*
X165737500Y-85825000D03*
X165737500Y-86475000D03*
X165737500Y-87125000D03*
X165737500Y-87775000D03*
X165737500Y-88425000D03*
X171462500Y-88425000D03*
X171462500Y-87775000D03*
X171462500Y-87125000D03*
X171462500Y-86475000D03*
X171462500Y-85825000D03*
X171462500Y-85175000D03*
X171462500Y-84525000D03*
X171462500Y-83875000D03*
X171462500Y-83225000D03*
X171462500Y-82575000D03*
%TD*%
D15*
%TO.C,R5*%
X170675000Y-78300000D03*
X172325000Y-78300000D03*
%TD*%
D16*
%TO.C,D2*%
X176975000Y-100400000D03*
X175400000Y-100400000D03*
%TD*%
D11*
%TO.C,TP13*%
X159400000Y-86000000D03*
%TD*%
D17*
%TO.C,R6*%
X177200000Y-107825000D03*
X177200000Y-106175000D03*
%TD*%
D11*
%TO.C,TP3*%
X152650000Y-103850000D03*
%TD*%
%TO.C,TP14*%
X159400000Y-83900000D03*
%TD*%
D18*
%TO.C,C6*%
X172950000Y-100350000D03*
X172950000Y-102250000D03*
%TD*%
D19*
%TO.C,C8*%
X145580000Y-89000000D03*
X144620000Y-89000000D03*
%TD*%
D20*
%TO.C,C3*%
X162550000Y-90070000D03*
X162550000Y-91030000D03*
%TD*%
D21*
%TO.C,C16*%
X172950000Y-98487500D03*
X172950000Y-96412500D03*
%TD*%
D22*
%TO.C,H1*%
X143200000Y-69700000D03*
%TD*%
D23*
%TO.C,C4*%
X153720000Y-87300000D03*
X154680000Y-87300000D03*
%TD*%
D24*
%TO.C,C1*%
X151150000Y-94580000D03*
X151150000Y-93620000D03*
%TD*%
D19*
%TO.C,C7*%
X148680000Y-89000000D03*
X147720000Y-89000000D03*
%TD*%
D25*
%TO.C,U3*%
X170450000Y-102650000D03*
X170450000Y-100350000D03*
D26*
X164150000Y-100350000D03*
D25*
X170450000Y-98050000D03*
%TD*%
D22*
%TO.C,H5*%
X143300000Y-93600000D03*
%TD*%
D27*
%TO.C,R1*%
X158950000Y-80475000D03*
X158950000Y-82125000D03*
%TD*%
D17*
%TO.C,R7*%
X144400000Y-108825000D03*
X144400000Y-107175000D03*
%TD*%
D22*
%TO.C,H2*%
X177150000Y-69700000D03*
%TD*%
D11*
%TO.C,TP4*%
X152650000Y-99850000D03*
%TD*%
D28*
%TO.C,J1*%
X176237500Y-93000000D03*
X176237500Y-92350000D03*
X176237500Y-91700000D03*
X176237500Y-91050000D03*
X176237500Y-90400000D03*
D29*
X178937500Y-95200000D03*
D30*
X178937500Y-94600000D03*
D31*
X176237500Y-94200000D03*
D32*
X178937500Y-92700000D03*
X178937500Y-90700000D03*
D31*
X176237500Y-89200000D03*
D30*
X178937500Y-88800000D03*
D29*
X178937500Y-88200000D03*
%TD*%
D33*
%TO.C,U4*%
X144925000Y-99395000D03*
X144925000Y-100665000D03*
X144925000Y-101935000D03*
X144925000Y-103205000D03*
X149875000Y-103205000D03*
X149875000Y-101935000D03*
X149875000Y-100665000D03*
X149875000Y-99395000D03*
%TD*%
D12*
%TO.C,J2*%
X157550000Y-70400000D03*
D13*
X155010000Y-70400000D03*
X152470000Y-70400000D03*
X149930000Y-70400000D03*
%TD*%
D34*
%TO.C,SW2*%
X152400000Y-81300000D03*
X145900000Y-81300000D03*
X152400000Y-76800000D03*
X145900000Y-76800000D03*
%TD*%
D35*
%TO.C,R4*%
X177025000Y-102200000D03*
X175375000Y-102200000D03*
%TD*%
D11*
%TO.C,TP2*%
X152650000Y-101850000D03*
%TD*%
%TO.C,TP1*%
X173650000Y-82950000D03*
%TD*%
D36*
%TO.C,Y1*%
X148700000Y-85900000D03*
X143820000Y-85900000D03*
%TD*%
D37*
%TO.C,D3*%
X175400000Y-107787500D03*
X175400000Y-106212500D03*
%TD*%
D16*
%TO.C,D1*%
X172287500Y-76500000D03*
X170712500Y-76500000D03*
%TD*%
D38*
%TO.C,U1*%
X152675000Y-90250000D03*
X152675000Y-90750000D03*
X152675000Y-91250000D03*
X152675000Y-91750000D03*
X152675000Y-92250000D03*
X152675000Y-92750000D03*
X152675000Y-93250000D03*
X152675000Y-93750000D03*
X152675000Y-94250000D03*
X152675000Y-94750000D03*
X152675000Y-95250000D03*
X152675000Y-95750000D03*
D39*
X154087500Y-97162500D03*
X154587500Y-97162500D03*
X155087500Y-97162500D03*
X155587500Y-97162500D03*
X156087500Y-97162500D03*
X156587500Y-97162500D03*
X157087500Y-97162500D03*
X157587500Y-97162500D03*
X158087500Y-97162500D03*
X158587500Y-97162500D03*
X159087500Y-97162500D03*
X159587500Y-97162500D03*
D38*
X161000000Y-95750000D03*
X161000000Y-95250000D03*
X161000000Y-94750000D03*
X161000000Y-94250000D03*
X161000000Y-93750000D03*
X161000000Y-93250000D03*
X161000000Y-92750000D03*
X161000000Y-92250000D03*
X161000000Y-91750000D03*
X161000000Y-91250000D03*
X161000000Y-90750000D03*
X161000000Y-90250000D03*
D39*
X159587500Y-88837500D03*
X159087500Y-88837500D03*
X158587500Y-88837500D03*
X158087500Y-88837500D03*
X157587500Y-88837500D03*
X157087500Y-88837500D03*
X156587500Y-88837500D03*
X156087500Y-88837500D03*
X155587500Y-88837500D03*
X155087500Y-88837500D03*
X154587500Y-88837500D03*
X154087500Y-88837500D03*
%TD*%
D20*
%TO.C,C10*%
X175600000Y-82520000D03*
X175600000Y-83480000D03*
%TD*%
D19*
%TO.C,C2*%
X159860000Y-98650000D03*
X158900000Y-98650000D03*
%TD*%
%TO.C,C9*%
X164150000Y-82100000D03*
X163190000Y-82100000D03*
%TD*%
%TO.C,C5*%
X152530000Y-89200000D03*
X151570000Y-89200000D03*
%TD*%
D22*
%TO.C,H3*%
X177150000Y-112700000D03*
%TD*%
D27*
%TO.C,R2*%
X168300000Y-89775000D03*
X168300000Y-91425000D03*
%TD*%
D37*
%TO.C,D4*%
X146200000Y-108787500D03*
X146200000Y-107212500D03*
%TD*%
D20*
%TO.C,C18*%
X143000000Y-103420000D03*
X143000000Y-104380000D03*
%TD*%
D15*
%TO.C,R3*%
X162175000Y-88700000D03*
X163825000Y-88700000D03*
%TD*%
D40*
%TO.C,SW1*%
X165550000Y-78350000D03*
D41*
X163050000Y-78350000D03*
X160550000Y-78350000D03*
X165550000Y-75150000D03*
X163050000Y-75150000D03*
X160550000Y-75150000D03*
%TD*%
D22*
%TO.C,H4*%
X143250000Y-112900000D03*
%TD*%
D42*
%TO.C,C17*%
X160587500Y-100350000D03*
X158512500Y-100350000D03*
%TD*%
M02*
