%TF.GenerationSoftware,KiCad,Pcbnew,7.0.10*%
%TF.CreationDate,2025-03-06T06:53:05-06:00*%
%TF.ProjectId,Reflow Project Kicad,5265666c-6f77-4205-9072-6f6a65637420,rev?*%
%TF.SameCoordinates,Original*%
%TF.FileFunction,Copper,L2,Bot*%
%TF.FilePolarity,Positive*%
%FSLAX46Y46*%
G04 Gerber Fmt 4.6, Leading zero omitted, Abs format (unit mm)*
G04 Created by KiCad (PCBNEW 7.0.10) date 2025-03-06 06:53:05*
%MOMM*%
%LPD*%
G01*
G04 APERTURE LIST*
%TA.AperFunction,ComponentPad*%
%ADD10C,1.905000*%
%TD*%
%TA.AperFunction,ComponentPad*%
%ADD11R,1.000000X1.000000*%
%TD*%
%TA.AperFunction,ComponentPad*%
%ADD12R,1.700000X1.700000*%
%TD*%
%TA.AperFunction,ComponentPad*%
%ADD13O,1.700000X1.700000*%
%TD*%
%TA.AperFunction,ComponentPad*%
%ADD14C,5.600000*%
%TD*%
%TA.AperFunction,ComponentPad*%
%ADD15O,1.900000X1.200000*%
%TD*%
%TA.AperFunction,ComponentPad*%
%ADD16C,1.450000*%
%TD*%
%TA.AperFunction,ComponentPad*%
%ADD17C,2.000000*%
%TD*%
%TA.AperFunction,ComponentPad*%
%ADD18C,1.080000*%
%TD*%
%TA.AperFunction,ComponentPad*%
%ADD19R,1.308000X1.308000*%
%TD*%
%TA.AperFunction,ComponentPad*%
%ADD20C,1.308000*%
%TD*%
%TA.AperFunction,ViaPad*%
%ADD21C,0.800000*%
%TD*%
%TA.AperFunction,Conductor*%
%ADD22C,0.300000*%
%TD*%
%TA.AperFunction,Conductor*%
%ADD23C,0.500000*%
%TD*%
%TA.AperFunction,Conductor*%
%ADD24C,0.250000*%
%TD*%
G04 APERTURE END LIST*
D10*
%TO.P,J6,1,1*%
%TO.N,GND*%
X169500000Y-110000000D03*
%TO.P,J6,2,2*%
%TO.N,Relay*%
X164420000Y-110000000D03*
%TD*%
%TO.P,J5,1,1*%
%TO.N,Net-(U4-T+)*%
X156700000Y-110000000D03*
%TO.P,J5,2,2*%
%TO.N,GND*%
X151620000Y-110000000D03*
%TD*%
D11*
%TO.P,TP7,1,1*%
%TO.N,Net-(U2-A4)*%
X163650000Y-83850000D03*
%TD*%
%TO.P,TP9,1,1*%
%TO.N,Net-(U2-A6)*%
X163650000Y-86050000D03*
%TD*%
%TO.P,TP10,1,1*%
%TO.N,Net-(U2-B4)*%
X173650000Y-85150000D03*
%TD*%
%TO.P,TP12,1,1*%
%TO.N,Net-(U2-B6)*%
X173650000Y-87200000D03*
%TD*%
%TO.P,TP5,1,1*%
%TO.N,3.3_USART1_RX_v1*%
X165450000Y-93650000D03*
%TD*%
%TO.P,TP6,1,1*%
%TO.N,3.3_USART1_TX_v1*%
X163400000Y-93650000D03*
%TD*%
D12*
%TO.P,J4,1,Pin_1*%
%TO.N,/USART1_RX_5V*%
X169900000Y-70350000D03*
D13*
%TO.P,J4,2,Pin_2*%
%TO.N,/USART1_TX_5V*%
X167360000Y-70350000D03*
%TO.P,J4,3,Pin_3*%
%TO.N,VBUS*%
X164820000Y-70350000D03*
%TO.P,J4,4,Pin_4*%
%TO.N,GND*%
X162280000Y-70350000D03*
%TD*%
D11*
%TO.P,TP13,1,1*%
%TO.N,Net-(U1-PB6)*%
X159400000Y-86000000D03*
%TD*%
%TO.P,TP3,1,1*%
%TO.N,Thermo_SCK*%
X152650000Y-103850000D03*
%TD*%
%TO.P,TP14,1,1*%
%TO.N,Net-(U1-PB7)*%
X159400000Y-83900000D03*
%TD*%
D14*
%TO.P,H1,1*%
%TO.N,GND*%
X143200000Y-69700000D03*
%TD*%
%TO.P,H5,1*%
%TO.N,GND*%
X143300000Y-93600000D03*
%TD*%
%TO.P,H2,1*%
%TO.N,GND*%
X177150000Y-69700000D03*
%TD*%
D11*
%TO.P,TP4,1,1*%
%TO.N,Thermo_SO*%
X152650000Y-99850000D03*
%TD*%
D15*
%TO.P,J1,6,Shield*%
%TO.N,GND*%
X178937500Y-95200000D03*
D16*
X176237500Y-94200000D03*
X176237500Y-89200000D03*
D15*
X178937500Y-88200000D03*
%TD*%
D12*
%TO.P,J2,1,Pin_1*%
%TO.N,+3.3V*%
X157550000Y-70400000D03*
D13*
%TO.P,J2,2,Pin_2*%
%TO.N,/SYS_JTMS-SWDIO*%
X155010000Y-70400000D03*
%TO.P,J2,3,Pin_3*%
%TO.N,/SYS_JTCK-SWCLK*%
X152470000Y-70400000D03*
%TO.P,J2,4,Pin_4*%
%TO.N,GND*%
X149930000Y-70400000D03*
%TD*%
D17*
%TO.P,SW2,1,1*%
%TO.N,GND*%
X152400000Y-81300000D03*
X145900000Y-81300000D03*
%TO.P,SW2,2,2*%
%TO.N,/NRST*%
X152400000Y-76800000D03*
X145900000Y-76800000D03*
%TD*%
D11*
%TO.P,TP2,1,1*%
%TO.N,Thermo_CS*%
X152650000Y-101850000D03*
%TD*%
%TO.P,TP1,1,1*%
%TO.N,VBUS*%
X173650000Y-82950000D03*
%TD*%
D18*
%TO.P,Y1,1*%
%TO.N,/RCC_OSC_IN*%
X148700000Y-85900000D03*
%TO.P,Y1,2*%
%TO.N,/RCC_OSC_OUT*%
X143820000Y-85900000D03*
%TD*%
D14*
%TO.P,H3,1*%
%TO.N,GND*%
X177150000Y-112700000D03*
%TD*%
D19*
%TO.P,SW1,1,C*%
%TO.N,+3.3V*%
X165550000Y-78350000D03*
D20*
%TO.P,SW1,2,B*%
%TO.N,Net-(SW1-B)*%
X163050000Y-78350000D03*
%TO.P,SW1,3,A*%
%TO.N,GND*%
X160550000Y-78350000D03*
%TO.P,SW1,4*%
%TO.N,N/C*%
X165550000Y-75150000D03*
%TO.P,SW1,5*%
X163050000Y-75150000D03*
%TO.P,SW1,6*%
X160550000Y-75150000D03*
%TD*%
D14*
%TO.P,H4,1*%
%TO.N,GND*%
X143250000Y-112900000D03*
%TD*%
D21*
%TO.N,3.3_USART1_TX_v1*%
X167100000Y-88100000D03*
X167200000Y-94400000D03*
%TO.N,3.3_USART1_RX_v1*%
X167109673Y-87050042D03*
X167879656Y-93379656D03*
%TO.N,VBUS*%
X170450000Y-98050000D03*
%TO.N,GND*%
X170675016Y-78300000D03*
X147200000Y-100100000D03*
%TO.N,+3.3V*%
X164150000Y-100350000D03*
X170450000Y-100350000D03*
X168700000Y-89775000D03*
%TO.N,Thermo_CS*%
X146200000Y-107212500D03*
%TO.N,/NRST*%
X154200000Y-92200000D03*
%TO.N,/SYS_JTMS-SWDIO*%
X159466768Y-91188761D03*
%TO.N,/SYS_JTCK-SWCLK*%
X160578038Y-88447056D03*
%TO.N,Net-(D1-A)*%
X170712500Y-76500000D03*
X156600000Y-95700000D03*
%TD*%
D22*
%TO.N,+3.3V*%
X168700000Y-98600000D02*
X168700000Y-89775000D01*
X170450000Y-100350000D02*
X168700000Y-98600000D01*
%TO.N,3.3_USART1_TX_v1*%
X167100000Y-94300000D02*
X167200000Y-94400000D01*
X167100000Y-88100000D02*
X167100000Y-94300000D01*
%TO.N,3.3_USART1_RX_v1*%
X167900000Y-87840369D02*
X167900000Y-93359312D01*
X167109673Y-87050042D02*
X167900000Y-87840369D01*
X167900000Y-93359312D02*
X167879656Y-93379656D01*
D23*
%TO.N,VBUS*%
X171050000Y-82950000D02*
X173650000Y-82950000D01*
X170450000Y-98050000D02*
X170450000Y-83550000D01*
X170450000Y-83550000D02*
X171050000Y-82950000D01*
%TO.N,+3.3V*%
X164150000Y-100350000D02*
X170450000Y-100350000D01*
D24*
%TO.N,Thermo_CS*%
X147287500Y-107212500D02*
X152650000Y-101850000D01*
X146200000Y-107212500D02*
X147287500Y-107212500D01*
%TO.N,/NRST*%
X145900000Y-76800000D02*
X152400000Y-76800000D01*
X154200000Y-78600000D02*
X154200000Y-92200000D01*
X152400000Y-76800000D02*
X154200000Y-78600000D01*
%TO.N,/SYS_JTMS-SWDIO*%
X155010000Y-70400000D02*
X155010000Y-75531903D01*
X159466768Y-88030372D02*
X159466768Y-91188761D01*
X157050000Y-77571903D02*
X157050000Y-85613604D01*
X157050000Y-85613604D02*
X159466768Y-88030372D01*
X155010000Y-75531903D02*
X157050000Y-77571903D01*
%TO.N,/SYS_JTCK-SWCLK*%
X156185000Y-76070507D02*
X157500000Y-77385507D01*
X153645000Y-69225000D02*
X155496701Y-69225000D01*
X157500000Y-85369018D02*
X160578038Y-88447056D01*
X157500000Y-77385507D02*
X157500000Y-85369018D01*
X152470000Y-70400000D02*
X153645000Y-69225000D01*
X155496701Y-69225000D02*
X156185000Y-69913299D01*
X156185000Y-69913299D02*
X156185000Y-76070507D01*
%TO.N,unconnected-(J1-Shield-Pad6)*%
X178937500Y-88200000D02*
X178937500Y-95200000D01*
X177237500Y-95200000D02*
X176237500Y-94200000D01*
X177237500Y-88200000D02*
X176237500Y-89200000D01*
X178937500Y-95200000D02*
X177237500Y-95200000D01*
X178937500Y-88200000D02*
X177237500Y-88200000D01*
%TO.N,Net-(D1-A)*%
X151105000Y-72263299D02*
X151105000Y-69895000D01*
X167500000Y-68775000D02*
X168725000Y-70000000D01*
X156600000Y-77758299D02*
X151105000Y-72263299D01*
X168725000Y-74512500D02*
X170712500Y-76500000D01*
X156600000Y-95700000D02*
X156600000Y-77758299D01*
X151105000Y-69895000D02*
X152225000Y-68775000D01*
X168725000Y-70000000D02*
X168725000Y-74512500D01*
X152225000Y-68775000D02*
X167500000Y-68775000D01*
%TD*%
%TA.AperFunction,Conductor*%
%TO.N,GND*%
G36*
X175983120Y-66356046D02*
G01*
X176050153Y-66375754D01*
X176095889Y-66428575D01*
X176105808Y-66497737D01*
X176076760Y-66561282D01*
X176022670Y-66597555D01*
X175926739Y-66629878D01*
X175601990Y-66780123D01*
X175295370Y-66964609D01*
X175295367Y-66964611D01*
X175010486Y-67181170D01*
X175010485Y-67181171D01*
X174997257Y-67193702D01*
X174997256Y-67193703D01*
X176205819Y-68402266D01*
X176015130Y-68565130D01*
X175852266Y-68755819D01*
X174646442Y-67549995D01*
X174646441Y-67549996D01*
X174519033Y-67699992D01*
X174318218Y-67996172D01*
X174150606Y-68312322D01*
X174150597Y-68312340D01*
X174018149Y-68644760D01*
X174018147Y-68644767D01*
X173922421Y-68989542D01*
X173922415Y-68989568D01*
X173864527Y-69342668D01*
X173864526Y-69342685D01*
X173845153Y-69699997D01*
X173845153Y-69700002D01*
X173864526Y-70057314D01*
X173864527Y-70057331D01*
X173922415Y-70410431D01*
X173922421Y-70410457D01*
X174018147Y-70755232D01*
X174018149Y-70755239D01*
X174150597Y-71087659D01*
X174150606Y-71087677D01*
X174318218Y-71403827D01*
X174519024Y-71699994D01*
X174519035Y-71700008D01*
X174646441Y-71850002D01*
X174646442Y-71850002D01*
X175852265Y-70644179D01*
X176015130Y-70834870D01*
X176205819Y-70997733D01*
X174997257Y-72206294D01*
X175010495Y-72218836D01*
X175295367Y-72435388D01*
X175295370Y-72435390D01*
X175601990Y-72619876D01*
X175926739Y-72770122D01*
X175926744Y-72770123D01*
X176265855Y-72884383D01*
X176615339Y-72961311D01*
X176971075Y-72999999D01*
X176971085Y-73000000D01*
X177328915Y-73000000D01*
X177328924Y-72999999D01*
X177684660Y-72961311D01*
X178034144Y-72884383D01*
X178373255Y-72770123D01*
X178373260Y-72770122D01*
X178698009Y-72619876D01*
X179004629Y-72435390D01*
X179004632Y-72435388D01*
X179289509Y-72218831D01*
X179302742Y-72206295D01*
X179302742Y-72206294D01*
X178094181Y-70997733D01*
X178284870Y-70834870D01*
X178447733Y-70644180D01*
X179653556Y-71850002D01*
X179780972Y-71699998D01*
X179780975Y-71699994D01*
X179981781Y-71403827D01*
X180149393Y-71087677D01*
X180149402Y-71087659D01*
X180211497Y-70931812D01*
X180254597Y-70876820D01*
X180320586Y-70853859D01*
X180388513Y-70870220D01*
X180436812Y-70920708D01*
X180450690Y-70977601D01*
X180465098Y-87569324D01*
X180445472Y-87636381D01*
X180392707Y-87682182D01*
X180323558Y-87692185D01*
X180259977Y-87663215D01*
X180240091Y-87641359D01*
X180122610Y-87476380D01*
X180122604Y-87476374D01*
X179970567Y-87331407D01*
X179793842Y-87217833D01*
X179598814Y-87139755D01*
X179392538Y-87100000D01*
X179187500Y-87100000D01*
X179187500Y-87458539D01*
X179167815Y-87525578D01*
X179115011Y-87571333D01*
X179045853Y-87581277D01*
X179032668Y-87578645D01*
X179016523Y-87574500D01*
X179016519Y-87574500D01*
X179008347Y-87574500D01*
X178985115Y-87572304D01*
X178977088Y-87570773D01*
X178977085Y-87570772D01*
X178921741Y-87574255D01*
X178913955Y-87574500D01*
X178811500Y-87574500D01*
X178744461Y-87554815D01*
X178698706Y-87502011D01*
X178687500Y-87450500D01*
X178687500Y-87100000D01*
X178535102Y-87100000D01*
X178378377Y-87114965D01*
X178378373Y-87114966D01*
X178176813Y-87174149D01*
X177990085Y-87270413D01*
X177824962Y-87400268D01*
X177824959Y-87400272D01*
X177711073Y-87531703D01*
X177652295Y-87569477D01*
X177617360Y-87574500D01*
X177320243Y-87574500D01*
X177304622Y-87572775D01*
X177304595Y-87573061D01*
X177296833Y-87572326D01*
X177229613Y-87574439D01*
X177225719Y-87574500D01*
X177198150Y-87574500D01*
X177194173Y-87575002D01*
X177182542Y-87575917D01*
X177138874Y-87577289D01*
X177138868Y-87577290D01*
X177119626Y-87582880D01*
X177100587Y-87586823D01*
X177080717Y-87589334D01*
X177080703Y-87589337D01*
X177040098Y-87605413D01*
X177029054Y-87609194D01*
X176987114Y-87621379D01*
X176987110Y-87621381D01*
X176969866Y-87631579D01*
X176952405Y-87640133D01*
X176933774Y-87647510D01*
X176933762Y-87647517D01*
X176898433Y-87673185D01*
X176888673Y-87679596D01*
X176851080Y-87701829D01*
X176836914Y-87715995D01*
X176822124Y-87728627D01*
X176805914Y-87740404D01*
X176805911Y-87740407D01*
X176778073Y-87774058D01*
X176770211Y-87782697D01*
X176590675Y-87962232D01*
X176529352Y-87995717D01*
X176470905Y-87994327D01*
X176451039Y-87989004D01*
X176451027Y-87989002D01*
X176237501Y-87970321D01*
X176237499Y-87970321D01*
X176023972Y-87989002D01*
X176023962Y-87989004D01*
X175816932Y-88044477D01*
X175816923Y-88044481D01*
X175622662Y-88135066D01*
X175565878Y-88174826D01*
X175884299Y-88493246D01*
X175917784Y-88554569D01*
X175912800Y-88624260D01*
X175884300Y-88668608D01*
X175767378Y-88785530D01*
X175723450Y-88842162D01*
X175666807Y-88883069D01*
X175597040Y-88886858D01*
X175537790Y-88853842D01*
X175212326Y-88528378D01*
X175172566Y-88585162D01*
X175081981Y-88779423D01*
X175081977Y-88779432D01*
X175026504Y-88986462D01*
X175026502Y-88986472D01*
X175007821Y-89199999D01*
X175007821Y-89200000D01*
X175026502Y-89413527D01*
X175026504Y-89413537D01*
X175081977Y-89620567D01*
X175081981Y-89620576D01*
X175172566Y-89814838D01*
X175172567Y-89814840D01*
X175212325Y-89871620D01*
X175212325Y-89871621D01*
X175538185Y-89545760D01*
X175599508Y-89512275D01*
X175669199Y-89517259D01*
X175725133Y-89559130D01*
X175728424Y-89563742D01*
X175764576Y-89616938D01*
X175764579Y-89616940D01*
X175764581Y-89616943D01*
X175883177Y-89721499D01*
X175920447Y-89780598D01*
X175919849Y-89850465D01*
X175888856Y-89902194D01*
X175565877Y-90225173D01*
X175622661Y-90264933D01*
X175816923Y-90355518D01*
X175816932Y-90355522D01*
X176023962Y-90410995D01*
X176023972Y-90410997D01*
X176237499Y-90429679D01*
X176237501Y-90429679D01*
X176451027Y-90410997D01*
X176451037Y-90410995D01*
X176658067Y-90355522D01*
X176658076Y-90355518D01*
X176852339Y-90264933D01*
X176909121Y-90225173D01*
X176585014Y-89901067D01*
X176551529Y-89839744D01*
X176556513Y-89770053D01*
X176598384Y-89714119D01*
X176609576Y-89706653D01*
X176623920Y-89698170D01*
X176768893Y-89553196D01*
X176830212Y-89519714D01*
X176899904Y-89524698D01*
X176944252Y-89553199D01*
X177262673Y-89871621D01*
X177302433Y-89814839D01*
X177393018Y-89620576D01*
X177393022Y-89620567D01*
X177448495Y-89413537D01*
X177448497Y-89413527D01*
X177467179Y-89200000D01*
X177467179Y-89199999D01*
X177448496Y-88986467D01*
X177448496Y-88986464D01*
X177447191Y-88981593D01*
X177448854Y-88911743D01*
X177488017Y-88853880D01*
X177552246Y-88826377D01*
X177566966Y-88825500D01*
X177618594Y-88825500D01*
X177685633Y-88845185D01*
X177719602Y-88877573D01*
X177752395Y-88923625D01*
X177904432Y-89068592D01*
X178081157Y-89182166D01*
X178234086Y-89243389D01*
X178289007Y-89286580D01*
X178311860Y-89352606D01*
X178312000Y-89358507D01*
X178312000Y-94041629D01*
X178292315Y-94108668D01*
X178239511Y-94154423D01*
X178222937Y-94160606D01*
X178176811Y-94174150D01*
X177990085Y-94270413D01*
X177824962Y-94400268D01*
X177824959Y-94400272D01*
X177711073Y-94531703D01*
X177652295Y-94569477D01*
X177617360Y-94574500D01*
X177566966Y-94574500D01*
X177499927Y-94554815D01*
X177454172Y-94502011D01*
X177444228Y-94432853D01*
X177447191Y-94418407D01*
X177448496Y-94413535D01*
X177448496Y-94413532D01*
X177467179Y-94200000D01*
X177467179Y-94199999D01*
X177448497Y-93986472D01*
X177448495Y-93986462D01*
X177393022Y-93779432D01*
X177393018Y-93779423D01*
X177302433Y-93585162D01*
X177262672Y-93528379D01*
X176944252Y-93846799D01*
X176882929Y-93880284D01*
X176813237Y-93875300D01*
X176768891Y-93846800D01*
X176651971Y-93729880D01*
X176651970Y-93729879D01*
X176651969Y-93729878D01*
X176595336Y-93685949D01*
X176554430Y-93629306D01*
X176550640Y-93559539D01*
X176583656Y-93500289D01*
X176909121Y-93174825D01*
X176852340Y-93135067D01*
X176852338Y-93135066D01*
X176658076Y-93044481D01*
X176658067Y-93044477D01*
X176451037Y-92989004D01*
X176451027Y-92989002D01*
X176237501Y-92970321D01*
X176237499Y-92970321D01*
X176023972Y-92989002D01*
X176023962Y-92989004D01*
X175816932Y-93044477D01*
X175816923Y-93044481D01*
X175622662Y-93135066D01*
X175565878Y-93174826D01*
X175891738Y-93500686D01*
X175925223Y-93562009D01*
X175920239Y-93631701D01*
X175878367Y-93687634D01*
X175873756Y-93690924D01*
X175820567Y-93727071D01*
X175820559Y-93727078D01*
X175715999Y-93845679D01*
X175656899Y-93882948D01*
X175587032Y-93882349D01*
X175535304Y-93851357D01*
X175212326Y-93528378D01*
X175172566Y-93585162D01*
X175081981Y-93779423D01*
X175081977Y-93779432D01*
X175026504Y-93986462D01*
X175026502Y-93986472D01*
X175007821Y-94199999D01*
X175007821Y-94200000D01*
X175026502Y-94413527D01*
X175026504Y-94413537D01*
X175081977Y-94620567D01*
X175081981Y-94620576D01*
X175172566Y-94814838D01*
X175172567Y-94814840D01*
X175212325Y-94871620D01*
X175212325Y-94871621D01*
X175536432Y-94547513D01*
X175597755Y-94514028D01*
X175667446Y-94519012D01*
X175723380Y-94560883D01*
X175730845Y-94572073D01*
X175739327Y-94586416D01*
X175739334Y-94586425D01*
X175884299Y-94731390D01*
X175917784Y-94792713D01*
X175912800Y-94862405D01*
X175884299Y-94906752D01*
X175565877Y-95225173D01*
X175622661Y-95264933D01*
X175816923Y-95355518D01*
X175816932Y-95355522D01*
X176023962Y-95410995D01*
X176023972Y-95410997D01*
X176237499Y-95429679D01*
X176237501Y-95429679D01*
X176451030Y-95410996D01*
X176470897Y-95405673D01*
X176540747Y-95407334D01*
X176590676Y-95437766D01*
X176736694Y-95583784D01*
X176746519Y-95596048D01*
X176746740Y-95595866D01*
X176751710Y-95601874D01*
X176800739Y-95647915D01*
X176803536Y-95650626D01*
X176823030Y-95670120D01*
X176826195Y-95672575D01*
X176835071Y-95680156D01*
X176866918Y-95710062D01*
X176880608Y-95717588D01*
X176884473Y-95719713D01*
X176900731Y-95730392D01*
X176916564Y-95742674D01*
X176939240Y-95752486D01*
X176956655Y-95760022D01*
X176967135Y-95765155D01*
X177005408Y-95786197D01*
X177024812Y-95791179D01*
X177043210Y-95797478D01*
X177061605Y-95805438D01*
X177104754Y-95812271D01*
X177116180Y-95814638D01*
X177158481Y-95825500D01*
X177178516Y-95825500D01*
X177197913Y-95827026D01*
X177217696Y-95830160D01*
X177261175Y-95826050D01*
X177272844Y-95825500D01*
X177618594Y-95825500D01*
X177685633Y-95845185D01*
X177719602Y-95877573D01*
X177752395Y-95923625D01*
X177904432Y-96068592D01*
X178081157Y-96182166D01*
X178276185Y-96260244D01*
X178482462Y-96300000D01*
X178687500Y-96300000D01*
X178687500Y-95949500D01*
X178707185Y-95882461D01*
X178759989Y-95836706D01*
X178811500Y-95825500D01*
X178866653Y-95825500D01*
X178889885Y-95827696D01*
X178891489Y-95828001D01*
X178897912Y-95829227D01*
X178897913Y-95829226D01*
X178897914Y-95829227D01*
X178953259Y-95825745D01*
X178961045Y-95825500D01*
X178976842Y-95825500D01*
X178976850Y-95825500D01*
X178992570Y-95823513D01*
X179000263Y-95822787D01*
X179055638Y-95819304D01*
X179055638Y-95819303D01*
X179055717Y-95819299D01*
X179123860Y-95834736D01*
X179172839Y-95884564D01*
X179187500Y-95943054D01*
X179187500Y-96300000D01*
X179339898Y-96300000D01*
X179496622Y-96285034D01*
X179496626Y-96285033D01*
X179698186Y-96225850D01*
X179884914Y-96129586D01*
X180050037Y-95999731D01*
X180050040Y-95999728D01*
X180187605Y-95840969D01*
X180187611Y-95840961D01*
X180240867Y-95748719D01*
X180291434Y-95700503D01*
X180360041Y-95687279D01*
X180424906Y-95713247D01*
X180465435Y-95770161D01*
X180472255Y-95810610D01*
X180485889Y-111510525D01*
X180466263Y-111577582D01*
X180413498Y-111623383D01*
X180344349Y-111633386D01*
X180280768Y-111604416D01*
X180246696Y-111556530D01*
X180149402Y-111312340D01*
X180149393Y-111312322D01*
X179981781Y-110996172D01*
X179780975Y-110700005D01*
X179780964Y-110699991D01*
X179653556Y-110549996D01*
X178447733Y-111755819D01*
X178284870Y-111565130D01*
X178094180Y-111402266D01*
X179302742Y-110193704D01*
X179289504Y-110181163D01*
X179004632Y-109964611D01*
X179004629Y-109964609D01*
X178698009Y-109780123D01*
X178373260Y-109629877D01*
X178373255Y-109629876D01*
X178034144Y-109515616D01*
X177684660Y-109438688D01*
X177328924Y-109400000D01*
X176971075Y-109400000D01*
X176615339Y-109438688D01*
X176265855Y-109515616D01*
X175926744Y-109629876D01*
X175926739Y-109629877D01*
X175601990Y-109780123D01*
X175295370Y-109964609D01*
X175295367Y-109964611D01*
X175010486Y-110181170D01*
X175010485Y-110181171D01*
X174997257Y-110193702D01*
X174997256Y-110193703D01*
X176205819Y-111402266D01*
X176015130Y-111565130D01*
X175852266Y-111755819D01*
X174646442Y-110549995D01*
X174646441Y-110549996D01*
X174519033Y-110699992D01*
X174318218Y-110996172D01*
X174150606Y-111312322D01*
X174150597Y-111312340D01*
X174018149Y-111644760D01*
X174018147Y-111644767D01*
X173922421Y-111989542D01*
X173922415Y-111989568D01*
X173864527Y-112342668D01*
X173864526Y-112342685D01*
X173845153Y-112699997D01*
X173845153Y-112700002D01*
X173864526Y-113057314D01*
X173864527Y-113057331D01*
X173922415Y-113410431D01*
X173922421Y-113410457D01*
X174018147Y-113755232D01*
X174018149Y-113755239D01*
X174150597Y-114087659D01*
X174150606Y-114087677D01*
X174318218Y-114403827D01*
X174519024Y-114699994D01*
X174519035Y-114700008D01*
X174646441Y-114850002D01*
X174646442Y-114850002D01*
X175852265Y-113644179D01*
X176015130Y-113834870D01*
X176205819Y-113997733D01*
X174997257Y-115206294D01*
X175010495Y-115218836D01*
X175295367Y-115435388D01*
X175295370Y-115435390D01*
X175601990Y-115619876D01*
X175926739Y-115770122D01*
X175926744Y-115770123D01*
X176265857Y-115884384D01*
X176417133Y-115917683D01*
X176478374Y-115951319D01*
X176511708Y-116012724D01*
X176506552Y-116082404D01*
X176464543Y-116138234D01*
X176399018Y-116162489D01*
X176390509Y-116162784D01*
X144602713Y-116170872D01*
X144535668Y-116151204D01*
X144489900Y-116098412D01*
X144479939Y-116029256D01*
X144508947Y-115965693D01*
X144550615Y-115934333D01*
X144798009Y-115819876D01*
X145104629Y-115635390D01*
X145104632Y-115635388D01*
X145389509Y-115418831D01*
X145402742Y-115406295D01*
X144194180Y-114197733D01*
X144384870Y-114034870D01*
X144547733Y-113844180D01*
X145753556Y-115050002D01*
X145880972Y-114899998D01*
X145880975Y-114899994D01*
X146081781Y-114603827D01*
X146249393Y-114287677D01*
X146249402Y-114287659D01*
X146381850Y-113955239D01*
X146381852Y-113955232D01*
X146477578Y-113610457D01*
X146477584Y-113610431D01*
X146535472Y-113257331D01*
X146535473Y-113257314D01*
X146554847Y-112900002D01*
X146554847Y-112899997D01*
X146535473Y-112542685D01*
X146535472Y-112542668D01*
X146477584Y-112189568D01*
X146477578Y-112189542D01*
X146381852Y-111844767D01*
X146381850Y-111844760D01*
X146249402Y-111512340D01*
X146249393Y-111512322D01*
X146081781Y-111196172D01*
X145880975Y-110900005D01*
X145880964Y-110899991D01*
X145753556Y-110749996D01*
X144547733Y-111955819D01*
X144384870Y-111765130D01*
X144194180Y-111602266D01*
X145402742Y-110393704D01*
X145389504Y-110381163D01*
X145104632Y-110164611D01*
X145104629Y-110164609D01*
X144831053Y-110000005D01*
X150162522Y-110000005D01*
X150182399Y-110239889D01*
X150241491Y-110473240D01*
X150338185Y-110693682D01*
X150430880Y-110835563D01*
X150980970Y-110285474D01*
X151040924Y-110399707D01*
X151153407Y-110526675D01*
X151293007Y-110623033D01*
X151334705Y-110638847D01*
X150783790Y-111189761D01*
X150783791Y-111189762D01*
X150822832Y-111220149D01*
X150822838Y-111220153D01*
X151034531Y-111334715D01*
X151034545Y-111334721D01*
X151262207Y-111412879D01*
X151499642Y-111452500D01*
X151740358Y-111452500D01*
X151977792Y-111412879D01*
X152205454Y-111334721D01*
X152205468Y-111334715D01*
X152417160Y-111220154D01*
X152417168Y-111220149D01*
X152456207Y-111189762D01*
X152456208Y-111189760D01*
X151905295Y-110638847D01*
X151946993Y-110623033D01*
X152086593Y-110526675D01*
X152199076Y-110399707D01*
X152259029Y-110285476D01*
X152809117Y-110835564D01*
X152901815Y-110693679D01*
X152998508Y-110473240D01*
X153057600Y-110239889D01*
X153077478Y-110000005D01*
X155242020Y-110000005D01*
X155261904Y-110239972D01*
X155321017Y-110473405D01*
X155417639Y-110693682D01*
X155417745Y-110693922D01*
X155549449Y-110895510D01*
X155712537Y-111072671D01*
X155862974Y-111189760D01*
X155902022Y-111220153D01*
X155902561Y-111220572D01*
X155993861Y-111269981D01*
X156113478Y-111334715D01*
X156114336Y-111335179D01*
X156226264Y-111373604D01*
X156342083Y-111413365D01*
X156342085Y-111413365D01*
X156342087Y-111413366D01*
X156579601Y-111453000D01*
X156579602Y-111453000D01*
X156820398Y-111453000D01*
X156820399Y-111453000D01*
X157057913Y-111413366D01*
X157285664Y-111335179D01*
X157497439Y-111220572D01*
X157687463Y-111072671D01*
X157850551Y-110895510D01*
X157982255Y-110693922D01*
X158078983Y-110473405D01*
X158138095Y-110239976D01*
X158157980Y-110000005D01*
X162962020Y-110000005D01*
X162981904Y-110239972D01*
X163041017Y-110473405D01*
X163137639Y-110693682D01*
X163137745Y-110693922D01*
X163269449Y-110895510D01*
X163432537Y-111072671D01*
X163582974Y-111189760D01*
X163622022Y-111220153D01*
X163622561Y-111220572D01*
X163713861Y-111269981D01*
X163833478Y-111334715D01*
X163834336Y-111335179D01*
X163946264Y-111373604D01*
X164062083Y-111413365D01*
X164062085Y-111413365D01*
X164062087Y-111413366D01*
X164299601Y-111453000D01*
X164299602Y-111453000D01*
X164540398Y-111453000D01*
X164540399Y-111453000D01*
X164777913Y-111413366D01*
X165005664Y-111335179D01*
X165217439Y-111220572D01*
X165407463Y-111072671D01*
X165570551Y-110895510D01*
X165702255Y-110693922D01*
X165798983Y-110473405D01*
X165858095Y-110239976D01*
X165877980Y-110000005D01*
X168042522Y-110000005D01*
X168062399Y-110239889D01*
X168121491Y-110473240D01*
X168218185Y-110693682D01*
X168310880Y-110835563D01*
X168860970Y-110285474D01*
X168920924Y-110399707D01*
X169033407Y-110526675D01*
X169173007Y-110623033D01*
X169214705Y-110638847D01*
X168663790Y-111189761D01*
X168663791Y-111189762D01*
X168702832Y-111220149D01*
X168702838Y-111220153D01*
X168914531Y-111334715D01*
X168914545Y-111334721D01*
X169142207Y-111412879D01*
X169379642Y-111452500D01*
X169620358Y-111452500D01*
X169857792Y-111412879D01*
X170085454Y-111334721D01*
X170085468Y-111334715D01*
X170297160Y-111220154D01*
X170297168Y-111220149D01*
X170336207Y-111189762D01*
X170336208Y-111189760D01*
X169785295Y-110638847D01*
X169826993Y-110623033D01*
X169966593Y-110526675D01*
X170079076Y-110399707D01*
X170139029Y-110285476D01*
X170689117Y-110835564D01*
X170781815Y-110693679D01*
X170878508Y-110473240D01*
X170937600Y-110239889D01*
X170957478Y-110000005D01*
X170957478Y-109999994D01*
X170937600Y-109760110D01*
X170878508Y-109526759D01*
X170781815Y-109306320D01*
X170689117Y-109164434D01*
X170139028Y-109714523D01*
X170079076Y-109600293D01*
X169966593Y-109473325D01*
X169826993Y-109376967D01*
X169785293Y-109361152D01*
X170336208Y-108810237D01*
X170336208Y-108810236D01*
X170297166Y-108779849D01*
X170297161Y-108779846D01*
X170085468Y-108665284D01*
X170085454Y-108665278D01*
X169857792Y-108587120D01*
X169620358Y-108547500D01*
X169379642Y-108547500D01*
X169142207Y-108587120D01*
X168914545Y-108665278D01*
X168914531Y-108665284D01*
X168702837Y-108779846D01*
X168702826Y-108779853D01*
X168663791Y-108810235D01*
X168663791Y-108810237D01*
X169214706Y-109361152D01*
X169173007Y-109376967D01*
X169033407Y-109473325D01*
X168920924Y-109600293D01*
X168860970Y-109714524D01*
X168310880Y-109164434D01*
X168218185Y-109306317D01*
X168121491Y-109526759D01*
X168062399Y-109760110D01*
X168042522Y-109999994D01*
X168042522Y-110000005D01*
X165877980Y-110000005D01*
X165877980Y-110000000D01*
X165875047Y-109964609D01*
X165858095Y-109760027D01*
X165858095Y-109760024D01*
X165798983Y-109526595D01*
X165702255Y-109306078D01*
X165570551Y-109104490D01*
X165407463Y-108927329D01*
X165257020Y-108810235D01*
X165217441Y-108779429D01*
X165005665Y-108664821D01*
X165005656Y-108664818D01*
X164777916Y-108586634D01*
X164599777Y-108556908D01*
X164540399Y-108547000D01*
X164299601Y-108547000D01*
X164252098Y-108554926D01*
X164062083Y-108586634D01*
X163834343Y-108664818D01*
X163834334Y-108664821D01*
X163622558Y-108779429D01*
X163488456Y-108883805D01*
X163432537Y-108927329D01*
X163432534Y-108927331D01*
X163432534Y-108927332D01*
X163269449Y-109104490D01*
X163137743Y-109306081D01*
X163041017Y-109526594D01*
X162981904Y-109760027D01*
X162962020Y-109999994D01*
X162962020Y-110000005D01*
X158157980Y-110000005D01*
X158157980Y-110000000D01*
X158155047Y-109964609D01*
X158138095Y-109760027D01*
X158138095Y-109760024D01*
X158078983Y-109526595D01*
X157982255Y-109306078D01*
X157850551Y-109104490D01*
X157687463Y-108927329D01*
X157537020Y-108810235D01*
X157497441Y-108779429D01*
X157285665Y-108664821D01*
X157285656Y-108664818D01*
X157057916Y-108586634D01*
X156879777Y-108556908D01*
X156820399Y-108547000D01*
X156579601Y-108547000D01*
X156532098Y-108554926D01*
X156342083Y-108586634D01*
X156114343Y-108664818D01*
X156114334Y-108664821D01*
X155902558Y-108779429D01*
X155768456Y-108883805D01*
X155712537Y-108927329D01*
X155712534Y-108927331D01*
X155712534Y-108927332D01*
X155549449Y-109104490D01*
X155417743Y-109306081D01*
X155321017Y-109526594D01*
X155261904Y-109760027D01*
X155242020Y-109999994D01*
X155242020Y-110000005D01*
X153077478Y-110000005D01*
X153077478Y-109999994D01*
X153057600Y-109760110D01*
X152998508Y-109526759D01*
X152901815Y-109306320D01*
X152809117Y-109164434D01*
X152259028Y-109714523D01*
X152199076Y-109600293D01*
X152086593Y-109473325D01*
X151946993Y-109376967D01*
X151905293Y-109361152D01*
X152456208Y-108810237D01*
X152456208Y-108810236D01*
X152417166Y-108779849D01*
X152417161Y-108779846D01*
X152205468Y-108665284D01*
X152205454Y-108665278D01*
X151977792Y-108587120D01*
X151740358Y-108547500D01*
X151499642Y-108547500D01*
X151262207Y-108587120D01*
X151034545Y-108665278D01*
X151034531Y-108665284D01*
X150822837Y-108779846D01*
X150822826Y-108779853D01*
X150783791Y-108810235D01*
X150783791Y-108810237D01*
X151334706Y-109361152D01*
X151293007Y-109376967D01*
X151153407Y-109473325D01*
X151040924Y-109600293D01*
X150980970Y-109714524D01*
X150430881Y-109164435D01*
X150338185Y-109306317D01*
X150241491Y-109526759D01*
X150182399Y-109760110D01*
X150162522Y-109999994D01*
X150162522Y-110000005D01*
X144831053Y-110000005D01*
X144798009Y-109980123D01*
X144473260Y-109829877D01*
X144473255Y-109829876D01*
X144134144Y-109715616D01*
X143784660Y-109638688D01*
X143428924Y-109600000D01*
X143071075Y-109600000D01*
X142715339Y-109638688D01*
X142365855Y-109715616D01*
X142026744Y-109829876D01*
X142026739Y-109829877D01*
X141701990Y-109980123D01*
X141395370Y-110164609D01*
X141395367Y-110164611D01*
X141110486Y-110381170D01*
X141110485Y-110381171D01*
X141097257Y-110393702D01*
X141097256Y-110393703D01*
X142305819Y-111602266D01*
X142115130Y-111765130D01*
X141952266Y-111955819D01*
X140746442Y-110749995D01*
X140746441Y-110749996D01*
X140619033Y-110899992D01*
X140418218Y-111196172D01*
X140250606Y-111512322D01*
X140250597Y-111512340D01*
X140118149Y-111844759D01*
X140093719Y-111932749D01*
X140056816Y-111992078D01*
X139993696Y-112022038D01*
X139924398Y-112013116D01*
X139870925Y-111968146D01*
X139850253Y-111901405D01*
X139850239Y-111899723D01*
X139849010Y-107212500D01*
X145294540Y-107212500D01*
X145314326Y-107400756D01*
X145314327Y-107400759D01*
X145372818Y-107580777D01*
X145372821Y-107580784D01*
X145467467Y-107744716D01*
X145588401Y-107879026D01*
X145594129Y-107885388D01*
X145747265Y-107996648D01*
X145747270Y-107996651D01*
X145920192Y-108073642D01*
X145920197Y-108073644D01*
X146105354Y-108113000D01*
X146105355Y-108113000D01*
X146294644Y-108113000D01*
X146294646Y-108113000D01*
X146479803Y-108073644D01*
X146652730Y-107996651D01*
X146805871Y-107885388D01*
X146808788Y-107882147D01*
X146811600Y-107879026D01*
X146871087Y-107842379D01*
X146903748Y-107838000D01*
X147204757Y-107838000D01*
X147220377Y-107839724D01*
X147220404Y-107839439D01*
X147228160Y-107840171D01*
X147228167Y-107840173D01*
X147295373Y-107838061D01*
X147299268Y-107838000D01*
X147326846Y-107838000D01*
X147326850Y-107838000D01*
X147330824Y-107837497D01*
X147342463Y-107836580D01*
X147386127Y-107835209D01*
X147405369Y-107829617D01*
X147424412Y-107825674D01*
X147444292Y-107823164D01*
X147484901Y-107807085D01*
X147495944Y-107803303D01*
X147537890Y-107791118D01*
X147555129Y-107780922D01*
X147572603Y-107772362D01*
X147591227Y-107764988D01*
X147591227Y-107764987D01*
X147591232Y-107764986D01*
X147626583Y-107739300D01*
X147636314Y-107732908D01*
X147673920Y-107710670D01*
X147688089Y-107696499D01*
X147702879Y-107683868D01*
X147719087Y-107672094D01*
X147746938Y-107638426D01*
X147754779Y-107629809D01*
X151437821Y-103946768D01*
X151499142Y-103913285D01*
X151568834Y-103918269D01*
X151624767Y-103960141D01*
X151649184Y-104025605D01*
X151649500Y-104034451D01*
X151649500Y-104397869D01*
X151649501Y-104397876D01*
X151655908Y-104457483D01*
X151706202Y-104592328D01*
X151706206Y-104592335D01*
X151792452Y-104707544D01*
X151792455Y-104707547D01*
X151907664Y-104793793D01*
X151907671Y-104793797D01*
X152042517Y-104844091D01*
X152042516Y-104844091D01*
X152049444Y-104844835D01*
X152102127Y-104850500D01*
X153197872Y-104850499D01*
X153257483Y-104844091D01*
X153392331Y-104793796D01*
X153507546Y-104707546D01*
X153593796Y-104592331D01*
X153644091Y-104457483D01*
X153650500Y-104397873D01*
X153650499Y-103302128D01*
X153644091Y-103242517D01*
X153593796Y-103107669D01*
X153593795Y-103107668D01*
X153593793Y-103107664D01*
X153507547Y-102992456D01*
X153507548Y-102992456D01*
X153507546Y-102992454D01*
X153449854Y-102949265D01*
X153407984Y-102893333D01*
X153403000Y-102823641D01*
X153436485Y-102762318D01*
X153449850Y-102750736D01*
X153507546Y-102707546D01*
X153593796Y-102592331D01*
X153644091Y-102457483D01*
X153650500Y-102397873D01*
X153650499Y-101302128D01*
X153644091Y-101242517D01*
X153593796Y-101107669D01*
X153593795Y-101107668D01*
X153593793Y-101107664D01*
X153507547Y-100992456D01*
X153507548Y-100992456D01*
X153507546Y-100992454D01*
X153449854Y-100949265D01*
X153407984Y-100893333D01*
X153403000Y-100823641D01*
X153436485Y-100762318D01*
X153449854Y-100750734D01*
X153507546Y-100707546D01*
X153593796Y-100592331D01*
X153644091Y-100457483D01*
X153650500Y-100397873D01*
X153650499Y-99302128D01*
X153644091Y-99242517D01*
X153593796Y-99107669D01*
X153593795Y-99107668D01*
X153593793Y-99107664D01*
X153507547Y-98992455D01*
X153507544Y-98992452D01*
X153392335Y-98906206D01*
X153392328Y-98906202D01*
X153257482Y-98855908D01*
X153257483Y-98855908D01*
X153197883Y-98849501D01*
X153197881Y-98849500D01*
X153197873Y-98849500D01*
X153197864Y-98849500D01*
X152102129Y-98849500D01*
X152102123Y-98849501D01*
X152042516Y-98855908D01*
X151907671Y-98906202D01*
X151907664Y-98906206D01*
X151792455Y-98992452D01*
X151792452Y-98992455D01*
X151706206Y-99107664D01*
X151706202Y-99107671D01*
X151655908Y-99242517D01*
X151649501Y-99302116D01*
X151649501Y-99302123D01*
X151649500Y-99302135D01*
X151649500Y-100397870D01*
X151649501Y-100397876D01*
X151655908Y-100457483D01*
X151706202Y-100592328D01*
X151706206Y-100592335D01*
X151792452Y-100707544D01*
X151792453Y-100707544D01*
X151792454Y-100707546D01*
X151806789Y-100718277D01*
X151850145Y-100750734D01*
X151892015Y-100806668D01*
X151896999Y-100876360D01*
X151863513Y-100937683D01*
X151850145Y-100949266D01*
X151792452Y-100992455D01*
X151706206Y-101107664D01*
X151706202Y-101107671D01*
X151655908Y-101242517D01*
X151649501Y-101302116D01*
X151649501Y-101302123D01*
X151649500Y-101302135D01*
X151649500Y-101914546D01*
X151629815Y-101981585D01*
X151613181Y-102002227D01*
X147064728Y-106550681D01*
X147003405Y-106584166D01*
X146977047Y-106587000D01*
X146903748Y-106587000D01*
X146836709Y-106567315D01*
X146811600Y-106545974D01*
X146805873Y-106539614D01*
X146805869Y-106539610D01*
X146652734Y-106428351D01*
X146652729Y-106428348D01*
X146479807Y-106351357D01*
X146479802Y-106351355D01*
X146334001Y-106320365D01*
X146294646Y-106312000D01*
X146105354Y-106312000D01*
X146072897Y-106318898D01*
X145920197Y-106351355D01*
X145920192Y-106351357D01*
X145747270Y-106428348D01*
X145747265Y-106428351D01*
X145594129Y-106539611D01*
X145467466Y-106680285D01*
X145372821Y-106844215D01*
X145372818Y-106844222D01*
X145314327Y-107024240D01*
X145314326Y-107024244D01*
X145294540Y-107212500D01*
X139849010Y-107212500D01*
X139845652Y-94403849D01*
X139865319Y-94336806D01*
X139918111Y-94291037D01*
X139987267Y-94281076D01*
X140050830Y-94310084D01*
X140088620Y-94368852D01*
X140089132Y-94370644D01*
X140168148Y-94655237D01*
X140168149Y-94655239D01*
X140300597Y-94987659D01*
X140300606Y-94987677D01*
X140468218Y-95303827D01*
X140669024Y-95599994D01*
X140669035Y-95600008D01*
X140796441Y-95750002D01*
X140796442Y-95750002D01*
X142002265Y-94544179D01*
X142165130Y-94734870D01*
X142355819Y-94897733D01*
X141147257Y-96106294D01*
X141160495Y-96118836D01*
X141445367Y-96335388D01*
X141445370Y-96335390D01*
X141751990Y-96519876D01*
X142076739Y-96670122D01*
X142076744Y-96670123D01*
X142415855Y-96784383D01*
X142765339Y-96861311D01*
X143121075Y-96899999D01*
X143121085Y-96900000D01*
X143478915Y-96900000D01*
X143478924Y-96899999D01*
X143834660Y-96861311D01*
X144184144Y-96784383D01*
X144523255Y-96670123D01*
X144523260Y-96670122D01*
X144848009Y-96519876D01*
X145154629Y-96335390D01*
X145154632Y-96335388D01*
X145439509Y-96118831D01*
X145452742Y-96106295D01*
X145452742Y-96106294D01*
X144244181Y-94897733D01*
X144434870Y-94734870D01*
X144597733Y-94544180D01*
X145803556Y-95750002D01*
X145930972Y-95599998D01*
X145930975Y-95599994D01*
X146131781Y-95303827D01*
X146299393Y-94987677D01*
X146299402Y-94987659D01*
X146431850Y-94655239D01*
X146431852Y-94655232D01*
X146527578Y-94310457D01*
X146527584Y-94310431D01*
X146585472Y-93957331D01*
X146585473Y-93957314D01*
X146604847Y-93600002D01*
X146604847Y-93599997D01*
X146585473Y-93242685D01*
X146585472Y-93242668D01*
X146527584Y-92889568D01*
X146527578Y-92889542D01*
X146431852Y-92544767D01*
X146431850Y-92544760D01*
X146299402Y-92212340D01*
X146299393Y-92212322D01*
X146131781Y-91896172D01*
X145930975Y-91600005D01*
X145930964Y-91599991D01*
X145803556Y-91449996D01*
X144597733Y-92655819D01*
X144434870Y-92465130D01*
X144244180Y-92302266D01*
X145452742Y-91093704D01*
X145439504Y-91081163D01*
X145154632Y-90864611D01*
X145154629Y-90864609D01*
X144848009Y-90680123D01*
X144523260Y-90529877D01*
X144523255Y-90529876D01*
X144184144Y-90415616D01*
X143834660Y-90338688D01*
X143478924Y-90300000D01*
X143121075Y-90300000D01*
X142765339Y-90338688D01*
X142415855Y-90415616D01*
X142076744Y-90529876D01*
X142076739Y-90529877D01*
X141751990Y-90680123D01*
X141445370Y-90864609D01*
X141445367Y-90864611D01*
X141160486Y-91081170D01*
X141160485Y-91081171D01*
X141147257Y-91093702D01*
X141147256Y-91093703D01*
X142355819Y-92302266D01*
X142165130Y-92465130D01*
X142002266Y-92655819D01*
X140796442Y-91449995D01*
X140796441Y-91449996D01*
X140669033Y-91599992D01*
X140468218Y-91896172D01*
X140300606Y-92212322D01*
X140300597Y-92212340D01*
X140168149Y-92544760D01*
X140168148Y-92544762D01*
X140088711Y-92830871D01*
X140051809Y-92890200D01*
X139988689Y-92920161D01*
X139919391Y-92911240D01*
X139865917Y-92866270D01*
X139845245Y-92799529D01*
X139845231Y-92797730D01*
X139845101Y-92301570D01*
X139843422Y-85900000D01*
X142774465Y-85900000D01*
X142794554Y-86103972D01*
X142854053Y-86300113D01*
X142950667Y-86480866D01*
X142950669Y-86480869D01*
X143080694Y-86639305D01*
X143239130Y-86769330D01*
X143239133Y-86769332D01*
X143419886Y-86865946D01*
X143419888Y-86865946D01*
X143419891Y-86865948D01*
X143616026Y-86925445D01*
X143820000Y-86945535D01*
X144023974Y-86925445D01*
X144220109Y-86865948D01*
X144400868Y-86769331D01*
X144559305Y-86639305D01*
X144689331Y-86480868D01*
X144785948Y-86300109D01*
X144845445Y-86103974D01*
X144865535Y-85900000D01*
X147654465Y-85900000D01*
X147674554Y-86103972D01*
X147734053Y-86300113D01*
X147830667Y-86480866D01*
X147830669Y-86480869D01*
X147960694Y-86639305D01*
X148119130Y-86769330D01*
X148119133Y-86769332D01*
X148299886Y-86865946D01*
X148299888Y-86865946D01*
X148299891Y-86865948D01*
X148496026Y-86925445D01*
X148700000Y-86945535D01*
X148903974Y-86925445D01*
X149100109Y-86865948D01*
X149280868Y-86769331D01*
X149439305Y-86639305D01*
X149569331Y-86480868D01*
X149665948Y-86300109D01*
X149725445Y-86103974D01*
X149745535Y-85900000D01*
X149725445Y-85696026D01*
X149665948Y-85499891D01*
X149665946Y-85499888D01*
X149665946Y-85499886D01*
X149569332Y-85319133D01*
X149569330Y-85319130D01*
X149439305Y-85160694D01*
X149280869Y-85030669D01*
X149280866Y-85030667D01*
X149100113Y-84934053D01*
X148903972Y-84874554D01*
X148700000Y-84854465D01*
X148496027Y-84874554D01*
X148299886Y-84934053D01*
X148119133Y-85030667D01*
X148119130Y-85030669D01*
X147960694Y-85160694D01*
X147830669Y-85319130D01*
X147830667Y-85319133D01*
X147734053Y-85499886D01*
X147674554Y-85696027D01*
X147654465Y-85900000D01*
X144865535Y-85900000D01*
X144845445Y-85696026D01*
X144785948Y-85499891D01*
X144785946Y-85499888D01*
X144785946Y-85499886D01*
X144689332Y-85319133D01*
X144689330Y-85319130D01*
X144559305Y-85160694D01*
X144400869Y-85030669D01*
X144400866Y-85030667D01*
X144220113Y-84934053D01*
X144023972Y-84874554D01*
X143820000Y-84854465D01*
X143616027Y-84874554D01*
X143419886Y-84934053D01*
X143239133Y-85030667D01*
X143239130Y-85030669D01*
X143080694Y-85160694D01*
X142950669Y-85319130D01*
X142950667Y-85319133D01*
X142854053Y-85499886D01*
X142794554Y-85696027D01*
X142774465Y-85900000D01*
X139843422Y-85900000D01*
X139842216Y-81300005D01*
X144394859Y-81300005D01*
X144415385Y-81547729D01*
X144415387Y-81547738D01*
X144476412Y-81788717D01*
X144576266Y-82016364D01*
X144676564Y-82169882D01*
X145374070Y-81472376D01*
X145376884Y-81485915D01*
X145446442Y-81620156D01*
X145549638Y-81730652D01*
X145678819Y-81809209D01*
X145730002Y-81823549D01*
X145029942Y-82523609D01*
X145076768Y-82560055D01*
X145076770Y-82560056D01*
X145295385Y-82678364D01*
X145295396Y-82678369D01*
X145530506Y-82759083D01*
X145775707Y-82800000D01*
X146024293Y-82800000D01*
X146269493Y-82759083D01*
X146504603Y-82678369D01*
X146504614Y-82678364D01*
X146723228Y-82560057D01*
X146723231Y-82560055D01*
X146770056Y-82523609D01*
X146071568Y-81825121D01*
X146188458Y-81774349D01*
X146305739Y-81678934D01*
X146392928Y-81555415D01*
X146423354Y-81469802D01*
X147123434Y-82169882D01*
X147223731Y-82016369D01*
X147323587Y-81788717D01*
X147384612Y-81547738D01*
X147384614Y-81547729D01*
X147405141Y-81300005D01*
X147405141Y-81299994D01*
X147384614Y-81052270D01*
X147384612Y-81052261D01*
X147323587Y-80811282D01*
X147223731Y-80583630D01*
X147123434Y-80430116D01*
X146425929Y-81127622D01*
X146423116Y-81114085D01*
X146353558Y-80979844D01*
X146250362Y-80869348D01*
X146121181Y-80790791D01*
X146069997Y-80776450D01*
X146770057Y-80076390D01*
X146770056Y-80076389D01*
X146723229Y-80039943D01*
X146504614Y-79921635D01*
X146504603Y-79921630D01*
X146269493Y-79840916D01*
X146024293Y-79800000D01*
X145775707Y-79800000D01*
X145530506Y-79840916D01*
X145295396Y-79921630D01*
X145295390Y-79921632D01*
X145076761Y-80039949D01*
X145029942Y-80076388D01*
X145029942Y-80076390D01*
X145728431Y-80774878D01*
X145611542Y-80825651D01*
X145494261Y-80921066D01*
X145407072Y-81044585D01*
X145376645Y-81130197D01*
X144676564Y-80430116D01*
X144576267Y-80583632D01*
X144476412Y-80811282D01*
X144415387Y-81052261D01*
X144415385Y-81052270D01*
X144394859Y-81299994D01*
X144394859Y-81300005D01*
X139842216Y-81300005D01*
X139841036Y-76800005D01*
X144394357Y-76800005D01*
X144414890Y-77047812D01*
X144414892Y-77047824D01*
X144475936Y-77288881D01*
X144575826Y-77516606D01*
X144711833Y-77724782D01*
X144725501Y-77739629D01*
X144880256Y-77907738D01*
X145076491Y-78060474D01*
X145138554Y-78094061D01*
X145270434Y-78165431D01*
X145295190Y-78178828D01*
X145530386Y-78259571D01*
X145775665Y-78300500D01*
X146024335Y-78300500D01*
X146269614Y-78259571D01*
X146504810Y-78178828D01*
X146723509Y-78060474D01*
X146919744Y-77907738D01*
X147088164Y-77724785D01*
X147224173Y-77516607D01*
X147224175Y-77516603D01*
X147231595Y-77499689D01*
X147276551Y-77446203D01*
X147343287Y-77425514D01*
X147345150Y-77425500D01*
X150954850Y-77425500D01*
X151021889Y-77445185D01*
X151067644Y-77497989D01*
X151068405Y-77499689D01*
X151075824Y-77516603D01*
X151211833Y-77724782D01*
X151225501Y-77739629D01*
X151380256Y-77907738D01*
X151576491Y-78060474D01*
X151638554Y-78094061D01*
X151770434Y-78165431D01*
X151795190Y-78178828D01*
X152030386Y-78259571D01*
X152275665Y-78300500D01*
X152524335Y-78300500D01*
X152769614Y-78259571D01*
X152849286Y-78232218D01*
X152919080Y-78229068D01*
X152977228Y-78261819D01*
X153538181Y-78822771D01*
X153571666Y-78884094D01*
X153574500Y-78910452D01*
X153574500Y-80059701D01*
X153554815Y-80126740D01*
X153502011Y-80172495D01*
X153432853Y-80182439D01*
X153374338Y-80157555D01*
X153223230Y-80039943D01*
X153223228Y-80039942D01*
X153004614Y-79921635D01*
X153004603Y-79921630D01*
X152769493Y-79840916D01*
X152524293Y-79800000D01*
X152275707Y-79800000D01*
X152030506Y-79840916D01*
X151795396Y-79921630D01*
X151795390Y-79921632D01*
X151576761Y-80039949D01*
X151529942Y-80076388D01*
X151529942Y-80076390D01*
X152228431Y-80774878D01*
X152111542Y-80825651D01*
X151994261Y-80921066D01*
X151907072Y-81044585D01*
X151876645Y-81130197D01*
X151176564Y-80430116D01*
X151076267Y-80583632D01*
X150976412Y-80811282D01*
X150915387Y-81052261D01*
X150915385Y-81052270D01*
X150894859Y-81299994D01*
X150894859Y-81300005D01*
X150915385Y-81547729D01*
X150915387Y-81547738D01*
X150976412Y-81788717D01*
X151076266Y-82016364D01*
X151176564Y-82169882D01*
X151874070Y-81472376D01*
X151876884Y-81485915D01*
X151946442Y-81620156D01*
X152049638Y-81730652D01*
X152178819Y-81809209D01*
X152230001Y-81823549D01*
X151529942Y-82523609D01*
X151576768Y-82560055D01*
X151576770Y-82560056D01*
X151795385Y-82678364D01*
X151795396Y-82678369D01*
X152030506Y-82759083D01*
X152275707Y-82800000D01*
X152524293Y-82800000D01*
X152769493Y-82759083D01*
X153004603Y-82678369D01*
X153004614Y-82678364D01*
X153223228Y-82560057D01*
X153223237Y-82560051D01*
X153374338Y-82442445D01*
X153439332Y-82416802D01*
X153507872Y-82430368D01*
X153558196Y-82478837D01*
X153574500Y-82540298D01*
X153574500Y-91501312D01*
X153554815Y-91568351D01*
X153542650Y-91584284D01*
X153467466Y-91667784D01*
X153372821Y-91831715D01*
X153372818Y-91831722D01*
X153326944Y-91972909D01*
X153314326Y-92011744D01*
X153294540Y-92200000D01*
X153314326Y-92388256D01*
X153314327Y-92388259D01*
X153372818Y-92568277D01*
X153372821Y-92568284D01*
X153467467Y-92732216D01*
X153528076Y-92799529D01*
X153594129Y-92872888D01*
X153747265Y-92984148D01*
X153747270Y-92984151D01*
X153920192Y-93061142D01*
X153920197Y-93061144D01*
X154105354Y-93100500D01*
X154105355Y-93100500D01*
X154294644Y-93100500D01*
X154294646Y-93100500D01*
X154479803Y-93061144D01*
X154652730Y-92984151D01*
X154805871Y-92872888D01*
X154932533Y-92732216D01*
X155027179Y-92568284D01*
X155085674Y-92388256D01*
X155105460Y-92200000D01*
X155085674Y-92011744D01*
X155027179Y-91831716D01*
X154932533Y-91667784D01*
X154857350Y-91584284D01*
X154827120Y-91521292D01*
X154825500Y-91501312D01*
X154825500Y-78682737D01*
X154827224Y-78667123D01*
X154826938Y-78667096D01*
X154827672Y-78659333D01*
X154825561Y-78592143D01*
X154825500Y-78588249D01*
X154825500Y-78560651D01*
X154825500Y-78560650D01*
X154824997Y-78556670D01*
X154824080Y-78545021D01*
X154822709Y-78501374D01*
X154822709Y-78501372D01*
X154817120Y-78482137D01*
X154813174Y-78463084D01*
X154810664Y-78443208D01*
X154794578Y-78402581D01*
X154790803Y-78391554D01*
X154778617Y-78349610D01*
X154768421Y-78332369D01*
X154759860Y-78314893D01*
X154758308Y-78310975D01*
X154752486Y-78296268D01*
X154726809Y-78260926D01*
X154720412Y-78251190D01*
X154698170Y-78213579D01*
X154698167Y-78213576D01*
X154698165Y-78213573D01*
X154684005Y-78199413D01*
X154671370Y-78184620D01*
X154659593Y-78168412D01*
X154625945Y-78140576D01*
X154617304Y-78132713D01*
X153863660Y-77379069D01*
X153830175Y-77317746D01*
X153831135Y-77260950D01*
X153885108Y-77047821D01*
X153885222Y-77046444D01*
X153905643Y-76800005D01*
X153905643Y-76799994D01*
X153885109Y-76552187D01*
X153885107Y-76552175D01*
X153824063Y-76311118D01*
X153741674Y-76123291D01*
X153732771Y-76053991D01*
X153762748Y-75990879D01*
X153822087Y-75953992D01*
X153891949Y-75955042D01*
X153942911Y-75985800D01*
X155938181Y-77981070D01*
X155971666Y-78042393D01*
X155974500Y-78068751D01*
X155974500Y-95001312D01*
X155954815Y-95068351D01*
X155942650Y-95084284D01*
X155867466Y-95167784D01*
X155772821Y-95331715D01*
X155772818Y-95331722D01*
X155718142Y-95500000D01*
X155714326Y-95511744D01*
X155694540Y-95700000D01*
X155714326Y-95888256D01*
X155714327Y-95888259D01*
X155772818Y-96068277D01*
X155772821Y-96068284D01*
X155867467Y-96232216D01*
X155960364Y-96335388D01*
X155994129Y-96372888D01*
X156147265Y-96484148D01*
X156147270Y-96484151D01*
X156320192Y-96561142D01*
X156320197Y-96561144D01*
X156505354Y-96600500D01*
X156505355Y-96600500D01*
X156694644Y-96600500D01*
X156694646Y-96600500D01*
X156879803Y-96561144D01*
X157052730Y-96484151D01*
X157205871Y-96372888D01*
X157332533Y-96232216D01*
X157427179Y-96068284D01*
X157485674Y-95888256D01*
X157505460Y-95700000D01*
X157485674Y-95511744D01*
X157427179Y-95331716D01*
X157332533Y-95167784D01*
X157295267Y-95126396D01*
X157257350Y-95084284D01*
X157227120Y-95021292D01*
X157225500Y-95001312D01*
X157225500Y-94197870D01*
X162399500Y-94197870D01*
X162399501Y-94197876D01*
X162405908Y-94257483D01*
X162456202Y-94392328D01*
X162456206Y-94392335D01*
X162542452Y-94507544D01*
X162542455Y-94507547D01*
X162657664Y-94593793D01*
X162657671Y-94593797D01*
X162792517Y-94644091D01*
X162792516Y-94644091D01*
X162799444Y-94644835D01*
X162852127Y-94650500D01*
X163947872Y-94650499D01*
X164007483Y-94644091D01*
X164142331Y-94593796D01*
X164257546Y-94507546D01*
X164325734Y-94416457D01*
X164381667Y-94374588D01*
X164451359Y-94369604D01*
X164512682Y-94403089D01*
X164524261Y-94416452D01*
X164592454Y-94507546D01*
X164594032Y-94508727D01*
X164707664Y-94593793D01*
X164707671Y-94593797D01*
X164842517Y-94644091D01*
X164842516Y-94644091D01*
X164849444Y-94644835D01*
X164902127Y-94650500D01*
X165997872Y-94650499D01*
X166057483Y-94644091D01*
X166181477Y-94597843D01*
X166251168Y-94592860D01*
X166312491Y-94626345D01*
X166342741Y-94675708D01*
X166372818Y-94768278D01*
X166372821Y-94768284D01*
X166467467Y-94932216D01*
X166569862Y-95045937D01*
X166594129Y-95072888D01*
X166747265Y-95184148D01*
X166747270Y-95184151D01*
X166920192Y-95261142D01*
X166920197Y-95261144D01*
X167105354Y-95300500D01*
X167105355Y-95300500D01*
X167294644Y-95300500D01*
X167294646Y-95300500D01*
X167479803Y-95261144D01*
X167652730Y-95184151D01*
X167805871Y-95072888D01*
X167833351Y-95042368D01*
X167892836Y-95005721D01*
X167962693Y-95007050D01*
X168020741Y-95045937D01*
X168048551Y-95110033D01*
X168049500Y-95125341D01*
X168049500Y-98514494D01*
X168047732Y-98530505D01*
X168047974Y-98530528D01*
X168047240Y-98538294D01*
X168049439Y-98608262D01*
X168049500Y-98612157D01*
X168049500Y-98640920D01*
X168049501Y-98640938D01*
X168050053Y-98645311D01*
X168050968Y-98656941D01*
X168052402Y-98702567D01*
X168052403Y-98702570D01*
X168058323Y-98722948D01*
X168062268Y-98741996D01*
X168064928Y-98763054D01*
X168064931Y-98763065D01*
X168081737Y-98805514D01*
X168085520Y-98816563D01*
X168098254Y-98860395D01*
X168098255Y-98860397D01*
X168109060Y-98878666D01*
X168117617Y-98896134D01*
X168123226Y-98910300D01*
X168125432Y-98915872D01*
X168152266Y-98952806D01*
X168158678Y-98962568D01*
X168181919Y-99001865D01*
X168181923Y-99001869D01*
X168196925Y-99016871D01*
X168209563Y-99031669D01*
X168222033Y-99048833D01*
X168222036Y-99048837D01*
X168257213Y-99077937D01*
X168265854Y-99085800D01*
X168567873Y-99387819D01*
X168601358Y-99449142D01*
X168596374Y-99518834D01*
X168554502Y-99574767D01*
X168489038Y-99599184D01*
X168480192Y-99599500D01*
X164689337Y-99599500D01*
X164622298Y-99579815D01*
X164616452Y-99575818D01*
X164602734Y-99565851D01*
X164602729Y-99565848D01*
X164429807Y-99488857D01*
X164429802Y-99488855D01*
X164284001Y-99457865D01*
X164244646Y-99449500D01*
X164055354Y-99449500D01*
X164022897Y-99456398D01*
X163870197Y-99488855D01*
X163870192Y-99488857D01*
X163697270Y-99565848D01*
X163697265Y-99565851D01*
X163544129Y-99677111D01*
X163417466Y-99817785D01*
X163322821Y-99981715D01*
X163322818Y-99981722D01*
X163264327Y-100161740D01*
X163264326Y-100161744D01*
X163244540Y-100350000D01*
X163264326Y-100538256D01*
X163264327Y-100538259D01*
X163322818Y-100718277D01*
X163322821Y-100718284D01*
X163417467Y-100882216D01*
X163516726Y-100992454D01*
X163544129Y-101022888D01*
X163697265Y-101134148D01*
X163697270Y-101134151D01*
X163870192Y-101211142D01*
X163870197Y-101211144D01*
X164055354Y-101250500D01*
X164055355Y-101250500D01*
X164244644Y-101250500D01*
X164244646Y-101250500D01*
X164429803Y-101211144D01*
X164602730Y-101134151D01*
X164604776Y-101132664D01*
X164616452Y-101124182D01*
X164682258Y-101100702D01*
X164689337Y-101100500D01*
X169910663Y-101100500D01*
X169977702Y-101120185D01*
X169983548Y-101124182D01*
X169997265Y-101134148D01*
X169997270Y-101134151D01*
X170170192Y-101211142D01*
X170170197Y-101211144D01*
X170355354Y-101250500D01*
X170355355Y-101250500D01*
X170544644Y-101250500D01*
X170544646Y-101250500D01*
X170729803Y-101211144D01*
X170902730Y-101134151D01*
X171055871Y-101022888D01*
X171182533Y-100882216D01*
X171277179Y-100718284D01*
X171335674Y-100538256D01*
X171355460Y-100350000D01*
X171335674Y-100161744D01*
X171277179Y-99981716D01*
X171182533Y-99817784D01*
X171055871Y-99677112D01*
X171055870Y-99677111D01*
X170902734Y-99565851D01*
X170902729Y-99565848D01*
X170729807Y-99488857D01*
X170729802Y-99488855D01*
X170584001Y-99457865D01*
X170544646Y-99449500D01*
X170544645Y-99449500D01*
X170520808Y-99449500D01*
X170453769Y-99429815D01*
X170433127Y-99413181D01*
X170162553Y-99142607D01*
X170129068Y-99081284D01*
X170134052Y-99011592D01*
X170175924Y-98955659D01*
X170241388Y-98931242D01*
X170276014Y-98933635D01*
X170355354Y-98950500D01*
X170355355Y-98950500D01*
X170544644Y-98950500D01*
X170544646Y-98950500D01*
X170729803Y-98911144D01*
X170902730Y-98834151D01*
X171055871Y-98722888D01*
X171182533Y-98582216D01*
X171277179Y-98418284D01*
X171335674Y-98238256D01*
X171355460Y-98050000D01*
X171335674Y-97861744D01*
X171277179Y-97681716D01*
X171217113Y-97577677D01*
X171200500Y-97515677D01*
X171200500Y-83912229D01*
X171220185Y-83845190D01*
X171236819Y-83824548D01*
X171324548Y-83736819D01*
X171385871Y-83703334D01*
X171412229Y-83700500D01*
X172650249Y-83700500D01*
X172717288Y-83720185D01*
X172749515Y-83750188D01*
X172792451Y-83807542D01*
X172792454Y-83807546D01*
X172792457Y-83807548D01*
X172907664Y-83893793D01*
X172907671Y-83893797D01*
X173014972Y-83933818D01*
X173070906Y-83975689D01*
X173095323Y-84041154D01*
X173080471Y-84109427D01*
X173031066Y-84158832D01*
X173014972Y-84166182D01*
X172907671Y-84206202D01*
X172907664Y-84206206D01*
X172792455Y-84292452D01*
X172792452Y-84292455D01*
X172706206Y-84407664D01*
X172706202Y-84407671D01*
X172655908Y-84542517D01*
X172649501Y-84602116D01*
X172649501Y-84602123D01*
X172649500Y-84602135D01*
X172649500Y-85697870D01*
X172649501Y-85697876D01*
X172655908Y-85757483D01*
X172706202Y-85892328D01*
X172706206Y-85892335D01*
X172792452Y-86007544D01*
X172792455Y-86007547D01*
X172883540Y-86075734D01*
X172925411Y-86131668D01*
X172930395Y-86201359D01*
X172896909Y-86262682D01*
X172883540Y-86274266D01*
X172792455Y-86342452D01*
X172792452Y-86342455D01*
X172706206Y-86457664D01*
X172706202Y-86457671D01*
X172655908Y-86592517D01*
X172649501Y-86652116D01*
X172649501Y-86652123D01*
X172649500Y-86652135D01*
X172649500Y-87747870D01*
X172649501Y-87747876D01*
X172655908Y-87807483D01*
X172706202Y-87942328D01*
X172706206Y-87942335D01*
X172792452Y-88057544D01*
X172792455Y-88057547D01*
X172907664Y-88143793D01*
X172907671Y-88143797D01*
X173042517Y-88194091D01*
X173042516Y-88194091D01*
X173049444Y-88194835D01*
X173102127Y-88200500D01*
X174197872Y-88200499D01*
X174257483Y-88194091D01*
X174392331Y-88143796D01*
X174507546Y-88057546D01*
X174593796Y-87942331D01*
X174644091Y-87807483D01*
X174650500Y-87747873D01*
X174650499Y-86652128D01*
X174644091Y-86592517D01*
X174616233Y-86517827D01*
X174593797Y-86457671D01*
X174593793Y-86457664D01*
X174507547Y-86342456D01*
X174507548Y-86342456D01*
X174507546Y-86342454D01*
X174416457Y-86274265D01*
X174374588Y-86218333D01*
X174369604Y-86148641D01*
X174403089Y-86087318D01*
X174416452Y-86075738D01*
X174507546Y-86007546D01*
X174593796Y-85892331D01*
X174644091Y-85757483D01*
X174650500Y-85697873D01*
X174650499Y-84602128D01*
X174644091Y-84542517D01*
X174631024Y-84507483D01*
X174593797Y-84407671D01*
X174593793Y-84407664D01*
X174507547Y-84292455D01*
X174507544Y-84292452D01*
X174392335Y-84206206D01*
X174392328Y-84206202D01*
X174285027Y-84166182D01*
X174229093Y-84124311D01*
X174204676Y-84058847D01*
X174219527Y-83990574D01*
X174268932Y-83941168D01*
X174285027Y-83933818D01*
X174392328Y-83893797D01*
X174392327Y-83893797D01*
X174392331Y-83893796D01*
X174507546Y-83807546D01*
X174593796Y-83692331D01*
X174644091Y-83557483D01*
X174650500Y-83497873D01*
X174650499Y-82402128D01*
X174644091Y-82342517D01*
X174634911Y-82317905D01*
X174593797Y-82207671D01*
X174593793Y-82207664D01*
X174507547Y-82092455D01*
X174507544Y-82092452D01*
X174392335Y-82006206D01*
X174392328Y-82006202D01*
X174257482Y-81955908D01*
X174257483Y-81955908D01*
X174197883Y-81949501D01*
X174197881Y-81949500D01*
X174197873Y-81949500D01*
X174197864Y-81949500D01*
X173102129Y-81949500D01*
X173102123Y-81949501D01*
X173042516Y-81955908D01*
X172907671Y-82006202D01*
X172907664Y-82006206D01*
X172792457Y-82092451D01*
X172792451Y-82092457D01*
X172749515Y-82149812D01*
X172693581Y-82191682D01*
X172650249Y-82199500D01*
X171113705Y-82199500D01*
X171095735Y-82198191D01*
X171071972Y-82194710D01*
X171025642Y-82198764D01*
X171022632Y-82199028D01*
X171011826Y-82199500D01*
X171006282Y-82199500D01*
X170975488Y-82203099D01*
X170971905Y-82203465D01*
X170897200Y-82210001D01*
X170890134Y-82211461D01*
X170890122Y-82211404D01*
X170882753Y-82213038D01*
X170882767Y-82213095D01*
X170875739Y-82214760D01*
X170805271Y-82240408D01*
X170801867Y-82241591D01*
X170730668Y-82265184D01*
X170724122Y-82268237D01*
X170724097Y-82268185D01*
X170717308Y-82271471D01*
X170717334Y-82271522D01*
X170710886Y-82274760D01*
X170648228Y-82315970D01*
X170645191Y-82317905D01*
X170581344Y-82357288D01*
X170575677Y-82361769D01*
X170575641Y-82361723D01*
X170569798Y-82366484D01*
X170569835Y-82366528D01*
X170564310Y-82371164D01*
X170512848Y-82425709D01*
X170510336Y-82428294D01*
X169964358Y-82974272D01*
X169950729Y-82986051D01*
X169931469Y-83000390D01*
X169899632Y-83038331D01*
X169892346Y-83046284D01*
X169888407Y-83050224D01*
X169869176Y-83074545D01*
X169866902Y-83077337D01*
X169818694Y-83134790D01*
X169814729Y-83140819D01*
X169814682Y-83140788D01*
X169810630Y-83147147D01*
X169810679Y-83147177D01*
X169806889Y-83153321D01*
X169775192Y-83221294D01*
X169773623Y-83224536D01*
X169739957Y-83291572D01*
X169737488Y-83298357D01*
X169737432Y-83298336D01*
X169734960Y-83305450D01*
X169735015Y-83305469D01*
X169732743Y-83312325D01*
X169717573Y-83385788D01*
X169716793Y-83389304D01*
X169699499Y-83462279D01*
X169698661Y-83469454D01*
X169698601Y-83469447D01*
X169697835Y-83476945D01*
X169697895Y-83476951D01*
X169697265Y-83484140D01*
X169699448Y-83559128D01*
X169699500Y-83562735D01*
X169699500Y-89242410D01*
X169679815Y-89309449D01*
X169627011Y-89355204D01*
X169557853Y-89365148D01*
X169494297Y-89336123D01*
X169468113Y-89304410D01*
X169432882Y-89243389D01*
X169432533Y-89242784D01*
X169305871Y-89102112D01*
X169305870Y-89102111D01*
X169152734Y-88990851D01*
X169152729Y-88990848D01*
X168979807Y-88913857D01*
X168979802Y-88913855D01*
X168809103Y-88877573D01*
X168794646Y-88874500D01*
X168674500Y-88874500D01*
X168607461Y-88854815D01*
X168561706Y-88802011D01*
X168550500Y-88750500D01*
X168550500Y-87925870D01*
X168552268Y-87909857D01*
X168552026Y-87909835D01*
X168552758Y-87902079D01*
X168552760Y-87902072D01*
X168550561Y-87832105D01*
X168550500Y-87828210D01*
X168550500Y-87799446D01*
X168550499Y-87799439D01*
X168549949Y-87795085D01*
X168549030Y-87783423D01*
X168547597Y-87737800D01*
X168541676Y-87717422D01*
X168537731Y-87698373D01*
X168535071Y-87677311D01*
X168518264Y-87634861D01*
X168514483Y-87623817D01*
X168504464Y-87589334D01*
X168501744Y-87579970D01*
X168490939Y-87561701D01*
X168482379Y-87544227D01*
X168481351Y-87541631D01*
X168474568Y-87524498D01*
X168447737Y-87487568D01*
X168441323Y-87477804D01*
X168418082Y-87438506D01*
X168418081Y-87438504D01*
X168403075Y-87423498D01*
X168390435Y-87408699D01*
X168377961Y-87391529D01*
X168342780Y-87362425D01*
X168334140Y-87354563D01*
X168044481Y-87064904D01*
X168010996Y-87003581D01*
X168008841Y-86990183D01*
X167999995Y-86906017D01*
X167995347Y-86861786D01*
X167936852Y-86681758D01*
X167842206Y-86517826D01*
X167715544Y-86377154D01*
X167715543Y-86377153D01*
X167562407Y-86265893D01*
X167562402Y-86265890D01*
X167389480Y-86188899D01*
X167389475Y-86188897D01*
X167243674Y-86157907D01*
X167204319Y-86149542D01*
X167015027Y-86149542D01*
X166982570Y-86156440D01*
X166829870Y-86188897D01*
X166829865Y-86188899D01*
X166656943Y-86265890D01*
X166656938Y-86265893D01*
X166503802Y-86377153D01*
X166377139Y-86517827D01*
X166282494Y-86681757D01*
X166282491Y-86681764D01*
X166224494Y-86860262D01*
X166223999Y-86861786D01*
X166204213Y-87050042D01*
X166223999Y-87238298D01*
X166224000Y-87238301D01*
X166282491Y-87418319D01*
X166282494Y-87418326D01*
X166332329Y-87504643D01*
X166348802Y-87572544D01*
X166332330Y-87628642D01*
X166290076Y-87701829D01*
X166274605Y-87728627D01*
X166272820Y-87731718D01*
X166272818Y-87731722D01*
X166217468Y-87902073D01*
X166214326Y-87911744D01*
X166194540Y-88100000D01*
X166214326Y-88288256D01*
X166214327Y-88288259D01*
X166272818Y-88468277D01*
X166272821Y-88468284D01*
X166367466Y-88632215D01*
X166417649Y-88687948D01*
X166447880Y-88750940D01*
X166449500Y-88770921D01*
X166449500Y-92650998D01*
X166429815Y-92718037D01*
X166377011Y-92763792D01*
X166307853Y-92773736D01*
X166251189Y-92750265D01*
X166192331Y-92706204D01*
X166192328Y-92706202D01*
X166057482Y-92655908D01*
X166057483Y-92655908D01*
X165997883Y-92649501D01*
X165997881Y-92649500D01*
X165997873Y-92649500D01*
X165997864Y-92649500D01*
X164902129Y-92649500D01*
X164902123Y-92649501D01*
X164842516Y-92655908D01*
X164707671Y-92706202D01*
X164707664Y-92706206D01*
X164592455Y-92792452D01*
X164592452Y-92792455D01*
X164524266Y-92883540D01*
X164468332Y-92925411D01*
X164398641Y-92930395D01*
X164337318Y-92896909D01*
X164325734Y-92883540D01*
X164257547Y-92792455D01*
X164257544Y-92792452D01*
X164142335Y-92706206D01*
X164142328Y-92706202D01*
X164007482Y-92655908D01*
X164007483Y-92655908D01*
X163947883Y-92649501D01*
X163947881Y-92649500D01*
X163947873Y-92649500D01*
X163947864Y-92649500D01*
X162852129Y-92649500D01*
X162852123Y-92649501D01*
X162792516Y-92655908D01*
X162657671Y-92706202D01*
X162657664Y-92706206D01*
X162542455Y-92792452D01*
X162542452Y-92792455D01*
X162456206Y-92907664D01*
X162456202Y-92907671D01*
X162405908Y-93042517D01*
X162399501Y-93102116D01*
X162399500Y-93102135D01*
X162399500Y-94197870D01*
X157225500Y-94197870D01*
X157225500Y-86973056D01*
X157245185Y-86906017D01*
X157297989Y-86860262D01*
X157367147Y-86850318D01*
X157430703Y-86879343D01*
X157437181Y-86885375D01*
X158804949Y-88253143D01*
X158838434Y-88314466D01*
X158841268Y-88340824D01*
X158841268Y-90490073D01*
X158821583Y-90557112D01*
X158809418Y-90573045D01*
X158734234Y-90656545D01*
X158639589Y-90820476D01*
X158639586Y-90820483D01*
X158581095Y-91000501D01*
X158581094Y-91000505D01*
X158561308Y-91188761D01*
X158581094Y-91377017D01*
X158581095Y-91377020D01*
X158639586Y-91557038D01*
X158639589Y-91557045D01*
X158734235Y-91720977D01*
X158833944Y-91831715D01*
X158860897Y-91861649D01*
X159014033Y-91972909D01*
X159014038Y-91972912D01*
X159186960Y-92049903D01*
X159186965Y-92049905D01*
X159372122Y-92089261D01*
X159372123Y-92089261D01*
X159561412Y-92089261D01*
X159561414Y-92089261D01*
X159746571Y-92049905D01*
X159919498Y-91972912D01*
X160072639Y-91861649D01*
X160199301Y-91720977D01*
X160293947Y-91557045D01*
X160352442Y-91377017D01*
X160372228Y-91188761D01*
X160352442Y-91000505D01*
X160293947Y-90820477D01*
X160199301Y-90656545D01*
X160124118Y-90573045D01*
X160093888Y-90510053D01*
X160092268Y-90490073D01*
X160092268Y-89407440D01*
X160111953Y-89340401D01*
X160164757Y-89294646D01*
X160233915Y-89284702D01*
X160266704Y-89294161D01*
X160298235Y-89308200D01*
X160483392Y-89347556D01*
X160483393Y-89347556D01*
X160672682Y-89347556D01*
X160672684Y-89347556D01*
X160857841Y-89308200D01*
X161030768Y-89231207D01*
X161183909Y-89119944D01*
X161310571Y-88979272D01*
X161405217Y-88815340D01*
X161463712Y-88635312D01*
X161483498Y-88447056D01*
X161463712Y-88258800D01*
X161405217Y-88078772D01*
X161310571Y-87914840D01*
X161183909Y-87774168D01*
X161147731Y-87747883D01*
X161030772Y-87662907D01*
X161030767Y-87662904D01*
X160857845Y-87585913D01*
X160857840Y-87585911D01*
X160704412Y-87553300D01*
X160672684Y-87546556D01*
X160672683Y-87546556D01*
X160613490Y-87546556D01*
X160546451Y-87526871D01*
X160525809Y-87510237D01*
X160138886Y-87123313D01*
X160105401Y-87061990D01*
X160110385Y-86992298D01*
X160152254Y-86936367D01*
X160257546Y-86857546D01*
X160343796Y-86742331D01*
X160394091Y-86607483D01*
X160395125Y-86597870D01*
X162649500Y-86597870D01*
X162649501Y-86597876D01*
X162655908Y-86657483D01*
X162706202Y-86792328D01*
X162706206Y-86792335D01*
X162792452Y-86907544D01*
X162792455Y-86907547D01*
X162907664Y-86993793D01*
X162907671Y-86993797D01*
X163042517Y-87044091D01*
X163042516Y-87044091D01*
X163049444Y-87044835D01*
X163102127Y-87050500D01*
X164197872Y-87050499D01*
X164257483Y-87044091D01*
X164392331Y-86993796D01*
X164507546Y-86907546D01*
X164593796Y-86792331D01*
X164644091Y-86657483D01*
X164650500Y-86597873D01*
X164650499Y-85502128D01*
X164644091Y-85442517D01*
X164625442Y-85392517D01*
X164593797Y-85307671D01*
X164593793Y-85307664D01*
X164507547Y-85192455D01*
X164507544Y-85192452D01*
X164392335Y-85106206D01*
X164392328Y-85106202D01*
X164285027Y-85066182D01*
X164229093Y-85024311D01*
X164204676Y-84958847D01*
X164219527Y-84890574D01*
X164268932Y-84841168D01*
X164285027Y-84833818D01*
X164392328Y-84793797D01*
X164392327Y-84793797D01*
X164392331Y-84793796D01*
X164507546Y-84707546D01*
X164593796Y-84592331D01*
X164644091Y-84457483D01*
X164650500Y-84397873D01*
X164650499Y-83302128D01*
X164644091Y-83242517D01*
X164636175Y-83221294D01*
X164593797Y-83107671D01*
X164593793Y-83107664D01*
X164507547Y-82992455D01*
X164507544Y-82992452D01*
X164392335Y-82906206D01*
X164392328Y-82906202D01*
X164257482Y-82855908D01*
X164257483Y-82855908D01*
X164197883Y-82849501D01*
X164197881Y-82849500D01*
X164197873Y-82849500D01*
X164197864Y-82849500D01*
X163102129Y-82849500D01*
X163102123Y-82849501D01*
X163042516Y-82855908D01*
X162907671Y-82906202D01*
X162907664Y-82906206D01*
X162792455Y-82992452D01*
X162792452Y-82992455D01*
X162706206Y-83107664D01*
X162706202Y-83107671D01*
X162655908Y-83242517D01*
X162649905Y-83298357D01*
X162649501Y-83302123D01*
X162649500Y-83302135D01*
X162649500Y-84397870D01*
X162649501Y-84397876D01*
X162655908Y-84457483D01*
X162706202Y-84592328D01*
X162706206Y-84592335D01*
X162792452Y-84707544D01*
X162792455Y-84707547D01*
X162907664Y-84793793D01*
X162907671Y-84793797D01*
X163014972Y-84833818D01*
X163070906Y-84875689D01*
X163095323Y-84941154D01*
X163080471Y-85009427D01*
X163031066Y-85058832D01*
X163014972Y-85066182D01*
X162907671Y-85106202D01*
X162907664Y-85106206D01*
X162792455Y-85192452D01*
X162792452Y-85192455D01*
X162706206Y-85307664D01*
X162706202Y-85307671D01*
X162655908Y-85442517D01*
X162649741Y-85499886D01*
X162649501Y-85502123D01*
X162649500Y-85502135D01*
X162649500Y-86597870D01*
X160395125Y-86597870D01*
X160400500Y-86547873D01*
X160400499Y-85452128D01*
X160394091Y-85392517D01*
X160393498Y-85390928D01*
X160343797Y-85257671D01*
X160343793Y-85257664D01*
X160257547Y-85142455D01*
X160257544Y-85142452D01*
X160135231Y-85050888D01*
X160136930Y-85048617D01*
X160097743Y-85009435D01*
X160082886Y-84941163D01*
X160107298Y-84875697D01*
X160136311Y-84850556D01*
X160135231Y-84849112D01*
X160215136Y-84789293D01*
X160257546Y-84757546D01*
X160343796Y-84642331D01*
X160394091Y-84507483D01*
X160400500Y-84447873D01*
X160400499Y-83352128D01*
X160394091Y-83292517D01*
X160375442Y-83242517D01*
X160343797Y-83157671D01*
X160343793Y-83157664D01*
X160257547Y-83042455D01*
X160257544Y-83042452D01*
X160142335Y-82956206D01*
X160142328Y-82956202D01*
X160007482Y-82905908D01*
X160007483Y-82905908D01*
X159947883Y-82899501D01*
X159947881Y-82899500D01*
X159947873Y-82899500D01*
X159947864Y-82899500D01*
X158852129Y-82899500D01*
X158852123Y-82899501D01*
X158792516Y-82905908D01*
X158657671Y-82956202D01*
X158657664Y-82956206D01*
X158542455Y-83042452D01*
X158542452Y-83042455D01*
X158456206Y-83157664D01*
X158456202Y-83157671D01*
X158405908Y-83292517D01*
X158399501Y-83352116D01*
X158399501Y-83352123D01*
X158399500Y-83352135D01*
X158399500Y-84447870D01*
X158399501Y-84447876D01*
X158405908Y-84507483D01*
X158456202Y-84642328D01*
X158456206Y-84642335D01*
X158542452Y-84757544D01*
X158542455Y-84757547D01*
X158664769Y-84849112D01*
X158663070Y-84851381D01*
X158702264Y-84890580D01*
X158717111Y-84958854D01*
X158692690Y-85024317D01*
X158663689Y-85049445D01*
X158664769Y-85050888D01*
X158542455Y-85142452D01*
X158463633Y-85247744D01*
X158407699Y-85289614D01*
X158338007Y-85294598D01*
X158276686Y-85261113D01*
X158161819Y-85146246D01*
X158128334Y-85084923D01*
X158125500Y-85058565D01*
X158125500Y-78350000D01*
X159391056Y-78350000D01*
X159410788Y-78562954D01*
X159410789Y-78562956D01*
X159469315Y-78768654D01*
X159469321Y-78768669D01*
X159564642Y-78960099D01*
X159564647Y-78960107D01*
X159573980Y-78972465D01*
X160152046Y-78394399D01*
X160164835Y-78475148D01*
X160222359Y-78588045D01*
X160311955Y-78677641D01*
X160424852Y-78735165D01*
X160505599Y-78747953D01*
X159930086Y-79323465D01*
X160033413Y-79387443D01*
X160033414Y-79387444D01*
X160232837Y-79464700D01*
X160443068Y-79504000D01*
X160656932Y-79504000D01*
X160867162Y-79464700D01*
X161066585Y-79387444D01*
X161066589Y-79387442D01*
X161169911Y-79323466D01*
X161169911Y-79323465D01*
X160594401Y-78747953D01*
X160675148Y-78735165D01*
X160788045Y-78677641D01*
X160877641Y-78588045D01*
X160935165Y-78475148D01*
X160947953Y-78394400D01*
X161526018Y-78972464D01*
X161526019Y-78972464D01*
X161535352Y-78960107D01*
X161535355Y-78960102D01*
X161630678Y-78768669D01*
X161630684Y-78768654D01*
X161680474Y-78593661D01*
X161717753Y-78534567D01*
X161781063Y-78505010D01*
X161850302Y-78514372D01*
X161903489Y-78559682D01*
X161919006Y-78593661D01*
X161968846Y-78768835D01*
X161968849Y-78768841D01*
X161995703Y-78822771D01*
X162064219Y-78960370D01*
X162193159Y-79131114D01*
X162351278Y-79275258D01*
X162351283Y-79275261D01*
X162351286Y-79275263D01*
X162533186Y-79387891D01*
X162533187Y-79387891D01*
X162533190Y-79387893D01*
X162732703Y-79465185D01*
X162943020Y-79504500D01*
X162943022Y-79504500D01*
X163156978Y-79504500D01*
X163156980Y-79504500D01*
X163367297Y-79465185D01*
X163566810Y-79387893D01*
X163748722Y-79275258D01*
X163906841Y-79131114D01*
X164035781Y-78960370D01*
X164131151Y-78768840D01*
X164152234Y-78694738D01*
X164189512Y-78635648D01*
X164252821Y-78606089D01*
X164322061Y-78615450D01*
X164375248Y-78660759D01*
X164395496Y-78727631D01*
X164395500Y-78728674D01*
X164395500Y-79051869D01*
X164395501Y-79051876D01*
X164401908Y-79111483D01*
X164452202Y-79246328D01*
X164452206Y-79246335D01*
X164538452Y-79361544D01*
X164538455Y-79361547D01*
X164653664Y-79447793D01*
X164653671Y-79447797D01*
X164788517Y-79498091D01*
X164788516Y-79498091D01*
X164795444Y-79498835D01*
X164848127Y-79504500D01*
X166251872Y-79504499D01*
X166311483Y-79498091D01*
X166446331Y-79447796D01*
X166561546Y-79361546D01*
X166647796Y-79246331D01*
X166698091Y-79111483D01*
X166704500Y-79051873D01*
X166704499Y-77648128D01*
X166698091Y-77588517D01*
X166690769Y-77568887D01*
X166647797Y-77453671D01*
X166647793Y-77453664D01*
X166561547Y-77338455D01*
X166561544Y-77338452D01*
X166446335Y-77252206D01*
X166446328Y-77252202D01*
X166311482Y-77201908D01*
X166311483Y-77201908D01*
X166251883Y-77195501D01*
X166251881Y-77195500D01*
X166251873Y-77195500D01*
X166251864Y-77195500D01*
X164848129Y-77195500D01*
X164848123Y-77195501D01*
X164788516Y-77201908D01*
X164653671Y-77252202D01*
X164653664Y-77252206D01*
X164538455Y-77338452D01*
X164538452Y-77338455D01*
X164452206Y-77453664D01*
X164452202Y-77453671D01*
X164401908Y-77588517D01*
X164395501Y-77648116D01*
X164395501Y-77648123D01*
X164395500Y-77648135D01*
X164395500Y-77971323D01*
X164375815Y-78038362D01*
X164323011Y-78084117D01*
X164253853Y-78094061D01*
X164190297Y-78065036D01*
X164152523Y-78006258D01*
X164152234Y-78005257D01*
X164131153Y-77931164D01*
X164131150Y-77931158D01*
X164119488Y-77907738D01*
X164035781Y-77739630D01*
X163906841Y-77568886D01*
X163748722Y-77424742D01*
X163748716Y-77424738D01*
X163748713Y-77424736D01*
X163566813Y-77312108D01*
X163566807Y-77312106D01*
X163367297Y-77234815D01*
X163156980Y-77195500D01*
X162943020Y-77195500D01*
X162732703Y-77234815D01*
X162665249Y-77260947D01*
X162533192Y-77312106D01*
X162533186Y-77312108D01*
X162351286Y-77424736D01*
X162351283Y-77424738D01*
X162351279Y-77424740D01*
X162351278Y-77424742D01*
X162303553Y-77468249D01*
X162193158Y-77568887D01*
X162064219Y-77739629D01*
X161968849Y-77931158D01*
X161968846Y-77931164D01*
X161919006Y-78106338D01*
X161881727Y-78165431D01*
X161818418Y-78194989D01*
X161749178Y-78185627D01*
X161695991Y-78140317D01*
X161680474Y-78106338D01*
X161630684Y-77931345D01*
X161630678Y-77931330D01*
X161535357Y-77739901D01*
X161535355Y-77739898D01*
X161526018Y-77727534D01*
X160947953Y-78305599D01*
X160935165Y-78224852D01*
X160877641Y-78111955D01*
X160788045Y-78022359D01*
X160675148Y-77964835D01*
X160594400Y-77952046D01*
X161169912Y-77376533D01*
X161066586Y-77312556D01*
X161066585Y-77312555D01*
X160867162Y-77235299D01*
X160656932Y-77196000D01*
X160443068Y-77196000D01*
X160232837Y-77235299D01*
X160033416Y-77312554D01*
X160033410Y-77312557D01*
X159930087Y-77376532D01*
X159930086Y-77376533D01*
X160505600Y-77952046D01*
X160424852Y-77964835D01*
X160311955Y-78022359D01*
X160222359Y-78111955D01*
X160164835Y-78224852D01*
X160152046Y-78305599D01*
X159573980Y-77727533D01*
X159564646Y-77739893D01*
X159469321Y-77931330D01*
X159469315Y-77931345D01*
X159410789Y-78137043D01*
X159410788Y-78137045D01*
X159391056Y-78349999D01*
X159391056Y-78350000D01*
X158125500Y-78350000D01*
X158125500Y-77468249D01*
X158127224Y-77452629D01*
X158126939Y-77452603D01*
X158127671Y-77444847D01*
X158127673Y-77444840D01*
X158125561Y-77377633D01*
X158125500Y-77373738D01*
X158125500Y-77346161D01*
X158125500Y-77346157D01*
X158124996Y-77342172D01*
X158124080Y-77330528D01*
X158122709Y-77286880D01*
X158117122Y-77267651D01*
X158113174Y-77248591D01*
X158110664Y-77228715D01*
X158110663Y-77228713D01*
X158110663Y-77228711D01*
X158094588Y-77188111D01*
X158090804Y-77177059D01*
X158078618Y-77135116D01*
X158078616Y-77135113D01*
X158068423Y-77117878D01*
X158059861Y-77100401D01*
X158052487Y-77081776D01*
X158042929Y-77068621D01*
X158026811Y-77046437D01*
X158020405Y-77036684D01*
X157998170Y-76999087D01*
X157998168Y-76999085D01*
X157998165Y-76999081D01*
X157984006Y-76984922D01*
X157971368Y-76970126D01*
X157959594Y-76953920D01*
X157925940Y-76926079D01*
X157917299Y-76918216D01*
X156846819Y-75847735D01*
X156813334Y-75786412D01*
X156810500Y-75760054D01*
X156810500Y-75150000D01*
X159390554Y-75150000D01*
X159410295Y-75363047D01*
X159410296Y-75363050D01*
X159468846Y-75568835D01*
X159468849Y-75568841D01*
X159503713Y-75638857D01*
X159564219Y-75760370D01*
X159693159Y-75931114D01*
X159851278Y-76075258D01*
X159851283Y-76075261D01*
X159851286Y-76075263D01*
X160033186Y-76187891D01*
X160033187Y-76187891D01*
X160033190Y-76187893D01*
X160232703Y-76265185D01*
X160443020Y-76304500D01*
X160443022Y-76304500D01*
X160656978Y-76304500D01*
X160656980Y-76304500D01*
X160867297Y-76265185D01*
X161066810Y-76187893D01*
X161248722Y-76075258D01*
X161406841Y-75931114D01*
X161535781Y-75760370D01*
X161631151Y-75568840D01*
X161631151Y-75568837D01*
X161631153Y-75568835D01*
X161680734Y-75394575D01*
X161718013Y-75335482D01*
X161781322Y-75305924D01*
X161850562Y-75315286D01*
X161903748Y-75360595D01*
X161919266Y-75394575D01*
X161968846Y-75568835D01*
X161968849Y-75568841D01*
X162003713Y-75638857D01*
X162064219Y-75760370D01*
X162193159Y-75931114D01*
X162351278Y-76075258D01*
X162351283Y-76075261D01*
X162351286Y-76075263D01*
X162533186Y-76187891D01*
X162533187Y-76187891D01*
X162533190Y-76187893D01*
X162732703Y-76265185D01*
X162943020Y-76304500D01*
X162943022Y-76304500D01*
X163156978Y-76304500D01*
X163156980Y-76304500D01*
X163367297Y-76265185D01*
X163566810Y-76187893D01*
X163748722Y-76075258D01*
X163906841Y-75931114D01*
X164035781Y-75760370D01*
X164131151Y-75568840D01*
X164131151Y-75568837D01*
X164131153Y-75568835D01*
X164180734Y-75394575D01*
X164218013Y-75335482D01*
X164281322Y-75305924D01*
X164350562Y-75315286D01*
X164403748Y-75360595D01*
X164419266Y-75394575D01*
X164468846Y-75568835D01*
X164468849Y-75568841D01*
X164503713Y-75638857D01*
X164564219Y-75760370D01*
X164693159Y-75931114D01*
X164851278Y-76075258D01*
X164851283Y-76075261D01*
X164851286Y-76075263D01*
X165033186Y-76187891D01*
X165033187Y-76187891D01*
X165033190Y-76187893D01*
X165232703Y-76265185D01*
X165443020Y-76304500D01*
X165443022Y-76304500D01*
X165656978Y-76304500D01*
X165656980Y-76304500D01*
X165867297Y-76265185D01*
X166066810Y-76187893D01*
X166248722Y-76075258D01*
X166406841Y-75931114D01*
X166535781Y-75760370D01*
X166631151Y-75568840D01*
X166631151Y-75568837D01*
X166631153Y-75568835D01*
X166673167Y-75421169D01*
X166689704Y-75363048D01*
X166709446Y-75150000D01*
X166689704Y-74936952D01*
X166668185Y-74861321D01*
X166631153Y-74731164D01*
X166631150Y-74731158D01*
X166620566Y-74709903D01*
X166535781Y-74539630D01*
X166406841Y-74368886D01*
X166248722Y-74224742D01*
X166248716Y-74224738D01*
X166248713Y-74224736D01*
X166066813Y-74112108D01*
X166066807Y-74112106D01*
X165867297Y-74034815D01*
X165656980Y-73995500D01*
X165443020Y-73995500D01*
X165232703Y-74034815D01*
X165106533Y-74083693D01*
X165033192Y-74112106D01*
X165033186Y-74112108D01*
X164851286Y-74224736D01*
X164851283Y-74224738D01*
X164851279Y-74224740D01*
X164851278Y-74224742D01*
X164693159Y-74368886D01*
X164693158Y-74368887D01*
X164564219Y-74539629D01*
X164468849Y-74731158D01*
X164468846Y-74731164D01*
X164419266Y-74905424D01*
X164381987Y-74964517D01*
X164318678Y-74994075D01*
X164249438Y-74984713D01*
X164196251Y-74939403D01*
X164180734Y-74905424D01*
X164131153Y-74731164D01*
X164131150Y-74731158D01*
X164120566Y-74709903D01*
X164035781Y-74539630D01*
X163906841Y-74368886D01*
X163748722Y-74224742D01*
X163748716Y-74224738D01*
X163748713Y-74224736D01*
X163566813Y-74112108D01*
X163566807Y-74112106D01*
X163367297Y-74034815D01*
X163156980Y-73995500D01*
X162943020Y-73995500D01*
X162732703Y-74034815D01*
X162606533Y-74083693D01*
X162533192Y-74112106D01*
X162533186Y-74112108D01*
X162351286Y-74224736D01*
X162351283Y-74224738D01*
X162351279Y-74224740D01*
X162351278Y-74224742D01*
X162193159Y-74368886D01*
X162193158Y-74368887D01*
X162064219Y-74539629D01*
X161968849Y-74731158D01*
X161968846Y-74731164D01*
X161919266Y-74905424D01*
X161881987Y-74964517D01*
X161818678Y-74994075D01*
X161749438Y-74984713D01*
X161696251Y-74939403D01*
X161680734Y-74905424D01*
X161631153Y-74731164D01*
X161631150Y-74731158D01*
X161620566Y-74709903D01*
X161535781Y-74539630D01*
X161406841Y-74368886D01*
X161248722Y-74224742D01*
X161248716Y-74224738D01*
X161248713Y-74224736D01*
X161066813Y-74112108D01*
X161066807Y-74112106D01*
X160867297Y-74034815D01*
X160656980Y-73995500D01*
X160443020Y-73995500D01*
X160232703Y-74034815D01*
X160106533Y-74083693D01*
X160033192Y-74112106D01*
X160033186Y-74112108D01*
X159851286Y-74224736D01*
X159851283Y-74224738D01*
X159851279Y-74224740D01*
X159851278Y-74224742D01*
X159693159Y-74368886D01*
X159693158Y-74368887D01*
X159564219Y-74539629D01*
X159468849Y-74731158D01*
X159468846Y-74731164D01*
X159410296Y-74936949D01*
X159410295Y-74936952D01*
X159390554Y-75149999D01*
X159390554Y-75150000D01*
X156810500Y-75150000D01*
X156810500Y-71874499D01*
X156830185Y-71807460D01*
X156882989Y-71761705D01*
X156934500Y-71750499D01*
X158447871Y-71750499D01*
X158447872Y-71750499D01*
X158507483Y-71744091D01*
X158642331Y-71693796D01*
X158757546Y-71607546D01*
X158843796Y-71492331D01*
X158894091Y-71357483D01*
X158900500Y-71297873D01*
X158900499Y-69524499D01*
X158920184Y-69457461D01*
X158972987Y-69411706D01*
X159024499Y-69400500D01*
X161058600Y-69400500D01*
X161125639Y-69420185D01*
X161171394Y-69472989D01*
X161181338Y-69542147D01*
X161160175Y-69595624D01*
X161106398Y-69672424D01*
X161006570Y-69886507D01*
X161006567Y-69886513D01*
X160949364Y-70099999D01*
X160949364Y-70100000D01*
X161846314Y-70100000D01*
X161820507Y-70140156D01*
X161780000Y-70278111D01*
X161780000Y-70421889D01*
X161820507Y-70559844D01*
X161846314Y-70600000D01*
X160949364Y-70600000D01*
X161006567Y-70813486D01*
X161006570Y-70813492D01*
X161106399Y-71027578D01*
X161241894Y-71221082D01*
X161408917Y-71388105D01*
X161602421Y-71523600D01*
X161816507Y-71623429D01*
X161816516Y-71623433D01*
X162030000Y-71680634D01*
X162030000Y-70785501D01*
X162137685Y-70834680D01*
X162244237Y-70850000D01*
X162315763Y-70850000D01*
X162422315Y-70834680D01*
X162530000Y-70785501D01*
X162530000Y-71680633D01*
X162743483Y-71623433D01*
X162743492Y-71623429D01*
X162957578Y-71523600D01*
X163151082Y-71388105D01*
X163318105Y-71221082D01*
X163448119Y-71035405D01*
X163502696Y-70991781D01*
X163572195Y-70984588D01*
X163634549Y-71016110D01*
X163651269Y-71035405D01*
X163781505Y-71221401D01*
X163948599Y-71388495D01*
X164045384Y-71456265D01*
X164142165Y-71524032D01*
X164142167Y-71524033D01*
X164142170Y-71524035D01*
X164356337Y-71623903D01*
X164356343Y-71623904D01*
X164356344Y-71623905D01*
X164372478Y-71628228D01*
X164584592Y-71685063D01*
X164772918Y-71701539D01*
X164819999Y-71705659D01*
X164820000Y-71705659D01*
X164820001Y-71705659D01*
X164859234Y-71702226D01*
X165055408Y-71685063D01*
X165283663Y-71623903D01*
X165497830Y-71524035D01*
X165691401Y-71388495D01*
X165858495Y-71221401D01*
X165988425Y-71035842D01*
X166043002Y-70992217D01*
X166112500Y-70985023D01*
X166174855Y-71016546D01*
X166191575Y-71035842D01*
X166321281Y-71221082D01*
X166321505Y-71221401D01*
X166488599Y-71388495D01*
X166585384Y-71456265D01*
X166682165Y-71524032D01*
X166682167Y-71524033D01*
X166682170Y-71524035D01*
X166896337Y-71623903D01*
X166896343Y-71623904D01*
X166896344Y-71623905D01*
X166912478Y-71628228D01*
X167124592Y-71685063D01*
X167312918Y-71701539D01*
X167359999Y-71705659D01*
X167360000Y-71705659D01*
X167360001Y-71705659D01*
X167399234Y-71702226D01*
X167595408Y-71685063D01*
X167823663Y-71623903D01*
X167923098Y-71577535D01*
X167992172Y-71567044D01*
X168055956Y-71595563D01*
X168094196Y-71654040D01*
X168099500Y-71689918D01*
X168099500Y-74429755D01*
X168097775Y-74445372D01*
X168098061Y-74445399D01*
X168097326Y-74453165D01*
X168099439Y-74520372D01*
X168099500Y-74524267D01*
X168099500Y-74551857D01*
X168100003Y-74555835D01*
X168100918Y-74567467D01*
X168102290Y-74611124D01*
X168102291Y-74611127D01*
X168107880Y-74630367D01*
X168111824Y-74649411D01*
X168112936Y-74658208D01*
X168114336Y-74669292D01*
X168130414Y-74709903D01*
X168134197Y-74720952D01*
X168146381Y-74762888D01*
X168156580Y-74780134D01*
X168165138Y-74797603D01*
X168172514Y-74816232D01*
X168198181Y-74851560D01*
X168204593Y-74861321D01*
X168226828Y-74898917D01*
X168226833Y-74898924D01*
X168240990Y-74913080D01*
X168253628Y-74927876D01*
X168265405Y-74944086D01*
X168265406Y-74944087D01*
X168299057Y-74971925D01*
X168307698Y-74979788D01*
X169773538Y-76445629D01*
X169807023Y-76506952D01*
X169809178Y-76520348D01*
X169812524Y-76552179D01*
X169826826Y-76688256D01*
X169826827Y-76688259D01*
X169885318Y-76868277D01*
X169885321Y-76868284D01*
X169979967Y-77032216D01*
X170049531Y-77109474D01*
X170106629Y-77172888D01*
X170259765Y-77284148D01*
X170259770Y-77284151D01*
X170432692Y-77361142D01*
X170432697Y-77361144D01*
X170617854Y-77400500D01*
X170617855Y-77400500D01*
X170807144Y-77400500D01*
X170807146Y-77400500D01*
X170992303Y-77361144D01*
X171165230Y-77284151D01*
X171318371Y-77172888D01*
X171445033Y-77032216D01*
X171539679Y-76868284D01*
X171598174Y-76688256D01*
X171617960Y-76500000D01*
X171598174Y-76311744D01*
X171539679Y-76131716D01*
X171445033Y-75967784D01*
X171318371Y-75827112D01*
X171318370Y-75827111D01*
X171165234Y-75715851D01*
X171165229Y-75715848D01*
X170992307Y-75638857D01*
X170992302Y-75638855D01*
X170846501Y-75607865D01*
X170807146Y-75599500D01*
X170807145Y-75599500D01*
X170747953Y-75599500D01*
X170680914Y-75579815D01*
X170660272Y-75563181D01*
X169386819Y-74289728D01*
X169353334Y-74228405D01*
X169350500Y-74202047D01*
X169350500Y-71824499D01*
X169370185Y-71757460D01*
X169422989Y-71711705D01*
X169474500Y-71700499D01*
X170797871Y-71700499D01*
X170797872Y-71700499D01*
X170857483Y-71694091D01*
X170992331Y-71643796D01*
X171107546Y-71557546D01*
X171193796Y-71442331D01*
X171244091Y-71307483D01*
X171250500Y-71247873D01*
X171250499Y-69452128D01*
X171244091Y-69392517D01*
X171232668Y-69361891D01*
X171193797Y-69257671D01*
X171193793Y-69257664D01*
X171107547Y-69142455D01*
X171107544Y-69142452D01*
X170992335Y-69056206D01*
X170992328Y-69056202D01*
X170857482Y-69005908D01*
X170857483Y-69005908D01*
X170797883Y-68999501D01*
X170797881Y-68999500D01*
X170797873Y-68999500D01*
X170797864Y-68999500D01*
X169002129Y-68999500D01*
X169002123Y-68999501D01*
X168942516Y-69005908D01*
X168807671Y-69056202D01*
X168799890Y-69060452D01*
X168798448Y-69057812D01*
X168747070Y-69076970D01*
X168678799Y-69062111D01*
X168650556Y-69040966D01*
X168000803Y-68391212D01*
X167990980Y-68378950D01*
X167990759Y-68379134D01*
X167985786Y-68373122D01*
X167936776Y-68327099D01*
X167933977Y-68324386D01*
X167914477Y-68304885D01*
X167914471Y-68304880D01*
X167911286Y-68302409D01*
X167902434Y-68294848D01*
X167870582Y-68264938D01*
X167870580Y-68264936D01*
X167870577Y-68264935D01*
X167853029Y-68255288D01*
X167836763Y-68244604D01*
X167820932Y-68232324D01*
X167780849Y-68214978D01*
X167770363Y-68209841D01*
X167732094Y-68188803D01*
X167732092Y-68188802D01*
X167712693Y-68183822D01*
X167694281Y-68177518D01*
X167675898Y-68169562D01*
X167675892Y-68169560D01*
X167632760Y-68162729D01*
X167621322Y-68160361D01*
X167579020Y-68149500D01*
X167579019Y-68149500D01*
X167558984Y-68149500D01*
X167539586Y-68147973D01*
X167532162Y-68146797D01*
X167519805Y-68144840D01*
X167519804Y-68144840D01*
X167476325Y-68148950D01*
X167464656Y-68149500D01*
X152307737Y-68149500D01*
X152292120Y-68147776D01*
X152292093Y-68148062D01*
X152284331Y-68147327D01*
X152217144Y-68149439D01*
X152213250Y-68149500D01*
X152185650Y-68149500D01*
X152181962Y-68149965D01*
X152181649Y-68150005D01*
X152170031Y-68150918D01*
X152126373Y-68152290D01*
X152126372Y-68152290D01*
X152107129Y-68157881D01*
X152088079Y-68161825D01*
X152068211Y-68164334D01*
X152068210Y-68164335D01*
X152027600Y-68180413D01*
X152016553Y-68184195D01*
X151974610Y-68196381D01*
X151974609Y-68196382D01*
X151957367Y-68206579D01*
X151939899Y-68215137D01*
X151921269Y-68222513D01*
X151921266Y-68222515D01*
X151885939Y-68248181D01*
X151876180Y-68254592D01*
X151838579Y-68276830D01*
X151824408Y-68291000D01*
X151809623Y-68303628D01*
X151793412Y-68315407D01*
X151765571Y-68349059D01*
X151757711Y-68357696D01*
X150846677Y-69268729D01*
X150785354Y-69302214D01*
X150715662Y-69297230D01*
X150687872Y-69282622D01*
X150607582Y-69226401D01*
X150607578Y-69226399D01*
X150393492Y-69126570D01*
X150393486Y-69126567D01*
X150180000Y-69069364D01*
X150180000Y-69964498D01*
X150072315Y-69915320D01*
X149965763Y-69900000D01*
X149894237Y-69900000D01*
X149787685Y-69915320D01*
X149680000Y-69964498D01*
X149680000Y-69069364D01*
X149679999Y-69069364D01*
X149466513Y-69126567D01*
X149466507Y-69126570D01*
X149252422Y-69226399D01*
X149252420Y-69226400D01*
X149058926Y-69361886D01*
X149058920Y-69361891D01*
X148891891Y-69528920D01*
X148891886Y-69528926D01*
X148756400Y-69722420D01*
X148756399Y-69722422D01*
X148656570Y-69936507D01*
X148656567Y-69936513D01*
X148599364Y-70149999D01*
X148599364Y-70150000D01*
X149496314Y-70150000D01*
X149470507Y-70190156D01*
X149430000Y-70328111D01*
X149430000Y-70471889D01*
X149470507Y-70609844D01*
X149496314Y-70650000D01*
X148599364Y-70650000D01*
X148656567Y-70863486D01*
X148656570Y-70863492D01*
X148756399Y-71077578D01*
X148891894Y-71271082D01*
X149058917Y-71438105D01*
X149252421Y-71573600D01*
X149466507Y-71673429D01*
X149466516Y-71673433D01*
X149680000Y-71730634D01*
X149680000Y-70835501D01*
X149787685Y-70884680D01*
X149894237Y-70900000D01*
X149965763Y-70900000D01*
X150072315Y-70884680D01*
X150180000Y-70835501D01*
X150180000Y-71730633D01*
X150323407Y-71692209D01*
X150393257Y-71693872D01*
X150451119Y-71733035D01*
X150478623Y-71797263D01*
X150479500Y-71811984D01*
X150479500Y-72180554D01*
X150477775Y-72196171D01*
X150478061Y-72196198D01*
X150477326Y-72203964D01*
X150479439Y-72271171D01*
X150479500Y-72275066D01*
X150479500Y-72302656D01*
X150480003Y-72306634D01*
X150480918Y-72318266D01*
X150482290Y-72361923D01*
X150482291Y-72361926D01*
X150487880Y-72381166D01*
X150491824Y-72400210D01*
X150494336Y-72420091D01*
X150510414Y-72460702D01*
X150514197Y-72471751D01*
X150526381Y-72513687D01*
X150536580Y-72530933D01*
X150545138Y-72548402D01*
X150552514Y-72567031D01*
X150578181Y-72602359D01*
X150584593Y-72612120D01*
X150606828Y-72649716D01*
X150606833Y-72649723D01*
X150620990Y-72663879D01*
X150633628Y-72678675D01*
X150645405Y-72694885D01*
X150645406Y-72694886D01*
X150679057Y-72722724D01*
X150687698Y-72730587D01*
X153216976Y-75259865D01*
X153250461Y-75321188D01*
X153245477Y-75390880D01*
X153203605Y-75446813D01*
X153138141Y-75471230D01*
X153070278Y-75456601D01*
X153004816Y-75421175D01*
X153004813Y-75421174D01*
X153004810Y-75421172D01*
X153004804Y-75421170D01*
X153004802Y-75421169D01*
X152769616Y-75340429D01*
X152524335Y-75299500D01*
X152275665Y-75299500D01*
X152030383Y-75340429D01*
X151795197Y-75421169D01*
X151795188Y-75421172D01*
X151576493Y-75539524D01*
X151380257Y-75692261D01*
X151211833Y-75875217D01*
X151075824Y-76083396D01*
X151068405Y-76100311D01*
X151023449Y-76153797D01*
X150956713Y-76174486D01*
X150954850Y-76174500D01*
X147345150Y-76174500D01*
X147278111Y-76154815D01*
X147232356Y-76102011D01*
X147231595Y-76100311D01*
X147224175Y-76083396D01*
X147088166Y-75875217D01*
X147006415Y-75786412D01*
X146919744Y-75692262D01*
X146723509Y-75539526D01*
X146723507Y-75539525D01*
X146723506Y-75539524D01*
X146504811Y-75421172D01*
X146504802Y-75421169D01*
X146269616Y-75340429D01*
X146024335Y-75299500D01*
X145775665Y-75299500D01*
X145530383Y-75340429D01*
X145295197Y-75421169D01*
X145295188Y-75421172D01*
X145076493Y-75539524D01*
X144880257Y-75692261D01*
X144711833Y-75875217D01*
X144575826Y-76083393D01*
X144475936Y-76311118D01*
X144414892Y-76552175D01*
X144414890Y-76552187D01*
X144394357Y-76799994D01*
X144394357Y-76800005D01*
X139841036Y-76800005D01*
X139839470Y-70827554D01*
X139859137Y-70760512D01*
X139911929Y-70714743D01*
X139981085Y-70704782D01*
X140044648Y-70733790D01*
X140078663Y-70781627D01*
X140200597Y-71087659D01*
X140200606Y-71087677D01*
X140368218Y-71403827D01*
X140569024Y-71699994D01*
X140569035Y-71700008D01*
X140696441Y-71850002D01*
X140696442Y-71850002D01*
X141902265Y-70644179D01*
X142065130Y-70834870D01*
X142255819Y-70997733D01*
X141047257Y-72206294D01*
X141060495Y-72218836D01*
X141345367Y-72435388D01*
X141345370Y-72435390D01*
X141651990Y-72619876D01*
X141976739Y-72770122D01*
X141976744Y-72770123D01*
X142315855Y-72884383D01*
X142665339Y-72961311D01*
X143021075Y-72999999D01*
X143021085Y-73000000D01*
X143378915Y-73000000D01*
X143378924Y-72999999D01*
X143734660Y-72961311D01*
X144084144Y-72884383D01*
X144423255Y-72770123D01*
X144423260Y-72770122D01*
X144748009Y-72619876D01*
X145054629Y-72435390D01*
X145054632Y-72435388D01*
X145339509Y-72218831D01*
X145352742Y-72206295D01*
X145352742Y-72206294D01*
X144144181Y-70997733D01*
X144334870Y-70834870D01*
X144497733Y-70644180D01*
X145703556Y-71850002D01*
X145830972Y-71699998D01*
X145830975Y-71699994D01*
X146031781Y-71403827D01*
X146199393Y-71087677D01*
X146199402Y-71087659D01*
X146331850Y-70755239D01*
X146331852Y-70755232D01*
X146427578Y-70410457D01*
X146427584Y-70410431D01*
X146485472Y-70057331D01*
X146485473Y-70057314D01*
X146504847Y-69700002D01*
X146504847Y-69699997D01*
X146485473Y-69342685D01*
X146485472Y-69342668D01*
X146427584Y-68989568D01*
X146427578Y-68989542D01*
X146331852Y-68644767D01*
X146331850Y-68644760D01*
X146199402Y-68312340D01*
X146199393Y-68312322D01*
X146031781Y-67996172D01*
X145830975Y-67700005D01*
X145830964Y-67699991D01*
X145703556Y-67549996D01*
X144497733Y-68755819D01*
X144334870Y-68565130D01*
X144144180Y-68402266D01*
X145352742Y-67193704D01*
X145339504Y-67181163D01*
X145054632Y-66964611D01*
X145054629Y-66964609D01*
X144748009Y-66780123D01*
X144423260Y-66629878D01*
X144293886Y-66586286D01*
X144236641Y-66546226D01*
X144210142Y-66481576D01*
X144222802Y-66412863D01*
X144270601Y-66361902D01*
X144333520Y-66344777D01*
X175983120Y-66356046D01*
G37*
%TD.AperFunction*%
%TD*%
M02*
