%TF.GenerationSoftware,KiCad,Pcbnew,7.0.10*%
%TF.CreationDate,2025-03-06T06:53:05-06:00*%
%TF.ProjectId,Reflow Project Kicad,5265666c-6f77-4205-9072-6f6a65637420,rev?*%
%TF.SameCoordinates,Original*%
%TF.FileFunction,Legend,Top*%
%TF.FilePolarity,Positive*%
%FSLAX46Y46*%
G04 Gerber Fmt 4.6, Leading zero omitted, Abs format (unit mm)*
G04 Created by KiCad (PCBNEW 7.0.10) date 2025-03-06 06:53:05*
%MOMM*%
%LPD*%
G01*
G04 APERTURE LIST*
%ADD10C,0.150000*%
%ADD11C,0.250000*%
%ADD12C,0.508000*%
%ADD13C,0.152400*%
%ADD14C,0.120000*%
%ADD15C,0.127000*%
%ADD16C,0.200000*%
G04 APERTURE END LIST*
D10*
X149500000Y-67900000D02*
X150100000Y-67900000D01*
X149800000Y-67100000D02*
X149800000Y-67600000D01*
X149700000Y-68200000D02*
X149900000Y-68200000D01*
X149800000Y-67600000D02*
X149200000Y-67600000D01*
X149400000Y-67600000D02*
X150400000Y-67600000D01*
X162000000Y-67900000D02*
X162600000Y-67900000D01*
X162300000Y-67100000D02*
X162300000Y-67600000D01*
X162200000Y-68200000D02*
X162400000Y-68200000D01*
X162300000Y-67600000D02*
X161700000Y-67600000D01*
X161900000Y-67600000D02*
X162900000Y-67600000D01*
X169400000Y-115500000D02*
X169600000Y-115500000D01*
X169500000Y-114400000D02*
X169500000Y-114900000D01*
X168050000Y-76050000D02*
X168125400Y-76050000D01*
X168125400Y-77550000D01*
X168050000Y-77550000D01*
X168050000Y-76050000D01*
X169200000Y-115200000D02*
X169800000Y-115200000D01*
X154120711Y-90150000D02*
G75*
G03*
X153979289Y-90150000I-70711J0D01*
G01*
X153979289Y-90150000D02*
G75*
G03*
X154120711Y-90150000I70711J0D01*
G01*
D11*
X158271699Y-76700000D02*
G75*
G03*
X157128301Y-76700000I-571699J0D01*
G01*
X157128301Y-76700000D02*
G75*
G03*
X158271699Y-76700000I571699J0D01*
G01*
D10*
X169100000Y-114900000D02*
X170100000Y-114900000D01*
X169500000Y-114900000D02*
X168900000Y-114900000D01*
X156741541Y-67169819D02*
X157360588Y-67169819D01*
X157360588Y-67169819D02*
X157027255Y-67550771D01*
X157027255Y-67550771D02*
X157170112Y-67550771D01*
X157170112Y-67550771D02*
X157265350Y-67598390D01*
X157265350Y-67598390D02*
X157312969Y-67646009D01*
X157312969Y-67646009D02*
X157360588Y-67741247D01*
X157360588Y-67741247D02*
X157360588Y-67979342D01*
X157360588Y-67979342D02*
X157312969Y-68074580D01*
X157312969Y-68074580D02*
X157265350Y-68122200D01*
X157265350Y-68122200D02*
X157170112Y-68169819D01*
X157170112Y-68169819D02*
X156884398Y-68169819D01*
X156884398Y-68169819D02*
X156789160Y-68122200D01*
X156789160Y-68122200D02*
X156741541Y-68074580D01*
X157789160Y-68074580D02*
X157836779Y-68122200D01*
X157836779Y-68122200D02*
X157789160Y-68169819D01*
X157789160Y-68169819D02*
X157741541Y-68122200D01*
X157741541Y-68122200D02*
X157789160Y-68074580D01*
X157789160Y-68074580D02*
X157789160Y-68169819D01*
X158170112Y-67169819D02*
X158789159Y-67169819D01*
X158789159Y-67169819D02*
X158455826Y-67550771D01*
X158455826Y-67550771D02*
X158598683Y-67550771D01*
X158598683Y-67550771D02*
X158693921Y-67598390D01*
X158693921Y-67598390D02*
X158741540Y-67646009D01*
X158741540Y-67646009D02*
X158789159Y-67741247D01*
X158789159Y-67741247D02*
X158789159Y-67979342D01*
X158789159Y-67979342D02*
X158741540Y-68074580D01*
X158741540Y-68074580D02*
X158693921Y-68122200D01*
X158693921Y-68122200D02*
X158598683Y-68169819D01*
X158598683Y-68169819D02*
X158312969Y-68169819D01*
X158312969Y-68169819D02*
X158217731Y-68122200D01*
X158217731Y-68122200D02*
X158170112Y-68074580D01*
X151908207Y-68274580D02*
X151860588Y-68322200D01*
X151860588Y-68322200D02*
X151717731Y-68369819D01*
X151717731Y-68369819D02*
X151622493Y-68369819D01*
X151622493Y-68369819D02*
X151479636Y-68322200D01*
X151479636Y-68322200D02*
X151384398Y-68226961D01*
X151384398Y-68226961D02*
X151336779Y-68131723D01*
X151336779Y-68131723D02*
X151289160Y-67941247D01*
X151289160Y-67941247D02*
X151289160Y-67798390D01*
X151289160Y-67798390D02*
X151336779Y-67607914D01*
X151336779Y-67607914D02*
X151384398Y-67512676D01*
X151384398Y-67512676D02*
X151479636Y-67417438D01*
X151479636Y-67417438D02*
X151622493Y-67369819D01*
X151622493Y-67369819D02*
X151717731Y-67369819D01*
X151717731Y-67369819D02*
X151860588Y-67417438D01*
X151860588Y-67417438D02*
X151908207Y-67465057D01*
X152812969Y-68369819D02*
X152336779Y-68369819D01*
X152336779Y-68369819D02*
X152336779Y-67369819D01*
X153146303Y-68369819D02*
X153146303Y-67369819D01*
X153717731Y-68369819D02*
X153289160Y-67798390D01*
X153717731Y-67369819D02*
X153146303Y-67941247D01*
X156384398Y-114988200D02*
X157298684Y-114988200D01*
X156841541Y-115445342D02*
X156841541Y-114531057D01*
X169908207Y-68069819D02*
X169574874Y-67593628D01*
X169336779Y-68069819D02*
X169336779Y-67069819D01*
X169336779Y-67069819D02*
X169717731Y-67069819D01*
X169717731Y-67069819D02*
X169812969Y-67117438D01*
X169812969Y-67117438D02*
X169860588Y-67165057D01*
X169860588Y-67165057D02*
X169908207Y-67260295D01*
X169908207Y-67260295D02*
X169908207Y-67403152D01*
X169908207Y-67403152D02*
X169860588Y-67498390D01*
X169860588Y-67498390D02*
X169812969Y-67546009D01*
X169812969Y-67546009D02*
X169717731Y-67593628D01*
X169717731Y-67593628D02*
X169336779Y-67593628D01*
X170241541Y-68069819D02*
X170765350Y-67403152D01*
X170241541Y-67403152D02*
X170765350Y-68069819D01*
X148393922Y-114469819D02*
X148965350Y-114469819D01*
X148679636Y-115469819D02*
X148679636Y-114469819D01*
X149298684Y-115469819D02*
X149298684Y-114469819D01*
X149727255Y-115469819D02*
X149727255Y-114946009D01*
X149727255Y-114946009D02*
X149679636Y-114850771D01*
X149679636Y-114850771D02*
X149584398Y-114803152D01*
X149584398Y-114803152D02*
X149441541Y-114803152D01*
X149441541Y-114803152D02*
X149346303Y-114850771D01*
X149346303Y-114850771D02*
X149298684Y-114898390D01*
X150584398Y-115422200D02*
X150489160Y-115469819D01*
X150489160Y-115469819D02*
X150298684Y-115469819D01*
X150298684Y-115469819D02*
X150203446Y-115422200D01*
X150203446Y-115422200D02*
X150155827Y-115326961D01*
X150155827Y-115326961D02*
X150155827Y-114946009D01*
X150155827Y-114946009D02*
X150203446Y-114850771D01*
X150203446Y-114850771D02*
X150298684Y-114803152D01*
X150298684Y-114803152D02*
X150489160Y-114803152D01*
X150489160Y-114803152D02*
X150584398Y-114850771D01*
X150584398Y-114850771D02*
X150632017Y-114946009D01*
X150632017Y-114946009D02*
X150632017Y-115041247D01*
X150632017Y-115041247D02*
X150155827Y-115136485D01*
X151060589Y-115469819D02*
X151060589Y-114803152D01*
X151060589Y-114993628D02*
X151108208Y-114898390D01*
X151108208Y-114898390D02*
X151155827Y-114850771D01*
X151155827Y-114850771D02*
X151251065Y-114803152D01*
X151251065Y-114803152D02*
X151346303Y-114803152D01*
X151679637Y-115469819D02*
X151679637Y-114803152D01*
X151679637Y-114898390D02*
X151727256Y-114850771D01*
X151727256Y-114850771D02*
X151822494Y-114803152D01*
X151822494Y-114803152D02*
X151965351Y-114803152D01*
X151965351Y-114803152D02*
X152060589Y-114850771D01*
X152060589Y-114850771D02*
X152108208Y-114946009D01*
X152108208Y-114946009D02*
X152108208Y-115469819D01*
X152108208Y-114946009D02*
X152155827Y-114850771D01*
X152155827Y-114850771D02*
X152251065Y-114803152D01*
X152251065Y-114803152D02*
X152393922Y-114803152D01*
X152393922Y-114803152D02*
X152489161Y-114850771D01*
X152489161Y-114850771D02*
X152536780Y-114946009D01*
X152536780Y-114946009D02*
X152536780Y-115469819D01*
X153155827Y-115469819D02*
X153060589Y-115422200D01*
X153060589Y-115422200D02*
X153012970Y-115374580D01*
X153012970Y-115374580D02*
X152965351Y-115279342D01*
X152965351Y-115279342D02*
X152965351Y-114993628D01*
X152965351Y-114993628D02*
X153012970Y-114898390D01*
X153012970Y-114898390D02*
X153060589Y-114850771D01*
X153060589Y-114850771D02*
X153155827Y-114803152D01*
X153155827Y-114803152D02*
X153298684Y-114803152D01*
X153298684Y-114803152D02*
X153393922Y-114850771D01*
X153393922Y-114850771D02*
X153441541Y-114898390D01*
X153441541Y-114898390D02*
X153489160Y-114993628D01*
X153489160Y-114993628D02*
X153489160Y-115279342D01*
X153489160Y-115279342D02*
X153441541Y-115374580D01*
X153441541Y-115374580D02*
X153393922Y-115422200D01*
X153393922Y-115422200D02*
X153298684Y-115469819D01*
X153298684Y-115469819D02*
X153155827Y-115469819D01*
X162108207Y-115369819D02*
X161774874Y-114893628D01*
X161536779Y-115369819D02*
X161536779Y-114369819D01*
X161536779Y-114369819D02*
X161917731Y-114369819D01*
X161917731Y-114369819D02*
X162012969Y-114417438D01*
X162012969Y-114417438D02*
X162060588Y-114465057D01*
X162060588Y-114465057D02*
X162108207Y-114560295D01*
X162108207Y-114560295D02*
X162108207Y-114703152D01*
X162108207Y-114703152D02*
X162060588Y-114798390D01*
X162060588Y-114798390D02*
X162012969Y-114846009D01*
X162012969Y-114846009D02*
X161917731Y-114893628D01*
X161917731Y-114893628D02*
X161536779Y-114893628D01*
X162917731Y-115322200D02*
X162822493Y-115369819D01*
X162822493Y-115369819D02*
X162632017Y-115369819D01*
X162632017Y-115369819D02*
X162536779Y-115322200D01*
X162536779Y-115322200D02*
X162489160Y-115226961D01*
X162489160Y-115226961D02*
X162489160Y-114846009D01*
X162489160Y-114846009D02*
X162536779Y-114750771D01*
X162536779Y-114750771D02*
X162632017Y-114703152D01*
X162632017Y-114703152D02*
X162822493Y-114703152D01*
X162822493Y-114703152D02*
X162917731Y-114750771D01*
X162917731Y-114750771D02*
X162965350Y-114846009D01*
X162965350Y-114846009D02*
X162965350Y-114941247D01*
X162965350Y-114941247D02*
X162489160Y-115036485D01*
X163536779Y-115369819D02*
X163441541Y-115322200D01*
X163441541Y-115322200D02*
X163393922Y-115226961D01*
X163393922Y-115226961D02*
X163393922Y-114369819D01*
X164346303Y-115369819D02*
X164346303Y-114846009D01*
X164346303Y-114846009D02*
X164298684Y-114750771D01*
X164298684Y-114750771D02*
X164203446Y-114703152D01*
X164203446Y-114703152D02*
X164012970Y-114703152D01*
X164012970Y-114703152D02*
X163917732Y-114750771D01*
X164346303Y-115322200D02*
X164251065Y-115369819D01*
X164251065Y-115369819D02*
X164012970Y-115369819D01*
X164012970Y-115369819D02*
X163917732Y-115322200D01*
X163917732Y-115322200D02*
X163870113Y-115226961D01*
X163870113Y-115226961D02*
X163870113Y-115131723D01*
X163870113Y-115131723D02*
X163917732Y-115036485D01*
X163917732Y-115036485D02*
X164012970Y-114988866D01*
X164012970Y-114988866D02*
X164251065Y-114988866D01*
X164251065Y-114988866D02*
X164346303Y-114941247D01*
X164727256Y-114703152D02*
X164965351Y-115369819D01*
X165203446Y-114703152D02*
X164965351Y-115369819D01*
X164965351Y-115369819D02*
X164870113Y-115607914D01*
X164870113Y-115607914D02*
X164822494Y-115655533D01*
X164822494Y-115655533D02*
X164727256Y-115703152D01*
X166443922Y-67069819D02*
X167015350Y-67069819D01*
X166729636Y-68069819D02*
X166729636Y-67069819D01*
X167253446Y-68069819D02*
X167777255Y-67403152D01*
X167253446Y-67403152D02*
X167777255Y-68069819D01*
X154736779Y-68369819D02*
X154736779Y-67369819D01*
X155403445Y-67369819D02*
X155593921Y-67369819D01*
X155593921Y-67369819D02*
X155689159Y-67417438D01*
X155689159Y-67417438D02*
X155784397Y-67512676D01*
X155784397Y-67512676D02*
X155832016Y-67703152D01*
X155832016Y-67703152D02*
X155832016Y-68036485D01*
X155832016Y-68036485D02*
X155784397Y-68226961D01*
X155784397Y-68226961D02*
X155689159Y-68322200D01*
X155689159Y-68322200D02*
X155593921Y-68369819D01*
X155593921Y-68369819D02*
X155403445Y-68369819D01*
X155403445Y-68369819D02*
X155308207Y-68322200D01*
X155308207Y-68322200D02*
X155212969Y-68226961D01*
X155212969Y-68226961D02*
X155165350Y-68036485D01*
X155165350Y-68036485D02*
X155165350Y-67703152D01*
X155165350Y-67703152D02*
X155212969Y-67512676D01*
X155212969Y-67512676D02*
X155308207Y-67417438D01*
X155308207Y-67417438D02*
X155403445Y-67369819D01*
X165012969Y-67069819D02*
X164536779Y-67069819D01*
X164536779Y-67069819D02*
X164489160Y-67546009D01*
X164489160Y-67546009D02*
X164536779Y-67498390D01*
X164536779Y-67498390D02*
X164632017Y-67450771D01*
X164632017Y-67450771D02*
X164870112Y-67450771D01*
X164870112Y-67450771D02*
X164965350Y-67498390D01*
X164965350Y-67498390D02*
X165012969Y-67546009D01*
X165012969Y-67546009D02*
X165060588Y-67641247D01*
X165060588Y-67641247D02*
X165060588Y-67879342D01*
X165060588Y-67879342D02*
X165012969Y-67974580D01*
X165012969Y-67974580D02*
X164965350Y-68022200D01*
X164965350Y-68022200D02*
X164870112Y-68069819D01*
X164870112Y-68069819D02*
X164632017Y-68069819D01*
X164632017Y-68069819D02*
X164536779Y-68022200D01*
X164536779Y-68022200D02*
X164489160Y-67974580D01*
X167293333Y-110545180D02*
X167293333Y-109830895D01*
X167293333Y-109830895D02*
X167340952Y-109688038D01*
X167340952Y-109688038D02*
X167436190Y-109592800D01*
X167436190Y-109592800D02*
X167579047Y-109545180D01*
X167579047Y-109545180D02*
X167674285Y-109545180D01*
X166388571Y-110545180D02*
X166579047Y-110545180D01*
X166579047Y-110545180D02*
X166674285Y-110497561D01*
X166674285Y-110497561D02*
X166721904Y-110449942D01*
X166721904Y-110449942D02*
X166817142Y-110307085D01*
X166817142Y-110307085D02*
X166864761Y-110116609D01*
X166864761Y-110116609D02*
X166864761Y-109735657D01*
X166864761Y-109735657D02*
X166817142Y-109640419D01*
X166817142Y-109640419D02*
X166769523Y-109592800D01*
X166769523Y-109592800D02*
X166674285Y-109545180D01*
X166674285Y-109545180D02*
X166483809Y-109545180D01*
X166483809Y-109545180D02*
X166388571Y-109592800D01*
X166388571Y-109592800D02*
X166340952Y-109640419D01*
X166340952Y-109640419D02*
X166293333Y-109735657D01*
X166293333Y-109735657D02*
X166293333Y-109973752D01*
X166293333Y-109973752D02*
X166340952Y-110068990D01*
X166340952Y-110068990D02*
X166388571Y-110116609D01*
X166388571Y-110116609D02*
X166483809Y-110164228D01*
X166483809Y-110164228D02*
X166674285Y-110164228D01*
X166674285Y-110164228D02*
X166769523Y-110116609D01*
X166769523Y-110116609D02*
X166817142Y-110068990D01*
X166817142Y-110068990D02*
X166864761Y-109973752D01*
X154493333Y-110545180D02*
X154493333Y-109830895D01*
X154493333Y-109830895D02*
X154540952Y-109688038D01*
X154540952Y-109688038D02*
X154636190Y-109592800D01*
X154636190Y-109592800D02*
X154779047Y-109545180D01*
X154779047Y-109545180D02*
X154874285Y-109545180D01*
X153540952Y-110545180D02*
X154017142Y-110545180D01*
X154017142Y-110545180D02*
X154064761Y-110068990D01*
X154064761Y-110068990D02*
X154017142Y-110116609D01*
X154017142Y-110116609D02*
X153921904Y-110164228D01*
X153921904Y-110164228D02*
X153683809Y-110164228D01*
X153683809Y-110164228D02*
X153588571Y-110116609D01*
X153588571Y-110116609D02*
X153540952Y-110068990D01*
X153540952Y-110068990D02*
X153493333Y-109973752D01*
X153493333Y-109973752D02*
X153493333Y-109735657D01*
X153493333Y-109735657D02*
X153540952Y-109640419D01*
X153540952Y-109640419D02*
X153588571Y-109592800D01*
X153588571Y-109592800D02*
X153683809Y-109545180D01*
X153683809Y-109545180D02*
X153921904Y-109545180D01*
X153921904Y-109545180D02*
X154017142Y-109592800D01*
X154017142Y-109592800D02*
X154064761Y-109640419D01*
X172366666Y-69804819D02*
X172366666Y-70519104D01*
X172366666Y-70519104D02*
X172319047Y-70661961D01*
X172319047Y-70661961D02*
X172223809Y-70757200D01*
X172223809Y-70757200D02*
X172080952Y-70804819D01*
X172080952Y-70804819D02*
X171985714Y-70804819D01*
X173271428Y-70138152D02*
X173271428Y-70804819D01*
X173033333Y-69757200D02*
X172795238Y-70471485D01*
X172795238Y-70471485D02*
X173414285Y-70471485D01*
X167788095Y-84854819D02*
X167788095Y-85664342D01*
X167788095Y-85664342D02*
X167835714Y-85759580D01*
X167835714Y-85759580D02*
X167883333Y-85807200D01*
X167883333Y-85807200D02*
X167978571Y-85854819D01*
X167978571Y-85854819D02*
X168169047Y-85854819D01*
X168169047Y-85854819D02*
X168264285Y-85807200D01*
X168264285Y-85807200D02*
X168311904Y-85759580D01*
X168311904Y-85759580D02*
X168359523Y-85664342D01*
X168359523Y-85664342D02*
X168359523Y-84854819D01*
X168788095Y-84950057D02*
X168835714Y-84902438D01*
X168835714Y-84902438D02*
X168930952Y-84854819D01*
X168930952Y-84854819D02*
X169169047Y-84854819D01*
X169169047Y-84854819D02*
X169264285Y-84902438D01*
X169264285Y-84902438D02*
X169311904Y-84950057D01*
X169311904Y-84950057D02*
X169359523Y-85045295D01*
X169359523Y-85045295D02*
X169359523Y-85140533D01*
X169359523Y-85140533D02*
X169311904Y-85283390D01*
X169311904Y-85283390D02*
X168740476Y-85854819D01*
X168740476Y-85854819D02*
X169359523Y-85854819D01*
X174033333Y-78854819D02*
X173700000Y-78378628D01*
X173461905Y-78854819D02*
X173461905Y-77854819D01*
X173461905Y-77854819D02*
X173842857Y-77854819D01*
X173842857Y-77854819D02*
X173938095Y-77902438D01*
X173938095Y-77902438D02*
X173985714Y-77950057D01*
X173985714Y-77950057D02*
X174033333Y-78045295D01*
X174033333Y-78045295D02*
X174033333Y-78188152D01*
X174033333Y-78188152D02*
X173985714Y-78283390D01*
X173985714Y-78283390D02*
X173938095Y-78331009D01*
X173938095Y-78331009D02*
X173842857Y-78378628D01*
X173842857Y-78378628D02*
X173461905Y-78378628D01*
X174938095Y-77854819D02*
X174461905Y-77854819D01*
X174461905Y-77854819D02*
X174414286Y-78331009D01*
X174414286Y-78331009D02*
X174461905Y-78283390D01*
X174461905Y-78283390D02*
X174557143Y-78235771D01*
X174557143Y-78235771D02*
X174795238Y-78235771D01*
X174795238Y-78235771D02*
X174890476Y-78283390D01*
X174890476Y-78283390D02*
X174938095Y-78331009D01*
X174938095Y-78331009D02*
X174985714Y-78426247D01*
X174985714Y-78426247D02*
X174985714Y-78664342D01*
X174985714Y-78664342D02*
X174938095Y-78759580D01*
X174938095Y-78759580D02*
X174890476Y-78807200D01*
X174890476Y-78807200D02*
X174795238Y-78854819D01*
X174795238Y-78854819D02*
X174557143Y-78854819D01*
X174557143Y-78854819D02*
X174461905Y-78807200D01*
X174461905Y-78807200D02*
X174414286Y-78759580D01*
X178061905Y-100904819D02*
X178061905Y-99904819D01*
X178061905Y-99904819D02*
X178300000Y-99904819D01*
X178300000Y-99904819D02*
X178442857Y-99952438D01*
X178442857Y-99952438D02*
X178538095Y-100047676D01*
X178538095Y-100047676D02*
X178585714Y-100142914D01*
X178585714Y-100142914D02*
X178633333Y-100333390D01*
X178633333Y-100333390D02*
X178633333Y-100476247D01*
X178633333Y-100476247D02*
X178585714Y-100666723D01*
X178585714Y-100666723D02*
X178538095Y-100761961D01*
X178538095Y-100761961D02*
X178442857Y-100857200D01*
X178442857Y-100857200D02*
X178300000Y-100904819D01*
X178300000Y-100904819D02*
X178061905Y-100904819D01*
X179014286Y-100000057D02*
X179061905Y-99952438D01*
X179061905Y-99952438D02*
X179157143Y-99904819D01*
X179157143Y-99904819D02*
X179395238Y-99904819D01*
X179395238Y-99904819D02*
X179490476Y-99952438D01*
X179490476Y-99952438D02*
X179538095Y-100000057D01*
X179538095Y-100000057D02*
X179585714Y-100095295D01*
X179585714Y-100095295D02*
X179585714Y-100190533D01*
X179585714Y-100190533D02*
X179538095Y-100333390D01*
X179538095Y-100333390D02*
X178966667Y-100904819D01*
X178966667Y-100904819D02*
X179585714Y-100904819D01*
X179254819Y-107066666D02*
X178778628Y-107399999D01*
X179254819Y-107638094D02*
X178254819Y-107638094D01*
X178254819Y-107638094D02*
X178254819Y-107257142D01*
X178254819Y-107257142D02*
X178302438Y-107161904D01*
X178302438Y-107161904D02*
X178350057Y-107114285D01*
X178350057Y-107114285D02*
X178445295Y-107066666D01*
X178445295Y-107066666D02*
X178588152Y-107066666D01*
X178588152Y-107066666D02*
X178683390Y-107114285D01*
X178683390Y-107114285D02*
X178731009Y-107161904D01*
X178731009Y-107161904D02*
X178778628Y-107257142D01*
X178778628Y-107257142D02*
X178778628Y-107638094D01*
X178254819Y-106209523D02*
X178254819Y-106399999D01*
X178254819Y-106399999D02*
X178302438Y-106495237D01*
X178302438Y-106495237D02*
X178350057Y-106542856D01*
X178350057Y-106542856D02*
X178492914Y-106638094D01*
X178492914Y-106638094D02*
X178683390Y-106685713D01*
X178683390Y-106685713D02*
X179064342Y-106685713D01*
X179064342Y-106685713D02*
X179159580Y-106638094D01*
X179159580Y-106638094D02*
X179207200Y-106590475D01*
X179207200Y-106590475D02*
X179254819Y-106495237D01*
X179254819Y-106495237D02*
X179254819Y-106304761D01*
X179254819Y-106304761D02*
X179207200Y-106209523D01*
X179207200Y-106209523D02*
X179159580Y-106161904D01*
X179159580Y-106161904D02*
X179064342Y-106114285D01*
X179064342Y-106114285D02*
X178826247Y-106114285D01*
X178826247Y-106114285D02*
X178731009Y-106161904D01*
X178731009Y-106161904D02*
X178683390Y-106209523D01*
X178683390Y-106209523D02*
X178635771Y-106304761D01*
X178635771Y-106304761D02*
X178635771Y-106495237D01*
X178635771Y-106495237D02*
X178683390Y-106590475D01*
X178683390Y-106590475D02*
X178731009Y-106638094D01*
X178731009Y-106638094D02*
X178826247Y-106685713D01*
X172833333Y-104159580D02*
X172785714Y-104207200D01*
X172785714Y-104207200D02*
X172642857Y-104254819D01*
X172642857Y-104254819D02*
X172547619Y-104254819D01*
X172547619Y-104254819D02*
X172404762Y-104207200D01*
X172404762Y-104207200D02*
X172309524Y-104111961D01*
X172309524Y-104111961D02*
X172261905Y-104016723D01*
X172261905Y-104016723D02*
X172214286Y-103826247D01*
X172214286Y-103826247D02*
X172214286Y-103683390D01*
X172214286Y-103683390D02*
X172261905Y-103492914D01*
X172261905Y-103492914D02*
X172309524Y-103397676D01*
X172309524Y-103397676D02*
X172404762Y-103302438D01*
X172404762Y-103302438D02*
X172547619Y-103254819D01*
X172547619Y-103254819D02*
X172642857Y-103254819D01*
X172642857Y-103254819D02*
X172785714Y-103302438D01*
X172785714Y-103302438D02*
X172833333Y-103350057D01*
X173690476Y-103254819D02*
X173500000Y-103254819D01*
X173500000Y-103254819D02*
X173404762Y-103302438D01*
X173404762Y-103302438D02*
X173357143Y-103350057D01*
X173357143Y-103350057D02*
X173261905Y-103492914D01*
X173261905Y-103492914D02*
X173214286Y-103683390D01*
X173214286Y-103683390D02*
X173214286Y-104064342D01*
X173214286Y-104064342D02*
X173261905Y-104159580D01*
X173261905Y-104159580D02*
X173309524Y-104207200D01*
X173309524Y-104207200D02*
X173404762Y-104254819D01*
X173404762Y-104254819D02*
X173595238Y-104254819D01*
X173595238Y-104254819D02*
X173690476Y-104207200D01*
X173690476Y-104207200D02*
X173738095Y-104159580D01*
X173738095Y-104159580D02*
X173785714Y-104064342D01*
X173785714Y-104064342D02*
X173785714Y-103826247D01*
X173785714Y-103826247D02*
X173738095Y-103731009D01*
X173738095Y-103731009D02*
X173690476Y-103683390D01*
X173690476Y-103683390D02*
X173595238Y-103635771D01*
X173595238Y-103635771D02*
X173404762Y-103635771D01*
X173404762Y-103635771D02*
X173309524Y-103683390D01*
X173309524Y-103683390D02*
X173261905Y-103731009D01*
X173261905Y-103731009D02*
X173214286Y-103826247D01*
X142933333Y-89459580D02*
X142885714Y-89507200D01*
X142885714Y-89507200D02*
X142742857Y-89554819D01*
X142742857Y-89554819D02*
X142647619Y-89554819D01*
X142647619Y-89554819D02*
X142504762Y-89507200D01*
X142504762Y-89507200D02*
X142409524Y-89411961D01*
X142409524Y-89411961D02*
X142361905Y-89316723D01*
X142361905Y-89316723D02*
X142314286Y-89126247D01*
X142314286Y-89126247D02*
X142314286Y-88983390D01*
X142314286Y-88983390D02*
X142361905Y-88792914D01*
X142361905Y-88792914D02*
X142409524Y-88697676D01*
X142409524Y-88697676D02*
X142504762Y-88602438D01*
X142504762Y-88602438D02*
X142647619Y-88554819D01*
X142647619Y-88554819D02*
X142742857Y-88554819D01*
X142742857Y-88554819D02*
X142885714Y-88602438D01*
X142885714Y-88602438D02*
X142933333Y-88650057D01*
X143504762Y-88983390D02*
X143409524Y-88935771D01*
X143409524Y-88935771D02*
X143361905Y-88888152D01*
X143361905Y-88888152D02*
X143314286Y-88792914D01*
X143314286Y-88792914D02*
X143314286Y-88745295D01*
X143314286Y-88745295D02*
X143361905Y-88650057D01*
X143361905Y-88650057D02*
X143409524Y-88602438D01*
X143409524Y-88602438D02*
X143504762Y-88554819D01*
X143504762Y-88554819D02*
X143695238Y-88554819D01*
X143695238Y-88554819D02*
X143790476Y-88602438D01*
X143790476Y-88602438D02*
X143838095Y-88650057D01*
X143838095Y-88650057D02*
X143885714Y-88745295D01*
X143885714Y-88745295D02*
X143885714Y-88792914D01*
X143885714Y-88792914D02*
X143838095Y-88888152D01*
X143838095Y-88888152D02*
X143790476Y-88935771D01*
X143790476Y-88935771D02*
X143695238Y-88983390D01*
X143695238Y-88983390D02*
X143504762Y-88983390D01*
X143504762Y-88983390D02*
X143409524Y-89031009D01*
X143409524Y-89031009D02*
X143361905Y-89078628D01*
X143361905Y-89078628D02*
X143314286Y-89173866D01*
X143314286Y-89173866D02*
X143314286Y-89364342D01*
X143314286Y-89364342D02*
X143361905Y-89459580D01*
X143361905Y-89459580D02*
X143409524Y-89507200D01*
X143409524Y-89507200D02*
X143504762Y-89554819D01*
X143504762Y-89554819D02*
X143695238Y-89554819D01*
X143695238Y-89554819D02*
X143790476Y-89507200D01*
X143790476Y-89507200D02*
X143838095Y-89459580D01*
X143838095Y-89459580D02*
X143885714Y-89364342D01*
X143885714Y-89364342D02*
X143885714Y-89173866D01*
X143885714Y-89173866D02*
X143838095Y-89078628D01*
X143838095Y-89078628D02*
X143790476Y-89031009D01*
X143790476Y-89031009D02*
X143695238Y-88983390D01*
X164159580Y-90666666D02*
X164207200Y-90714285D01*
X164207200Y-90714285D02*
X164254819Y-90857142D01*
X164254819Y-90857142D02*
X164254819Y-90952380D01*
X164254819Y-90952380D02*
X164207200Y-91095237D01*
X164207200Y-91095237D02*
X164111961Y-91190475D01*
X164111961Y-91190475D02*
X164016723Y-91238094D01*
X164016723Y-91238094D02*
X163826247Y-91285713D01*
X163826247Y-91285713D02*
X163683390Y-91285713D01*
X163683390Y-91285713D02*
X163492914Y-91238094D01*
X163492914Y-91238094D02*
X163397676Y-91190475D01*
X163397676Y-91190475D02*
X163302438Y-91095237D01*
X163302438Y-91095237D02*
X163254819Y-90952380D01*
X163254819Y-90952380D02*
X163254819Y-90857142D01*
X163254819Y-90857142D02*
X163302438Y-90714285D01*
X163302438Y-90714285D02*
X163350057Y-90666666D01*
X163254819Y-90333332D02*
X163254819Y-89714285D01*
X163254819Y-89714285D02*
X163635771Y-90047618D01*
X163635771Y-90047618D02*
X163635771Y-89904761D01*
X163635771Y-89904761D02*
X163683390Y-89809523D01*
X163683390Y-89809523D02*
X163731009Y-89761904D01*
X163731009Y-89761904D02*
X163826247Y-89714285D01*
X163826247Y-89714285D02*
X164064342Y-89714285D01*
X164064342Y-89714285D02*
X164159580Y-89761904D01*
X164159580Y-89761904D02*
X164207200Y-89809523D01*
X164207200Y-89809523D02*
X164254819Y-89904761D01*
X164254819Y-89904761D02*
X164254819Y-90190475D01*
X164254819Y-90190475D02*
X164207200Y-90285713D01*
X164207200Y-90285713D02*
X164159580Y-90333332D01*
X175059580Y-98142857D02*
X175107200Y-98190476D01*
X175107200Y-98190476D02*
X175154819Y-98333333D01*
X175154819Y-98333333D02*
X175154819Y-98428571D01*
X175154819Y-98428571D02*
X175107200Y-98571428D01*
X175107200Y-98571428D02*
X175011961Y-98666666D01*
X175011961Y-98666666D02*
X174916723Y-98714285D01*
X174916723Y-98714285D02*
X174726247Y-98761904D01*
X174726247Y-98761904D02*
X174583390Y-98761904D01*
X174583390Y-98761904D02*
X174392914Y-98714285D01*
X174392914Y-98714285D02*
X174297676Y-98666666D01*
X174297676Y-98666666D02*
X174202438Y-98571428D01*
X174202438Y-98571428D02*
X174154819Y-98428571D01*
X174154819Y-98428571D02*
X174154819Y-98333333D01*
X174154819Y-98333333D02*
X174202438Y-98190476D01*
X174202438Y-98190476D02*
X174250057Y-98142857D01*
X175154819Y-97190476D02*
X175154819Y-97761904D01*
X175154819Y-97476190D02*
X174154819Y-97476190D01*
X174154819Y-97476190D02*
X174297676Y-97571428D01*
X174297676Y-97571428D02*
X174392914Y-97666666D01*
X174392914Y-97666666D02*
X174440533Y-97761904D01*
X174154819Y-96333333D02*
X174154819Y-96523809D01*
X174154819Y-96523809D02*
X174202438Y-96619047D01*
X174202438Y-96619047D02*
X174250057Y-96666666D01*
X174250057Y-96666666D02*
X174392914Y-96761904D01*
X174392914Y-96761904D02*
X174583390Y-96809523D01*
X174583390Y-96809523D02*
X174964342Y-96809523D01*
X174964342Y-96809523D02*
X175059580Y-96761904D01*
X175059580Y-96761904D02*
X175107200Y-96714285D01*
X175107200Y-96714285D02*
X175154819Y-96619047D01*
X175154819Y-96619047D02*
X175154819Y-96428571D01*
X175154819Y-96428571D02*
X175107200Y-96333333D01*
X175107200Y-96333333D02*
X175059580Y-96285714D01*
X175059580Y-96285714D02*
X174964342Y-96238095D01*
X174964342Y-96238095D02*
X174726247Y-96238095D01*
X174726247Y-96238095D02*
X174631009Y-96285714D01*
X174631009Y-96285714D02*
X174583390Y-96333333D01*
X174583390Y-96333333D02*
X174535771Y-96428571D01*
X174535771Y-96428571D02*
X174535771Y-96619047D01*
X174535771Y-96619047D02*
X174583390Y-96714285D01*
X174583390Y-96714285D02*
X174631009Y-96761904D01*
X174631009Y-96761904D02*
X174726247Y-96809523D01*
X153863333Y-86499580D02*
X153815714Y-86547200D01*
X153815714Y-86547200D02*
X153672857Y-86594819D01*
X153672857Y-86594819D02*
X153577619Y-86594819D01*
X153577619Y-86594819D02*
X153434762Y-86547200D01*
X153434762Y-86547200D02*
X153339524Y-86451961D01*
X153339524Y-86451961D02*
X153291905Y-86356723D01*
X153291905Y-86356723D02*
X153244286Y-86166247D01*
X153244286Y-86166247D02*
X153244286Y-86023390D01*
X153244286Y-86023390D02*
X153291905Y-85832914D01*
X153291905Y-85832914D02*
X153339524Y-85737676D01*
X153339524Y-85737676D02*
X153434762Y-85642438D01*
X153434762Y-85642438D02*
X153577619Y-85594819D01*
X153577619Y-85594819D02*
X153672857Y-85594819D01*
X153672857Y-85594819D02*
X153815714Y-85642438D01*
X153815714Y-85642438D02*
X153863333Y-85690057D01*
X154720476Y-85928152D02*
X154720476Y-86594819D01*
X154482381Y-85547200D02*
X154244286Y-86261485D01*
X154244286Y-86261485D02*
X154863333Y-86261485D01*
X151609580Y-96016666D02*
X151657200Y-96064285D01*
X151657200Y-96064285D02*
X151704819Y-96207142D01*
X151704819Y-96207142D02*
X151704819Y-96302380D01*
X151704819Y-96302380D02*
X151657200Y-96445237D01*
X151657200Y-96445237D02*
X151561961Y-96540475D01*
X151561961Y-96540475D02*
X151466723Y-96588094D01*
X151466723Y-96588094D02*
X151276247Y-96635713D01*
X151276247Y-96635713D02*
X151133390Y-96635713D01*
X151133390Y-96635713D02*
X150942914Y-96588094D01*
X150942914Y-96588094D02*
X150847676Y-96540475D01*
X150847676Y-96540475D02*
X150752438Y-96445237D01*
X150752438Y-96445237D02*
X150704819Y-96302380D01*
X150704819Y-96302380D02*
X150704819Y-96207142D01*
X150704819Y-96207142D02*
X150752438Y-96064285D01*
X150752438Y-96064285D02*
X150800057Y-96016666D01*
X151704819Y-95064285D02*
X151704819Y-95635713D01*
X151704819Y-95349999D02*
X150704819Y-95349999D01*
X150704819Y-95349999D02*
X150847676Y-95445237D01*
X150847676Y-95445237D02*
X150942914Y-95540475D01*
X150942914Y-95540475D02*
X150990533Y-95635713D01*
X148033333Y-90659580D02*
X147985714Y-90707200D01*
X147985714Y-90707200D02*
X147842857Y-90754819D01*
X147842857Y-90754819D02*
X147747619Y-90754819D01*
X147747619Y-90754819D02*
X147604762Y-90707200D01*
X147604762Y-90707200D02*
X147509524Y-90611961D01*
X147509524Y-90611961D02*
X147461905Y-90516723D01*
X147461905Y-90516723D02*
X147414286Y-90326247D01*
X147414286Y-90326247D02*
X147414286Y-90183390D01*
X147414286Y-90183390D02*
X147461905Y-89992914D01*
X147461905Y-89992914D02*
X147509524Y-89897676D01*
X147509524Y-89897676D02*
X147604762Y-89802438D01*
X147604762Y-89802438D02*
X147747619Y-89754819D01*
X147747619Y-89754819D02*
X147842857Y-89754819D01*
X147842857Y-89754819D02*
X147985714Y-89802438D01*
X147985714Y-89802438D02*
X148033333Y-89850057D01*
X148366667Y-89754819D02*
X149033333Y-89754819D01*
X149033333Y-89754819D02*
X148604762Y-90754819D01*
X166688095Y-98054819D02*
X166688095Y-98864342D01*
X166688095Y-98864342D02*
X166735714Y-98959580D01*
X166735714Y-98959580D02*
X166783333Y-99007200D01*
X166783333Y-99007200D02*
X166878571Y-99054819D01*
X166878571Y-99054819D02*
X167069047Y-99054819D01*
X167069047Y-99054819D02*
X167164285Y-99007200D01*
X167164285Y-99007200D02*
X167211904Y-98959580D01*
X167211904Y-98959580D02*
X167259523Y-98864342D01*
X167259523Y-98864342D02*
X167259523Y-98054819D01*
X167640476Y-98054819D02*
X168259523Y-98054819D01*
X168259523Y-98054819D02*
X167926190Y-98435771D01*
X167926190Y-98435771D02*
X168069047Y-98435771D01*
X168069047Y-98435771D02*
X168164285Y-98483390D01*
X168164285Y-98483390D02*
X168211904Y-98531009D01*
X168211904Y-98531009D02*
X168259523Y-98626247D01*
X168259523Y-98626247D02*
X168259523Y-98864342D01*
X168259523Y-98864342D02*
X168211904Y-98959580D01*
X168211904Y-98959580D02*
X168164285Y-99007200D01*
X168164285Y-99007200D02*
X168069047Y-99054819D01*
X168069047Y-99054819D02*
X167783333Y-99054819D01*
X167783333Y-99054819D02*
X167688095Y-99007200D01*
X167688095Y-99007200D02*
X167640476Y-98959580D01*
X157133333Y-80954819D02*
X156800000Y-80478628D01*
X156561905Y-80954819D02*
X156561905Y-79954819D01*
X156561905Y-79954819D02*
X156942857Y-79954819D01*
X156942857Y-79954819D02*
X157038095Y-80002438D01*
X157038095Y-80002438D02*
X157085714Y-80050057D01*
X157085714Y-80050057D02*
X157133333Y-80145295D01*
X157133333Y-80145295D02*
X157133333Y-80288152D01*
X157133333Y-80288152D02*
X157085714Y-80383390D01*
X157085714Y-80383390D02*
X157038095Y-80431009D01*
X157038095Y-80431009D02*
X156942857Y-80478628D01*
X156942857Y-80478628D02*
X156561905Y-80478628D01*
X158085714Y-80954819D02*
X157514286Y-80954819D01*
X157800000Y-80954819D02*
X157800000Y-79954819D01*
X157800000Y-79954819D02*
X157704762Y-80097676D01*
X157704762Y-80097676D02*
X157609524Y-80192914D01*
X157609524Y-80192914D02*
X157514286Y-80240533D01*
X143424819Y-108166666D02*
X142948628Y-108499999D01*
X143424819Y-108738094D02*
X142424819Y-108738094D01*
X142424819Y-108738094D02*
X142424819Y-108357142D01*
X142424819Y-108357142D02*
X142472438Y-108261904D01*
X142472438Y-108261904D02*
X142520057Y-108214285D01*
X142520057Y-108214285D02*
X142615295Y-108166666D01*
X142615295Y-108166666D02*
X142758152Y-108166666D01*
X142758152Y-108166666D02*
X142853390Y-108214285D01*
X142853390Y-108214285D02*
X142901009Y-108261904D01*
X142901009Y-108261904D02*
X142948628Y-108357142D01*
X142948628Y-108357142D02*
X142948628Y-108738094D01*
X142424819Y-107833332D02*
X142424819Y-107166666D01*
X142424819Y-107166666D02*
X143424819Y-107595237D01*
X173854819Y-89733333D02*
X174569104Y-89733333D01*
X174569104Y-89733333D02*
X174711961Y-89780952D01*
X174711961Y-89780952D02*
X174807200Y-89876190D01*
X174807200Y-89876190D02*
X174854819Y-90019047D01*
X174854819Y-90019047D02*
X174854819Y-90114285D01*
X174854819Y-88733333D02*
X174854819Y-89304761D01*
X174854819Y-89019047D02*
X173854819Y-89019047D01*
X173854819Y-89019047D02*
X173997676Y-89114285D01*
X173997676Y-89114285D02*
X174092914Y-89209523D01*
X174092914Y-89209523D02*
X174140533Y-89304761D01*
X143988095Y-104304819D02*
X143988095Y-105114342D01*
X143988095Y-105114342D02*
X144035714Y-105209580D01*
X144035714Y-105209580D02*
X144083333Y-105257200D01*
X144083333Y-105257200D02*
X144178571Y-105304819D01*
X144178571Y-105304819D02*
X144369047Y-105304819D01*
X144369047Y-105304819D02*
X144464285Y-105257200D01*
X144464285Y-105257200D02*
X144511904Y-105209580D01*
X144511904Y-105209580D02*
X144559523Y-105114342D01*
X144559523Y-105114342D02*
X144559523Y-104304819D01*
X145464285Y-104638152D02*
X145464285Y-105304819D01*
X145226190Y-104257200D02*
X144988095Y-104971485D01*
X144988095Y-104971485D02*
X145607142Y-104971485D01*
X146866666Y-69804819D02*
X146866666Y-70519104D01*
X146866666Y-70519104D02*
X146819047Y-70661961D01*
X146819047Y-70661961D02*
X146723809Y-70757200D01*
X146723809Y-70757200D02*
X146580952Y-70804819D01*
X146580952Y-70804819D02*
X146485714Y-70804819D01*
X147295238Y-69900057D02*
X147342857Y-69852438D01*
X147342857Y-69852438D02*
X147438095Y-69804819D01*
X147438095Y-69804819D02*
X147676190Y-69804819D01*
X147676190Y-69804819D02*
X147771428Y-69852438D01*
X147771428Y-69852438D02*
X147819047Y-69900057D01*
X147819047Y-69900057D02*
X147866666Y-69995295D01*
X147866666Y-69995295D02*
X147866666Y-70090533D01*
X147866666Y-70090533D02*
X147819047Y-70233390D01*
X147819047Y-70233390D02*
X147247619Y-70804819D01*
X147247619Y-70804819D02*
X147866666Y-70804819D01*
X147866667Y-79507200D02*
X148009524Y-79554819D01*
X148009524Y-79554819D02*
X148247619Y-79554819D01*
X148247619Y-79554819D02*
X148342857Y-79507200D01*
X148342857Y-79507200D02*
X148390476Y-79459580D01*
X148390476Y-79459580D02*
X148438095Y-79364342D01*
X148438095Y-79364342D02*
X148438095Y-79269104D01*
X148438095Y-79269104D02*
X148390476Y-79173866D01*
X148390476Y-79173866D02*
X148342857Y-79126247D01*
X148342857Y-79126247D02*
X148247619Y-79078628D01*
X148247619Y-79078628D02*
X148057143Y-79031009D01*
X148057143Y-79031009D02*
X147961905Y-78983390D01*
X147961905Y-78983390D02*
X147914286Y-78935771D01*
X147914286Y-78935771D02*
X147866667Y-78840533D01*
X147866667Y-78840533D02*
X147866667Y-78745295D01*
X147866667Y-78745295D02*
X147914286Y-78650057D01*
X147914286Y-78650057D02*
X147961905Y-78602438D01*
X147961905Y-78602438D02*
X148057143Y-78554819D01*
X148057143Y-78554819D02*
X148295238Y-78554819D01*
X148295238Y-78554819D02*
X148438095Y-78602438D01*
X148771429Y-78554819D02*
X149009524Y-79554819D01*
X149009524Y-79554819D02*
X149200000Y-78840533D01*
X149200000Y-78840533D02*
X149390476Y-79554819D01*
X149390476Y-79554819D02*
X149628572Y-78554819D01*
X149961905Y-78650057D02*
X150009524Y-78602438D01*
X150009524Y-78602438D02*
X150104762Y-78554819D01*
X150104762Y-78554819D02*
X150342857Y-78554819D01*
X150342857Y-78554819D02*
X150438095Y-78602438D01*
X150438095Y-78602438D02*
X150485714Y-78650057D01*
X150485714Y-78650057D02*
X150533333Y-78745295D01*
X150533333Y-78745295D02*
X150533333Y-78840533D01*
X150533333Y-78840533D02*
X150485714Y-78983390D01*
X150485714Y-78983390D02*
X149914286Y-79554819D01*
X149914286Y-79554819D02*
X150533333Y-79554819D01*
X178633333Y-102754819D02*
X178300000Y-102278628D01*
X178061905Y-102754819D02*
X178061905Y-101754819D01*
X178061905Y-101754819D02*
X178442857Y-101754819D01*
X178442857Y-101754819D02*
X178538095Y-101802438D01*
X178538095Y-101802438D02*
X178585714Y-101850057D01*
X178585714Y-101850057D02*
X178633333Y-101945295D01*
X178633333Y-101945295D02*
X178633333Y-102088152D01*
X178633333Y-102088152D02*
X178585714Y-102183390D01*
X178585714Y-102183390D02*
X178538095Y-102231009D01*
X178538095Y-102231009D02*
X178442857Y-102278628D01*
X178442857Y-102278628D02*
X178061905Y-102278628D01*
X179490476Y-102088152D02*
X179490476Y-102754819D01*
X179252381Y-101707200D02*
X179014286Y-102421485D01*
X179014286Y-102421485D02*
X179633333Y-102421485D01*
X145923809Y-85978628D02*
X145923809Y-86454819D01*
X145590476Y-85454819D02*
X145923809Y-85978628D01*
X145923809Y-85978628D02*
X146257142Y-85454819D01*
X147114285Y-86454819D02*
X146542857Y-86454819D01*
X146828571Y-86454819D02*
X146828571Y-85454819D01*
X146828571Y-85454819D02*
X146733333Y-85597676D01*
X146733333Y-85597676D02*
X146638095Y-85692914D01*
X146638095Y-85692914D02*
X146542857Y-85740533D01*
X174254819Y-107738094D02*
X173254819Y-107738094D01*
X173254819Y-107738094D02*
X173254819Y-107499999D01*
X173254819Y-107499999D02*
X173302438Y-107357142D01*
X173302438Y-107357142D02*
X173397676Y-107261904D01*
X173397676Y-107261904D02*
X173492914Y-107214285D01*
X173492914Y-107214285D02*
X173683390Y-107166666D01*
X173683390Y-107166666D02*
X173826247Y-107166666D01*
X173826247Y-107166666D02*
X174016723Y-107214285D01*
X174016723Y-107214285D02*
X174111961Y-107261904D01*
X174111961Y-107261904D02*
X174207200Y-107357142D01*
X174207200Y-107357142D02*
X174254819Y-107499999D01*
X174254819Y-107499999D02*
X174254819Y-107738094D01*
X173254819Y-106833332D02*
X173254819Y-106214285D01*
X173254819Y-106214285D02*
X173635771Y-106547618D01*
X173635771Y-106547618D02*
X173635771Y-106404761D01*
X173635771Y-106404761D02*
X173683390Y-106309523D01*
X173683390Y-106309523D02*
X173731009Y-106261904D01*
X173731009Y-106261904D02*
X173826247Y-106214285D01*
X173826247Y-106214285D02*
X174064342Y-106214285D01*
X174064342Y-106214285D02*
X174159580Y-106261904D01*
X174159580Y-106261904D02*
X174207200Y-106309523D01*
X174207200Y-106309523D02*
X174254819Y-106404761D01*
X174254819Y-106404761D02*
X174254819Y-106690475D01*
X174254819Y-106690475D02*
X174207200Y-106785713D01*
X174207200Y-106785713D02*
X174159580Y-106833332D01*
X173461905Y-76954819D02*
X173461905Y-75954819D01*
X173461905Y-75954819D02*
X173700000Y-75954819D01*
X173700000Y-75954819D02*
X173842857Y-76002438D01*
X173842857Y-76002438D02*
X173938095Y-76097676D01*
X173938095Y-76097676D02*
X173985714Y-76192914D01*
X173985714Y-76192914D02*
X174033333Y-76383390D01*
X174033333Y-76383390D02*
X174033333Y-76526247D01*
X174033333Y-76526247D02*
X173985714Y-76716723D01*
X173985714Y-76716723D02*
X173938095Y-76811961D01*
X173938095Y-76811961D02*
X173842857Y-76907200D01*
X173842857Y-76907200D02*
X173700000Y-76954819D01*
X173700000Y-76954819D02*
X173461905Y-76954819D01*
X174985714Y-76954819D02*
X174414286Y-76954819D01*
X174700000Y-76954819D02*
X174700000Y-75954819D01*
X174700000Y-75954819D02*
X174604762Y-76097676D01*
X174604762Y-76097676D02*
X174509524Y-76192914D01*
X174509524Y-76192914D02*
X174414286Y-76240533D01*
X155988095Y-92154819D02*
X155988095Y-92964342D01*
X155988095Y-92964342D02*
X156035714Y-93059580D01*
X156035714Y-93059580D02*
X156083333Y-93107200D01*
X156083333Y-93107200D02*
X156178571Y-93154819D01*
X156178571Y-93154819D02*
X156369047Y-93154819D01*
X156369047Y-93154819D02*
X156464285Y-93107200D01*
X156464285Y-93107200D02*
X156511904Y-93059580D01*
X156511904Y-93059580D02*
X156559523Y-92964342D01*
X156559523Y-92964342D02*
X156559523Y-92154819D01*
X157559523Y-93154819D02*
X156988095Y-93154819D01*
X157273809Y-93154819D02*
X157273809Y-92154819D01*
X157273809Y-92154819D02*
X157178571Y-92297676D01*
X157178571Y-92297676D02*
X157083333Y-92392914D01*
X157083333Y-92392914D02*
X156988095Y-92440533D01*
X174607142Y-81359580D02*
X174559523Y-81407200D01*
X174559523Y-81407200D02*
X174416666Y-81454819D01*
X174416666Y-81454819D02*
X174321428Y-81454819D01*
X174321428Y-81454819D02*
X174178571Y-81407200D01*
X174178571Y-81407200D02*
X174083333Y-81311961D01*
X174083333Y-81311961D02*
X174035714Y-81216723D01*
X174035714Y-81216723D02*
X173988095Y-81026247D01*
X173988095Y-81026247D02*
X173988095Y-80883390D01*
X173988095Y-80883390D02*
X174035714Y-80692914D01*
X174035714Y-80692914D02*
X174083333Y-80597676D01*
X174083333Y-80597676D02*
X174178571Y-80502438D01*
X174178571Y-80502438D02*
X174321428Y-80454819D01*
X174321428Y-80454819D02*
X174416666Y-80454819D01*
X174416666Y-80454819D02*
X174559523Y-80502438D01*
X174559523Y-80502438D02*
X174607142Y-80550057D01*
X175559523Y-81454819D02*
X174988095Y-81454819D01*
X175273809Y-81454819D02*
X175273809Y-80454819D01*
X175273809Y-80454819D02*
X175178571Y-80597676D01*
X175178571Y-80597676D02*
X175083333Y-80692914D01*
X175083333Y-80692914D02*
X174988095Y-80740533D01*
X176178571Y-80454819D02*
X176273809Y-80454819D01*
X176273809Y-80454819D02*
X176369047Y-80502438D01*
X176369047Y-80502438D02*
X176416666Y-80550057D01*
X176416666Y-80550057D02*
X176464285Y-80645295D01*
X176464285Y-80645295D02*
X176511904Y-80835771D01*
X176511904Y-80835771D02*
X176511904Y-81073866D01*
X176511904Y-81073866D02*
X176464285Y-81264342D01*
X176464285Y-81264342D02*
X176416666Y-81359580D01*
X176416666Y-81359580D02*
X176369047Y-81407200D01*
X176369047Y-81407200D02*
X176273809Y-81454819D01*
X176273809Y-81454819D02*
X176178571Y-81454819D01*
X176178571Y-81454819D02*
X176083333Y-81407200D01*
X176083333Y-81407200D02*
X176035714Y-81359580D01*
X176035714Y-81359580D02*
X175988095Y-81264342D01*
X175988095Y-81264342D02*
X175940476Y-81073866D01*
X175940476Y-81073866D02*
X175940476Y-80835771D01*
X175940476Y-80835771D02*
X175988095Y-80645295D01*
X175988095Y-80645295D02*
X176035714Y-80550057D01*
X176035714Y-80550057D02*
X176083333Y-80502438D01*
X176083333Y-80502438D02*
X176178571Y-80454819D01*
X161183333Y-99009580D02*
X161135714Y-99057200D01*
X161135714Y-99057200D02*
X160992857Y-99104819D01*
X160992857Y-99104819D02*
X160897619Y-99104819D01*
X160897619Y-99104819D02*
X160754762Y-99057200D01*
X160754762Y-99057200D02*
X160659524Y-98961961D01*
X160659524Y-98961961D02*
X160611905Y-98866723D01*
X160611905Y-98866723D02*
X160564286Y-98676247D01*
X160564286Y-98676247D02*
X160564286Y-98533390D01*
X160564286Y-98533390D02*
X160611905Y-98342914D01*
X160611905Y-98342914D02*
X160659524Y-98247676D01*
X160659524Y-98247676D02*
X160754762Y-98152438D01*
X160754762Y-98152438D02*
X160897619Y-98104819D01*
X160897619Y-98104819D02*
X160992857Y-98104819D01*
X160992857Y-98104819D02*
X161135714Y-98152438D01*
X161135714Y-98152438D02*
X161183333Y-98200057D01*
X161564286Y-98200057D02*
X161611905Y-98152438D01*
X161611905Y-98152438D02*
X161707143Y-98104819D01*
X161707143Y-98104819D02*
X161945238Y-98104819D01*
X161945238Y-98104819D02*
X162040476Y-98152438D01*
X162040476Y-98152438D02*
X162088095Y-98200057D01*
X162088095Y-98200057D02*
X162135714Y-98295295D01*
X162135714Y-98295295D02*
X162135714Y-98390533D01*
X162135714Y-98390533D02*
X162088095Y-98533390D01*
X162088095Y-98533390D02*
X161516667Y-99104819D01*
X161516667Y-99104819D02*
X162135714Y-99104819D01*
X163533333Y-81259580D02*
X163485714Y-81307200D01*
X163485714Y-81307200D02*
X163342857Y-81354819D01*
X163342857Y-81354819D02*
X163247619Y-81354819D01*
X163247619Y-81354819D02*
X163104762Y-81307200D01*
X163104762Y-81307200D02*
X163009524Y-81211961D01*
X163009524Y-81211961D02*
X162961905Y-81116723D01*
X162961905Y-81116723D02*
X162914286Y-80926247D01*
X162914286Y-80926247D02*
X162914286Y-80783390D01*
X162914286Y-80783390D02*
X162961905Y-80592914D01*
X162961905Y-80592914D02*
X163009524Y-80497676D01*
X163009524Y-80497676D02*
X163104762Y-80402438D01*
X163104762Y-80402438D02*
X163247619Y-80354819D01*
X163247619Y-80354819D02*
X163342857Y-80354819D01*
X163342857Y-80354819D02*
X163485714Y-80402438D01*
X163485714Y-80402438D02*
X163533333Y-80450057D01*
X164009524Y-81354819D02*
X164200000Y-81354819D01*
X164200000Y-81354819D02*
X164295238Y-81307200D01*
X164295238Y-81307200D02*
X164342857Y-81259580D01*
X164342857Y-81259580D02*
X164438095Y-81116723D01*
X164438095Y-81116723D02*
X164485714Y-80926247D01*
X164485714Y-80926247D02*
X164485714Y-80545295D01*
X164485714Y-80545295D02*
X164438095Y-80450057D01*
X164438095Y-80450057D02*
X164390476Y-80402438D01*
X164390476Y-80402438D02*
X164295238Y-80354819D01*
X164295238Y-80354819D02*
X164104762Y-80354819D01*
X164104762Y-80354819D02*
X164009524Y-80402438D01*
X164009524Y-80402438D02*
X163961905Y-80450057D01*
X163961905Y-80450057D02*
X163914286Y-80545295D01*
X163914286Y-80545295D02*
X163914286Y-80783390D01*
X163914286Y-80783390D02*
X163961905Y-80878628D01*
X163961905Y-80878628D02*
X164009524Y-80926247D01*
X164009524Y-80926247D02*
X164104762Y-80973866D01*
X164104762Y-80973866D02*
X164295238Y-80973866D01*
X164295238Y-80973866D02*
X164390476Y-80926247D01*
X164390476Y-80926247D02*
X164438095Y-80878628D01*
X164438095Y-80878628D02*
X164485714Y-80783390D01*
X151883333Y-88459580D02*
X151835714Y-88507200D01*
X151835714Y-88507200D02*
X151692857Y-88554819D01*
X151692857Y-88554819D02*
X151597619Y-88554819D01*
X151597619Y-88554819D02*
X151454762Y-88507200D01*
X151454762Y-88507200D02*
X151359524Y-88411961D01*
X151359524Y-88411961D02*
X151311905Y-88316723D01*
X151311905Y-88316723D02*
X151264286Y-88126247D01*
X151264286Y-88126247D02*
X151264286Y-87983390D01*
X151264286Y-87983390D02*
X151311905Y-87792914D01*
X151311905Y-87792914D02*
X151359524Y-87697676D01*
X151359524Y-87697676D02*
X151454762Y-87602438D01*
X151454762Y-87602438D02*
X151597619Y-87554819D01*
X151597619Y-87554819D02*
X151692857Y-87554819D01*
X151692857Y-87554819D02*
X151835714Y-87602438D01*
X151835714Y-87602438D02*
X151883333Y-87650057D01*
X152788095Y-87554819D02*
X152311905Y-87554819D01*
X152311905Y-87554819D02*
X152264286Y-88031009D01*
X152264286Y-88031009D02*
X152311905Y-87983390D01*
X152311905Y-87983390D02*
X152407143Y-87935771D01*
X152407143Y-87935771D02*
X152645238Y-87935771D01*
X152645238Y-87935771D02*
X152740476Y-87983390D01*
X152740476Y-87983390D02*
X152788095Y-88031009D01*
X152788095Y-88031009D02*
X152835714Y-88126247D01*
X152835714Y-88126247D02*
X152835714Y-88364342D01*
X152835714Y-88364342D02*
X152788095Y-88459580D01*
X152788095Y-88459580D02*
X152740476Y-88507200D01*
X152740476Y-88507200D02*
X152645238Y-88554819D01*
X152645238Y-88554819D02*
X152407143Y-88554819D01*
X152407143Y-88554819D02*
X152311905Y-88507200D01*
X152311905Y-88507200D02*
X152264286Y-88459580D01*
X169933333Y-91954819D02*
X169600000Y-91478628D01*
X169361905Y-91954819D02*
X169361905Y-90954819D01*
X169361905Y-90954819D02*
X169742857Y-90954819D01*
X169742857Y-90954819D02*
X169838095Y-91002438D01*
X169838095Y-91002438D02*
X169885714Y-91050057D01*
X169885714Y-91050057D02*
X169933333Y-91145295D01*
X169933333Y-91145295D02*
X169933333Y-91288152D01*
X169933333Y-91288152D02*
X169885714Y-91383390D01*
X169885714Y-91383390D02*
X169838095Y-91431009D01*
X169838095Y-91431009D02*
X169742857Y-91478628D01*
X169742857Y-91478628D02*
X169361905Y-91478628D01*
X170314286Y-91050057D02*
X170361905Y-91002438D01*
X170361905Y-91002438D02*
X170457143Y-90954819D01*
X170457143Y-90954819D02*
X170695238Y-90954819D01*
X170695238Y-90954819D02*
X170790476Y-91002438D01*
X170790476Y-91002438D02*
X170838095Y-91050057D01*
X170838095Y-91050057D02*
X170885714Y-91145295D01*
X170885714Y-91145295D02*
X170885714Y-91240533D01*
X170885714Y-91240533D02*
X170838095Y-91383390D01*
X170838095Y-91383390D02*
X170266667Y-91954819D01*
X170266667Y-91954819D02*
X170885714Y-91954819D01*
X148154819Y-108638094D02*
X147154819Y-108638094D01*
X147154819Y-108638094D02*
X147154819Y-108399999D01*
X147154819Y-108399999D02*
X147202438Y-108257142D01*
X147202438Y-108257142D02*
X147297676Y-108161904D01*
X147297676Y-108161904D02*
X147392914Y-108114285D01*
X147392914Y-108114285D02*
X147583390Y-108066666D01*
X147583390Y-108066666D02*
X147726247Y-108066666D01*
X147726247Y-108066666D02*
X147916723Y-108114285D01*
X147916723Y-108114285D02*
X148011961Y-108161904D01*
X148011961Y-108161904D02*
X148107200Y-108257142D01*
X148107200Y-108257142D02*
X148154819Y-108399999D01*
X148154819Y-108399999D02*
X148154819Y-108638094D01*
X147488152Y-107209523D02*
X148154819Y-107209523D01*
X147107200Y-107447618D02*
X147821485Y-107685713D01*
X147821485Y-107685713D02*
X147821485Y-107066666D01*
X142159580Y-104542857D02*
X142207200Y-104590476D01*
X142207200Y-104590476D02*
X142254819Y-104733333D01*
X142254819Y-104733333D02*
X142254819Y-104828571D01*
X142254819Y-104828571D02*
X142207200Y-104971428D01*
X142207200Y-104971428D02*
X142111961Y-105066666D01*
X142111961Y-105066666D02*
X142016723Y-105114285D01*
X142016723Y-105114285D02*
X141826247Y-105161904D01*
X141826247Y-105161904D02*
X141683390Y-105161904D01*
X141683390Y-105161904D02*
X141492914Y-105114285D01*
X141492914Y-105114285D02*
X141397676Y-105066666D01*
X141397676Y-105066666D02*
X141302438Y-104971428D01*
X141302438Y-104971428D02*
X141254819Y-104828571D01*
X141254819Y-104828571D02*
X141254819Y-104733333D01*
X141254819Y-104733333D02*
X141302438Y-104590476D01*
X141302438Y-104590476D02*
X141350057Y-104542857D01*
X142254819Y-103590476D02*
X142254819Y-104161904D01*
X142254819Y-103876190D02*
X141254819Y-103876190D01*
X141254819Y-103876190D02*
X141397676Y-103971428D01*
X141397676Y-103971428D02*
X141492914Y-104066666D01*
X141492914Y-104066666D02*
X141540533Y-104161904D01*
X141683390Y-103019047D02*
X141635771Y-103114285D01*
X141635771Y-103114285D02*
X141588152Y-103161904D01*
X141588152Y-103161904D02*
X141492914Y-103209523D01*
X141492914Y-103209523D02*
X141445295Y-103209523D01*
X141445295Y-103209523D02*
X141350057Y-103161904D01*
X141350057Y-103161904D02*
X141302438Y-103114285D01*
X141302438Y-103114285D02*
X141254819Y-103019047D01*
X141254819Y-103019047D02*
X141254819Y-102828571D01*
X141254819Y-102828571D02*
X141302438Y-102733333D01*
X141302438Y-102733333D02*
X141350057Y-102685714D01*
X141350057Y-102685714D02*
X141445295Y-102638095D01*
X141445295Y-102638095D02*
X141492914Y-102638095D01*
X141492914Y-102638095D02*
X141588152Y-102685714D01*
X141588152Y-102685714D02*
X141635771Y-102733333D01*
X141635771Y-102733333D02*
X141683390Y-102828571D01*
X141683390Y-102828571D02*
X141683390Y-103019047D01*
X141683390Y-103019047D02*
X141731009Y-103114285D01*
X141731009Y-103114285D02*
X141778628Y-103161904D01*
X141778628Y-103161904D02*
X141873866Y-103209523D01*
X141873866Y-103209523D02*
X142064342Y-103209523D01*
X142064342Y-103209523D02*
X142159580Y-103161904D01*
X142159580Y-103161904D02*
X142207200Y-103114285D01*
X142207200Y-103114285D02*
X142254819Y-103019047D01*
X142254819Y-103019047D02*
X142254819Y-102828571D01*
X142254819Y-102828571D02*
X142207200Y-102733333D01*
X142207200Y-102733333D02*
X142159580Y-102685714D01*
X142159580Y-102685714D02*
X142064342Y-102638095D01*
X142064342Y-102638095D02*
X141873866Y-102638095D01*
X141873866Y-102638095D02*
X141778628Y-102685714D01*
X141778628Y-102685714D02*
X141731009Y-102733333D01*
X141731009Y-102733333D02*
X141683390Y-102828571D01*
X161458333Y-87754819D02*
X161125000Y-87278628D01*
X160886905Y-87754819D02*
X160886905Y-86754819D01*
X160886905Y-86754819D02*
X161267857Y-86754819D01*
X161267857Y-86754819D02*
X161363095Y-86802438D01*
X161363095Y-86802438D02*
X161410714Y-86850057D01*
X161410714Y-86850057D02*
X161458333Y-86945295D01*
X161458333Y-86945295D02*
X161458333Y-87088152D01*
X161458333Y-87088152D02*
X161410714Y-87183390D01*
X161410714Y-87183390D02*
X161363095Y-87231009D01*
X161363095Y-87231009D02*
X161267857Y-87278628D01*
X161267857Y-87278628D02*
X160886905Y-87278628D01*
X161791667Y-86754819D02*
X162410714Y-86754819D01*
X162410714Y-86754819D02*
X162077381Y-87135771D01*
X162077381Y-87135771D02*
X162220238Y-87135771D01*
X162220238Y-87135771D02*
X162315476Y-87183390D01*
X162315476Y-87183390D02*
X162363095Y-87231009D01*
X162363095Y-87231009D02*
X162410714Y-87326247D01*
X162410714Y-87326247D02*
X162410714Y-87564342D01*
X162410714Y-87564342D02*
X162363095Y-87659580D01*
X162363095Y-87659580D02*
X162315476Y-87707200D01*
X162315476Y-87707200D02*
X162220238Y-87754819D01*
X162220238Y-87754819D02*
X161934524Y-87754819D01*
X161934524Y-87754819D02*
X161839286Y-87707200D01*
X161839286Y-87707200D02*
X161791667Y-87659580D01*
X163233332Y-77124200D02*
X163347618Y-77162295D01*
X163347618Y-77162295D02*
X163538094Y-77162295D01*
X163538094Y-77162295D02*
X163614285Y-77124200D01*
X163614285Y-77124200D02*
X163652380Y-77086104D01*
X163652380Y-77086104D02*
X163690475Y-77009914D01*
X163690475Y-77009914D02*
X163690475Y-76933723D01*
X163690475Y-76933723D02*
X163652380Y-76857533D01*
X163652380Y-76857533D02*
X163614285Y-76819438D01*
X163614285Y-76819438D02*
X163538094Y-76781342D01*
X163538094Y-76781342D02*
X163385713Y-76743247D01*
X163385713Y-76743247D02*
X163309523Y-76705152D01*
X163309523Y-76705152D02*
X163271428Y-76667057D01*
X163271428Y-76667057D02*
X163233332Y-76590866D01*
X163233332Y-76590866D02*
X163233332Y-76514676D01*
X163233332Y-76514676D02*
X163271428Y-76438485D01*
X163271428Y-76438485D02*
X163309523Y-76400390D01*
X163309523Y-76400390D02*
X163385713Y-76362295D01*
X163385713Y-76362295D02*
X163576190Y-76362295D01*
X163576190Y-76362295D02*
X163690475Y-76400390D01*
X163957142Y-76362295D02*
X164147618Y-77162295D01*
X164147618Y-77162295D02*
X164299999Y-76590866D01*
X164299999Y-76590866D02*
X164452380Y-77162295D01*
X164452380Y-77162295D02*
X164642857Y-76362295D01*
X165366666Y-77162295D02*
X164909523Y-77162295D01*
X165138095Y-77162295D02*
X165138095Y-76362295D01*
X165138095Y-76362295D02*
X165061904Y-76476580D01*
X165061904Y-76476580D02*
X164985714Y-76552771D01*
X164985714Y-76552771D02*
X164909523Y-76590866D01*
X158907142Y-102659580D02*
X158859523Y-102707200D01*
X158859523Y-102707200D02*
X158716666Y-102754819D01*
X158716666Y-102754819D02*
X158621428Y-102754819D01*
X158621428Y-102754819D02*
X158478571Y-102707200D01*
X158478571Y-102707200D02*
X158383333Y-102611961D01*
X158383333Y-102611961D02*
X158335714Y-102516723D01*
X158335714Y-102516723D02*
X158288095Y-102326247D01*
X158288095Y-102326247D02*
X158288095Y-102183390D01*
X158288095Y-102183390D02*
X158335714Y-101992914D01*
X158335714Y-101992914D02*
X158383333Y-101897676D01*
X158383333Y-101897676D02*
X158478571Y-101802438D01*
X158478571Y-101802438D02*
X158621428Y-101754819D01*
X158621428Y-101754819D02*
X158716666Y-101754819D01*
X158716666Y-101754819D02*
X158859523Y-101802438D01*
X158859523Y-101802438D02*
X158907142Y-101850057D01*
X159859523Y-102754819D02*
X159288095Y-102754819D01*
X159573809Y-102754819D02*
X159573809Y-101754819D01*
X159573809Y-101754819D02*
X159478571Y-101897676D01*
X159478571Y-101897676D02*
X159383333Y-101992914D01*
X159383333Y-101992914D02*
X159288095Y-102040533D01*
X160192857Y-101754819D02*
X160859523Y-101754819D01*
X160859523Y-101754819D02*
X160430952Y-102754819D01*
D12*
%TO.C,J6*%
X174821300Y-110000000D02*
G75*
G03*
X174059300Y-110000000I-381000J0D01*
G01*
X174059300Y-110000000D02*
G75*
G03*
X174821300Y-110000000I381000J0D01*
G01*
D13*
X172662300Y-105672000D02*
X161257700Y-105672000D01*
X161257700Y-105672000D02*
X161257700Y-113927000D01*
X161257700Y-113927000D02*
X172662300Y-113927000D01*
X172662300Y-113927000D02*
X172662300Y-105672000D01*
D12*
%TO.C,J5*%
X162021300Y-110000000D02*
G75*
G03*
X161259300Y-110000000I-381000J0D01*
G01*
X161259300Y-110000000D02*
G75*
G03*
X162021300Y-110000000I381000J0D01*
G01*
D13*
X159862300Y-105672000D02*
X148457700Y-105672000D01*
X148457700Y-105672000D02*
X148457700Y-113927000D01*
X148457700Y-113927000D02*
X159862300Y-113927000D01*
X159862300Y-113927000D02*
X159862300Y-105672000D01*
D14*
%TO.C,TP7*%
X162950000Y-83150000D02*
X164350000Y-83150000D01*
X162950000Y-84550000D02*
X162950000Y-83150000D01*
X164350000Y-83150000D02*
X164350000Y-84550000D01*
X164350000Y-84550000D02*
X162950000Y-84550000D01*
%TO.C,TP9*%
X162950000Y-85350000D02*
X164350000Y-85350000D01*
X162950000Y-86750000D02*
X162950000Y-85350000D01*
X164350000Y-85350000D02*
X164350000Y-86750000D01*
X164350000Y-86750000D02*
X162950000Y-86750000D01*
%TO.C,TP10*%
X172950000Y-84450000D02*
X174350000Y-84450000D01*
X172950000Y-85850000D02*
X172950000Y-84450000D01*
X174350000Y-84450000D02*
X174350000Y-85850000D01*
X174350000Y-85850000D02*
X172950000Y-85850000D01*
%TO.C,TP12*%
X172950000Y-86500000D02*
X174350000Y-86500000D01*
X172950000Y-87900000D02*
X172950000Y-86500000D01*
X174350000Y-86500000D02*
X174350000Y-87900000D01*
X174350000Y-87900000D02*
X172950000Y-87900000D01*
%TO.C,TP5*%
X164750000Y-92950000D02*
X166150000Y-92950000D01*
X164750000Y-94350000D02*
X164750000Y-92950000D01*
X166150000Y-92950000D02*
X166150000Y-94350000D01*
X166150000Y-94350000D02*
X164750000Y-94350000D01*
%TO.C,TP6*%
X162700000Y-92950000D02*
X164100000Y-92950000D01*
X162700000Y-94350000D02*
X162700000Y-92950000D01*
X164100000Y-92950000D02*
X164100000Y-94350000D01*
X164100000Y-94350000D02*
X162700000Y-94350000D01*
%TO.C,J4*%
X171230000Y-69020000D02*
X171230000Y-70350000D01*
X169900000Y-69020000D02*
X171230000Y-69020000D01*
X168630000Y-69020000D02*
X160950000Y-69020000D01*
X168630000Y-69020000D02*
X168630000Y-71680000D01*
X160950000Y-69020000D02*
X160950000Y-71680000D01*
X168630000Y-71680000D02*
X160950000Y-71680000D01*
%TO.C,U2*%
X168600000Y-82115000D02*
X165000000Y-82115000D01*
X168600000Y-82115000D02*
X170800000Y-82115000D01*
X168600000Y-88885000D02*
X166400000Y-88885000D01*
X168600000Y-88885000D02*
X170800000Y-88885000D01*
%TO.C,R5*%
X171262742Y-77777500D02*
X171737258Y-77777500D01*
X171262742Y-78822500D02*
X171737258Y-78822500D01*
%TO.C,D2*%
X177672500Y-101135000D02*
X177672500Y-99665000D01*
X177672500Y-99665000D02*
X175387500Y-99665000D01*
X175387500Y-101135000D02*
X177672500Y-101135000D01*
%TO.C,TP13*%
X158700000Y-85300000D02*
X160100000Y-85300000D01*
X158700000Y-86700000D02*
X158700000Y-85300000D01*
X160100000Y-85300000D02*
X160100000Y-86700000D01*
X160100000Y-86700000D02*
X158700000Y-86700000D01*
%TO.C,R6*%
X176677500Y-107237258D02*
X176677500Y-106762742D01*
X177722500Y-107237258D02*
X177722500Y-106762742D01*
%TO.C,TP3*%
X153350000Y-104550000D02*
X151950000Y-104550000D01*
X153350000Y-103150000D02*
X153350000Y-104550000D01*
X151950000Y-104550000D02*
X151950000Y-103150000D01*
X151950000Y-103150000D02*
X153350000Y-103150000D01*
%TO.C,TP14*%
X160100000Y-83200000D02*
X160100000Y-84600000D01*
X158700000Y-83200000D02*
X160100000Y-83200000D01*
X160100000Y-84600000D02*
X158700000Y-84600000D01*
X158700000Y-84600000D02*
X158700000Y-83200000D01*
%TO.C,C6*%
X173685000Y-101038748D02*
X173685000Y-101561252D01*
X172215000Y-101038748D02*
X172215000Y-101561252D01*
%TO.C,C8*%
X145207836Y-89360000D02*
X144992164Y-89360000D01*
X145207836Y-88640000D02*
X144992164Y-88640000D01*
%TO.C,C3*%
X162910000Y-90442164D02*
X162910000Y-90657836D01*
X162190000Y-90442164D02*
X162190000Y-90657836D01*
%TO.C,C16*%
X172215000Y-97711252D02*
X172215000Y-97188748D01*
X173685000Y-97711252D02*
X173685000Y-97188748D01*
%TO.C,C4*%
X154092164Y-86940000D02*
X154307836Y-86940000D01*
X154092164Y-87660000D02*
X154307836Y-87660000D01*
%TO.C,C1*%
X150790000Y-94207836D02*
X150790000Y-93992164D01*
X151510000Y-94207836D02*
X151510000Y-93992164D01*
%TO.C,C7*%
X148307836Y-89360000D02*
X148092164Y-89360000D01*
X148307836Y-88640000D02*
X148092164Y-88640000D01*
%TO.C,U3*%
X171400000Y-103760000D02*
X165390000Y-103760000D01*
X169150000Y-96940000D02*
X165390000Y-96940000D01*
X165390000Y-103760000D02*
X165390000Y-102500000D01*
X165390000Y-96940000D02*
X165390000Y-98200000D01*
%TO.C,R1*%
X159472500Y-81062742D02*
X159472500Y-81537258D01*
X158427500Y-81062742D02*
X158427500Y-81537258D01*
%TO.C,R7*%
X143877500Y-108237258D02*
X143877500Y-107762742D01*
X144922500Y-108237258D02*
X144922500Y-107762742D01*
%TO.C,TP4*%
X153350000Y-100550000D02*
X151950000Y-100550000D01*
X153350000Y-99150000D02*
X153350000Y-100550000D01*
X151950000Y-100550000D02*
X151950000Y-99150000D01*
X151950000Y-99150000D02*
X153350000Y-99150000D01*
%TO.C,J1*%
X175937500Y-95600000D02*
X175937500Y-95150000D01*
X177787500Y-95600000D02*
X175937500Y-95600000D01*
X180337500Y-95600000D02*
X180087500Y-95600000D01*
X175387500Y-93400000D02*
X175837500Y-93400000D01*
X175387500Y-93400000D02*
X175387500Y-92950000D01*
X175937500Y-87800000D02*
X175937500Y-88250000D01*
X177787500Y-87800000D02*
X175937500Y-87800000D01*
X180337500Y-87800000D02*
X180087500Y-87800000D01*
D15*
%TO.C,U4*%
X145400000Y-98780000D02*
X149400000Y-98780000D01*
X145400000Y-103820000D02*
X149400000Y-103820000D01*
D16*
X143055000Y-98805000D02*
G75*
G03*
X142855000Y-98805000I-100000J0D01*
G01*
X142855000Y-98805000D02*
G75*
G03*
X143055000Y-98805000I100000J0D01*
G01*
D14*
%TO.C,J2*%
X158880000Y-69070000D02*
X158880000Y-70400000D01*
X157550000Y-69070000D02*
X158880000Y-69070000D01*
X156280000Y-69070000D02*
X148600000Y-69070000D01*
X156280000Y-69070000D02*
X156280000Y-71730000D01*
X148600000Y-69070000D02*
X148600000Y-71730000D01*
X156280000Y-71730000D02*
X148600000Y-71730000D01*
%TO.C,SW2*%
X152650000Y-79800000D02*
X152650000Y-78300000D01*
X151400000Y-75800000D02*
X146900000Y-75800000D01*
X146900000Y-82300000D02*
X151400000Y-82300000D01*
X145650000Y-78300000D02*
X145650000Y-79800000D01*
%TO.C,R4*%
X176437258Y-102722500D02*
X175962742Y-102722500D01*
X176437258Y-101677500D02*
X175962742Y-101677500D01*
%TO.C,TP2*%
X153350000Y-102550000D02*
X151950000Y-102550000D01*
X153350000Y-101150000D02*
X153350000Y-102550000D01*
X151950000Y-102550000D02*
X151950000Y-101150000D01*
X151950000Y-101150000D02*
X153350000Y-101150000D01*
%TO.C,TP1*%
X172950000Y-82250000D02*
X174350000Y-82250000D01*
X172950000Y-83650000D02*
X172950000Y-82250000D01*
X174350000Y-82250000D02*
X174350000Y-83650000D01*
X174350000Y-83650000D02*
X172950000Y-83650000D01*
D15*
%TO.C,Y1*%
X149435000Y-88150000D02*
X143085000Y-88150000D01*
X143085000Y-83650000D02*
X149435000Y-83650000D01*
X149435000Y-88150000D02*
G75*
G03*
X151685000Y-85900000I-1J2250001D01*
G01*
X151685000Y-85900000D02*
G75*
G03*
X149435000Y-83650000I-2250001J-1D01*
G01*
X140835000Y-85900000D02*
G75*
G03*
X143085000Y-88150000I2250000J0D01*
G01*
X143085000Y-83650000D02*
G75*
G03*
X140835000Y-85900000I0J-2250000D01*
G01*
D14*
%TO.C,D3*%
X174665000Y-108485000D02*
X176135000Y-108485000D01*
X176135000Y-108485000D02*
X176135000Y-106200000D01*
X174665000Y-106200000D02*
X174665000Y-108485000D01*
%TO.C,D1*%
X172985000Y-77235000D02*
X172985000Y-75765000D01*
X172985000Y-75765000D02*
X170700000Y-75765000D01*
X170700000Y-77235000D02*
X172985000Y-77235000D01*
%TO.C,U1*%
X153227500Y-89390000D02*
X153227500Y-89840000D01*
X153227500Y-89840000D02*
X151937500Y-89840000D01*
X153227500Y-96610000D02*
X153227500Y-96160000D01*
X153677500Y-89390000D02*
X153227500Y-89390000D01*
X153677500Y-96610000D02*
X153227500Y-96610000D01*
X159997500Y-89390000D02*
X160447500Y-89390000D01*
X159997500Y-96610000D02*
X160447500Y-96610000D01*
X160447500Y-89390000D02*
X160447500Y-89840000D01*
X160447500Y-96610000D02*
X160447500Y-96160000D01*
%TO.C,C10*%
X175960000Y-82892164D02*
X175960000Y-83107836D01*
X175240000Y-82892164D02*
X175240000Y-83107836D01*
%TO.C,C2*%
X159487836Y-99010000D02*
X159272164Y-99010000D01*
X159487836Y-98290000D02*
X159272164Y-98290000D01*
%TO.C,C9*%
X163777836Y-82460000D02*
X163562164Y-82460000D01*
X163777836Y-81740000D02*
X163562164Y-81740000D01*
%TO.C,C5*%
X152157836Y-89560000D02*
X151942164Y-89560000D01*
X152157836Y-88840000D02*
X151942164Y-88840000D01*
%TO.C,R2*%
X168822500Y-90362742D02*
X168822500Y-90837258D01*
X167777500Y-90362742D02*
X167777500Y-90837258D01*
%TO.C,D4*%
X145465000Y-109485000D02*
X146935000Y-109485000D01*
X146935000Y-109485000D02*
X146935000Y-107200000D01*
X145465000Y-107200000D02*
X145465000Y-109485000D01*
%TO.C,C18*%
X143360000Y-103792164D02*
X143360000Y-104007836D01*
X142640000Y-103792164D02*
X142640000Y-104007836D01*
%TO.C,R3*%
X162762742Y-88177500D02*
X163237258Y-88177500D01*
X162762742Y-89222500D02*
X163237258Y-89222500D01*
D15*
%TO.C,SW1*%
X167300000Y-78500000D02*
X167300000Y-75000000D01*
X167300000Y-75000000D02*
X166800000Y-75000000D01*
X166800000Y-78500000D02*
X167300000Y-78500000D01*
X159300000Y-75000000D02*
X158800000Y-75000000D01*
X158800000Y-78500000D02*
X159300000Y-78500000D01*
X158800000Y-75000000D02*
X158800000Y-78500000D01*
D16*
X165750000Y-79550000D02*
G75*
G03*
X165550000Y-79550000I-100000J0D01*
G01*
X165550000Y-79550000D02*
G75*
G03*
X165750000Y-79550000I100000J0D01*
G01*
D14*
%TO.C,C17*%
X159811252Y-101085000D02*
X159288748Y-101085000D01*
X159811252Y-99615000D02*
X159288748Y-99615000D01*
%TD*%
M02*
