%TF.GenerationSoftware,KiCad,Pcbnew,7.0.10*%
%TF.CreationDate,2025-03-06T06:53:05-06:00*%
%TF.ProjectId,Reflow Project Kicad,5265666c-6f77-4205-9072-6f6a65637420,rev?*%
%TF.SameCoordinates,Original*%
%TF.FileFunction,Copper,L1,Top*%
%TF.FilePolarity,Positive*%
%FSLAX46Y46*%
G04 Gerber Fmt 4.6, Leading zero omitted, Abs format (unit mm)*
G04 Created by KiCad (PCBNEW 7.0.10) date 2025-03-06 06:53:05*
%MOMM*%
%LPD*%
G01*
G04 APERTURE LIST*
G04 Aperture macros list*
%AMRoundRect*
0 Rectangle with rounded corners*
0 $1 Rounding radius*
0 $2 $3 $4 $5 $6 $7 $8 $9 X,Y pos of 4 corners*
0 Add a 4 corners polygon primitive as box body*
4,1,4,$2,$3,$4,$5,$6,$7,$8,$9,$2,$3,0*
0 Add four circle primitives for the rounded corners*
1,1,$1+$1,$2,$3*
1,1,$1+$1,$4,$5*
1,1,$1+$1,$6,$7*
1,1,$1+$1,$8,$9*
0 Add four rect primitives between the rounded corners*
20,1,$1+$1,$2,$3,$4,$5,0*
20,1,$1+$1,$4,$5,$6,$7,0*
20,1,$1+$1,$6,$7,$8,$9,0*
20,1,$1+$1,$8,$9,$2,$3,0*%
G04 Aperture macros list end*
%TA.AperFunction,ComponentPad*%
%ADD10C,1.905000*%
%TD*%
%TA.AperFunction,ComponentPad*%
%ADD11R,1.000000X1.000000*%
%TD*%
%TA.AperFunction,ComponentPad*%
%ADD12R,1.700000X1.700000*%
%TD*%
%TA.AperFunction,ComponentPad*%
%ADD13O,1.700000X1.700000*%
%TD*%
%TA.AperFunction,SMDPad,CuDef*%
%ADD14RoundRect,0.100000X-0.637500X-0.100000X0.637500X-0.100000X0.637500X0.100000X-0.637500X0.100000X0*%
%TD*%
%TA.AperFunction,SMDPad,CuDef*%
%ADD15RoundRect,0.200000X-0.200000X-0.275000X0.200000X-0.275000X0.200000X0.275000X-0.200000X0.275000X0*%
%TD*%
%TA.AperFunction,SMDPad,CuDef*%
%ADD16RoundRect,0.218750X0.218750X0.256250X-0.218750X0.256250X-0.218750X-0.256250X0.218750X-0.256250X0*%
%TD*%
%TA.AperFunction,SMDPad,CuDef*%
%ADD17RoundRect,0.200000X0.275000X-0.200000X0.275000X0.200000X-0.275000X0.200000X-0.275000X-0.200000X0*%
%TD*%
%TA.AperFunction,SMDPad,CuDef*%
%ADD18RoundRect,0.250000X-0.475000X0.250000X-0.475000X-0.250000X0.475000X-0.250000X0.475000X0.250000X0*%
%TD*%
%TA.AperFunction,SMDPad,CuDef*%
%ADD19RoundRect,0.140000X0.140000X0.170000X-0.140000X0.170000X-0.140000X-0.170000X0.140000X-0.170000X0*%
%TD*%
%TA.AperFunction,SMDPad,CuDef*%
%ADD20RoundRect,0.140000X-0.170000X0.140000X-0.170000X-0.140000X0.170000X-0.140000X0.170000X0.140000X0*%
%TD*%
%TA.AperFunction,SMDPad,CuDef*%
%ADD21RoundRect,0.250000X0.475000X-0.337500X0.475000X0.337500X-0.475000X0.337500X-0.475000X-0.337500X0*%
%TD*%
%TA.AperFunction,ComponentPad*%
%ADD22C,5.600000*%
%TD*%
%TA.AperFunction,SMDPad,CuDef*%
%ADD23RoundRect,0.140000X-0.140000X-0.170000X0.140000X-0.170000X0.140000X0.170000X-0.140000X0.170000X0*%
%TD*%
%TA.AperFunction,SMDPad,CuDef*%
%ADD24RoundRect,0.140000X0.170000X-0.140000X0.170000X0.140000X-0.170000X0.140000X-0.170000X-0.140000X0*%
%TD*%
%TA.AperFunction,SMDPad,CuDef*%
%ADD25R,2.000000X1.500000*%
%TD*%
%TA.AperFunction,SMDPad,CuDef*%
%ADD26R,2.000000X3.800000*%
%TD*%
%TA.AperFunction,SMDPad,CuDef*%
%ADD27RoundRect,0.200000X-0.275000X0.200000X-0.275000X-0.200000X0.275000X-0.200000X0.275000X0.200000X0*%
%TD*%
%TA.AperFunction,SMDPad,CuDef*%
%ADD28R,1.350000X0.400000*%
%TD*%
%TA.AperFunction,ComponentPad*%
%ADD29O,1.900000X1.200000*%
%TD*%
%TA.AperFunction,SMDPad,CuDef*%
%ADD30R,1.900000X1.200000*%
%TD*%
%TA.AperFunction,ComponentPad*%
%ADD31C,1.450000*%
%TD*%
%TA.AperFunction,SMDPad,CuDef*%
%ADD32R,1.900000X1.500000*%
%TD*%
%TA.AperFunction,SMDPad,CuDef*%
%ADD33RoundRect,0.073750X-0.911250X-0.221250X0.911250X-0.221250X0.911250X0.221250X-0.911250X0.221250X0*%
%TD*%
%TA.AperFunction,ComponentPad*%
%ADD34C,2.000000*%
%TD*%
%TA.AperFunction,SMDPad,CuDef*%
%ADD35RoundRect,0.200000X0.200000X0.275000X-0.200000X0.275000X-0.200000X-0.275000X0.200000X-0.275000X0*%
%TD*%
%TA.AperFunction,ComponentPad*%
%ADD36C,1.080000*%
%TD*%
%TA.AperFunction,SMDPad,CuDef*%
%ADD37RoundRect,0.218750X0.256250X-0.218750X0.256250X0.218750X-0.256250X0.218750X-0.256250X-0.218750X0*%
%TD*%
%TA.AperFunction,SMDPad,CuDef*%
%ADD38RoundRect,0.075000X-0.662500X-0.075000X0.662500X-0.075000X0.662500X0.075000X-0.662500X0.075000X0*%
%TD*%
%TA.AperFunction,SMDPad,CuDef*%
%ADD39RoundRect,0.075000X-0.075000X-0.662500X0.075000X-0.662500X0.075000X0.662500X-0.075000X0.662500X0*%
%TD*%
%TA.AperFunction,ComponentPad*%
%ADD40R,1.308000X1.308000*%
%TD*%
%TA.AperFunction,ComponentPad*%
%ADD41C,1.308000*%
%TD*%
%TA.AperFunction,SMDPad,CuDef*%
%ADD42RoundRect,0.250000X0.337500X0.475000X-0.337500X0.475000X-0.337500X-0.475000X0.337500X-0.475000X0*%
%TD*%
%TA.AperFunction,ViaPad*%
%ADD43C,0.800000*%
%TD*%
%TA.AperFunction,Conductor*%
%ADD44C,0.500000*%
%TD*%
%TA.AperFunction,Conductor*%
%ADD45C,0.300000*%
%TD*%
%TA.AperFunction,Conductor*%
%ADD46C,0.250000*%
%TD*%
G04 APERTURE END LIST*
D10*
%TO.P,J6,1,1*%
%TO.N,GND*%
X169500000Y-110000000D03*
%TO.P,J6,2,2*%
%TO.N,Relay*%
X164420000Y-110000000D03*
%TD*%
%TO.P,J5,1,1*%
%TO.N,Net-(U4-T+)*%
X156700000Y-110000000D03*
%TO.P,J5,2,2*%
%TO.N,GND*%
X151620000Y-110000000D03*
%TD*%
D11*
%TO.P,TP7,1,1*%
%TO.N,Net-(U2-A4)*%
X163650000Y-83850000D03*
%TD*%
%TO.P,TP9,1,1*%
%TO.N,Net-(U2-A6)*%
X163650000Y-86050000D03*
%TD*%
%TO.P,TP10,1,1*%
%TO.N,Net-(U2-B4)*%
X173650000Y-85150000D03*
%TD*%
%TO.P,TP12,1,1*%
%TO.N,Net-(U2-B6)*%
X173650000Y-87200000D03*
%TD*%
%TO.P,TP5,1,1*%
%TO.N,3.3_USART1_RX_v1*%
X165450000Y-93650000D03*
%TD*%
%TO.P,TP6,1,1*%
%TO.N,3.3_USART1_TX_v1*%
X163400000Y-93650000D03*
%TD*%
D12*
%TO.P,J4,1,Pin_1*%
%TO.N,/USART1_RX_5V*%
X169900000Y-70350000D03*
D13*
%TO.P,J4,2,Pin_2*%
%TO.N,/USART1_TX_5V*%
X167360000Y-70350000D03*
%TO.P,J4,3,Pin_3*%
%TO.N,VBUS*%
X164820000Y-70350000D03*
%TO.P,J4,4,Pin_4*%
%TO.N,GND*%
X162280000Y-70350000D03*
%TD*%
D14*
%TO.P,U2,1,A1*%
%TO.N,unconnected-(U2-A1-Pad1)*%
X165737500Y-82575000D03*
%TO.P,U2,2,VCCA*%
%TO.N,+3.3V*%
X165737500Y-83225000D03*
%TO.P,U2,3,A2*%
%TO.N,unconnected-(U2-A2-Pad3)*%
X165737500Y-83875000D03*
%TO.P,U2,4,A3*%
%TO.N,unconnected-(U2-A3-Pad4)*%
X165737500Y-84525000D03*
%TO.P,U2,5,A4*%
%TO.N,Net-(U2-A4)*%
X165737500Y-85175000D03*
%TO.P,U2,6,A5*%
%TO.N,unconnected-(U2-A5-Pad6)*%
X165737500Y-85825000D03*
%TO.P,U2,7,A6*%
%TO.N,Net-(U2-A6)*%
X165737500Y-86475000D03*
%TO.P,U2,8,A7*%
%TO.N,3.3_USART1_RX_v1*%
X165737500Y-87125000D03*
%TO.P,U2,9,A8*%
%TO.N,3.3_USART1_TX_v1*%
X165737500Y-87775000D03*
%TO.P,U2,10,OE*%
%TO.N,Net-(U2-OE)*%
X165737500Y-88425000D03*
%TO.P,U2,11,GND*%
%TO.N,GND*%
X171462500Y-88425000D03*
%TO.P,U2,12,B8*%
%TO.N,/USART1_TX_5V*%
X171462500Y-87775000D03*
%TO.P,U2,13,B7*%
%TO.N,/USART1_RX_5V*%
X171462500Y-87125000D03*
%TO.P,U2,14,B6*%
%TO.N,Net-(U2-B6)*%
X171462500Y-86475000D03*
%TO.P,U2,15,B5*%
%TO.N,unconnected-(U2-B5-Pad15)*%
X171462500Y-85825000D03*
%TO.P,U2,16,B4*%
%TO.N,Net-(U2-B4)*%
X171462500Y-85175000D03*
%TO.P,U2,17,B3*%
%TO.N,unconnected-(U2-B3-Pad17)*%
X171462500Y-84525000D03*
%TO.P,U2,18,B2*%
%TO.N,unconnected-(U2-B2-Pad18)*%
X171462500Y-83875000D03*
%TO.P,U2,19,VCCB*%
%TO.N,VBUS*%
X171462500Y-83225000D03*
%TO.P,U2,20,B1*%
%TO.N,unconnected-(U2-B1-Pad20)*%
X171462500Y-82575000D03*
%TD*%
D15*
%TO.P,R5,1*%
%TO.N,GND*%
X170675000Y-78300000D03*
%TO.P,R5,2*%
%TO.N,Net-(D1-K)*%
X172325000Y-78300000D03*
%TD*%
D16*
%TO.P,D2,1,K*%
%TO.N,/PWR_LED_Cathode*%
X176975000Y-100400000D03*
%TO.P,D2,2,A*%
%TO.N,+3.3V*%
X175400000Y-100400000D03*
%TD*%
D11*
%TO.P,TP13,1,1*%
%TO.N,Net-(U1-PB6)*%
X159400000Y-86000000D03*
%TD*%
D17*
%TO.P,R6,1*%
%TO.N,Net-(D3-K)*%
X177200000Y-107825000D03*
%TO.P,R6,2*%
%TO.N,GND*%
X177200000Y-106175000D03*
%TD*%
D11*
%TO.P,TP3,1,1*%
%TO.N,Thermo_SCK*%
X152650000Y-103850000D03*
%TD*%
%TO.P,TP14,1,1*%
%TO.N,Net-(U1-PB7)*%
X159400000Y-83900000D03*
%TD*%
D18*
%TO.P,C6,1*%
%TO.N,+3.3V*%
X172950000Y-100350000D03*
%TO.P,C6,2*%
%TO.N,GND*%
X172950000Y-102250000D03*
%TD*%
D19*
%TO.P,C8,1*%
%TO.N,/RCC_OSC_OUT*%
X145580000Y-89000000D03*
%TO.P,C8,2*%
%TO.N,GND*%
X144620000Y-89000000D03*
%TD*%
D20*
%TO.P,C3,1*%
%TO.N,+3.3V*%
X162550000Y-90070000D03*
%TO.P,C3,2*%
%TO.N,GND*%
X162550000Y-91030000D03*
%TD*%
D21*
%TO.P,C16,1*%
%TO.N,VBUS*%
X172950000Y-98487500D03*
%TO.P,C16,2*%
%TO.N,GND*%
X172950000Y-96412500D03*
%TD*%
D22*
%TO.P,H1,1*%
%TO.N,GND*%
X143200000Y-69700000D03*
%TD*%
D23*
%TO.P,C4,1*%
%TO.N,+3.3V*%
X153720000Y-87300000D03*
%TO.P,C4,2*%
%TO.N,GND*%
X154680000Y-87300000D03*
%TD*%
D24*
%TO.P,C1,1*%
%TO.N,+3.3V*%
X151150000Y-94580000D03*
%TO.P,C1,2*%
%TO.N,GND*%
X151150000Y-93620000D03*
%TD*%
D19*
%TO.P,C7,1*%
%TO.N,/RCC_OSC_IN*%
X148680000Y-89000000D03*
%TO.P,C7,2*%
%TO.N,GND*%
X147720000Y-89000000D03*
%TD*%
D25*
%TO.P,U3,1,GND*%
%TO.N,GND*%
X170450000Y-102650000D03*
%TO.P,U3,2,VO*%
%TO.N,+3.3V*%
X170450000Y-100350000D03*
D26*
X164150000Y-100350000D03*
D25*
%TO.P,U3,3,VI*%
%TO.N,VBUS*%
X170450000Y-98050000D03*
%TD*%
D22*
%TO.P,H5,1*%
%TO.N,GND*%
X143300000Y-93600000D03*
%TD*%
D27*
%TO.P,R1,1*%
%TO.N,Net-(SW1-B)*%
X158950000Y-80475000D03*
%TO.P,R1,2*%
%TO.N,/BOOT*%
X158950000Y-82125000D03*
%TD*%
D17*
%TO.P,R7,1*%
%TO.N,Net-(D4-K)*%
X144400000Y-108825000D03*
%TO.P,R7,2*%
%TO.N,GND*%
X144400000Y-107175000D03*
%TD*%
D22*
%TO.P,H2,1*%
%TO.N,GND*%
X177150000Y-69700000D03*
%TD*%
D11*
%TO.P,TP4,1,1*%
%TO.N,Thermo_SO*%
X152650000Y-99850000D03*
%TD*%
D28*
%TO.P,J1,1,VBUS*%
%TO.N,VBUS*%
X176237500Y-93000000D03*
%TO.P,J1,2,D-*%
%TO.N,/USB_DM*%
X176237500Y-92350000D03*
%TO.P,J1,3,D+*%
%TO.N,/USB_DP*%
X176237500Y-91700000D03*
%TO.P,J1,4,ID*%
%TO.N,unconnected-(J1-ID-Pad4)*%
X176237500Y-91050000D03*
%TO.P,J1,5,GND*%
%TO.N,GND*%
X176237500Y-90400000D03*
D29*
%TO.P,J1,6,Shield*%
X178937500Y-95200000D03*
D30*
%TO.N,unconnected-(J1-Shield-Pad6)*%
X178937500Y-94600000D03*
D31*
%TO.N,GND*%
X176237500Y-94200000D03*
D32*
%TO.N,unconnected-(J1-Shield-Pad6)*%
X178937500Y-92700000D03*
X178937500Y-90700000D03*
D31*
%TO.N,GND*%
X176237500Y-89200000D03*
D30*
%TO.N,unconnected-(J1-Shield-Pad6)*%
X178937500Y-88800000D03*
D29*
%TO.N,GND*%
X178937500Y-88200000D03*
%TD*%
D33*
%TO.P,U4,1,GND*%
%TO.N,GND*%
X144925000Y-99395000D03*
%TO.P,U4,2,T-*%
X144925000Y-100665000D03*
%TO.P,U4,3,T+*%
%TO.N,Net-(U4-T+)*%
X144925000Y-101935000D03*
%TO.P,U4,4,VCC*%
%TO.N,+3.3V*%
X144925000Y-103205000D03*
%TO.P,U4,5,SCK*%
%TO.N,Thermo_SCK*%
X149875000Y-103205000D03*
%TO.P,U4,6,~{CS}*%
%TO.N,Thermo_CS*%
X149875000Y-101935000D03*
%TO.P,U4,7,SO*%
%TO.N,Thermo_SO*%
X149875000Y-100665000D03*
%TO.P,U4,8,N.C.*%
%TO.N,unconnected-(U4-N.C.-Pad8)*%
X149875000Y-99395000D03*
%TD*%
D12*
%TO.P,J2,1,Pin_1*%
%TO.N,+3.3V*%
X157550000Y-70400000D03*
D13*
%TO.P,J2,2,Pin_2*%
%TO.N,/SYS_JTMS-SWDIO*%
X155010000Y-70400000D03*
%TO.P,J2,3,Pin_3*%
%TO.N,/SYS_JTCK-SWCLK*%
X152470000Y-70400000D03*
%TO.P,J2,4,Pin_4*%
%TO.N,GND*%
X149930000Y-70400000D03*
%TD*%
D34*
%TO.P,SW2,1,1*%
%TO.N,GND*%
X152400000Y-81300000D03*
X145900000Y-81300000D03*
%TO.P,SW2,2,2*%
%TO.N,/NRST*%
X152400000Y-76800000D03*
X145900000Y-76800000D03*
%TD*%
D35*
%TO.P,R4,1*%
%TO.N,/PWR_LED_Cathode*%
X177025000Y-102200000D03*
%TO.P,R4,2*%
%TO.N,GND*%
X175375000Y-102200000D03*
%TD*%
D11*
%TO.P,TP2,1,1*%
%TO.N,Thermo_CS*%
X152650000Y-101850000D03*
%TD*%
%TO.P,TP1,1,1*%
%TO.N,VBUS*%
X173650000Y-82950000D03*
%TD*%
D36*
%TO.P,Y1,1*%
%TO.N,/RCC_OSC_IN*%
X148700000Y-85900000D03*
%TO.P,Y1,2*%
%TO.N,/RCC_OSC_OUT*%
X143820000Y-85900000D03*
%TD*%
D37*
%TO.P,D3,1,K*%
%TO.N,Net-(D3-K)*%
X175400000Y-107787500D03*
%TO.P,D3,2,A*%
%TO.N,Relay*%
X175400000Y-106212500D03*
%TD*%
D16*
%TO.P,D1,1,K*%
%TO.N,Net-(D1-K)*%
X172287500Y-76500000D03*
%TO.P,D1,2,A*%
%TO.N,Net-(D1-A)*%
X170712500Y-76500000D03*
%TD*%
D38*
%TO.P,U1,1,VBAT*%
%TO.N,+3.3V*%
X152675000Y-90250000D03*
%TO.P,U1,2,PC13*%
%TO.N,unconnected-(U1-PC13-Pad2)*%
X152675000Y-90750000D03*
%TO.P,U1,3,PC14*%
%TO.N,unconnected-(U1-PC14-Pad3)*%
X152675000Y-91250000D03*
%TO.P,U1,4,PC15*%
%TO.N,unconnected-(U1-PC15-Pad4)*%
X152675000Y-91750000D03*
%TO.P,U1,5,PD0*%
%TO.N,/RCC_OSC_IN*%
X152675000Y-92250000D03*
%TO.P,U1,6,PD1*%
%TO.N,/RCC_OSC_OUT*%
X152675000Y-92750000D03*
%TO.P,U1,7,NRST*%
%TO.N,/NRST*%
X152675000Y-93250000D03*
%TO.P,U1,8,VSSA*%
%TO.N,GND*%
X152675000Y-93750000D03*
%TO.P,U1,9,VDDA*%
%TO.N,+3.3V*%
X152675000Y-94250000D03*
%TO.P,U1,10,PA0*%
%TO.N,/SYS_WKUP*%
X152675000Y-94750000D03*
%TO.P,U1,11,PA1*%
%TO.N,unconnected-(U1-PA1-Pad11)*%
X152675000Y-95250000D03*
%TO.P,U1,12,PA2*%
%TO.N,unconnected-(U1-PA2-Pad12)*%
X152675000Y-95750000D03*
D39*
%TO.P,U1,13,PA3*%
%TO.N,unconnected-(U1-PA3-Pad13)*%
X154087500Y-97162500D03*
%TO.P,U1,14,PA4*%
%TO.N,Thermo_CS*%
X154587500Y-97162500D03*
%TO.P,U1,15,PA5*%
%TO.N,Thermo_SCK*%
X155087500Y-97162500D03*
%TO.P,U1,16,PA6*%
%TO.N,Thermo_SO*%
X155587500Y-97162500D03*
%TO.P,U1,17,PA7*%
%TO.N,unconnected-(U1-PA7-Pad17)*%
X156087500Y-97162500D03*
%TO.P,U1,18,PB0*%
%TO.N,Net-(D1-A)*%
X156587500Y-97162500D03*
%TO.P,U1,19,PB1*%
%TO.N,unconnected-(U1-PB1-Pad19)*%
X157087500Y-97162500D03*
%TO.P,U1,20,PB2*%
%TO.N,unconnected-(U1-PB2-Pad20)*%
X157587500Y-97162500D03*
%TO.P,U1,21,PB10*%
%TO.N,unconnected-(U1-PB10-Pad21)*%
X158087500Y-97162500D03*
%TO.P,U1,22,PB11*%
%TO.N,unconnected-(U1-PB11-Pad22)*%
X158587500Y-97162500D03*
%TO.P,U1,23,VSS*%
%TO.N,GND*%
X159087500Y-97162500D03*
%TO.P,U1,24,VDD*%
%TO.N,+3.3V*%
X159587500Y-97162500D03*
D38*
%TO.P,U1,25,PB12*%
%TO.N,unconnected-(U1-PB12-Pad25)*%
X161000000Y-95750000D03*
%TO.P,U1,26,PB13*%
%TO.N,unconnected-(U1-PB13-Pad26)*%
X161000000Y-95250000D03*
%TO.P,U1,27,PB14*%
%TO.N,unconnected-(U1-PB14-Pad27)*%
X161000000Y-94750000D03*
%TO.P,U1,28,PB15*%
%TO.N,unconnected-(U1-PB15-Pad28)*%
X161000000Y-94250000D03*
%TO.P,U1,29,PA8*%
%TO.N,Relay*%
X161000000Y-93750000D03*
%TO.P,U1,30,PA9*%
%TO.N,3.3_USART1_TX_v1*%
X161000000Y-93250000D03*
%TO.P,U1,31,PA10*%
%TO.N,3.3_USART1_RX_v1*%
X161000000Y-92750000D03*
%TO.P,U1,32,PA11*%
%TO.N,/USB_DM*%
X161000000Y-92250000D03*
%TO.P,U1,33,PA12*%
%TO.N,/USB_DP*%
X161000000Y-91750000D03*
%TO.P,U1,34,PA13*%
%TO.N,/SYS_JTMS-SWDIO*%
X161000000Y-91250000D03*
%TO.P,U1,35,VSS*%
%TO.N,GND*%
X161000000Y-90750000D03*
%TO.P,U1,36,VDD*%
%TO.N,+3.3V*%
X161000000Y-90250000D03*
D39*
%TO.P,U1,37,PA14*%
%TO.N,/SYS_JTCK-SWCLK*%
X159587500Y-88837500D03*
%TO.P,U1,38,PA15*%
%TO.N,unconnected-(U1-PA15-Pad38)*%
X159087500Y-88837500D03*
%TO.P,U1,39,PB3*%
%TO.N,unconnected-(U1-PB3-Pad39)*%
X158587500Y-88837500D03*
%TO.P,U1,40,PB4*%
%TO.N,unconnected-(U1-PB4-Pad40)*%
X158087500Y-88837500D03*
%TO.P,U1,41,PB5*%
%TO.N,unconnected-(U1-PB5-Pad41)*%
X157587500Y-88837500D03*
%TO.P,U1,42,PB6*%
%TO.N,Net-(U1-PB6)*%
X157087500Y-88837500D03*
%TO.P,U1,43,PB7*%
%TO.N,Net-(U1-PB7)*%
X156587500Y-88837500D03*
%TO.P,U1,44,BOOT0*%
%TO.N,/BOOT*%
X156087500Y-88837500D03*
%TO.P,U1,45,PB8*%
%TO.N,unconnected-(U1-PB8-Pad45)*%
X155587500Y-88837500D03*
%TO.P,U1,46,PB9*%
%TO.N,unconnected-(U1-PB9-Pad46)*%
X155087500Y-88837500D03*
%TO.P,U1,47,VSS*%
%TO.N,GND*%
X154587500Y-88837500D03*
%TO.P,U1,48,VDD*%
%TO.N,+3.3V*%
X154087500Y-88837500D03*
%TD*%
D20*
%TO.P,C10,1*%
%TO.N,VBUS*%
X175600000Y-82520000D03*
%TO.P,C10,2*%
%TO.N,GND*%
X175600000Y-83480000D03*
%TD*%
D19*
%TO.P,C2,1*%
%TO.N,+3.3V*%
X159860000Y-98650000D03*
%TO.P,C2,2*%
%TO.N,GND*%
X158900000Y-98650000D03*
%TD*%
%TO.P,C9,1*%
%TO.N,+3.3V*%
X164150000Y-82100000D03*
%TO.P,C9,2*%
%TO.N,GND*%
X163190000Y-82100000D03*
%TD*%
%TO.P,C5,1*%
%TO.N,+3.3V*%
X152530000Y-89200000D03*
%TO.P,C5,2*%
%TO.N,GND*%
X151570000Y-89200000D03*
%TD*%
D22*
%TO.P,H3,1*%
%TO.N,GND*%
X177150000Y-112700000D03*
%TD*%
D27*
%TO.P,R2,1*%
%TO.N,+3.3V*%
X168300000Y-89775000D03*
%TO.P,R2,2*%
%TO.N,/USB_DP*%
X168300000Y-91425000D03*
%TD*%
D37*
%TO.P,D4,1,K*%
%TO.N,Net-(D4-K)*%
X146200000Y-108787500D03*
%TO.P,D4,2,A*%
%TO.N,Thermo_CS*%
X146200000Y-107212500D03*
%TD*%
D20*
%TO.P,C18,1*%
%TO.N,+3.3V*%
X143000000Y-103420000D03*
%TO.P,C18,2*%
%TO.N,GND*%
X143000000Y-104380000D03*
%TD*%
D15*
%TO.P,R3,1*%
%TO.N,GND*%
X162175000Y-88700000D03*
%TO.P,R3,2*%
%TO.N,Net-(U2-OE)*%
X163825000Y-88700000D03*
%TD*%
D40*
%TO.P,SW1,1,C*%
%TO.N,+3.3V*%
X165550000Y-78350000D03*
D41*
%TO.P,SW1,2,B*%
%TO.N,Net-(SW1-B)*%
X163050000Y-78350000D03*
%TO.P,SW1,3,A*%
%TO.N,GND*%
X160550000Y-78350000D03*
%TO.P,SW1,4*%
%TO.N,N/C*%
X165550000Y-75150000D03*
%TO.P,SW1,5*%
X163050000Y-75150000D03*
%TO.P,SW1,6*%
X160550000Y-75150000D03*
%TD*%
D22*
%TO.P,H4,1*%
%TO.N,GND*%
X143250000Y-112900000D03*
%TD*%
D42*
%TO.P,C17,1*%
%TO.N,+3.3V*%
X160587500Y-100350000D03*
%TO.P,C17,2*%
%TO.N,GND*%
X158512500Y-100350000D03*
%TD*%
D43*
%TO.N,3.3_USART1_TX_v1*%
X167100000Y-88100000D03*
X167200000Y-94400000D03*
%TO.N,3.3_USART1_RX_v1*%
X167109673Y-87050042D03*
X167879656Y-93379656D03*
%TO.N,VBUS*%
X170450000Y-98050000D03*
%TO.N,GND*%
X170675016Y-78300000D03*
X147200000Y-100100000D03*
%TO.N,+3.3V*%
X164150000Y-100350000D03*
X170450000Y-100350000D03*
X168700000Y-89775000D03*
%TO.N,Thermo_CS*%
X146200000Y-107212500D03*
%TO.N,/NRST*%
X154200000Y-92200000D03*
%TO.N,/SYS_JTMS-SWDIO*%
X159466768Y-91188761D03*
%TO.N,/SYS_JTCK-SWCLK*%
X160578038Y-88447056D03*
%TO.N,Net-(D1-A)*%
X170712500Y-76500000D03*
X156600000Y-95700000D03*
%TD*%
D44*
%TO.N,VBUS*%
X174600000Y-96837500D02*
X174600000Y-94100000D01*
X174600000Y-94100000D02*
X175700000Y-93000000D01*
X172950000Y-98487500D02*
X174600000Y-96837500D01*
X175700000Y-93000000D02*
X176237500Y-93000000D01*
D45*
%TO.N,+3.3V*%
X168300000Y-89775000D02*
X168100000Y-89575000D01*
X168100000Y-89575000D02*
X168100000Y-84850001D01*
X168100000Y-84850001D02*
X166474999Y-83225000D01*
X166474999Y-83225000D02*
X165737500Y-83225000D01*
X164150000Y-82409999D02*
X164965001Y-83225000D01*
X164150000Y-82100000D02*
X164150000Y-82409999D01*
X164965001Y-83225000D02*
X165737500Y-83225000D01*
%TO.N,Net-(U2-A4)*%
X163650000Y-83850000D02*
X163657106Y-83850000D01*
X163657106Y-83850000D02*
X164982106Y-85175000D01*
X164982106Y-85175000D02*
X165737500Y-85175000D01*
%TO.N,Net-(U2-B6)*%
X171462500Y-86475000D02*
X172199999Y-86475000D01*
X172199999Y-86475000D02*
X172924999Y-87200000D01*
X172924999Y-87200000D02*
X173650000Y-87200000D01*
%TO.N,Net-(U2-A6)*%
X163650000Y-86050000D02*
X164075000Y-86475000D01*
X164075000Y-86475000D02*
X165737500Y-86475000D01*
%TO.N,Net-(U2-B4)*%
X171487500Y-85150000D02*
X171462500Y-85175000D01*
X173650000Y-85150000D02*
X171487500Y-85150000D01*
D46*
%TO.N,+3.3V*%
X143000000Y-99000000D02*
X143000000Y-103420000D01*
X147420000Y-94580000D02*
X143000000Y-99000000D01*
X151150000Y-94580000D02*
X147420000Y-94580000D01*
D45*
%TO.N,3.3_USART1_RX_v1*%
X167609312Y-93650000D02*
X167879656Y-93379656D01*
X165450000Y-93650000D02*
X167609312Y-93650000D01*
%TO.N,+3.3V*%
X168405000Y-90070000D02*
X168700000Y-89775000D01*
X162550000Y-90070000D02*
X168405000Y-90070000D01*
D46*
X168300000Y-89775000D02*
X168700000Y-89775000D01*
D45*
%TO.N,3.3_USART1_TX_v1*%
X167100000Y-94500000D02*
X167200000Y-94400000D01*
X164250000Y-94500000D02*
X167100000Y-94500000D01*
X163400000Y-93650000D02*
X164250000Y-94500000D01*
X166775000Y-87775000D02*
X165737500Y-87775000D01*
X167100000Y-88100000D02*
X166775000Y-87775000D01*
%TO.N,3.3_USART1_RX_v1*%
X167034715Y-87125000D02*
X167109673Y-87050042D01*
X165737500Y-87125000D02*
X167034715Y-87125000D01*
D46*
%TO.N,Net-(U1-PB6)*%
X158650000Y-86000000D02*
X157087500Y-87562500D01*
X157087500Y-87562500D02*
X157087500Y-88837500D01*
X159400000Y-86000000D02*
X158650000Y-86000000D01*
%TO.N,Net-(U1-PB7)*%
X156587500Y-86012500D02*
X156587500Y-88837500D01*
X158700000Y-83900000D02*
X156587500Y-86012500D01*
X159400000Y-83900000D02*
X158700000Y-83900000D01*
D45*
%TO.N,/BOOT*%
X156087500Y-84712500D02*
X156087500Y-88837500D01*
X158950000Y-81850000D02*
X156087500Y-84712500D01*
X158950000Y-81810000D02*
X158950000Y-81850000D01*
D44*
%TO.N,VBUS*%
X164820000Y-70350000D02*
X166320000Y-68850000D01*
X173375000Y-83225000D02*
X173650000Y-82950000D01*
X170950000Y-68850000D02*
X173650000Y-71550000D01*
X173650000Y-71550000D02*
X173650000Y-82950000D01*
X170887500Y-98487500D02*
X170450000Y-98050000D01*
X173650000Y-82950000D02*
X174080000Y-82520000D01*
X174080000Y-82520000D02*
X175600000Y-82520000D01*
X171462500Y-83225000D02*
X173375000Y-83225000D01*
X166320000Y-68850000D02*
X170950000Y-68850000D01*
X172950000Y-98487500D02*
X170887500Y-98487500D01*
D45*
%TO.N,GND*%
X159087500Y-97162500D02*
X159087500Y-98462500D01*
X158900000Y-99962500D02*
X158512500Y-100350000D01*
X161000000Y-90750000D02*
X160159380Y-90750000D01*
X176237500Y-90400000D02*
X172700000Y-90400000D01*
X161554000Y-77346000D02*
X163492000Y-77346000D01*
D46*
X144925000Y-99395000D02*
X146495000Y-99395000D01*
X175325000Y-102250000D02*
X172950000Y-102250000D01*
D45*
X159334380Y-89925000D02*
X154834380Y-89925000D01*
X151280000Y-93750000D02*
X151150000Y-93620000D01*
X171462500Y-89162500D02*
X171462500Y-88425000D01*
D46*
X160739736Y-89205000D02*
X160019736Y-89925000D01*
D45*
X162550000Y-91030000D02*
X162270000Y-90750000D01*
D46*
X175375000Y-102200000D02*
X175325000Y-102250000D01*
X162175000Y-88700000D02*
X162295000Y-88820000D01*
D45*
X171462500Y-88425000D02*
X171675000Y-88425000D01*
D46*
X170675000Y-78300000D02*
X170675016Y-78300000D01*
D45*
X172700000Y-90400000D02*
X171462500Y-89162500D01*
X154587500Y-87392500D02*
X154587500Y-88837500D01*
D46*
X160019736Y-89925000D02*
X159334380Y-89925000D01*
D45*
X171675000Y-88425000D02*
X171700000Y-88450000D01*
X163190000Y-82053154D02*
X163190000Y-82100000D01*
D46*
X162295000Y-89205000D02*
X160739736Y-89205000D01*
D45*
X162270000Y-90750000D02*
X161000000Y-90750000D01*
X164054000Y-77908000D02*
X164054000Y-81189154D01*
D46*
X162295000Y-88820000D02*
X162295000Y-89205000D01*
D45*
X173050000Y-102350000D02*
X172950000Y-102250000D01*
D46*
X146495000Y-99395000D02*
X147200000Y-100100000D01*
D45*
X158900000Y-98650000D02*
X158900000Y-99962500D01*
X154680000Y-87300000D02*
X154587500Y-87392500D01*
X159087500Y-98462500D02*
X158900000Y-98650000D01*
X154834380Y-89925000D02*
X154587500Y-89678120D01*
X163492000Y-77346000D02*
X164054000Y-77908000D01*
X154587500Y-89678120D02*
X154587500Y-88837500D01*
X151040000Y-93730000D02*
X151150000Y-93620000D01*
X160550000Y-78350000D02*
X161554000Y-77346000D01*
X160159380Y-90750000D02*
X159334380Y-89925000D01*
X164054000Y-81189154D02*
X163190000Y-82053154D01*
X144510000Y-92800000D02*
X144450000Y-92740000D01*
X152675000Y-93750000D02*
X151280000Y-93750000D01*
%TO.N,+3.3V*%
X152530000Y-89200000D02*
X153725000Y-89200000D01*
X153725000Y-89200000D02*
X154087500Y-88837500D01*
D44*
X175350000Y-100350000D02*
X175400000Y-100400000D01*
D45*
X165550000Y-78350000D02*
X165550000Y-80700000D01*
X158150000Y-94250000D02*
X152675000Y-94250000D01*
X157550000Y-70400000D02*
X160100000Y-72950000D01*
D44*
X160587500Y-100350000D02*
X164150000Y-100350000D01*
D46*
X143000000Y-103420000D02*
X144710000Y-103420000D01*
D45*
X159587500Y-98377500D02*
X159860000Y-98650000D01*
X165550000Y-80700000D02*
X164150000Y-82100000D01*
X162500000Y-72950000D02*
X164546000Y-74996000D01*
X154050000Y-94250000D02*
X152675000Y-94250000D01*
D44*
X170450000Y-100350000D02*
X172950000Y-100350000D01*
D46*
X161000000Y-90250000D02*
X162370000Y-90250000D01*
D45*
X164546000Y-74996000D02*
X164546000Y-77346000D01*
X159860000Y-98650000D02*
X159860000Y-99622500D01*
X154087500Y-87667500D02*
X154087500Y-88837500D01*
D46*
X162370000Y-90250000D02*
X162550000Y-90070000D01*
D45*
X152675000Y-90250000D02*
X153515620Y-90250000D01*
X152675000Y-90250000D02*
X152530000Y-90105000D01*
D46*
X144710000Y-103420000D02*
X144925000Y-103205000D01*
D45*
X153720000Y-87300000D02*
X154087500Y-87667500D01*
X152530000Y-90105000D02*
X152530000Y-89200000D01*
X164546000Y-77346000D02*
X165550000Y-78350000D01*
X159587500Y-97162500D02*
X159587500Y-98377500D01*
X151480000Y-94250000D02*
X152675000Y-94250000D01*
D44*
X172950000Y-100350000D02*
X175350000Y-100350000D01*
D45*
X160100000Y-72950000D02*
X162500000Y-72950000D01*
X155000000Y-91734380D02*
X155000000Y-93300000D01*
X159587500Y-95687500D02*
X158150000Y-94250000D01*
X159860000Y-99622500D02*
X160587500Y-100350000D01*
X155000000Y-93300000D02*
X154050000Y-94250000D01*
X151150000Y-94580000D02*
X151480000Y-94250000D01*
X159587500Y-97162500D02*
X159587500Y-95687500D01*
X153515620Y-90250000D02*
X155000000Y-91734380D01*
D46*
%TO.N,/PWR_LED_Cathode*%
X176975000Y-100400000D02*
X176975000Y-102150000D01*
X176975000Y-102150000D02*
X177025000Y-102200000D01*
D45*
%TO.N,Thermo_CS*%
X152650000Y-101850000D02*
X154587500Y-99912500D01*
D46*
X149875000Y-101935000D02*
X152565000Y-101935000D01*
D45*
X154587500Y-99912500D02*
X154587500Y-97162500D01*
D46*
X152565000Y-101935000D02*
X152650000Y-101850000D01*
X146200000Y-107200000D02*
X146200000Y-107212500D01*
%TO.N,Thermo_SCK*%
X155087500Y-97162500D02*
X155087500Y-101062500D01*
X155087500Y-101062500D02*
X152650000Y-103500000D01*
X152005000Y-103205000D02*
X152650000Y-103850000D01*
X152650000Y-103500000D02*
X152650000Y-103850000D01*
X149875000Y-103205000D02*
X152005000Y-103205000D01*
D45*
%TO.N,Thermo_SO*%
X152650000Y-99850000D02*
X152650000Y-97259380D01*
D46*
X151835000Y-100665000D02*
X152650000Y-99850000D01*
D45*
X155587500Y-96321880D02*
X155587500Y-97162500D01*
X152650000Y-97259380D02*
X153834380Y-96075000D01*
D46*
X149875000Y-100665000D02*
X151835000Y-100665000D01*
D45*
X153834380Y-96075000D02*
X155340620Y-96075000D01*
X155340620Y-96075000D02*
X155587500Y-96321880D01*
%TO.N,3.3_USART1_RX_v1*%
X165450000Y-93650000D02*
X164550000Y-92750000D01*
X164550000Y-92750000D02*
X161000000Y-92750000D01*
%TO.N,3.3_USART1_TX_v1*%
X162600000Y-93650000D02*
X162200000Y-93250000D01*
X162200000Y-93250000D02*
X161000000Y-93250000D01*
X163400000Y-93650000D02*
X162600000Y-93650000D01*
D46*
%TO.N,/RCC_OSC_IN*%
X148680000Y-89180000D02*
X151750000Y-92250000D01*
X148700000Y-85900000D02*
X148700000Y-88980000D01*
X148680000Y-89000000D02*
X148680000Y-89180000D01*
X151750000Y-92250000D02*
X152675000Y-92250000D01*
X148700000Y-88980000D02*
X148680000Y-89000000D01*
%TO.N,/RCC_OSC_OUT*%
X143820000Y-85900000D02*
X145580000Y-87660000D01*
X149330000Y-92750000D02*
X152675000Y-92750000D01*
X145580000Y-89000000D02*
X149330000Y-92750000D01*
X145580000Y-87660000D02*
X145580000Y-89000000D01*
%TO.N,/NRST*%
X154200000Y-92200000D02*
X154200000Y-92530264D01*
X153480264Y-93250000D02*
X152675000Y-93250000D01*
X154200000Y-92530264D02*
X153480264Y-93250000D01*
%TO.N,Net-(D1-K)*%
X172287500Y-78262500D02*
X172325000Y-78300000D01*
X172287500Y-76500000D02*
X172287500Y-78262500D01*
D45*
%TO.N,/USB_DM*%
X161000000Y-92250000D02*
X176137500Y-92250000D01*
X176137500Y-92250000D02*
X176237500Y-92350000D01*
D46*
%TO.N,/USB_DP*%
X168300000Y-91425000D02*
X168300000Y-91650000D01*
X168300000Y-91650000D02*
X168200000Y-91750000D01*
D45*
X176187500Y-91750000D02*
X176237500Y-91700000D01*
X167350000Y-91750000D02*
X176187500Y-91750000D01*
X161000000Y-91750000D02*
X167350000Y-91750000D01*
D46*
X168200000Y-91750000D02*
X167350000Y-91750000D01*
%TO.N,/SYS_JTMS-SWDIO*%
X159528007Y-91250000D02*
X159466768Y-91188761D01*
X161000000Y-91250000D02*
X159528007Y-91250000D01*
%TO.N,/SYS_JTCK-SWCLK*%
X159977944Y-88447056D02*
X160578038Y-88447056D01*
X159587500Y-88837500D02*
X159977944Y-88447056D01*
%TO.N,Net-(U2-OE)*%
X165712500Y-88400000D02*
X165737500Y-88425000D01*
X164125000Y-88400000D02*
X165712500Y-88400000D01*
X163825000Y-88700000D02*
X164125000Y-88400000D01*
%TO.N,/USART1_RX_5V*%
X169419032Y-86069032D02*
X170475000Y-87125000D01*
X170475000Y-87125000D02*
X171462500Y-87125000D01*
X169900000Y-70350000D02*
X169419032Y-70830968D01*
X169419032Y-70830968D02*
X169419032Y-86069032D01*
%TO.N,/USART1_TX_5V*%
X169825000Y-87775000D02*
X168700000Y-86650000D01*
X168700000Y-71690000D02*
X167360000Y-70350000D01*
X168700000Y-86650000D02*
X168700000Y-71690000D01*
X171462500Y-87775000D02*
X169825000Y-87775000D01*
%TO.N,unconnected-(J1-Shield-Pad6)*%
X178937500Y-88800000D02*
X178937500Y-90700000D01*
X178937500Y-92700000D02*
X178937500Y-94600000D01*
X178937500Y-92700000D02*
X178937500Y-90700000D01*
%TO.N,Relay*%
X168207500Y-106212500D02*
X164420000Y-110000000D01*
D45*
X165825000Y-97734380D02*
X165825000Y-108595000D01*
X165825000Y-108595000D02*
X164420000Y-110000000D01*
D46*
X175400000Y-106212500D02*
X168207500Y-106212500D01*
D45*
X161840620Y-93750000D02*
X165825000Y-97734380D01*
X161000000Y-93750000D02*
X161840620Y-93750000D01*
%TO.N,Net-(SW1-B)*%
X158950000Y-80790000D02*
X160610000Y-80790000D01*
X160610000Y-80790000D02*
X163050000Y-78350000D01*
D46*
%TO.N,Net-(U4-T+)*%
X153975000Y-110000000D02*
X156700000Y-110000000D01*
X145910000Y-101935000D02*
X153975000Y-110000000D01*
X144925000Y-101935000D02*
X145910000Y-101935000D01*
X155800000Y-110350000D02*
X156100000Y-110350000D01*
%TO.N,Net-(D1-A)*%
X156587500Y-97162500D02*
X156587500Y-95712500D01*
X156587500Y-95712500D02*
X156600000Y-95700000D01*
%TO.N,Net-(D3-K)*%
X175437500Y-107825000D02*
X175400000Y-107787500D01*
X177200000Y-107825000D02*
X175437500Y-107825000D01*
%TO.N,Net-(D4-K)*%
X146200000Y-108787500D02*
X144437500Y-108787500D01*
X144437500Y-108787500D02*
X144400000Y-108825000D01*
%TD*%
%TA.AperFunction,Conductor*%
%TO.N,GND*%
G36*
X177624152Y-66356630D02*
G01*
X177643772Y-66358200D01*
X177755498Y-66376156D01*
X177969416Y-66411426D01*
X177981888Y-66414150D01*
X178133105Y-66455455D01*
X178134381Y-66455812D01*
X178307943Y-66505538D01*
X178319058Y-66509302D01*
X178365234Y-66527422D01*
X178470736Y-66568823D01*
X178473107Y-66569782D01*
X178633850Y-66636719D01*
X178643579Y-66641274D01*
X178651086Y-66645194D01*
X178790239Y-66717859D01*
X178793327Y-66719528D01*
X178939541Y-66801341D01*
X178943146Y-66803358D01*
X178951433Y-66808431D01*
X179090125Y-66901002D01*
X179093836Y-66903580D01*
X179154914Y-66947711D01*
X179231971Y-67003388D01*
X179238837Y-67008725D01*
X179296968Y-67057277D01*
X179367298Y-67116018D01*
X179371516Y-67119706D01*
X179496771Y-67234362D01*
X179502246Y-67239694D01*
X179571698Y-67311657D01*
X179618689Y-67360347D01*
X179623161Y-67365237D01*
X179702241Y-67456500D01*
X179734226Y-67493413D01*
X179738445Y-67498555D01*
X179841282Y-67630965D01*
X179845800Y-67637169D01*
X179941449Y-67777447D01*
X179944512Y-67782167D01*
X179956974Y-67802355D01*
X180032425Y-67924582D01*
X180036731Y-67932139D01*
X180115842Y-68083034D01*
X180117904Y-68087151D01*
X180189772Y-68237559D01*
X180193616Y-68246488D01*
X180255255Y-68406675D01*
X180256493Y-68410036D01*
X180311415Y-68566072D01*
X180314539Y-68576351D01*
X180357929Y-68745030D01*
X180358541Y-68747514D01*
X180395854Y-68906061D01*
X180398003Y-68917629D01*
X180422510Y-69096422D01*
X180422709Y-69097944D01*
X180442053Y-69253347D01*
X180442977Y-69266102D01*
X180447374Y-69478862D01*
X180447383Y-69479373D01*
X180449429Y-69603068D01*
X180449366Y-69609581D01*
X180448673Y-69628828D01*
X180426589Y-69695116D01*
X180425934Y-69695643D01*
X180446382Y-69731765D01*
X180449633Y-69759866D01*
X180465267Y-87763968D01*
X180445641Y-87831025D01*
X180392876Y-87876826D01*
X180323727Y-87886829D01*
X180260146Y-87857859D01*
X180251481Y-87848560D01*
X180251317Y-87848725D01*
X180245044Y-87842452D01*
X180129835Y-87756206D01*
X180129828Y-87756202D01*
X180007800Y-87710689D01*
X179956625Y-87674783D01*
X179875491Y-87579265D01*
X179728304Y-87467377D01*
X179560507Y-87389745D01*
X179560503Y-87389743D01*
X179379943Y-87350000D01*
X179062500Y-87350000D01*
X179062500Y-87575500D01*
X179042815Y-87642539D01*
X178990011Y-87688294D01*
X178938500Y-87699500D01*
X178936500Y-87699500D01*
X178869461Y-87679815D01*
X178823706Y-87627011D01*
X178812500Y-87575500D01*
X178812500Y-87350000D01*
X178541414Y-87350000D01*
X178403699Y-87364977D01*
X178403695Y-87364978D01*
X178228488Y-87424013D01*
X178070067Y-87519332D01*
X178070066Y-87519333D01*
X177935844Y-87646475D01*
X177923016Y-87665395D01*
X177869101Y-87709835D01*
X177863716Y-87711988D01*
X177745171Y-87756202D01*
X177745164Y-87756206D01*
X177629955Y-87842452D01*
X177629952Y-87842455D01*
X177543706Y-87957664D01*
X177543702Y-87957671D01*
X177493408Y-88092517D01*
X177487001Y-88152116D01*
X177487000Y-88152135D01*
X177487000Y-89447870D01*
X177487001Y-89447876D01*
X177493408Y-89507483D01*
X177539726Y-89631667D01*
X177544710Y-89701359D01*
X177539726Y-89718333D01*
X177493408Y-89842517D01*
X177487001Y-89902116D01*
X177487000Y-89902135D01*
X177487000Y-90410046D01*
X177467315Y-90477085D01*
X177414511Y-90522840D01*
X177345353Y-90532784D01*
X177281797Y-90503759D01*
X177275319Y-90497727D01*
X177270048Y-90492456D01*
X177270046Y-90492455D01*
X177270046Y-90492454D01*
X177198739Y-90439073D01*
X177156870Y-90383142D01*
X177151886Y-90313450D01*
X177162500Y-90294011D01*
X177162500Y-90175373D01*
X177162499Y-90175371D01*
X177147996Y-90102459D01*
X177147994Y-90102455D01*
X177092740Y-90019760D01*
X177034251Y-89980680D01*
X176989445Y-89927068D01*
X176980738Y-89857743D01*
X177007289Y-89798911D01*
X177052104Y-89744304D01*
X177052109Y-89744296D01*
X177142640Y-89574923D01*
X177198392Y-89391136D01*
X177198393Y-89391134D01*
X177217217Y-89200000D01*
X177198393Y-89008865D01*
X177198392Y-89008863D01*
X177142640Y-88825076D01*
X177052107Y-88655699D01*
X177052105Y-88655697D01*
X177009947Y-88604327D01*
X176613154Y-89001120D01*
X176585618Y-88947077D01*
X176490423Y-88851882D01*
X176436378Y-88824344D01*
X176833170Y-88427552D01*
X176833170Y-88427551D01*
X176781801Y-88385394D01*
X176781795Y-88385390D01*
X176612423Y-88294859D01*
X176428636Y-88239107D01*
X176428634Y-88239106D01*
X176237500Y-88220282D01*
X176046365Y-88239106D01*
X176046363Y-88239107D01*
X175862576Y-88294859D01*
X175693197Y-88385393D01*
X175641828Y-88427550D01*
X175641828Y-88427551D01*
X176038621Y-88824344D01*
X175984577Y-88851882D01*
X175889382Y-88947077D01*
X175861844Y-89001121D01*
X175465051Y-88604328D01*
X175465050Y-88604328D01*
X175422893Y-88655697D01*
X175332359Y-88825076D01*
X175276607Y-89008863D01*
X175276606Y-89008865D01*
X175257782Y-89200000D01*
X175276606Y-89391134D01*
X175276607Y-89391136D01*
X175332359Y-89574923D01*
X175422890Y-89744296D01*
X175422894Y-89744303D01*
X175467711Y-89798912D01*
X175495024Y-89863222D01*
X175483233Y-89932090D01*
X175440749Y-89980679D01*
X175382260Y-90019760D01*
X175327005Y-90102455D01*
X175327003Y-90102459D01*
X175312500Y-90175371D01*
X175312500Y-90294014D01*
X175323113Y-90313451D01*
X175318129Y-90383143D01*
X175276258Y-90439075D01*
X175204955Y-90492452D01*
X175204952Y-90492455D01*
X175118706Y-90607664D01*
X175118702Y-90607671D01*
X175068877Y-90741261D01*
X175068409Y-90742517D01*
X175062000Y-90802127D01*
X175062000Y-90935394D01*
X175062001Y-90975499D01*
X175042317Y-91042539D01*
X174989513Y-91088294D01*
X174938001Y-91099500D01*
X169360856Y-91099500D01*
X169293817Y-91079815D01*
X169248062Y-91027011D01*
X169242470Y-91012390D01*
X169238767Y-91000505D01*
X169218478Y-90935394D01*
X169130472Y-90789815D01*
X169130470Y-90789813D01*
X169130469Y-90789811D01*
X169105302Y-90764644D01*
X169071817Y-90703321D01*
X169076801Y-90633629D01*
X169118673Y-90577696D01*
X169142543Y-90563686D01*
X169152730Y-90559151D01*
X169305871Y-90447888D01*
X169432533Y-90307216D01*
X169527179Y-90143284D01*
X169585674Y-89963256D01*
X169605460Y-89775000D01*
X169585674Y-89586744D01*
X169527179Y-89406716D01*
X169432533Y-89242784D01*
X169305871Y-89102112D01*
X169305870Y-89102111D01*
X169152734Y-88990851D01*
X169152729Y-88990848D01*
X168979807Y-88913857D01*
X168979802Y-88913855D01*
X168848719Y-88885993D01*
X168787237Y-88852801D01*
X168753461Y-88791638D01*
X168750500Y-88764703D01*
X168750500Y-87884452D01*
X168770185Y-87817413D01*
X168822989Y-87771658D01*
X168892147Y-87761714D01*
X168955703Y-87790739D01*
X168962175Y-87796766D01*
X169143259Y-87977850D01*
X169324197Y-88158788D01*
X169334022Y-88171051D01*
X169334243Y-88170869D01*
X169339211Y-88176874D01*
X169339213Y-88176876D01*
X169339214Y-88176877D01*
X169340241Y-88177841D01*
X169388222Y-88222899D01*
X169391021Y-88225612D01*
X169410522Y-88245114D01*
X169410526Y-88245117D01*
X169410529Y-88245120D01*
X169413702Y-88247581D01*
X169422574Y-88255159D01*
X169454418Y-88285062D01*
X169471976Y-88294714D01*
X169488235Y-88305395D01*
X169504064Y-88317673D01*
X169544155Y-88335021D01*
X169554626Y-88340151D01*
X169577180Y-88352550D01*
X169592902Y-88361194D01*
X169592904Y-88361195D01*
X169592908Y-88361197D01*
X169612316Y-88366180D01*
X169630719Y-88372481D01*
X169649101Y-88380436D01*
X169649102Y-88380436D01*
X169649104Y-88380437D01*
X169692250Y-88387270D01*
X169703672Y-88389636D01*
X169745981Y-88400500D01*
X169766016Y-88400500D01*
X169785414Y-88402026D01*
X169805194Y-88405159D01*
X169805195Y-88405160D01*
X169805195Y-88405159D01*
X169805196Y-88405160D01*
X169848675Y-88401050D01*
X169860344Y-88400500D01*
X170351001Y-88400500D01*
X170418040Y-88420185D01*
X170463795Y-88472989D01*
X170475001Y-88524500D01*
X170475001Y-88558213D01*
X170484912Y-88626248D01*
X170536215Y-88731191D01*
X170618811Y-88813787D01*
X170723748Y-88865087D01*
X170723751Y-88865088D01*
X170791780Y-88874999D01*
X171337499Y-88874999D01*
X171337500Y-88874998D01*
X171337500Y-88599499D01*
X171357185Y-88532460D01*
X171409989Y-88486705D01*
X171461497Y-88475499D01*
X171463501Y-88475499D01*
X171530539Y-88495184D01*
X171576294Y-88547988D01*
X171587500Y-88599499D01*
X171587500Y-88874999D01*
X172133218Y-88874999D01*
X172201249Y-88865087D01*
X172306191Y-88813784D01*
X172388787Y-88731188D01*
X172440087Y-88626251D01*
X172440088Y-88626248D01*
X172450000Y-88558219D01*
X172450000Y-88550000D01*
X172444369Y-88544369D01*
X172410884Y-88483046D01*
X172415868Y-88413354D01*
X172456562Y-88358314D01*
X172528282Y-88303282D01*
X172624536Y-88177841D01*
X172641229Y-88137540D01*
X172685068Y-88083139D01*
X172751362Y-88061073D01*
X172819061Y-88078351D01*
X172830094Y-88085723D01*
X172896448Y-88135396D01*
X172907668Y-88143795D01*
X172907671Y-88143797D01*
X173042517Y-88194091D01*
X173042516Y-88194091D01*
X173049444Y-88194835D01*
X173102127Y-88200500D01*
X174197872Y-88200499D01*
X174257483Y-88194091D01*
X174392331Y-88143796D01*
X174507546Y-88057546D01*
X174593796Y-87942331D01*
X174644091Y-87807483D01*
X174650500Y-87747873D01*
X174650499Y-86652128D01*
X174644091Y-86592517D01*
X174623573Y-86537506D01*
X174593797Y-86457671D01*
X174593793Y-86457664D01*
X174507547Y-86342456D01*
X174507548Y-86342456D01*
X174507546Y-86342454D01*
X174416457Y-86274265D01*
X174374588Y-86218333D01*
X174369604Y-86148641D01*
X174403089Y-86087318D01*
X174416452Y-86075738D01*
X174507546Y-86007546D01*
X174593796Y-85892331D01*
X174644091Y-85757483D01*
X174650500Y-85697873D01*
X174650499Y-84602128D01*
X174644091Y-84542517D01*
X174639263Y-84529573D01*
X174593797Y-84407671D01*
X174593793Y-84407664D01*
X174507547Y-84292455D01*
X174507544Y-84292452D01*
X174392335Y-84206206D01*
X174392328Y-84206202D01*
X174285027Y-84166182D01*
X174229093Y-84124311D01*
X174204676Y-84058847D01*
X174219527Y-83990574D01*
X174268932Y-83941168D01*
X174285027Y-83933818D01*
X174392328Y-83893797D01*
X174392327Y-83893797D01*
X174392331Y-83893796D01*
X174507546Y-83807546D01*
X174593796Y-83692331D01*
X174626368Y-83605000D01*
X175040001Y-83605000D01*
X175040001Y-83650689D01*
X175054465Y-83742017D01*
X175110552Y-83852093D01*
X175110555Y-83852098D01*
X175197901Y-83939444D01*
X175197906Y-83939448D01*
X175307984Y-83995536D01*
X175399303Y-84009999D01*
X175474999Y-84009998D01*
X175475000Y-84009998D01*
X175475000Y-83605000D01*
X175725000Y-83605000D01*
X175725000Y-84009999D01*
X175800689Y-84009999D01*
X175892017Y-83995534D01*
X176002093Y-83939447D01*
X176002098Y-83939444D01*
X176089444Y-83852098D01*
X176089448Y-83852093D01*
X176145536Y-83742015D01*
X176160000Y-83650691D01*
X176160000Y-83605000D01*
X175725000Y-83605000D01*
X175475000Y-83605000D01*
X175040001Y-83605000D01*
X174626368Y-83605000D01*
X174644091Y-83557483D01*
X174650500Y-83497873D01*
X174650500Y-83394500D01*
X174670185Y-83327461D01*
X174722989Y-83281706D01*
X174774500Y-83270500D01*
X174916000Y-83270500D01*
X174983039Y-83290185D01*
X175028794Y-83342989D01*
X175029017Y-83344017D01*
X175040000Y-83355000D01*
X176159999Y-83355000D01*
X176159999Y-83309305D01*
X176151629Y-83256461D01*
X176160583Y-83187168D01*
X176186419Y-83149384D01*
X176280117Y-83055687D01*
X176362494Y-82916395D01*
X176407643Y-82760993D01*
X176410500Y-82724690D01*
X176410500Y-82315310D01*
X176407643Y-82279007D01*
X176405119Y-82270321D01*
X176362495Y-82123609D01*
X176362494Y-82123606D01*
X176362494Y-82123605D01*
X176280117Y-81984313D01*
X176280115Y-81984311D01*
X176280112Y-81984307D01*
X176165692Y-81869887D01*
X176165684Y-81869881D01*
X176061021Y-81807984D01*
X176026395Y-81787506D01*
X176026394Y-81787505D01*
X176026393Y-81787505D01*
X176026390Y-81787504D01*
X175870997Y-81742357D01*
X175870991Y-81742356D01*
X175834697Y-81739500D01*
X175834690Y-81739500D01*
X175365310Y-81739500D01*
X175365302Y-81739500D01*
X175329008Y-81742356D01*
X175329005Y-81742357D01*
X175270835Y-81759257D01*
X175252528Y-81764576D01*
X175217934Y-81769500D01*
X174524500Y-81769500D01*
X174457461Y-81749815D01*
X174411706Y-81697011D01*
X174400500Y-81645500D01*
X174400500Y-71613705D01*
X174401809Y-71595735D01*
X174402129Y-71593547D01*
X174405289Y-71571977D01*
X174404026Y-71557544D01*
X174400972Y-71522630D01*
X174400500Y-71511822D01*
X174400500Y-71506296D01*
X174400500Y-71506291D01*
X174399325Y-71496243D01*
X174411091Y-71427375D01*
X174458223Y-71375797D01*
X174525759Y-71357889D01*
X174592255Y-71379336D01*
X174623615Y-71410091D01*
X174761653Y-71604636D01*
X174761659Y-71604644D01*
X174906500Y-71766720D01*
X174906501Y-71766721D01*
X175933697Y-70739524D01*
X176015130Y-70834870D01*
X176110474Y-70916301D01*
X175083278Y-71943498D01*
X175245353Y-72088339D01*
X175524744Y-72286577D01*
X175824571Y-72452286D01*
X175824575Y-72452288D01*
X176141064Y-72583380D01*
X176470237Y-72678214D01*
X176470245Y-72678216D01*
X176807962Y-72735596D01*
X176807974Y-72735598D01*
X177150000Y-72754805D01*
X177492025Y-72735598D01*
X177492037Y-72735596D01*
X177829754Y-72678216D01*
X177829762Y-72678214D01*
X178158935Y-72583380D01*
X178475424Y-72452288D01*
X178475428Y-72452286D01*
X178775255Y-72286577D01*
X179054641Y-72088342D01*
X179216720Y-71943497D01*
X178189524Y-70916301D01*
X178284870Y-70834870D01*
X178366301Y-70739524D01*
X179393497Y-71766720D01*
X179538342Y-71604641D01*
X179736577Y-71325255D01*
X179902286Y-71025428D01*
X179902288Y-71025424D01*
X180033380Y-70708935D01*
X180128214Y-70379762D01*
X180128216Y-70379754D01*
X180185596Y-70042037D01*
X180185598Y-70042025D01*
X180201828Y-69753021D01*
X180224657Y-69688830D01*
X180204596Y-69654997D01*
X180200948Y-69631318D01*
X180185598Y-69357975D01*
X180185596Y-69357962D01*
X180128216Y-69020245D01*
X180128214Y-69020237D01*
X180033380Y-68691064D01*
X179902288Y-68374575D01*
X179902286Y-68374571D01*
X179736577Y-68074744D01*
X179538339Y-67795353D01*
X179393498Y-67633278D01*
X178366301Y-68660474D01*
X178284870Y-68565130D01*
X178189524Y-68483698D01*
X179216721Y-67456501D01*
X179216720Y-67456500D01*
X179054646Y-67311660D01*
X178775255Y-67113422D01*
X178475428Y-66947713D01*
X178475424Y-66947711D01*
X178158935Y-66816619D01*
X177829762Y-66721785D01*
X177829754Y-66721783D01*
X177492037Y-66664403D01*
X177492025Y-66664401D01*
X177150000Y-66645194D01*
X176807974Y-66664401D01*
X176807962Y-66664403D01*
X176470245Y-66721783D01*
X176470237Y-66721785D01*
X176141064Y-66816619D01*
X175824575Y-66947711D01*
X175824571Y-66947713D01*
X175524744Y-67113422D01*
X175245358Y-67311657D01*
X175083278Y-67456501D01*
X176110475Y-68483698D01*
X176015130Y-68565130D01*
X175933698Y-68660475D01*
X174906501Y-67633278D01*
X174761657Y-67795358D01*
X174563422Y-68074744D01*
X174397713Y-68374571D01*
X174397711Y-68374575D01*
X174266619Y-68691064D01*
X174171785Y-69020237D01*
X174171783Y-69020245D01*
X174114403Y-69357962D01*
X174114401Y-69357974D01*
X174095194Y-69700000D01*
X174114401Y-70042025D01*
X174114403Y-70042037D01*
X174171783Y-70379754D01*
X174171785Y-70379762D01*
X174266619Y-70708935D01*
X174308296Y-70809554D01*
X174315765Y-70879023D01*
X174284489Y-70941502D01*
X174224400Y-70977154D01*
X174154575Y-70974660D01*
X174106054Y-70944687D01*
X172833538Y-69672171D01*
X171525729Y-68364361D01*
X171513949Y-68350730D01*
X171499610Y-68331470D01*
X171461651Y-68299619D01*
X171453686Y-68292318D01*
X171449780Y-68288411D01*
X171425443Y-68269168D01*
X171422647Y-68266890D01*
X171365214Y-68218698D01*
X171359180Y-68214729D01*
X171359212Y-68214680D01*
X171352853Y-68210628D01*
X171352822Y-68210679D01*
X171346680Y-68206891D01*
X171346678Y-68206890D01*
X171346677Y-68206889D01*
X171278688Y-68175184D01*
X171275447Y-68173615D01*
X171244530Y-68158088D01*
X171208433Y-68139960D01*
X171208431Y-68139959D01*
X171208430Y-68139959D01*
X171201645Y-68137489D01*
X171201665Y-68137433D01*
X171194549Y-68134959D01*
X171194531Y-68135015D01*
X171187674Y-68132743D01*
X171114210Y-68117573D01*
X171110693Y-68116793D01*
X171037718Y-68099499D01*
X171030547Y-68098661D01*
X171030553Y-68098601D01*
X171023055Y-68097835D01*
X171023050Y-68097895D01*
X171015860Y-68097265D01*
X170940870Y-68099448D01*
X170937263Y-68099500D01*
X166383705Y-68099500D01*
X166365735Y-68098191D01*
X166341972Y-68094710D01*
X166295642Y-68098764D01*
X166292632Y-68099028D01*
X166281826Y-68099500D01*
X166276284Y-68099500D01*
X166245484Y-68103100D01*
X166241899Y-68103466D01*
X166167200Y-68110001D01*
X166160133Y-68111461D01*
X166160121Y-68111404D01*
X166152754Y-68113038D01*
X166152768Y-68113094D01*
X166145745Y-68114758D01*
X166075270Y-68140407D01*
X166071870Y-68141589D01*
X166000666Y-68165185D01*
X165994119Y-68168238D01*
X165994094Y-68168186D01*
X165987310Y-68171470D01*
X165987336Y-68171521D01*
X165980884Y-68174761D01*
X165918236Y-68215965D01*
X165915196Y-68217902D01*
X165851347Y-68257285D01*
X165845682Y-68261765D01*
X165845646Y-68261719D01*
X165839798Y-68266484D01*
X165839835Y-68266528D01*
X165834310Y-68271164D01*
X165834304Y-68271169D01*
X165834304Y-68271170D01*
X165810733Y-68296153D01*
X165782848Y-68325709D01*
X165780336Y-68328294D01*
X165131500Y-68977130D01*
X165070177Y-69010615D01*
X165033012Y-69012977D01*
X164820002Y-68994341D01*
X164819999Y-68994341D01*
X164584596Y-69014936D01*
X164584586Y-69014938D01*
X164356344Y-69076094D01*
X164356335Y-69076098D01*
X164142171Y-69175964D01*
X164142169Y-69175965D01*
X163948597Y-69311505D01*
X163781505Y-69478597D01*
X163645965Y-69672169D01*
X163645964Y-69672171D01*
X163546098Y-69886335D01*
X163546095Y-69886341D01*
X163537060Y-69920063D01*
X163500695Y-69979723D01*
X163437848Y-70010252D01*
X163368472Y-70001957D01*
X163314594Y-69957472D01*
X163306285Y-69943241D01*
X163219245Y-69768443D01*
X163096391Y-69605757D01*
X162945739Y-69468421D01*
X162772415Y-69361102D01*
X162582321Y-69287460D01*
X162405000Y-69254312D01*
X162405000Y-69862830D01*
X162315763Y-69850000D01*
X162244237Y-69850000D01*
X162155000Y-69862830D01*
X162155000Y-69254312D01*
X161977678Y-69287460D01*
X161787584Y-69361102D01*
X161614260Y-69468421D01*
X161463608Y-69605757D01*
X161340754Y-69768443D01*
X161249886Y-69950930D01*
X161249883Y-69950936D01*
X161194097Y-70147007D01*
X161194097Y-70147010D01*
X161186869Y-70224999D01*
X161186870Y-70225000D01*
X161795595Y-70225000D01*
X161780000Y-70278111D01*
X161780000Y-70421889D01*
X161795595Y-70475000D01*
X161186870Y-70475000D01*
X161194097Y-70552989D01*
X161194097Y-70552992D01*
X161249883Y-70749063D01*
X161249886Y-70749069D01*
X161340754Y-70931556D01*
X161463608Y-71094242D01*
X161614260Y-71231578D01*
X161787584Y-71338897D01*
X161977678Y-71412539D01*
X162155000Y-71445686D01*
X162155000Y-70837169D01*
X162244237Y-70850000D01*
X162315763Y-70850000D01*
X162405000Y-70837169D01*
X162405000Y-71445686D01*
X162582321Y-71412539D01*
X162772415Y-71338897D01*
X162945739Y-71231578D01*
X163096391Y-71094242D01*
X163219245Y-70931556D01*
X163306285Y-70756758D01*
X163353788Y-70705521D01*
X163421451Y-70688100D01*
X163487791Y-70710026D01*
X163531746Y-70764337D01*
X163537060Y-70779937D01*
X163546094Y-70813655D01*
X163546096Y-70813659D01*
X163546097Y-70813663D01*
X163607195Y-70944687D01*
X163645965Y-71027830D01*
X163645967Y-71027834D01*
X163729204Y-71146708D01*
X163781505Y-71221401D01*
X163948599Y-71388495D01*
X164030276Y-71445686D01*
X164142165Y-71524032D01*
X164142167Y-71524033D01*
X164142170Y-71524035D01*
X164356337Y-71623903D01*
X164584592Y-71685063D01*
X164772918Y-71701539D01*
X164819999Y-71705659D01*
X164820000Y-71705659D01*
X164820001Y-71705659D01*
X164859234Y-71702226D01*
X165055408Y-71685063D01*
X165283663Y-71623903D01*
X165497830Y-71524035D01*
X165691401Y-71388495D01*
X165858495Y-71221401D01*
X165988425Y-71035842D01*
X166043002Y-70992217D01*
X166112500Y-70985023D01*
X166174855Y-71016546D01*
X166191575Y-71035842D01*
X166321500Y-71221395D01*
X166321505Y-71221401D01*
X166488599Y-71388495D01*
X166570276Y-71445686D01*
X166682165Y-71524032D01*
X166682167Y-71524033D01*
X166682170Y-71524035D01*
X166896337Y-71623903D01*
X167124592Y-71685063D01*
X167312918Y-71701539D01*
X167359999Y-71705659D01*
X167360000Y-71705659D01*
X167360001Y-71705659D01*
X167399234Y-71702226D01*
X167595408Y-71685063D01*
X167695873Y-71658143D01*
X167765722Y-71659806D01*
X167815647Y-71690237D01*
X168038181Y-71912771D01*
X168071666Y-71974094D01*
X168074500Y-72000452D01*
X168074500Y-83605193D01*
X168054815Y-83672232D01*
X168002011Y-83717987D01*
X167932853Y-83727931D01*
X167869297Y-83698906D01*
X167862819Y-83692874D01*
X167008130Y-82838185D01*
X166974645Y-82776862D01*
X166972872Y-82734320D01*
X166975500Y-82714361D01*
X166975499Y-82435640D01*
X166975499Y-82435639D01*
X166975499Y-82435636D01*
X166960046Y-82318246D01*
X166960044Y-82318241D01*
X166960044Y-82318238D01*
X166899536Y-82172159D01*
X166803282Y-82046718D01*
X166677841Y-81950464D01*
X166622128Y-81927387D01*
X166531762Y-81889956D01*
X166531760Y-81889955D01*
X166414370Y-81874501D01*
X166414367Y-81874500D01*
X166414361Y-81874500D01*
X166414354Y-81874500D01*
X165594807Y-81874500D01*
X165527768Y-81854815D01*
X165482013Y-81802011D01*
X165472069Y-81732853D01*
X165501094Y-81669297D01*
X165507126Y-81662819D01*
X165727919Y-81442026D01*
X165949513Y-81220431D01*
X165962079Y-81210365D01*
X165961925Y-81210178D01*
X165967933Y-81205205D01*
X165967940Y-81205202D01*
X165991227Y-81180402D01*
X166015865Y-81154167D01*
X166018578Y-81151367D01*
X166038911Y-81131035D01*
X166041606Y-81127560D01*
X166049199Y-81118669D01*
X166053504Y-81114085D01*
X166080448Y-81085393D01*
X166090674Y-81066790D01*
X166101353Y-81050533D01*
X166114362Y-81033764D01*
X166132498Y-80991850D01*
X166137620Y-80981395D01*
X166159627Y-80941368D01*
X166164907Y-80920802D01*
X166171209Y-80902395D01*
X166179635Y-80882926D01*
X166186777Y-80837824D01*
X166189145Y-80826397D01*
X166189337Y-80825651D01*
X166200500Y-80782177D01*
X166200500Y-80760955D01*
X166202027Y-80741555D01*
X166203601Y-80731616D01*
X166205347Y-80720595D01*
X166201050Y-80675140D01*
X166200500Y-80663470D01*
X166200500Y-79621406D01*
X166220185Y-79554367D01*
X166272989Y-79508612D01*
X166303986Y-79500108D01*
X166303932Y-79499876D01*
X166310444Y-79498336D01*
X166311250Y-79498116D01*
X166311483Y-79498091D01*
X166311489Y-79498089D01*
X166446328Y-79447797D01*
X166446327Y-79447797D01*
X166446331Y-79447796D01*
X166561546Y-79361546D01*
X166647796Y-79246331D01*
X166698091Y-79111483D01*
X166704500Y-79051873D01*
X166704499Y-77648128D01*
X166698091Y-77588517D01*
X166690769Y-77568887D01*
X166647797Y-77453671D01*
X166647793Y-77453664D01*
X166561547Y-77338455D01*
X166561544Y-77338452D01*
X166446335Y-77252206D01*
X166446328Y-77252202D01*
X166311482Y-77201908D01*
X166311483Y-77201908D01*
X166251883Y-77195501D01*
X166251881Y-77195500D01*
X166251873Y-77195500D01*
X166251865Y-77195500D01*
X165366808Y-77195500D01*
X165299769Y-77175815D01*
X165279127Y-77159181D01*
X165232819Y-77112873D01*
X165199334Y-77051550D01*
X165196500Y-77025192D01*
X165196500Y-76407744D01*
X165216185Y-76340705D01*
X165268989Y-76294950D01*
X165338147Y-76285006D01*
X165343262Y-76285852D01*
X165443020Y-76304500D01*
X165443021Y-76304500D01*
X165656978Y-76304500D01*
X165656980Y-76304500D01*
X165867297Y-76265185D01*
X166066810Y-76187893D01*
X166248722Y-76075258D01*
X166406841Y-75931114D01*
X166535781Y-75760370D01*
X166631151Y-75568840D01*
X166631151Y-75568837D01*
X166631153Y-75568835D01*
X166673167Y-75421169D01*
X166689704Y-75363048D01*
X166709446Y-75150000D01*
X166689704Y-74936952D01*
X166680733Y-74905424D01*
X166631153Y-74731164D01*
X166631150Y-74731158D01*
X166535781Y-74539630D01*
X166406841Y-74368886D01*
X166248722Y-74224742D01*
X166248716Y-74224738D01*
X166248713Y-74224736D01*
X166066813Y-74112108D01*
X166066807Y-74112106D01*
X166057365Y-74108448D01*
X165867297Y-74034815D01*
X165656980Y-73995500D01*
X165443020Y-73995500D01*
X165232703Y-74034815D01*
X165183811Y-74053756D01*
X165033192Y-74112106D01*
X165033186Y-74112108D01*
X164851280Y-74224739D01*
X164848170Y-74227089D01*
X164846417Y-74227751D01*
X164846403Y-74227760D01*
X164846401Y-74227757D01*
X164782809Y-74251781D01*
X164714474Y-74237216D01*
X164685762Y-74215816D01*
X163020434Y-72550488D01*
X163010361Y-72537914D01*
X163010174Y-72538070D01*
X163005198Y-72532054D01*
X162954167Y-72484134D01*
X162951369Y-72481423D01*
X162931035Y-72461089D01*
X162927548Y-72458384D01*
X162918669Y-72450800D01*
X162885396Y-72419554D01*
X162885388Y-72419548D01*
X162866792Y-72409325D01*
X162850531Y-72398644D01*
X162833763Y-72385637D01*
X162817409Y-72378560D01*
X162791853Y-72367501D01*
X162781394Y-72362377D01*
X162741368Y-72340373D01*
X162741365Y-72340372D01*
X162720801Y-72335092D01*
X162702396Y-72328790D01*
X162682927Y-72320365D01*
X162682921Y-72320363D01*
X162637837Y-72313223D01*
X162626398Y-72310854D01*
X162582180Y-72299500D01*
X162582177Y-72299500D01*
X162560955Y-72299500D01*
X162541555Y-72297973D01*
X162520596Y-72294653D01*
X162520595Y-72294653D01*
X162485475Y-72297973D01*
X162475140Y-72298950D01*
X162463470Y-72299500D01*
X160420808Y-72299500D01*
X160353769Y-72279815D01*
X160333127Y-72263181D01*
X158936818Y-70866872D01*
X158903333Y-70805549D01*
X158900499Y-70779191D01*
X158900499Y-69502129D01*
X158900498Y-69502123D01*
X158897969Y-69478599D01*
X158895299Y-69453757D01*
X158894091Y-69442516D01*
X158843797Y-69307671D01*
X158843793Y-69307664D01*
X158757547Y-69192455D01*
X158757544Y-69192452D01*
X158642335Y-69106206D01*
X158642328Y-69106202D01*
X158507482Y-69055908D01*
X158507483Y-69055908D01*
X158447883Y-69049501D01*
X158447881Y-69049500D01*
X158447873Y-69049500D01*
X158447864Y-69049500D01*
X156652129Y-69049500D01*
X156652123Y-69049501D01*
X156592516Y-69055908D01*
X156457671Y-69106202D01*
X156457664Y-69106206D01*
X156342455Y-69192452D01*
X156342452Y-69192455D01*
X156256206Y-69307664D01*
X156256203Y-69307669D01*
X156207189Y-69439083D01*
X156165317Y-69495016D01*
X156099853Y-69519433D01*
X156031580Y-69504581D01*
X156003326Y-69483430D01*
X155881402Y-69361506D01*
X155881395Y-69361501D01*
X155876359Y-69357975D01*
X155804518Y-69307671D01*
X155687834Y-69225967D01*
X155687830Y-69225965D01*
X155640820Y-69204044D01*
X155473663Y-69126097D01*
X155473659Y-69126096D01*
X155473655Y-69126094D01*
X155245413Y-69064938D01*
X155245403Y-69064936D01*
X155010001Y-69044341D01*
X155009999Y-69044341D01*
X154774596Y-69064936D01*
X154774586Y-69064938D01*
X154546344Y-69126094D01*
X154546335Y-69126098D01*
X154332171Y-69225964D01*
X154332169Y-69225965D01*
X154138597Y-69361505D01*
X153971505Y-69528597D01*
X153841575Y-69714158D01*
X153786998Y-69757783D01*
X153717500Y-69764977D01*
X153655145Y-69733454D01*
X153638425Y-69714158D01*
X153508494Y-69528597D01*
X153341402Y-69361506D01*
X153341395Y-69361501D01*
X153336359Y-69357975D01*
X153264518Y-69307671D01*
X153147834Y-69225967D01*
X153147830Y-69225965D01*
X153100820Y-69204044D01*
X152933663Y-69126097D01*
X152933659Y-69126096D01*
X152933655Y-69126094D01*
X152705413Y-69064938D01*
X152705403Y-69064936D01*
X152470001Y-69044341D01*
X152469999Y-69044341D01*
X152234596Y-69064936D01*
X152234586Y-69064938D01*
X152006344Y-69126094D01*
X152006335Y-69126098D01*
X151792171Y-69225964D01*
X151792169Y-69225965D01*
X151598597Y-69361505D01*
X151431505Y-69528597D01*
X151295965Y-69722169D01*
X151295964Y-69722171D01*
X151196098Y-69936335D01*
X151196095Y-69936341D01*
X151187060Y-69970063D01*
X151150695Y-70029723D01*
X151087848Y-70060252D01*
X151018472Y-70051957D01*
X150964594Y-70007472D01*
X150956285Y-69993241D01*
X150869245Y-69818443D01*
X150746391Y-69655757D01*
X150595739Y-69518421D01*
X150422415Y-69411102D01*
X150232321Y-69337460D01*
X150055000Y-69304312D01*
X150055000Y-69912830D01*
X149965763Y-69900000D01*
X149894237Y-69900000D01*
X149805000Y-69912830D01*
X149805000Y-69304312D01*
X149627678Y-69337460D01*
X149437584Y-69411102D01*
X149264260Y-69518421D01*
X149113608Y-69655757D01*
X148990754Y-69818443D01*
X148899886Y-70000930D01*
X148899883Y-70000936D01*
X148844097Y-70197007D01*
X148844097Y-70197010D01*
X148836869Y-70274999D01*
X148836870Y-70275000D01*
X149445595Y-70275000D01*
X149430000Y-70328111D01*
X149430000Y-70471889D01*
X149445595Y-70525000D01*
X148836870Y-70525000D01*
X148844097Y-70602989D01*
X148844097Y-70602992D01*
X148899883Y-70799063D01*
X148899886Y-70799069D01*
X148990754Y-70981556D01*
X149113608Y-71144242D01*
X149264260Y-71281578D01*
X149437584Y-71388897D01*
X149627678Y-71462539D01*
X149805000Y-71495686D01*
X149805000Y-70887169D01*
X149894237Y-70900000D01*
X149965763Y-70900000D01*
X150055000Y-70887169D01*
X150055000Y-71495686D01*
X150232321Y-71462539D01*
X150422415Y-71388897D01*
X150595739Y-71281578D01*
X150746391Y-71144242D01*
X150869245Y-70981556D01*
X150956285Y-70806758D01*
X151003788Y-70755521D01*
X151071451Y-70738100D01*
X151137791Y-70760026D01*
X151181746Y-70814337D01*
X151187060Y-70829937D01*
X151196094Y-70863655D01*
X151196096Y-70863659D01*
X151196097Y-70863663D01*
X151276004Y-71035023D01*
X151295965Y-71077830D01*
X151295967Y-71077834D01*
X151389130Y-71210883D01*
X151431505Y-71271401D01*
X151598599Y-71438495D01*
X151680276Y-71495686D01*
X151792165Y-71574032D01*
X151792167Y-71574033D01*
X151792170Y-71574035D01*
X152006337Y-71673903D01*
X152234592Y-71735063D01*
X152411034Y-71750500D01*
X152469999Y-71755659D01*
X152470000Y-71755659D01*
X152470001Y-71755659D01*
X152528966Y-71750500D01*
X152705408Y-71735063D01*
X152933663Y-71673903D01*
X153147830Y-71574035D01*
X153341401Y-71438495D01*
X153508495Y-71271401D01*
X153638425Y-71085842D01*
X153693002Y-71042217D01*
X153762500Y-71035023D01*
X153824855Y-71066546D01*
X153841575Y-71085842D01*
X153971500Y-71271395D01*
X153971505Y-71271401D01*
X154138599Y-71438495D01*
X154220276Y-71495686D01*
X154332165Y-71574032D01*
X154332167Y-71574033D01*
X154332170Y-71574035D01*
X154546337Y-71673903D01*
X154774592Y-71735063D01*
X154951034Y-71750500D01*
X155009999Y-71755659D01*
X155010000Y-71755659D01*
X155010001Y-71755659D01*
X155068966Y-71750500D01*
X155245408Y-71735063D01*
X155473663Y-71673903D01*
X155687830Y-71574035D01*
X155881401Y-71438495D01*
X156003329Y-71316566D01*
X156064648Y-71283084D01*
X156134340Y-71288068D01*
X156190274Y-71329939D01*
X156207189Y-71360917D01*
X156256202Y-71492328D01*
X156256206Y-71492335D01*
X156342452Y-71607544D01*
X156342455Y-71607547D01*
X156457664Y-71693793D01*
X156457671Y-71693797D01*
X156592517Y-71744091D01*
X156592516Y-71744091D01*
X156599444Y-71744835D01*
X156652127Y-71750500D01*
X157929191Y-71750499D01*
X157996230Y-71770184D01*
X158016872Y-71786818D01*
X159579564Y-73349510D01*
X159589635Y-73362080D01*
X159589822Y-73361926D01*
X159594795Y-73367937D01*
X159645832Y-73415864D01*
X159648629Y-73418575D01*
X159668968Y-73438914D01*
X159672451Y-73441616D01*
X159681327Y-73449197D01*
X159693846Y-73460953D01*
X159714607Y-73480448D01*
X159733198Y-73490668D01*
X159749463Y-73501352D01*
X159766234Y-73514361D01*
X159766237Y-73514363D01*
X159808144Y-73532497D01*
X159818618Y-73537628D01*
X159858632Y-73559627D01*
X159879193Y-73564905D01*
X159897597Y-73571207D01*
X159917074Y-73579636D01*
X159962178Y-73586779D01*
X159973597Y-73589144D01*
X160017823Y-73600500D01*
X160039045Y-73600500D01*
X160058442Y-73602026D01*
X160079405Y-73605347D01*
X160124863Y-73601049D01*
X160136531Y-73600500D01*
X162179192Y-73600500D01*
X162246231Y-73620185D01*
X162266873Y-73636819D01*
X162551554Y-73921500D01*
X162585039Y-73982823D01*
X162580055Y-74052515D01*
X162538183Y-74108448D01*
X162529151Y-74114608D01*
X162351282Y-74224739D01*
X162351280Y-74224740D01*
X162351278Y-74224742D01*
X162193159Y-74368886D01*
X162193158Y-74368887D01*
X162064219Y-74539629D01*
X161968849Y-74731158D01*
X161968846Y-74731164D01*
X161919266Y-74905424D01*
X161881987Y-74964517D01*
X161818678Y-74994075D01*
X161749438Y-74984713D01*
X161696251Y-74939403D01*
X161680734Y-74905424D01*
X161631153Y-74731164D01*
X161631150Y-74731158D01*
X161535781Y-74539630D01*
X161406841Y-74368886D01*
X161248722Y-74224742D01*
X161248716Y-74224738D01*
X161248713Y-74224736D01*
X161066813Y-74112108D01*
X161066807Y-74112106D01*
X161057365Y-74108448D01*
X160867297Y-74034815D01*
X160656980Y-73995500D01*
X160443020Y-73995500D01*
X160232703Y-74034815D01*
X160183811Y-74053756D01*
X160033192Y-74112106D01*
X160033186Y-74112108D01*
X159851286Y-74224736D01*
X159851283Y-74224738D01*
X159851279Y-74224740D01*
X159851278Y-74224742D01*
X159837595Y-74237216D01*
X159693158Y-74368887D01*
X159564219Y-74539629D01*
X159468849Y-74731158D01*
X159468846Y-74731164D01*
X159410296Y-74936949D01*
X159410295Y-74936952D01*
X159390554Y-75149999D01*
X159390554Y-75150000D01*
X159410295Y-75363047D01*
X159410296Y-75363050D01*
X159468846Y-75568835D01*
X159468849Y-75568841D01*
X159522068Y-75675719D01*
X159564219Y-75760370D01*
X159693159Y-75931114D01*
X159851278Y-76075258D01*
X159851283Y-76075261D01*
X159851286Y-76075263D01*
X160033186Y-76187891D01*
X160033187Y-76187891D01*
X160033190Y-76187893D01*
X160232703Y-76265185D01*
X160443020Y-76304500D01*
X160443022Y-76304500D01*
X160656978Y-76304500D01*
X160656980Y-76304500D01*
X160867297Y-76265185D01*
X161066810Y-76187893D01*
X161248722Y-76075258D01*
X161406841Y-75931114D01*
X161535781Y-75760370D01*
X161631151Y-75568840D01*
X161631151Y-75568837D01*
X161631153Y-75568835D01*
X161680734Y-75394575D01*
X161718013Y-75335482D01*
X161781322Y-75305924D01*
X161850562Y-75315286D01*
X161903748Y-75360595D01*
X161919266Y-75394575D01*
X161968846Y-75568835D01*
X161968849Y-75568841D01*
X162022068Y-75675719D01*
X162064219Y-75760370D01*
X162193159Y-75931114D01*
X162351278Y-76075258D01*
X162351283Y-76075261D01*
X162351286Y-76075263D01*
X162533186Y-76187891D01*
X162533187Y-76187891D01*
X162533190Y-76187893D01*
X162732703Y-76265185D01*
X162943020Y-76304500D01*
X162943022Y-76304500D01*
X163156978Y-76304500D01*
X163156980Y-76304500D01*
X163367297Y-76265185D01*
X163566810Y-76187893D01*
X163706224Y-76101571D01*
X163773583Y-76083016D01*
X163840282Y-76103824D01*
X163885144Y-76157390D01*
X163895500Y-76206999D01*
X163895500Y-77260494D01*
X163893732Y-77276505D01*
X163893974Y-77276528D01*
X163893239Y-77284299D01*
X163893350Y-77287818D01*
X163892653Y-77290497D01*
X163892506Y-77292061D01*
X163892253Y-77292037D01*
X163875778Y-77355442D01*
X163824435Y-77402830D01*
X163755622Y-77414938D01*
X163704134Y-77397134D01*
X163566813Y-77312108D01*
X163566807Y-77312106D01*
X163367297Y-77234815D01*
X163156980Y-77195500D01*
X162943020Y-77195500D01*
X162732703Y-77234815D01*
X162631078Y-77274185D01*
X162533192Y-77312106D01*
X162533186Y-77312108D01*
X162351286Y-77424736D01*
X162351283Y-77424738D01*
X162351279Y-77424740D01*
X162351278Y-77424742D01*
X162231799Y-77533661D01*
X162193158Y-77568887D01*
X162064219Y-77739629D01*
X161968849Y-77931158D01*
X161968846Y-77931164D01*
X161910296Y-78136949D01*
X161910295Y-78136952D01*
X161890554Y-78349999D01*
X161890554Y-78350000D01*
X161905494Y-78511226D01*
X161892079Y-78579795D01*
X161869704Y-78610348D01*
X161527383Y-78952670D01*
X161466060Y-78986155D01*
X161396369Y-78981171D01*
X161340435Y-78939300D01*
X161316018Y-78873835D01*
X161330870Y-78805562D01*
X161332315Y-78802989D01*
X161380393Y-78719715D01*
X161380396Y-78719709D01*
X161439114Y-78538990D01*
X161458978Y-78350000D01*
X161439114Y-78161009D01*
X161380396Y-77980290D01*
X161380393Y-77980284D01*
X161285379Y-77815716D01*
X161285375Y-77815711D01*
X161273857Y-77802919D01*
X161273855Y-77802919D01*
X160907067Y-78169706D01*
X160877641Y-78111955D01*
X160788045Y-78022359D01*
X160730291Y-77992932D01*
X161094804Y-77628419D01*
X161094804Y-77628418D01*
X161004485Y-77562798D01*
X160830887Y-77485509D01*
X160645014Y-77446000D01*
X160454986Y-77446000D01*
X160269110Y-77485509D01*
X160095510Y-77562800D01*
X160095509Y-77562801D01*
X160005195Y-77628418D01*
X160005194Y-77628419D01*
X160369708Y-77992932D01*
X160311955Y-78022359D01*
X160222359Y-78111955D01*
X160192932Y-78169707D01*
X159826143Y-77802918D01*
X159814618Y-77815719D01*
X159719606Y-77980284D01*
X159719603Y-77980290D01*
X159660885Y-78161009D01*
X159641021Y-78350000D01*
X159660885Y-78538990D01*
X159719603Y-78719709D01*
X159719606Y-78719715D01*
X159814620Y-78884283D01*
X159826142Y-78897079D01*
X159826144Y-78897079D01*
X160192932Y-78530291D01*
X160222359Y-78588045D01*
X160311955Y-78677641D01*
X160369707Y-78707067D01*
X160005193Y-79071580D01*
X160005194Y-79071581D01*
X160095508Y-79137198D01*
X160095509Y-79137199D01*
X160269112Y-79214490D01*
X160454986Y-79254000D01*
X160645014Y-79254000D01*
X160830887Y-79214490D01*
X161003205Y-79137771D01*
X161072455Y-79128487D01*
X161135732Y-79158116D01*
X161172944Y-79217251D01*
X161172279Y-79287117D01*
X161141321Y-79338732D01*
X160376873Y-80103181D01*
X160315550Y-80136666D01*
X160289192Y-80139500D01*
X160007740Y-80139500D01*
X159940701Y-80119815D01*
X159894946Y-80067011D01*
X159889354Y-80052390D01*
X159868478Y-79985394D01*
X159780472Y-79839815D01*
X159780470Y-79839813D01*
X159780469Y-79839811D01*
X159660188Y-79719530D01*
X159514606Y-79631522D01*
X159482139Y-79621405D01*
X159352196Y-79580914D01*
X159352194Y-79580913D01*
X159352192Y-79580913D01*
X159302778Y-79576423D01*
X159281616Y-79574500D01*
X158618384Y-79574500D01*
X158599145Y-79576248D01*
X158547807Y-79580913D01*
X158385393Y-79631522D01*
X158239811Y-79719530D01*
X158119530Y-79839811D01*
X158031522Y-79985393D01*
X157980913Y-80147807D01*
X157974500Y-80218386D01*
X157974500Y-80731613D01*
X157980913Y-80802192D01*
X157980913Y-80802194D01*
X157980914Y-80802196D01*
X158014928Y-80911353D01*
X158031522Y-80964606D01*
X158119530Y-81110188D01*
X158221661Y-81212319D01*
X158255146Y-81273642D01*
X158250162Y-81343334D01*
X158221661Y-81387681D01*
X158119531Y-81489810D01*
X158119530Y-81489811D01*
X158031522Y-81635393D01*
X157980913Y-81797807D01*
X157974848Y-81864556D01*
X157949177Y-81929539D01*
X157939038Y-81941015D01*
X155687984Y-84192068D01*
X155675410Y-84202143D01*
X155675565Y-84202330D01*
X155669558Y-84207299D01*
X155621633Y-84258333D01*
X155618927Y-84261125D01*
X155598590Y-84281463D01*
X155598577Y-84281478D01*
X155595873Y-84284963D01*
X155588306Y-84293822D01*
X155557052Y-84327107D01*
X155546822Y-84345713D01*
X155536146Y-84361964D01*
X155523140Y-84378732D01*
X155523136Y-84378738D01*
X155505008Y-84420630D01*
X155499869Y-84431119D01*
X155477872Y-84471130D01*
X155477872Y-84471131D01*
X155472591Y-84491699D01*
X155466291Y-84510101D01*
X155457864Y-84529573D01*
X155450723Y-84574662D01*
X155448354Y-84586100D01*
X155437000Y-84630317D01*
X155437000Y-84651544D01*
X155435473Y-84670943D01*
X155432153Y-84691905D01*
X155433632Y-84707546D01*
X155436450Y-84737358D01*
X155437000Y-84749028D01*
X155437000Y-86968229D01*
X155417315Y-87035268D01*
X155364511Y-87081023D01*
X155295353Y-87090967D01*
X155231797Y-87061942D01*
X155201324Y-87015984D01*
X155199965Y-87016677D01*
X155139447Y-86897906D01*
X155139444Y-86897901D01*
X155052098Y-86810555D01*
X155052093Y-86810551D01*
X154942015Y-86754463D01*
X154850691Y-86740000D01*
X154805000Y-86740000D01*
X154805000Y-87165691D01*
X154785315Y-87232730D01*
X154732511Y-87278485D01*
X154663353Y-87288429D01*
X154599797Y-87259404D01*
X154593319Y-87253372D01*
X154591319Y-87251372D01*
X154557834Y-87190049D01*
X154555000Y-87163691D01*
X154555000Y-86740000D01*
X154509311Y-86740000D01*
X154456461Y-86748371D01*
X154387167Y-86739415D01*
X154349383Y-86713578D01*
X154255692Y-86619887D01*
X154255684Y-86619881D01*
X154178707Y-86574357D01*
X154116395Y-86537506D01*
X154116394Y-86537505D01*
X154116393Y-86537505D01*
X154116390Y-86537504D01*
X153960997Y-86492357D01*
X153960991Y-86492356D01*
X153924697Y-86489500D01*
X153924690Y-86489500D01*
X153515310Y-86489500D01*
X153515302Y-86489500D01*
X153479008Y-86492356D01*
X153479002Y-86492357D01*
X153323609Y-86537504D01*
X153323606Y-86537505D01*
X153184315Y-86619881D01*
X153184307Y-86619887D01*
X153069887Y-86734307D01*
X153069881Y-86734315D01*
X152987505Y-86873606D01*
X152987504Y-86873609D01*
X152942357Y-87029002D01*
X152942356Y-87029008D01*
X152939500Y-87065302D01*
X152939500Y-87534697D01*
X152942356Y-87570991D01*
X152942357Y-87570997D01*
X152987504Y-87726390D01*
X152987505Y-87726393D01*
X153069881Y-87865684D01*
X153069887Y-87865692D01*
X153184307Y-87980112D01*
X153184311Y-87980115D01*
X153184313Y-87980117D01*
X153323605Y-88062494D01*
X153347595Y-88069463D01*
X153406478Y-88107066D01*
X153435686Y-88170538D01*
X153437000Y-88188539D01*
X153437000Y-88425500D01*
X153417315Y-88492539D01*
X153364511Y-88538294D01*
X153313000Y-88549500D01*
X153146324Y-88549500D01*
X153079285Y-88529815D01*
X153070324Y-88523480D01*
X153065684Y-88519881D01*
X152941882Y-88446665D01*
X152926395Y-88437506D01*
X152926394Y-88437505D01*
X152926393Y-88437505D01*
X152926390Y-88437504D01*
X152770997Y-88392357D01*
X152770991Y-88392356D01*
X152734697Y-88389500D01*
X152734690Y-88389500D01*
X152325310Y-88389500D01*
X152325302Y-88389500D01*
X152289008Y-88392356D01*
X152289002Y-88392357D01*
X152133609Y-88437504D01*
X152133606Y-88437505D01*
X151994315Y-88519881D01*
X151994307Y-88519887D01*
X151900617Y-88613578D01*
X151839294Y-88647063D01*
X151793539Y-88648370D01*
X151740691Y-88640000D01*
X151695000Y-88640000D01*
X151695000Y-89201000D01*
X151675315Y-89268039D01*
X151622511Y-89313794D01*
X151571000Y-89325000D01*
X151040001Y-89325000D01*
X151040001Y-89400689D01*
X151054465Y-89492017D01*
X151110552Y-89602093D01*
X151110555Y-89602098D01*
X151197901Y-89689444D01*
X151197906Y-89689448D01*
X151307984Y-89745536D01*
X151396140Y-89759499D01*
X151459275Y-89789428D01*
X151496206Y-89848740D01*
X151495208Y-89918603D01*
X151491303Y-89929424D01*
X151451814Y-90024760D01*
X151451813Y-90024764D01*
X151437000Y-90137272D01*
X151437000Y-90362727D01*
X151452874Y-90483292D01*
X151449899Y-90483683D01*
X151449899Y-90516316D01*
X151452874Y-90516708D01*
X151437000Y-90637272D01*
X151437000Y-90753047D01*
X151417315Y-90820086D01*
X151364511Y-90865841D01*
X151295353Y-90875785D01*
X151231797Y-90846760D01*
X151225319Y-90840728D01*
X149496819Y-89112228D01*
X149476491Y-89075000D01*
X151040000Y-89075000D01*
X151445000Y-89075000D01*
X151445000Y-88640000D01*
X151399311Y-88640000D01*
X151307982Y-88654465D01*
X151197906Y-88710552D01*
X151197901Y-88710555D01*
X151110555Y-88797901D01*
X151110551Y-88797906D01*
X151054463Y-88907984D01*
X151040000Y-88999308D01*
X151040000Y-89075000D01*
X149476491Y-89075000D01*
X149463334Y-89050905D01*
X149460500Y-89024547D01*
X149460500Y-88765317D01*
X149460499Y-88765302D01*
X149459492Y-88752511D01*
X149457643Y-88729007D01*
X149452282Y-88710555D01*
X149412495Y-88573609D01*
X149412494Y-88573606D01*
X149412494Y-88573605D01*
X149354475Y-88475500D01*
X149342768Y-88455704D01*
X149325500Y-88392583D01*
X149325500Y-86791349D01*
X149345185Y-86724310D01*
X149370833Y-86695498D01*
X149439305Y-86639305D01*
X149569331Y-86480868D01*
X149665948Y-86300109D01*
X149725445Y-86103974D01*
X149745535Y-85900000D01*
X149725445Y-85696026D01*
X149665948Y-85499891D01*
X149665946Y-85499888D01*
X149665946Y-85499886D01*
X149569332Y-85319133D01*
X149569330Y-85319130D01*
X149439305Y-85160694D01*
X149280869Y-85030669D01*
X149280866Y-85030667D01*
X149100113Y-84934053D01*
X148903972Y-84874554D01*
X148700000Y-84854465D01*
X148496027Y-84874554D01*
X148299886Y-84934053D01*
X148119133Y-85030667D01*
X148119130Y-85030669D01*
X147960694Y-85160694D01*
X147830669Y-85319130D01*
X147830667Y-85319133D01*
X147734053Y-85499886D01*
X147674554Y-85696027D01*
X147654465Y-85900000D01*
X147674554Y-86103972D01*
X147734053Y-86300113D01*
X147830667Y-86480866D01*
X147830669Y-86480869D01*
X147934579Y-86607483D01*
X147960695Y-86639305D01*
X148029165Y-86695496D01*
X148068499Y-86753240D01*
X148074500Y-86791349D01*
X148074500Y-88323927D01*
X148054815Y-88390966D01*
X148002011Y-88436721D01*
X147932853Y-88446665D01*
X147931104Y-88446401D01*
X147890686Y-88440000D01*
X147845000Y-88440000D01*
X147845000Y-89559999D01*
X147890693Y-89559999D01*
X147943536Y-89551629D01*
X148012830Y-89560583D01*
X148050616Y-89586421D01*
X148144307Y-89680112D01*
X148144311Y-89680115D01*
X148144313Y-89680117D01*
X148283605Y-89762494D01*
X148385947Y-89792227D01*
X148439031Y-89823621D01*
X150528229Y-91912819D01*
X150561714Y-91974142D01*
X150556730Y-92043834D01*
X150514858Y-92099767D01*
X150449394Y-92124184D01*
X150440548Y-92124500D01*
X149640452Y-92124500D01*
X149573413Y-92104815D01*
X149552771Y-92088181D01*
X146589591Y-89125000D01*
X147190001Y-89125000D01*
X147190001Y-89200689D01*
X147204465Y-89292017D01*
X147260552Y-89402093D01*
X147260555Y-89402098D01*
X147347901Y-89489444D01*
X147347906Y-89489448D01*
X147457984Y-89545536D01*
X147457983Y-89545536D01*
X147549304Y-89559999D01*
X147594999Y-89559999D01*
X147595000Y-89559998D01*
X147595000Y-89125000D01*
X147190001Y-89125000D01*
X146589591Y-89125000D01*
X146396819Y-88932228D01*
X146365570Y-88875000D01*
X147190000Y-88875000D01*
X147595000Y-88875000D01*
X147595000Y-88440000D01*
X147549311Y-88440000D01*
X147457982Y-88454465D01*
X147347906Y-88510552D01*
X147347901Y-88510555D01*
X147260555Y-88597901D01*
X147260551Y-88597906D01*
X147204463Y-88707984D01*
X147190000Y-88799308D01*
X147190000Y-88875000D01*
X146365570Y-88875000D01*
X146363334Y-88870905D01*
X146360500Y-88844547D01*
X146360500Y-88765317D01*
X146360499Y-88765302D01*
X146359492Y-88752511D01*
X146357643Y-88729007D01*
X146352282Y-88710555D01*
X146312495Y-88573609D01*
X146312494Y-88573606D01*
X146312494Y-88573605D01*
X146237266Y-88446401D01*
X146226146Y-88427598D01*
X146227789Y-88426626D01*
X146205984Y-88371070D01*
X146205500Y-88360121D01*
X146205500Y-87742742D01*
X146207224Y-87727122D01*
X146206939Y-87727096D01*
X146207671Y-87719340D01*
X146207673Y-87719333D01*
X146205561Y-87652126D01*
X146205500Y-87648231D01*
X146205500Y-87620654D01*
X146205500Y-87620650D01*
X146204996Y-87616665D01*
X146204080Y-87605021D01*
X146203969Y-87601475D01*
X146202709Y-87561373D01*
X146197122Y-87542144D01*
X146193174Y-87523084D01*
X146192562Y-87518238D01*
X146190664Y-87503208D01*
X146190663Y-87503206D01*
X146190663Y-87503204D01*
X146174588Y-87462604D01*
X146170804Y-87451552D01*
X146158618Y-87409609D01*
X146158616Y-87409606D01*
X146148423Y-87392371D01*
X146139861Y-87374894D01*
X146132487Y-87356269D01*
X146106816Y-87320937D01*
X146100405Y-87311177D01*
X146078170Y-87273580D01*
X146078168Y-87273578D01*
X146078165Y-87273574D01*
X146064006Y-87259415D01*
X146051368Y-87244619D01*
X146042730Y-87232730D01*
X146039594Y-87228413D01*
X146027808Y-87218663D01*
X146005940Y-87200572D01*
X145997299Y-87192709D01*
X144892574Y-86087983D01*
X144859089Y-86026660D01*
X144856852Y-85988151D01*
X144865535Y-85900000D01*
X144845445Y-85696026D01*
X144785948Y-85499891D01*
X144785946Y-85499888D01*
X144785946Y-85499886D01*
X144689332Y-85319133D01*
X144689330Y-85319130D01*
X144559305Y-85160694D01*
X144400869Y-85030669D01*
X144400866Y-85030667D01*
X144220113Y-84934053D01*
X144023972Y-84874554D01*
X143820000Y-84854465D01*
X143616027Y-84874554D01*
X143419886Y-84934053D01*
X143239133Y-85030667D01*
X143239130Y-85030669D01*
X143080694Y-85160694D01*
X142950669Y-85319130D01*
X142950667Y-85319133D01*
X142854053Y-85499886D01*
X142794554Y-85696027D01*
X142774465Y-85900000D01*
X142794554Y-86103972D01*
X142854053Y-86300113D01*
X142950667Y-86480866D01*
X142950669Y-86480869D01*
X143080694Y-86639305D01*
X143239130Y-86769330D01*
X143239133Y-86769332D01*
X143419886Y-86865946D01*
X143419888Y-86865946D01*
X143419891Y-86865948D01*
X143616026Y-86925445D01*
X143820000Y-86945535D01*
X143908150Y-86936852D01*
X143976794Y-86949870D01*
X144007984Y-86972574D01*
X144918181Y-87882771D01*
X144951666Y-87944094D01*
X144954500Y-87970452D01*
X144954500Y-88320759D01*
X144934815Y-88387798D01*
X144882011Y-88433553D01*
X144812853Y-88443497D01*
X144811107Y-88443233D01*
X144790690Y-88440000D01*
X144745000Y-88440000D01*
X144745000Y-89559999D01*
X144790693Y-89559999D01*
X144843536Y-89551629D01*
X144912830Y-89560583D01*
X144950616Y-89586421D01*
X145044307Y-89680112D01*
X145044311Y-89680115D01*
X145044313Y-89680117D01*
X145183605Y-89762494D01*
X145224587Y-89774400D01*
X145339002Y-89807642D01*
X145339005Y-89807642D01*
X145339007Y-89807643D01*
X145375310Y-89810500D01*
X145454548Y-89810500D01*
X145521587Y-89830185D01*
X145542229Y-89846819D01*
X148829197Y-93133788D01*
X148839022Y-93146051D01*
X148839243Y-93145869D01*
X148844211Y-93151874D01*
X148893222Y-93197899D01*
X148896021Y-93200612D01*
X148915522Y-93220114D01*
X148915526Y-93220117D01*
X148915529Y-93220120D01*
X148918702Y-93222581D01*
X148927574Y-93230159D01*
X148959418Y-93260062D01*
X148976976Y-93269714D01*
X148993233Y-93280393D01*
X149009064Y-93292673D01*
X149038803Y-93305542D01*
X149049152Y-93310021D01*
X149059641Y-93315160D01*
X149083457Y-93328252D01*
X149097908Y-93336197D01*
X149110523Y-93339435D01*
X149117305Y-93341177D01*
X149135719Y-93347481D01*
X149154104Y-93355438D01*
X149197261Y-93362273D01*
X149208656Y-93364632D01*
X149250981Y-93375500D01*
X149271016Y-93375500D01*
X149290413Y-93377026D01*
X149310196Y-93380160D01*
X149353675Y-93376050D01*
X149365344Y-93375500D01*
X150466000Y-93375500D01*
X150533039Y-93395185D01*
X150578794Y-93447989D01*
X150588748Y-93493748D01*
X150590000Y-93495000D01*
X151025475Y-93495000D01*
X151092514Y-93514685D01*
X151138269Y-93567489D01*
X151148213Y-93636647D01*
X151119188Y-93700203D01*
X151088596Y-93725731D01*
X151085210Y-93727734D01*
X151022093Y-93745000D01*
X150590001Y-93745000D01*
X150590001Y-93790689D01*
X150593234Y-93811103D01*
X150584278Y-93880397D01*
X150539281Y-93933848D01*
X150472529Y-93954487D01*
X150470760Y-93954500D01*
X147502743Y-93954500D01*
X147487122Y-93952775D01*
X147487096Y-93953061D01*
X147479334Y-93952327D01*
X147479333Y-93952327D01*
X147417109Y-93954282D01*
X147412127Y-93954439D01*
X147408232Y-93954500D01*
X147380647Y-93954500D01*
X147376661Y-93955003D01*
X147365033Y-93955918D01*
X147321373Y-93957290D01*
X147302129Y-93962881D01*
X147283079Y-93966825D01*
X147263211Y-93969334D01*
X147263210Y-93969334D01*
X147222599Y-93985413D01*
X147211554Y-93989194D01*
X147169614Y-94001379D01*
X147169610Y-94001381D01*
X147152366Y-94011579D01*
X147134905Y-94020133D01*
X147116274Y-94027510D01*
X147116262Y-94027517D01*
X147080933Y-94053185D01*
X147071173Y-94059596D01*
X147033580Y-94081829D01*
X147019414Y-94095995D01*
X147004624Y-94108627D01*
X146988414Y-94120404D01*
X146988411Y-94120407D01*
X146960573Y-94154058D01*
X146952711Y-94162697D01*
X146392543Y-94722864D01*
X146331220Y-94756349D01*
X146261528Y-94751365D01*
X146205595Y-94709493D01*
X146181178Y-94644029D01*
X146185708Y-94600855D01*
X146278214Y-94279762D01*
X146278216Y-94279754D01*
X146335596Y-93942037D01*
X146335598Y-93942025D01*
X146354805Y-93600000D01*
X146335598Y-93257974D01*
X146335596Y-93257962D01*
X146278216Y-92920245D01*
X146278214Y-92920237D01*
X146183380Y-92591064D01*
X146052288Y-92274575D01*
X146052286Y-92274571D01*
X145886577Y-91974744D01*
X145688339Y-91695353D01*
X145543498Y-91533278D01*
X144516301Y-92560474D01*
X144434870Y-92465130D01*
X144339524Y-92383698D01*
X145366721Y-91356501D01*
X145366720Y-91356500D01*
X145204646Y-91211660D01*
X144925255Y-91013422D01*
X144625428Y-90847713D01*
X144625424Y-90847711D01*
X144308935Y-90716619D01*
X143979762Y-90621785D01*
X143979754Y-90621783D01*
X143642037Y-90564403D01*
X143642025Y-90564401D01*
X143300000Y-90545194D01*
X142957974Y-90564401D01*
X142957962Y-90564403D01*
X142620245Y-90621783D01*
X142620237Y-90621785D01*
X142291064Y-90716619D01*
X141974575Y-90847711D01*
X141974571Y-90847713D01*
X141674744Y-91013422D01*
X141395358Y-91211657D01*
X141233278Y-91356501D01*
X142260475Y-92383698D01*
X142165130Y-92465130D01*
X142083698Y-92560475D01*
X141056501Y-91533278D01*
X140911657Y-91695358D01*
X140713422Y-91974744D01*
X140547713Y-92274571D01*
X140547711Y-92274575D01*
X140416619Y-92591064D01*
X140321785Y-92920237D01*
X140321783Y-92920245D01*
X140264403Y-93257962D01*
X140264401Y-93257974D01*
X140245194Y-93600000D01*
X140264401Y-93942025D01*
X140264403Y-93942037D01*
X140321783Y-94279754D01*
X140321785Y-94279762D01*
X140416619Y-94608935D01*
X140547711Y-94925424D01*
X140547713Y-94925428D01*
X140713422Y-95225255D01*
X140911660Y-95504646D01*
X141056500Y-95666720D01*
X141056501Y-95666721D01*
X142083697Y-94639524D01*
X142165130Y-94734870D01*
X142260474Y-94816301D01*
X141233278Y-95843498D01*
X141395353Y-95988339D01*
X141674744Y-96186577D01*
X141974571Y-96352286D01*
X141974575Y-96352288D01*
X142291064Y-96483380D01*
X142620237Y-96578214D01*
X142620245Y-96578216D01*
X142957962Y-96635596D01*
X142957974Y-96635598D01*
X143300000Y-96654805D01*
X143642025Y-96635598D01*
X143642037Y-96635596D01*
X143979754Y-96578216D01*
X143979762Y-96578214D01*
X144300854Y-96485709D01*
X144370723Y-96486066D01*
X144429308Y-96524139D01*
X144458008Y-96587842D01*
X144447712Y-96656949D01*
X144422863Y-96692544D01*
X142616207Y-98499200D01*
X142603951Y-98509020D01*
X142604134Y-98509241D01*
X142598122Y-98514214D01*
X142552098Y-98563223D01*
X142549391Y-98566016D01*
X142529889Y-98585517D01*
X142529875Y-98585534D01*
X142527407Y-98588715D01*
X142519843Y-98597570D01*
X142489937Y-98629418D01*
X142489936Y-98629420D01*
X142480284Y-98646976D01*
X142469610Y-98663226D01*
X142457329Y-98679061D01*
X142457324Y-98679068D01*
X142439975Y-98719158D01*
X142434838Y-98729644D01*
X142413803Y-98767906D01*
X142408822Y-98787307D01*
X142402521Y-98805710D01*
X142394562Y-98824102D01*
X142394561Y-98824105D01*
X142387728Y-98867243D01*
X142385360Y-98878674D01*
X142374501Y-98920971D01*
X142374500Y-98920982D01*
X142374500Y-98941016D01*
X142372973Y-98960415D01*
X142369840Y-98980194D01*
X142369840Y-98980195D01*
X142373950Y-99023674D01*
X142374500Y-99035343D01*
X142374500Y-102778333D01*
X142354815Y-102845372D01*
X142338181Y-102866014D01*
X142319887Y-102884307D01*
X142319881Y-102884315D01*
X142237505Y-103023606D01*
X142237504Y-103023609D01*
X142192357Y-103179002D01*
X142192356Y-103179008D01*
X142189500Y-103215302D01*
X142189500Y-103624697D01*
X142192356Y-103660991D01*
X142192357Y-103660997D01*
X142237504Y-103816390D01*
X142237505Y-103816393D01*
X142237506Y-103816395D01*
X142248988Y-103835810D01*
X142319881Y-103955684D01*
X142319887Y-103955692D01*
X142413577Y-104049382D01*
X142447062Y-104110705D01*
X142448370Y-104156458D01*
X142440000Y-104209312D01*
X142440000Y-104255000D01*
X143559999Y-104255000D01*
X143559999Y-104209310D01*
X143556766Y-104188897D01*
X143565722Y-104119603D01*
X143610719Y-104066152D01*
X143677471Y-104045513D01*
X143679240Y-104045500D01*
X144627257Y-104045500D01*
X144642877Y-104047224D01*
X144642904Y-104046939D01*
X144650660Y-104047671D01*
X144650667Y-104047673D01*
X144717873Y-104045561D01*
X144721768Y-104045500D01*
X144749346Y-104045500D01*
X144749350Y-104045500D01*
X144753324Y-104044997D01*
X144764963Y-104044080D01*
X144808627Y-104042709D01*
X144827869Y-104037117D01*
X144846912Y-104033174D01*
X144866792Y-104030664D01*
X144907419Y-104014578D01*
X144918434Y-104010806D01*
X144936973Y-104005420D01*
X144971561Y-104000499D01*
X145873888Y-104000499D01*
X145986151Y-103985720D01*
X145986150Y-103985720D01*
X145986159Y-103985719D01*
X146125853Y-103927856D01*
X146245810Y-103835810D01*
X146337856Y-103715853D01*
X146395719Y-103576159D01*
X146395720Y-103576146D01*
X146397367Y-103570005D01*
X146433730Y-103510343D01*
X146496577Y-103479812D01*
X146565952Y-103488105D01*
X146604824Y-103514414D01*
X151676228Y-108585819D01*
X151709713Y-108647142D01*
X151704729Y-108716834D01*
X151662857Y-108772767D01*
X151597393Y-108797184D01*
X151588547Y-108797500D01*
X151508575Y-108797500D01*
X151289507Y-108838450D01*
X151081703Y-108918953D01*
X151081702Y-108918954D01*
X150892226Y-109036274D01*
X150892225Y-109036274D01*
X150861270Y-109064493D01*
X151222447Y-109425670D01*
X151153407Y-109473325D01*
X151042141Y-109598918D01*
X150685410Y-109242187D01*
X150593235Y-109364249D01*
X150493899Y-109563742D01*
X150432910Y-109778099D01*
X150412348Y-110000000D01*
X150432910Y-110221900D01*
X150493899Y-110436257D01*
X150593230Y-110635740D01*
X150593235Y-110635747D01*
X150685411Y-110757811D01*
X151042141Y-110401081D01*
X151153407Y-110526675D01*
X151222446Y-110574329D01*
X150861270Y-110935505D01*
X150892228Y-110963727D01*
X151081701Y-111081045D01*
X151081703Y-111081046D01*
X151289507Y-111161549D01*
X151508575Y-111202500D01*
X151731425Y-111202500D01*
X151950492Y-111161549D01*
X152158296Y-111081046D01*
X152158298Y-111081045D01*
X152347771Y-110963728D01*
X152347771Y-110963727D01*
X152378729Y-110935505D01*
X152017552Y-110574329D01*
X152086593Y-110526675D01*
X152197858Y-110401081D01*
X152554587Y-110757811D01*
X152554588Y-110757811D01*
X152646764Y-110635750D01*
X152746100Y-110436257D01*
X152807089Y-110221900D01*
X152825562Y-110022545D01*
X152851348Y-109957608D01*
X152908148Y-109916920D01*
X152977929Y-109913400D01*
X153036714Y-109946305D01*
X153474197Y-110383788D01*
X153484022Y-110396051D01*
X153484243Y-110395869D01*
X153489211Y-110401874D01*
X153538222Y-110447899D01*
X153541021Y-110450612D01*
X153560522Y-110470114D01*
X153560526Y-110470117D01*
X153560529Y-110470120D01*
X153563702Y-110472581D01*
X153572574Y-110480159D01*
X153604418Y-110510062D01*
X153621976Y-110519714D01*
X153638235Y-110530395D01*
X153654064Y-110542673D01*
X153694155Y-110560021D01*
X153704626Y-110565151D01*
X153727180Y-110577550D01*
X153742902Y-110586194D01*
X153742904Y-110586195D01*
X153742908Y-110586197D01*
X153762316Y-110591180D01*
X153780719Y-110597481D01*
X153799101Y-110605436D01*
X153799102Y-110605436D01*
X153799104Y-110605437D01*
X153842250Y-110612270D01*
X153853672Y-110614636D01*
X153895981Y-110625500D01*
X153916016Y-110625500D01*
X153935414Y-110627026D01*
X153955194Y-110630159D01*
X153955195Y-110630160D01*
X153955195Y-110630159D01*
X153955196Y-110630160D01*
X153998675Y-110626050D01*
X154010344Y-110625500D01*
X155165843Y-110625500D01*
X155232882Y-110645185D01*
X155270540Y-110683058D01*
X155277434Y-110693922D01*
X155314214Y-110751877D01*
X155429418Y-110860062D01*
X155429420Y-110860063D01*
X155429422Y-110860065D01*
X155493896Y-110895509D01*
X155567908Y-110936197D01*
X155567918Y-110936199D01*
X155571423Y-110937588D01*
X155617006Y-110968898D01*
X155712527Y-111072661D01*
X155712530Y-111072663D01*
X155712537Y-111072671D01*
X155902561Y-111220572D01*
X156114336Y-111335179D01*
X156226264Y-111373604D01*
X156342083Y-111413365D01*
X156342085Y-111413365D01*
X156342087Y-111413366D01*
X156579601Y-111453000D01*
X156579602Y-111453000D01*
X156820398Y-111453000D01*
X156820399Y-111453000D01*
X157057913Y-111413366D01*
X157285664Y-111335179D01*
X157497439Y-111220572D01*
X157687463Y-111072671D01*
X157850551Y-110895510D01*
X157982255Y-110693922D01*
X158078983Y-110473405D01*
X158138095Y-110239976D01*
X158157980Y-110000000D01*
X158154467Y-109957608D01*
X158142785Y-109816619D01*
X158138095Y-109760024D01*
X158078983Y-109526595D01*
X157982255Y-109306078D01*
X157850551Y-109104490D01*
X157687463Y-108927329D01*
X157520252Y-108797184D01*
X157497441Y-108779429D01*
X157285665Y-108664821D01*
X157285656Y-108664818D01*
X157057916Y-108586634D01*
X156879777Y-108556908D01*
X156820399Y-108547000D01*
X156579601Y-108547000D01*
X156532098Y-108554926D01*
X156342083Y-108586634D01*
X156114343Y-108664818D01*
X156114334Y-108664821D01*
X155902558Y-108779429D01*
X155768456Y-108883805D01*
X155712537Y-108927329D01*
X155712534Y-108927331D01*
X155712534Y-108927332D01*
X155549449Y-109104490D01*
X155417744Y-109306078D01*
X155415886Y-109309514D01*
X155366668Y-109359106D01*
X155306829Y-109374500D01*
X154285453Y-109374500D01*
X154218414Y-109354815D01*
X154197772Y-109338181D01*
X149071771Y-104212180D01*
X149038286Y-104150857D01*
X149043270Y-104081165D01*
X149085142Y-104025232D01*
X149150606Y-104000815D01*
X149159427Y-104000499D01*
X150823886Y-104000499D01*
X150823888Y-104000499D01*
X150936151Y-103985720D01*
X150936150Y-103985720D01*
X150936159Y-103985719D01*
X151075853Y-103927856D01*
X151128070Y-103887788D01*
X151169337Y-103856124D01*
X151234506Y-103830930D01*
X151244823Y-103830500D01*
X151525500Y-103830500D01*
X151592539Y-103850185D01*
X151638294Y-103902989D01*
X151649500Y-103954500D01*
X151649500Y-104397870D01*
X151649501Y-104397876D01*
X151655908Y-104457483D01*
X151706202Y-104592328D01*
X151706206Y-104592335D01*
X151792452Y-104707544D01*
X151792455Y-104707547D01*
X151907664Y-104793793D01*
X151907671Y-104793797D01*
X152042517Y-104844091D01*
X152042516Y-104844091D01*
X152049444Y-104844835D01*
X152102127Y-104850500D01*
X153197872Y-104850499D01*
X153257483Y-104844091D01*
X153392331Y-104793796D01*
X153507546Y-104707546D01*
X153593796Y-104592331D01*
X153644091Y-104457483D01*
X153650500Y-104397873D01*
X153650499Y-103435450D01*
X153670183Y-103368412D01*
X153686813Y-103347775D01*
X155471286Y-101563302D01*
X155483548Y-101553480D01*
X155483365Y-101553259D01*
X155489368Y-101548291D01*
X155489377Y-101548286D01*
X155535434Y-101499239D01*
X155538082Y-101496506D01*
X155557620Y-101476970D01*
X155560070Y-101473810D01*
X155567654Y-101464929D01*
X155597562Y-101433082D01*
X155607214Y-101415523D01*
X155617889Y-101399272D01*
X155630174Y-101383436D01*
X155647530Y-101343325D01*
X155652661Y-101332854D01*
X155673694Y-101294598D01*
X155673694Y-101294597D01*
X155673697Y-101294592D01*
X155678680Y-101275180D01*
X155684977Y-101256791D01*
X155692938Y-101238395D01*
X155699770Y-101195248D01*
X155702139Y-101183816D01*
X155709723Y-101154281D01*
X155713000Y-101141519D01*
X155713000Y-101121483D01*
X155714527Y-101102082D01*
X155714778Y-101100500D01*
X155717660Y-101082304D01*
X155713550Y-101038824D01*
X155713000Y-101027155D01*
X155713000Y-100475000D01*
X157675000Y-100475000D01*
X157675000Y-100872844D01*
X157681401Y-100932372D01*
X157681403Y-100932379D01*
X157731645Y-101067086D01*
X157731649Y-101067093D01*
X157817809Y-101182187D01*
X157817812Y-101182190D01*
X157932906Y-101268350D01*
X157932913Y-101268354D01*
X158067620Y-101318596D01*
X158067627Y-101318598D01*
X158127155Y-101324999D01*
X158127172Y-101325000D01*
X158387500Y-101325000D01*
X158387500Y-100475000D01*
X157675000Y-100475000D01*
X155713000Y-100475000D01*
X155713000Y-100225000D01*
X157675000Y-100225000D01*
X158387500Y-100225000D01*
X158387500Y-99375000D01*
X158127155Y-99375000D01*
X158067627Y-99381401D01*
X158067620Y-99381403D01*
X157932913Y-99431645D01*
X157932906Y-99431649D01*
X157817812Y-99517809D01*
X157817809Y-99517812D01*
X157731649Y-99632906D01*
X157731645Y-99632913D01*
X157681403Y-99767620D01*
X157681401Y-99767627D01*
X157675000Y-99827155D01*
X157675000Y-100225000D01*
X155713000Y-100225000D01*
X155713000Y-98507559D01*
X155732685Y-98440520D01*
X155785489Y-98394765D01*
X155804841Y-98387802D01*
X155805340Y-98387668D01*
X155853804Y-98387671D01*
X155854205Y-98384626D01*
X155862263Y-98385686D01*
X155862264Y-98385687D01*
X155974780Y-98400500D01*
X155974787Y-98400500D01*
X156200213Y-98400500D01*
X156200220Y-98400500D01*
X156312736Y-98385687D01*
X156312736Y-98385686D01*
X156320795Y-98384626D01*
X156321198Y-98387689D01*
X156353802Y-98387689D01*
X156354205Y-98384626D01*
X156362263Y-98385686D01*
X156362264Y-98385687D01*
X156474780Y-98400500D01*
X156474787Y-98400500D01*
X156700213Y-98400500D01*
X156700220Y-98400500D01*
X156812736Y-98385687D01*
X156812736Y-98385686D01*
X156820795Y-98384626D01*
X156821198Y-98387689D01*
X156853802Y-98387689D01*
X156854205Y-98384626D01*
X156862263Y-98385686D01*
X156862264Y-98385687D01*
X156974780Y-98400500D01*
X156974787Y-98400500D01*
X157200213Y-98400500D01*
X157200220Y-98400500D01*
X157312736Y-98385687D01*
X157312736Y-98385686D01*
X157320795Y-98384626D01*
X157321198Y-98387689D01*
X157353802Y-98387689D01*
X157354205Y-98384626D01*
X157362263Y-98385686D01*
X157362264Y-98385687D01*
X157474780Y-98400500D01*
X157474787Y-98400500D01*
X157700213Y-98400500D01*
X157700220Y-98400500D01*
X157812736Y-98385687D01*
X157812736Y-98385686D01*
X157820795Y-98384626D01*
X157821198Y-98387689D01*
X157853802Y-98387689D01*
X157854205Y-98384626D01*
X157862263Y-98385686D01*
X157862264Y-98385687D01*
X157974780Y-98400500D01*
X157974787Y-98400500D01*
X158200213Y-98400500D01*
X158200220Y-98400500D01*
X158229815Y-98396603D01*
X158298847Y-98407367D01*
X158351104Y-98453746D01*
X158370000Y-98519542D01*
X158370000Y-98525000D01*
X158859854Y-98525000D01*
X158926893Y-98544685D01*
X158972648Y-98597489D01*
X158978931Y-98614408D01*
X158979512Y-98616408D01*
X158979311Y-98686277D01*
X158941367Y-98744946D01*
X158877728Y-98773788D01*
X158860435Y-98775000D01*
X158370001Y-98775000D01*
X158370001Y-98850689D01*
X158384465Y-98942017D01*
X158440552Y-99052093D01*
X158440555Y-99052098D01*
X158527901Y-99139444D01*
X158527905Y-99139447D01*
X158604482Y-99178465D01*
X158655278Y-99226439D01*
X158672073Y-99294260D01*
X158649536Y-99360395D01*
X158637500Y-99374693D01*
X158637500Y-101325000D01*
X158897828Y-101325000D01*
X158897844Y-101324999D01*
X158957372Y-101318598D01*
X158957379Y-101318596D01*
X159092086Y-101268354D01*
X159092093Y-101268350D01*
X159207187Y-101182190D01*
X159207190Y-101182187D01*
X159293350Y-101067093D01*
X159293354Y-101067086D01*
X159300650Y-101047524D01*
X159342520Y-100991589D01*
X159407983Y-100967170D01*
X159476257Y-100982020D01*
X159525663Y-101031424D01*
X159534539Y-101051849D01*
X159544631Y-101082304D01*
X159564254Y-101141522D01*
X159565186Y-101144333D01*
X159565187Y-101144336D01*
X159593033Y-101189482D01*
X159657288Y-101293656D01*
X159781344Y-101417712D01*
X159930666Y-101509814D01*
X160097203Y-101564999D01*
X160199991Y-101575500D01*
X160975008Y-101575499D01*
X160975016Y-101575498D01*
X160975019Y-101575498D01*
X161031302Y-101569748D01*
X161077797Y-101564999D01*
X161244334Y-101509814D01*
X161393656Y-101417712D01*
X161517712Y-101293656D01*
X161600519Y-101159402D01*
X161652467Y-101112679D01*
X161706058Y-101100500D01*
X162525501Y-101100500D01*
X162592540Y-101120185D01*
X162638295Y-101172989D01*
X162649501Y-101224500D01*
X162649501Y-102297876D01*
X162655908Y-102357483D01*
X162706202Y-102492328D01*
X162706206Y-102492335D01*
X162792452Y-102607544D01*
X162792455Y-102607547D01*
X162907664Y-102693793D01*
X162907671Y-102693797D01*
X163042517Y-102744091D01*
X163042516Y-102744091D01*
X163049444Y-102744835D01*
X163102127Y-102750500D01*
X165050500Y-102750499D01*
X165117539Y-102770184D01*
X165163294Y-102822987D01*
X165174500Y-102874499D01*
X165174500Y-108274191D01*
X165154815Y-108341230D01*
X165138181Y-108361872D01*
X164933522Y-108566530D01*
X164872199Y-108600015D01*
X164805582Y-108596132D01*
X164777911Y-108586633D01*
X164587970Y-108554938D01*
X164540399Y-108547000D01*
X164299601Y-108547000D01*
X164252098Y-108554926D01*
X164062083Y-108586634D01*
X163834343Y-108664818D01*
X163834334Y-108664821D01*
X163622558Y-108779429D01*
X163488456Y-108883805D01*
X163432537Y-108927329D01*
X163432534Y-108927331D01*
X163432534Y-108927332D01*
X163269449Y-109104490D01*
X163137743Y-109306081D01*
X163041017Y-109526594D01*
X162981904Y-109760027D01*
X162962020Y-109999994D01*
X162962020Y-110000005D01*
X162981904Y-110239972D01*
X163041017Y-110473405D01*
X163132979Y-110683058D01*
X163137745Y-110693922D01*
X163269449Y-110895510D01*
X163432537Y-111072671D01*
X163622561Y-111220572D01*
X163834336Y-111335179D01*
X163946264Y-111373604D01*
X164062083Y-111413365D01*
X164062085Y-111413365D01*
X164062087Y-111413366D01*
X164299601Y-111453000D01*
X164299602Y-111453000D01*
X164540398Y-111453000D01*
X164540399Y-111453000D01*
X164777913Y-111413366D01*
X165005664Y-111335179D01*
X165217439Y-111220572D01*
X165407463Y-111072671D01*
X165570551Y-110895510D01*
X165702255Y-110693922D01*
X165798983Y-110473405D01*
X165858095Y-110239976D01*
X165877980Y-110000000D01*
X168292348Y-110000000D01*
X168312910Y-110221900D01*
X168373899Y-110436257D01*
X168473230Y-110635740D01*
X168473235Y-110635747D01*
X168565411Y-110757811D01*
X168922141Y-110401081D01*
X169033407Y-110526675D01*
X169102446Y-110574329D01*
X168741270Y-110935505D01*
X168772228Y-110963727D01*
X168961701Y-111081045D01*
X168961703Y-111081046D01*
X169169507Y-111161549D01*
X169388575Y-111202500D01*
X169611425Y-111202500D01*
X169830492Y-111161549D01*
X170038296Y-111081046D01*
X170038298Y-111081045D01*
X170227771Y-110963728D01*
X170227771Y-110963727D01*
X170258729Y-110935505D01*
X169897552Y-110574329D01*
X169966593Y-110526675D01*
X170077857Y-110401081D01*
X170434587Y-110757811D01*
X170434588Y-110757811D01*
X170526764Y-110635750D01*
X170626100Y-110436257D01*
X170687089Y-110221900D01*
X170707651Y-110000000D01*
X170687089Y-109778099D01*
X170626100Y-109563742D01*
X170526769Y-109364259D01*
X170526764Y-109364252D01*
X170434587Y-109242187D01*
X170077857Y-109598917D01*
X169966593Y-109473325D01*
X169897552Y-109425670D01*
X170258729Y-109064493D01*
X170227771Y-109036272D01*
X170038298Y-108918954D01*
X170038296Y-108918953D01*
X169830492Y-108838450D01*
X169611425Y-108797500D01*
X169388575Y-108797500D01*
X169169507Y-108838450D01*
X168961703Y-108918953D01*
X168961702Y-108918954D01*
X168772226Y-109036274D01*
X168772225Y-109036274D01*
X168741270Y-109064493D01*
X169102447Y-109425670D01*
X169033407Y-109473325D01*
X168922141Y-109598918D01*
X168565410Y-109242187D01*
X168473235Y-109364249D01*
X168373899Y-109563742D01*
X168312910Y-109778099D01*
X168292348Y-110000000D01*
X165877980Y-110000000D01*
X165874467Y-109957608D01*
X165863332Y-109823223D01*
X165858095Y-109760024D01*
X165819181Y-109606356D01*
X165821806Y-109536539D01*
X165851704Y-109488240D01*
X166224513Y-109115431D01*
X166237079Y-109105365D01*
X166236925Y-109105178D01*
X166242933Y-109100205D01*
X166242940Y-109100202D01*
X166266227Y-109075402D01*
X166290865Y-109049167D01*
X166293578Y-109046367D01*
X166313911Y-109026035D01*
X166316606Y-109022560D01*
X166324199Y-109013669D01*
X166355448Y-108980393D01*
X166365674Y-108961790D01*
X166376353Y-108945533D01*
X166389362Y-108928764D01*
X166390290Y-108926617D01*
X166392914Y-108922755D01*
X166393331Y-108922052D01*
X166393375Y-108922078D01*
X166416411Y-108888177D01*
X168430272Y-106874319D01*
X168491595Y-106840834D01*
X168517953Y-106838000D01*
X174482168Y-106838000D01*
X174549207Y-106857685D01*
X174569664Y-106876231D01*
X174570612Y-106875284D01*
X174607647Y-106912319D01*
X174641132Y-106973642D01*
X174636148Y-107043334D01*
X174607647Y-107087681D01*
X174575719Y-107119608D01*
X174575716Y-107119612D01*
X174487455Y-107262704D01*
X174487450Y-107262715D01*
X174475095Y-107300000D01*
X174434564Y-107422315D01*
X174434564Y-107422316D01*
X174434563Y-107422316D01*
X174424500Y-107520818D01*
X174424500Y-108054181D01*
X174434563Y-108152683D01*
X174487450Y-108312284D01*
X174487455Y-108312295D01*
X174575716Y-108455387D01*
X174575719Y-108455391D01*
X174694608Y-108574280D01*
X174694612Y-108574283D01*
X174837704Y-108662544D01*
X174837707Y-108662545D01*
X174837713Y-108662549D01*
X174997315Y-108715436D01*
X175095826Y-108725500D01*
X175095831Y-108725500D01*
X175704169Y-108725500D01*
X175704174Y-108725500D01*
X175802685Y-108715436D01*
X175962287Y-108662549D01*
X176105391Y-108574281D01*
X176192853Y-108486819D01*
X176254176Y-108453334D01*
X176280534Y-108450500D01*
X176308480Y-108450500D01*
X176375519Y-108470185D01*
X176396161Y-108486819D01*
X176489811Y-108580469D01*
X176489813Y-108580470D01*
X176489815Y-108580472D01*
X176635394Y-108668478D01*
X176797804Y-108719086D01*
X176868384Y-108725500D01*
X176868387Y-108725500D01*
X177531613Y-108725500D01*
X177531616Y-108725500D01*
X177602196Y-108719086D01*
X177764606Y-108668478D01*
X177910185Y-108580472D01*
X178030472Y-108460185D01*
X178118478Y-108314606D01*
X178169086Y-108152196D01*
X178175500Y-108081616D01*
X178175500Y-107568384D01*
X178169086Y-107497804D01*
X178118478Y-107335394D01*
X178030472Y-107189815D01*
X178030470Y-107189813D01*
X178030469Y-107189811D01*
X177910188Y-107069530D01*
X177894273Y-107059909D01*
X177764606Y-106981522D01*
X177749646Y-106976860D01*
X177691498Y-106938123D01*
X177663524Y-106874098D01*
X177674605Y-106805113D01*
X177712903Y-106758704D01*
X177796792Y-106696791D01*
X177877346Y-106587645D01*
X177922149Y-106459604D01*
X177922149Y-106459600D01*
X177925000Y-106429206D01*
X177925000Y-106300000D01*
X177199000Y-106300000D01*
X177131961Y-106280315D01*
X177086206Y-106227511D01*
X177075000Y-106176000D01*
X177075000Y-105525000D01*
X177325000Y-105525000D01*
X177325000Y-106050000D01*
X177924999Y-106050000D01*
X177924999Y-105920803D01*
X177922148Y-105890393D01*
X177877346Y-105762354D01*
X177796792Y-105653207D01*
X177687645Y-105572653D01*
X177559602Y-105527850D01*
X177529207Y-105525000D01*
X177325000Y-105525000D01*
X177075000Y-105525000D01*
X176870804Y-105525000D01*
X176840393Y-105527851D01*
X176712354Y-105572653D01*
X176603207Y-105653207D01*
X176536890Y-105743064D01*
X176481242Y-105785315D01*
X176411586Y-105790772D01*
X176350036Y-105757705D01*
X176319415Y-105708435D01*
X176312549Y-105687713D01*
X176312545Y-105687706D01*
X176312544Y-105687704D01*
X176224283Y-105544612D01*
X176224280Y-105544608D01*
X176105391Y-105425719D01*
X176105387Y-105425716D01*
X175962295Y-105337455D01*
X175962289Y-105337452D01*
X175962287Y-105337451D01*
X175802685Y-105284564D01*
X175802683Y-105284563D01*
X175704181Y-105274500D01*
X175704174Y-105274500D01*
X175095826Y-105274500D01*
X175095818Y-105274500D01*
X174997316Y-105284563D01*
X174997315Y-105284564D01*
X174918219Y-105310773D01*
X174837715Y-105337450D01*
X174837704Y-105337455D01*
X174694612Y-105425716D01*
X174694608Y-105425719D01*
X174570612Y-105549716D01*
X174568528Y-105547632D01*
X174522416Y-105580286D01*
X174482168Y-105587000D01*
X168290243Y-105587000D01*
X168274622Y-105585275D01*
X168274596Y-105585561D01*
X168266834Y-105584827D01*
X168266833Y-105584827D01*
X168204609Y-105586782D01*
X168199627Y-105586939D01*
X168195732Y-105587000D01*
X168168147Y-105587000D01*
X168164161Y-105587503D01*
X168152533Y-105588418D01*
X168108873Y-105589790D01*
X168089629Y-105595381D01*
X168070579Y-105599325D01*
X168050711Y-105601834D01*
X168050710Y-105601834D01*
X168010099Y-105617913D01*
X167999054Y-105621694D01*
X167957114Y-105633879D01*
X167957110Y-105633881D01*
X167939866Y-105644079D01*
X167922405Y-105652633D01*
X167903774Y-105660010D01*
X167903762Y-105660017D01*
X167868433Y-105685685D01*
X167858673Y-105692096D01*
X167821080Y-105714329D01*
X167806914Y-105728495D01*
X167792124Y-105741127D01*
X167775914Y-105752904D01*
X167775911Y-105752907D01*
X167748073Y-105786558D01*
X167740211Y-105795197D01*
X166687181Y-106848228D01*
X166625858Y-106881713D01*
X166556166Y-106876729D01*
X166500233Y-106834857D01*
X166475816Y-106769393D01*
X166475500Y-106760547D01*
X166475500Y-102775000D01*
X169200000Y-102775000D01*
X169200000Y-103424628D01*
X169214503Y-103497540D01*
X169214505Y-103497544D01*
X169269760Y-103580239D01*
X169352455Y-103635494D01*
X169352459Y-103635496D01*
X169425371Y-103649999D01*
X169425374Y-103650000D01*
X170325000Y-103650000D01*
X170325000Y-102775000D01*
X170575000Y-102775000D01*
X170575000Y-103650000D01*
X171474626Y-103650000D01*
X171474628Y-103649999D01*
X171547540Y-103635496D01*
X171547544Y-103635494D01*
X171630239Y-103580239D01*
X171685494Y-103497544D01*
X171685496Y-103497540D01*
X171699999Y-103424628D01*
X171700000Y-103424626D01*
X171700000Y-102775000D01*
X170575000Y-102775000D01*
X170325000Y-102775000D01*
X169200000Y-102775000D01*
X166475500Y-102775000D01*
X166475500Y-97819881D01*
X166477268Y-97803868D01*
X166477026Y-97803846D01*
X166477758Y-97796090D01*
X166477760Y-97796083D01*
X166475561Y-97726115D01*
X166475500Y-97722220D01*
X166475500Y-97693457D01*
X166475499Y-97693450D01*
X166474949Y-97689096D01*
X166474030Y-97677434D01*
X166472597Y-97631810D01*
X166466676Y-97611432D01*
X166462731Y-97592383D01*
X166460071Y-97571322D01*
X166443261Y-97528867D01*
X166439481Y-97517825D01*
X166426744Y-97473981D01*
X166415939Y-97455712D01*
X166407379Y-97438238D01*
X166405914Y-97434538D01*
X166399568Y-97418509D01*
X166372737Y-97381579D01*
X166366323Y-97371815D01*
X166345897Y-97337277D01*
X166343081Y-97332515D01*
X166328075Y-97317509D01*
X166315435Y-97302710D01*
X166302961Y-97285540D01*
X166267780Y-97256436D01*
X166259140Y-97248574D01*
X165298066Y-96287500D01*
X171975000Y-96287500D01*
X172825000Y-96287500D01*
X172825000Y-95575000D01*
X172427155Y-95575000D01*
X172367627Y-95581401D01*
X172367620Y-95581403D01*
X172232913Y-95631645D01*
X172232906Y-95631649D01*
X172117812Y-95717809D01*
X172117809Y-95717812D01*
X172031649Y-95832906D01*
X172031645Y-95832913D01*
X171981403Y-95967620D01*
X171981401Y-95967627D01*
X171975000Y-96027155D01*
X171975000Y-96287500D01*
X165298066Y-96287500D01*
X164372747Y-95362181D01*
X164339262Y-95300858D01*
X164344246Y-95231166D01*
X164386118Y-95175233D01*
X164451582Y-95150816D01*
X164460428Y-95150500D01*
X166660663Y-95150500D01*
X166727702Y-95170185D01*
X166733548Y-95174182D01*
X166747265Y-95184148D01*
X166747270Y-95184151D01*
X166920192Y-95261142D01*
X166920197Y-95261144D01*
X167105354Y-95300500D01*
X167105355Y-95300500D01*
X167294644Y-95300500D01*
X167294646Y-95300500D01*
X167479803Y-95261144D01*
X167652730Y-95184151D01*
X167805871Y-95072888D01*
X167932533Y-94932216D01*
X168027179Y-94768284D01*
X168085674Y-94588256D01*
X168105460Y-94400000D01*
X168101306Y-94360480D01*
X168113875Y-94291752D01*
X168161607Y-94240728D01*
X168174191Y-94234241D01*
X168251096Y-94200000D01*
X168332386Y-94163807D01*
X168485527Y-94052544D01*
X168612189Y-93911872D01*
X168706835Y-93747940D01*
X168765330Y-93567912D01*
X168785116Y-93379656D01*
X168765330Y-93191400D01*
X168723551Y-93062818D01*
X168721556Y-92992977D01*
X168757636Y-92933144D01*
X168820337Y-92902316D01*
X168841482Y-92900500D01*
X174438770Y-92900500D01*
X174505809Y-92920185D01*
X174551564Y-92972989D01*
X174561508Y-93042147D01*
X174532483Y-93105703D01*
X174526451Y-93112181D01*
X174114358Y-93524272D01*
X174100729Y-93536051D01*
X174081469Y-93550390D01*
X174049632Y-93588331D01*
X174042346Y-93596284D01*
X174038407Y-93600224D01*
X174019176Y-93624545D01*
X174016902Y-93627337D01*
X173968694Y-93684790D01*
X173964729Y-93690819D01*
X173964682Y-93690788D01*
X173960630Y-93697147D01*
X173960679Y-93697177D01*
X173956889Y-93703321D01*
X173925192Y-93771294D01*
X173923623Y-93774536D01*
X173889957Y-93841572D01*
X173887488Y-93848357D01*
X173887432Y-93848336D01*
X173884960Y-93855450D01*
X173885015Y-93855469D01*
X173882743Y-93862325D01*
X173867573Y-93935788D01*
X173866793Y-93939304D01*
X173849499Y-94012279D01*
X173848661Y-94019454D01*
X173848601Y-94019447D01*
X173847835Y-94026945D01*
X173847895Y-94026951D01*
X173847265Y-94034140D01*
X173849448Y-94109128D01*
X173849500Y-94112735D01*
X173849500Y-95522259D01*
X173829815Y-95589298D01*
X173777011Y-95635053D01*
X173707853Y-95644997D01*
X173675581Y-95634256D01*
X173675399Y-95634746D01*
X173532379Y-95581403D01*
X173532372Y-95581401D01*
X173472844Y-95575000D01*
X173075000Y-95575000D01*
X173075000Y-96413500D01*
X173055315Y-96480539D01*
X173002511Y-96526294D01*
X172951000Y-96537500D01*
X171975000Y-96537500D01*
X171975000Y-96797828D01*
X171976115Y-96808199D01*
X171963709Y-96876959D01*
X171916098Y-96928096D01*
X171848399Y-96945375D01*
X171782105Y-96923310D01*
X171778514Y-96920720D01*
X171692335Y-96856206D01*
X171692328Y-96856202D01*
X171557482Y-96805908D01*
X171557483Y-96805908D01*
X171497883Y-96799501D01*
X171497881Y-96799500D01*
X171497873Y-96799500D01*
X171497864Y-96799500D01*
X169402129Y-96799500D01*
X169402123Y-96799501D01*
X169342516Y-96805908D01*
X169207671Y-96856202D01*
X169207664Y-96856206D01*
X169092455Y-96942452D01*
X169092452Y-96942455D01*
X169006206Y-97057664D01*
X169006202Y-97057671D01*
X168955908Y-97192517D01*
X168950082Y-97246712D01*
X168949501Y-97252125D01*
X168949500Y-97252135D01*
X168949500Y-98847870D01*
X168949501Y-98847876D01*
X168955908Y-98907483D01*
X169006202Y-99042328D01*
X169006203Y-99042330D01*
X169068606Y-99125689D01*
X169093023Y-99191153D01*
X169078172Y-99259426D01*
X169068606Y-99274311D01*
X169006203Y-99357669D01*
X169006202Y-99357671D01*
X168955908Y-99492517D01*
X168949501Y-99552116D01*
X168949500Y-99552135D01*
X168949500Y-101147870D01*
X168949501Y-101147876D01*
X168955908Y-101207483D01*
X169006202Y-101342328D01*
X169006206Y-101342335D01*
X169092452Y-101457544D01*
X169092455Y-101457547D01*
X169207664Y-101543793D01*
X169215454Y-101548047D01*
X169214403Y-101549970D01*
X169260585Y-101584539D01*
X169285006Y-101650002D01*
X169270157Y-101718275D01*
X169264425Y-101727744D01*
X169214504Y-101802456D01*
X169214503Y-101802459D01*
X169200000Y-101875371D01*
X169200000Y-102525000D01*
X171700000Y-102525000D01*
X171700000Y-102375000D01*
X171975000Y-102375000D01*
X171975000Y-102547844D01*
X171981401Y-102607372D01*
X171981403Y-102607379D01*
X172031645Y-102742086D01*
X172031649Y-102742093D01*
X172117809Y-102857187D01*
X172117812Y-102857190D01*
X172232906Y-102943350D01*
X172232913Y-102943354D01*
X172367620Y-102993596D01*
X172367627Y-102993598D01*
X172427155Y-102999999D01*
X172427172Y-103000000D01*
X172825000Y-103000000D01*
X172825000Y-102375000D01*
X173075000Y-102375000D01*
X173075000Y-103000000D01*
X173472828Y-103000000D01*
X173472844Y-102999999D01*
X173532372Y-102993598D01*
X173532379Y-102993596D01*
X173667086Y-102943354D01*
X173667093Y-102943350D01*
X173782187Y-102857190D01*
X173782190Y-102857187D01*
X173868350Y-102742093D01*
X173868354Y-102742086D01*
X173918596Y-102607379D01*
X173918598Y-102607372D01*
X173924999Y-102547844D01*
X173925000Y-102547827D01*
X173925000Y-102375000D01*
X173075000Y-102375000D01*
X172825000Y-102375000D01*
X171975000Y-102375000D01*
X171700000Y-102375000D01*
X171700000Y-102325000D01*
X174725001Y-102325000D01*
X174725001Y-102529196D01*
X174727851Y-102559606D01*
X174772653Y-102687645D01*
X174853207Y-102796792D01*
X174962354Y-102877346D01*
X175090397Y-102922149D01*
X175120778Y-102924998D01*
X175120806Y-102924999D01*
X175249999Y-102924999D01*
X175250000Y-102924998D01*
X175250000Y-102325000D01*
X174725001Y-102325000D01*
X171700000Y-102325000D01*
X171700000Y-101875373D01*
X171699999Y-101875371D01*
X171685496Y-101802459D01*
X171685494Y-101802455D01*
X171635575Y-101727745D01*
X171614697Y-101661067D01*
X171633182Y-101593687D01*
X171685160Y-101546997D01*
X171691046Y-101544497D01*
X171692326Y-101543797D01*
X171692331Y-101543796D01*
X171807546Y-101457546D01*
X171893796Y-101342331D01*
X171907447Y-101305730D01*
X171949317Y-101249797D01*
X172014781Y-101225379D01*
X172083054Y-101240230D01*
X172088717Y-101243519D01*
X172090992Y-101244923D01*
X172155657Y-101284809D01*
X172155660Y-101284810D01*
X172155666Y-101284814D01*
X172248151Y-101315460D01*
X172305594Y-101355231D01*
X172332418Y-101419747D01*
X172320103Y-101488523D01*
X172272561Y-101539723D01*
X172252483Y-101549345D01*
X172232918Y-101556642D01*
X172232906Y-101556649D01*
X172117812Y-101642809D01*
X172117809Y-101642812D01*
X172031649Y-101757906D01*
X172031645Y-101757913D01*
X171981403Y-101892620D01*
X171981401Y-101892627D01*
X171975000Y-101952155D01*
X171975000Y-102125000D01*
X173925000Y-102125000D01*
X173925000Y-101952172D01*
X173924999Y-101952155D01*
X173918598Y-101892627D01*
X173918596Y-101892620D01*
X173868354Y-101757913D01*
X173868350Y-101757906D01*
X173782190Y-101642812D01*
X173782187Y-101642809D01*
X173667093Y-101556649D01*
X173667088Y-101556646D01*
X173647520Y-101549348D01*
X173591587Y-101507476D01*
X173567170Y-101442012D01*
X173582022Y-101373739D01*
X173631427Y-101324334D01*
X173651847Y-101315460D01*
X173744334Y-101284814D01*
X173893656Y-101192712D01*
X173949549Y-101136819D01*
X174010872Y-101103334D01*
X174037230Y-101100500D01*
X174556966Y-101100500D01*
X174624005Y-101120185D01*
X174644647Y-101136819D01*
X174732108Y-101224280D01*
X174732112Y-101224283D01*
X174875204Y-101312544D01*
X174875207Y-101312545D01*
X174875213Y-101312549D01*
X174904559Y-101322273D01*
X174962005Y-101362045D01*
X174988828Y-101426561D01*
X174976513Y-101495337D01*
X174939190Y-101539749D01*
X174853207Y-101603207D01*
X174772653Y-101712354D01*
X174727850Y-101840395D01*
X174727850Y-101840399D01*
X174725000Y-101870793D01*
X174725000Y-102075000D01*
X175376000Y-102075000D01*
X175443039Y-102094685D01*
X175488794Y-102147489D01*
X175500000Y-102199000D01*
X175500000Y-102924999D01*
X175629196Y-102924999D01*
X175659606Y-102922148D01*
X175787645Y-102877346D01*
X175896791Y-102796792D01*
X175958704Y-102712903D01*
X176014352Y-102670652D01*
X176084008Y-102665193D01*
X176145557Y-102698260D01*
X176176860Y-102749645D01*
X176181522Y-102764606D01*
X176242826Y-102866014D01*
X176269530Y-102910188D01*
X176389811Y-103030469D01*
X176389813Y-103030470D01*
X176389815Y-103030472D01*
X176535394Y-103118478D01*
X176697804Y-103169086D01*
X176768384Y-103175500D01*
X176768387Y-103175500D01*
X177281613Y-103175500D01*
X177281616Y-103175500D01*
X177352196Y-103169086D01*
X177514606Y-103118478D01*
X177660185Y-103030472D01*
X177780472Y-102910185D01*
X177868478Y-102764606D01*
X177919086Y-102602196D01*
X177925500Y-102531616D01*
X177925500Y-101868384D01*
X177919086Y-101797804D01*
X177868478Y-101635394D01*
X177780472Y-101489815D01*
X177780470Y-101489813D01*
X177780469Y-101489811D01*
X177666596Y-101375938D01*
X177633111Y-101314615D01*
X177638095Y-101244923D01*
X177666596Y-101200576D01*
X177712891Y-101154281D01*
X177761781Y-101105391D01*
X177850049Y-100962287D01*
X177902936Y-100802685D01*
X177913000Y-100704174D01*
X177913000Y-100095826D01*
X177902936Y-99997315D01*
X177850049Y-99837713D01*
X177850045Y-99837707D01*
X177850044Y-99837704D01*
X177761783Y-99694612D01*
X177761780Y-99694608D01*
X177642891Y-99575719D01*
X177642887Y-99575716D01*
X177499795Y-99487455D01*
X177499789Y-99487452D01*
X177499787Y-99487451D01*
X177340185Y-99434564D01*
X177340183Y-99434563D01*
X177241681Y-99424500D01*
X177241674Y-99424500D01*
X176708326Y-99424500D01*
X176708318Y-99424500D01*
X176609816Y-99434563D01*
X176609815Y-99434564D01*
X176570744Y-99447511D01*
X176450215Y-99487450D01*
X176450204Y-99487455D01*
X176307112Y-99575716D01*
X176307108Y-99575719D01*
X176275181Y-99607647D01*
X176213858Y-99641132D01*
X176144166Y-99636148D01*
X176099819Y-99607647D01*
X176067891Y-99575719D01*
X176067887Y-99575716D01*
X175924795Y-99487455D01*
X175924789Y-99487452D01*
X175924787Y-99487451D01*
X175765185Y-99434564D01*
X175765183Y-99434563D01*
X175666681Y-99424500D01*
X175666674Y-99424500D01*
X175133326Y-99424500D01*
X175133318Y-99424500D01*
X175034816Y-99434563D01*
X175034815Y-99434564D01*
X174995744Y-99447511D01*
X174875215Y-99487450D01*
X174875204Y-99487455D01*
X174725962Y-99579510D01*
X174724598Y-99577299D01*
X174671061Y-99598905D01*
X174658933Y-99599500D01*
X174037230Y-99599500D01*
X173970191Y-99579815D01*
X173949549Y-99563181D01*
X173936549Y-99550181D01*
X173903064Y-99488858D01*
X173908048Y-99419166D01*
X173936549Y-99374819D01*
X173953699Y-99357669D01*
X174017712Y-99293656D01*
X174109814Y-99144334D01*
X174164999Y-98977797D01*
X174175500Y-98875009D01*
X174175499Y-98374728D01*
X174195183Y-98307690D01*
X174211814Y-98287052D01*
X175085638Y-97413227D01*
X175099267Y-97401450D01*
X175101885Y-97399501D01*
X175118530Y-97387110D01*
X175150366Y-97349169D01*
X175157683Y-97341184D01*
X175158993Y-97339872D01*
X175161590Y-97337277D01*
X175161591Y-97337276D01*
X175180811Y-97312967D01*
X175183094Y-97310164D01*
X175184923Y-97307985D01*
X175231302Y-97252714D01*
X175231303Y-97252711D01*
X175235272Y-97246679D01*
X175235323Y-97246712D01*
X175239369Y-97240360D01*
X175239317Y-97240328D01*
X175243105Y-97234183D01*
X175243111Y-97234177D01*
X175274829Y-97166155D01*
X175276369Y-97162976D01*
X175310040Y-97095933D01*
X175310043Y-97095917D01*
X175312510Y-97089144D01*
X175312568Y-97089165D01*
X175315043Y-97082046D01*
X175314985Y-97082027D01*
X175317255Y-97075177D01*
X175317256Y-97075173D01*
X175332431Y-97001671D01*
X175333186Y-96998267D01*
X175350500Y-96925221D01*
X175350500Y-96925219D01*
X175350501Y-96925215D01*
X175351339Y-96918048D01*
X175351397Y-96918054D01*
X175352164Y-96910556D01*
X175352104Y-96910551D01*
X175352733Y-96903360D01*
X175350552Y-96828389D01*
X175350500Y-96824783D01*
X175350500Y-94920284D01*
X175370185Y-94853245D01*
X175422989Y-94807490D01*
X175460417Y-94800305D01*
X175861844Y-94398878D01*
X175889382Y-94452923D01*
X175984577Y-94548118D01*
X176038621Y-94575654D01*
X175641827Y-94972447D01*
X175641827Y-94972448D01*
X175693197Y-95014605D01*
X175693199Y-95014607D01*
X175862576Y-95105140D01*
X176046363Y-95160892D01*
X176046365Y-95160893D01*
X176237500Y-95179717D01*
X176428634Y-95160893D01*
X176428636Y-95160892D01*
X176612423Y-95105140D01*
X176781796Y-95014609D01*
X176781803Y-95014605D01*
X176833170Y-94972448D01*
X176833170Y-94972447D01*
X176436378Y-94575655D01*
X176490423Y-94548118D01*
X176585618Y-94452923D01*
X176613155Y-94398878D01*
X177009947Y-94795670D01*
X177009948Y-94795670D01*
X177052105Y-94744303D01*
X177052109Y-94744296D01*
X177142640Y-94574923D01*
X177198392Y-94391136D01*
X177198393Y-94391134D01*
X177217217Y-94200000D01*
X177198393Y-94008865D01*
X177198392Y-94008863D01*
X177142640Y-93825076D01*
X177127114Y-93796028D01*
X177112872Y-93727626D01*
X177137872Y-93662382D01*
X177162157Y-93638311D01*
X177270046Y-93557546D01*
X177283055Y-93540167D01*
X177338988Y-93498296D01*
X177408680Y-93493312D01*
X177470003Y-93526797D01*
X177498504Y-93571145D01*
X177539726Y-93681667D01*
X177544710Y-93751359D01*
X177539726Y-93768333D01*
X177493408Y-93892517D01*
X177487001Y-93952116D01*
X177487000Y-93952135D01*
X177487000Y-95247870D01*
X177487001Y-95247876D01*
X177493408Y-95307483D01*
X177543702Y-95442328D01*
X177543706Y-95442335D01*
X177629952Y-95557544D01*
X177629955Y-95557547D01*
X177745164Y-95643793D01*
X177745171Y-95643797D01*
X177806631Y-95666720D01*
X177867199Y-95689310D01*
X177918374Y-95725216D01*
X177999508Y-95820734D01*
X178146695Y-95932622D01*
X178314492Y-96010254D01*
X178314496Y-96010256D01*
X178495056Y-96049999D01*
X178495060Y-96050000D01*
X178812500Y-96050000D01*
X178812500Y-95824499D01*
X178832185Y-95757460D01*
X178884989Y-95711705D01*
X178936497Y-95700499D01*
X178938501Y-95700499D01*
X179005539Y-95720184D01*
X179051294Y-95772988D01*
X179062500Y-95824499D01*
X179062500Y-96050000D01*
X179333579Y-96050000D01*
X179333585Y-96049999D01*
X179471300Y-96035022D01*
X179471304Y-96035021D01*
X179646511Y-95975986D01*
X179804930Y-95880669D01*
X179939158Y-95753522D01*
X179939158Y-95753521D01*
X179951980Y-95734610D01*
X180005892Y-95690167D01*
X180011284Y-95688011D01*
X180129826Y-95643798D01*
X180129826Y-95643797D01*
X180129831Y-95643796D01*
X180245046Y-95557546D01*
X180248825Y-95552496D01*
X180304753Y-95510623D01*
X180374444Y-95505634D01*
X180435770Y-95539114D01*
X180469259Y-95600435D01*
X180472095Y-95626694D01*
X180487456Y-113314997D01*
X180485470Y-113337209D01*
X180463079Y-113460810D01*
X180462998Y-113461255D01*
X180427334Y-113654108D01*
X180424537Y-113665947D01*
X180380672Y-113817918D01*
X180380290Y-113819215D01*
X180330528Y-113984817D01*
X180326800Y-113995446D01*
X180266015Y-114146413D01*
X180265154Y-114148496D01*
X180199457Y-114303470D01*
X180195017Y-114312835D01*
X180118344Y-114458484D01*
X180116838Y-114461258D01*
X180035573Y-114606535D01*
X180030642Y-114614610D01*
X179939037Y-114752513D01*
X179936738Y-114755855D01*
X179840700Y-114890647D01*
X179835493Y-114897446D01*
X179730024Y-115025723D01*
X179726800Y-115029487D01*
X179617004Y-115152645D01*
X179611730Y-115158205D01*
X179493560Y-115275312D01*
X179489303Y-115279337D01*
X179366928Y-115389656D01*
X179361785Y-115394044D01*
X179232261Y-115498593D01*
X179226887Y-115502694D01*
X179093252Y-115599024D01*
X179088420Y-115602337D01*
X178948991Y-115693155D01*
X178942444Y-115697136D01*
X178798922Y-115778461D01*
X178794560Y-115780819D01*
X178646883Y-115856866D01*
X178639140Y-115860520D01*
X178487147Y-115925945D01*
X178483396Y-115927488D01*
X178329272Y-115987935D01*
X178320337Y-115991052D01*
X178161141Y-116039849D01*
X178158112Y-116040735D01*
X177999604Y-116084941D01*
X177989513Y-116087306D01*
X177824097Y-116118839D01*
X177821880Y-116119240D01*
X177661552Y-116146794D01*
X177650375Y-116148196D01*
X177477983Y-116161900D01*
X177476633Y-116162000D01*
X177318842Y-116172811D01*
X177306681Y-116173046D01*
X177110413Y-116167210D01*
X177109961Y-116167196D01*
X176983271Y-116162967D01*
X176980318Y-116162636D01*
X176978640Y-116162636D01*
X176968212Y-116162197D01*
X176946354Y-116160352D01*
X176943182Y-116161723D01*
X176928105Y-116162647D01*
X143676023Y-116171109D01*
X143608978Y-116151441D01*
X143563210Y-116098649D01*
X143553249Y-116029493D01*
X143582257Y-115965930D01*
X143641026Y-115928141D01*
X143655221Y-115924861D01*
X143929752Y-115878216D01*
X143929762Y-115878214D01*
X144258935Y-115783380D01*
X144575424Y-115652288D01*
X144575428Y-115652286D01*
X144875255Y-115486577D01*
X145154641Y-115288342D01*
X145316720Y-115143497D01*
X144289524Y-114116301D01*
X144384870Y-114034870D01*
X144466301Y-113939524D01*
X145493497Y-114966720D01*
X145638342Y-114804641D01*
X145836577Y-114525255D01*
X146002286Y-114225428D01*
X146002288Y-114225424D01*
X146133380Y-113908935D01*
X146228214Y-113579762D01*
X146228216Y-113579754D01*
X146285596Y-113242037D01*
X146285598Y-113242025D01*
X146304805Y-112900000D01*
X146293574Y-112700000D01*
X174095194Y-112700000D01*
X174114401Y-113042025D01*
X174114403Y-113042037D01*
X174171783Y-113379754D01*
X174171785Y-113379762D01*
X174266619Y-113708935D01*
X174397711Y-114025424D01*
X174397713Y-114025428D01*
X174563422Y-114325255D01*
X174761660Y-114604646D01*
X174906500Y-114766720D01*
X174906501Y-114766721D01*
X175933697Y-113739524D01*
X176015130Y-113834870D01*
X176110474Y-113916301D01*
X175083278Y-114943498D01*
X175245353Y-115088339D01*
X175524744Y-115286577D01*
X175824571Y-115452286D01*
X175824575Y-115452288D01*
X176141064Y-115583380D01*
X176470237Y-115678214D01*
X176470245Y-115678216D01*
X176807962Y-115735596D01*
X176807974Y-115735598D01*
X177150000Y-115754805D01*
X177492025Y-115735598D01*
X177492037Y-115735596D01*
X177829754Y-115678216D01*
X177829762Y-115678214D01*
X178158935Y-115583380D01*
X178475424Y-115452288D01*
X178475428Y-115452286D01*
X178775255Y-115286577D01*
X179054641Y-115088342D01*
X179216720Y-114943497D01*
X178189524Y-113916301D01*
X178284870Y-113834870D01*
X178366301Y-113739524D01*
X179393497Y-114766720D01*
X179538342Y-114604641D01*
X179736577Y-114325255D01*
X179902286Y-114025428D01*
X179902288Y-114025424D01*
X180033380Y-113708935D01*
X180128214Y-113379762D01*
X180128216Y-113379754D01*
X180185596Y-113042037D01*
X180185598Y-113042025D01*
X180204805Y-112700000D01*
X180185598Y-112357974D01*
X180185596Y-112357962D01*
X180128216Y-112020245D01*
X180128214Y-112020237D01*
X180033380Y-111691064D01*
X179902288Y-111374575D01*
X179902286Y-111374571D01*
X179736577Y-111074744D01*
X179538339Y-110795353D01*
X179393498Y-110633278D01*
X178366301Y-111660474D01*
X178284870Y-111565130D01*
X178189524Y-111483698D01*
X179216721Y-110456501D01*
X179216720Y-110456500D01*
X179054646Y-110311660D01*
X178775255Y-110113422D01*
X178475428Y-109947713D01*
X178475424Y-109947711D01*
X178158935Y-109816619D01*
X177829762Y-109721785D01*
X177829754Y-109721783D01*
X177492037Y-109664403D01*
X177492025Y-109664401D01*
X177150000Y-109645194D01*
X176807974Y-109664401D01*
X176807962Y-109664403D01*
X176470245Y-109721783D01*
X176470237Y-109721785D01*
X176141064Y-109816619D01*
X175824575Y-109947711D01*
X175824571Y-109947713D01*
X175524744Y-110113422D01*
X175245358Y-110311657D01*
X175083278Y-110456501D01*
X176110475Y-111483698D01*
X176015130Y-111565130D01*
X175933698Y-111660475D01*
X174906501Y-110633278D01*
X174761657Y-110795358D01*
X174563422Y-111074744D01*
X174397713Y-111374571D01*
X174397711Y-111374575D01*
X174266619Y-111691064D01*
X174171785Y-112020237D01*
X174171783Y-112020245D01*
X174114403Y-112357962D01*
X174114401Y-112357974D01*
X174095194Y-112700000D01*
X146293574Y-112700000D01*
X146285598Y-112557974D01*
X146285596Y-112557962D01*
X146228216Y-112220245D01*
X146228214Y-112220237D01*
X146133380Y-111891064D01*
X146002288Y-111574575D01*
X146002286Y-111574571D01*
X145836577Y-111274744D01*
X145638339Y-110995353D01*
X145493498Y-110833278D01*
X145493497Y-110833278D01*
X144466301Y-111860474D01*
X144384870Y-111765130D01*
X144289524Y-111683698D01*
X145316721Y-110656501D01*
X145316720Y-110656500D01*
X145154646Y-110511660D01*
X144875255Y-110313422D01*
X144575428Y-110147713D01*
X144575424Y-110147711D01*
X144258935Y-110016619D01*
X144092446Y-109968654D01*
X144033476Y-109931179D01*
X144004128Y-109867773D01*
X144013718Y-109798564D01*
X144059204Y-109745528D01*
X144126142Y-109725502D01*
X144126774Y-109725500D01*
X144731613Y-109725500D01*
X144731616Y-109725500D01*
X144802196Y-109719086D01*
X144964606Y-109668478D01*
X145110185Y-109580472D01*
X145217812Y-109472844D01*
X145279133Y-109439360D01*
X145348825Y-109444344D01*
X145393173Y-109472845D01*
X145494608Y-109574280D01*
X145494612Y-109574283D01*
X145637704Y-109662544D01*
X145637707Y-109662545D01*
X145637713Y-109662549D01*
X145797315Y-109715436D01*
X145895826Y-109725500D01*
X145895831Y-109725500D01*
X146504169Y-109725500D01*
X146504174Y-109725500D01*
X146602685Y-109715436D01*
X146762287Y-109662549D01*
X146905391Y-109574281D01*
X147024281Y-109455391D01*
X147112549Y-109312287D01*
X147165436Y-109152685D01*
X147175500Y-109054174D01*
X147175500Y-108520826D01*
X147165436Y-108422315D01*
X147112549Y-108262713D01*
X147112545Y-108262707D01*
X147112544Y-108262704D01*
X147024283Y-108119612D01*
X147024280Y-108119608D01*
X146992353Y-108087681D01*
X146958868Y-108026358D01*
X146963852Y-107956666D01*
X146992353Y-107912319D01*
X147024281Y-107880391D01*
X147112549Y-107737287D01*
X147165436Y-107577685D01*
X147175500Y-107479174D01*
X147175500Y-106945826D01*
X147165436Y-106847315D01*
X147112549Y-106687713D01*
X147112545Y-106687707D01*
X147112544Y-106687704D01*
X147024283Y-106544612D01*
X147024280Y-106544608D01*
X146905391Y-106425719D01*
X146905387Y-106425716D01*
X146762295Y-106337455D01*
X146762289Y-106337452D01*
X146762287Y-106337451D01*
X146602685Y-106284564D01*
X146602683Y-106284563D01*
X146504181Y-106274500D01*
X146504174Y-106274500D01*
X145895826Y-106274500D01*
X145895818Y-106274500D01*
X145797316Y-106284563D01*
X145797315Y-106284564D01*
X145718219Y-106310773D01*
X145637715Y-106337450D01*
X145637704Y-106337455D01*
X145494612Y-106425716D01*
X145494608Y-106425719D01*
X145375719Y-106544608D01*
X145375716Y-106544612D01*
X145287455Y-106687704D01*
X145287451Y-106687713D01*
X145280583Y-106708436D01*
X145240812Y-106765879D01*
X145176296Y-106792702D01*
X145107520Y-106780387D01*
X145063109Y-106743064D01*
X144996792Y-106653207D01*
X144887645Y-106572653D01*
X144759602Y-106527850D01*
X144729207Y-106525000D01*
X144525000Y-106525000D01*
X144525000Y-107176000D01*
X144505315Y-107243039D01*
X144452511Y-107288794D01*
X144401000Y-107300000D01*
X143675001Y-107300000D01*
X143675001Y-107429196D01*
X143677851Y-107459606D01*
X143722653Y-107587645D01*
X143803207Y-107696792D01*
X143887097Y-107758705D01*
X143929347Y-107814352D01*
X143934806Y-107884008D01*
X143901739Y-107945558D01*
X143850354Y-107976860D01*
X143835396Y-107981521D01*
X143835394Y-107981521D01*
X143835394Y-107981522D01*
X143786867Y-108010857D01*
X143689811Y-108069530D01*
X143569530Y-108189811D01*
X143481522Y-108335393D01*
X143430913Y-108497807D01*
X143428821Y-108520831D01*
X143424669Y-108566530D01*
X143424500Y-108568386D01*
X143424500Y-109081613D01*
X143430913Y-109152192D01*
X143430913Y-109152194D01*
X143430914Y-109152196D01*
X143481522Y-109314606D01*
X143566627Y-109455387D01*
X143569530Y-109460188D01*
X143689811Y-109580469D01*
X143689813Y-109580470D01*
X143689815Y-109580472D01*
X143822692Y-109660799D01*
X143869880Y-109712327D01*
X143881718Y-109781187D01*
X143854449Y-109845515D01*
X143796730Y-109884889D01*
X143737771Y-109889164D01*
X143592037Y-109864403D01*
X143592025Y-109864401D01*
X143250000Y-109845194D01*
X142907974Y-109864401D01*
X142907962Y-109864403D01*
X142570245Y-109921783D01*
X142570237Y-109921785D01*
X142241064Y-110016619D01*
X141924575Y-110147711D01*
X141924571Y-110147713D01*
X141624744Y-110313422D01*
X141345358Y-110511657D01*
X141183278Y-110656501D01*
X142210475Y-111683698D01*
X142115130Y-111765130D01*
X142033698Y-111860474D01*
X141006501Y-110833278D01*
X140861657Y-110995358D01*
X140663422Y-111274744D01*
X140497713Y-111574571D01*
X140497711Y-111574575D01*
X140366619Y-111891064D01*
X140271785Y-112220237D01*
X140271783Y-112220245D01*
X140214403Y-112557962D01*
X140214401Y-112557974D01*
X140195194Y-112900000D01*
X140214401Y-113242025D01*
X140214403Y-113242037D01*
X140271783Y-113579754D01*
X140271785Y-113579762D01*
X140366619Y-113908935D01*
X140497711Y-114225424D01*
X140497713Y-114225428D01*
X140663422Y-114525255D01*
X140861660Y-114804646D01*
X141006500Y-114966720D01*
X141006501Y-114966721D01*
X142033697Y-113939524D01*
X142115130Y-114034870D01*
X142210474Y-114116301D01*
X141183278Y-115143498D01*
X141345353Y-115288339D01*
X141624744Y-115486577D01*
X141924571Y-115652286D01*
X141924575Y-115652288D01*
X142241064Y-115783380D01*
X142570237Y-115878214D01*
X142570245Y-115878216D01*
X142846053Y-115925078D01*
X142908848Y-115955714D01*
X142945111Y-116015436D01*
X142943330Y-116085283D01*
X142904069Y-116143079D01*
X142839794Y-116170474D01*
X142825313Y-116171326D01*
X142295686Y-116171460D01*
X142256731Y-116165192D01*
X142167652Y-116135741D01*
X142167135Y-116135569D01*
X141951114Y-116063095D01*
X141939784Y-116058664D01*
X141802637Y-115997114D01*
X141801245Y-115996479D01*
X141629677Y-115916824D01*
X141619835Y-115911706D01*
X141481993Y-115831977D01*
X141479716Y-115830626D01*
X141325723Y-115737110D01*
X141317340Y-115731542D01*
X141185526Y-115636053D01*
X141182556Y-115633833D01*
X141042638Y-115525949D01*
X141035711Y-115520195D01*
X140913061Y-115410549D01*
X140909568Y-115407304D01*
X140783690Y-115285750D01*
X140778154Y-115280050D01*
X140773838Y-115275312D01*
X140666773Y-115157768D01*
X140662952Y-115153369D01*
X140560335Y-115029487D01*
X140551789Y-115019169D01*
X140547570Y-115013779D01*
X140449105Y-114880488D01*
X140445185Y-114874860D01*
X140349571Y-114729143D01*
X140346491Y-114724199D01*
X140262355Y-114581812D01*
X140258538Y-114574852D01*
X140179350Y-114418809D01*
X140177293Y-114414557D01*
X140108505Y-114265025D01*
X140105061Y-114256760D01*
X140043029Y-114091218D01*
X140041834Y-114087876D01*
X139989270Y-113933718D01*
X139986425Y-113924115D01*
X139942288Y-113749391D01*
X139941680Y-113746873D01*
X139932954Y-113708935D01*
X139905978Y-113591652D01*
X139903980Y-113580746D01*
X139878252Y-113393228D01*
X139878105Y-113392102D01*
X139859546Y-113242631D01*
X139858646Y-113230545D01*
X139852705Y-112995450D01*
X139850541Y-112892343D01*
X139850570Y-112886022D01*
X139851570Y-112852672D01*
X139850486Y-112839822D01*
X139848967Y-107050000D01*
X143675000Y-107050000D01*
X144275000Y-107050000D01*
X144275000Y-106525000D01*
X144070804Y-106525000D01*
X144040393Y-106527851D01*
X143912354Y-106572653D01*
X143803207Y-106653207D01*
X143722653Y-106762354D01*
X143677850Y-106890395D01*
X143677850Y-106890399D01*
X143675000Y-106920793D01*
X143675000Y-107050000D01*
X139848967Y-107050000D01*
X139848300Y-104505000D01*
X142440001Y-104505000D01*
X142440001Y-104550689D01*
X142454465Y-104642017D01*
X142510552Y-104752093D01*
X142510555Y-104752098D01*
X142597901Y-104839444D01*
X142597906Y-104839448D01*
X142707984Y-104895536D01*
X142799303Y-104909999D01*
X142874999Y-104909998D01*
X142875000Y-104909998D01*
X142875000Y-104505000D01*
X143125000Y-104505000D01*
X143125000Y-104909999D01*
X143200689Y-104909999D01*
X143292017Y-104895534D01*
X143402093Y-104839447D01*
X143402098Y-104839444D01*
X143489444Y-104752098D01*
X143489448Y-104752093D01*
X143545536Y-104642015D01*
X143560000Y-104550691D01*
X143560000Y-104505000D01*
X143125000Y-104505000D01*
X142875000Y-104505000D01*
X142440001Y-104505000D01*
X139848300Y-104505000D01*
X139844268Y-89125000D01*
X144090001Y-89125000D01*
X144090001Y-89200689D01*
X144104465Y-89292017D01*
X144160552Y-89402093D01*
X144160555Y-89402098D01*
X144247901Y-89489444D01*
X144247906Y-89489448D01*
X144357984Y-89545536D01*
X144357983Y-89545536D01*
X144449304Y-89559999D01*
X144494999Y-89559999D01*
X144495000Y-89559998D01*
X144495000Y-89125000D01*
X144090001Y-89125000D01*
X139844268Y-89125000D01*
X139844202Y-88875000D01*
X144090000Y-88875000D01*
X144495000Y-88875000D01*
X144495000Y-88440000D01*
X144449311Y-88440000D01*
X144357982Y-88454465D01*
X144247906Y-88510552D01*
X144247901Y-88510555D01*
X144160555Y-88597901D01*
X144160551Y-88597906D01*
X144104463Y-88707984D01*
X144090000Y-88799308D01*
X144090000Y-88875000D01*
X139844202Y-88875000D01*
X139842216Y-81300000D01*
X144645225Y-81300000D01*
X144664287Y-81517884D01*
X144664289Y-81517894D01*
X144720894Y-81729150D01*
X144720898Y-81729159D01*
X144813333Y-81927387D01*
X144929678Y-82093545D01*
X145431638Y-81591585D01*
X145446442Y-81620156D01*
X145549638Y-81730652D01*
X145609636Y-81767138D01*
X145106453Y-82270320D01*
X145272612Y-82386667D01*
X145470840Y-82479101D01*
X145470849Y-82479105D01*
X145682105Y-82535710D01*
X145682115Y-82535712D01*
X145899999Y-82554775D01*
X145900001Y-82554775D01*
X146117884Y-82535712D01*
X146117894Y-82535710D01*
X146329150Y-82479105D01*
X146329164Y-82479100D01*
X146527383Y-82386669D01*
X146527391Y-82386665D01*
X146693545Y-82270321D01*
X146693545Y-82270320D01*
X146193484Y-81770259D01*
X146305739Y-81678934D01*
X146367795Y-81591019D01*
X146870320Y-82093545D01*
X146870321Y-82093545D01*
X146986665Y-81927391D01*
X146986669Y-81927383D01*
X147079100Y-81729164D01*
X147079105Y-81729150D01*
X147135710Y-81517894D01*
X147135712Y-81517884D01*
X147154775Y-81300000D01*
X151145225Y-81300000D01*
X151164287Y-81517884D01*
X151164289Y-81517894D01*
X151220894Y-81729150D01*
X151220898Y-81729159D01*
X151313333Y-81927387D01*
X151429678Y-82093545D01*
X151931638Y-81591585D01*
X151946442Y-81620156D01*
X152049638Y-81730652D01*
X152109636Y-81767138D01*
X151606453Y-82270320D01*
X151772612Y-82386667D01*
X151970840Y-82479101D01*
X151970849Y-82479105D01*
X152182105Y-82535710D01*
X152182115Y-82535712D01*
X152399999Y-82554775D01*
X152400001Y-82554775D01*
X152617884Y-82535712D01*
X152617894Y-82535710D01*
X152829150Y-82479105D01*
X152829164Y-82479100D01*
X153027383Y-82386669D01*
X153027391Y-82386665D01*
X153193545Y-82270321D01*
X153193545Y-82270320D01*
X152693484Y-81770259D01*
X152805739Y-81678934D01*
X152867795Y-81591020D01*
X153370320Y-82093545D01*
X153370321Y-82093545D01*
X153486665Y-81927391D01*
X153486669Y-81927383D01*
X153579100Y-81729164D01*
X153579105Y-81729150D01*
X153635710Y-81517894D01*
X153635712Y-81517884D01*
X153654775Y-81300000D01*
X153654775Y-81299999D01*
X153635712Y-81082115D01*
X153635710Y-81082105D01*
X153579105Y-80870849D01*
X153579101Y-80870840D01*
X153486668Y-80672615D01*
X153370320Y-80506453D01*
X152868361Y-81008413D01*
X152853558Y-80979844D01*
X152750362Y-80869348D01*
X152690361Y-80832860D01*
X153193545Y-80329678D01*
X153027387Y-80213333D01*
X152829159Y-80120898D01*
X152829150Y-80120894D01*
X152617894Y-80064289D01*
X152617884Y-80064287D01*
X152400001Y-80045225D01*
X152399999Y-80045225D01*
X152182115Y-80064287D01*
X152182105Y-80064289D01*
X151970849Y-80120894D01*
X151970840Y-80120898D01*
X151772614Y-80213332D01*
X151772612Y-80213333D01*
X151606453Y-80329677D01*
X151606453Y-80329678D01*
X152106515Y-80829740D01*
X151994261Y-80921066D01*
X151932204Y-81008980D01*
X151429678Y-80506453D01*
X151429677Y-80506453D01*
X151313333Y-80672612D01*
X151313332Y-80672614D01*
X151220898Y-80870840D01*
X151220894Y-80870849D01*
X151164289Y-81082105D01*
X151164287Y-81082115D01*
X151145225Y-81299999D01*
X151145225Y-81300000D01*
X147154775Y-81300000D01*
X147154775Y-81299999D01*
X147135712Y-81082115D01*
X147135710Y-81082105D01*
X147079105Y-80870849D01*
X147079101Y-80870840D01*
X146986668Y-80672615D01*
X146870320Y-80506453D01*
X146368361Y-81008413D01*
X146353558Y-80979844D01*
X146250362Y-80869348D01*
X146190361Y-80832860D01*
X146693545Y-80329678D01*
X146527387Y-80213333D01*
X146329159Y-80120898D01*
X146329150Y-80120894D01*
X146117894Y-80064289D01*
X146117884Y-80064287D01*
X145900001Y-80045225D01*
X145899999Y-80045225D01*
X145682115Y-80064287D01*
X145682105Y-80064289D01*
X145470849Y-80120894D01*
X145470840Y-80120898D01*
X145272614Y-80213332D01*
X145272612Y-80213333D01*
X145106453Y-80329677D01*
X145106453Y-80329678D01*
X145606515Y-80829740D01*
X145494261Y-80921066D01*
X145432204Y-81008980D01*
X144929678Y-80506453D01*
X144929677Y-80506453D01*
X144813333Y-80672612D01*
X144813332Y-80672614D01*
X144720898Y-80870840D01*
X144720894Y-80870849D01*
X144664289Y-81082105D01*
X144664287Y-81082115D01*
X144645225Y-81299999D01*
X144645225Y-81300000D01*
X139842216Y-81300000D01*
X139841036Y-76800005D01*
X144394357Y-76800005D01*
X144414890Y-77047812D01*
X144414892Y-77047824D01*
X144475936Y-77288881D01*
X144575826Y-77516606D01*
X144711833Y-77724782D01*
X144711836Y-77724785D01*
X144880256Y-77907738D01*
X145076491Y-78060474D01*
X145295190Y-78178828D01*
X145530386Y-78259571D01*
X145775665Y-78300500D01*
X146024335Y-78300500D01*
X146269614Y-78259571D01*
X146504810Y-78178828D01*
X146723509Y-78060474D01*
X146919744Y-77907738D01*
X147088164Y-77724785D01*
X147224173Y-77516607D01*
X147324063Y-77288881D01*
X147385108Y-77047821D01*
X147405643Y-76800005D01*
X150894357Y-76800005D01*
X150914890Y-77047812D01*
X150914892Y-77047824D01*
X150975936Y-77288881D01*
X151075826Y-77516606D01*
X151211833Y-77724782D01*
X151211836Y-77724785D01*
X151380256Y-77907738D01*
X151576491Y-78060474D01*
X151795190Y-78178828D01*
X152030386Y-78259571D01*
X152275665Y-78300500D01*
X152524335Y-78300500D01*
X152769614Y-78259571D01*
X153004810Y-78178828D01*
X153223509Y-78060474D01*
X153419744Y-77907738D01*
X153588164Y-77724785D01*
X153724173Y-77516607D01*
X153824063Y-77288881D01*
X153885108Y-77047821D01*
X153905643Y-76800000D01*
X153885108Y-76552179D01*
X153824063Y-76311119D01*
X153821159Y-76304499D01*
X153724173Y-76083393D01*
X153588166Y-75875217D01*
X153513961Y-75794609D01*
X153419744Y-75692262D01*
X153223509Y-75539526D01*
X153223507Y-75539525D01*
X153223506Y-75539524D01*
X153004811Y-75421172D01*
X153004802Y-75421169D01*
X152769616Y-75340429D01*
X152524335Y-75299500D01*
X152275665Y-75299500D01*
X152030383Y-75340429D01*
X151795197Y-75421169D01*
X151795188Y-75421172D01*
X151576493Y-75539524D01*
X151380257Y-75692261D01*
X151211833Y-75875217D01*
X151075826Y-76083393D01*
X150975936Y-76311118D01*
X150914892Y-76552175D01*
X150914890Y-76552187D01*
X150894357Y-76799994D01*
X150894357Y-76800005D01*
X147405643Y-76800005D01*
X147405643Y-76800000D01*
X147385108Y-76552179D01*
X147324063Y-76311119D01*
X147321159Y-76304499D01*
X147224173Y-76083393D01*
X147088166Y-75875217D01*
X147013961Y-75794609D01*
X146919744Y-75692262D01*
X146723509Y-75539526D01*
X146723507Y-75539525D01*
X146723506Y-75539524D01*
X146504811Y-75421172D01*
X146504802Y-75421169D01*
X146269616Y-75340429D01*
X146024335Y-75299500D01*
X145775665Y-75299500D01*
X145530383Y-75340429D01*
X145295197Y-75421169D01*
X145295188Y-75421172D01*
X145076493Y-75539524D01*
X144880257Y-75692261D01*
X144711833Y-75875217D01*
X144575826Y-76083393D01*
X144475936Y-76311118D01*
X144414892Y-76552175D01*
X144414890Y-76552187D01*
X144394357Y-76799994D01*
X144394357Y-76800005D01*
X139841036Y-76800005D01*
X139839174Y-69700000D01*
X140145194Y-69700000D01*
X140164401Y-70042025D01*
X140164403Y-70042037D01*
X140221783Y-70379754D01*
X140221785Y-70379762D01*
X140316619Y-70708935D01*
X140447711Y-71025424D01*
X140447713Y-71025428D01*
X140613422Y-71325255D01*
X140811660Y-71604646D01*
X140956500Y-71766720D01*
X140956501Y-71766721D01*
X141983697Y-70739524D01*
X142065130Y-70834870D01*
X142160474Y-70916301D01*
X141133278Y-71943498D01*
X141295353Y-72088339D01*
X141574744Y-72286577D01*
X141874571Y-72452286D01*
X141874575Y-72452288D01*
X142191064Y-72583380D01*
X142520237Y-72678214D01*
X142520245Y-72678216D01*
X142857962Y-72735596D01*
X142857974Y-72735598D01*
X143200000Y-72754805D01*
X143542025Y-72735598D01*
X143542037Y-72735596D01*
X143879754Y-72678216D01*
X143879762Y-72678214D01*
X144208935Y-72583380D01*
X144525424Y-72452288D01*
X144525428Y-72452286D01*
X144825255Y-72286577D01*
X145104641Y-72088342D01*
X145266720Y-71943497D01*
X144239524Y-70916301D01*
X144334870Y-70834870D01*
X144416301Y-70739524D01*
X145443497Y-71766720D01*
X145588342Y-71604641D01*
X145786577Y-71325255D01*
X145952286Y-71025428D01*
X145952288Y-71025424D01*
X146083380Y-70708935D01*
X146178214Y-70379762D01*
X146178216Y-70379754D01*
X146235596Y-70042037D01*
X146235598Y-70042025D01*
X146254805Y-69700000D01*
X146235598Y-69357974D01*
X146235596Y-69357962D01*
X146178216Y-69020245D01*
X146178214Y-69020237D01*
X146083380Y-68691064D01*
X145952288Y-68374575D01*
X145952286Y-68374571D01*
X145786577Y-68074744D01*
X145588339Y-67795353D01*
X145443498Y-67633278D01*
X144416301Y-68660474D01*
X144334870Y-68565130D01*
X144239524Y-68483698D01*
X145266721Y-67456501D01*
X145266720Y-67456500D01*
X145104646Y-67311660D01*
X144825255Y-67113422D01*
X144525428Y-66947713D01*
X144525424Y-66947711D01*
X144208935Y-66816619D01*
X143879762Y-66721785D01*
X143879754Y-66721783D01*
X143542037Y-66664403D01*
X143542025Y-66664401D01*
X143200000Y-66645194D01*
X142857974Y-66664401D01*
X142857962Y-66664403D01*
X142520245Y-66721783D01*
X142520237Y-66721785D01*
X142191064Y-66816619D01*
X141874575Y-66947711D01*
X141874571Y-66947713D01*
X141574744Y-67113422D01*
X141295358Y-67311657D01*
X141133278Y-67456501D01*
X142160475Y-68483698D01*
X142065130Y-68565130D01*
X141983698Y-68660475D01*
X140956501Y-67633278D01*
X140811657Y-67795358D01*
X140613422Y-68074744D01*
X140447713Y-68374571D01*
X140447711Y-68374575D01*
X140316619Y-68691064D01*
X140221785Y-69020237D01*
X140221783Y-69020245D01*
X140164403Y-69357962D01*
X140164401Y-69357974D01*
X140145194Y-69700000D01*
X139839174Y-69700000D01*
X139839071Y-69305619D01*
X139840627Y-69286015D01*
X139859351Y-69168920D01*
X139895316Y-68949482D01*
X139897982Y-68937181D01*
X139941119Y-68777781D01*
X139941423Y-68776683D01*
X139991609Y-68599824D01*
X139995270Y-68588896D01*
X140056930Y-68429936D01*
X140057809Y-68427738D01*
X140125645Y-68262877D01*
X140130063Y-68253322D01*
X140209172Y-68099780D01*
X140210764Y-68096796D01*
X140295808Y-67942676D01*
X140300730Y-67934518D01*
X140396195Y-67789281D01*
X140398697Y-67785622D01*
X140500087Y-67643027D01*
X140505210Y-67636324D01*
X140615878Y-67501476D01*
X140619418Y-67497356D01*
X140735958Y-67367643D01*
X140741142Y-67362215D01*
X140865563Y-67239662D01*
X140870264Y-67235269D01*
X141000738Y-67119683D01*
X141005669Y-67115543D01*
X141142310Y-67006819D01*
X141148301Y-67002344D01*
X141291157Y-66902264D01*
X141295691Y-66899236D01*
X141442831Y-66805676D01*
X141450182Y-66801351D01*
X141603915Y-66717917D01*
X141607872Y-66715862D01*
X141763524Y-66638622D01*
X141772233Y-66634710D01*
X141935482Y-66568867D01*
X141938633Y-66567649D01*
X142100600Y-66507624D01*
X142110612Y-66504393D01*
X142282484Y-66456917D01*
X142284701Y-66456329D01*
X142449971Y-66414275D01*
X142461263Y-66411957D01*
X142642930Y-66383452D01*
X142643912Y-66383303D01*
X142807489Y-66359678D01*
X142819994Y-66358516D01*
X143031337Y-66349681D01*
X143168621Y-66344502D01*
X143175007Y-66344427D01*
X143215966Y-66345000D01*
X143221909Y-66344382D01*
X177624152Y-66356630D01*
G37*
%TD.AperFunction*%
%TA.AperFunction,Conductor*%
G36*
X150577161Y-95225185D02*
G01*
X150583236Y-95229480D01*
X150584312Y-95230116D01*
X150584313Y-95230117D01*
X150723605Y-95312494D01*
X150764587Y-95324400D01*
X150879002Y-95357642D01*
X150879005Y-95357642D01*
X150879007Y-95357643D01*
X150915310Y-95360500D01*
X150915318Y-95360500D01*
X151327963Y-95360500D01*
X151395002Y-95380185D01*
X151440757Y-95432989D01*
X151450902Y-95468314D01*
X151452874Y-95483292D01*
X151449899Y-95483683D01*
X151449899Y-95516316D01*
X151452874Y-95516708D01*
X151437000Y-95637272D01*
X151437000Y-95862727D01*
X151447223Y-95940374D01*
X151451813Y-95975236D01*
X151509802Y-96115233D01*
X151602049Y-96235451D01*
X151722267Y-96327698D01*
X151862264Y-96385687D01*
X151974780Y-96400500D01*
X152289571Y-96400500D01*
X152356610Y-96420185D01*
X152402365Y-96472989D01*
X152412309Y-96542147D01*
X152383284Y-96605703D01*
X152377260Y-96612173D01*
X152296889Y-96692544D01*
X152250484Y-96738949D01*
X152237911Y-96749024D01*
X152238065Y-96749210D01*
X152232058Y-96754179D01*
X152184133Y-96805213D01*
X152181427Y-96808005D01*
X152161090Y-96828343D01*
X152161077Y-96828358D01*
X152158373Y-96831843D01*
X152150806Y-96840702D01*
X152119552Y-96873987D01*
X152109322Y-96892593D01*
X152098646Y-96908844D01*
X152085640Y-96925612D01*
X152085636Y-96925618D01*
X152067508Y-96967510D01*
X152062369Y-96977999D01*
X152040372Y-97018010D01*
X152040372Y-97018011D01*
X152035091Y-97038579D01*
X152028791Y-97056981D01*
X152020364Y-97076453D01*
X152013223Y-97121542D01*
X152010854Y-97132980D01*
X151999500Y-97177197D01*
X151999500Y-97198424D01*
X151997973Y-97217823D01*
X151994653Y-97238785D01*
X151995915Y-97252135D01*
X151998950Y-97284238D01*
X151999500Y-97295908D01*
X151999500Y-98785858D01*
X151979815Y-98852897D01*
X151927011Y-98898652D01*
X151918847Y-98902034D01*
X151907669Y-98906204D01*
X151907664Y-98906206D01*
X151792455Y-98992452D01*
X151792452Y-98992455D01*
X151706206Y-99107664D01*
X151706202Y-99107671D01*
X151655908Y-99242517D01*
X151650346Y-99294260D01*
X151649501Y-99302123D01*
X151649500Y-99302135D01*
X151649500Y-99914545D01*
X151629815Y-99981584D01*
X151613227Y-100002180D01*
X151612273Y-100003135D01*
X151550968Y-100036652D01*
X151524546Y-100039500D01*
X151418077Y-100039500D01*
X151351038Y-100019815D01*
X151305283Y-99967011D01*
X151295339Y-99897853D01*
X151303516Y-99868048D01*
X151323736Y-99819230D01*
X151345719Y-99766159D01*
X151360500Y-99653887D01*
X151360499Y-99136114D01*
X151360352Y-99135001D01*
X151345720Y-99023848D01*
X151345719Y-99023847D01*
X151345719Y-99023841D01*
X151307143Y-98930711D01*
X151287857Y-98884149D01*
X151287856Y-98884148D01*
X151287856Y-98884147D01*
X151195810Y-98764190D01*
X151075853Y-98672144D01*
X151075852Y-98672143D01*
X151075850Y-98672142D01*
X150936162Y-98614282D01*
X150936160Y-98614281D01*
X150936159Y-98614281D01*
X150823887Y-98599500D01*
X148926111Y-98599500D01*
X148813848Y-98614279D01*
X148813837Y-98614282D01*
X148674149Y-98672142D01*
X148554190Y-98764190D01*
X148462142Y-98884149D01*
X148404282Y-99023837D01*
X148404281Y-99023841D01*
X148389500Y-99136105D01*
X148389500Y-99653888D01*
X148404279Y-99766151D01*
X148404282Y-99766162D01*
X148462143Y-99905853D01*
X148499482Y-99954514D01*
X148524676Y-100019684D01*
X148510637Y-100088128D01*
X148499482Y-100105486D01*
X148462143Y-100154146D01*
X148404282Y-100293837D01*
X148404281Y-100293841D01*
X148389500Y-100406105D01*
X148389500Y-100923888D01*
X148404279Y-101036151D01*
X148404282Y-101036162D01*
X148462143Y-101175853D01*
X148499482Y-101224514D01*
X148524676Y-101289684D01*
X148510637Y-101358128D01*
X148499482Y-101375486D01*
X148462143Y-101424146D01*
X148404282Y-101563837D01*
X148404281Y-101563841D01*
X148389500Y-101676105D01*
X148389500Y-102193888D01*
X148404279Y-102306151D01*
X148404282Y-102306162D01*
X148462143Y-102445853D01*
X148499482Y-102494514D01*
X148524676Y-102559684D01*
X148510637Y-102628128D01*
X148499482Y-102645486D01*
X148462143Y-102694146D01*
X148404282Y-102833837D01*
X148404281Y-102833841D01*
X148389500Y-102946105D01*
X148389500Y-103230547D01*
X148369815Y-103297586D01*
X148317011Y-103343341D01*
X148247853Y-103353285D01*
X148184297Y-103324260D01*
X148177819Y-103318228D01*
X146410801Y-101551210D01*
X146400976Y-101538946D01*
X146400755Y-101539130D01*
X146395783Y-101533119D01*
X146394310Y-101531736D01*
X146392639Y-101529319D01*
X146390809Y-101527106D01*
X146391000Y-101526947D01*
X146364635Y-101488798D01*
X146337857Y-101424149D01*
X146337856Y-101424148D01*
X146337856Y-101424147D01*
X146245810Y-101304190D01*
X146245808Y-101304189D01*
X146245808Y-101304188D01*
X146160061Y-101238393D01*
X146142683Y-101225058D01*
X146101481Y-101168631D01*
X146097326Y-101098885D01*
X146105788Y-101074278D01*
X146153792Y-100971332D01*
X146159998Y-100924191D01*
X146160000Y-100924175D01*
X146160000Y-100790000D01*
X144924000Y-100790000D01*
X144856961Y-100770315D01*
X144811206Y-100717511D01*
X144800000Y-100666000D01*
X144800000Y-100664000D01*
X144819685Y-100596961D01*
X144872489Y-100551206D01*
X144924000Y-100540000D01*
X146160000Y-100540000D01*
X146160000Y-100405824D01*
X146159998Y-100405808D01*
X146153792Y-100358666D01*
X146153792Y-100358664D01*
X146105541Y-100255190D01*
X146024809Y-100174458D01*
X146024810Y-100174458D01*
X145956020Y-100142382D01*
X145903580Y-100096210D01*
X145884428Y-100029017D01*
X145904643Y-99962136D01*
X145956020Y-99917618D01*
X146024809Y-99885541D01*
X146105541Y-99804809D01*
X146153792Y-99701335D01*
X146153792Y-99701333D01*
X146159998Y-99654191D01*
X146160000Y-99654175D01*
X146160000Y-99520000D01*
X144924000Y-99520000D01*
X144856961Y-99500315D01*
X144811206Y-99447511D01*
X144800000Y-99396000D01*
X144800000Y-98850000D01*
X145050000Y-98850000D01*
X145050000Y-99270000D01*
X146160000Y-99270000D01*
X146160000Y-99135824D01*
X146159998Y-99135808D01*
X146153792Y-99088666D01*
X146153792Y-99088664D01*
X146105541Y-98985190D01*
X146024809Y-98904458D01*
X145921334Y-98856207D01*
X145874191Y-98850001D01*
X145874175Y-98850000D01*
X145050000Y-98850000D01*
X144800000Y-98850000D01*
X144333952Y-98850000D01*
X144266913Y-98830315D01*
X144221158Y-98777511D01*
X144211214Y-98708353D01*
X144240239Y-98644797D01*
X144246271Y-98638319D01*
X145666767Y-97217824D01*
X147642772Y-95241819D01*
X147704095Y-95208334D01*
X147730453Y-95205500D01*
X150510122Y-95205500D01*
X150577161Y-95225185D01*
G37*
%TD.AperFunction*%
%TA.AperFunction,Conductor*%
G36*
X154645627Y-89946054D02*
G01*
X154662982Y-89957206D01*
X154722267Y-90002698D01*
X154862264Y-90060687D01*
X154969086Y-90074750D01*
X154974764Y-90075498D01*
X154974780Y-90075500D01*
X154974787Y-90075500D01*
X155200213Y-90075500D01*
X155200220Y-90075500D01*
X155312736Y-90060687D01*
X155312736Y-90060686D01*
X155320795Y-90059626D01*
X155321198Y-90062689D01*
X155353802Y-90062689D01*
X155354205Y-90059626D01*
X155362263Y-90060686D01*
X155362264Y-90060687D01*
X155474780Y-90075500D01*
X155474787Y-90075500D01*
X155700213Y-90075500D01*
X155700220Y-90075500D01*
X155812736Y-90060687D01*
X155812736Y-90060686D01*
X155820795Y-90059626D01*
X155821198Y-90062689D01*
X155853802Y-90062689D01*
X155854205Y-90059626D01*
X155862263Y-90060686D01*
X155862264Y-90060687D01*
X155974780Y-90075500D01*
X155974787Y-90075500D01*
X156200213Y-90075500D01*
X156200220Y-90075500D01*
X156312736Y-90060687D01*
X156312736Y-90060686D01*
X156320795Y-90059626D01*
X156321198Y-90062689D01*
X156353802Y-90062689D01*
X156354205Y-90059626D01*
X156362263Y-90060686D01*
X156362264Y-90060687D01*
X156474780Y-90075500D01*
X156474787Y-90075500D01*
X156700213Y-90075500D01*
X156700220Y-90075500D01*
X156812736Y-90060687D01*
X156812736Y-90060686D01*
X156820795Y-90059626D01*
X156821198Y-90062689D01*
X156853802Y-90062689D01*
X156854205Y-90059626D01*
X156862263Y-90060686D01*
X156862264Y-90060687D01*
X156974780Y-90075500D01*
X156974787Y-90075500D01*
X157200213Y-90075500D01*
X157200220Y-90075500D01*
X157312736Y-90060687D01*
X157312736Y-90060686D01*
X157320795Y-90059626D01*
X157321198Y-90062689D01*
X157353802Y-90062689D01*
X157354205Y-90059626D01*
X157362263Y-90060686D01*
X157362264Y-90060687D01*
X157474780Y-90075500D01*
X157474787Y-90075500D01*
X157700213Y-90075500D01*
X157700220Y-90075500D01*
X157812736Y-90060687D01*
X157812736Y-90060686D01*
X157820795Y-90059626D01*
X157821198Y-90062689D01*
X157853802Y-90062689D01*
X157854205Y-90059626D01*
X157862263Y-90060686D01*
X157862264Y-90060687D01*
X157974780Y-90075500D01*
X157974787Y-90075500D01*
X158200213Y-90075500D01*
X158200220Y-90075500D01*
X158312736Y-90060687D01*
X158312736Y-90060686D01*
X158320795Y-90059626D01*
X158321198Y-90062689D01*
X158353802Y-90062689D01*
X158354205Y-90059626D01*
X158362263Y-90060686D01*
X158362264Y-90060687D01*
X158474780Y-90075500D01*
X158474787Y-90075500D01*
X158700213Y-90075500D01*
X158700220Y-90075500D01*
X158812736Y-90060687D01*
X158812736Y-90060686D01*
X158820795Y-90059626D01*
X158821198Y-90062689D01*
X158853802Y-90062689D01*
X158854205Y-90059626D01*
X158862263Y-90060686D01*
X158862264Y-90060687D01*
X158974780Y-90075500D01*
X158974787Y-90075500D01*
X159193302Y-90075500D01*
X159260341Y-90095185D01*
X159306096Y-90147989D01*
X159316040Y-90217147D01*
X159287015Y-90280703D01*
X159228237Y-90318477D01*
X159219083Y-90320790D01*
X159186965Y-90327616D01*
X159186960Y-90327618D01*
X159014038Y-90404609D01*
X159014033Y-90404612D01*
X158860897Y-90515872D01*
X158734234Y-90656546D01*
X158639589Y-90820476D01*
X158639586Y-90820483D01*
X158589304Y-90975236D01*
X158581094Y-91000505D01*
X158561308Y-91188761D01*
X158581094Y-91377017D01*
X158581095Y-91377020D01*
X158639586Y-91557038D01*
X158639589Y-91557045D01*
X158734235Y-91720977D01*
X158860897Y-91861649D01*
X159014033Y-91972909D01*
X159014038Y-91972912D01*
X159186960Y-92049903D01*
X159186965Y-92049905D01*
X159372122Y-92089261D01*
X159372123Y-92089261D01*
X159561412Y-92089261D01*
X159561414Y-92089261D01*
X159612219Y-92078462D01*
X159681886Y-92083778D01*
X159737620Y-92125915D01*
X159761725Y-92191495D01*
X159762000Y-92199752D01*
X159762000Y-92362727D01*
X159777874Y-92483292D01*
X159774899Y-92483683D01*
X159774899Y-92516316D01*
X159777874Y-92516708D01*
X159762000Y-92637272D01*
X159762000Y-92862727D01*
X159777874Y-92983292D01*
X159774899Y-92983683D01*
X159774899Y-93016316D01*
X159777874Y-93016708D01*
X159776813Y-93024762D01*
X159776813Y-93024764D01*
X159773438Y-93050393D01*
X159762000Y-93137272D01*
X159762000Y-93362727D01*
X159771889Y-93437837D01*
X159774524Y-93457853D01*
X159777874Y-93483292D01*
X159774899Y-93483683D01*
X159774899Y-93516316D01*
X159777874Y-93516708D01*
X159776813Y-93524762D01*
X159776813Y-93524764D01*
X159776517Y-93527011D01*
X159762000Y-93637272D01*
X159762000Y-93862727D01*
X159772082Y-93939304D01*
X159776036Y-93969336D01*
X159777874Y-93983292D01*
X159774899Y-93983683D01*
X159774899Y-94016316D01*
X159777874Y-94016708D01*
X159776813Y-94024762D01*
X159776813Y-94024764D01*
X159776451Y-94027514D01*
X159762000Y-94137272D01*
X159762000Y-94362727D01*
X159772999Y-94446271D01*
X159773875Y-94452923D01*
X159777874Y-94483292D01*
X159774899Y-94483683D01*
X159774899Y-94516316D01*
X159777874Y-94516708D01*
X159762000Y-94637272D01*
X159762000Y-94642692D01*
X159742315Y-94709731D01*
X159689511Y-94755486D01*
X159620353Y-94765430D01*
X159556797Y-94736405D01*
X159550319Y-94730373D01*
X158670434Y-93850488D01*
X158660361Y-93837914D01*
X158660174Y-93838070D01*
X158655198Y-93832054D01*
X158604167Y-93784134D01*
X158601369Y-93781423D01*
X158581035Y-93761089D01*
X158577548Y-93758384D01*
X158568669Y-93750800D01*
X158535396Y-93719554D01*
X158535388Y-93719548D01*
X158516792Y-93709325D01*
X158500531Y-93698644D01*
X158483763Y-93685637D01*
X158467409Y-93678560D01*
X158441853Y-93667501D01*
X158431394Y-93662377D01*
X158391368Y-93640373D01*
X158391365Y-93640372D01*
X158370801Y-93635092D01*
X158352396Y-93628790D01*
X158332927Y-93620365D01*
X158332921Y-93620363D01*
X158287837Y-93613223D01*
X158276398Y-93610854D01*
X158232180Y-93599500D01*
X158232177Y-93599500D01*
X158210955Y-93599500D01*
X158191555Y-93597973D01*
X158170596Y-93594653D01*
X158170595Y-93594653D01*
X158153342Y-93596284D01*
X158125140Y-93598950D01*
X158113470Y-93599500D01*
X155756358Y-93599500D01*
X155689319Y-93579815D01*
X155643564Y-93527011D01*
X155633620Y-93457853D01*
X155633884Y-93456109D01*
X155636777Y-93437837D01*
X155639143Y-93426405D01*
X155650500Y-93382177D01*
X155650500Y-93360955D01*
X155652027Y-93341555D01*
X155652087Y-93341177D01*
X155655347Y-93320595D01*
X155651050Y-93275140D01*
X155650500Y-93263470D01*
X155650500Y-91819881D01*
X155652268Y-91803868D01*
X155652026Y-91803846D01*
X155652758Y-91796090D01*
X155652760Y-91796083D01*
X155650561Y-91726115D01*
X155650500Y-91722220D01*
X155650500Y-91693457D01*
X155650499Y-91693450D01*
X155649949Y-91689096D01*
X155649030Y-91677434D01*
X155647597Y-91631810D01*
X155641676Y-91611432D01*
X155637731Y-91592383D01*
X155635071Y-91571322D01*
X155618261Y-91528867D01*
X155614481Y-91517825D01*
X155608685Y-91497873D01*
X155601744Y-91473981D01*
X155590939Y-91455712D01*
X155582379Y-91438238D01*
X155581351Y-91435642D01*
X155574568Y-91418509D01*
X155547737Y-91381579D01*
X155541323Y-91371815D01*
X155518082Y-91332517D01*
X155518081Y-91332515D01*
X155503075Y-91317509D01*
X155490435Y-91302710D01*
X155477961Y-91285540D01*
X155442780Y-91256436D01*
X155434140Y-91248574D01*
X154396949Y-90211383D01*
X154363464Y-90150060D01*
X154368448Y-90080368D01*
X154410320Y-90024435D01*
X154437175Y-90009142D01*
X154452733Y-90002698D01*
X154512014Y-89957209D01*
X154577183Y-89932016D01*
X154645627Y-89946054D01*
G37*
%TD.AperFunction*%
%TA.AperFunction,Conductor*%
G36*
X161440669Y-88943113D02*
G01*
X161498718Y-88982000D01*
X161526528Y-89046097D01*
X161526934Y-89049827D01*
X161527850Y-89059600D01*
X161527851Y-89059605D01*
X161572653Y-89187645D01*
X161653207Y-89296792D01*
X161760165Y-89375730D01*
X161802415Y-89431377D01*
X161807874Y-89501033D01*
X161774807Y-89562583D01*
X161713713Y-89596484D01*
X161686531Y-89599500D01*
X160362000Y-89599500D01*
X160294961Y-89579815D01*
X160249206Y-89527011D01*
X160238000Y-89475500D01*
X160238000Y-89448523D01*
X160257685Y-89381484D01*
X160310489Y-89335729D01*
X160379647Y-89325785D01*
X160387768Y-89327230D01*
X160483392Y-89347556D01*
X160483393Y-89347556D01*
X160672682Y-89347556D01*
X160672684Y-89347556D01*
X160857841Y-89308200D01*
X161030768Y-89231207D01*
X161183909Y-89119944D01*
X161310571Y-88979272D01*
X161310573Y-88979267D01*
X161311326Y-88978432D01*
X161370812Y-88941783D01*
X161440669Y-88943113D01*
G37*
%TD.AperFunction*%
%TA.AperFunction,Conductor*%
G36*
X164322061Y-78615450D02*
G01*
X164375248Y-78660759D01*
X164395496Y-78727631D01*
X164395500Y-78728674D01*
X164395500Y-79051869D01*
X164395501Y-79051876D01*
X164401908Y-79111483D01*
X164452202Y-79246328D01*
X164452206Y-79246335D01*
X164538452Y-79361544D01*
X164538455Y-79361547D01*
X164653664Y-79447793D01*
X164653671Y-79447797D01*
X164788511Y-79498089D01*
X164788517Y-79498091D01*
X164788745Y-79498115D01*
X164788913Y-79498184D01*
X164796062Y-79499874D01*
X164795788Y-79501031D01*
X164853296Y-79524846D01*
X164893150Y-79582234D01*
X164899500Y-79621405D01*
X164899500Y-80379192D01*
X164879815Y-80446231D01*
X164863181Y-80466873D01*
X164076873Y-81253181D01*
X164015550Y-81286666D01*
X163989192Y-81289500D01*
X163945302Y-81289500D01*
X163909008Y-81292356D01*
X163909002Y-81292357D01*
X163753609Y-81337504D01*
X163753606Y-81337505D01*
X163614315Y-81419881D01*
X163614307Y-81419887D01*
X163520617Y-81513578D01*
X163459294Y-81547063D01*
X163413539Y-81548370D01*
X163360691Y-81540000D01*
X163315000Y-81540000D01*
X163315000Y-82101000D01*
X163295315Y-82168039D01*
X163242511Y-82213794D01*
X163191000Y-82225000D01*
X162660001Y-82225000D01*
X162660001Y-82300689D01*
X162674465Y-82392017D01*
X162730552Y-82502093D01*
X162730555Y-82502098D01*
X162817901Y-82589444D01*
X162817906Y-82589448D01*
X162927984Y-82645536D01*
X162938350Y-82647178D01*
X163001485Y-82677107D01*
X163038416Y-82736419D01*
X163037418Y-82806281D01*
X162998808Y-82864514D01*
X162962285Y-82885833D01*
X162907671Y-82906202D01*
X162907664Y-82906206D01*
X162792455Y-82992452D01*
X162792452Y-82992455D01*
X162706206Y-83107664D01*
X162706202Y-83107671D01*
X162655908Y-83242517D01*
X162649501Y-83302116D01*
X162649500Y-83302135D01*
X162649500Y-84397870D01*
X162649501Y-84397876D01*
X162655908Y-84457483D01*
X162706202Y-84592328D01*
X162706206Y-84592335D01*
X162792452Y-84707544D01*
X162792455Y-84707547D01*
X162907664Y-84793793D01*
X162907671Y-84793797D01*
X163014972Y-84833818D01*
X163070906Y-84875689D01*
X163095323Y-84941154D01*
X163080471Y-85009427D01*
X163031066Y-85058832D01*
X163014972Y-85066182D01*
X162907671Y-85106202D01*
X162907664Y-85106206D01*
X162792455Y-85192452D01*
X162792452Y-85192455D01*
X162706206Y-85307664D01*
X162706202Y-85307671D01*
X162655908Y-85442517D01*
X162649501Y-85502116D01*
X162649500Y-85502135D01*
X162649500Y-86597870D01*
X162649501Y-86597876D01*
X162655908Y-86657483D01*
X162706202Y-86792328D01*
X162706206Y-86792335D01*
X162792452Y-86907544D01*
X162792455Y-86907547D01*
X162907664Y-86993793D01*
X162907671Y-86993797D01*
X162925643Y-87000500D01*
X163042517Y-87044091D01*
X163102127Y-87050500D01*
X163739716Y-87050499D01*
X163799453Y-87065837D01*
X163819504Y-87076860D01*
X163833632Y-87084627D01*
X163854193Y-87089905D01*
X163872597Y-87096207D01*
X163892074Y-87104636D01*
X163937178Y-87111779D01*
X163948597Y-87114144D01*
X163992823Y-87125500D01*
X164014045Y-87125500D01*
X164033442Y-87127026D01*
X164054405Y-87130347D01*
X164099860Y-87126050D01*
X164111530Y-87125500D01*
X164375501Y-87125500D01*
X164442540Y-87145185D01*
X164488295Y-87197989D01*
X164499501Y-87249500D01*
X164499501Y-87264363D01*
X164514953Y-87381753D01*
X164514957Y-87381765D01*
X164523566Y-87402550D01*
X164531033Y-87472019D01*
X164523566Y-87497450D01*
X164514957Y-87518234D01*
X164514955Y-87518239D01*
X164499501Y-87635629D01*
X164499500Y-87635645D01*
X164499500Y-87650500D01*
X164479815Y-87717539D01*
X164427011Y-87763294D01*
X164375500Y-87774500D01*
X164310944Y-87774500D01*
X164274055Y-87768886D01*
X164256109Y-87763294D01*
X164152196Y-87730914D01*
X164081616Y-87724500D01*
X163568384Y-87724500D01*
X163549145Y-87726248D01*
X163497807Y-87730913D01*
X163335393Y-87781522D01*
X163189811Y-87869530D01*
X163069530Y-87989811D01*
X162981521Y-88135396D01*
X162976860Y-88150354D01*
X162938122Y-88208502D01*
X162874097Y-88236475D01*
X162805112Y-88225393D01*
X162758705Y-88187097D01*
X162696792Y-88103207D01*
X162587645Y-88022653D01*
X162459602Y-87977850D01*
X162429207Y-87975000D01*
X162300000Y-87975000D01*
X162300000Y-88701000D01*
X162280315Y-88768039D01*
X162227511Y-88813794D01*
X162176000Y-88825000D01*
X162174000Y-88825000D01*
X162106961Y-88805315D01*
X162061206Y-88752511D01*
X162050000Y-88701000D01*
X162050000Y-87975000D01*
X161920804Y-87975000D01*
X161890393Y-87977851D01*
X161762354Y-88022653D01*
X161653206Y-88103208D01*
X161629721Y-88135030D01*
X161574073Y-88177280D01*
X161504417Y-88182737D01*
X161442868Y-88149669D01*
X161412021Y-88099712D01*
X161405217Y-88078772D01*
X161310571Y-87914840D01*
X161183909Y-87774168D01*
X161183908Y-87774167D01*
X161030772Y-87662907D01*
X161030767Y-87662904D01*
X160857845Y-87585913D01*
X160857840Y-87585911D01*
X160712039Y-87554921D01*
X160672684Y-87546556D01*
X160483392Y-87546556D01*
X160450935Y-87553454D01*
X160298235Y-87585911D01*
X160298230Y-87585913D01*
X160125306Y-87662905D01*
X160105283Y-87677453D01*
X160039477Y-87700932D01*
X159971423Y-87685105D01*
X159956914Y-87675510D01*
X159952733Y-87672302D01*
X159952730Y-87672300D01*
X159862231Y-87634814D01*
X159812736Y-87614313D01*
X159798198Y-87612399D01*
X159700227Y-87599500D01*
X159700220Y-87599500D01*
X159474780Y-87599500D01*
X159474772Y-87599500D01*
X159388424Y-87610869D01*
X159362264Y-87614313D01*
X159362262Y-87614313D01*
X159354208Y-87615374D01*
X159353816Y-87612399D01*
X159321184Y-87612399D01*
X159320792Y-87615374D01*
X159312737Y-87614313D01*
X159312736Y-87614313D01*
X159283771Y-87610499D01*
X159200227Y-87599500D01*
X159200220Y-87599500D01*
X158974780Y-87599500D01*
X158974772Y-87599500D01*
X158888424Y-87610869D01*
X158862264Y-87614313D01*
X158862262Y-87614313D01*
X158854208Y-87615374D01*
X158853816Y-87612399D01*
X158821184Y-87612399D01*
X158820792Y-87615374D01*
X158812737Y-87614313D01*
X158812736Y-87614313D01*
X158783771Y-87610499D01*
X158700227Y-87599500D01*
X158700220Y-87599500D01*
X158474780Y-87599500D01*
X158474772Y-87599500D01*
X158388424Y-87610869D01*
X158362264Y-87614313D01*
X158362262Y-87614313D01*
X158354208Y-87615374D01*
X158353816Y-87612399D01*
X158321183Y-87612399D01*
X158320791Y-87615374D01*
X158312737Y-87614313D01*
X158312736Y-87614313D01*
X158275090Y-87609356D01*
X158215227Y-87601475D01*
X158151331Y-87573208D01*
X158112861Y-87514883D01*
X158112030Y-87445018D01*
X158143731Y-87390857D01*
X158552613Y-86981975D01*
X158613934Y-86948492D01*
X158683621Y-86953475D01*
X158792517Y-86994091D01*
X158852127Y-87000500D01*
X159947872Y-87000499D01*
X160007483Y-86994091D01*
X160142331Y-86943796D01*
X160257546Y-86857546D01*
X160343796Y-86742331D01*
X160394091Y-86607483D01*
X160400500Y-86547873D01*
X160400499Y-85452128D01*
X160394091Y-85392517D01*
X160366720Y-85319132D01*
X160343797Y-85257671D01*
X160343793Y-85257664D01*
X160257547Y-85142455D01*
X160257544Y-85142452D01*
X160135231Y-85050888D01*
X160136930Y-85048617D01*
X160097743Y-85009435D01*
X160082886Y-84941163D01*
X160107298Y-84875697D01*
X160136311Y-84850556D01*
X160135231Y-84849112D01*
X160215136Y-84789293D01*
X160257546Y-84757546D01*
X160343796Y-84642331D01*
X160394091Y-84507483D01*
X160400500Y-84447873D01*
X160400499Y-83352128D01*
X160394091Y-83292517D01*
X160393221Y-83290185D01*
X160343797Y-83157671D01*
X160343793Y-83157664D01*
X160257547Y-83042455D01*
X160257544Y-83042452D01*
X160142335Y-82956206D01*
X160142328Y-82956202D01*
X160007482Y-82905908D01*
X160007483Y-82905908D01*
X159947883Y-82899501D01*
X159947881Y-82899500D01*
X159947873Y-82899500D01*
X159947865Y-82899500D01*
X159916110Y-82899500D01*
X159849071Y-82879815D01*
X159803316Y-82827011D01*
X159793372Y-82757853D01*
X159809991Y-82711353D01*
X159868478Y-82614606D01*
X159919086Y-82452196D01*
X159925500Y-82381616D01*
X159925500Y-81975000D01*
X162660000Y-81975000D01*
X163065000Y-81975000D01*
X163065000Y-81540000D01*
X163019311Y-81540000D01*
X162927982Y-81554465D01*
X162817906Y-81610552D01*
X162817901Y-81610555D01*
X162730555Y-81697901D01*
X162730551Y-81697906D01*
X162674463Y-81807984D01*
X162660000Y-81899308D01*
X162660000Y-81975000D01*
X159925500Y-81975000D01*
X159925500Y-81868384D01*
X159919086Y-81797804D01*
X159868478Y-81635394D01*
X159864400Y-81628648D01*
X159846565Y-81561093D01*
X159868084Y-81494620D01*
X159922125Y-81450333D01*
X159970518Y-81440500D01*
X160524495Y-81440500D01*
X160540505Y-81442267D01*
X160540528Y-81442026D01*
X160548289Y-81442758D01*
X160548296Y-81442760D01*
X160618262Y-81440560D01*
X160622157Y-81440500D01*
X160650925Y-81440500D01*
X160655287Y-81439948D01*
X160666939Y-81439030D01*
X160712569Y-81437597D01*
X160732956Y-81431673D01*
X160751996Y-81427731D01*
X160773058Y-81425071D01*
X160815520Y-81408258D01*
X160826557Y-81404480D01*
X160870398Y-81391744D01*
X160888665Y-81380939D01*
X160906136Y-81372380D01*
X160925871Y-81364568D01*
X160962816Y-81337725D01*
X160972558Y-81331326D01*
X161011865Y-81308081D01*
X161026870Y-81293075D01*
X161041668Y-81280436D01*
X161058837Y-81267963D01*
X161087946Y-81232774D01*
X161095790Y-81224154D01*
X162789321Y-79530623D01*
X162850642Y-79497140D01*
X162899785Y-79496418D01*
X162943020Y-79504500D01*
X162943021Y-79504500D01*
X163156978Y-79504500D01*
X163156980Y-79504500D01*
X163367297Y-79465185D01*
X163566810Y-79387893D01*
X163748722Y-79275258D01*
X163906841Y-79131114D01*
X164035781Y-78960370D01*
X164131151Y-78768840D01*
X164152234Y-78694738D01*
X164189512Y-78635648D01*
X164252821Y-78606089D01*
X164322061Y-78615450D01*
G37*
%TD.AperFunction*%
%TA.AperFunction,Conductor*%
G36*
X170743039Y-78194685D02*
G01*
X170788794Y-78247489D01*
X170800000Y-78299000D01*
X170800000Y-79024999D01*
X170929196Y-79024999D01*
X170959606Y-79022148D01*
X171087645Y-78977346D01*
X171196791Y-78896792D01*
X171258704Y-78812903D01*
X171314352Y-78770652D01*
X171384008Y-78765193D01*
X171445557Y-78798260D01*
X171476860Y-78849645D01*
X171481522Y-78864606D01*
X171569528Y-79010185D01*
X171569530Y-79010188D01*
X171689811Y-79130469D01*
X171689813Y-79130470D01*
X171689815Y-79130472D01*
X171835394Y-79218478D01*
X171997804Y-79269086D01*
X172068384Y-79275500D01*
X172068387Y-79275500D01*
X172581613Y-79275500D01*
X172581616Y-79275500D01*
X172652196Y-79269086D01*
X172738612Y-79242157D01*
X172808471Y-79241008D01*
X172867863Y-79277809D01*
X172897931Y-79340878D01*
X172899500Y-79360544D01*
X172899500Y-81950249D01*
X172879815Y-82017288D01*
X172849812Y-82049515D01*
X172792457Y-82092451D01*
X172792455Y-82092453D01*
X172792454Y-82092454D01*
X172783917Y-82103857D01*
X172777374Y-82112598D01*
X172721439Y-82154467D01*
X172651747Y-82159449D01*
X172590425Y-82125962D01*
X172579733Y-82113771D01*
X172578833Y-82112598D01*
X172528282Y-82046718D01*
X172402841Y-81950464D01*
X172347128Y-81927387D01*
X172256762Y-81889956D01*
X172256760Y-81889955D01*
X172139370Y-81874501D01*
X172139367Y-81874500D01*
X172139361Y-81874500D01*
X172139354Y-81874500D01*
X170785636Y-81874500D01*
X170668246Y-81889953D01*
X170668237Y-81889956D01*
X170522160Y-81950463D01*
X170396718Y-82046718D01*
X170300463Y-82172160D01*
X170283093Y-82214096D01*
X170239252Y-82268499D01*
X170172957Y-82290564D01*
X170105258Y-82273285D01*
X170057648Y-82222147D01*
X170044532Y-82166643D01*
X170044532Y-79062216D01*
X170064217Y-78995177D01*
X170117021Y-78949422D01*
X170186179Y-78939478D01*
X170242166Y-78962446D01*
X170262355Y-78977346D01*
X170262354Y-78977346D01*
X170390397Y-79022149D01*
X170420778Y-79024998D01*
X170420806Y-79024999D01*
X170549999Y-79024999D01*
X170550000Y-79024998D01*
X170550000Y-78299000D01*
X170569685Y-78231961D01*
X170622489Y-78186206D01*
X170674000Y-78175000D01*
X170676000Y-78175000D01*
X170743039Y-78194685D01*
G37*
%TD.AperFunction*%
%TD*%
M02*
