M48
; DRILL file {KiCad 7.0.10} date Thu Mar  6 06:52:04 2025
; FORMAT={-:-/ absolute / metric / decimal}
; #@! TF.CreationDate,2025-03-06T06:52:04-06:00
; #@! TF.GenerationSoftware,Kicad,Pcbnew,7.0.10
; #@! TF.FileFunction,MixedPlating,1,2
FMAT,2
METRIC
; #@! TA.AperFunction,Plated,PTH,ViaDrill
T1C0.300
; #@! TA.AperFunction,Plated,PTH,ViaDrill
T2C0.400
; #@! TA.AperFunction,Plated,PTH,ComponentDrill
T3C0.500
; #@! TA.AperFunction,Plated,PTH,ComponentDrill
T4C0.600
; #@! TA.AperFunction,Plated,PTH,ComponentDrill
T5C0.680
; #@! TA.AperFunction,Plated,PTH,ComponentDrill
T6C0.800
; #@! TA.AperFunction,Plated,PTH,ComponentDrill
T7C0.850
; #@! TA.AperFunction,Plated,PTH,ComponentDrill
T8C1.000
; #@! TA.AperFunction,Plated,PTH,ComponentDrill
T9C1.100
; #@! TA.AperFunction,Plated,PTH,ComponentDrill
T10C1.397
; #@! TA.AperFunction,Plated,PTH,ComponentDrill
T11C3.200
%
G90
G05
T1
X147.2Y-100.1
X159.467Y-91.189
X160.578Y-88.447
X164.15Y-100.35
X168.7Y-89.775
X170.45Y-98.05
X170.45Y-100.35
T2
X146.2Y-107.212
X154.2Y-92.2
X156.6Y-95.7
X167.1Y-88.1
X167.11Y-87.05
X167.2Y-94.4
X167.88Y-93.38
X170.675Y-78.3
X170.713Y-76.5
T3
X152.65Y-99.85
X152.65Y-101.85
X152.65Y-103.85
X159.4Y-83.9
X159.4Y-86.0
X163.4Y-93.65
X163.65Y-83.85
X163.65Y-86.05
X165.45Y-93.65
X173.65Y-82.95
X173.65Y-85.15
X173.65Y-87.2
T5
X143.82Y-85.9
X148.7Y-85.9
T6
X160.55Y-75.15
X160.55Y-78.35
X163.05Y-75.15
X163.05Y-78.35
X165.55Y-75.15
X165.55Y-78.35
T7
X176.237Y-89.2
X176.237Y-94.2
T8
X149.93Y-70.4
X152.47Y-70.4
X155.01Y-70.4
X157.55Y-70.4
X162.28Y-70.35
X164.82Y-70.35
X167.36Y-70.35
X169.9Y-70.35
T9
X145.9Y-76.8
X145.9Y-81.3
X152.4Y-76.8
X152.4Y-81.3
T10
X151.62Y-110.0
X156.7Y-110.0
X164.42Y-110.0
X169.5Y-110.0
T11
X143.2Y-69.7
X143.25Y-112.9
X143.3Y-93.6
X177.15Y-69.7
X177.15Y-112.7
T4
G00X178.588Y-88.2
M15
G01X179.287Y-88.2
M16
G05
G00X179.287Y-95.2
M15
G01X178.588Y-95.2
M16
G05
M30
